M48
; DRILL file {KiCad (5.1.9)-1} date 04/07/21 14:29:44
; FORMAT={-:-/ absolute / inch / decimal}
; #@! TF.CreationDate,2021-04-07T14:29:44+02:00
; #@! TF.GenerationSoftware,Kicad,Pcbnew,(5.1.9)-1
; #@! TF.FileFunction,Plated,1,2,PTH
FMAT,2
INCH
T1C0.0157
T2C0.0217
T3C0.0276
T4C0.0295
T5C0.0335
T6C0.0394
T7C0.1382
%
G90
G05
T1
X5.3004Y-3.1323
X5.4035Y-4.6543
X5.436Y-4.4496
X5.6146Y-4.639
X5.6156Y-4.6936
X5.6421Y-2.7583
X5.7705Y-3.9362
X5.8236Y-3.778
X5.8307Y-2.7583
X6.0953Y-3.6409
X6.2134Y-2.3441
X6.585Y-4.0638
T3
X5.6429Y-2.8496
X5.8154Y-2.9809
X5.9228Y-3.5949
X6.0606Y-2.9858
X6.2035Y-2.987
X6.6469Y-3.5941
T4
X4.9528Y-2.8492
X5.0315Y-2.8492
T6
X5.0772Y-3.8622
X5.1772Y-3.8622
X5.2772Y-3.8622
X5.3772Y-3.8622
X5.4772Y-3.8622
X5.5772Y-3.8622
X5.6772Y-3.8622
X5.7579Y-2.4217
X5.8579Y-2.4217
X5.9228Y-3.865
X5.9579Y-2.4217
X6.0228Y-3.865
X6.1228Y-3.865
X6.2228Y-3.865
X6.3228Y-3.865
X6.4228Y-3.865
X6.5228Y-3.865
X6.6228Y-3.865
T7
X5.2807Y-2.6043
X5.2807Y-4.587
X6.4413Y-4.585
X6.4425Y-2.602
T2
G00X4.986Y-3.1951
M15
G01X4.9604Y-3.1951
M16
G05
G00X4.986Y-3.5002
M15
G01X4.9604Y-3.5002
M16
G05
T5
G00X5.1337Y-3.201
M15
G01X5.112Y-3.201
M16
G05
G00X5.1337Y-3.4943
M15
G01X5.112Y-3.4943
M16
G05
T0
M30
