%TF.GenerationSoftware,KiCad,Pcbnew,(5.1.9)-1*%
%TF.CreationDate,2021-05-12T18:30:48+02:00*%
%TF.ProjectId,clip,636c6970-2e6b-4696-9361-645f70636258,rev?*%
%TF.SameCoordinates,Original*%
%TF.FileFunction,Soldermask,Bot*%
%TF.FilePolarity,Negative*%
%FSLAX46Y46*%
G04 Gerber Fmt 4.6, Leading zero omitted, Abs format (unit mm)*
G04 Created by KiCad (PCBNEW (5.1.9)-1) date 2021-05-12 18:30:48*
%MOMM*%
%LPD*%
G01*
G04 APERTURE LIST*
%ADD10O,1.700000X1.700000*%
%ADD11R,1.700000X1.700000*%
%ADD12C,0.800000*%
%ADD13O,0.850000X1.850000*%
%ADD14C,0.840000*%
%ADD15R,0.840000X0.840000*%
%ADD16O,1.200000X1.750000*%
G04 APERTURE END LIST*
D10*
%TO.C,DL*%
X126490000Y-117670000D03*
D11*
X126490000Y-120210000D03*
%TD*%
D10*
%TO.C,PW*%
X171450000Y-117665500D03*
D11*
X171450000Y-120205500D03*
%TD*%
D12*
%TO.C,EN*%
X166350000Y-108920000D03*
%TD*%
D10*
%TO.C,LIS3DH*%
X168670000Y-91870000D03*
X166130000Y-91870000D03*
X163590000Y-91870000D03*
X161050000Y-91870000D03*
X158510000Y-91870000D03*
X155970000Y-91870000D03*
X153430000Y-91870000D03*
D11*
X150890000Y-91870000D03*
%TD*%
D10*
%TO.C,VIN*%
X137470000Y-61130000D03*
D11*
X140010000Y-61130000D03*
%TD*%
D10*
%TO.C,FW*%
X155300000Y-97650000D03*
X152760000Y-97650000D03*
X150220000Y-97650000D03*
X147680000Y-97650000D03*
X145140000Y-97650000D03*
D11*
X142600000Y-97650000D03*
%TD*%
D10*
%TO.C,BME680*%
X144208500Y-91821000D03*
X141668500Y-91821000D03*
X139128500Y-91821000D03*
X136588500Y-91821000D03*
X134048500Y-91821000D03*
X131508500Y-91821000D03*
D11*
X128968500Y-91821000D03*
%TD*%
D10*
%TO.C,MOISTURE*%
X151380000Y-61150000D03*
X148840000Y-61150000D03*
D11*
X146300000Y-61150000D03*
%TD*%
D13*
%TO.C,USB*%
X135175000Y-55080000D03*
X142325000Y-55080000D03*
D14*
X137450000Y-55300000D03*
X138100000Y-54300000D03*
X138750000Y-55300000D03*
X139400000Y-54300000D03*
D15*
X140050000Y-55300000D03*
%TD*%
D16*
%TO.C,BATTERY*%
X125800000Y-72370000D03*
G36*
G01*
X128400000Y-71744999D02*
X128400000Y-72995001D01*
G75*
G02*
X128150001Y-73245000I-249999J0D01*
G01*
X127449999Y-73245000D01*
G75*
G02*
X127200000Y-72995001I0J249999D01*
G01*
X127200000Y-71744999D01*
G75*
G02*
X127449999Y-71495000I249999J0D01*
G01*
X128150001Y-71495000D01*
G75*
G02*
X128400000Y-71744999I0J-249999D01*
G01*
G37*
%TD*%
D12*
%TO.C,BOOT*%
X131330000Y-108915000D03*
%TD*%
M02*
