%FSLAX45Y45*%
G04 Gerber Fmt 4.5, Leading zero omitted, Abs format (unit mm)*
G04 Created by KiCad (PCBNEW (5.1.10)-1) date 2021-06-27 19:44:03*
%MOMM*%
%LPD*%
G01*
G04 APERTURE LIST*
%TA.AperFunction,Profile*%
%ADD10C,0.100000*%
%TD*%
%ADD11C,0.200000*%
%ADD12C,0.300000*%
G04 APERTURE END LIST*
D10*
X12745828Y-7322762D02*
X13360400Y-7322312D01*
X12741000Y-12498000D02*
X12745828Y-7322762D01*
X12741000Y-12528000D02*
X12741000Y-12498000D01*
X17033000Y-12530000D02*
X12741000Y-12528000D01*
X17033000Y-7327000D02*
X17033000Y-12530000D01*
X13360400Y-7322312D02*
X17033000Y-7327000D01*
D11*
X13102712Y-8929692D02*
X13182712Y-9009692D01*
X13182712Y-8929692D02*
X13102712Y-9009692D01*
X13102712Y-9429692D02*
X13182712Y-9509692D01*
X13182712Y-9429692D02*
X13102712Y-9509692D01*
X16210000Y-10936000D02*
X16290000Y-11016000D01*
X16290000Y-10936000D02*
X16210000Y-11016000D01*
D12*
X13022428Y-13000714D02*
X13022428Y-12700714D01*
X13093857Y-12700714D01*
X13136714Y-12715000D01*
X13165286Y-12743571D01*
X13179571Y-12772143D01*
X13193857Y-12829286D01*
X13193857Y-12872143D01*
X13179571Y-12929286D01*
X13165286Y-12957857D01*
X13136714Y-12986429D01*
X13093857Y-13000714D01*
X13022428Y-13000714D01*
X13322428Y-13000714D02*
X13322428Y-12800714D01*
X13322428Y-12857857D02*
X13336714Y-12829286D01*
X13351000Y-12815000D01*
X13379571Y-12800714D01*
X13408143Y-12800714D01*
X13508143Y-13000714D02*
X13508143Y-12800714D01*
X13508143Y-12700714D02*
X13493857Y-12715000D01*
X13508143Y-12729286D01*
X13522428Y-12715000D01*
X13508143Y-12700714D01*
X13508143Y-12729286D01*
X13693857Y-13000714D02*
X13665286Y-12986429D01*
X13651000Y-12957857D01*
X13651000Y-12700714D01*
X13851000Y-13000714D02*
X13822428Y-12986429D01*
X13808143Y-12957857D01*
X13808143Y-12700714D01*
X14193857Y-13000714D02*
X14193857Y-12700714D01*
X14293857Y-12915000D01*
X14393857Y-12700714D01*
X14393857Y-13000714D01*
X14665286Y-13000714D02*
X14665286Y-12843571D01*
X14651000Y-12815000D01*
X14622428Y-12800714D01*
X14565286Y-12800714D01*
X14536714Y-12815000D01*
X14665286Y-12986429D02*
X14636714Y-13000714D01*
X14565286Y-13000714D01*
X14536714Y-12986429D01*
X14522428Y-12957857D01*
X14522428Y-12929286D01*
X14536714Y-12900714D01*
X14565286Y-12886429D01*
X14636714Y-12886429D01*
X14665286Y-12872143D01*
X14808143Y-12800714D02*
X14808143Y-13100714D01*
X14808143Y-12815000D02*
X14836714Y-12800714D01*
X14893857Y-12800714D01*
X14922428Y-12815000D01*
X14936714Y-12829286D01*
X14951000Y-12857857D01*
X14951000Y-12943571D01*
X14936714Y-12972143D01*
X14922428Y-12986429D01*
X14893857Y-13000714D01*
X14836714Y-13000714D01*
X14808143Y-12986429D01*
X15079571Y-12972143D02*
X15093857Y-12986429D01*
X15079571Y-13000714D01*
X15065286Y-12986429D01*
X15079571Y-12972143D01*
X15079571Y-13000714D01*
X15079571Y-12815000D02*
X15093857Y-12829286D01*
X15079571Y-12843571D01*
X15065286Y-12829286D01*
X15079571Y-12815000D01*
X15079571Y-12843571D01*
X12656000Y-13455000D02*
X12736000Y-13535000D01*
X12736000Y-13455000D02*
X12656000Y-13535000D01*
X13079571Y-13330714D02*
X13108143Y-13330714D01*
X13136714Y-13345000D01*
X13151000Y-13359286D01*
X13165286Y-13387857D01*
X13179571Y-13445000D01*
X13179571Y-13516429D01*
X13165286Y-13573571D01*
X13151000Y-13602143D01*
X13136714Y-13616429D01*
X13108143Y-13630714D01*
X13079571Y-13630714D01*
X13051000Y-13616429D01*
X13036714Y-13602143D01*
X13022428Y-13573571D01*
X13008143Y-13516429D01*
X13008143Y-13445000D01*
X13022428Y-13387857D01*
X13036714Y-13359286D01*
X13051000Y-13345000D01*
X13079571Y-13330714D01*
X13308143Y-13602143D02*
X13322428Y-13616429D01*
X13308143Y-13630714D01*
X13293857Y-13616429D01*
X13308143Y-13602143D01*
X13308143Y-13630714D01*
X13493857Y-13459286D02*
X13465286Y-13445000D01*
X13451000Y-13430714D01*
X13436714Y-13402143D01*
X13436714Y-13387857D01*
X13451000Y-13359286D01*
X13465286Y-13345000D01*
X13493857Y-13330714D01*
X13551000Y-13330714D01*
X13579571Y-13345000D01*
X13593857Y-13359286D01*
X13608143Y-13387857D01*
X13608143Y-13402143D01*
X13593857Y-13430714D01*
X13579571Y-13445000D01*
X13551000Y-13459286D01*
X13493857Y-13459286D01*
X13465286Y-13473571D01*
X13451000Y-13487857D01*
X13436714Y-13516429D01*
X13436714Y-13573571D01*
X13451000Y-13602143D01*
X13465286Y-13616429D01*
X13493857Y-13630714D01*
X13551000Y-13630714D01*
X13579571Y-13616429D01*
X13593857Y-13602143D01*
X13608143Y-13573571D01*
X13608143Y-13516429D01*
X13593857Y-13487857D01*
X13579571Y-13473571D01*
X13551000Y-13459286D01*
X13793857Y-13330714D02*
X13822428Y-13330714D01*
X13851000Y-13345000D01*
X13865286Y-13359286D01*
X13879571Y-13387857D01*
X13893857Y-13445000D01*
X13893857Y-13516429D01*
X13879571Y-13573571D01*
X13865286Y-13602143D01*
X13851000Y-13616429D01*
X13822428Y-13630714D01*
X13793857Y-13630714D01*
X13765286Y-13616429D01*
X13751000Y-13602143D01*
X13736714Y-13573571D01*
X13722428Y-13516429D01*
X13722428Y-13445000D01*
X13736714Y-13387857D01*
X13751000Y-13359286D01*
X13765286Y-13345000D01*
X13793857Y-13330714D01*
X14079571Y-13330714D02*
X14108143Y-13330714D01*
X14136714Y-13345000D01*
X14151000Y-13359286D01*
X14165286Y-13387857D01*
X14179571Y-13445000D01*
X14179571Y-13516429D01*
X14165286Y-13573571D01*
X14151000Y-13602143D01*
X14136714Y-13616429D01*
X14108143Y-13630714D01*
X14079571Y-13630714D01*
X14051000Y-13616429D01*
X14036714Y-13602143D01*
X14022428Y-13573571D01*
X14008143Y-13516429D01*
X14008143Y-13445000D01*
X14022428Y-13387857D01*
X14036714Y-13359286D01*
X14051000Y-13345000D01*
X14079571Y-13330714D01*
X14308143Y-13630714D02*
X14308143Y-13430714D01*
X14308143Y-13459286D02*
X14322428Y-13445000D01*
X14351000Y-13430714D01*
X14393857Y-13430714D01*
X14422428Y-13445000D01*
X14436714Y-13473571D01*
X14436714Y-13630714D01*
X14436714Y-13473571D02*
X14451000Y-13445000D01*
X14479571Y-13430714D01*
X14522428Y-13430714D01*
X14551000Y-13445000D01*
X14565286Y-13473571D01*
X14565286Y-13630714D01*
X14708143Y-13630714D02*
X14708143Y-13430714D01*
X14708143Y-13459286D02*
X14722428Y-13445000D01*
X14751000Y-13430714D01*
X14793857Y-13430714D01*
X14822428Y-13445000D01*
X14836714Y-13473571D01*
X14836714Y-13630714D01*
X14836714Y-13473571D02*
X14851000Y-13445000D01*
X14879571Y-13430714D01*
X14922428Y-13430714D01*
X14951000Y-13445000D01*
X14965286Y-13473571D01*
X14965286Y-13630714D01*
X15551000Y-13316429D02*
X15293857Y-13702143D01*
X15936714Y-13330714D02*
X15965286Y-13330714D01*
X15993857Y-13345000D01*
X16008143Y-13359286D01*
X16022428Y-13387857D01*
X16036714Y-13445000D01*
X16036714Y-13516429D01*
X16022428Y-13573571D01*
X16008143Y-13602143D01*
X15993857Y-13616429D01*
X15965286Y-13630714D01*
X15936714Y-13630714D01*
X15908143Y-13616429D01*
X15893857Y-13602143D01*
X15879571Y-13573571D01*
X15865286Y-13516429D01*
X15865286Y-13445000D01*
X15879571Y-13387857D01*
X15893857Y-13359286D01*
X15908143Y-13345000D01*
X15936714Y-13330714D01*
X16165286Y-13602143D02*
X16179571Y-13616429D01*
X16165286Y-13630714D01*
X16151000Y-13616429D01*
X16165286Y-13602143D01*
X16165286Y-13630714D01*
X16365286Y-13330714D02*
X16393857Y-13330714D01*
X16422428Y-13345000D01*
X16436714Y-13359286D01*
X16451000Y-13387857D01*
X16465286Y-13445000D01*
X16465286Y-13516429D01*
X16451000Y-13573571D01*
X16436714Y-13602143D01*
X16422428Y-13616429D01*
X16393857Y-13630714D01*
X16365286Y-13630714D01*
X16336714Y-13616429D01*
X16322428Y-13602143D01*
X16308143Y-13573571D01*
X16293857Y-13516429D01*
X16293857Y-13445000D01*
X16308143Y-13387857D01*
X16322428Y-13359286D01*
X16336714Y-13345000D01*
X16365286Y-13330714D01*
X16565286Y-13330714D02*
X16751000Y-13330714D01*
X16651000Y-13445000D01*
X16693857Y-13445000D01*
X16722428Y-13459286D01*
X16736714Y-13473571D01*
X16751000Y-13502143D01*
X16751000Y-13573571D01*
X16736714Y-13602143D01*
X16722428Y-13616429D01*
X16693857Y-13630714D01*
X16608143Y-13630714D01*
X16579571Y-13616429D01*
X16565286Y-13602143D01*
X17036714Y-13630714D02*
X16865286Y-13630714D01*
X16951000Y-13630714D02*
X16951000Y-13330714D01*
X16922428Y-13373571D01*
X16893857Y-13402143D01*
X16865286Y-13416429D01*
X17308143Y-13330714D02*
X17165286Y-13330714D01*
X17151000Y-13473571D01*
X17165286Y-13459286D01*
X17193857Y-13445000D01*
X17265286Y-13445000D01*
X17293857Y-13459286D01*
X17308143Y-13473571D01*
X17322428Y-13502143D01*
X17322428Y-13573571D01*
X17308143Y-13602143D01*
X17293857Y-13616429D01*
X17265286Y-13630714D01*
X17193857Y-13630714D01*
X17165286Y-13616429D01*
X17151000Y-13602143D01*
X17436714Y-13330714D02*
X17436714Y-13387857D01*
X17551000Y-13330714D02*
X17551000Y-13387857D01*
X17993857Y-13745000D02*
X17979571Y-13730714D01*
X17951000Y-13687857D01*
X17936714Y-13659286D01*
X17922428Y-13616429D01*
X17908143Y-13545000D01*
X17908143Y-13487857D01*
X17922428Y-13416429D01*
X17936714Y-13373571D01*
X17951000Y-13345000D01*
X17979571Y-13302143D01*
X17993857Y-13287857D01*
X18079571Y-13330714D02*
X18265286Y-13330714D01*
X18165286Y-13445000D01*
X18208143Y-13445000D01*
X18236714Y-13459286D01*
X18251000Y-13473571D01*
X18265286Y-13502143D01*
X18265286Y-13573571D01*
X18251000Y-13602143D01*
X18236714Y-13616429D01*
X18208143Y-13630714D01*
X18122428Y-13630714D01*
X18093857Y-13616429D01*
X18079571Y-13602143D01*
X18622428Y-13630714D02*
X18622428Y-13330714D01*
X18751000Y-13630714D02*
X18751000Y-13473571D01*
X18736714Y-13445000D01*
X18708143Y-13430714D01*
X18665286Y-13430714D01*
X18636714Y-13445000D01*
X18622428Y-13459286D01*
X18936714Y-13630714D02*
X18908143Y-13616429D01*
X18893857Y-13602143D01*
X18879571Y-13573571D01*
X18879571Y-13487857D01*
X18893857Y-13459286D01*
X18908143Y-13445000D01*
X18936714Y-13430714D01*
X18979571Y-13430714D01*
X19008143Y-13445000D01*
X19022428Y-13459286D01*
X19036714Y-13487857D01*
X19036714Y-13573571D01*
X19022428Y-13602143D01*
X19008143Y-13616429D01*
X18979571Y-13630714D01*
X18936714Y-13630714D01*
X19208143Y-13630714D02*
X19179571Y-13616429D01*
X19165286Y-13587857D01*
X19165286Y-13330714D01*
X19436714Y-13616429D02*
X19408143Y-13630714D01*
X19351000Y-13630714D01*
X19322428Y-13616429D01*
X19308143Y-13587857D01*
X19308143Y-13473571D01*
X19322428Y-13445000D01*
X19351000Y-13430714D01*
X19408143Y-13430714D01*
X19436714Y-13445000D01*
X19451000Y-13473571D01*
X19451000Y-13502143D01*
X19308143Y-13530714D01*
X19565286Y-13616429D02*
X19593857Y-13630714D01*
X19651000Y-13630714D01*
X19679571Y-13616429D01*
X19693857Y-13587857D01*
X19693857Y-13573571D01*
X19679571Y-13545000D01*
X19651000Y-13530714D01*
X19608143Y-13530714D01*
X19579571Y-13516429D01*
X19565286Y-13487857D01*
X19565286Y-13473571D01*
X19579571Y-13445000D01*
X19608143Y-13430714D01*
X19651000Y-13430714D01*
X19679571Y-13445000D01*
X19793857Y-13745000D02*
X19808143Y-13730714D01*
X19836714Y-13687857D01*
X19851000Y-13659286D01*
X19865286Y-13616429D01*
X19879571Y-13545000D01*
X19879571Y-13487857D01*
X19865286Y-13416429D01*
X19851000Y-13373571D01*
X19836714Y-13345000D01*
X19808143Y-13302143D01*
X19793857Y-13287857D01*
X20336714Y-13745000D02*
X20322428Y-13730714D01*
X20293857Y-13687857D01*
X20279571Y-13659286D01*
X20265286Y-13616429D01*
X20251000Y-13545000D01*
X20251000Y-13487857D01*
X20265286Y-13416429D01*
X20279571Y-13373571D01*
X20293857Y-13345000D01*
X20322428Y-13302143D01*
X20336714Y-13287857D01*
X20451000Y-13430714D02*
X20451000Y-13630714D01*
X20451000Y-13459286D02*
X20465286Y-13445000D01*
X20493857Y-13430714D01*
X20536714Y-13430714D01*
X20565286Y-13445000D01*
X20579571Y-13473571D01*
X20579571Y-13630714D01*
X20765286Y-13630714D02*
X20736714Y-13616429D01*
X20722428Y-13602143D01*
X20708143Y-13573571D01*
X20708143Y-13487857D01*
X20722428Y-13459286D01*
X20736714Y-13445000D01*
X20765286Y-13430714D01*
X20808143Y-13430714D01*
X20836714Y-13445000D01*
X20851000Y-13459286D01*
X20865286Y-13487857D01*
X20865286Y-13573571D01*
X20851000Y-13602143D01*
X20836714Y-13616429D01*
X20808143Y-13630714D01*
X20765286Y-13630714D01*
X20951000Y-13430714D02*
X21065286Y-13430714D01*
X20993857Y-13330714D02*
X20993857Y-13587857D01*
X21008143Y-13616429D01*
X21036714Y-13630714D01*
X21065286Y-13630714D01*
X21393857Y-13430714D02*
X21393857Y-13730714D01*
X21393857Y-13445000D02*
X21422428Y-13430714D01*
X21479571Y-13430714D01*
X21508143Y-13445000D01*
X21522428Y-13459286D01*
X21536714Y-13487857D01*
X21536714Y-13573571D01*
X21522428Y-13602143D01*
X21508143Y-13616429D01*
X21479571Y-13630714D01*
X21422428Y-13630714D01*
X21393857Y-13616429D01*
X21708143Y-13630714D02*
X21679571Y-13616429D01*
X21665286Y-13587857D01*
X21665286Y-13330714D01*
X21951000Y-13630714D02*
X21951000Y-13473571D01*
X21936714Y-13445000D01*
X21908143Y-13430714D01*
X21851000Y-13430714D01*
X21822428Y-13445000D01*
X21951000Y-13616429D02*
X21922428Y-13630714D01*
X21851000Y-13630714D01*
X21822428Y-13616429D01*
X21808143Y-13587857D01*
X21808143Y-13559286D01*
X21822428Y-13530714D01*
X21851000Y-13516429D01*
X21922428Y-13516429D01*
X21951000Y-13502143D01*
X22051000Y-13430714D02*
X22165286Y-13430714D01*
X22093857Y-13330714D02*
X22093857Y-13587857D01*
X22108143Y-13616429D01*
X22136714Y-13630714D01*
X22165286Y-13630714D01*
X22379571Y-13616429D02*
X22351000Y-13630714D01*
X22293857Y-13630714D01*
X22265286Y-13616429D01*
X22251000Y-13587857D01*
X22251000Y-13473571D01*
X22265286Y-13445000D01*
X22293857Y-13430714D01*
X22351000Y-13430714D01*
X22379571Y-13445000D01*
X22393857Y-13473571D01*
X22393857Y-13502143D01*
X22251000Y-13530714D01*
X22651000Y-13630714D02*
X22651000Y-13330714D01*
X22651000Y-13616429D02*
X22622428Y-13630714D01*
X22565286Y-13630714D01*
X22536714Y-13616429D01*
X22522428Y-13602143D01*
X22508143Y-13573571D01*
X22508143Y-13487857D01*
X22522428Y-13459286D01*
X22536714Y-13445000D01*
X22565286Y-13430714D01*
X22622428Y-13430714D01*
X22651000Y-13445000D01*
X22765286Y-13745000D02*
X22779571Y-13730714D01*
X22808143Y-13687857D01*
X22822428Y-13659286D01*
X22836714Y-13616429D01*
X22851000Y-13545000D01*
X22851000Y-13487857D01*
X22836714Y-13416429D01*
X22822428Y-13373571D01*
X22808143Y-13345000D01*
X22779571Y-13302143D01*
X22765286Y-13287857D01*
M02*
