%TF.GenerationSoftware,KiCad,Pcbnew,(5.1.10)-1*%
%TF.CreationDate,2021-06-27T19:43:52+02:00*%
%TF.ProjectId,clip,636c6970-2e6b-4696-9361-645f70636258,rev?*%
%TF.SameCoordinates,Original*%
%TF.FileFunction,Soldermask,Top*%
%TF.FilePolarity,Negative*%
%FSLAX46Y46*%
G04 Gerber Fmt 4.6, Leading zero omitted, Abs format (unit mm)*
G04 Created by KiCad (PCBNEW (5.1.10)-1) date 2021-06-27 19:43:52*
%MOMM*%
%LPD*%
G01*
G04 APERTURE LIST*
%ADD10C,3.800000*%
%ADD11O,1.700000X1.700000*%
%ADD12R,1.700000X1.700000*%
%ADD13R,1.000000X1.000000*%
%ADD14C,0.100000*%
%ADD15R,1.560000X0.650000*%
%ADD16R,5.000000X5.000000*%
%ADD17R,2.800000X0.900000*%
%ADD18R,0.900000X2.800000*%
%ADD19O,0.800000X0.800000*%
%ADD20O,1.800000X1.150000*%
%ADD21O,2.000000X1.450000*%
%ADD22R,1.700000X0.450000*%
%ADD23C,0.800000*%
%ADD24R,1.700000X1.300000*%
%ADD25O,1.200000X1.750000*%
%ADD26R,1.900000X0.800000*%
G04 APERTURE END LIST*
D10*
%TO.C,H4*%
X129644140Y-123050300D03*
%TD*%
%TO.C,H3*%
X168125140Y-123083320D03*
%TD*%
%TO.C,H2*%
X168104820Y-75491340D03*
%TD*%
%TO.C,H1*%
X129689860Y-75453240D03*
%TD*%
D11*
%TO.C,MOISTURE1*%
X151439880Y-78953360D03*
X148899880Y-78953360D03*
D12*
X146359880Y-78953360D03*
%TD*%
D13*
%TO.C,D3*%
X145944280Y-88382480D03*
X148444280Y-88382480D03*
%TD*%
%TO.C,D2*%
G36*
G01*
X162908400Y-78179081D02*
X162908400Y-77279079D01*
G75*
G02*
X163158399Y-77029080I249999J0D01*
G01*
X163808401Y-77029080D01*
G75*
G02*
X164058400Y-77279079I0J-249999D01*
G01*
X164058400Y-78179081D01*
G75*
G02*
X163808401Y-78429080I-249999J0D01*
G01*
X163158399Y-78429080D01*
G75*
G02*
X162908400Y-78179081I0J249999D01*
G01*
G37*
G36*
G01*
X160858400Y-78179081D02*
X160858400Y-77279079D01*
G75*
G02*
X161108399Y-77029080I249999J0D01*
G01*
X161758401Y-77029080D01*
G75*
G02*
X162008400Y-77279079I0J-249999D01*
G01*
X162008400Y-78179081D01*
G75*
G02*
X161758401Y-78429080I-249999J0D01*
G01*
X161108399Y-78429080D01*
G75*
G02*
X160858400Y-78179081I0J249999D01*
G01*
G37*
%TD*%
D14*
%TO.C,JP2*%
G36*
X165087980Y-88399620D02*
G01*
X164587980Y-89149620D01*
X163587980Y-89149620D01*
X163587980Y-87649620D01*
X164587980Y-87649620D01*
X165087980Y-88399620D01*
G37*
G36*
X166037980Y-89149620D02*
G01*
X164887980Y-89149620D01*
X165387980Y-88399620D01*
X164887980Y-87649620D01*
X166037980Y-87649620D01*
X166037980Y-89149620D01*
G37*
%TD*%
%TO.C,D4*%
G36*
G01*
X159770000Y-95000001D02*
X159770000Y-94099999D01*
G75*
G02*
X160019999Y-93850000I249999J0D01*
G01*
X160670001Y-93850000D01*
G75*
G02*
X160920000Y-94099999I0J-249999D01*
G01*
X160920000Y-95000001D01*
G75*
G02*
X160670001Y-95250000I-249999J0D01*
G01*
X160019999Y-95250000D01*
G75*
G02*
X159770000Y-95000001I0J249999D01*
G01*
G37*
G36*
G01*
X161820000Y-95000001D02*
X161820000Y-94099999D01*
G75*
G02*
X162069999Y-93850000I249999J0D01*
G01*
X162720001Y-93850000D01*
G75*
G02*
X162970000Y-94099999I0J-249999D01*
G01*
X162970000Y-95000001D01*
G75*
G02*
X162720001Y-95250000I-249999J0D01*
G01*
X162069999Y-95250000D01*
G75*
G02*
X161820000Y-95000001I0J249999D01*
G01*
G37*
%TD*%
D15*
%TO.C,U1*%
X145773800Y-94697940D03*
X145773800Y-96597940D03*
X143073800Y-96597940D03*
X143073800Y-95647940D03*
X143073800Y-94697940D03*
%TD*%
D16*
%TO.C,U3*%
X149830000Y-116355000D03*
D17*
X157730000Y-123855000D03*
X157730000Y-122585000D03*
X157730000Y-121315000D03*
X157730000Y-120045000D03*
X157730000Y-118775000D03*
X157730000Y-117505000D03*
X157730000Y-116235000D03*
X157730000Y-114965000D03*
X157730000Y-113695000D03*
X157730000Y-112425000D03*
X157730000Y-111155000D03*
X157730000Y-109885000D03*
X157730000Y-108615000D03*
X157730000Y-107345000D03*
D18*
X154545000Y-105945000D03*
X153275000Y-105945000D03*
X152005000Y-105945000D03*
X150735000Y-105945000D03*
X149465000Y-105945000D03*
X148195000Y-105945000D03*
X146925000Y-105945000D03*
X145655000Y-105945000D03*
X144385000Y-105945000D03*
X143115000Y-105945000D03*
D17*
X139930000Y-107345000D03*
X139930000Y-108615000D03*
X139930000Y-109885000D03*
X139930000Y-111155000D03*
X139930000Y-112425000D03*
X139930000Y-113695000D03*
X139930000Y-114965000D03*
X139930000Y-116235000D03*
X139930000Y-117505000D03*
X139930000Y-118775000D03*
X139930000Y-120045000D03*
X139930000Y-121315000D03*
X139930000Y-122585000D03*
X139930000Y-123855000D03*
%TD*%
D19*
%TO.C,USB1*%
X131427120Y-94696920D03*
X131427120Y-89696920D03*
D20*
X128677120Y-96071920D03*
X128677120Y-88321920D03*
D21*
X132477120Y-95921920D03*
X132477120Y-88471920D03*
D22*
X132727120Y-93496920D03*
X132727120Y-92846920D03*
X132727120Y-92196920D03*
X132727120Y-91546920D03*
X132727120Y-90896920D03*
%TD*%
D23*
%TO.C,EN1*%
X162500000Y-109760000D03*
D24*
X162500000Y-111660000D03*
X162500000Y-107860000D03*
%TD*%
D11*
%TO.C,LIS1*%
X167380000Y-101800000D03*
X164840000Y-101800000D03*
X162300000Y-101800000D03*
X159760000Y-101800000D03*
X157220000Y-101800000D03*
X154680000Y-101800000D03*
X152140000Y-101800000D03*
D12*
X149600000Y-101800000D03*
%TD*%
D11*
%TO.C,VIN1*%
X135460000Y-78955000D03*
D12*
X135460000Y-81495000D03*
%TD*%
D11*
%TO.C,FLASH1*%
X134940000Y-122910000D03*
X134940000Y-120370000D03*
X134940000Y-117830000D03*
X134940000Y-115290000D03*
X134940000Y-112750000D03*
D12*
X134940000Y-110210000D03*
%TD*%
D11*
%TO.C,BME1*%
X145943320Y-101800660D03*
X143403320Y-101800660D03*
X140863320Y-101800660D03*
X138323320Y-101800660D03*
X135783320Y-101800660D03*
X133243320Y-101800660D03*
D12*
X130703320Y-101800660D03*
%TD*%
D15*
%TO.C,U2*%
X154183780Y-88464320D03*
X154183780Y-86564320D03*
X156883780Y-86564320D03*
X156883780Y-87514320D03*
X156883780Y-88464320D03*
%TD*%
%TO.C,R3*%
G36*
G01*
X160866020Y-80551441D02*
X160866020Y-79651439D01*
G75*
G02*
X161116019Y-79401440I249999J0D01*
G01*
X161766021Y-79401440D01*
G75*
G02*
X162016020Y-79651439I0J-249999D01*
G01*
X162016020Y-80551441D01*
G75*
G02*
X161766021Y-80801440I-249999J0D01*
G01*
X161116019Y-80801440D01*
G75*
G02*
X160866020Y-80551441I0J249999D01*
G01*
G37*
G36*
G01*
X162916020Y-80551441D02*
X162916020Y-79651439D01*
G75*
G02*
X163166019Y-79401440I249999J0D01*
G01*
X163816021Y-79401440D01*
G75*
G02*
X164066020Y-79651439I0J-249999D01*
G01*
X164066020Y-80551441D01*
G75*
G02*
X163816021Y-80801440I-249999J0D01*
G01*
X163166019Y-80801440D01*
G75*
G02*
X162916020Y-80551441I0J249999D01*
G01*
G37*
%TD*%
D14*
%TO.C,JP1*%
G36*
X165084340Y-82895440D02*
G01*
X164584340Y-83645440D01*
X163584340Y-83645440D01*
X163584340Y-82145440D01*
X164584340Y-82145440D01*
X165084340Y-82895440D01*
G37*
G36*
X166034340Y-83645440D02*
G01*
X164884340Y-83645440D01*
X165384340Y-82895440D01*
X164884340Y-82145440D01*
X166034340Y-82145440D01*
X166034340Y-83645440D01*
G37*
%TD*%
%TO.C,D5*%
G36*
G01*
X133339200Y-105894181D02*
X133339200Y-104994179D01*
G75*
G02*
X133589199Y-104744180I249999J0D01*
G01*
X134239201Y-104744180D01*
G75*
G02*
X134489200Y-104994179I0J-249999D01*
G01*
X134489200Y-105894181D01*
G75*
G02*
X134239201Y-106144180I-249999J0D01*
G01*
X133589199Y-106144180D01*
G75*
G02*
X133339200Y-105894181I0J249999D01*
G01*
G37*
G36*
G01*
X135389200Y-105894181D02*
X135389200Y-104994179D01*
G75*
G02*
X135639199Y-104744180I249999J0D01*
G01*
X136289201Y-104744180D01*
G75*
G02*
X136539200Y-104994179I0J-249999D01*
G01*
X136539200Y-105894181D01*
G75*
G02*
X136289201Y-106144180I-249999J0D01*
G01*
X135639199Y-106144180D01*
G75*
G02*
X135389200Y-105894181I0J249999D01*
G01*
G37*
%TD*%
D25*
%TO.C,BATTERY1*%
X131650000Y-85025000D03*
G36*
G01*
X129050000Y-85650001D02*
X129050000Y-84399999D01*
G75*
G02*
X129299999Y-84150000I249999J0D01*
G01*
X130000001Y-84150000D01*
G75*
G02*
X130250000Y-84399999I0J-249999D01*
G01*
X130250000Y-85650001D01*
G75*
G02*
X130000001Y-85900000I-249999J0D01*
G01*
X129299999Y-85900000D01*
G75*
G02*
X129050000Y-85650001I0J249999D01*
G01*
G37*
%TD*%
%TO.C,R7*%
G36*
G01*
X132660000Y-104989999D02*
X132660000Y-105890001D01*
G75*
G02*
X132410001Y-106140000I-249999J0D01*
G01*
X131759999Y-106140000D01*
G75*
G02*
X131510000Y-105890001I0J249999D01*
G01*
X131510000Y-104989999D01*
G75*
G02*
X131759999Y-104740000I249999J0D01*
G01*
X132410001Y-104740000D01*
G75*
G02*
X132660000Y-104989999I0J-249999D01*
G01*
G37*
G36*
G01*
X130610000Y-104989999D02*
X130610000Y-105890001D01*
G75*
G02*
X130360001Y-106140000I-249999J0D01*
G01*
X129709999Y-106140000D01*
G75*
G02*
X129460000Y-105890001I0J249999D01*
G01*
X129460000Y-104989999D01*
G75*
G02*
X129709999Y-104740000I249999J0D01*
G01*
X130360001Y-104740000D01*
G75*
G02*
X130610000Y-104989999I0J-249999D01*
G01*
G37*
%TD*%
%TO.C,R9*%
G36*
G01*
X162920001Y-114130000D02*
X162019999Y-114130000D01*
G75*
G02*
X161770000Y-113880001I0J249999D01*
G01*
X161770000Y-113229999D01*
G75*
G02*
X162019999Y-112980000I249999J0D01*
G01*
X162920001Y-112980000D01*
G75*
G02*
X163170000Y-113229999I0J-249999D01*
G01*
X163170000Y-113880001D01*
G75*
G02*
X162920001Y-114130000I-249999J0D01*
G01*
G37*
G36*
G01*
X162920001Y-116180000D02*
X162019999Y-116180000D01*
G75*
G02*
X161770000Y-115930001I0J249999D01*
G01*
X161770000Y-115279999D01*
G75*
G02*
X162019999Y-115030000I249999J0D01*
G01*
X162920001Y-115030000D01*
G75*
G02*
X163170000Y-115279999I0J-249999D01*
G01*
X163170000Y-115930001D01*
G75*
G02*
X162920001Y-116180000I-249999J0D01*
G01*
G37*
%TD*%
%TO.C,R8*%
G36*
G01*
X133339700Y-107854381D02*
X133339700Y-106954379D01*
G75*
G02*
X133589699Y-106704380I249999J0D01*
G01*
X134239701Y-106704380D01*
G75*
G02*
X134489700Y-106954379I0J-249999D01*
G01*
X134489700Y-107854381D01*
G75*
G02*
X134239701Y-108104380I-249999J0D01*
G01*
X133589699Y-108104380D01*
G75*
G02*
X133339700Y-107854381I0J249999D01*
G01*
G37*
G36*
G01*
X135389700Y-107854381D02*
X135389700Y-106954379D01*
G75*
G02*
X135639699Y-106704380I249999J0D01*
G01*
X136289701Y-106704380D01*
G75*
G02*
X136539700Y-106954379I0J-249999D01*
G01*
X136539700Y-107854381D01*
G75*
G02*
X136289701Y-108104380I-249999J0D01*
G01*
X135639699Y-108104380D01*
G75*
G02*
X135389700Y-107854381I0J249999D01*
G01*
G37*
%TD*%
%TO.C,R6*%
G36*
G01*
X147390000Y-95020001D02*
X147390000Y-94119999D01*
G75*
G02*
X147639999Y-93870000I249999J0D01*
G01*
X148290001Y-93870000D01*
G75*
G02*
X148540000Y-94119999I0J-249999D01*
G01*
X148540000Y-95020001D01*
G75*
G02*
X148290001Y-95270000I-249999J0D01*
G01*
X147639999Y-95270000D01*
G75*
G02*
X147390000Y-95020001I0J249999D01*
G01*
G37*
G36*
G01*
X149440000Y-95020001D02*
X149440000Y-94119999D01*
G75*
G02*
X149689999Y-93870000I249999J0D01*
G01*
X150340001Y-93870000D01*
G75*
G02*
X150590000Y-94119999I0J-249999D01*
G01*
X150590000Y-95020001D01*
G75*
G02*
X150340001Y-95270000I-249999J0D01*
G01*
X149689999Y-95270000D01*
G75*
G02*
X149440000Y-95020001I0J249999D01*
G01*
G37*
%TD*%
%TO.C,R4*%
G36*
G01*
X162950000Y-96299999D02*
X162950000Y-97200001D01*
G75*
G02*
X162700001Y-97450000I-249999J0D01*
G01*
X162049999Y-97450000D01*
G75*
G02*
X161800000Y-97200001I0J249999D01*
G01*
X161800000Y-96299999D01*
G75*
G02*
X162049999Y-96050000I249999J0D01*
G01*
X162700001Y-96050000D01*
G75*
G02*
X162950000Y-96299999I0J-249999D01*
G01*
G37*
G36*
G01*
X160900000Y-96299999D02*
X160900000Y-97200001D01*
G75*
G02*
X160650001Y-97450000I-249999J0D01*
G01*
X159999999Y-97450000D01*
G75*
G02*
X159750000Y-97200001I0J249999D01*
G01*
X159750000Y-96299999D01*
G75*
G02*
X159999999Y-96050000I249999J0D01*
G01*
X160650001Y-96050000D01*
G75*
G02*
X160900000Y-96299999I0J-249999D01*
G01*
G37*
%TD*%
%TO.C,R5*%
G36*
G01*
X158851179Y-87912360D02*
X159751181Y-87912360D01*
G75*
G02*
X160001180Y-88162359I0J-249999D01*
G01*
X160001180Y-88812361D01*
G75*
G02*
X159751181Y-89062360I-249999J0D01*
G01*
X158851179Y-89062360D01*
G75*
G02*
X158601180Y-88812361I0J249999D01*
G01*
X158601180Y-88162359D01*
G75*
G02*
X158851179Y-87912360I249999J0D01*
G01*
G37*
G36*
G01*
X158851179Y-85862360D02*
X159751181Y-85862360D01*
G75*
G02*
X160001180Y-86112359I0J-249999D01*
G01*
X160001180Y-86762361D01*
G75*
G02*
X159751181Y-87012360I-249999J0D01*
G01*
X158851179Y-87012360D01*
G75*
G02*
X158601180Y-86762361I0J249999D01*
G01*
X158601180Y-86112359D01*
G75*
G02*
X158851179Y-85862360I249999J0D01*
G01*
G37*
%TD*%
%TO.C,R2*%
G36*
G01*
X156020000Y-97190001D02*
X156020000Y-96289999D01*
G75*
G02*
X156269999Y-96040000I249999J0D01*
G01*
X156920001Y-96040000D01*
G75*
G02*
X157170000Y-96289999I0J-249999D01*
G01*
X157170000Y-97190001D01*
G75*
G02*
X156920001Y-97440000I-249999J0D01*
G01*
X156269999Y-97440000D01*
G75*
G02*
X156020000Y-97190001I0J249999D01*
G01*
G37*
G36*
G01*
X153970000Y-97190001D02*
X153970000Y-96289999D01*
G75*
G02*
X154219999Y-96040000I249999J0D01*
G01*
X154870001Y-96040000D01*
G75*
G02*
X155120000Y-96289999I0J-249999D01*
G01*
X155120000Y-97190001D01*
G75*
G02*
X154870001Y-97440000I-249999J0D01*
G01*
X154219999Y-97440000D01*
G75*
G02*
X153970000Y-97190001I0J249999D01*
G01*
G37*
%TD*%
%TO.C,R1*%
G36*
G01*
X141015300Y-90441359D02*
X141015300Y-91341361D01*
G75*
G02*
X140765301Y-91591360I-249999J0D01*
G01*
X140115299Y-91591360D01*
G75*
G02*
X139865300Y-91341361I0J249999D01*
G01*
X139865300Y-90441359D01*
G75*
G02*
X140115299Y-90191360I249999J0D01*
G01*
X140765301Y-90191360D01*
G75*
G02*
X141015300Y-90441359I0J-249999D01*
G01*
G37*
G36*
G01*
X143065300Y-90441359D02*
X143065300Y-91341361D01*
G75*
G02*
X142815301Y-91591360I-249999J0D01*
G01*
X142165299Y-91591360D01*
G75*
G02*
X141915300Y-91341361I0J249999D01*
G01*
X141915300Y-90441359D01*
G75*
G02*
X142165299Y-90191360I249999J0D01*
G01*
X142815301Y-90191360D01*
G75*
G02*
X143065300Y-90441359I0J-249999D01*
G01*
G37*
%TD*%
D26*
%TO.C,Q1*%
X142111860Y-88544440D03*
X142111860Y-86644440D03*
X139111860Y-87594440D03*
%TD*%
%TO.C,D1*%
G36*
G01*
X157170000Y-94109999D02*
X157170000Y-95010001D01*
G75*
G02*
X156920001Y-95260000I-249999J0D01*
G01*
X156269999Y-95260000D01*
G75*
G02*
X156020000Y-95010001I0J249999D01*
G01*
X156020000Y-94109999D01*
G75*
G02*
X156269999Y-93860000I249999J0D01*
G01*
X156920001Y-93860000D01*
G75*
G02*
X157170000Y-94109999I0J-249999D01*
G01*
G37*
G36*
G01*
X155120000Y-94109999D02*
X155120000Y-95010001D01*
G75*
G02*
X154870001Y-95260000I-249999J0D01*
G01*
X154219999Y-95260000D01*
G75*
G02*
X153970000Y-95010001I0J249999D01*
G01*
X153970000Y-94109999D01*
G75*
G02*
X154219999Y-93860000I249999J0D01*
G01*
X154870001Y-93860000D01*
G75*
G02*
X155120000Y-94109999I0J-249999D01*
G01*
G37*
%TD*%
%TO.C,C6*%
G36*
G01*
X162019999Y-123220000D02*
X162920001Y-123220000D01*
G75*
G02*
X163170000Y-123469999I0J-249999D01*
G01*
X163170000Y-124120001D01*
G75*
G02*
X162920001Y-124370000I-249999J0D01*
G01*
X162019999Y-124370000D01*
G75*
G02*
X161770000Y-124120001I0J249999D01*
G01*
X161770000Y-123469999D01*
G75*
G02*
X162019999Y-123220000I249999J0D01*
G01*
G37*
G36*
G01*
X162019999Y-121170000D02*
X162920001Y-121170000D01*
G75*
G02*
X163170000Y-121419999I0J-249999D01*
G01*
X163170000Y-122070001D01*
G75*
G02*
X162920001Y-122320000I-249999J0D01*
G01*
X162019999Y-122320000D01*
G75*
G02*
X161770000Y-122070001I0J249999D01*
G01*
X161770000Y-121419999D01*
G75*
G02*
X162019999Y-121170000I249999J0D01*
G01*
G37*
%TD*%
%TO.C,C5*%
G36*
G01*
X162920001Y-118210000D02*
X162019999Y-118210000D01*
G75*
G02*
X161770000Y-117960001I0J249999D01*
G01*
X161770000Y-117309999D01*
G75*
G02*
X162019999Y-117060000I249999J0D01*
G01*
X162920001Y-117060000D01*
G75*
G02*
X163170000Y-117309999I0J-249999D01*
G01*
X163170000Y-117960001D01*
G75*
G02*
X162920001Y-118210000I-249999J0D01*
G01*
G37*
G36*
G01*
X162920001Y-120260000D02*
X162019999Y-120260000D01*
G75*
G02*
X161770000Y-120010001I0J249999D01*
G01*
X161770000Y-119359999D01*
G75*
G02*
X162019999Y-119110000I249999J0D01*
G01*
X162920001Y-119110000D01*
G75*
G02*
X163170000Y-119359999I0J-249999D01*
G01*
X163170000Y-120010001D01*
G75*
G02*
X162920001Y-120260000I-249999J0D01*
G01*
G37*
%TD*%
%TO.C,C4*%
G36*
G01*
X151935161Y-87059340D02*
X151035159Y-87059340D01*
G75*
G02*
X150785160Y-86809341I0J249999D01*
G01*
X150785160Y-86159339D01*
G75*
G02*
X151035159Y-85909340I249999J0D01*
G01*
X151935161Y-85909340D01*
G75*
G02*
X152185160Y-86159339I0J-249999D01*
G01*
X152185160Y-86809341D01*
G75*
G02*
X151935161Y-87059340I-249999J0D01*
G01*
G37*
G36*
G01*
X151935161Y-89109340D02*
X151035159Y-89109340D01*
G75*
G02*
X150785160Y-88859341I0J249999D01*
G01*
X150785160Y-88209339D01*
G75*
G02*
X151035159Y-87959340I249999J0D01*
G01*
X151935161Y-87959340D01*
G75*
G02*
X152185160Y-88209339I0J-249999D01*
G01*
X152185160Y-88859341D01*
G75*
G02*
X151935161Y-89109340I-249999J0D01*
G01*
G37*
%TD*%
%TO.C,C3*%
G36*
G01*
X162009241Y-87014900D02*
X161109239Y-87014900D01*
G75*
G02*
X160859240Y-86764901I0J249999D01*
G01*
X160859240Y-86114899D01*
G75*
G02*
X161109239Y-85864900I249999J0D01*
G01*
X162009241Y-85864900D01*
G75*
G02*
X162259240Y-86114899I0J-249999D01*
G01*
X162259240Y-86764901D01*
G75*
G02*
X162009241Y-87014900I-249999J0D01*
G01*
G37*
G36*
G01*
X162009241Y-89064900D02*
X161109239Y-89064900D01*
G75*
G02*
X160859240Y-88814901I0J249999D01*
G01*
X160859240Y-88164899D01*
G75*
G02*
X161109239Y-87914900I249999J0D01*
G01*
X162009241Y-87914900D01*
G75*
G02*
X162259240Y-88164899I0J-249999D01*
G01*
X162259240Y-88814901D01*
G75*
G02*
X162009241Y-89064900I-249999J0D01*
G01*
G37*
%TD*%
%TO.C,C2*%
G36*
G01*
X149440000Y-97190001D02*
X149440000Y-96289999D01*
G75*
G02*
X149689999Y-96040000I249999J0D01*
G01*
X150340001Y-96040000D01*
G75*
G02*
X150590000Y-96289999I0J-249999D01*
G01*
X150590000Y-97190001D01*
G75*
G02*
X150340001Y-97440000I-249999J0D01*
G01*
X149689999Y-97440000D01*
G75*
G02*
X149440000Y-97190001I0J249999D01*
G01*
G37*
G36*
G01*
X147390000Y-97190001D02*
X147390000Y-96289999D01*
G75*
G02*
X147639999Y-96040000I249999J0D01*
G01*
X148290001Y-96040000D01*
G75*
G02*
X148540000Y-96289999I0J-249999D01*
G01*
X148540000Y-97190001D01*
G75*
G02*
X148290001Y-97440000I-249999J0D01*
G01*
X147639999Y-97440000D01*
G75*
G02*
X147390000Y-97190001I0J249999D01*
G01*
G37*
%TD*%
%TO.C,C1*%
G36*
G01*
X141213981Y-95202840D02*
X140313979Y-95202840D01*
G75*
G02*
X140063980Y-94952841I0J249999D01*
G01*
X140063980Y-94302839D01*
G75*
G02*
X140313979Y-94052840I249999J0D01*
G01*
X141213981Y-94052840D01*
G75*
G02*
X141463980Y-94302839I0J-249999D01*
G01*
X141463980Y-94952841D01*
G75*
G02*
X141213981Y-95202840I-249999J0D01*
G01*
G37*
G36*
G01*
X141213981Y-97252840D02*
X140313979Y-97252840D01*
G75*
G02*
X140063980Y-97002841I0J249999D01*
G01*
X140063980Y-96352839D01*
G75*
G02*
X140313979Y-96102840I249999J0D01*
G01*
X141213981Y-96102840D01*
G75*
G02*
X141463980Y-96352839I0J-249999D01*
G01*
X141463980Y-97002841D01*
G75*
G02*
X141213981Y-97252840I-249999J0D01*
G01*
G37*
%TD*%
M02*
