%TF.GenerationSoftware,KiCad,Pcbnew,(5.1.9)-1*%
%TF.CreationDate,2021-05-12T18:30:48+02:00*%
%TF.ProjectId,clip,636c6970-2e6b-4696-9361-645f70636258,rev?*%
%TF.SameCoordinates,Original*%
%TF.FileFunction,Legend,Top*%
%TF.FilePolarity,Positive*%
%FSLAX46Y46*%
G04 Gerber Fmt 4.6, Leading zero omitted, Abs format (unit mm)*
G04 Created by KiCad (PCBNEW (5.1.9)-1) date 2021-05-12 18:30:48*
%MOMM*%
%LPD*%
G01*
G04 APERTURE LIST*
%ADD10C,0.150000*%
%ADD11C,0.120000*%
%ADD12O,1.700000X1.700000*%
%ADD13R,1.700000X1.700000*%
%ADD14R,2.800000X0.900000*%
%ADD15R,0.900000X2.800000*%
%ADD16R,5.000000X5.000000*%
%ADD17C,0.800000*%
%ADD18R,1.700000X1.300000*%
%ADD19R,1.000000X1.000000*%
%ADD20O,0.850000X1.850000*%
%ADD21C,0.840000*%
%ADD22R,0.840000X0.840000*%
%ADD23R,1.560000X0.650000*%
%ADD24C,0.100000*%
%ADD25O,1.200000X1.750000*%
%ADD26R,1.900000X0.800000*%
G04 APERTURE END LIST*
D10*
X148087142Y-56131428D02*
X148458571Y-56131428D01*
X148258571Y-56360000D01*
X148344285Y-56360000D01*
X148401428Y-56388571D01*
X148430000Y-56417142D01*
X148458571Y-56474285D01*
X148458571Y-56617142D01*
X148430000Y-56674285D01*
X148401428Y-56702857D01*
X148344285Y-56731428D01*
X148172857Y-56731428D01*
X148115714Y-56702857D01*
X148087142Y-56674285D01*
X148630000Y-56131428D02*
X148830000Y-56731428D01*
X149030000Y-56131428D01*
X149172857Y-56131428D02*
X149544285Y-56131428D01*
X149344285Y-56360000D01*
X149430000Y-56360000D01*
X149487142Y-56388571D01*
X149515714Y-56417142D01*
X149544285Y-56474285D01*
X149544285Y-56617142D01*
X149515714Y-56674285D01*
X149487142Y-56702857D01*
X149430000Y-56731428D01*
X149258571Y-56731428D01*
X149201428Y-56702857D01*
X149172857Y-56674285D01*
X127389047Y-73911428D02*
X128150952Y-73911428D01*
X127770000Y-74292380D02*
X127770000Y-73530476D01*
X168087742Y-89882628D02*
X168087742Y-89282628D01*
X168373457Y-89882628D02*
X168373457Y-89282628D01*
X168716314Y-89882628D01*
X168716314Y-89282628D01*
X168916314Y-89282628D02*
X169259171Y-89282628D01*
X169087742Y-89882628D02*
X169087742Y-89282628D01*
X166016000Y-89774685D02*
X165987428Y-89803257D01*
X165901714Y-89831828D01*
X165844571Y-89831828D01*
X165758857Y-89803257D01*
X165701714Y-89746114D01*
X165673142Y-89688971D01*
X165644571Y-89574685D01*
X165644571Y-89488971D01*
X165673142Y-89374685D01*
X165701714Y-89317542D01*
X165758857Y-89260400D01*
X165844571Y-89231828D01*
X165901714Y-89231828D01*
X165987428Y-89260400D01*
X166016000Y-89288971D01*
X166244571Y-89803257D02*
X166330285Y-89831828D01*
X166473142Y-89831828D01*
X166530285Y-89803257D01*
X166558857Y-89774685D01*
X166587428Y-89717542D01*
X166587428Y-89660400D01*
X166558857Y-89603257D01*
X166530285Y-89574685D01*
X166473142Y-89546114D01*
X166358857Y-89517542D01*
X166301714Y-89488971D01*
X166273142Y-89460400D01*
X166244571Y-89403257D01*
X166244571Y-89346114D01*
X166273142Y-89288971D01*
X166301714Y-89260400D01*
X166358857Y-89231828D01*
X166501714Y-89231828D01*
X166587428Y-89260400D01*
X162790285Y-89777857D02*
X162876000Y-89806428D01*
X163018857Y-89806428D01*
X163076000Y-89777857D01*
X163104571Y-89749285D01*
X163133142Y-89692142D01*
X163133142Y-89635000D01*
X163104571Y-89577857D01*
X163076000Y-89549285D01*
X163018857Y-89520714D01*
X162904571Y-89492142D01*
X162847428Y-89463571D01*
X162818857Y-89435000D01*
X162790285Y-89377857D01*
X162790285Y-89320714D01*
X162818857Y-89263571D01*
X162847428Y-89235000D01*
X162904571Y-89206428D01*
X163047428Y-89206428D01*
X163133142Y-89235000D01*
X163390285Y-89806428D02*
X163390285Y-89206428D01*
X163533142Y-89206428D01*
X163618857Y-89235000D01*
X163676000Y-89292142D01*
X163704571Y-89349285D01*
X163733142Y-89463571D01*
X163733142Y-89549285D01*
X163704571Y-89663571D01*
X163676000Y-89720714D01*
X163618857Y-89777857D01*
X163533142Y-89806428D01*
X163390285Y-89806428D01*
X164104571Y-89206428D02*
X164218857Y-89206428D01*
X164276000Y-89235000D01*
X164333142Y-89292142D01*
X164361714Y-89406428D01*
X164361714Y-89606428D01*
X164333142Y-89720714D01*
X164276000Y-89777857D01*
X164218857Y-89806428D01*
X164104571Y-89806428D01*
X164047428Y-89777857D01*
X163990285Y-89720714D01*
X163961714Y-89606428D01*
X163961714Y-89406428D01*
X163990285Y-89292142D01*
X164047428Y-89235000D01*
X164104571Y-89206428D01*
X152687428Y-89257228D02*
X153058857Y-89257228D01*
X152858857Y-89485800D01*
X152944571Y-89485800D01*
X153001714Y-89514371D01*
X153030285Y-89542942D01*
X153058857Y-89600085D01*
X153058857Y-89742942D01*
X153030285Y-89800085D01*
X153001714Y-89828657D01*
X152944571Y-89857228D01*
X152773142Y-89857228D01*
X152716000Y-89828657D01*
X152687428Y-89800085D01*
X153230285Y-89257228D02*
X153430285Y-89857228D01*
X153630285Y-89257228D01*
X153916000Y-89857228D02*
X153858857Y-89828657D01*
X153830285Y-89800085D01*
X153801714Y-89742942D01*
X153801714Y-89571514D01*
X153830285Y-89514371D01*
X153858857Y-89485800D01*
X153916000Y-89457228D01*
X154001714Y-89457228D01*
X154058857Y-89485800D01*
X154087428Y-89514371D01*
X154116000Y-89571514D01*
X154116000Y-89742942D01*
X154087428Y-89800085D01*
X154058857Y-89828657D01*
X154001714Y-89857228D01*
X153916000Y-89857228D01*
X144121200Y-89774685D02*
X144092628Y-89803257D01*
X144006914Y-89831828D01*
X143949771Y-89831828D01*
X143864057Y-89803257D01*
X143806914Y-89746114D01*
X143778342Y-89688971D01*
X143749771Y-89574685D01*
X143749771Y-89488971D01*
X143778342Y-89374685D01*
X143806914Y-89317542D01*
X143864057Y-89260400D01*
X143949771Y-89231828D01*
X144006914Y-89231828D01*
X144092628Y-89260400D01*
X144121200Y-89288971D01*
X144349771Y-89803257D02*
X144435485Y-89831828D01*
X144578342Y-89831828D01*
X144635485Y-89803257D01*
X144664057Y-89774685D01*
X144692628Y-89717542D01*
X144692628Y-89660400D01*
X144664057Y-89603257D01*
X144635485Y-89574685D01*
X144578342Y-89546114D01*
X144464057Y-89517542D01*
X144406914Y-89488971D01*
X144378342Y-89460400D01*
X144349771Y-89403257D01*
X144349771Y-89346114D01*
X144378342Y-89288971D01*
X144406914Y-89260400D01*
X144464057Y-89231828D01*
X144606914Y-89231828D01*
X144692628Y-89260400D01*
X138330085Y-89803257D02*
X138415800Y-89831828D01*
X138558657Y-89831828D01*
X138615800Y-89803257D01*
X138644371Y-89774685D01*
X138672942Y-89717542D01*
X138672942Y-89660400D01*
X138644371Y-89603257D01*
X138615800Y-89574685D01*
X138558657Y-89546114D01*
X138444371Y-89517542D01*
X138387228Y-89488971D01*
X138358657Y-89460400D01*
X138330085Y-89403257D01*
X138330085Y-89346114D01*
X138358657Y-89288971D01*
X138387228Y-89260400D01*
X138444371Y-89231828D01*
X138587228Y-89231828D01*
X138672942Y-89260400D01*
X138930085Y-89831828D02*
X138930085Y-89231828D01*
X139072942Y-89231828D01*
X139158657Y-89260400D01*
X139215800Y-89317542D01*
X139244371Y-89374685D01*
X139272942Y-89488971D01*
X139272942Y-89574685D01*
X139244371Y-89688971D01*
X139215800Y-89746114D01*
X139158657Y-89803257D01*
X139072942Y-89831828D01*
X138930085Y-89831828D01*
X139644371Y-89231828D02*
X139758657Y-89231828D01*
X139815800Y-89260400D01*
X139872942Y-89317542D01*
X139901514Y-89431828D01*
X139901514Y-89631828D01*
X139872942Y-89746114D01*
X139815800Y-89803257D01*
X139758657Y-89831828D01*
X139644371Y-89831828D01*
X139587228Y-89803257D01*
X139530085Y-89746114D01*
X139501514Y-89631828D01*
X139501514Y-89431828D01*
X139530085Y-89317542D01*
X139587228Y-89260400D01*
X139644371Y-89231828D01*
X130792628Y-89231828D02*
X131164057Y-89231828D01*
X130964057Y-89460400D01*
X131049771Y-89460400D01*
X131106914Y-89488971D01*
X131135485Y-89517542D01*
X131164057Y-89574685D01*
X131164057Y-89717542D01*
X131135485Y-89774685D01*
X131106914Y-89803257D01*
X131049771Y-89831828D01*
X130878342Y-89831828D01*
X130821200Y-89803257D01*
X130792628Y-89774685D01*
X131335485Y-89231828D02*
X131535485Y-89831828D01*
X131735485Y-89231828D01*
X132021200Y-89831828D02*
X131964057Y-89803257D01*
X131935485Y-89774685D01*
X131906914Y-89717542D01*
X131906914Y-89546114D01*
X131935485Y-89488971D01*
X131964057Y-89460400D01*
X132021200Y-89431828D01*
X132106914Y-89431828D01*
X132164057Y-89460400D01*
X132192628Y-89488971D01*
X132221200Y-89546114D01*
X132221200Y-89717542D01*
X132192628Y-89774685D01*
X132164057Y-89803257D01*
X132106914Y-89831828D01*
X132021200Y-89831828D01*
X152322857Y-56160000D02*
X152265714Y-56131428D01*
X152180000Y-56131428D01*
X152094285Y-56160000D01*
X152037142Y-56217142D01*
X152008571Y-56274285D01*
X151980000Y-56388571D01*
X151980000Y-56474285D01*
X152008571Y-56588571D01*
X152037142Y-56645714D01*
X152094285Y-56702857D01*
X152180000Y-56731428D01*
X152237142Y-56731428D01*
X152322857Y-56702857D01*
X152351428Y-56674285D01*
X152351428Y-56474285D01*
X152237142Y-56474285D01*
X152608571Y-56731428D02*
X152608571Y-56131428D01*
X152951428Y-56731428D01*
X152951428Y-56131428D01*
X153237142Y-56731428D02*
X153237142Y-56131428D01*
X153380000Y-56131428D01*
X153465714Y-56160000D01*
X153522857Y-56217142D01*
X153551428Y-56274285D01*
X153580000Y-56388571D01*
X153580000Y-56474285D01*
X153551428Y-56588571D01*
X153522857Y-56645714D01*
X153465714Y-56702857D01*
X153380000Y-56731428D01*
X153237142Y-56731428D01*
X144237142Y-56550000D02*
X144522857Y-56550000D01*
X144180000Y-56721428D02*
X144380000Y-56121428D01*
X144580000Y-56721428D01*
X144780000Y-56721428D02*
X144780000Y-56121428D01*
X144922857Y-56121428D01*
X145008571Y-56150000D01*
X145065714Y-56207142D01*
X145094285Y-56264285D01*
X145122857Y-56378571D01*
X145122857Y-56464285D01*
X145094285Y-56578571D01*
X145065714Y-56635714D01*
X145008571Y-56692857D01*
X144922857Y-56721428D01*
X144780000Y-56721428D01*
X145722857Y-56664285D02*
X145694285Y-56692857D01*
X145608571Y-56721428D01*
X145551428Y-56721428D01*
X145465714Y-56692857D01*
X145408571Y-56635714D01*
X145380000Y-56578571D01*
X145351428Y-56464285D01*
X145351428Y-56378571D01*
X145380000Y-56264285D01*
X145408571Y-56207142D01*
X145465714Y-56150000D01*
X145551428Y-56121428D01*
X145608571Y-56121428D01*
X145694285Y-56150000D01*
X145722857Y-56178571D01*
X154578142Y-95048428D02*
X154949571Y-95048428D01*
X154749571Y-95277000D01*
X154835285Y-95277000D01*
X154892428Y-95305571D01*
X154921000Y-95334142D01*
X154949571Y-95391285D01*
X154949571Y-95534142D01*
X154921000Y-95591285D01*
X154892428Y-95619857D01*
X154835285Y-95648428D01*
X154663857Y-95648428D01*
X154606714Y-95619857D01*
X154578142Y-95591285D01*
X155121000Y-95048428D02*
X155321000Y-95648428D01*
X155521000Y-95048428D01*
X155663857Y-95048428D02*
X156035285Y-95048428D01*
X155835285Y-95277000D01*
X155921000Y-95277000D01*
X155978142Y-95305571D01*
X156006714Y-95334142D01*
X156035285Y-95391285D01*
X156035285Y-95534142D01*
X156006714Y-95591285D01*
X155978142Y-95619857D01*
X155921000Y-95648428D01*
X155749571Y-95648428D01*
X155692428Y-95619857D01*
X155663857Y-95591285D01*
X152304800Y-95623028D02*
X152104800Y-95337314D01*
X151961942Y-95623028D02*
X151961942Y-95023028D01*
X152190514Y-95023028D01*
X152247657Y-95051600D01*
X152276228Y-95080171D01*
X152304800Y-95137314D01*
X152304800Y-95223028D01*
X152276228Y-95280171D01*
X152247657Y-95308742D01*
X152190514Y-95337314D01*
X151961942Y-95337314D01*
X152504800Y-95023028D02*
X152904800Y-95623028D01*
X152904800Y-95023028D02*
X152504800Y-95623028D01*
X153133371Y-95623028D02*
X153133371Y-95023028D01*
X153276228Y-95023028D01*
X153361942Y-95051600D01*
X153419085Y-95108742D01*
X153447657Y-95165885D01*
X153476228Y-95280171D01*
X153476228Y-95365885D01*
X153447657Y-95480171D01*
X153419085Y-95537314D01*
X153361942Y-95594457D01*
X153276228Y-95623028D01*
X153133371Y-95623028D01*
X149509257Y-95023028D02*
X149852114Y-95023028D01*
X149680685Y-95623028D02*
X149680685Y-95023028D01*
X149994971Y-95023028D02*
X150394971Y-95623028D01*
X150394971Y-95023028D02*
X149994971Y-95623028D01*
X150623542Y-95623028D02*
X150623542Y-95023028D01*
X150766400Y-95023028D01*
X150852114Y-95051600D01*
X150909257Y-95108742D01*
X150937828Y-95165885D01*
X150966400Y-95280171D01*
X150966400Y-95365885D01*
X150937828Y-95480171D01*
X150909257Y-95537314D01*
X150852114Y-95594457D01*
X150766400Y-95623028D01*
X150623542Y-95623028D01*
X147232742Y-95283342D02*
X147432742Y-95283342D01*
X147518457Y-95597628D02*
X147232742Y-95597628D01*
X147232742Y-94997628D01*
X147518457Y-94997628D01*
X147775600Y-95597628D02*
X147775600Y-94997628D01*
X148118457Y-95597628D01*
X148118457Y-94997628D01*
X144930828Y-95051600D02*
X144873685Y-95023028D01*
X144787971Y-95023028D01*
X144702257Y-95051600D01*
X144645114Y-95108742D01*
X144616542Y-95165885D01*
X144587971Y-95280171D01*
X144587971Y-95365885D01*
X144616542Y-95480171D01*
X144645114Y-95537314D01*
X144702257Y-95594457D01*
X144787971Y-95623028D01*
X144845114Y-95623028D01*
X144930828Y-95594457D01*
X144959400Y-95565885D01*
X144959400Y-95365885D01*
X144845114Y-95365885D01*
X145330828Y-95023028D02*
X145387971Y-95023028D01*
X145445114Y-95051600D01*
X145473685Y-95080171D01*
X145502257Y-95137314D01*
X145530828Y-95251600D01*
X145530828Y-95394457D01*
X145502257Y-95508742D01*
X145473685Y-95565885D01*
X145445114Y-95594457D01*
X145387971Y-95623028D01*
X145330828Y-95623028D01*
X145273685Y-95594457D01*
X145245114Y-95565885D01*
X145216542Y-95508742D01*
X145187971Y-95394457D01*
X145187971Y-95251600D01*
X145216542Y-95137314D01*
X145245114Y-95080171D01*
X145273685Y-95051600D01*
X145330828Y-95023028D01*
X142113057Y-95051600D02*
X142055914Y-95023028D01*
X141970200Y-95023028D01*
X141884485Y-95051600D01*
X141827342Y-95108742D01*
X141798771Y-95165885D01*
X141770200Y-95280171D01*
X141770200Y-95365885D01*
X141798771Y-95480171D01*
X141827342Y-95537314D01*
X141884485Y-95594457D01*
X141970200Y-95623028D01*
X142027342Y-95623028D01*
X142113057Y-95594457D01*
X142141628Y-95565885D01*
X142141628Y-95365885D01*
X142027342Y-95365885D01*
X142398771Y-95623028D02*
X142398771Y-95023028D01*
X142741628Y-95623028D01*
X142741628Y-95023028D01*
X143027342Y-95623028D02*
X143027342Y-95023028D01*
X143170200Y-95023028D01*
X143255914Y-95051600D01*
X143313057Y-95108742D01*
X143341628Y-95165885D01*
X143370200Y-95280171D01*
X143370200Y-95365885D01*
X143341628Y-95480171D01*
X143313057Y-95537314D01*
X143255914Y-95594457D01*
X143170200Y-95623028D01*
X143027342Y-95623028D01*
X160332828Y-89803257D02*
X160418542Y-89831828D01*
X160561400Y-89831828D01*
X160618542Y-89803257D01*
X160647114Y-89774685D01*
X160675685Y-89717542D01*
X160675685Y-89660400D01*
X160647114Y-89603257D01*
X160618542Y-89574685D01*
X160561400Y-89546114D01*
X160447114Y-89517542D01*
X160389971Y-89488971D01*
X160361400Y-89460400D01*
X160332828Y-89403257D01*
X160332828Y-89346114D01*
X160361400Y-89288971D01*
X160389971Y-89260400D01*
X160447114Y-89231828D01*
X160589971Y-89231828D01*
X160675685Y-89260400D01*
X160932828Y-89831828D02*
X160932828Y-89231828D01*
X161075685Y-89231828D01*
X161161400Y-89260400D01*
X161218542Y-89317542D01*
X161247114Y-89374685D01*
X161275685Y-89488971D01*
X161275685Y-89574685D01*
X161247114Y-89688971D01*
X161218542Y-89746114D01*
X161161400Y-89803257D01*
X161075685Y-89831828D01*
X160932828Y-89831828D01*
X161504257Y-89660400D02*
X161789971Y-89660400D01*
X161447114Y-89831828D02*
X161647114Y-89231828D01*
X161847114Y-89831828D01*
X157807114Y-89803257D02*
X157892828Y-89831828D01*
X158035685Y-89831828D01*
X158092828Y-89803257D01*
X158121400Y-89774685D01*
X158149971Y-89717542D01*
X158149971Y-89660400D01*
X158121400Y-89603257D01*
X158092828Y-89574685D01*
X158035685Y-89546114D01*
X157921400Y-89517542D01*
X157864257Y-89488971D01*
X157835685Y-89460400D01*
X157807114Y-89403257D01*
X157807114Y-89346114D01*
X157835685Y-89288971D01*
X157864257Y-89260400D01*
X157921400Y-89231828D01*
X158064257Y-89231828D01*
X158149971Y-89260400D01*
X158749971Y-89774685D02*
X158721400Y-89803257D01*
X158635685Y-89831828D01*
X158578542Y-89831828D01*
X158492828Y-89803257D01*
X158435685Y-89746114D01*
X158407114Y-89688971D01*
X158378542Y-89574685D01*
X158378542Y-89488971D01*
X158407114Y-89374685D01*
X158435685Y-89317542D01*
X158492828Y-89260400D01*
X158578542Y-89231828D01*
X158635685Y-89231828D01*
X158721400Y-89260400D01*
X158749971Y-89288971D01*
X159292828Y-89831828D02*
X159007114Y-89831828D01*
X159007114Y-89231828D01*
X155498857Y-89235000D02*
X155441714Y-89206428D01*
X155356000Y-89206428D01*
X155270285Y-89235000D01*
X155213142Y-89292142D01*
X155184571Y-89349285D01*
X155156000Y-89463571D01*
X155156000Y-89549285D01*
X155184571Y-89663571D01*
X155213142Y-89720714D01*
X155270285Y-89777857D01*
X155356000Y-89806428D01*
X155413142Y-89806428D01*
X155498857Y-89777857D01*
X155527428Y-89749285D01*
X155527428Y-89549285D01*
X155413142Y-89549285D01*
X155784571Y-89806428D02*
X155784571Y-89206428D01*
X156127428Y-89806428D01*
X156127428Y-89206428D01*
X156413142Y-89806428D02*
X156413142Y-89206428D01*
X156556000Y-89206428D01*
X156641714Y-89235000D01*
X156698857Y-89292142D01*
X156727428Y-89349285D01*
X156756000Y-89463571D01*
X156756000Y-89549285D01*
X156727428Y-89663571D01*
X156698857Y-89720714D01*
X156641714Y-89777857D01*
X156556000Y-89806428D01*
X156413142Y-89806428D01*
X150287114Y-89257228D02*
X150487114Y-89857228D01*
X150687114Y-89257228D01*
X150887114Y-89857228D02*
X150887114Y-89457228D01*
X150887114Y-89257228D02*
X150858542Y-89285800D01*
X150887114Y-89314371D01*
X150915685Y-89285800D01*
X150887114Y-89257228D01*
X150887114Y-89314371D01*
X151172828Y-89457228D02*
X151172828Y-89857228D01*
X151172828Y-89514371D02*
X151201400Y-89485800D01*
X151258542Y-89457228D01*
X151344257Y-89457228D01*
X151401400Y-89485800D01*
X151429971Y-89542942D01*
X151429971Y-89857228D01*
X141041514Y-89803257D02*
X141127228Y-89831828D01*
X141270085Y-89831828D01*
X141327228Y-89803257D01*
X141355800Y-89774685D01*
X141384371Y-89717542D01*
X141384371Y-89660400D01*
X141355800Y-89603257D01*
X141327228Y-89574685D01*
X141270085Y-89546114D01*
X141155800Y-89517542D01*
X141098657Y-89488971D01*
X141070085Y-89460400D01*
X141041514Y-89403257D01*
X141041514Y-89346114D01*
X141070085Y-89288971D01*
X141098657Y-89260400D01*
X141155800Y-89231828D01*
X141298657Y-89231828D01*
X141384371Y-89260400D01*
X141641514Y-89831828D02*
X141641514Y-89231828D01*
X141784371Y-89231828D01*
X141870085Y-89260400D01*
X141927228Y-89317542D01*
X141955800Y-89374685D01*
X141984371Y-89488971D01*
X141984371Y-89574685D01*
X141955800Y-89688971D01*
X141927228Y-89746114D01*
X141870085Y-89803257D01*
X141784371Y-89831828D01*
X141641514Y-89831828D01*
X142241514Y-89831828D02*
X142241514Y-89231828D01*
X135804371Y-89752457D02*
X135890085Y-89781028D01*
X136032942Y-89781028D01*
X136090085Y-89752457D01*
X136118657Y-89723885D01*
X136147228Y-89666742D01*
X136147228Y-89609600D01*
X136118657Y-89552457D01*
X136090085Y-89523885D01*
X136032942Y-89495314D01*
X135918657Y-89466742D01*
X135861514Y-89438171D01*
X135832942Y-89409600D01*
X135804371Y-89352457D01*
X135804371Y-89295314D01*
X135832942Y-89238171D01*
X135861514Y-89209600D01*
X135918657Y-89181028D01*
X136061514Y-89181028D01*
X136147228Y-89209600D01*
X136747228Y-89723885D02*
X136718657Y-89752457D01*
X136632942Y-89781028D01*
X136575800Y-89781028D01*
X136490085Y-89752457D01*
X136432942Y-89695314D01*
X136404371Y-89638171D01*
X136375800Y-89523885D01*
X136375800Y-89438171D01*
X136404371Y-89323885D01*
X136432942Y-89266742D01*
X136490085Y-89209600D01*
X136575800Y-89181028D01*
X136632942Y-89181028D01*
X136718657Y-89209600D01*
X136747228Y-89238171D01*
X137004371Y-89781028D02*
X137004371Y-89181028D01*
X137347228Y-89781028D02*
X137090085Y-89438171D01*
X137347228Y-89181028D02*
X137004371Y-89523885D01*
X133604057Y-89235000D02*
X133546914Y-89206428D01*
X133461200Y-89206428D01*
X133375485Y-89235000D01*
X133318342Y-89292142D01*
X133289771Y-89349285D01*
X133261200Y-89463571D01*
X133261200Y-89549285D01*
X133289771Y-89663571D01*
X133318342Y-89720714D01*
X133375485Y-89777857D01*
X133461200Y-89806428D01*
X133518342Y-89806428D01*
X133604057Y-89777857D01*
X133632628Y-89749285D01*
X133632628Y-89549285D01*
X133518342Y-89549285D01*
X133889771Y-89806428D02*
X133889771Y-89206428D01*
X134232628Y-89806428D01*
X134232628Y-89206428D01*
X134518342Y-89806428D02*
X134518342Y-89206428D01*
X134661200Y-89206428D01*
X134746914Y-89235000D01*
X134804057Y-89292142D01*
X134832628Y-89349285D01*
X134861200Y-89463571D01*
X134861200Y-89549285D01*
X134832628Y-89663571D01*
X134804057Y-89720714D01*
X134746914Y-89777857D01*
X134661200Y-89806428D01*
X134518342Y-89806428D01*
X128366914Y-89257228D02*
X128566914Y-89857228D01*
X128766914Y-89257228D01*
X128966914Y-89857228D02*
X128966914Y-89457228D01*
X128966914Y-89257228D02*
X128938342Y-89285800D01*
X128966914Y-89314371D01*
X128995485Y-89285800D01*
X128966914Y-89257228D01*
X128966914Y-89314371D01*
X129252628Y-89457228D02*
X129252628Y-89857228D01*
X129252628Y-89514371D02*
X129281200Y-89485800D01*
X129338342Y-89457228D01*
X129424057Y-89457228D01*
X129481200Y-89485800D01*
X129509771Y-89542942D01*
X129509771Y-89857228D01*
D11*
%TO.C,DL*%
X127820000Y-116340000D02*
X125160000Y-116340000D01*
X127820000Y-118940000D02*
X127820000Y-116340000D01*
X125160000Y-118940000D02*
X125160000Y-116340000D01*
X127820000Y-118940000D02*
X125160000Y-118940000D01*
X127820000Y-120210000D02*
X127820000Y-121540000D01*
X127820000Y-121540000D02*
X126490000Y-121540000D01*
%TO.C,PW*%
X172780000Y-121535500D02*
X171450000Y-121535500D01*
X172780000Y-120205500D02*
X172780000Y-121535500D01*
X172780000Y-118935500D02*
X170120000Y-118935500D01*
X170120000Y-118935500D02*
X170120000Y-116335500D01*
X172780000Y-118935500D02*
X172780000Y-116335500D01*
X172780000Y-116335500D02*
X170120000Y-116335500D01*
%TO.C,U3*%
X157950000Y-106500000D02*
X157950000Y-105720000D01*
X157950000Y-105720000D02*
X156950000Y-105720000D01*
X139710000Y-106500000D02*
X139710000Y-105720000D01*
X139710000Y-105720000D02*
X140710000Y-105720000D01*
X157950000Y-131465000D02*
X139710000Y-131465000D01*
X139710000Y-131465000D02*
X139710000Y-125045000D01*
X157950000Y-131465000D02*
X157950000Y-125045000D01*
X157950000Y-125045000D02*
X158330000Y-125045000D01*
%TO.C,EN*%
X165250000Y-107270000D02*
X164950000Y-107270000D01*
X164950000Y-107270000D02*
X164950000Y-110570000D01*
X164950000Y-110570000D02*
X165250000Y-110570000D01*
X167450000Y-107270000D02*
X167750000Y-107270000D01*
X167750000Y-107270000D02*
X167750000Y-110570000D01*
X167750000Y-110570000D02*
X167450000Y-110570000D01*
%TO.C,LIS3DH*%
X170000000Y-93200000D02*
X170000000Y-90540000D01*
X152160000Y-93200000D02*
X170000000Y-93200000D01*
X152160000Y-90540000D02*
X170000000Y-90540000D01*
X152160000Y-93200000D02*
X152160000Y-90540000D01*
X150890000Y-93200000D02*
X149560000Y-93200000D01*
X149560000Y-93200000D02*
X149560000Y-91870000D01*
%TO.C,VIN*%
X141340000Y-59800000D02*
X141340000Y-61130000D01*
X140010000Y-59800000D02*
X141340000Y-59800000D01*
X138740000Y-59800000D02*
X138740000Y-62460000D01*
X138740000Y-62460000D02*
X136140000Y-62460000D01*
X138740000Y-59800000D02*
X136140000Y-59800000D01*
X136140000Y-59800000D02*
X136140000Y-62460000D01*
%TO.C,FW*%
X141270000Y-98980000D02*
X141270000Y-97650000D01*
X142600000Y-98980000D02*
X141270000Y-98980000D01*
X143870000Y-98980000D02*
X143870000Y-96320000D01*
X143870000Y-96320000D02*
X156630000Y-96320000D01*
X143870000Y-98980000D02*
X156630000Y-98980000D01*
X156630000Y-98980000D02*
X156630000Y-96320000D01*
%TO.C,D4*%
X154917800Y-77460000D02*
X157777800Y-77460000D01*
X154917800Y-75540000D02*
X154917800Y-77460000D01*
X157777800Y-75540000D02*
X154917800Y-75540000D01*
%TO.C,D2*%
X148200000Y-71300000D02*
X145050000Y-71300000D01*
X148200000Y-69600000D02*
X145050000Y-69600000D01*
X148200000Y-71300000D02*
X148200000Y-69600000D01*
%TO.C,BME680*%
X145538500Y-93151000D02*
X145538500Y-90491000D01*
X130238500Y-93151000D02*
X145538500Y-93151000D01*
X130238500Y-90491000D02*
X145538500Y-90491000D01*
X130238500Y-93151000D02*
X130238500Y-90491000D01*
X128968500Y-93151000D02*
X127638500Y-93151000D01*
X127638500Y-93151000D02*
X127638500Y-91821000D01*
%TO.C,MOISTURE*%
X145030000Y-62420000D02*
X145030000Y-61150000D01*
X146300000Y-62420000D02*
X145030000Y-62420000D01*
X151760000Y-60107071D02*
X151760000Y-59710000D01*
X151000000Y-60107071D02*
X151000000Y-59710000D01*
X151760000Y-51050000D02*
X151760000Y-57050000D01*
X151000000Y-51050000D02*
X151760000Y-51050000D01*
X151000000Y-57050000D02*
X151000000Y-51050000D01*
X150110000Y-59710000D02*
X150110000Y-57050000D01*
X149220000Y-60107071D02*
X149220000Y-59710000D01*
X148460000Y-60107071D02*
X148460000Y-59710000D01*
X149220000Y-51050000D02*
X149220000Y-57050000D01*
X148460000Y-51050000D02*
X149220000Y-51050000D01*
X148460000Y-57050000D02*
X148460000Y-51050000D01*
X147570000Y-59710000D02*
X147570000Y-57050000D01*
X146680000Y-60040000D02*
X146680000Y-59710000D01*
X145920000Y-60040000D02*
X145920000Y-59710000D01*
X146580000Y-57050000D02*
X146580000Y-51050000D01*
X146460000Y-57050000D02*
X146460000Y-51050000D01*
X146340000Y-57050000D02*
X146340000Y-51050000D01*
X146220000Y-57050000D02*
X146220000Y-51050000D01*
X146100000Y-57050000D02*
X146100000Y-51050000D01*
X145980000Y-57050000D02*
X145980000Y-51050000D01*
X146680000Y-51050000D02*
X146680000Y-57050000D01*
X145920000Y-51050000D02*
X146680000Y-51050000D01*
X145920000Y-57050000D02*
X145920000Y-51050000D01*
X144970000Y-57050000D02*
X144970000Y-59710000D01*
X152710000Y-57050000D02*
X144970000Y-57050000D01*
X152710000Y-59710000D02*
X152710000Y-57050000D01*
X144970000Y-59710000D02*
X152710000Y-59710000D01*
D10*
%TO.C,USB*%
X142900000Y-56205000D02*
X142900000Y-56680000D01*
X142900000Y-56680000D02*
X134600000Y-56680000D01*
X134600000Y-56680000D02*
X134600000Y-56205000D01*
X142900000Y-53955000D02*
X142900000Y-53480000D01*
X142900000Y-53480000D02*
X134600000Y-53480000D01*
X134600000Y-53480000D02*
X134600000Y-53955000D01*
X141050000Y-56980000D02*
X139050000Y-56980000D01*
D11*
%TO.C,U2*%
X155690000Y-67770000D02*
X153890000Y-67770000D01*
X153890000Y-70990000D02*
X156340000Y-70990000D01*
%TO.C,R3*%
X157011252Y-77920000D02*
X156488748Y-77920000D01*
X157011252Y-79340000D02*
X156488748Y-79340000D01*
%TO.C,JP1*%
X157229000Y-60087000D02*
X157229000Y-62087000D01*
X154429000Y-60087000D02*
X157229000Y-60087000D01*
X154429000Y-62087000D02*
X154429000Y-60087000D01*
X157229000Y-62087000D02*
X154429000Y-62087000D01*
%TO.C,D5*%
X143208500Y-103449000D02*
X146068500Y-103449000D01*
X146068500Y-103449000D02*
X146068500Y-101529000D01*
X146068500Y-101529000D02*
X143208500Y-101529000D01*
%TO.C,BATTERY*%
X128660000Y-72230000D02*
X128940000Y-72230000D01*
X128940000Y-72230000D02*
X128940000Y-73830000D01*
X128940000Y-73830000D02*
X129860000Y-73830000D01*
X129860000Y-73830000D02*
X129860000Y-66010000D01*
X129860000Y-66010000D02*
X123740000Y-66010000D01*
X123740000Y-66010000D02*
X123740000Y-73830000D01*
X123740000Y-73830000D02*
X124660000Y-73830000D01*
X124660000Y-73830000D02*
X124660000Y-72230000D01*
X124660000Y-72230000D02*
X124940000Y-72230000D01*
X127300000Y-66010000D02*
X127300000Y-70370000D01*
X127300000Y-70370000D02*
X126300000Y-70370000D01*
X126300000Y-70370000D02*
X126300000Y-66010000D01*
X129860000Y-72230000D02*
X128940000Y-72230000D01*
X123740000Y-72230000D02*
X124660000Y-72230000D01*
X129100000Y-69870000D02*
X129100000Y-68270000D01*
X129100000Y-68270000D02*
X128100000Y-68270000D01*
X128100000Y-68270000D02*
X128100000Y-69870000D01*
X128100000Y-69870000D02*
X129100000Y-69870000D01*
X124500000Y-69870000D02*
X124500000Y-68270000D01*
X124500000Y-68270000D02*
X125500000Y-68270000D01*
X125500000Y-68270000D02*
X125500000Y-69870000D01*
X125500000Y-69870000D02*
X124500000Y-69870000D01*
X128100000Y-68270000D02*
X128100000Y-66010000D01*
X128600000Y-68270000D02*
X128600000Y-66010000D01*
X128660000Y-72230000D02*
X128660000Y-73445000D01*
%TO.C,U1*%
X141001000Y-75842400D02*
X138551000Y-75842400D01*
X139201000Y-79062400D02*
X141001000Y-79062400D01*
%TO.C,BOOT*%
X132430000Y-110565000D02*
X132730000Y-110565000D01*
X132730000Y-110565000D02*
X132730000Y-107265000D01*
X132730000Y-107265000D02*
X132430000Y-107265000D01*
X130230000Y-110565000D02*
X129930000Y-110565000D01*
X129930000Y-110565000D02*
X129930000Y-107265000D01*
X129930000Y-107265000D02*
X130230000Y-107265000D01*
%TO.C,R7*%
X135230000Y-108063748D02*
X135230000Y-108586252D01*
X133810000Y-108063748D02*
X133810000Y-108586252D01*
%TO.C,R9*%
X164541252Y-113710000D02*
X164018748Y-113710000D01*
X164541252Y-112290000D02*
X164018748Y-112290000D01*
%TO.C,R8*%
X153218248Y-101779000D02*
X153740752Y-101779000D01*
X153218248Y-103199000D02*
X153740752Y-103199000D01*
%TO.C,R6*%
X160255852Y-61797000D02*
X159733348Y-61797000D01*
X160255852Y-60377000D02*
X159733348Y-60377000D01*
%TO.C,R5*%
X146369748Y-77222400D02*
X146892252Y-77222400D01*
X146369748Y-75802400D02*
X146892252Y-75802400D01*
%TO.C,R4*%
X160322000Y-68913148D02*
X160322000Y-69435652D01*
X158902000Y-68913148D02*
X158902000Y-69435652D01*
%TO.C,R2*%
X146438252Y-65355400D02*
X145915748Y-65355400D01*
X146438252Y-66775400D02*
X145915748Y-66775400D01*
%TO.C,R1*%
X152058748Y-79320000D02*
X152581252Y-79320000D01*
X152058748Y-77900000D02*
X152581252Y-77900000D01*
%TO.C,Q1*%
X139321000Y-67914400D02*
X140781000Y-67914400D01*
X139321000Y-71074400D02*
X142481000Y-71074400D01*
X139321000Y-71074400D02*
X139321000Y-70144400D01*
X139321000Y-67914400D02*
X139321000Y-68844400D01*
%TO.C,POWER*%
X157080000Y-55590000D02*
X159940000Y-55590000D01*
X159940000Y-55590000D02*
X159940000Y-53670000D01*
X159940000Y-53670000D02*
X157080000Y-53670000D01*
%TO.C,D1*%
X154180000Y-75540000D02*
X151320000Y-75540000D01*
X154180000Y-77460000D02*
X154180000Y-75540000D01*
X151320000Y-77460000D02*
X154180000Y-77460000D01*
%TO.C,C7*%
X162580000Y-108701252D02*
X162580000Y-108178748D01*
X164000000Y-108701252D02*
X164000000Y-108178748D01*
%TO.C,C6*%
X163070000Y-122523748D02*
X163070000Y-123046252D01*
X161650000Y-122523748D02*
X161650000Y-123046252D01*
%TO.C,C5*%
X165380000Y-122528748D02*
X165380000Y-123051252D01*
X163960000Y-122528748D02*
X163960000Y-123051252D01*
%TO.C,C4*%
X160322000Y-72623148D02*
X160322000Y-73145652D01*
X158902000Y-72623148D02*
X158902000Y-73145652D01*
%TO.C,C3*%
X149972000Y-69625652D02*
X149972000Y-69103148D01*
X151392000Y-69625652D02*
X151392000Y-69103148D01*
%TO.C,C2*%
X146369748Y-79322400D02*
X146892252Y-79322400D01*
X146369748Y-77902400D02*
X146892252Y-77902400D01*
%TO.C,C1*%
X133275000Y-73108452D02*
X133275000Y-72585948D01*
X134695000Y-73108452D02*
X134695000Y-72585948D01*
%TO.C,DL*%
D10*
X125803333Y-115632380D02*
X125803333Y-114632380D01*
X126041428Y-114632380D01*
X126184285Y-114680000D01*
X126279523Y-114775238D01*
X126327142Y-114870476D01*
X126374761Y-115060952D01*
X126374761Y-115203809D01*
X126327142Y-115394285D01*
X126279523Y-115489523D01*
X126184285Y-115584761D01*
X126041428Y-115632380D01*
X125803333Y-115632380D01*
X127279523Y-115632380D02*
X126803333Y-115632380D01*
X126803333Y-114632380D01*
%TO.C,PW*%
X170606666Y-115612380D02*
X170606666Y-114612380D01*
X170987619Y-114612380D01*
X171082857Y-114660000D01*
X171130476Y-114707619D01*
X171178095Y-114802857D01*
X171178095Y-114945714D01*
X171130476Y-115040952D01*
X171082857Y-115088571D01*
X170987619Y-115136190D01*
X170606666Y-115136190D01*
X171511428Y-114612380D02*
X171749523Y-115612380D01*
X171940000Y-114898095D01*
X172130476Y-115612380D01*
X172368571Y-114612380D01*
%TO.C,U3*%
X156921295Y-103693980D02*
X156921295Y-104503504D01*
X156968914Y-104598742D01*
X157016533Y-104646361D01*
X157111771Y-104693980D01*
X157302247Y-104693980D01*
X157397485Y-104646361D01*
X157445104Y-104598742D01*
X157492723Y-104503504D01*
X157492723Y-103693980D01*
X157873676Y-103693980D02*
X158492723Y-103693980D01*
X158159390Y-104074933D01*
X158302247Y-104074933D01*
X158397485Y-104122552D01*
X158445104Y-104170171D01*
X158492723Y-104265409D01*
X158492723Y-104503504D01*
X158445104Y-104598742D01*
X158397485Y-104646361D01*
X158302247Y-104693980D01*
X158016533Y-104693980D01*
X157921295Y-104646361D01*
X157873676Y-104598742D01*
%TO.C,EN*%
X165631904Y-105389371D02*
X165965238Y-105389371D01*
X166108095Y-105913180D02*
X165631904Y-105913180D01*
X165631904Y-104913180D01*
X166108095Y-104913180D01*
X166536666Y-105913180D02*
X166536666Y-104913180D01*
X167108095Y-105913180D01*
X167108095Y-104913180D01*
%TO.C,LIS3DH*%
X166065438Y-95067380D02*
X165589247Y-95067380D01*
X165589247Y-94067380D01*
X166398771Y-95067380D02*
X166398771Y-94067380D01*
X166827342Y-95019761D02*
X166970200Y-95067380D01*
X167208295Y-95067380D01*
X167303533Y-95019761D01*
X167351152Y-94972142D01*
X167398771Y-94876904D01*
X167398771Y-94781666D01*
X167351152Y-94686428D01*
X167303533Y-94638809D01*
X167208295Y-94591190D01*
X167017819Y-94543571D01*
X166922580Y-94495952D01*
X166874961Y-94448333D01*
X166827342Y-94353095D01*
X166827342Y-94257857D01*
X166874961Y-94162619D01*
X166922580Y-94115000D01*
X167017819Y-94067380D01*
X167255914Y-94067380D01*
X167398771Y-94115000D01*
X167732104Y-94067380D02*
X168351152Y-94067380D01*
X168017819Y-94448333D01*
X168160676Y-94448333D01*
X168255914Y-94495952D01*
X168303533Y-94543571D01*
X168351152Y-94638809D01*
X168351152Y-94876904D01*
X168303533Y-94972142D01*
X168255914Y-95019761D01*
X168160676Y-95067380D01*
X167874961Y-95067380D01*
X167779723Y-95019761D01*
X167732104Y-94972142D01*
X168779723Y-95067380D02*
X168779723Y-94067380D01*
X169017819Y-94067380D01*
X169160676Y-94115000D01*
X169255914Y-94210238D01*
X169303533Y-94305476D01*
X169351152Y-94495952D01*
X169351152Y-94638809D01*
X169303533Y-94829285D01*
X169255914Y-94924523D01*
X169160676Y-95019761D01*
X169017819Y-95067380D01*
X168779723Y-95067380D01*
X169779723Y-95067380D02*
X169779723Y-94067380D01*
X169779723Y-94543571D02*
X170351152Y-94543571D01*
X170351152Y-95067380D02*
X170351152Y-94067380D01*
%TO.C,VIN*%
X137694761Y-63172380D02*
X138028095Y-64172380D01*
X138361428Y-63172380D01*
X138694761Y-64172380D02*
X138694761Y-63172380D01*
X139170952Y-64172380D02*
X139170952Y-63172380D01*
X139742380Y-64172380D01*
X139742380Y-63172380D01*
%TO.C,FW*%
X148517028Y-100106171D02*
X148183695Y-100106171D01*
X148183695Y-100629980D02*
X148183695Y-99629980D01*
X148659885Y-99629980D01*
X148945600Y-99629980D02*
X149183695Y-100629980D01*
X149374171Y-99915695D01*
X149564647Y-100629980D01*
X149802742Y-99629980D01*
%TO.C,D4*%
X156039704Y-75198380D02*
X156039704Y-74198380D01*
X156277800Y-74198380D01*
X156420657Y-74246000D01*
X156515895Y-74341238D01*
X156563514Y-74436476D01*
X156611133Y-74626952D01*
X156611133Y-74769809D01*
X156563514Y-74960285D01*
X156515895Y-75055523D01*
X156420657Y-75150761D01*
X156277800Y-75198380D01*
X156039704Y-75198380D01*
X157468276Y-74531714D02*
X157468276Y-75198380D01*
X157230180Y-74150761D02*
X156992085Y-74865047D01*
X157611133Y-74865047D01*
%TO.C,D2*%
X145661904Y-72732380D02*
X145661904Y-71732380D01*
X145900000Y-71732380D01*
X146042857Y-71780000D01*
X146138095Y-71875238D01*
X146185714Y-71970476D01*
X146233333Y-72160952D01*
X146233333Y-72303809D01*
X146185714Y-72494285D01*
X146138095Y-72589523D01*
X146042857Y-72684761D01*
X145900000Y-72732380D01*
X145661904Y-72732380D01*
X146614285Y-71827619D02*
X146661904Y-71780000D01*
X146757142Y-71732380D01*
X146995238Y-71732380D01*
X147090476Y-71780000D01*
X147138095Y-71827619D01*
X147185714Y-71922857D01*
X147185714Y-72018095D01*
X147138095Y-72160952D01*
X146566666Y-72732380D01*
X147185714Y-72732380D01*
%TO.C,BME680*%
X127565447Y-94543571D02*
X127708304Y-94591190D01*
X127755923Y-94638809D01*
X127803542Y-94734047D01*
X127803542Y-94876904D01*
X127755923Y-94972142D01*
X127708304Y-95019761D01*
X127613066Y-95067380D01*
X127232114Y-95067380D01*
X127232114Y-94067380D01*
X127565447Y-94067380D01*
X127660685Y-94115000D01*
X127708304Y-94162619D01*
X127755923Y-94257857D01*
X127755923Y-94353095D01*
X127708304Y-94448333D01*
X127660685Y-94495952D01*
X127565447Y-94543571D01*
X127232114Y-94543571D01*
X128232114Y-95067380D02*
X128232114Y-94067380D01*
X128565447Y-94781666D01*
X128898780Y-94067380D01*
X128898780Y-95067380D01*
X129374971Y-94543571D02*
X129708304Y-94543571D01*
X129851161Y-95067380D02*
X129374971Y-95067380D01*
X129374971Y-94067380D01*
X129851161Y-94067380D01*
X130708304Y-94067380D02*
X130517828Y-94067380D01*
X130422590Y-94115000D01*
X130374971Y-94162619D01*
X130279733Y-94305476D01*
X130232114Y-94495952D01*
X130232114Y-94876904D01*
X130279733Y-94972142D01*
X130327352Y-95019761D01*
X130422590Y-95067380D01*
X130613066Y-95067380D01*
X130708304Y-95019761D01*
X130755923Y-94972142D01*
X130803542Y-94876904D01*
X130803542Y-94638809D01*
X130755923Y-94543571D01*
X130708304Y-94495952D01*
X130613066Y-94448333D01*
X130422590Y-94448333D01*
X130327352Y-94495952D01*
X130279733Y-94543571D01*
X130232114Y-94638809D01*
X131374971Y-94495952D02*
X131279733Y-94448333D01*
X131232114Y-94400714D01*
X131184495Y-94305476D01*
X131184495Y-94257857D01*
X131232114Y-94162619D01*
X131279733Y-94115000D01*
X131374971Y-94067380D01*
X131565447Y-94067380D01*
X131660685Y-94115000D01*
X131708304Y-94162619D01*
X131755923Y-94257857D01*
X131755923Y-94305476D01*
X131708304Y-94400714D01*
X131660685Y-94448333D01*
X131565447Y-94495952D01*
X131374971Y-94495952D01*
X131279733Y-94543571D01*
X131232114Y-94591190D01*
X131184495Y-94686428D01*
X131184495Y-94876904D01*
X131232114Y-94972142D01*
X131279733Y-95019761D01*
X131374971Y-95067380D01*
X131565447Y-95067380D01*
X131660685Y-95019761D01*
X131708304Y-94972142D01*
X131755923Y-94876904D01*
X131755923Y-94686428D01*
X131708304Y-94591190D01*
X131660685Y-94543571D01*
X131565447Y-94495952D01*
X132374971Y-94067380D02*
X132470209Y-94067380D01*
X132565447Y-94115000D01*
X132613066Y-94162619D01*
X132660685Y-94257857D01*
X132708304Y-94448333D01*
X132708304Y-94686428D01*
X132660685Y-94876904D01*
X132613066Y-94972142D01*
X132565447Y-95019761D01*
X132470209Y-95067380D01*
X132374971Y-95067380D01*
X132279733Y-95019761D01*
X132232114Y-94972142D01*
X132184495Y-94876904D01*
X132136876Y-94686428D01*
X132136876Y-94448333D01*
X132184495Y-94257857D01*
X132232114Y-94162619D01*
X132279733Y-94115000D01*
X132374971Y-94067380D01*
%TO.C,MOISTURE*%
X145411428Y-64172380D02*
X145411428Y-63172380D01*
X145744761Y-63886666D01*
X146078095Y-63172380D01*
X146078095Y-64172380D01*
X146744761Y-63172380D02*
X146935238Y-63172380D01*
X147030476Y-63220000D01*
X147125714Y-63315238D01*
X147173333Y-63505714D01*
X147173333Y-63839047D01*
X147125714Y-64029523D01*
X147030476Y-64124761D01*
X146935238Y-64172380D01*
X146744761Y-64172380D01*
X146649523Y-64124761D01*
X146554285Y-64029523D01*
X146506666Y-63839047D01*
X146506666Y-63505714D01*
X146554285Y-63315238D01*
X146649523Y-63220000D01*
X146744761Y-63172380D01*
X147601904Y-64172380D02*
X147601904Y-63172380D01*
X148030476Y-64124761D02*
X148173333Y-64172380D01*
X148411428Y-64172380D01*
X148506666Y-64124761D01*
X148554285Y-64077142D01*
X148601904Y-63981904D01*
X148601904Y-63886666D01*
X148554285Y-63791428D01*
X148506666Y-63743809D01*
X148411428Y-63696190D01*
X148220952Y-63648571D01*
X148125714Y-63600952D01*
X148078095Y-63553333D01*
X148030476Y-63458095D01*
X148030476Y-63362857D01*
X148078095Y-63267619D01*
X148125714Y-63220000D01*
X148220952Y-63172380D01*
X148459047Y-63172380D01*
X148601904Y-63220000D01*
X148887619Y-63172380D02*
X149459047Y-63172380D01*
X149173333Y-64172380D02*
X149173333Y-63172380D01*
X149792380Y-63172380D02*
X149792380Y-63981904D01*
X149840000Y-64077142D01*
X149887619Y-64124761D01*
X149982857Y-64172380D01*
X150173333Y-64172380D01*
X150268571Y-64124761D01*
X150316190Y-64077142D01*
X150363809Y-63981904D01*
X150363809Y-63172380D01*
X151411428Y-64172380D02*
X151078095Y-63696190D01*
X150840000Y-64172380D02*
X150840000Y-63172380D01*
X151220952Y-63172380D01*
X151316190Y-63220000D01*
X151363809Y-63267619D01*
X151411428Y-63362857D01*
X151411428Y-63505714D01*
X151363809Y-63600952D01*
X151316190Y-63648571D01*
X151220952Y-63696190D01*
X150840000Y-63696190D01*
X151840000Y-63648571D02*
X152173333Y-63648571D01*
X152316190Y-64172380D02*
X151840000Y-64172380D01*
X151840000Y-63172380D01*
X152316190Y-63172380D01*
%TO.C,USB*%
X137396695Y-51903380D02*
X137396695Y-52712904D01*
X137444314Y-52808142D01*
X137491933Y-52855761D01*
X137587171Y-52903380D01*
X137777647Y-52903380D01*
X137872885Y-52855761D01*
X137920504Y-52808142D01*
X137968123Y-52712904D01*
X137968123Y-51903380D01*
X138396695Y-52855761D02*
X138539552Y-52903380D01*
X138777647Y-52903380D01*
X138872885Y-52855761D01*
X138920504Y-52808142D01*
X138968123Y-52712904D01*
X138968123Y-52617666D01*
X138920504Y-52522428D01*
X138872885Y-52474809D01*
X138777647Y-52427190D01*
X138587171Y-52379571D01*
X138491933Y-52331952D01*
X138444314Y-52284333D01*
X138396695Y-52189095D01*
X138396695Y-52093857D01*
X138444314Y-51998619D01*
X138491933Y-51951000D01*
X138587171Y-51903380D01*
X138825266Y-51903380D01*
X138968123Y-51951000D01*
X139730028Y-52379571D02*
X139872885Y-52427190D01*
X139920504Y-52474809D01*
X139968123Y-52570047D01*
X139968123Y-52712904D01*
X139920504Y-52808142D01*
X139872885Y-52855761D01*
X139777647Y-52903380D01*
X139396695Y-52903380D01*
X139396695Y-51903380D01*
X139730028Y-51903380D01*
X139825266Y-51951000D01*
X139872885Y-51998619D01*
X139920504Y-52093857D01*
X139920504Y-52189095D01*
X139872885Y-52284333D01*
X139825266Y-52331952D01*
X139730028Y-52379571D01*
X139396695Y-52379571D01*
%TO.C,U2*%
X154070095Y-66005380D02*
X154070095Y-66814904D01*
X154117714Y-66910142D01*
X154165333Y-66957761D01*
X154260571Y-67005380D01*
X154451047Y-67005380D01*
X154546285Y-66957761D01*
X154593904Y-66910142D01*
X154641523Y-66814904D01*
X154641523Y-66005380D01*
X155070095Y-66100619D02*
X155117714Y-66053000D01*
X155212952Y-66005380D01*
X155451047Y-66005380D01*
X155546285Y-66053000D01*
X155593904Y-66100619D01*
X155641523Y-66195857D01*
X155641523Y-66291095D01*
X155593904Y-66433952D01*
X155022476Y-67005380D01*
X155641523Y-67005380D01*
%TO.C,R3*%
X156532533Y-80987380D02*
X156199200Y-80511190D01*
X155961104Y-80987380D02*
X155961104Y-79987380D01*
X156342057Y-79987380D01*
X156437295Y-80035000D01*
X156484914Y-80082619D01*
X156532533Y-80177857D01*
X156532533Y-80320714D01*
X156484914Y-80415952D01*
X156437295Y-80463571D01*
X156342057Y-80511190D01*
X155961104Y-80511190D01*
X156865866Y-79987380D02*
X157484914Y-79987380D01*
X157151580Y-80368333D01*
X157294438Y-80368333D01*
X157389676Y-80415952D01*
X157437295Y-80463571D01*
X157484914Y-80558809D01*
X157484914Y-80796904D01*
X157437295Y-80892142D01*
X157389676Y-80939761D01*
X157294438Y-80987380D01*
X157008723Y-80987380D01*
X156913485Y-80939761D01*
X156865866Y-80892142D01*
%TO.C,JP1*%
X155030666Y-58359380D02*
X155030666Y-59073666D01*
X154983047Y-59216523D01*
X154887809Y-59311761D01*
X154744952Y-59359380D01*
X154649714Y-59359380D01*
X155506857Y-59359380D02*
X155506857Y-58359380D01*
X155887809Y-58359380D01*
X155983047Y-58407000D01*
X156030666Y-58454619D01*
X156078285Y-58549857D01*
X156078285Y-58692714D01*
X156030666Y-58787952D01*
X155983047Y-58835571D01*
X155887809Y-58883190D01*
X155506857Y-58883190D01*
X157030666Y-59359380D02*
X156459238Y-59359380D01*
X156744952Y-59359380D02*
X156744952Y-58359380D01*
X156649714Y-58502238D01*
X156554476Y-58597476D01*
X156459238Y-58645095D01*
%TO.C,D5*%
X143610404Y-101211380D02*
X143610404Y-100211380D01*
X143848500Y-100211380D01*
X143991357Y-100259000D01*
X144086595Y-100354238D01*
X144134214Y-100449476D01*
X144181833Y-100639952D01*
X144181833Y-100782809D01*
X144134214Y-100973285D01*
X144086595Y-101068523D01*
X143991357Y-101163761D01*
X143848500Y-101211380D01*
X143610404Y-101211380D01*
X145086595Y-100211380D02*
X144610404Y-100211380D01*
X144562785Y-100687571D01*
X144610404Y-100639952D01*
X144705642Y-100592333D01*
X144943738Y-100592333D01*
X145038976Y-100639952D01*
X145086595Y-100687571D01*
X145134214Y-100782809D01*
X145134214Y-101020904D01*
X145086595Y-101116142D01*
X145038976Y-101163761D01*
X144943738Y-101211380D01*
X144705642Y-101211380D01*
X144610404Y-101163761D01*
X144562785Y-101116142D01*
%TO.C,BATTERY*%
X124500000Y-75248571D02*
X124642857Y-75296190D01*
X124690476Y-75343809D01*
X124738095Y-75439047D01*
X124738095Y-75581904D01*
X124690476Y-75677142D01*
X124642857Y-75724761D01*
X124547619Y-75772380D01*
X124166666Y-75772380D01*
X124166666Y-74772380D01*
X124500000Y-74772380D01*
X124595238Y-74820000D01*
X124642857Y-74867619D01*
X124690476Y-74962857D01*
X124690476Y-75058095D01*
X124642857Y-75153333D01*
X124595238Y-75200952D01*
X124500000Y-75248571D01*
X124166666Y-75248571D01*
X125119047Y-75486666D02*
X125595238Y-75486666D01*
X125023809Y-75772380D02*
X125357142Y-74772380D01*
X125690476Y-75772380D01*
X125880952Y-74772380D02*
X126452380Y-74772380D01*
X126166666Y-75772380D02*
X126166666Y-74772380D01*
X126642857Y-74772380D02*
X127214285Y-74772380D01*
X126928571Y-75772380D02*
X126928571Y-74772380D01*
X127547619Y-75248571D02*
X127880952Y-75248571D01*
X128023809Y-75772380D02*
X127547619Y-75772380D01*
X127547619Y-74772380D01*
X128023809Y-74772380D01*
X129023809Y-75772380D02*
X128690476Y-75296190D01*
X128452380Y-75772380D02*
X128452380Y-74772380D01*
X128833333Y-74772380D01*
X128928571Y-74820000D01*
X128976190Y-74867619D01*
X129023809Y-74962857D01*
X129023809Y-75105714D01*
X128976190Y-75200952D01*
X128928571Y-75248571D01*
X128833333Y-75296190D01*
X128452380Y-75296190D01*
X129642857Y-75296190D02*
X129642857Y-75772380D01*
X129309523Y-74772380D02*
X129642857Y-75296190D01*
X129976190Y-74772380D01*
%TO.C,U1*%
X139573095Y-74280780D02*
X139573095Y-75090304D01*
X139620714Y-75185542D01*
X139668333Y-75233161D01*
X139763571Y-75280780D01*
X139954047Y-75280780D01*
X140049285Y-75233161D01*
X140096904Y-75185542D01*
X140144523Y-75090304D01*
X140144523Y-74280780D01*
X141144523Y-75280780D02*
X140573095Y-75280780D01*
X140858809Y-75280780D02*
X140858809Y-74280780D01*
X140763571Y-74423638D01*
X140668333Y-74518876D01*
X140573095Y-74566495D01*
%TO.C,BOOT*%
X129960857Y-105287771D02*
X130103714Y-105335390D01*
X130151333Y-105383009D01*
X130198952Y-105478247D01*
X130198952Y-105621104D01*
X130151333Y-105716342D01*
X130103714Y-105763961D01*
X130008476Y-105811580D01*
X129627523Y-105811580D01*
X129627523Y-104811580D01*
X129960857Y-104811580D01*
X130056095Y-104859200D01*
X130103714Y-104906819D01*
X130151333Y-105002057D01*
X130151333Y-105097295D01*
X130103714Y-105192533D01*
X130056095Y-105240152D01*
X129960857Y-105287771D01*
X129627523Y-105287771D01*
X130818000Y-104811580D02*
X131008476Y-104811580D01*
X131103714Y-104859200D01*
X131198952Y-104954438D01*
X131246571Y-105144914D01*
X131246571Y-105478247D01*
X131198952Y-105668723D01*
X131103714Y-105763961D01*
X131008476Y-105811580D01*
X130818000Y-105811580D01*
X130722761Y-105763961D01*
X130627523Y-105668723D01*
X130579904Y-105478247D01*
X130579904Y-105144914D01*
X130627523Y-104954438D01*
X130722761Y-104859200D01*
X130818000Y-104811580D01*
X131865619Y-104811580D02*
X132056095Y-104811580D01*
X132151333Y-104859200D01*
X132246571Y-104954438D01*
X132294190Y-105144914D01*
X132294190Y-105478247D01*
X132246571Y-105668723D01*
X132151333Y-105763961D01*
X132056095Y-105811580D01*
X131865619Y-105811580D01*
X131770380Y-105763961D01*
X131675142Y-105668723D01*
X131627523Y-105478247D01*
X131627523Y-105144914D01*
X131675142Y-104954438D01*
X131770380Y-104859200D01*
X131865619Y-104811580D01*
X132579904Y-104811580D02*
X133151333Y-104811580D01*
X132865619Y-105811580D02*
X132865619Y-104811580D01*
%TO.C,R7*%
X134351733Y-106217980D02*
X134018400Y-105741790D01*
X133780304Y-106217980D02*
X133780304Y-105217980D01*
X134161257Y-105217980D01*
X134256495Y-105265600D01*
X134304114Y-105313219D01*
X134351733Y-105408457D01*
X134351733Y-105551314D01*
X134304114Y-105646552D01*
X134256495Y-105694171D01*
X134161257Y-105741790D01*
X133780304Y-105741790D01*
X134685066Y-105217980D02*
X135351733Y-105217980D01*
X134923161Y-106217980D01*
%TO.C,R9*%
X166973333Y-113452380D02*
X166640000Y-112976190D01*
X166401904Y-113452380D02*
X166401904Y-112452380D01*
X166782857Y-112452380D01*
X166878095Y-112500000D01*
X166925714Y-112547619D01*
X166973333Y-112642857D01*
X166973333Y-112785714D01*
X166925714Y-112880952D01*
X166878095Y-112928571D01*
X166782857Y-112976190D01*
X166401904Y-112976190D01*
X167449523Y-113452380D02*
X167640000Y-113452380D01*
X167735238Y-113404761D01*
X167782857Y-113357142D01*
X167878095Y-113214285D01*
X167925714Y-113023809D01*
X167925714Y-112642857D01*
X167878095Y-112547619D01*
X167830476Y-112500000D01*
X167735238Y-112452380D01*
X167544761Y-112452380D01*
X167449523Y-112500000D01*
X167401904Y-112547619D01*
X167354285Y-112642857D01*
X167354285Y-112880952D01*
X167401904Y-112976190D01*
X167449523Y-113023809D01*
X167544761Y-113071428D01*
X167735238Y-113071428D01*
X167830476Y-113023809D01*
X167878095Y-112976190D01*
X167925714Y-112880952D01*
%TO.C,R8*%
X153362593Y-101127700D02*
X153029260Y-100651510D01*
X152791164Y-101127700D02*
X152791164Y-100127700D01*
X153172117Y-100127700D01*
X153267355Y-100175320D01*
X153314974Y-100222939D01*
X153362593Y-100318177D01*
X153362593Y-100461034D01*
X153314974Y-100556272D01*
X153267355Y-100603891D01*
X153172117Y-100651510D01*
X152791164Y-100651510D01*
X153934021Y-100556272D02*
X153838783Y-100508653D01*
X153791164Y-100461034D01*
X153743545Y-100365796D01*
X153743545Y-100318177D01*
X153791164Y-100222939D01*
X153838783Y-100175320D01*
X153934021Y-100127700D01*
X154124498Y-100127700D01*
X154219736Y-100175320D01*
X154267355Y-100222939D01*
X154314974Y-100318177D01*
X154314974Y-100365796D01*
X154267355Y-100461034D01*
X154219736Y-100508653D01*
X154124498Y-100556272D01*
X153934021Y-100556272D01*
X153838783Y-100603891D01*
X153791164Y-100651510D01*
X153743545Y-100746748D01*
X153743545Y-100937224D01*
X153791164Y-101032462D01*
X153838783Y-101080081D01*
X153934021Y-101127700D01*
X154124498Y-101127700D01*
X154219736Y-101080081D01*
X154267355Y-101032462D01*
X154314974Y-100937224D01*
X154314974Y-100746748D01*
X154267355Y-100651510D01*
X154219736Y-100603891D01*
X154124498Y-100556272D01*
%TO.C,R6*%
X159832933Y-59419380D02*
X159499600Y-58943190D01*
X159261504Y-59419380D02*
X159261504Y-58419380D01*
X159642457Y-58419380D01*
X159737695Y-58467000D01*
X159785314Y-58514619D01*
X159832933Y-58609857D01*
X159832933Y-58752714D01*
X159785314Y-58847952D01*
X159737695Y-58895571D01*
X159642457Y-58943190D01*
X159261504Y-58943190D01*
X160690076Y-58419380D02*
X160499600Y-58419380D01*
X160404361Y-58467000D01*
X160356742Y-58514619D01*
X160261504Y-58657476D01*
X160213885Y-58847952D01*
X160213885Y-59228904D01*
X160261504Y-59324142D01*
X160309123Y-59371761D01*
X160404361Y-59419380D01*
X160594838Y-59419380D01*
X160690076Y-59371761D01*
X160737695Y-59324142D01*
X160785314Y-59228904D01*
X160785314Y-58990809D01*
X160737695Y-58895571D01*
X160690076Y-58847952D01*
X160594838Y-58800333D01*
X160404361Y-58800333D01*
X160309123Y-58847952D01*
X160261504Y-58895571D01*
X160213885Y-58990809D01*
%TO.C,R5*%
X143597333Y-77058780D02*
X143264000Y-76582590D01*
X143025904Y-77058780D02*
X143025904Y-76058780D01*
X143406857Y-76058780D01*
X143502095Y-76106400D01*
X143549714Y-76154019D01*
X143597333Y-76249257D01*
X143597333Y-76392114D01*
X143549714Y-76487352D01*
X143502095Y-76534971D01*
X143406857Y-76582590D01*
X143025904Y-76582590D01*
X144502095Y-76058780D02*
X144025904Y-76058780D01*
X143978285Y-76534971D01*
X144025904Y-76487352D01*
X144121142Y-76439733D01*
X144359238Y-76439733D01*
X144454476Y-76487352D01*
X144502095Y-76534971D01*
X144549714Y-76630209D01*
X144549714Y-76868304D01*
X144502095Y-76963542D01*
X144454476Y-77011161D01*
X144359238Y-77058780D01*
X144121142Y-77058780D01*
X144025904Y-77011161D01*
X143978285Y-76963542D01*
%TO.C,R4*%
X161391933Y-69724180D02*
X161058600Y-69247990D01*
X160820504Y-69724180D02*
X160820504Y-68724180D01*
X161201457Y-68724180D01*
X161296695Y-68771800D01*
X161344314Y-68819419D01*
X161391933Y-68914657D01*
X161391933Y-69057514D01*
X161344314Y-69152752D01*
X161296695Y-69200371D01*
X161201457Y-69247990D01*
X160820504Y-69247990D01*
X162249076Y-69057514D02*
X162249076Y-69724180D01*
X162010980Y-68676561D02*
X161772885Y-69390847D01*
X162391933Y-69390847D01*
%TO.C,R2*%
X142950333Y-66437780D02*
X142617000Y-65961590D01*
X142378904Y-66437780D02*
X142378904Y-65437780D01*
X142759857Y-65437780D01*
X142855095Y-65485400D01*
X142902714Y-65533019D01*
X142950333Y-65628257D01*
X142950333Y-65771114D01*
X142902714Y-65866352D01*
X142855095Y-65913971D01*
X142759857Y-65961590D01*
X142378904Y-65961590D01*
X143331285Y-65533019D02*
X143378904Y-65485400D01*
X143474142Y-65437780D01*
X143712238Y-65437780D01*
X143807476Y-65485400D01*
X143855095Y-65533019D01*
X143902714Y-65628257D01*
X143902714Y-65723495D01*
X143855095Y-65866352D01*
X143283666Y-66437780D01*
X143902714Y-66437780D01*
%TO.C,R1*%
X152229533Y-80967380D02*
X151896200Y-80491190D01*
X151658104Y-80967380D02*
X151658104Y-79967380D01*
X152039057Y-79967380D01*
X152134295Y-80015000D01*
X152181914Y-80062619D01*
X152229533Y-80157857D01*
X152229533Y-80300714D01*
X152181914Y-80395952D01*
X152134295Y-80443571D01*
X152039057Y-80491190D01*
X151658104Y-80491190D01*
X153181914Y-80967380D02*
X152610485Y-80967380D01*
X152896200Y-80967380D02*
X152896200Y-79967380D01*
X152800961Y-80110238D01*
X152705723Y-80205476D01*
X152610485Y-80253095D01*
%TO.C,Q1*%
X139945761Y-67542019D02*
X139850523Y-67494400D01*
X139755285Y-67399161D01*
X139612428Y-67256304D01*
X139517190Y-67208685D01*
X139421952Y-67208685D01*
X139469571Y-67446780D02*
X139374333Y-67399161D01*
X139279095Y-67303923D01*
X139231476Y-67113447D01*
X139231476Y-66780114D01*
X139279095Y-66589638D01*
X139374333Y-66494400D01*
X139469571Y-66446780D01*
X139660047Y-66446780D01*
X139755285Y-66494400D01*
X139850523Y-66589638D01*
X139898142Y-66780114D01*
X139898142Y-67113447D01*
X139850523Y-67303923D01*
X139755285Y-67399161D01*
X139660047Y-67446780D01*
X139469571Y-67446780D01*
X140850523Y-67446780D02*
X140279095Y-67446780D01*
X140564809Y-67446780D02*
X140564809Y-66446780D01*
X140469571Y-66589638D01*
X140374333Y-66684876D01*
X140279095Y-66732495D01*
%TO.C,POWER*%
X155932476Y-53081180D02*
X155932476Y-52081180D01*
X156313428Y-52081180D01*
X156408666Y-52128800D01*
X156456285Y-52176419D01*
X156503904Y-52271657D01*
X156503904Y-52414514D01*
X156456285Y-52509752D01*
X156408666Y-52557371D01*
X156313428Y-52604990D01*
X155932476Y-52604990D01*
X157122952Y-52081180D02*
X157313428Y-52081180D01*
X157408666Y-52128800D01*
X157503904Y-52224038D01*
X157551523Y-52414514D01*
X157551523Y-52747847D01*
X157503904Y-52938323D01*
X157408666Y-53033561D01*
X157313428Y-53081180D01*
X157122952Y-53081180D01*
X157027714Y-53033561D01*
X156932476Y-52938323D01*
X156884857Y-52747847D01*
X156884857Y-52414514D01*
X156932476Y-52224038D01*
X157027714Y-52128800D01*
X157122952Y-52081180D01*
X157884857Y-52081180D02*
X158122952Y-53081180D01*
X158313428Y-52366895D01*
X158503904Y-53081180D01*
X158742000Y-52081180D01*
X159122952Y-52557371D02*
X159456285Y-52557371D01*
X159599142Y-53081180D02*
X159122952Y-53081180D01*
X159122952Y-52081180D01*
X159599142Y-52081180D01*
X160599142Y-53081180D02*
X160265809Y-52604990D01*
X160027714Y-53081180D02*
X160027714Y-52081180D01*
X160408666Y-52081180D01*
X160503904Y-52128800D01*
X160551523Y-52176419D01*
X160599142Y-52271657D01*
X160599142Y-52414514D01*
X160551523Y-52509752D01*
X160503904Y-52557371D01*
X160408666Y-52604990D01*
X160027714Y-52604990D01*
%TO.C,D1*%
X151573904Y-75138380D02*
X151573904Y-74138380D01*
X151812000Y-74138380D01*
X151954857Y-74186000D01*
X152050095Y-74281238D01*
X152097714Y-74376476D01*
X152145333Y-74566952D01*
X152145333Y-74709809D01*
X152097714Y-74900285D01*
X152050095Y-74995523D01*
X151954857Y-75090761D01*
X151812000Y-75138380D01*
X151573904Y-75138380D01*
X153097714Y-75138380D02*
X152526285Y-75138380D01*
X152812000Y-75138380D02*
X152812000Y-74138380D01*
X152716761Y-74281238D01*
X152621523Y-74376476D01*
X152526285Y-74424095D01*
%TO.C,C7*%
X163155333Y-106173542D02*
X163107714Y-106221161D01*
X162964857Y-106268780D01*
X162869619Y-106268780D01*
X162726761Y-106221161D01*
X162631523Y-106125923D01*
X162583904Y-106030685D01*
X162536285Y-105840209D01*
X162536285Y-105697352D01*
X162583904Y-105506876D01*
X162631523Y-105411638D01*
X162726761Y-105316400D01*
X162869619Y-105268780D01*
X162964857Y-105268780D01*
X163107714Y-105316400D01*
X163155333Y-105364019D01*
X163488666Y-105268780D02*
X164155333Y-105268780D01*
X163726761Y-106268780D01*
%TO.C,C6*%
X162190133Y-120549942D02*
X162142514Y-120597561D01*
X161999657Y-120645180D01*
X161904419Y-120645180D01*
X161761561Y-120597561D01*
X161666323Y-120502323D01*
X161618704Y-120407085D01*
X161571085Y-120216609D01*
X161571085Y-120073752D01*
X161618704Y-119883276D01*
X161666323Y-119788038D01*
X161761561Y-119692800D01*
X161904419Y-119645180D01*
X161999657Y-119645180D01*
X162142514Y-119692800D01*
X162190133Y-119740419D01*
X163047276Y-119645180D02*
X162856800Y-119645180D01*
X162761561Y-119692800D01*
X162713942Y-119740419D01*
X162618704Y-119883276D01*
X162571085Y-120073752D01*
X162571085Y-120454704D01*
X162618704Y-120549942D01*
X162666323Y-120597561D01*
X162761561Y-120645180D01*
X162952038Y-120645180D01*
X163047276Y-120597561D01*
X163094895Y-120549942D01*
X163142514Y-120454704D01*
X163142514Y-120216609D01*
X163094895Y-120121371D01*
X163047276Y-120073752D01*
X162952038Y-120026133D01*
X162761561Y-120026133D01*
X162666323Y-120073752D01*
X162618704Y-120121371D01*
X162571085Y-120216609D01*
%TO.C,C5*%
X164476133Y-120549942D02*
X164428514Y-120597561D01*
X164285657Y-120645180D01*
X164190419Y-120645180D01*
X164047561Y-120597561D01*
X163952323Y-120502323D01*
X163904704Y-120407085D01*
X163857085Y-120216609D01*
X163857085Y-120073752D01*
X163904704Y-119883276D01*
X163952323Y-119788038D01*
X164047561Y-119692800D01*
X164190419Y-119645180D01*
X164285657Y-119645180D01*
X164428514Y-119692800D01*
X164476133Y-119740419D01*
X165380895Y-119645180D02*
X164904704Y-119645180D01*
X164857085Y-120121371D01*
X164904704Y-120073752D01*
X164999942Y-120026133D01*
X165238038Y-120026133D01*
X165333276Y-120073752D01*
X165380895Y-120121371D01*
X165428514Y-120216609D01*
X165428514Y-120454704D01*
X165380895Y-120549942D01*
X165333276Y-120597561D01*
X165238038Y-120645180D01*
X164999942Y-120645180D01*
X164904704Y-120597561D01*
X164857085Y-120549942D01*
%TO.C,C4*%
X161391933Y-73362742D02*
X161344314Y-73410361D01*
X161201457Y-73457980D01*
X161106219Y-73457980D01*
X160963361Y-73410361D01*
X160868123Y-73315123D01*
X160820504Y-73219885D01*
X160772885Y-73029409D01*
X160772885Y-72886552D01*
X160820504Y-72696076D01*
X160868123Y-72600838D01*
X160963361Y-72505600D01*
X161106219Y-72457980D01*
X161201457Y-72457980D01*
X161344314Y-72505600D01*
X161391933Y-72553219D01*
X162249076Y-72791314D02*
X162249076Y-73457980D01*
X162010980Y-72410361D02*
X161772885Y-73124647D01*
X162391933Y-73124647D01*
%TO.C,C3*%
X150520733Y-67139742D02*
X150473114Y-67187361D01*
X150330257Y-67234980D01*
X150235019Y-67234980D01*
X150092161Y-67187361D01*
X149996923Y-67092123D01*
X149949304Y-66996885D01*
X149901685Y-66806409D01*
X149901685Y-66663552D01*
X149949304Y-66473076D01*
X149996923Y-66377838D01*
X150092161Y-66282600D01*
X150235019Y-66234980D01*
X150330257Y-66234980D01*
X150473114Y-66282600D01*
X150520733Y-66330219D01*
X150854066Y-66234980D02*
X151473114Y-66234980D01*
X151139780Y-66615933D01*
X151282638Y-66615933D01*
X151377876Y-66663552D01*
X151425495Y-66711171D01*
X151473114Y-66806409D01*
X151473114Y-67044504D01*
X151425495Y-67139742D01*
X151377876Y-67187361D01*
X151282638Y-67234980D01*
X150996923Y-67234980D01*
X150901685Y-67187361D01*
X150854066Y-67139742D01*
%TO.C,C2*%
X143597333Y-78944742D02*
X143549714Y-78992361D01*
X143406857Y-79039980D01*
X143311619Y-79039980D01*
X143168761Y-78992361D01*
X143073523Y-78897123D01*
X143025904Y-78801885D01*
X142978285Y-78611409D01*
X142978285Y-78468552D01*
X143025904Y-78278076D01*
X143073523Y-78182838D01*
X143168761Y-78087600D01*
X143311619Y-78039980D01*
X143406857Y-78039980D01*
X143549714Y-78087600D01*
X143597333Y-78135219D01*
X143978285Y-78135219D02*
X144025904Y-78087600D01*
X144121142Y-78039980D01*
X144359238Y-78039980D01*
X144454476Y-78087600D01*
X144502095Y-78135219D01*
X144549714Y-78230457D01*
X144549714Y-78325695D01*
X144502095Y-78468552D01*
X143930666Y-79039980D01*
X144549714Y-79039980D01*
%TO.C,C1*%
X133848333Y-75734342D02*
X133800714Y-75781961D01*
X133657857Y-75829580D01*
X133562619Y-75829580D01*
X133419761Y-75781961D01*
X133324523Y-75686723D01*
X133276904Y-75591485D01*
X133229285Y-75401009D01*
X133229285Y-75258152D01*
X133276904Y-75067676D01*
X133324523Y-74972438D01*
X133419761Y-74877200D01*
X133562619Y-74829580D01*
X133657857Y-74829580D01*
X133800714Y-74877200D01*
X133848333Y-74924819D01*
X134800714Y-75829580D02*
X134229285Y-75829580D01*
X134515000Y-75829580D02*
X134515000Y-74829580D01*
X134419761Y-74972438D01*
X134324523Y-75067676D01*
X134229285Y-75115295D01*
%TD*%
%LPC*%
D12*
%TO.C,DL*%
X126490000Y-117670000D03*
D13*
X126490000Y-120210000D03*
%TD*%
D12*
%TO.C,PW*%
X171450000Y-117665500D03*
D13*
X171450000Y-120205500D03*
%TD*%
D14*
%TO.C,U3*%
X139930000Y-123855000D03*
X139930000Y-122585000D03*
X139930000Y-121315000D03*
X139930000Y-120045000D03*
X139930000Y-118775000D03*
X139930000Y-117505000D03*
X139930000Y-116235000D03*
X139930000Y-114965000D03*
X139930000Y-113695000D03*
X139930000Y-112425000D03*
X139930000Y-111155000D03*
X139930000Y-109885000D03*
X139930000Y-108615000D03*
X139930000Y-107345000D03*
D15*
X143115000Y-105945000D03*
X144385000Y-105945000D03*
X145655000Y-105945000D03*
X146925000Y-105945000D03*
X148195000Y-105945000D03*
X149465000Y-105945000D03*
X150735000Y-105945000D03*
X152005000Y-105945000D03*
X153275000Y-105945000D03*
X154545000Y-105945000D03*
D14*
X157730000Y-107345000D03*
X157730000Y-108615000D03*
X157730000Y-109885000D03*
X157730000Y-111155000D03*
X157730000Y-112425000D03*
X157730000Y-113695000D03*
X157730000Y-114965000D03*
X157730000Y-116235000D03*
X157730000Y-117505000D03*
X157730000Y-118775000D03*
X157730000Y-120045000D03*
X157730000Y-121315000D03*
X157730000Y-122585000D03*
X157730000Y-123855000D03*
D16*
X149830000Y-116355000D03*
%TD*%
D17*
%TO.C,EN*%
X166350000Y-108920000D03*
D18*
X166350000Y-110820000D03*
X166350000Y-107020000D03*
%TD*%
D12*
%TO.C,LIS3DH*%
X168670000Y-91870000D03*
X166130000Y-91870000D03*
X163590000Y-91870000D03*
X161050000Y-91870000D03*
X158510000Y-91870000D03*
X155970000Y-91870000D03*
X153430000Y-91870000D03*
D13*
X150890000Y-91870000D03*
%TD*%
D12*
%TO.C,VIN*%
X137470000Y-61130000D03*
D13*
X140010000Y-61130000D03*
%TD*%
D12*
%TO.C,FW*%
X155300000Y-97650000D03*
X152760000Y-97650000D03*
X150220000Y-97650000D03*
X147680000Y-97650000D03*
X145140000Y-97650000D03*
D13*
X142600000Y-97650000D03*
%TD*%
%TO.C,D4*%
G36*
G01*
X155177800Y-76950001D02*
X155177800Y-76049999D01*
G75*
G02*
X155427799Y-75800000I249999J0D01*
G01*
X156077801Y-75800000D01*
G75*
G02*
X156327800Y-76049999I0J-249999D01*
G01*
X156327800Y-76950001D01*
G75*
G02*
X156077801Y-77200000I-249999J0D01*
G01*
X155427799Y-77200000D01*
G75*
G02*
X155177800Y-76950001I0J249999D01*
G01*
G37*
G36*
G01*
X157227800Y-76950001D02*
X157227800Y-76049999D01*
G75*
G02*
X157477799Y-75800000I249999J0D01*
G01*
X158127801Y-75800000D01*
G75*
G02*
X158377800Y-76049999I0J-249999D01*
G01*
X158377800Y-76950001D01*
G75*
G02*
X158127801Y-77200000I-249999J0D01*
G01*
X157477799Y-77200000D01*
G75*
G02*
X157227800Y-76950001I0J249999D01*
G01*
G37*
%TD*%
D19*
%TO.C,D2*%
X147550000Y-70450000D03*
X145050000Y-70450000D03*
%TD*%
D12*
%TO.C,BME680*%
X144208500Y-91821000D03*
X141668500Y-91821000D03*
X139128500Y-91821000D03*
X136588500Y-91821000D03*
X134048500Y-91821000D03*
X131508500Y-91821000D03*
D13*
X128968500Y-91821000D03*
%TD*%
D12*
%TO.C,MOISTURE*%
X151380000Y-61150000D03*
X148840000Y-61150000D03*
D13*
X146300000Y-61150000D03*
%TD*%
D20*
%TO.C,USB*%
X135175000Y-55080000D03*
X142325000Y-55080000D03*
D21*
X137450000Y-55300000D03*
X138100000Y-54300000D03*
X138750000Y-55300000D03*
X139400000Y-54300000D03*
D22*
X140050000Y-55300000D03*
%TD*%
D23*
%TO.C,U2*%
X153440000Y-70330000D03*
X153440000Y-68430000D03*
X156140000Y-68430000D03*
X156140000Y-69380000D03*
X156140000Y-70330000D03*
%TD*%
%TO.C,R3*%
G36*
G01*
X158350000Y-78179999D02*
X158350000Y-79080001D01*
G75*
G02*
X158100001Y-79330000I-249999J0D01*
G01*
X157449999Y-79330000D01*
G75*
G02*
X157200000Y-79080001I0J249999D01*
G01*
X157200000Y-78179999D01*
G75*
G02*
X157449999Y-77930000I249999J0D01*
G01*
X158100001Y-77930000D01*
G75*
G02*
X158350000Y-78179999I0J-249999D01*
G01*
G37*
G36*
G01*
X156300000Y-78179999D02*
X156300000Y-79080001D01*
G75*
G02*
X156050001Y-79330000I-249999J0D01*
G01*
X155399999Y-79330000D01*
G75*
G02*
X155150000Y-79080001I0J249999D01*
G01*
X155150000Y-78179999D01*
G75*
G02*
X155399999Y-77930000I249999J0D01*
G01*
X156050001Y-77930000D01*
G75*
G02*
X156300000Y-78179999I0J-249999D01*
G01*
G37*
%TD*%
D24*
%TO.C,JP1*%
G36*
X155554000Y-61087000D02*
G01*
X156054000Y-60337000D01*
X157054000Y-60337000D01*
X157054000Y-61837000D01*
X156054000Y-61837000D01*
X155554000Y-61087000D01*
G37*
G36*
X154604000Y-60337000D02*
G01*
X155754000Y-60337000D01*
X155254000Y-61087000D01*
X155754000Y-61837000D01*
X154604000Y-61837000D01*
X154604000Y-60337000D01*
G37*
%TD*%
%TO.C,D5*%
G36*
G01*
X143758500Y-102038999D02*
X143758500Y-102939001D01*
G75*
G02*
X143508501Y-103189000I-249999J0D01*
G01*
X142858499Y-103189000D01*
G75*
G02*
X142608500Y-102939001I0J249999D01*
G01*
X142608500Y-102038999D01*
G75*
G02*
X142858499Y-101789000I249999J0D01*
G01*
X143508501Y-101789000D01*
G75*
G02*
X143758500Y-102038999I0J-249999D01*
G01*
G37*
G36*
G01*
X145808500Y-102038999D02*
X145808500Y-102939001D01*
G75*
G02*
X145558501Y-103189000I-249999J0D01*
G01*
X144908499Y-103189000D01*
G75*
G02*
X144658500Y-102939001I0J249999D01*
G01*
X144658500Y-102038999D01*
G75*
G02*
X144908499Y-101789000I249999J0D01*
G01*
X145558501Y-101789000D01*
G75*
G02*
X145808500Y-102038999I0J-249999D01*
G01*
G37*
%TD*%
D25*
%TO.C,BATTERY*%
X125800000Y-72370000D03*
G36*
G01*
X128400000Y-71744999D02*
X128400000Y-72995001D01*
G75*
G02*
X128150001Y-73245000I-249999J0D01*
G01*
X127449999Y-73245000D01*
G75*
G02*
X127200000Y-72995001I0J249999D01*
G01*
X127200000Y-71744999D01*
G75*
G02*
X127449999Y-71495000I249999J0D01*
G01*
X128150001Y-71495000D01*
G75*
G02*
X128400000Y-71744999I0J-249999D01*
G01*
G37*
%TD*%
D23*
%TO.C,U1*%
X138751000Y-76502400D03*
X138751000Y-77452400D03*
X138751000Y-78402400D03*
X141451000Y-78402400D03*
X141451000Y-76502400D03*
%TD*%
D17*
%TO.C,BOOT*%
X131330000Y-108915000D03*
D18*
X131330000Y-107015000D03*
X131330000Y-110815000D03*
%TD*%
%TO.C,R7*%
G36*
G01*
X134069999Y-108775000D02*
X134970001Y-108775000D01*
G75*
G02*
X135220000Y-109024999I0J-249999D01*
G01*
X135220000Y-109675001D01*
G75*
G02*
X134970001Y-109925000I-249999J0D01*
G01*
X134069999Y-109925000D01*
G75*
G02*
X133820000Y-109675001I0J249999D01*
G01*
X133820000Y-109024999D01*
G75*
G02*
X134069999Y-108775000I249999J0D01*
G01*
G37*
G36*
G01*
X134069999Y-106725000D02*
X134970001Y-106725000D01*
G75*
G02*
X135220000Y-106974999I0J-249999D01*
G01*
X135220000Y-107625001D01*
G75*
G02*
X134970001Y-107875000I-249999J0D01*
G01*
X134069999Y-107875000D01*
G75*
G02*
X133820000Y-107625001I0J249999D01*
G01*
X133820000Y-106974999D01*
G75*
G02*
X134069999Y-106725000I249999J0D01*
G01*
G37*
%TD*%
%TO.C,R9*%
G36*
G01*
X163830000Y-112549999D02*
X163830000Y-113450001D01*
G75*
G02*
X163580001Y-113700000I-249999J0D01*
G01*
X162929999Y-113700000D01*
G75*
G02*
X162680000Y-113450001I0J249999D01*
G01*
X162680000Y-112549999D01*
G75*
G02*
X162929999Y-112300000I249999J0D01*
G01*
X163580001Y-112300000D01*
G75*
G02*
X163830000Y-112549999I0J-249999D01*
G01*
G37*
G36*
G01*
X165880000Y-112549999D02*
X165880000Y-113450001D01*
G75*
G02*
X165630001Y-113700000I-249999J0D01*
G01*
X164979999Y-113700000D01*
G75*
G02*
X164730000Y-113450001I0J249999D01*
G01*
X164730000Y-112549999D01*
G75*
G02*
X164979999Y-112300000I249999J0D01*
G01*
X165630001Y-112300000D01*
G75*
G02*
X165880000Y-112549999I0J-249999D01*
G01*
G37*
%TD*%
%TO.C,R8*%
G36*
G01*
X153929500Y-102939001D02*
X153929500Y-102038999D01*
G75*
G02*
X154179499Y-101789000I249999J0D01*
G01*
X154829501Y-101789000D01*
G75*
G02*
X155079500Y-102038999I0J-249999D01*
G01*
X155079500Y-102939001D01*
G75*
G02*
X154829501Y-103189000I-249999J0D01*
G01*
X154179499Y-103189000D01*
G75*
G02*
X153929500Y-102939001I0J249999D01*
G01*
G37*
G36*
G01*
X151879500Y-102939001D02*
X151879500Y-102038999D01*
G75*
G02*
X152129499Y-101789000I249999J0D01*
G01*
X152779501Y-101789000D01*
G75*
G02*
X153029500Y-102038999I0J-249999D01*
G01*
X153029500Y-102939001D01*
G75*
G02*
X152779501Y-103189000I-249999J0D01*
G01*
X152129499Y-103189000D01*
G75*
G02*
X151879500Y-102939001I0J249999D01*
G01*
G37*
%TD*%
%TO.C,R6*%
G36*
G01*
X159544600Y-60636999D02*
X159544600Y-61537001D01*
G75*
G02*
X159294601Y-61787000I-249999J0D01*
G01*
X158644599Y-61787000D01*
G75*
G02*
X158394600Y-61537001I0J249999D01*
G01*
X158394600Y-60636999D01*
G75*
G02*
X158644599Y-60387000I249999J0D01*
G01*
X159294601Y-60387000D01*
G75*
G02*
X159544600Y-60636999I0J-249999D01*
G01*
G37*
G36*
G01*
X161594600Y-60636999D02*
X161594600Y-61537001D01*
G75*
G02*
X161344601Y-61787000I-249999J0D01*
G01*
X160694599Y-61787000D01*
G75*
G02*
X160444600Y-61537001I0J249999D01*
G01*
X160444600Y-60636999D01*
G75*
G02*
X160694599Y-60387000I249999J0D01*
G01*
X161344601Y-60387000D01*
G75*
G02*
X161594600Y-60636999I0J-249999D01*
G01*
G37*
%TD*%
%TO.C,R5*%
G36*
G01*
X145031000Y-76962401D02*
X145031000Y-76062399D01*
G75*
G02*
X145280999Y-75812400I249999J0D01*
G01*
X145931001Y-75812400D01*
G75*
G02*
X146181000Y-76062399I0J-249999D01*
G01*
X146181000Y-76962401D01*
G75*
G02*
X145931001Y-77212400I-249999J0D01*
G01*
X145280999Y-77212400D01*
G75*
G02*
X145031000Y-76962401I0J249999D01*
G01*
G37*
G36*
G01*
X147081000Y-76962401D02*
X147081000Y-76062399D01*
G75*
G02*
X147330999Y-75812400I249999J0D01*
G01*
X147981001Y-75812400D01*
G75*
G02*
X148231000Y-76062399I0J-249999D01*
G01*
X148231000Y-76962401D01*
G75*
G02*
X147981001Y-77212400I-249999J0D01*
G01*
X147330999Y-77212400D01*
G75*
G02*
X147081000Y-76962401I0J249999D01*
G01*
G37*
%TD*%
%TO.C,R4*%
G36*
G01*
X159161999Y-69624400D02*
X160062001Y-69624400D01*
G75*
G02*
X160312000Y-69874399I0J-249999D01*
G01*
X160312000Y-70524401D01*
G75*
G02*
X160062001Y-70774400I-249999J0D01*
G01*
X159161999Y-70774400D01*
G75*
G02*
X158912000Y-70524401I0J249999D01*
G01*
X158912000Y-69874399D01*
G75*
G02*
X159161999Y-69624400I249999J0D01*
G01*
G37*
G36*
G01*
X159161999Y-67574400D02*
X160062001Y-67574400D01*
G75*
G02*
X160312000Y-67824399I0J-249999D01*
G01*
X160312000Y-68474401D01*
G75*
G02*
X160062001Y-68724400I-249999J0D01*
G01*
X159161999Y-68724400D01*
G75*
G02*
X158912000Y-68474401I0J249999D01*
G01*
X158912000Y-67824399D01*
G75*
G02*
X159161999Y-67574400I249999J0D01*
G01*
G37*
%TD*%
%TO.C,R2*%
G36*
G01*
X147777000Y-65615399D02*
X147777000Y-66515401D01*
G75*
G02*
X147527001Y-66765400I-249999J0D01*
G01*
X146876999Y-66765400D01*
G75*
G02*
X146627000Y-66515401I0J249999D01*
G01*
X146627000Y-65615399D01*
G75*
G02*
X146876999Y-65365400I249999J0D01*
G01*
X147527001Y-65365400D01*
G75*
G02*
X147777000Y-65615399I0J-249999D01*
G01*
G37*
G36*
G01*
X145727000Y-65615399D02*
X145727000Y-66515401D01*
G75*
G02*
X145477001Y-66765400I-249999J0D01*
G01*
X144826999Y-66765400D01*
G75*
G02*
X144577000Y-66515401I0J249999D01*
G01*
X144577000Y-65615399D01*
G75*
G02*
X144826999Y-65365400I249999J0D01*
G01*
X145477001Y-65365400D01*
G75*
G02*
X145727000Y-65615399I0J-249999D01*
G01*
G37*
%TD*%
%TO.C,R1*%
G36*
G01*
X150720000Y-79060001D02*
X150720000Y-78159999D01*
G75*
G02*
X150969999Y-77910000I249999J0D01*
G01*
X151620001Y-77910000D01*
G75*
G02*
X151870000Y-78159999I0J-249999D01*
G01*
X151870000Y-79060001D01*
G75*
G02*
X151620001Y-79310000I-249999J0D01*
G01*
X150969999Y-79310000D01*
G75*
G02*
X150720000Y-79060001I0J249999D01*
G01*
G37*
G36*
G01*
X152770000Y-79060001D02*
X152770000Y-78159999D01*
G75*
G02*
X153019999Y-77910000I249999J0D01*
G01*
X153670001Y-77910000D01*
G75*
G02*
X153920000Y-78159999I0J-249999D01*
G01*
X153920000Y-79060001D01*
G75*
G02*
X153670001Y-79310000I-249999J0D01*
G01*
X153019999Y-79310000D01*
G75*
G02*
X152770000Y-79060001I0J249999D01*
G01*
G37*
%TD*%
D26*
%TO.C,Q1*%
X141581000Y-70444400D03*
X141581000Y-68544400D03*
X138581000Y-69494400D03*
%TD*%
%TO.C,POWER*%
G36*
G01*
X157630000Y-54179999D02*
X157630000Y-55080001D01*
G75*
G02*
X157380001Y-55330000I-249999J0D01*
G01*
X156729999Y-55330000D01*
G75*
G02*
X156480000Y-55080001I0J249999D01*
G01*
X156480000Y-54179999D01*
G75*
G02*
X156729999Y-53930000I249999J0D01*
G01*
X157380001Y-53930000D01*
G75*
G02*
X157630000Y-54179999I0J-249999D01*
G01*
G37*
G36*
G01*
X159680000Y-54179999D02*
X159680000Y-55080001D01*
G75*
G02*
X159430001Y-55330000I-249999J0D01*
G01*
X158779999Y-55330000D01*
G75*
G02*
X158530000Y-55080001I0J249999D01*
G01*
X158530000Y-54179999D01*
G75*
G02*
X158779999Y-53930000I249999J0D01*
G01*
X159430001Y-53930000D01*
G75*
G02*
X159680000Y-54179999I0J-249999D01*
G01*
G37*
%TD*%
%TO.C,D1*%
G36*
G01*
X153920000Y-76049999D02*
X153920000Y-76950001D01*
G75*
G02*
X153670001Y-77200000I-249999J0D01*
G01*
X153019999Y-77200000D01*
G75*
G02*
X152770000Y-76950001I0J249999D01*
G01*
X152770000Y-76049999D01*
G75*
G02*
X153019999Y-75800000I249999J0D01*
G01*
X153670001Y-75800000D01*
G75*
G02*
X153920000Y-76049999I0J-249999D01*
G01*
G37*
G36*
G01*
X151870000Y-76049999D02*
X151870000Y-76950001D01*
G75*
G02*
X151620001Y-77200000I-249999J0D01*
G01*
X150969999Y-77200000D01*
G75*
G02*
X150720000Y-76950001I0J249999D01*
G01*
X150720000Y-76049999D01*
G75*
G02*
X150969999Y-75800000I249999J0D01*
G01*
X151620001Y-75800000D01*
G75*
G02*
X151870000Y-76049999I0J-249999D01*
G01*
G37*
%TD*%
%TO.C,C7*%
G36*
G01*
X163740001Y-107990000D02*
X162839999Y-107990000D01*
G75*
G02*
X162590000Y-107740001I0J249999D01*
G01*
X162590000Y-107089999D01*
G75*
G02*
X162839999Y-106840000I249999J0D01*
G01*
X163740001Y-106840000D01*
G75*
G02*
X163990000Y-107089999I0J-249999D01*
G01*
X163990000Y-107740001D01*
G75*
G02*
X163740001Y-107990000I-249999J0D01*
G01*
G37*
G36*
G01*
X163740001Y-110040000D02*
X162839999Y-110040000D01*
G75*
G02*
X162590000Y-109790001I0J249999D01*
G01*
X162590000Y-109139999D01*
G75*
G02*
X162839999Y-108890000I249999J0D01*
G01*
X163740001Y-108890000D01*
G75*
G02*
X163990000Y-109139999I0J-249999D01*
G01*
X163990000Y-109790001D01*
G75*
G02*
X163740001Y-110040000I-249999J0D01*
G01*
G37*
%TD*%
%TO.C,C6*%
G36*
G01*
X161909999Y-123235000D02*
X162810001Y-123235000D01*
G75*
G02*
X163060000Y-123484999I0J-249999D01*
G01*
X163060000Y-124135001D01*
G75*
G02*
X162810001Y-124385000I-249999J0D01*
G01*
X161909999Y-124385000D01*
G75*
G02*
X161660000Y-124135001I0J249999D01*
G01*
X161660000Y-123484999D01*
G75*
G02*
X161909999Y-123235000I249999J0D01*
G01*
G37*
G36*
G01*
X161909999Y-121185000D02*
X162810001Y-121185000D01*
G75*
G02*
X163060000Y-121434999I0J-249999D01*
G01*
X163060000Y-122085001D01*
G75*
G02*
X162810001Y-122335000I-249999J0D01*
G01*
X161909999Y-122335000D01*
G75*
G02*
X161660000Y-122085001I0J249999D01*
G01*
X161660000Y-121434999D01*
G75*
G02*
X161909999Y-121185000I249999J0D01*
G01*
G37*
%TD*%
%TO.C,C5*%
G36*
G01*
X164219999Y-123240000D02*
X165120001Y-123240000D01*
G75*
G02*
X165370000Y-123489999I0J-249999D01*
G01*
X165370000Y-124140001D01*
G75*
G02*
X165120001Y-124390000I-249999J0D01*
G01*
X164219999Y-124390000D01*
G75*
G02*
X163970000Y-124140001I0J249999D01*
G01*
X163970000Y-123489999D01*
G75*
G02*
X164219999Y-123240000I249999J0D01*
G01*
G37*
G36*
G01*
X164219999Y-121190000D02*
X165120001Y-121190000D01*
G75*
G02*
X165370000Y-121439999I0J-249999D01*
G01*
X165370000Y-122090001D01*
G75*
G02*
X165120001Y-122340000I-249999J0D01*
G01*
X164219999Y-122340000D01*
G75*
G02*
X163970000Y-122090001I0J249999D01*
G01*
X163970000Y-121439999D01*
G75*
G02*
X164219999Y-121190000I249999J0D01*
G01*
G37*
%TD*%
%TO.C,C4*%
G36*
G01*
X159161999Y-73334400D02*
X160062001Y-73334400D01*
G75*
G02*
X160312000Y-73584399I0J-249999D01*
G01*
X160312000Y-74234401D01*
G75*
G02*
X160062001Y-74484400I-249999J0D01*
G01*
X159161999Y-74484400D01*
G75*
G02*
X158912000Y-74234401I0J249999D01*
G01*
X158912000Y-73584399D01*
G75*
G02*
X159161999Y-73334400I249999J0D01*
G01*
G37*
G36*
G01*
X159161999Y-71284400D02*
X160062001Y-71284400D01*
G75*
G02*
X160312000Y-71534399I0J-249999D01*
G01*
X160312000Y-72184401D01*
G75*
G02*
X160062001Y-72434400I-249999J0D01*
G01*
X159161999Y-72434400D01*
G75*
G02*
X158912000Y-72184401I0J249999D01*
G01*
X158912000Y-71534399D01*
G75*
G02*
X159161999Y-71284400I249999J0D01*
G01*
G37*
%TD*%
%TO.C,C3*%
G36*
G01*
X151132001Y-68914400D02*
X150231999Y-68914400D01*
G75*
G02*
X149982000Y-68664401I0J249999D01*
G01*
X149982000Y-68014399D01*
G75*
G02*
X150231999Y-67764400I249999J0D01*
G01*
X151132001Y-67764400D01*
G75*
G02*
X151382000Y-68014399I0J-249999D01*
G01*
X151382000Y-68664401D01*
G75*
G02*
X151132001Y-68914400I-249999J0D01*
G01*
G37*
G36*
G01*
X151132001Y-70964400D02*
X150231999Y-70964400D01*
G75*
G02*
X149982000Y-70714401I0J249999D01*
G01*
X149982000Y-70064399D01*
G75*
G02*
X150231999Y-69814400I249999J0D01*
G01*
X151132001Y-69814400D01*
G75*
G02*
X151382000Y-70064399I0J-249999D01*
G01*
X151382000Y-70714401D01*
G75*
G02*
X151132001Y-70964400I-249999J0D01*
G01*
G37*
%TD*%
%TO.C,C2*%
G36*
G01*
X145031000Y-79062401D02*
X145031000Y-78162399D01*
G75*
G02*
X145280999Y-77912400I249999J0D01*
G01*
X145931001Y-77912400D01*
G75*
G02*
X146181000Y-78162399I0J-249999D01*
G01*
X146181000Y-79062401D01*
G75*
G02*
X145931001Y-79312400I-249999J0D01*
G01*
X145280999Y-79312400D01*
G75*
G02*
X145031000Y-79062401I0J249999D01*
G01*
G37*
G36*
G01*
X147081000Y-79062401D02*
X147081000Y-78162399D01*
G75*
G02*
X147330999Y-77912400I249999J0D01*
G01*
X147981001Y-77912400D01*
G75*
G02*
X148231000Y-78162399I0J-249999D01*
G01*
X148231000Y-79062401D01*
G75*
G02*
X147981001Y-79312400I-249999J0D01*
G01*
X147330999Y-79312400D01*
G75*
G02*
X147081000Y-79062401I0J249999D01*
G01*
G37*
%TD*%
%TO.C,C1*%
G36*
G01*
X134435001Y-72397200D02*
X133534999Y-72397200D01*
G75*
G02*
X133285000Y-72147201I0J249999D01*
G01*
X133285000Y-71497199D01*
G75*
G02*
X133534999Y-71247200I249999J0D01*
G01*
X134435001Y-71247200D01*
G75*
G02*
X134685000Y-71497199I0J-249999D01*
G01*
X134685000Y-72147201D01*
G75*
G02*
X134435001Y-72397200I-249999J0D01*
G01*
G37*
G36*
G01*
X134435001Y-74447200D02*
X133534999Y-74447200D01*
G75*
G02*
X133285000Y-74197201I0J249999D01*
G01*
X133285000Y-73547199D01*
G75*
G02*
X133534999Y-73297200I249999J0D01*
G01*
X134435001Y-73297200D01*
G75*
G02*
X134685000Y-73547199I0J-249999D01*
G01*
X134685000Y-74197201D01*
G75*
G02*
X134435001Y-74447200I-249999J0D01*
G01*
G37*
%TD*%
M02*
