%TF.GenerationSoftware,KiCad,Pcbnew,(5.1.10)-1*%
%TF.CreationDate,2021-06-27T19:43:52+02:00*%
%TF.ProjectId,clip,636c6970-2e6b-4696-9361-645f70636258,rev?*%
%TF.SameCoordinates,Original*%
%TF.FileFunction,OtherDrawing,Comment*%
%FSLAX46Y46*%
G04 Gerber Fmt 4.6, Leading zero omitted, Abs format (unit mm)*
G04 Created by KiCad (PCBNEW (5.1.10)-1) date 2021-06-27 19:43:52*
%MOMM*%
%LPD*%
G01*
G04 APERTURE LIST*
%ADD10C,0.150000*%
%ADD11C,0.120000*%
%ADD12C,0.100000*%
%ADD13C,0.080000*%
G04 APERTURE END LIST*
D10*
X188367319Y-87966748D02*
X188369029Y-88633412D01*
X187367933Y-88207408D01*
X187370132Y-89064548D02*
X187370621Y-89255024D01*
X187418484Y-89350139D01*
X187466225Y-89397636D01*
X187609326Y-89492507D01*
X187799924Y-89539638D01*
X188180875Y-89538660D01*
X188275991Y-89490797D01*
X188323487Y-89443056D01*
X188370862Y-89347696D01*
X188370373Y-89157220D01*
X188322510Y-89062105D01*
X188274769Y-89014608D01*
X188179409Y-88967233D01*
X187941315Y-88967844D01*
X187846199Y-89015708D01*
X187798702Y-89063449D01*
X187751328Y-89158809D01*
X187751816Y-89349284D01*
X187799680Y-89444400D01*
X187847421Y-89491897D01*
X187942781Y-89539271D01*
X187467691Y-89969063D02*
X187420195Y-90016804D01*
X187372454Y-89969307D01*
X187419950Y-89921566D01*
X187467691Y-89969063D01*
X187372454Y-89969307D01*
X187375019Y-90969304D02*
X187373553Y-90397877D01*
X187374286Y-90683591D02*
X188374283Y-90681025D01*
X188231182Y-90586154D01*
X188135700Y-90491160D01*
X188087837Y-90396045D01*
X187376241Y-91445493D02*
X187376730Y-91635968D01*
X187424593Y-91731084D01*
X187472334Y-91778581D01*
X187615435Y-91873452D01*
X187806033Y-91920582D01*
X188186984Y-91919605D01*
X188282100Y-91871741D01*
X188329597Y-91824000D01*
X188376971Y-91728640D01*
X188376482Y-91538165D01*
X188328619Y-91443049D01*
X188280878Y-91395553D01*
X188185518Y-91348178D01*
X187947424Y-91348789D01*
X187852308Y-91396652D01*
X187804811Y-91444393D01*
X187757437Y-91539753D01*
X187757926Y-91730229D01*
X187805789Y-91825344D01*
X187853530Y-91872841D01*
X187948890Y-91920216D01*
X188379781Y-92823875D02*
X188378559Y-92347686D01*
X187902248Y-92301289D01*
X187949989Y-92348786D01*
X187997853Y-92443901D01*
X187998464Y-92681996D01*
X187951089Y-92777356D01*
X187903592Y-92825097D01*
X187808477Y-92872960D01*
X187570382Y-92873571D01*
X187475022Y-92826196D01*
X187427281Y-92778700D01*
X187379418Y-92683584D01*
X187378807Y-92445490D01*
X187426182Y-92350130D01*
X187473678Y-92302389D01*
X187382961Y-94064532D02*
X188049626Y-94062821D01*
X187954388Y-94063066D02*
X188002129Y-94110562D01*
X188049992Y-94205678D01*
X188050359Y-94348535D01*
X188002984Y-94443895D01*
X187907869Y-94491758D01*
X187384061Y-94493102D01*
X187907869Y-94491758D02*
X188003229Y-94539132D01*
X188051092Y-94634248D01*
X188051459Y-94777105D01*
X188004084Y-94872465D01*
X187908968Y-94920328D01*
X187385161Y-94921672D01*
X187386382Y-95397861D02*
X188053047Y-95396150D01*
X187957809Y-95396395D02*
X188005550Y-95443891D01*
X188053413Y-95539007D01*
X188053780Y-95681864D01*
X188006405Y-95777224D01*
X187911290Y-95825087D01*
X187387482Y-95826431D01*
X187911290Y-95825087D02*
X188006650Y-95872461D01*
X188054513Y-95967577D01*
X188054880Y-96110434D01*
X188007505Y-96205794D01*
X187912389Y-96253657D01*
X187388582Y-96255001D01*
D11*
X186458858Y-52564545D02*
X186662058Y-131759205D01*
X183059569Y-52573267D02*
X187045277Y-52563040D01*
X183262769Y-131767927D02*
X187248477Y-131757700D01*
X186662058Y-131759205D02*
X186072749Y-130634210D01*
X186662058Y-131759205D02*
X187245586Y-130631200D01*
X186458858Y-52564545D02*
X185875330Y-53692550D01*
X186458858Y-52564545D02*
X187048167Y-53689540D01*
D10*
X183972506Y-98841075D02*
X183972340Y-98364885D01*
X183496133Y-98317432D01*
X183543769Y-98365034D01*
X183591421Y-98460256D01*
X183591504Y-98698351D01*
X183543918Y-98793606D01*
X183496315Y-98841241D01*
X183401094Y-98888893D01*
X183162999Y-98888976D01*
X183067744Y-98841390D01*
X183020108Y-98793788D01*
X182972456Y-98698566D01*
X182972373Y-98460471D01*
X183019959Y-98365217D01*
X183067562Y-98317581D01*
X183544150Y-99460272D02*
X183591736Y-99365018D01*
X183639338Y-99317382D01*
X183734560Y-99269730D01*
X183782179Y-99269713D01*
X183877434Y-99317299D01*
X183925069Y-99364902D01*
X183972721Y-99460123D01*
X183972788Y-99650599D01*
X183925202Y-99745854D01*
X183877599Y-99793490D01*
X183782378Y-99841142D01*
X183734759Y-99841158D01*
X183639504Y-99793572D01*
X183591868Y-99745970D01*
X183544216Y-99650748D01*
X183544150Y-99460272D01*
X183496498Y-99365051D01*
X183448862Y-99317448D01*
X183353607Y-99269862D01*
X183163131Y-99269929D01*
X183067910Y-99317581D01*
X183020307Y-99365216D01*
X182972721Y-99460471D01*
X182972788Y-99650947D01*
X183020440Y-99746169D01*
X183068076Y-99793771D01*
X183163330Y-99841357D01*
X183353806Y-99841291D01*
X183449028Y-99793639D01*
X183496630Y-99746003D01*
X183544216Y-99650748D01*
X183068241Y-100269962D02*
X183020639Y-100317597D01*
X182973003Y-100269995D01*
X183020606Y-100222359D01*
X183068241Y-100269962D01*
X182973003Y-100269995D01*
X183973136Y-100650599D02*
X183973351Y-101269647D01*
X183592283Y-100936446D01*
X183592333Y-101079303D01*
X183544747Y-101174558D01*
X183497144Y-101222193D01*
X183401923Y-101269846D01*
X183163827Y-101269929D01*
X183068573Y-101222343D01*
X183020937Y-101174740D01*
X182973285Y-101079519D01*
X182973185Y-100793804D01*
X183020771Y-100698550D01*
X183068374Y-100650914D01*
X183544979Y-101841224D02*
X183592565Y-101745970D01*
X183640167Y-101698334D01*
X183735389Y-101650682D01*
X183783008Y-101650665D01*
X183878262Y-101698251D01*
X183925898Y-101745854D01*
X183973550Y-101841075D01*
X183973616Y-102031551D01*
X183926030Y-102126806D01*
X183878428Y-102174442D01*
X183783206Y-102222094D01*
X183735587Y-102222111D01*
X183640333Y-102174525D01*
X183592697Y-102126922D01*
X183545045Y-102031701D01*
X183544979Y-101841224D01*
X183497326Y-101746003D01*
X183449691Y-101698400D01*
X183354436Y-101650815D01*
X183163960Y-101650881D01*
X183068738Y-101698533D01*
X183021136Y-101746169D01*
X182973550Y-101841423D01*
X182973616Y-102031900D01*
X183021269Y-102127121D01*
X183068904Y-102174724D01*
X183164159Y-102222309D01*
X183354635Y-102222243D01*
X183449857Y-102174591D01*
X183497459Y-102126955D01*
X183545045Y-102031701D01*
X183878577Y-102603013D02*
X183926213Y-102650616D01*
X183973865Y-102745837D01*
X183973948Y-102983932D01*
X183926362Y-103079187D01*
X183878759Y-103126823D01*
X183783538Y-103174475D01*
X183688300Y-103174508D01*
X183545426Y-103126939D01*
X182973799Y-102555709D01*
X182974014Y-103174757D01*
X182974429Y-104365233D02*
X183641095Y-104365001D01*
X183545857Y-104365034D02*
X183593493Y-104412636D01*
X183641145Y-104507858D01*
X183641195Y-104650715D01*
X183593609Y-104745970D01*
X183498387Y-104793622D01*
X182974578Y-104793804D01*
X183498387Y-104793622D02*
X183593642Y-104841208D01*
X183641294Y-104936429D01*
X183641344Y-105079286D01*
X183593758Y-105174541D01*
X183498536Y-105222193D01*
X182974727Y-105222376D01*
X182974893Y-105698566D02*
X183641559Y-105698334D01*
X183546321Y-105698367D02*
X183593957Y-105745970D01*
X183641609Y-105841191D01*
X183641659Y-105984048D01*
X183594073Y-106079303D01*
X183498851Y-106126955D01*
X182975042Y-106127137D01*
X183498851Y-106126955D02*
X183594106Y-106174541D01*
X183641758Y-106269762D01*
X183641808Y-106412620D01*
X183594222Y-106507874D01*
X183499000Y-106555526D01*
X182975191Y-106555709D01*
D11*
X182145987Y-73269806D02*
X182166307Y-131651706D01*
X170324780Y-73273920D02*
X182732408Y-73269601D01*
X170345100Y-131655820D02*
X182752728Y-131651501D01*
X182166307Y-131651706D02*
X181579494Y-130525406D01*
X182166307Y-131651706D02*
X182752336Y-130524998D01*
X182145987Y-73269806D02*
X181559958Y-74396514D01*
X182145987Y-73269806D02*
X182732800Y-74396106D01*
X137596880Y-81424780D02*
X160060640Y-81424780D01*
X137607040Y-78940660D02*
X160070800Y-78940660D01*
X160065720Y-52417980D02*
X160050480Y-83949540D01*
X137607040Y-83969860D02*
X160055560Y-83949540D01*
X137612120Y-83969860D02*
X137571480Y-52407820D01*
X137515600Y-52407820D02*
X160080960Y-52423060D01*
D10*
X145272865Y-63698293D02*
X145271996Y-64364959D01*
X145035267Y-63317031D02*
X144796241Y-64031005D01*
X145415288Y-64031812D01*
X145749366Y-63460819D02*
X145797047Y-63413262D01*
X145892347Y-63365767D01*
X146130442Y-63366077D01*
X146225618Y-63413821D01*
X146273175Y-63461502D01*
X146320670Y-63556802D01*
X146320546Y-63652040D01*
X146272740Y-63794835D01*
X145700567Y-64365518D01*
X146319614Y-64366325D01*
X146748310Y-64271645D02*
X146795867Y-64319327D01*
X146748185Y-64366884D01*
X146700629Y-64319202D01*
X146748310Y-64271645D01*
X146748185Y-64366884D01*
X147367977Y-63796262D02*
X147272802Y-63748519D01*
X147225245Y-63700838D01*
X147177750Y-63605538D01*
X147177812Y-63557919D01*
X147225555Y-63462743D01*
X147273236Y-63415186D01*
X147368536Y-63367691D01*
X147559012Y-63367940D01*
X147654188Y-63415683D01*
X147701745Y-63463364D01*
X147749240Y-63558664D01*
X147749178Y-63606283D01*
X147701435Y-63701459D01*
X147653754Y-63749016D01*
X147558453Y-63796511D01*
X147367977Y-63796262D01*
X147272677Y-63843757D01*
X147224996Y-63891314D01*
X147177253Y-63986490D01*
X147177005Y-64176966D01*
X147224500Y-64272266D01*
X147272057Y-64319947D01*
X147367233Y-64367691D01*
X147557709Y-64367939D01*
X147653009Y-64320444D01*
X147700690Y-64272887D01*
X147748433Y-64177711D01*
X147748681Y-63987235D01*
X147701186Y-63891935D01*
X147653629Y-63844254D01*
X147558453Y-63796511D01*
X148606630Y-63369305D02*
X148416154Y-63369057D01*
X148320854Y-63416552D01*
X148273173Y-63464109D01*
X148177749Y-63606842D01*
X148129882Y-63797256D01*
X148129385Y-64178208D01*
X148176880Y-64273508D01*
X148224437Y-64321189D01*
X148319613Y-64368932D01*
X148510089Y-64369180D01*
X148605389Y-64321686D01*
X148653070Y-64274129D01*
X148700813Y-64178953D01*
X148701123Y-63940858D01*
X148653629Y-63845558D01*
X148606072Y-63797876D01*
X148510896Y-63750133D01*
X148320420Y-63749885D01*
X148225120Y-63797380D01*
X148177439Y-63844937D01*
X148129695Y-63940113D01*
X149606629Y-63370609D02*
X149130439Y-63369988D01*
X149082200Y-63846116D01*
X149129881Y-63798559D01*
X149225181Y-63751064D01*
X149463276Y-63751375D01*
X149558452Y-63799118D01*
X149606009Y-63846799D01*
X149653504Y-63942099D01*
X149653193Y-64180194D01*
X149605450Y-64275370D01*
X149557769Y-64322927D01*
X149462469Y-64370422D01*
X149224374Y-64370112D01*
X149129198Y-64322368D01*
X149081641Y-64274687D01*
X150843420Y-64372222D02*
X150844289Y-63705556D01*
X150844165Y-63800794D02*
X150891846Y-63753237D01*
X150987146Y-63705742D01*
X151130003Y-63705929D01*
X151225179Y-63753672D01*
X151272674Y-63848972D01*
X151271991Y-64372781D01*
X151272674Y-63848972D02*
X151320417Y-63753796D01*
X151415717Y-63706301D01*
X151558574Y-63706487D01*
X151653750Y-63754230D01*
X151701245Y-63849530D01*
X151700562Y-64373340D01*
X152176752Y-64373960D02*
X152177621Y-63707294D01*
X152177497Y-63802532D02*
X152225178Y-63754975D01*
X152320478Y-63707480D01*
X152463335Y-63707667D01*
X152558511Y-63755410D01*
X152606006Y-63850710D01*
X152605323Y-64374519D01*
X152606006Y-63850710D02*
X152653749Y-63755534D01*
X152749049Y-63708039D01*
X152891906Y-63708225D01*
X152987082Y-63755969D01*
X153034577Y-63851269D01*
X153033894Y-64375078D01*
D11*
X127505074Y-65159418D02*
X170370114Y-65215298D01*
X127495300Y-72656700D02*
X127505838Y-64572998D01*
X170360340Y-72712580D02*
X170370878Y-64628878D01*
X170370114Y-65215298D02*
X169242847Y-65800250D01*
X170370114Y-65215298D02*
X169244376Y-64627409D01*
X127505074Y-65159418D02*
X128630812Y-65747307D01*
X127505074Y-65159418D02*
X128632341Y-64574466D01*
D10*
X175568859Y-94847862D02*
X175568859Y-94371671D01*
X175092668Y-94324052D01*
X175140287Y-94371671D01*
X175187906Y-94466910D01*
X175187906Y-94705005D01*
X175140287Y-94800243D01*
X175092668Y-94847862D01*
X174997430Y-94895481D01*
X174759335Y-94895481D01*
X174664097Y-94847862D01*
X174616478Y-94800243D01*
X174568859Y-94705005D01*
X174568859Y-94466910D01*
X174616478Y-94371671D01*
X174664097Y-94324052D01*
X175568859Y-95514529D02*
X175568859Y-95609767D01*
X175521240Y-95705005D01*
X175473620Y-95752624D01*
X175378382Y-95800243D01*
X175187906Y-95847862D01*
X174949811Y-95847862D01*
X174759335Y-95800243D01*
X174664097Y-95752624D01*
X174616478Y-95705005D01*
X174568859Y-95609767D01*
X174568859Y-95514529D01*
X174616478Y-95419290D01*
X174664097Y-95371671D01*
X174759335Y-95324052D01*
X174949811Y-95276433D01*
X175187906Y-95276433D01*
X175378382Y-95324052D01*
X175473620Y-95371671D01*
X175521240Y-95419290D01*
X175568859Y-95514529D01*
X174664097Y-96276433D02*
X174616478Y-96324052D01*
X174568859Y-96276433D01*
X174616478Y-96228814D01*
X174664097Y-96276433D01*
X174568859Y-96276433D01*
X175568859Y-96657386D02*
X175568859Y-97276433D01*
X175187906Y-96943100D01*
X175187906Y-97085957D01*
X175140287Y-97181195D01*
X175092668Y-97228814D01*
X174997430Y-97276433D01*
X174759335Y-97276433D01*
X174664097Y-97228814D01*
X174616478Y-97181195D01*
X174568859Y-97085957D01*
X174568859Y-96800243D01*
X174616478Y-96705005D01*
X174664097Y-96657386D01*
X174568859Y-97752624D02*
X174568859Y-97943100D01*
X174616478Y-98038338D01*
X174664097Y-98085957D01*
X174806954Y-98181195D01*
X174997430Y-98228814D01*
X175378382Y-98228814D01*
X175473620Y-98181195D01*
X175521240Y-98133576D01*
X175568859Y-98038338D01*
X175568859Y-97847862D01*
X175521240Y-97752624D01*
X175473620Y-97705005D01*
X175378382Y-97657386D01*
X175140287Y-97657386D01*
X175045049Y-97705005D01*
X174997430Y-97752624D01*
X174949811Y-97847862D01*
X174949811Y-98038338D01*
X174997430Y-98133576D01*
X175045049Y-98181195D01*
X175140287Y-98228814D01*
X174568859Y-99181195D02*
X174568859Y-98609767D01*
X174568859Y-98895481D02*
X175568859Y-98895481D01*
X175426001Y-98800243D01*
X175330763Y-98705005D01*
X175283144Y-98609767D01*
X174568859Y-100371671D02*
X175235525Y-100371671D01*
X175140287Y-100371671D02*
X175187906Y-100419290D01*
X175235525Y-100514529D01*
X175235525Y-100657386D01*
X175187906Y-100752624D01*
X175092668Y-100800243D01*
X174568859Y-100800243D01*
X175092668Y-100800243D02*
X175187906Y-100847862D01*
X175235525Y-100943100D01*
X175235525Y-101085957D01*
X175187906Y-101181195D01*
X175092668Y-101228814D01*
X174568859Y-101228814D01*
X174568859Y-101705005D02*
X175235525Y-101705005D01*
X175140287Y-101705005D02*
X175187906Y-101752624D01*
X175235525Y-101847862D01*
X175235525Y-101990719D01*
X175187906Y-102085957D01*
X175092668Y-102133576D01*
X174568859Y-102133576D01*
X175092668Y-102133576D02*
X175187906Y-102181195D01*
X175235525Y-102276433D01*
X175235525Y-102419290D01*
X175187906Y-102514529D01*
X175092668Y-102562148D01*
X174568859Y-102562148D01*
D11*
X173751240Y-73271380D02*
X173751240Y-123662440D01*
X170324780Y-73271380D02*
X174337661Y-73271380D01*
X170324780Y-123662440D02*
X174337661Y-123662440D01*
X173751240Y-123662440D02*
X173164819Y-122535936D01*
X173751240Y-123662440D02*
X174337661Y-122535936D01*
X173751240Y-73271380D02*
X173164819Y-74397884D01*
X173751240Y-73271380D02*
X174337661Y-74397884D01*
D10*
X180472924Y-95677734D02*
X180472831Y-95201544D01*
X179996631Y-95154017D01*
X180044260Y-95201627D01*
X180091897Y-95296856D01*
X180091944Y-95534951D01*
X180044343Y-95630199D01*
X179996734Y-95677827D01*
X179901505Y-95725465D01*
X179663410Y-95725511D01*
X179568162Y-95677911D01*
X179520534Y-95630301D01*
X179472896Y-95535072D01*
X179472850Y-95296977D01*
X179520450Y-95201729D01*
X179568060Y-95154101D01*
X180377770Y-96106324D02*
X180425398Y-96153934D01*
X180473036Y-96249163D01*
X180473082Y-96487258D01*
X180425482Y-96582505D01*
X180377872Y-96630134D01*
X180282643Y-96677771D01*
X180187405Y-96677790D01*
X180044539Y-96630199D01*
X179472998Y-96058882D01*
X179473119Y-96677929D01*
X179568441Y-97106482D02*
X179520831Y-97154110D01*
X179473203Y-97106501D01*
X179520813Y-97058872D01*
X179568441Y-97106482D01*
X179473203Y-97106501D01*
X180473333Y-97772972D02*
X180473352Y-97868210D01*
X180425751Y-97963458D01*
X180378141Y-98011086D01*
X180282913Y-98058724D01*
X180092446Y-98106380D01*
X179854351Y-98106426D01*
X179663865Y-98058844D01*
X179568618Y-98011244D01*
X179520989Y-97963634D01*
X179473352Y-97868405D01*
X179473333Y-97773167D01*
X179520934Y-97677920D01*
X179568543Y-97630292D01*
X179663772Y-97582654D01*
X179854239Y-97534998D01*
X180092334Y-97534951D01*
X180282820Y-97582533D01*
X180378067Y-97630134D01*
X180425695Y-97677743D01*
X180473333Y-97772972D01*
X180140232Y-98963513D02*
X179473565Y-98963643D01*
X180521138Y-98725344D02*
X179806806Y-98487388D01*
X179806927Y-99106436D01*
X180473761Y-99963448D02*
X180473668Y-99487258D01*
X179997468Y-99439732D01*
X180045096Y-99487341D01*
X180092734Y-99582570D01*
X180092780Y-99820665D01*
X180045180Y-99915913D01*
X179997570Y-99963541D01*
X179902341Y-100011179D01*
X179664246Y-100011225D01*
X179568999Y-99963625D01*
X179521370Y-99916015D01*
X179473733Y-99820786D01*
X179473686Y-99582691D01*
X179521287Y-99487444D01*
X179568897Y-99439815D01*
X179474002Y-101201739D02*
X180140669Y-101201609D01*
X180045431Y-101201627D02*
X180093059Y-101249237D01*
X180140697Y-101344466D01*
X180140725Y-101487323D01*
X180093124Y-101582570D01*
X179997896Y-101630208D01*
X179474086Y-101630310D01*
X179997896Y-101630208D02*
X180093143Y-101677808D01*
X180140781Y-101773037D01*
X180140808Y-101915894D01*
X180093208Y-102011142D01*
X179997979Y-102058779D01*
X179474170Y-102058882D01*
X179474263Y-102535072D02*
X180140929Y-102534942D01*
X180045691Y-102534960D02*
X180093320Y-102582570D01*
X180140957Y-102677799D01*
X180140985Y-102820656D01*
X180093385Y-102915904D01*
X179998156Y-102963541D01*
X179474346Y-102963643D01*
X179998156Y-102963541D02*
X180093403Y-103011142D01*
X180141041Y-103106370D01*
X180141069Y-103249228D01*
X180093468Y-103344475D01*
X179998240Y-103392113D01*
X179474430Y-103392215D01*
D11*
X178650932Y-73274837D02*
X178661092Y-125319437D01*
X170334940Y-73276460D02*
X179237353Y-73274722D01*
X170345100Y-125321060D02*
X179247513Y-125319322D01*
X178661092Y-125319437D02*
X178074451Y-124193048D01*
X178661092Y-125319437D02*
X179247293Y-124192819D01*
X178650932Y-73274837D02*
X178064731Y-74401455D01*
X178650932Y-73274837D02*
X179237573Y-74401226D01*
D10*
X147248100Y-95303960D02*
X147248100Y-96303960D01*
X147248100Y-94303960D02*
X147248100Y-95303960D01*
X147248100Y-93303960D02*
X147248100Y-94303960D01*
X147248100Y-96303960D02*
X147248100Y-97303960D01*
X148151400Y-84318360D02*
X148151400Y-104318360D01*
D11*
X148133400Y-101785360D02*
X168173400Y-101785360D01*
X129247100Y-101781960D02*
X147217100Y-101811960D01*
D10*
X168151400Y-84318360D02*
X148151400Y-84318360D01*
X168151400Y-104318360D02*
X168151400Y-84318360D01*
X148151400Y-104318360D02*
X168151400Y-104318360D01*
X129248100Y-104303960D02*
X129248100Y-87400760D01*
X147248100Y-104303960D02*
X129248100Y-104303960D01*
X147248100Y-103303960D02*
X147248100Y-104303960D01*
X147248100Y-102303960D02*
X147248100Y-103303960D01*
X147248100Y-101303960D02*
X147248100Y-102303960D01*
X147248100Y-100303960D02*
X147248100Y-101303960D01*
X147248100Y-99303960D02*
X147248100Y-100303960D01*
X147248100Y-98303960D02*
X147248100Y-99303960D01*
X147248100Y-97303960D02*
X147248100Y-98303960D01*
X147248100Y-92303960D02*
X147248100Y-93303960D01*
X147248100Y-91303960D02*
X147248100Y-92303960D01*
X147248100Y-90303960D02*
X147248100Y-91303960D01*
X147248100Y-89303960D02*
X147248100Y-90303960D01*
X147248100Y-88303960D02*
X147248100Y-89303960D01*
X147248100Y-87401960D02*
X147248100Y-88903960D01*
X129248100Y-87401960D02*
X147248100Y-87401960D01*
D12*
%TO.C,U3*%
X134830000Y-127185000D02*
X136830000Y-125570000D01*
X134830000Y-128800000D02*
X138830000Y-125570000D01*
X134830000Y-130415000D02*
X140830000Y-125570000D01*
X134830000Y-132030000D02*
X142830000Y-125570000D01*
X134830000Y-133645000D02*
X144830000Y-125570000D01*
X134830000Y-135260000D02*
X146830000Y-125570000D01*
X135355000Y-136350000D02*
X148830000Y-125570000D01*
X137355000Y-136350000D02*
X150830000Y-125570000D01*
X139355000Y-136350000D02*
X152830000Y-125570000D01*
X141355000Y-136350000D02*
X154830000Y-125570000D01*
X156830000Y-125570000D02*
X143355000Y-136350000D01*
X145355000Y-136350000D02*
X158830000Y-125570000D01*
X147355000Y-136350000D02*
X160830000Y-125570000D01*
X149355000Y-136350000D02*
X162830000Y-125570000D01*
X151355000Y-136350000D02*
X162830000Y-127185000D01*
X153355000Y-136350000D02*
X162830000Y-128800000D01*
X155355000Y-136350000D02*
X162830000Y-130415000D01*
X157355000Y-136350000D02*
X162830000Y-132030000D01*
X159355000Y-136350000D02*
X162830000Y-133645000D01*
X161355000Y-136350000D02*
X162830000Y-135260000D01*
X134830000Y-136350000D02*
X162830000Y-136350000D01*
X134830000Y-125570000D02*
X134830000Y-136350000D01*
X134830000Y-125570000D02*
X162830000Y-125570000D01*
X162830000Y-125570000D02*
X162830000Y-136350000D01*
%TD*%
%TO.C,USB1*%
D13*
X127103310Y-93911205D02*
X126603310Y-93911205D01*
X126603310Y-93720729D01*
X126627120Y-93673110D01*
X126650929Y-93649300D01*
X126698548Y-93625491D01*
X126769977Y-93625491D01*
X126817596Y-93649300D01*
X126841405Y-93673110D01*
X126865215Y-93720729D01*
X126865215Y-93911205D01*
X127055691Y-93125491D02*
X127079500Y-93149300D01*
X127103310Y-93220729D01*
X127103310Y-93268348D01*
X127079500Y-93339777D01*
X127031881Y-93387396D01*
X126984262Y-93411205D01*
X126889024Y-93435015D01*
X126817596Y-93435015D01*
X126722358Y-93411205D01*
X126674739Y-93387396D01*
X126627120Y-93339777D01*
X126603310Y-93268348D01*
X126603310Y-93220729D01*
X126627120Y-93149300D01*
X126650929Y-93125491D01*
X126841405Y-92744539D02*
X126865215Y-92673110D01*
X126889024Y-92649300D01*
X126936643Y-92625491D01*
X127008072Y-92625491D01*
X127055691Y-92649300D01*
X127079500Y-92673110D01*
X127103310Y-92720729D01*
X127103310Y-92911205D01*
X126603310Y-92911205D01*
X126603310Y-92744539D01*
X126627120Y-92696920D01*
X126650929Y-92673110D01*
X126698548Y-92649300D01*
X126746167Y-92649300D01*
X126793786Y-92673110D01*
X126817596Y-92696920D01*
X126841405Y-92744539D01*
X126841405Y-92911205D01*
X126841405Y-92030253D02*
X126841405Y-91863586D01*
X127103310Y-91792158D02*
X127103310Y-92030253D01*
X126603310Y-92030253D01*
X126603310Y-91792158D01*
X127103310Y-91363586D02*
X126603310Y-91363586D01*
X127079500Y-91363586D02*
X127103310Y-91411205D01*
X127103310Y-91506443D01*
X127079500Y-91554062D01*
X127055691Y-91577872D01*
X127008072Y-91601681D01*
X126865215Y-91601681D01*
X126817596Y-91577872D01*
X126793786Y-91554062D01*
X126769977Y-91506443D01*
X126769977Y-91411205D01*
X126793786Y-91363586D01*
X126769977Y-90911205D02*
X127174739Y-90911205D01*
X127222358Y-90935015D01*
X127246167Y-90958824D01*
X127269977Y-91006443D01*
X127269977Y-91077872D01*
X127246167Y-91125491D01*
X127079500Y-90911205D02*
X127103310Y-90958824D01*
X127103310Y-91054062D01*
X127079500Y-91101681D01*
X127055691Y-91125491D01*
X127008072Y-91149300D01*
X126865215Y-91149300D01*
X126817596Y-91125491D01*
X126793786Y-91101681D01*
X126769977Y-91054062D01*
X126769977Y-90958824D01*
X126793786Y-90911205D01*
X127079500Y-90482634D02*
X127103310Y-90530253D01*
X127103310Y-90625491D01*
X127079500Y-90673110D01*
X127031881Y-90696920D01*
X126841405Y-90696920D01*
X126793786Y-90673110D01*
X126769977Y-90625491D01*
X126769977Y-90530253D01*
X126793786Y-90482634D01*
X126841405Y-90458824D01*
X126889024Y-90458824D01*
X126936643Y-90696920D01*
%TD*%
M02*
