%TF.GenerationSoftware,KiCad,Pcbnew,(5.1.10)-1*%
%TF.CreationDate,2021-07-02T09:23:45+02:00*%
%TF.ProjectId,clip,636c6970-2e6b-4696-9361-645f70636258,rev?*%
%TF.SameCoordinates,Original*%
%TF.FileFunction,Legend,Bot*%
%TF.FilePolarity,Positive*%
%FSLAX46Y46*%
G04 Gerber Fmt 4.6, Leading zero omitted, Abs format (unit mm)*
G04 Created by KiCad (PCBNEW (5.1.10)-1) date 2021-07-02 09:23:45*
%MOMM*%
%LPD*%
G01*
G04 APERTURE LIST*
%ADD10C,0.150000*%
%ADD11C,0.120000*%
%ADD12C,3.800000*%
%ADD13O,1.700000X1.700000*%
%ADD14R,1.700000X1.700000*%
%ADD15O,0.800000X0.800000*%
%ADD16O,1.800000X1.150000*%
%ADD17O,2.000000X1.450000*%
%ADD18C,0.800000*%
%ADD19O,1.200000X1.750000*%
G04 APERTURE END LIST*
D10*
X127739047Y-87048571D02*
X128500952Y-87048571D01*
X128120000Y-86667619D02*
X128120000Y-87429523D01*
D11*
%TO.C,BATTERY1*%
X127240000Y-85290000D02*
X126960000Y-85290000D01*
X126960000Y-85290000D02*
X126960000Y-86890000D01*
X126960000Y-86890000D02*
X126040000Y-86890000D01*
X126040000Y-86890000D02*
X126040000Y-79070000D01*
X126040000Y-79070000D02*
X132160000Y-79070000D01*
X132160000Y-79070000D02*
X132160000Y-86890000D01*
X132160000Y-86890000D02*
X131240000Y-86890000D01*
X131240000Y-86890000D02*
X131240000Y-85290000D01*
X131240000Y-85290000D02*
X130960000Y-85290000D01*
X128600000Y-79070000D02*
X128600000Y-83430000D01*
X128600000Y-83430000D02*
X129600000Y-83430000D01*
X129600000Y-83430000D02*
X129600000Y-79070000D01*
X126040000Y-85290000D02*
X126960000Y-85290000D01*
X132160000Y-85290000D02*
X131240000Y-85290000D01*
X126800000Y-82930000D02*
X126800000Y-81330000D01*
X126800000Y-81330000D02*
X127800000Y-81330000D01*
X127800000Y-81330000D02*
X127800000Y-82930000D01*
X127800000Y-82930000D02*
X126800000Y-82930000D01*
X131400000Y-82930000D02*
X131400000Y-81330000D01*
X131400000Y-81330000D02*
X130400000Y-81330000D01*
X130400000Y-81330000D02*
X130400000Y-82930000D01*
X130400000Y-82930000D02*
X131400000Y-82930000D01*
X127800000Y-81330000D02*
X127800000Y-79070000D01*
X127300000Y-81330000D02*
X127300000Y-79070000D01*
X127240000Y-85290000D02*
X127240000Y-86505000D01*
%TD*%
%LPC*%
D12*
%TO.C,H4*%
X127688340Y-123154440D03*
%TD*%
%TO.C,H3*%
X169994580Y-123146820D03*
%TD*%
%TO.C,H2*%
X169981880Y-75420220D03*
%TD*%
%TO.C,H1*%
X127739140Y-75377040D03*
%TD*%
D13*
%TO.C,MOISTURE1*%
X151439880Y-78953360D03*
X148899880Y-78953360D03*
D14*
X146359880Y-78953360D03*
%TD*%
D15*
%TO.C,USB1*%
X129530000Y-95170000D03*
X129530000Y-90170000D03*
D16*
X126780000Y-96545000D03*
X126780000Y-88795000D03*
D17*
X130580000Y-96395000D03*
X130580000Y-88945000D03*
%TD*%
D18*
%TO.C,EN1*%
X162500000Y-109760000D03*
%TD*%
D14*
%TO.C,LIS1*%
X127030000Y-101720000D03*
D13*
X129570000Y-101720000D03*
X132110000Y-101720000D03*
X134650000Y-101720000D03*
X137190000Y-101720000D03*
X139730000Y-101720000D03*
X142270000Y-101720000D03*
X144810000Y-101720000D03*
%TD*%
%TO.C,VIN1*%
X132847080Y-77048360D03*
D14*
X135387080Y-77048360D03*
%TD*%
D13*
%TO.C,FLASH1*%
X134940000Y-122910000D03*
X134940000Y-120370000D03*
X134940000Y-117830000D03*
X134940000Y-115290000D03*
X134940000Y-112750000D03*
D14*
X134940000Y-110210000D03*
%TD*%
D13*
%TO.C,BME1*%
X166650000Y-101727000D03*
X164110000Y-101727000D03*
X161570000Y-101727000D03*
X159030000Y-101727000D03*
X156490000Y-101727000D03*
X153950000Y-101727000D03*
D14*
X151410000Y-101727000D03*
%TD*%
D19*
%TO.C,BATTERY1*%
X130100000Y-85430000D03*
G36*
G01*
X127500000Y-86055001D02*
X127500000Y-84804999D01*
G75*
G02*
X127749999Y-84555000I249999J0D01*
G01*
X128450001Y-84555000D01*
G75*
G02*
X128700000Y-84804999I0J-249999D01*
G01*
X128700000Y-86055001D01*
G75*
G02*
X128450001Y-86305000I-249999J0D01*
G01*
X127749999Y-86305000D01*
G75*
G02*
X127500000Y-86055001I0J249999D01*
G01*
G37*
%TD*%
M02*
