%TF.GenerationSoftware,KiCad,Pcbnew,(5.1.9)-1*%
%TF.CreationDate,2021-04-07T14:29:20+02:00*%
%TF.ProjectId,clip,636c6970-2e6b-4696-9361-645f70636258,rev?*%
%TF.SameCoordinates,Original*%
%TF.FileFunction,Paste,Top*%
%TF.FilePolarity,Positive*%
%FSLAX46Y46*%
G04 Gerber Fmt 4.6, Leading zero omitted, Abs format (unit mm)*
G04 Created by KiCad (PCBNEW (5.1.9)-1) date 2021-04-07 14:29:20*
%MOMM*%
%LPD*%
G01*
G04 APERTURE LIST*
%ADD10R,1.300000X0.450000*%
%ADD11R,2.000000X0.900000*%
%ADD12R,0.900000X2.000000*%
%ADD13R,5.000000X5.000000*%
%ADD14R,1.200000X0.400000*%
%ADD15R,1.560000X0.650000*%
%ADD16R,1.700000X0.900000*%
%ADD17R,0.800000X0.900000*%
%ADD18R,1.900000X0.800000*%
%ADD19R,1.000000X1.000000*%
G04 APERTURE END LIST*
%TO.C,D5*%
G36*
G01*
X143830000Y-103299999D02*
X143830000Y-104200001D01*
G75*
G02*
X143580001Y-104450000I-249999J0D01*
G01*
X142929999Y-104450000D01*
G75*
G02*
X142680000Y-104200001I0J249999D01*
G01*
X142680000Y-103299999D01*
G75*
G02*
X142929999Y-103050000I249999J0D01*
G01*
X143580001Y-103050000D01*
G75*
G02*
X143830000Y-103299999I0J-249999D01*
G01*
G37*
G36*
G01*
X145880000Y-103299999D02*
X145880000Y-104200001D01*
G75*
G02*
X145630001Y-104450000I-249999J0D01*
G01*
X144979999Y-104450000D01*
G75*
G02*
X144730000Y-104200001I0J249999D01*
G01*
X144730000Y-103299999D01*
G75*
G02*
X144979999Y-103050000I249999J0D01*
G01*
X145630001Y-103050000D01*
G75*
G02*
X145880000Y-103299999I0J-249999D01*
G01*
G37*
%TD*%
D10*
%TO.C,J2*%
X130170000Y-86330000D03*
X130170000Y-85680000D03*
X130170000Y-85030000D03*
X130170000Y-84380000D03*
X130170000Y-83730000D03*
%TD*%
D11*
%TO.C,U4*%
X140330000Y-123855000D03*
X140330000Y-122585000D03*
X140330000Y-121315000D03*
X140330000Y-120045000D03*
X140330000Y-118775000D03*
X140330000Y-117505000D03*
X140330000Y-116235000D03*
X140330000Y-114965000D03*
X140330000Y-113695000D03*
X140330000Y-112425000D03*
X140330000Y-111155000D03*
X140330000Y-109885000D03*
X140330000Y-108615000D03*
X140330000Y-107345000D03*
D12*
X143115000Y-106345000D03*
X144385000Y-106345000D03*
X145655000Y-106345000D03*
X146925000Y-106345000D03*
X148195000Y-106345000D03*
X149465000Y-106345000D03*
X150735000Y-106345000D03*
X152005000Y-106345000D03*
X153275000Y-106345000D03*
X154545000Y-106345000D03*
D11*
X157330000Y-107345000D03*
X157330000Y-108615000D03*
X157330000Y-109885000D03*
X157330000Y-111155000D03*
X157330000Y-112425000D03*
X157330000Y-113695000D03*
X157330000Y-114965000D03*
X157330000Y-116235000D03*
X157330000Y-117505000D03*
X157330000Y-118775000D03*
X157330000Y-120045000D03*
X157330000Y-121315000D03*
X157330000Y-122585000D03*
X157330000Y-123855000D03*
D13*
X149830000Y-116355000D03*
%TD*%
%TO.C,R13*%
G36*
G01*
X159170001Y-84230000D02*
X158269999Y-84230000D01*
G75*
G02*
X158020000Y-83980001I0J249999D01*
G01*
X158020000Y-83329999D01*
G75*
G02*
X158269999Y-83080000I249999J0D01*
G01*
X159170001Y-83080000D01*
G75*
G02*
X159420000Y-83329999I0J-249999D01*
G01*
X159420000Y-83980001D01*
G75*
G02*
X159170001Y-84230000I-249999J0D01*
G01*
G37*
G36*
G01*
X159170001Y-86280000D02*
X158269999Y-86280000D01*
G75*
G02*
X158020000Y-86030001I0J249999D01*
G01*
X158020000Y-85379999D01*
G75*
G02*
X158269999Y-85130000I249999J0D01*
G01*
X159170001Y-85130000D01*
G75*
G02*
X159420000Y-85379999I0J-249999D01*
G01*
X159420000Y-86030001D01*
G75*
G02*
X159170001Y-86280000I-249999J0D01*
G01*
G37*
%TD*%
%TO.C,C6*%
G36*
G01*
X134159999Y-87720000D02*
X135060001Y-87720000D01*
G75*
G02*
X135310000Y-87969999I0J-249999D01*
G01*
X135310000Y-88620001D01*
G75*
G02*
X135060001Y-88870000I-249999J0D01*
G01*
X134159999Y-88870000D01*
G75*
G02*
X133910000Y-88620001I0J249999D01*
G01*
X133910000Y-87969999D01*
G75*
G02*
X134159999Y-87720000I249999J0D01*
G01*
G37*
G36*
G01*
X134159999Y-85670000D02*
X135060001Y-85670000D01*
G75*
G02*
X135310000Y-85919999I0J-249999D01*
G01*
X135310000Y-86570001D01*
G75*
G02*
X135060001Y-86820000I-249999J0D01*
G01*
X134159999Y-86820000D01*
G75*
G02*
X133910000Y-86570001I0J249999D01*
G01*
X133910000Y-85919999D01*
G75*
G02*
X134159999Y-85670000I249999J0D01*
G01*
G37*
%TD*%
D14*
%TO.C,U3*%
X145900000Y-88611500D03*
X145900000Y-87976500D03*
X145900000Y-87341500D03*
X145900000Y-86706500D03*
X145900000Y-86071500D03*
X145900000Y-85436500D03*
X145900000Y-84801500D03*
X145900000Y-84166500D03*
X145900000Y-83531500D03*
X145900000Y-82896500D03*
X151100000Y-82896500D03*
X151100000Y-83531500D03*
X151100000Y-84166500D03*
X151100000Y-84801500D03*
X151100000Y-85436500D03*
X151100000Y-86071500D03*
X151100000Y-86706500D03*
X151100000Y-87341500D03*
X151100000Y-87976500D03*
X151100000Y-88611500D03*
%TD*%
D15*
%TO.C,U2*%
X156138000Y-74217000D03*
X156138000Y-73267000D03*
X156138000Y-72317000D03*
X153438000Y-72317000D03*
X153438000Y-74217000D03*
%TD*%
%TO.C,U1*%
X141070000Y-64920000D03*
X141070000Y-66820000D03*
X138370000Y-66820000D03*
X138370000Y-65870000D03*
X138370000Y-64920000D03*
%TD*%
D16*
%TO.C,SW2*%
X166350000Y-110620000D03*
X166350000Y-107220000D03*
%TD*%
%TO.C,SW1*%
X131330000Y-107215000D03*
X131330000Y-110615000D03*
%TD*%
%TO.C,R12*%
G36*
G01*
X162670001Y-84230000D02*
X161769999Y-84230000D01*
G75*
G02*
X161520000Y-83980001I0J249999D01*
G01*
X161520000Y-83329999D01*
G75*
G02*
X161769999Y-83080000I249999J0D01*
G01*
X162670001Y-83080000D01*
G75*
G02*
X162920000Y-83329999I0J-249999D01*
G01*
X162920000Y-83980001D01*
G75*
G02*
X162670001Y-84230000I-249999J0D01*
G01*
G37*
G36*
G01*
X162670001Y-86280000D02*
X161769999Y-86280000D01*
G75*
G02*
X161520000Y-86030001I0J249999D01*
G01*
X161520000Y-85379999D01*
G75*
G02*
X161769999Y-85130000I249999J0D01*
G01*
X162670001Y-85130000D01*
G75*
G02*
X162920000Y-85379999I0J-249999D01*
G01*
X162920000Y-86030001D01*
G75*
G02*
X162670001Y-86280000I-249999J0D01*
G01*
G37*
%TD*%
%TO.C,R11*%
G36*
G01*
X134069999Y-108775000D02*
X134970001Y-108775000D01*
G75*
G02*
X135220000Y-109024999I0J-249999D01*
G01*
X135220000Y-109675001D01*
G75*
G02*
X134970001Y-109925000I-249999J0D01*
G01*
X134069999Y-109925000D01*
G75*
G02*
X133820000Y-109675001I0J249999D01*
G01*
X133820000Y-109024999D01*
G75*
G02*
X134069999Y-108775000I249999J0D01*
G01*
G37*
G36*
G01*
X134069999Y-106725000D02*
X134970001Y-106725000D01*
G75*
G02*
X135220000Y-106974999I0J-249999D01*
G01*
X135220000Y-107625001D01*
G75*
G02*
X134970001Y-107875000I-249999J0D01*
G01*
X134069999Y-107875000D01*
G75*
G02*
X133820000Y-107625001I0J249999D01*
G01*
X133820000Y-106974999D01*
G75*
G02*
X134069999Y-106725000I249999J0D01*
G01*
G37*
%TD*%
%TO.C,R10*%
G36*
G01*
X163880000Y-111909999D02*
X163880000Y-112810001D01*
G75*
G02*
X163630001Y-113060000I-249999J0D01*
G01*
X162979999Y-113060000D01*
G75*
G02*
X162730000Y-112810001I0J249999D01*
G01*
X162730000Y-111909999D01*
G75*
G02*
X162979999Y-111660000I249999J0D01*
G01*
X163630001Y-111660000D01*
G75*
G02*
X163880000Y-111909999I0J-249999D01*
G01*
G37*
G36*
G01*
X165930000Y-111909999D02*
X165930000Y-112810001D01*
G75*
G02*
X165680001Y-113060000I-249999J0D01*
G01*
X165029999Y-113060000D01*
G75*
G02*
X164780000Y-112810001I0J249999D01*
G01*
X164780000Y-111909999D01*
G75*
G02*
X165029999Y-111660000I249999J0D01*
G01*
X165680001Y-111660000D01*
G75*
G02*
X165930000Y-111909999I0J-249999D01*
G01*
G37*
%TD*%
%TO.C,R9*%
G36*
G01*
X153975000Y-104190001D02*
X153975000Y-103289999D01*
G75*
G02*
X154224999Y-103040000I249999J0D01*
G01*
X154875001Y-103040000D01*
G75*
G02*
X155125000Y-103289999I0J-249999D01*
G01*
X155125000Y-104190001D01*
G75*
G02*
X154875001Y-104440000I-249999J0D01*
G01*
X154224999Y-104440000D01*
G75*
G02*
X153975000Y-104190001I0J249999D01*
G01*
G37*
G36*
G01*
X151925000Y-104190001D02*
X151925000Y-103289999D01*
G75*
G02*
X152174999Y-103040000I249999J0D01*
G01*
X152825001Y-103040000D01*
G75*
G02*
X153075000Y-103289999I0J-249999D01*
G01*
X153075000Y-104190001D01*
G75*
G02*
X152825001Y-104440000I-249999J0D01*
G01*
X152174999Y-104440000D01*
G75*
G02*
X151925000Y-104190001I0J249999D01*
G01*
G37*
%TD*%
%TO.C,R8*%
G36*
G01*
X159515000Y-61039999D02*
X159515000Y-61940001D01*
G75*
G02*
X159265001Y-62190000I-249999J0D01*
G01*
X158614999Y-62190000D01*
G75*
G02*
X158365000Y-61940001I0J249999D01*
G01*
X158365000Y-61039999D01*
G75*
G02*
X158614999Y-60790000I249999J0D01*
G01*
X159265001Y-60790000D01*
G75*
G02*
X159515000Y-61039999I0J-249999D01*
G01*
G37*
G36*
G01*
X161565000Y-61039999D02*
X161565000Y-61940001D01*
G75*
G02*
X161315001Y-62190000I-249999J0D01*
G01*
X160664999Y-62190000D01*
G75*
G02*
X160415000Y-61940001I0J249999D01*
G01*
X160415000Y-61039999D01*
G75*
G02*
X160664999Y-60790000I249999J0D01*
G01*
X161315001Y-60790000D01*
G75*
G02*
X161565000Y-61039999I0J-249999D01*
G01*
G37*
%TD*%
%TO.C,R7*%
G36*
G01*
X136489999Y-87650000D02*
X137390001Y-87650000D01*
G75*
G02*
X137640000Y-87899999I0J-249999D01*
G01*
X137640000Y-88550001D01*
G75*
G02*
X137390001Y-88800000I-249999J0D01*
G01*
X136489999Y-88800000D01*
G75*
G02*
X136240000Y-88550001I0J249999D01*
G01*
X136240000Y-87899999D01*
G75*
G02*
X136489999Y-87650000I249999J0D01*
G01*
G37*
G36*
G01*
X136489999Y-85600000D02*
X137390001Y-85600000D01*
G75*
G02*
X137640000Y-85849999I0J-249999D01*
G01*
X137640000Y-86500001D01*
G75*
G02*
X137390001Y-86750000I-249999J0D01*
G01*
X136489999Y-86750000D01*
G75*
G02*
X136240000Y-86500001I0J249999D01*
G01*
X136240000Y-85849999D01*
G75*
G02*
X136489999Y-85600000I249999J0D01*
G01*
G37*
%TD*%
%TO.C,R6*%
G36*
G01*
X146700000Y-65380001D02*
X146700000Y-64479999D01*
G75*
G02*
X146949999Y-64230000I249999J0D01*
G01*
X147600001Y-64230000D01*
G75*
G02*
X147850000Y-64479999I0J-249999D01*
G01*
X147850000Y-65380001D01*
G75*
G02*
X147600001Y-65630000I-249999J0D01*
G01*
X146949999Y-65630000D01*
G75*
G02*
X146700000Y-65380001I0J249999D01*
G01*
G37*
G36*
G01*
X144650000Y-65380001D02*
X144650000Y-64479999D01*
G75*
G02*
X144899999Y-64230000I249999J0D01*
G01*
X145550001Y-64230000D01*
G75*
G02*
X145800000Y-64479999I0J-249999D01*
G01*
X145800000Y-65380001D01*
G75*
G02*
X145550001Y-65630000I-249999J0D01*
G01*
X144899999Y-65630000D01*
G75*
G02*
X144650000Y-65380001I0J249999D01*
G01*
G37*
%TD*%
%TO.C,R5*%
G36*
G01*
X159169999Y-71540000D02*
X160070001Y-71540000D01*
G75*
G02*
X160320000Y-71789999I0J-249999D01*
G01*
X160320000Y-72440001D01*
G75*
G02*
X160070001Y-72690000I-249999J0D01*
G01*
X159169999Y-72690000D01*
G75*
G02*
X158920000Y-72440001I0J249999D01*
G01*
X158920000Y-71789999D01*
G75*
G02*
X159169999Y-71540000I249999J0D01*
G01*
G37*
G36*
G01*
X159169999Y-73590000D02*
X160070001Y-73590000D01*
G75*
G02*
X160320000Y-73839999I0J-249999D01*
G01*
X160320000Y-74490001D01*
G75*
G02*
X160070001Y-74740000I-249999J0D01*
G01*
X159169999Y-74740000D01*
G75*
G02*
X158920000Y-74490001I0J249999D01*
G01*
X158920000Y-73839999D01*
G75*
G02*
X159169999Y-73590000I249999J0D01*
G01*
G37*
%TD*%
%TO.C,R4*%
G36*
G01*
X137410001Y-82690000D02*
X136509999Y-82690000D01*
G75*
G02*
X136260000Y-82440001I0J249999D01*
G01*
X136260000Y-81789999D01*
G75*
G02*
X136509999Y-81540000I249999J0D01*
G01*
X137410001Y-81540000D01*
G75*
G02*
X137660000Y-81789999I0J-249999D01*
G01*
X137660000Y-82440001D01*
G75*
G02*
X137410001Y-82690000I-249999J0D01*
G01*
G37*
G36*
G01*
X137410001Y-84740000D02*
X136509999Y-84740000D01*
G75*
G02*
X136260000Y-84490001I0J249999D01*
G01*
X136260000Y-83839999D01*
G75*
G02*
X136509999Y-83590000I249999J0D01*
G01*
X137410001Y-83590000D01*
G75*
G02*
X137660000Y-83839999I0J-249999D01*
G01*
X137660000Y-84490001D01*
G75*
G02*
X137410001Y-84740000I-249999J0D01*
G01*
G37*
%TD*%
%TO.C,R2*%
G36*
G01*
X140790000Y-77230001D02*
X140790000Y-76329999D01*
G75*
G02*
X141039999Y-76080000I249999J0D01*
G01*
X141690001Y-76080000D01*
G75*
G02*
X141940000Y-76329999I0J-249999D01*
G01*
X141940000Y-77230001D01*
G75*
G02*
X141690001Y-77480000I-249999J0D01*
G01*
X141039999Y-77480000D01*
G75*
G02*
X140790000Y-77230001I0J249999D01*
G01*
G37*
G36*
G01*
X138740000Y-77230001D02*
X138740000Y-76329999D01*
G75*
G02*
X138989999Y-76080000I249999J0D01*
G01*
X139640001Y-76080000D01*
G75*
G02*
X139890000Y-76329999I0J-249999D01*
G01*
X139890000Y-77230001D01*
G75*
G02*
X139640001Y-77480000I-249999J0D01*
G01*
X138989999Y-77480000D01*
G75*
G02*
X138740000Y-77230001I0J249999D01*
G01*
G37*
%TD*%
%TO.C,R1*%
G36*
G01*
X151120000Y-70400001D02*
X151120000Y-69499999D01*
G75*
G02*
X151369999Y-69250000I249999J0D01*
G01*
X152020001Y-69250000D01*
G75*
G02*
X152270000Y-69499999I0J-249999D01*
G01*
X152270000Y-70400001D01*
G75*
G02*
X152020001Y-70650000I-249999J0D01*
G01*
X151369999Y-70650000D01*
G75*
G02*
X151120000Y-70400001I0J249999D01*
G01*
G37*
G36*
G01*
X149070000Y-70400001D02*
X149070000Y-69499999D01*
G75*
G02*
X149319999Y-69250000I249999J0D01*
G01*
X149970001Y-69250000D01*
G75*
G02*
X150220000Y-69499999I0J-249999D01*
G01*
X150220000Y-70400001D01*
G75*
G02*
X149970001Y-70650000I-249999J0D01*
G01*
X149319999Y-70650000D01*
G75*
G02*
X149070000Y-70400001I0J249999D01*
G01*
G37*
%TD*%
D17*
%TO.C,Q3*%
X160382000Y-89530000D03*
X159432000Y-87530000D03*
X161332000Y-87530000D03*
%TD*%
%TO.C,Q2*%
X160470000Y-79680000D03*
X161420000Y-81680000D03*
X159520000Y-81680000D03*
%TD*%
D18*
%TO.C,Q1*%
X138380000Y-73330000D03*
X141380000Y-72380000D03*
X141380000Y-74280000D03*
%TD*%
%TO.C,D3*%
G36*
G01*
X157450000Y-54189999D02*
X157450000Y-55090001D01*
G75*
G02*
X157200001Y-55340000I-249999J0D01*
G01*
X156549999Y-55340000D01*
G75*
G02*
X156300000Y-55090001I0J249999D01*
G01*
X156300000Y-54189999D01*
G75*
G02*
X156549999Y-53940000I249999J0D01*
G01*
X157200001Y-53940000D01*
G75*
G02*
X157450000Y-54189999I0J-249999D01*
G01*
G37*
G36*
G01*
X159500000Y-54189999D02*
X159500000Y-55090001D01*
G75*
G02*
X159250001Y-55340000I-249999J0D01*
G01*
X158599999Y-55340000D01*
G75*
G02*
X158350000Y-55090001I0J249999D01*
G01*
X158350000Y-54189999D01*
G75*
G02*
X158599999Y-53940000I249999J0D01*
G01*
X159250001Y-53940000D01*
G75*
G02*
X159500000Y-54189999I0J-249999D01*
G01*
G37*
%TD*%
D19*
%TO.C,D2*%
X145210000Y-74330000D03*
X147710000Y-74330000D03*
%TD*%
%TO.C,D1*%
G36*
G01*
X150180000Y-64609999D02*
X150180000Y-65510001D01*
G75*
G02*
X149930001Y-65760000I-249999J0D01*
G01*
X149279999Y-65760000D01*
G75*
G02*
X149030000Y-65510001I0J249999D01*
G01*
X149030000Y-64609999D01*
G75*
G02*
X149279999Y-64360000I249999J0D01*
G01*
X149930001Y-64360000D01*
G75*
G02*
X150180000Y-64609999I0J-249999D01*
G01*
G37*
G36*
G01*
X152230000Y-64609999D02*
X152230000Y-65510001D01*
G75*
G02*
X151980001Y-65760000I-249999J0D01*
G01*
X151329999Y-65760000D01*
G75*
G02*
X151080000Y-65510001I0J249999D01*
G01*
X151080000Y-64609999D01*
G75*
G02*
X151329999Y-64360000I249999J0D01*
G01*
X151980001Y-64360000D01*
G75*
G02*
X152230000Y-64609999I0J-249999D01*
G01*
G37*
%TD*%
%TO.C,C12*%
G36*
G01*
X163740001Y-107990000D02*
X162839999Y-107990000D01*
G75*
G02*
X162590000Y-107740001I0J249999D01*
G01*
X162590000Y-107089999D01*
G75*
G02*
X162839999Y-106840000I249999J0D01*
G01*
X163740001Y-106840000D01*
G75*
G02*
X163990000Y-107089999I0J-249999D01*
G01*
X163990000Y-107740001D01*
G75*
G02*
X163740001Y-107990000I-249999J0D01*
G01*
G37*
G36*
G01*
X163740001Y-110040000D02*
X162839999Y-110040000D01*
G75*
G02*
X162590000Y-109790001I0J249999D01*
G01*
X162590000Y-109139999D01*
G75*
G02*
X162839999Y-108890000I249999J0D01*
G01*
X163740001Y-108890000D01*
G75*
G02*
X163990000Y-109139999I0J-249999D01*
G01*
X163990000Y-109790001D01*
G75*
G02*
X163740001Y-110040000I-249999J0D01*
G01*
G37*
%TD*%
%TO.C,C11*%
G36*
G01*
X159729999Y-123250000D02*
X160630001Y-123250000D01*
G75*
G02*
X160880000Y-123499999I0J-249999D01*
G01*
X160880000Y-124150001D01*
G75*
G02*
X160630001Y-124400000I-249999J0D01*
G01*
X159729999Y-124400000D01*
G75*
G02*
X159480000Y-124150001I0J249999D01*
G01*
X159480000Y-123499999D01*
G75*
G02*
X159729999Y-123250000I249999J0D01*
G01*
G37*
G36*
G01*
X159729999Y-121200000D02*
X160630001Y-121200000D01*
G75*
G02*
X160880000Y-121449999I0J-249999D01*
G01*
X160880000Y-122100001D01*
G75*
G02*
X160630001Y-122350000I-249999J0D01*
G01*
X159729999Y-122350000D01*
G75*
G02*
X159480000Y-122100001I0J249999D01*
G01*
X159480000Y-121449999D01*
G75*
G02*
X159729999Y-121200000I249999J0D01*
G01*
G37*
%TD*%
%TO.C,C10*%
G36*
G01*
X161939999Y-123240000D02*
X162840001Y-123240000D01*
G75*
G02*
X163090000Y-123489999I0J-249999D01*
G01*
X163090000Y-124140001D01*
G75*
G02*
X162840001Y-124390000I-249999J0D01*
G01*
X161939999Y-124390000D01*
G75*
G02*
X161690000Y-124140001I0J249999D01*
G01*
X161690000Y-123489999D01*
G75*
G02*
X161939999Y-123240000I249999J0D01*
G01*
G37*
G36*
G01*
X161939999Y-121190000D02*
X162840001Y-121190000D01*
G75*
G02*
X163090000Y-121439999I0J-249999D01*
G01*
X163090000Y-122090001D01*
G75*
G02*
X162840001Y-122340000I-249999J0D01*
G01*
X161939999Y-122340000D01*
G75*
G02*
X161690000Y-122090001I0J249999D01*
G01*
X161690000Y-121439999D01*
G75*
G02*
X161939999Y-121190000I249999J0D01*
G01*
G37*
%TD*%
%TO.C,C9*%
G36*
G01*
X140669999Y-86155000D02*
X141570001Y-86155000D01*
G75*
G02*
X141820000Y-86404999I0J-249999D01*
G01*
X141820000Y-87055001D01*
G75*
G02*
X141570001Y-87305000I-249999J0D01*
G01*
X140669999Y-87305000D01*
G75*
G02*
X140420000Y-87055001I0J249999D01*
G01*
X140420000Y-86404999D01*
G75*
G02*
X140669999Y-86155000I249999J0D01*
G01*
G37*
G36*
G01*
X140669999Y-84105000D02*
X141570001Y-84105000D01*
G75*
G02*
X141820000Y-84354999I0J-249999D01*
G01*
X141820000Y-85005001D01*
G75*
G02*
X141570001Y-85255000I-249999J0D01*
G01*
X140669999Y-85255000D01*
G75*
G02*
X140420000Y-85005001I0J249999D01*
G01*
X140420000Y-84354999D01*
G75*
G02*
X140669999Y-84105000I249999J0D01*
G01*
G37*
%TD*%
%TO.C,C8*%
G36*
G01*
X142869999Y-86185000D02*
X143770001Y-86185000D01*
G75*
G02*
X144020000Y-86434999I0J-249999D01*
G01*
X144020000Y-87085001D01*
G75*
G02*
X143770001Y-87335000I-249999J0D01*
G01*
X142869999Y-87335000D01*
G75*
G02*
X142620000Y-87085001I0J249999D01*
G01*
X142620000Y-86434999D01*
G75*
G02*
X142869999Y-86185000I249999J0D01*
G01*
G37*
G36*
G01*
X142869999Y-84135000D02*
X143770001Y-84135000D01*
G75*
G02*
X144020000Y-84384999I0J-249999D01*
G01*
X144020000Y-85035001D01*
G75*
G02*
X143770001Y-85285000I-249999J0D01*
G01*
X142869999Y-85285000D01*
G75*
G02*
X142620000Y-85035001I0J249999D01*
G01*
X142620000Y-84384999D01*
G75*
G02*
X142869999Y-84135000I249999J0D01*
G01*
G37*
%TD*%
%TO.C,C7*%
G36*
G01*
X153960001Y-85515000D02*
X153059999Y-85515000D01*
G75*
G02*
X152810000Y-85265001I0J249999D01*
G01*
X152810000Y-84614999D01*
G75*
G02*
X153059999Y-84365000I249999J0D01*
G01*
X153960001Y-84365000D01*
G75*
G02*
X154210000Y-84614999I0J-249999D01*
G01*
X154210000Y-85265001D01*
G75*
G02*
X153960001Y-85515000I-249999J0D01*
G01*
G37*
G36*
G01*
X153960001Y-87565000D02*
X153059999Y-87565000D01*
G75*
G02*
X152810000Y-87315001I0J249999D01*
G01*
X152810000Y-86664999D01*
G75*
G02*
X153059999Y-86415000I249999J0D01*
G01*
X153960001Y-86415000D01*
G75*
G02*
X154210000Y-86664999I0J-249999D01*
G01*
X154210000Y-87315001D01*
G75*
G02*
X153960001Y-87565000I-249999J0D01*
G01*
G37*
%TD*%
%TO.C,C5*%
G36*
G01*
X135100001Y-82680000D02*
X134199999Y-82680000D01*
G75*
G02*
X133950000Y-82430001I0J249999D01*
G01*
X133950000Y-81779999D01*
G75*
G02*
X134199999Y-81530000I249999J0D01*
G01*
X135100001Y-81530000D01*
G75*
G02*
X135350000Y-81779999I0J-249999D01*
G01*
X135350000Y-82430001D01*
G75*
G02*
X135100001Y-82680000I-249999J0D01*
G01*
G37*
G36*
G01*
X135100001Y-84730000D02*
X134199999Y-84730000D01*
G75*
G02*
X133950000Y-84480001I0J249999D01*
G01*
X133950000Y-83829999D01*
G75*
G02*
X134199999Y-83580000I249999J0D01*
G01*
X135100001Y-83580000D01*
G75*
G02*
X135350000Y-83829999I0J-249999D01*
G01*
X135350000Y-84480001D01*
G75*
G02*
X135100001Y-84730000I-249999J0D01*
G01*
G37*
%TD*%
%TO.C,C4*%
G36*
G01*
X159169999Y-75250000D02*
X160070001Y-75250000D01*
G75*
G02*
X160320000Y-75499999I0J-249999D01*
G01*
X160320000Y-76150001D01*
G75*
G02*
X160070001Y-76400000I-249999J0D01*
G01*
X159169999Y-76400000D01*
G75*
G02*
X158920000Y-76150001I0J249999D01*
G01*
X158920000Y-75499999D01*
G75*
G02*
X159169999Y-75250000I249999J0D01*
G01*
G37*
G36*
G01*
X159169999Y-77300000D02*
X160070001Y-77300000D01*
G75*
G02*
X160320000Y-77549999I0J-249999D01*
G01*
X160320000Y-78200001D01*
G75*
G02*
X160070001Y-78450000I-249999J0D01*
G01*
X159169999Y-78450000D01*
G75*
G02*
X158920000Y-78200001I0J249999D01*
G01*
X158920000Y-77549999D01*
G75*
G02*
X159169999Y-77300000I249999J0D01*
G01*
G37*
%TD*%
%TO.C,C3*%
G36*
G01*
X151140001Y-74930000D02*
X150239999Y-74930000D01*
G75*
G02*
X149990000Y-74680001I0J249999D01*
G01*
X149990000Y-74029999D01*
G75*
G02*
X150239999Y-73780000I249999J0D01*
G01*
X151140001Y-73780000D01*
G75*
G02*
X151390000Y-74029999I0J-249999D01*
G01*
X151390000Y-74680001D01*
G75*
G02*
X151140001Y-74930000I-249999J0D01*
G01*
G37*
G36*
G01*
X151140001Y-72880000D02*
X150239999Y-72880000D01*
G75*
G02*
X149990000Y-72630001I0J249999D01*
G01*
X149990000Y-71979999D01*
G75*
G02*
X150239999Y-71730000I249999J0D01*
G01*
X151140001Y-71730000D01*
G75*
G02*
X151390000Y-71979999I0J-249999D01*
G01*
X151390000Y-72630001D01*
G75*
G02*
X151140001Y-72880000I-249999J0D01*
G01*
G37*
%TD*%
%TO.C,C2*%
G36*
G01*
X146700000Y-67480001D02*
X146700000Y-66579999D01*
G75*
G02*
X146949999Y-66330000I249999J0D01*
G01*
X147600001Y-66330000D01*
G75*
G02*
X147850000Y-66579999I0J-249999D01*
G01*
X147850000Y-67480001D01*
G75*
G02*
X147600001Y-67730000I-249999J0D01*
G01*
X146949999Y-67730000D01*
G75*
G02*
X146700000Y-67480001I0J249999D01*
G01*
G37*
G36*
G01*
X144650000Y-67480001D02*
X144650000Y-66579999D01*
G75*
G02*
X144899999Y-66330000I249999J0D01*
G01*
X145550001Y-66330000D01*
G75*
G02*
X145800000Y-66579999I0J-249999D01*
G01*
X145800000Y-67480001D01*
G75*
G02*
X145550001Y-67730000I-249999J0D01*
G01*
X144899999Y-67730000D01*
G75*
G02*
X144650000Y-67480001I0J249999D01*
G01*
G37*
%TD*%
%TO.C,C1*%
G36*
G01*
X134159999Y-76270000D02*
X135060001Y-76270000D01*
G75*
G02*
X135310000Y-76519999I0J-249999D01*
G01*
X135310000Y-77170001D01*
G75*
G02*
X135060001Y-77420000I-249999J0D01*
G01*
X134159999Y-77420000D01*
G75*
G02*
X133910000Y-77170001I0J249999D01*
G01*
X133910000Y-76519999D01*
G75*
G02*
X134159999Y-76270000I249999J0D01*
G01*
G37*
G36*
G01*
X134159999Y-74220000D02*
X135060001Y-74220000D01*
G75*
G02*
X135310000Y-74469999I0J-249999D01*
G01*
X135310000Y-75120001D01*
G75*
G02*
X135060001Y-75370000I-249999J0D01*
G01*
X134159999Y-75370000D01*
G75*
G02*
X133910000Y-75120001I0J249999D01*
G01*
X133910000Y-74469999D01*
G75*
G02*
X134159999Y-74220000I249999J0D01*
G01*
G37*
%TD*%
M02*
