%TF.GenerationSoftware,KiCad,Pcbnew,(5.1.9)-1*%
%TF.CreationDate,2021-03-18T14:02:07+01:00*%
%TF.ProjectId,clip,636c6970-2e6b-4696-9361-645f70636258,rev?*%
%TF.SameCoordinates,Original*%
%TF.FileFunction,Copper,L2,Bot*%
%TF.FilePolarity,Positive*%
%FSLAX46Y46*%
G04 Gerber Fmt 4.6, Leading zero omitted, Abs format (unit mm)*
G04 Created by KiCad (PCBNEW (5.1.9)-1) date 2021-03-18 14:02:07*
%MOMM*%
%LPD*%
G01*
G04 APERTURE LIST*
%TA.AperFunction,ComponentPad*%
%ADD10O,1.200000X1.750000*%
%TD*%
%TA.AperFunction,ComponentPad*%
%ADD11O,0.850000X1.850000*%
%TD*%
%TA.AperFunction,ComponentPad*%
%ADD12C,0.840000*%
%TD*%
%TA.AperFunction,ComponentPad*%
%ADD13R,0.840000X0.840000*%
%TD*%
%TA.AperFunction,ComponentPad*%
%ADD14O,1.700000X1.700000*%
%TD*%
%TA.AperFunction,ComponentPad*%
%ADD15R,1.700000X1.700000*%
%TD*%
%TA.AperFunction,ViaPad*%
%ADD16C,3.520000*%
%TD*%
%TA.AperFunction,ViaPad*%
%ADD17C,0.800000*%
%TD*%
%TA.AperFunction,ViaPad*%
%ADD18C,1.100000*%
%TD*%
%TA.AperFunction,Conductor*%
%ADD19C,0.250000*%
%TD*%
%TA.AperFunction,Conductor*%
%ADD20C,0.500000*%
%TD*%
%TA.AperFunction,Conductor*%
%ADD21C,0.254000*%
%TD*%
%TA.AperFunction,Conductor*%
%ADD22C,0.100000*%
%TD*%
G04 APERTURE END LIST*
D10*
%TO.P,J1,2*%
%TO.N,+BATT*%
X125800000Y-72370000D03*
%TO.P,J1,1*%
%TO.N,GND*%
%TA.AperFunction,ComponentPad*%
G36*
G01*
X128400000Y-71744999D02*
X128400000Y-72995001D01*
G75*
G02*
X128150001Y-73245000I-249999J0D01*
G01*
X127449999Y-73245000D01*
G75*
G02*
X127200000Y-72995001I0J249999D01*
G01*
X127200000Y-71744999D01*
G75*
G02*
X127449999Y-71495000I249999J0D01*
G01*
X128150001Y-71495000D01*
G75*
G02*
X128400000Y-71744999I0J-249999D01*
G01*
G37*
%TD.AperFunction*%
%TD*%
D11*
%TO.P,J2,6*%
%TO.N,GND*%
X152355000Y-72790000D03*
X145205000Y-72790000D03*
D12*
%TO.P,J2,5*%
X150080000Y-72570000D03*
%TO.P,J2,4*%
%TO.N,Net-(J2-Pad4)*%
X149430000Y-73570000D03*
%TO.P,J2,3*%
%TO.N,/D+*%
X148780000Y-72570000D03*
%TO.P,J2,2*%
%TO.N,/D-*%
X148130000Y-73570000D03*
D13*
%TO.P,J2,1*%
%TO.N,VBUS*%
X147480000Y-72570000D03*
%TD*%
D14*
%TO.P,JP1,2*%
%TO.N,Net-(D3-Pad2)*%
X154450000Y-54640000D03*
D15*
%TO.P,JP1,1*%
%TO.N,+3V3*%
X156990000Y-54640000D03*
%TD*%
D14*
%TO.P,J4,8*%
%TO.N,Net-(J4-Pad8)*%
X168220000Y-98170000D03*
%TO.P,J4,7*%
%TO.N,Net-(J4-Pad7)*%
X165680000Y-98170000D03*
%TO.P,J4,6*%
%TO.N,Net-(J4-Pad6)*%
X163140000Y-98170000D03*
%TO.P,J4,5*%
%TO.N,SDA*%
X160600000Y-98170000D03*
%TO.P,J4,4*%
%TO.N,SCL*%
X158060000Y-98170000D03*
%TO.P,J4,3*%
%TO.N,GND*%
X155520000Y-98170000D03*
%TO.P,J4,2*%
%TO.N,Net-(J4-Pad2)*%
X152980000Y-98170000D03*
D15*
%TO.P,J4,1*%
%TO.N,+3V3*%
X150440000Y-98170000D03*
%TD*%
D14*
%TO.P,J3,7*%
%TO.N,Net-(J3-Pad7)*%
X144200000Y-98100000D03*
%TO.P,J3,6*%
%TO.N,SDA*%
X141660000Y-98100000D03*
%TO.P,J3,5*%
%TO.N,Net-(J3-Pad5)*%
X139120000Y-98100000D03*
%TO.P,J3,4*%
%TO.N,SCL*%
X136580000Y-98100000D03*
%TO.P,J3,3*%
%TO.N,GND*%
X134040000Y-98100000D03*
%TO.P,J3,2*%
%TO.N,Net-(J3-Pad2)*%
X131500000Y-98100000D03*
D15*
%TO.P,J3,1*%
%TO.N,+3V3*%
X128960000Y-98100000D03*
%TD*%
D16*
%TO.N,*%
X163610000Y-116460000D03*
X134130000Y-116510000D03*
X163640000Y-66130000D03*
X134150000Y-66180000D03*
D17*
%TO.N,GND*%
X142440000Y-73380000D03*
D18*
%TO.N,VBUS*%
X144920000Y-70190000D03*
%TO.N,VIN*%
X143050000Y-65580000D03*
X147429992Y-68916012D03*
%TO.N,+3V3*%
X153660000Y-69040000D03*
X157290000Y-69070000D03*
X168840000Y-90700000D03*
X150458726Y-90818726D03*
D17*
%TO.N,SDA*%
X138075010Y-113020000D03*
%TO.N,SCL*%
X137250000Y-118220000D03*
X154820000Y-92480000D03*
%TO.N,TX0*%
X142637500Y-119217500D03*
X147920000Y-95960000D03*
%TO.N,RX0*%
X142611316Y-117829478D03*
X146570000Y-99980000D03*
%TO.N,Net-(R1-Pad1)*%
X147820000Y-63260000D03*
X143030000Y-63260000D03*
%TD*%
D19*
%TO.N,GND*%
X145205000Y-72790000D02*
X143030000Y-72790000D01*
X143030000Y-72790000D02*
X142440000Y-73380000D01*
D20*
%TO.N,VBUS*%
X146500000Y-70190000D02*
X144920000Y-70190000D01*
X147480000Y-71170000D02*
X146500000Y-70190000D01*
X147480000Y-72570000D02*
X147480000Y-71170000D01*
%TO.N,VIN*%
X143050000Y-65580000D02*
X143050000Y-67681400D01*
X143050000Y-67681400D02*
X144284612Y-68916012D01*
X144336012Y-68916012D02*
X147429992Y-68916012D01*
X144320000Y-68900000D02*
X144336012Y-68916012D01*
%TO.N,+3V3*%
X157164840Y-69007000D02*
X157180080Y-68991760D01*
X153608840Y-69007000D02*
X157164840Y-69007000D01*
X168840000Y-90700000D02*
X150577452Y-90700000D01*
X150577452Y-90700000D02*
X150458726Y-90818726D01*
X128960000Y-96750000D02*
X135441273Y-90268727D01*
X128960000Y-98100000D02*
X128960000Y-96750000D01*
X135441273Y-90268727D02*
X149908727Y-90268727D01*
X149908727Y-90268727D02*
X150458726Y-90818726D01*
D19*
%TO.N,SDA*%
X141660000Y-98459977D02*
X141660000Y-98100000D01*
X140018764Y-100101213D02*
X141660000Y-98459977D01*
X139976879Y-100153735D02*
X140018764Y-100101213D01*
X139947731Y-100214261D02*
X139976879Y-100153735D01*
X139932782Y-100279756D02*
X139947731Y-100214261D01*
X138566797Y-100678006D02*
X138566797Y-100610828D01*
X138652780Y-100856548D02*
X138610894Y-100804027D01*
X138705303Y-100390399D02*
X138765828Y-100361253D01*
X139305317Y-101519722D02*
X139263432Y-101467199D01*
X138963996Y-100361252D02*
X139024521Y-100390400D01*
X139349413Y-101645742D02*
X139334464Y-101580248D01*
X140018764Y-100525477D02*
X139976879Y-100472955D01*
X139334464Y-101580248D02*
X139305317Y-101519722D01*
X139334464Y-101778415D02*
X139349413Y-101712921D01*
X140197940Y-100797215D02*
X140182991Y-100731721D01*
X139305317Y-101838941D02*
X139334464Y-101778415D01*
X138610894Y-100804027D02*
X138581746Y-100743501D01*
X138581746Y-100743501D02*
X138566797Y-100678006D01*
X139263432Y-101891464D02*
X139305317Y-101838941D01*
X139210910Y-101933349D02*
X139263432Y-101891464D01*
X139024521Y-100390400D02*
X139077044Y-100432285D01*
X139150384Y-101962497D02*
X139210910Y-101933349D01*
X139084889Y-101977446D02*
X139150384Y-101962497D01*
X138652780Y-100432284D02*
X138705303Y-100390399D01*
X139017711Y-101977446D02*
X139084889Y-101977446D01*
X138075010Y-113020000D02*
X138075010Y-102044970D01*
X140059437Y-101084822D02*
X140111959Y-101042937D01*
X138075010Y-102044970D02*
X138321710Y-101798270D01*
X138321710Y-101798270D02*
X138374232Y-101756384D01*
X138500252Y-101712288D02*
X138567431Y-101712288D01*
X138374232Y-101756384D02*
X138434758Y-101727237D01*
X138898501Y-100346304D02*
X138963996Y-100361252D01*
X138567431Y-101712288D02*
X138632925Y-101727237D01*
X138831323Y-100346303D02*
X138898501Y-100346304D01*
X138891690Y-101933349D02*
X138952216Y-101962497D01*
X139263432Y-101467199D02*
X138652780Y-100856548D01*
X139687695Y-101042937D02*
X139740217Y-101084822D01*
X138632925Y-101727237D02*
X138693451Y-101756384D01*
X138765828Y-100361253D02*
X138831323Y-100346303D01*
X138434758Y-101727237D02*
X138500252Y-101712288D01*
X139933416Y-101128919D02*
X139998911Y-101113970D01*
X138839168Y-101891464D02*
X138891690Y-101933349D01*
X138693451Y-101756384D02*
X138745974Y-101798270D01*
X139800743Y-101113970D02*
X139866238Y-101128919D01*
X138745974Y-101798270D02*
X138839168Y-101891464D01*
X139349413Y-101712921D02*
X139349413Y-101645742D01*
X138952216Y-101962497D02*
X139017711Y-101977446D01*
X138566797Y-100610828D02*
X138581746Y-100545333D01*
X138581746Y-100545333D02*
X138610894Y-100484807D01*
X138610894Y-100484807D02*
X138652780Y-100432284D01*
X139077044Y-100432285D02*
X139687695Y-101042937D01*
X139740217Y-101084822D02*
X139800743Y-101113970D01*
X139866238Y-101128919D02*
X139933416Y-101128919D01*
X139998911Y-101113970D02*
X140059437Y-101084822D01*
X140111959Y-101042937D02*
X140153844Y-100990414D01*
X140153844Y-100990414D02*
X140182991Y-100929888D01*
X140182991Y-100929888D02*
X140197940Y-100864394D01*
X140197940Y-100864394D02*
X140197940Y-100797215D01*
X140182991Y-100731721D02*
X140153844Y-100671195D01*
X140153844Y-100671195D02*
X140111959Y-100618672D01*
X140111959Y-100618672D02*
X140018764Y-100525477D01*
X139976879Y-100472955D02*
X139947731Y-100412429D01*
X139947731Y-100412429D02*
X139932782Y-100346934D01*
X139932782Y-100346934D02*
X139932782Y-100279756D01*
X152602625Y-95471337D02*
X152659506Y-95435596D01*
X151872460Y-93731793D02*
X151939216Y-93739315D01*
X152539216Y-95493525D02*
X152602625Y-95471337D01*
X152405703Y-95493525D02*
X152472460Y-95501047D01*
X151142294Y-95471337D02*
X151205703Y-95493525D01*
X152237910Y-95388093D02*
X152285413Y-95435596D01*
X152202169Y-95331212D02*
X152237910Y-95388093D01*
X152172460Y-94031793D02*
X152172460Y-95201047D01*
X152142750Y-93901628D02*
X152164938Y-93965037D01*
X152107009Y-93844747D02*
X152142750Y-93901628D01*
X151579981Y-93965037D02*
X151602169Y-93901628D01*
X152059506Y-93797244D02*
X152107009Y-93844747D01*
X141660000Y-98100000D02*
X141660000Y-95792980D01*
X152164938Y-93965037D02*
X152172460Y-94031793D01*
X152659506Y-95435596D02*
X152707009Y-95388093D01*
X152002625Y-93761503D02*
X152059506Y-93797244D01*
X151939216Y-93739315D02*
X152002625Y-93761503D01*
X151805703Y-93739315D02*
X151872460Y-93731793D01*
X153437910Y-94503467D02*
X153485413Y-94550970D01*
X151742294Y-93761503D02*
X151805703Y-93739315D01*
X153005703Y-93739315D02*
X153072460Y-93731793D01*
X152342294Y-95471337D02*
X152405703Y-95493525D01*
X150979981Y-95267803D02*
X151002169Y-95331212D01*
X151685413Y-93797244D02*
X151742294Y-93761503D01*
X151637910Y-93844747D02*
X151685413Y-93797244D01*
X151564938Y-95267803D02*
X151572460Y-95201047D01*
X151542750Y-95331212D02*
X151564938Y-95267803D01*
X150859506Y-94681870D02*
X150907009Y-94729373D01*
X150739216Y-94623941D02*
X150802625Y-94646129D01*
X150672460Y-94616420D02*
X150739216Y-94623941D01*
X151085413Y-95435596D02*
X151142294Y-95471337D01*
X152285413Y-95435596D02*
X152342294Y-95471337D01*
X151272460Y-95501047D02*
X151339216Y-95493525D01*
X152172460Y-95201047D02*
X152179981Y-95267803D01*
X151205703Y-95493525D02*
X151272460Y-95501047D01*
X151402625Y-95471337D02*
X151459506Y-95435596D01*
X152707009Y-95388093D02*
X152742750Y-95331212D01*
X152179981Y-95267803D02*
X152202169Y-95331212D01*
X152779981Y-93965037D02*
X152802169Y-93901628D01*
X151572460Y-95201047D02*
X151572460Y-94031793D01*
X151339216Y-95493525D02*
X151402625Y-95471337D01*
X153139216Y-93739315D02*
X153202625Y-93761503D01*
X142836560Y-94616420D02*
X150672460Y-94616420D01*
X150802625Y-94646129D02*
X150859506Y-94681870D01*
X152472460Y-95501047D02*
X152539216Y-95493525D01*
X141660000Y-95792980D02*
X142836560Y-94616420D01*
X150907009Y-94729373D02*
X150942750Y-94786254D01*
X150942750Y-94786254D02*
X150964938Y-94849663D01*
X150964938Y-94849663D02*
X150972460Y-94916420D01*
X151037910Y-95388093D02*
X151085413Y-95435596D01*
X150972460Y-94916420D02*
X150972460Y-95201047D01*
X153372460Y-94031793D02*
X153372460Y-94316420D01*
X150972460Y-95201047D02*
X150979981Y-95267803D01*
X153307009Y-93844747D02*
X153342750Y-93901628D01*
X151002169Y-95331212D02*
X151037910Y-95388093D01*
X151572460Y-94031793D02*
X151579981Y-93965037D01*
X151602169Y-93901628D02*
X151637910Y-93844747D01*
X151507009Y-95388093D02*
X151542750Y-95331212D01*
X151459506Y-95435596D02*
X151507009Y-95388093D01*
X159595480Y-94616420D02*
X160600000Y-95620940D01*
X152742750Y-95331212D02*
X152764938Y-95267803D01*
X152764938Y-95267803D02*
X152772460Y-95201047D01*
X152772460Y-95201047D02*
X152772460Y-94031793D01*
X152772460Y-94031793D02*
X152779981Y-93965037D01*
X152802169Y-93901628D02*
X152837910Y-93844747D01*
X152837910Y-93844747D02*
X152885413Y-93797244D01*
X152885413Y-93797244D02*
X152942294Y-93761503D01*
X152942294Y-93761503D02*
X153005703Y-93739315D01*
X153072460Y-93731793D02*
X153139216Y-93739315D01*
X153202625Y-93761503D02*
X153259506Y-93797244D01*
X153259506Y-93797244D02*
X153307009Y-93844747D01*
X153342750Y-93901628D02*
X153364938Y-93965037D01*
X153364938Y-93965037D02*
X153372460Y-94031793D01*
X153372460Y-94316420D02*
X153379981Y-94383177D01*
X153379981Y-94383177D02*
X153402169Y-94446586D01*
X153402169Y-94446586D02*
X153437910Y-94503467D01*
X153485413Y-94550970D02*
X153542294Y-94586711D01*
X153542294Y-94586711D02*
X153605703Y-94608899D01*
X153605703Y-94608899D02*
X153672460Y-94616420D01*
X153672460Y-94616420D02*
X159595480Y-94616420D01*
X160600000Y-95620940D02*
X160600000Y-98170000D01*
%TO.N,SCL*%
X137220000Y-118190000D02*
X137250000Y-118220000D01*
X137220000Y-101210000D02*
X137220000Y-118190000D01*
X136580000Y-100570000D02*
X137220000Y-101210000D01*
X136580000Y-98100000D02*
X136580000Y-100570000D01*
X136580000Y-98100000D02*
X136580000Y-94820000D01*
X136580000Y-94820000D02*
X138920000Y-92480000D01*
X138920000Y-92480000D02*
X154254315Y-92480000D01*
X154254315Y-92480000D02*
X154820000Y-92480000D01*
%TO.N,TX0*%
X142637500Y-119217500D02*
X147920000Y-113935000D01*
X147920000Y-113935000D02*
X147920000Y-95960000D01*
%TO.N,RX0*%
X146550000Y-113890794D02*
X142611316Y-117829478D01*
X146550000Y-111510000D02*
X146550000Y-113890794D01*
X146557522Y-111443243D02*
X146550000Y-111510000D01*
X146579710Y-111379834D02*
X146557522Y-111443243D01*
X146615451Y-111322953D02*
X146579710Y-111379834D01*
X146662954Y-111275450D02*
X146615451Y-111322953D01*
X146719835Y-111239709D02*
X146662954Y-111275450D01*
X146850000Y-111210000D02*
X146783244Y-111217521D01*
X147114471Y-111210000D02*
X146850000Y-111210000D01*
X147181228Y-111202478D02*
X147114471Y-111210000D01*
X147244637Y-111180290D02*
X147181228Y-111202478D01*
X147301518Y-111144549D02*
X147244637Y-111180290D01*
X147349021Y-111097046D02*
X147301518Y-111144549D01*
X147384762Y-111040165D02*
X147349021Y-111097046D01*
X147406950Y-110976756D02*
X147384762Y-111040165D01*
X147414471Y-110910000D02*
X147406950Y-110976756D01*
X147384762Y-110779834D02*
X147406950Y-110843243D01*
X147181228Y-109417521D02*
X147244637Y-109439709D01*
X147406950Y-110843243D02*
X147414471Y-110910000D01*
X145818772Y-109402478D02*
X145885529Y-109410000D01*
X145755363Y-109380290D02*
X145818772Y-109402478D01*
X145698482Y-109344549D02*
X145755363Y-109380290D01*
X147301518Y-110675450D02*
X147349021Y-110722953D01*
X145650979Y-109297046D02*
X145698482Y-109344549D01*
X147114471Y-109410000D02*
X147181228Y-109417521D01*
X145615238Y-109240165D02*
X145650979Y-109297046D01*
X147244637Y-109439709D02*
X147301518Y-109475450D01*
X145650979Y-110497046D02*
X145698482Y-110544549D01*
X145593050Y-109176756D02*
X145615238Y-109240165D01*
X145818772Y-110602478D02*
X145885529Y-110610000D01*
X145585529Y-109110000D02*
X145593050Y-109176756D01*
X145615238Y-110440165D02*
X145650979Y-110497046D01*
X145593050Y-109043243D02*
X145585529Y-109110000D01*
X145615238Y-108979834D02*
X145593050Y-109043243D01*
X145650979Y-108922953D02*
X145615238Y-108979834D01*
X145698482Y-108875450D02*
X145650979Y-108922953D01*
X146570000Y-99980000D02*
X146550000Y-100000000D01*
X146550000Y-100000000D02*
X146550000Y-108510000D01*
X146250000Y-108810000D02*
X145885529Y-108810000D01*
X147301518Y-109475450D02*
X147349021Y-109522953D01*
X146542478Y-108576756D02*
X146520290Y-108640165D01*
X145885529Y-108810000D02*
X145818772Y-108817521D01*
X146520290Y-108640165D02*
X146484549Y-108697046D01*
X146437046Y-108744549D02*
X146380165Y-108780290D01*
X145755363Y-108839709D02*
X145698482Y-108875450D01*
X146380165Y-108780290D02*
X146316756Y-108802478D01*
X146316756Y-108802478D02*
X146250000Y-108810000D01*
X146484549Y-108697046D02*
X146437046Y-108744549D01*
X145885529Y-109410000D02*
X147114471Y-109410000D01*
X147114471Y-110610000D02*
X147181228Y-110617521D01*
X145818772Y-108817521D02*
X145755363Y-108839709D01*
X147349021Y-109522953D02*
X147384762Y-109579834D01*
X145698482Y-110544549D02*
X145755363Y-110580290D01*
X146783244Y-111217521D02*
X146719835Y-111239709D01*
X147384762Y-109579834D02*
X147406950Y-109643243D01*
X147406950Y-109643243D02*
X147414471Y-109710000D01*
X147414471Y-109710000D02*
X147406950Y-109776756D01*
X147406950Y-109776756D02*
X147384762Y-109840165D01*
X147384762Y-109840165D02*
X147349021Y-109897046D01*
X147349021Y-109897046D02*
X147301518Y-109944549D01*
X147181228Y-110617521D02*
X147244637Y-110639709D01*
X147301518Y-109944549D02*
X147244637Y-109980290D01*
X145818772Y-110017521D02*
X145755363Y-110039709D01*
X147244637Y-109980290D02*
X147181228Y-110002478D01*
X145755363Y-110580290D02*
X145818772Y-110602478D01*
X147181228Y-110002478D02*
X147114471Y-110010000D01*
X147349021Y-110722953D02*
X147384762Y-110779834D01*
X147114471Y-110010000D02*
X145885529Y-110010000D01*
X145885529Y-110010000D02*
X145818772Y-110017521D01*
X145885529Y-110610000D02*
X147114471Y-110610000D01*
X145755363Y-110039709D02*
X145698482Y-110075450D01*
X145698482Y-110075450D02*
X145650979Y-110122953D01*
X145650979Y-110122953D02*
X145615238Y-110179834D01*
X145615238Y-110179834D02*
X145593050Y-110243243D01*
X145593050Y-110243243D02*
X145585529Y-110310000D01*
X146550000Y-108510000D02*
X146542478Y-108576756D01*
X147244637Y-110639709D02*
X147301518Y-110675450D01*
X145585529Y-110310000D02*
X145593050Y-110376756D01*
X145593050Y-110376756D02*
X145615238Y-110440165D01*
%TO.N,Net-(R1-Pad1)*%
X147820000Y-63260000D02*
X143360000Y-63260000D01*
%TD*%
D21*
%TO.N,GND*%
X165484920Y-58938489D02*
X165481691Y-58972587D01*
X165488547Y-59039614D01*
X165495250Y-59105968D01*
X165495378Y-59106385D01*
X165495422Y-59106819D01*
X165515097Y-59170812D01*
X165534741Y-59234993D01*
X165534948Y-59235378D01*
X165535076Y-59235794D01*
X165566841Y-59294689D01*
X165598645Y-59353834D01*
X165598923Y-59354171D01*
X165599130Y-59354555D01*
X165641811Y-59406165D01*
X165684506Y-59457924D01*
X165684845Y-59458201D01*
X165685123Y-59458537D01*
X165736972Y-59500763D01*
X165789024Y-59543265D01*
X165789411Y-59543471D01*
X165789748Y-59543745D01*
X165848803Y-59575025D01*
X165908183Y-59606574D01*
X165908602Y-59606700D01*
X165908987Y-59606904D01*
X165973318Y-59626155D01*
X166037404Y-59645421D01*
X166037837Y-59645463D01*
X166038256Y-59645588D01*
X166105032Y-59651911D01*
X166171718Y-59658311D01*
X166205786Y-59654870D01*
X173464895Y-59627580D01*
X173455106Y-122975000D01*
X166163214Y-122975000D01*
X166129140Y-122971687D01*
X166062909Y-122978294D01*
X165995717Y-122984912D01*
X165995300Y-122985039D01*
X165994874Y-122985081D01*
X165931226Y-123004475D01*
X165866594Y-123024081D01*
X165866211Y-123024286D01*
X165865800Y-123024411D01*
X165807094Y-123055884D01*
X165747593Y-123087688D01*
X165747257Y-123087964D01*
X165746878Y-123088167D01*
X165695313Y-123130594D01*
X165643289Y-123173289D01*
X165643014Y-123173624D01*
X165642681Y-123173898D01*
X165600417Y-123225528D01*
X165557688Y-123277593D01*
X165557483Y-123277977D01*
X165557211Y-123278309D01*
X165526008Y-123336863D01*
X165494081Y-123396594D01*
X165493954Y-123397013D01*
X165493753Y-123397390D01*
X165474525Y-123461060D01*
X165454912Y-123525717D01*
X165454869Y-123526149D01*
X165454745Y-123526561D01*
X165448296Y-123592889D01*
X165441686Y-123660000D01*
X165445043Y-123694079D01*
X165446279Y-124682799D01*
X132331303Y-124673198D01*
X132334868Y-123726216D01*
X132338308Y-123692577D01*
X132330662Y-123611848D01*
X132325588Y-123558260D01*
X132325587Y-123558256D01*
X132325586Y-123558247D01*
X132303423Y-123484188D01*
X132286905Y-123428990D01*
X132286902Y-123428984D01*
X132286900Y-123428978D01*
X132253041Y-123365057D01*
X132223747Y-123309751D01*
X132223744Y-123309747D01*
X132223740Y-123309740D01*
X132177752Y-123253275D01*
X132138539Y-123205125D01*
X132138534Y-123205121D01*
X132138530Y-123205116D01*
X132094224Y-123168476D01*
X132034558Y-123119132D01*
X132034551Y-123119128D01*
X132034547Y-123119125D01*
X131952218Y-123074721D01*
X131915797Y-123055078D01*
X131915785Y-123055072D01*
X131825690Y-123027373D01*
X131786823Y-123015423D01*
X131786818Y-123015423D01*
X131786810Y-123015420D01*
X131686212Y-123005131D01*
X131686209Y-123005131D01*
X131652590Y-123001692D01*
X131618933Y-123004879D01*
X124324763Y-122977560D01*
X124319860Y-108813061D01*
X130295000Y-108813061D01*
X130295000Y-109016939D01*
X130334774Y-109216898D01*
X130412795Y-109405256D01*
X130526063Y-109574774D01*
X130670226Y-109718937D01*
X130839744Y-109832205D01*
X131028102Y-109910226D01*
X131228061Y-109950000D01*
X131431939Y-109950000D01*
X131631898Y-109910226D01*
X131820256Y-109832205D01*
X131989774Y-109718937D01*
X132133937Y-109574774D01*
X132247205Y-109405256D01*
X132325226Y-109216898D01*
X132365000Y-109016939D01*
X132365000Y-108813061D01*
X132325226Y-108613102D01*
X132247205Y-108424744D01*
X132133937Y-108255226D01*
X131989774Y-108111063D01*
X131820256Y-107997795D01*
X131631898Y-107919774D01*
X131431939Y-107880000D01*
X131228061Y-107880000D01*
X131028102Y-107919774D01*
X130839744Y-107997795D01*
X130670226Y-108111063D01*
X130526063Y-108255226D01*
X130412795Y-108424744D01*
X130334774Y-108613102D01*
X130295000Y-108813061D01*
X124319860Y-108813061D01*
X124315857Y-97250000D01*
X127471928Y-97250000D01*
X127471928Y-98950000D01*
X127484188Y-99074482D01*
X127520498Y-99194180D01*
X127579463Y-99304494D01*
X127658815Y-99401185D01*
X127755506Y-99480537D01*
X127865820Y-99539502D01*
X127985518Y-99575812D01*
X128110000Y-99588072D01*
X129810000Y-99588072D01*
X129934482Y-99575812D01*
X130054180Y-99539502D01*
X130164494Y-99480537D01*
X130261185Y-99401185D01*
X130340537Y-99304494D01*
X130399502Y-99194180D01*
X130421513Y-99121620D01*
X130553368Y-99253475D01*
X130796589Y-99415990D01*
X131066842Y-99527932D01*
X131353740Y-99585000D01*
X131646260Y-99585000D01*
X131933158Y-99527932D01*
X132203411Y-99415990D01*
X132446632Y-99253475D01*
X132653475Y-99046632D01*
X132775195Y-98864466D01*
X132844822Y-98981355D01*
X133039731Y-99197588D01*
X133273080Y-99371641D01*
X133535901Y-99496825D01*
X133683110Y-99541476D01*
X133913000Y-99420155D01*
X133913000Y-98227000D01*
X133893000Y-98227000D01*
X133893000Y-97973000D01*
X133913000Y-97973000D01*
X133913000Y-96779845D01*
X133683110Y-96658524D01*
X133535901Y-96703175D01*
X133273080Y-96828359D01*
X133039731Y-97002412D01*
X132844822Y-97218645D01*
X132775195Y-97335534D01*
X132653475Y-97153368D01*
X132446632Y-96946525D01*
X132203411Y-96784010D01*
X131933158Y-96672068D01*
X131646260Y-96615000D01*
X131353740Y-96615000D01*
X131066842Y-96672068D01*
X130796589Y-96784010D01*
X130553368Y-96946525D01*
X130421513Y-97078380D01*
X130399502Y-97005820D01*
X130340537Y-96895506D01*
X130261185Y-96798815D01*
X130207127Y-96754451D01*
X135807852Y-91153727D01*
X149317146Y-91153727D01*
X149319265Y-91164378D01*
X149408592Y-91380034D01*
X149538276Y-91574120D01*
X149684156Y-91720000D01*
X138957325Y-91720000D01*
X138920000Y-91716324D01*
X138882675Y-91720000D01*
X138882667Y-91720000D01*
X138771014Y-91730997D01*
X138627753Y-91774454D01*
X138495724Y-91845026D01*
X138379999Y-91939999D01*
X138356201Y-91968997D01*
X136068998Y-94256201D01*
X136040000Y-94279999D01*
X136016202Y-94308997D01*
X136016201Y-94308998D01*
X135945026Y-94395724D01*
X135874454Y-94527754D01*
X135845133Y-94624417D01*
X135830998Y-94671014D01*
X135820910Y-94773436D01*
X135816324Y-94820000D01*
X135820001Y-94857332D01*
X135820000Y-96821821D01*
X135633368Y-96946525D01*
X135426525Y-97153368D01*
X135304805Y-97335534D01*
X135235178Y-97218645D01*
X135040269Y-97002412D01*
X134806920Y-96828359D01*
X134544099Y-96703175D01*
X134396890Y-96658524D01*
X134167000Y-96779845D01*
X134167000Y-97973000D01*
X134187000Y-97973000D01*
X134187000Y-98227000D01*
X134167000Y-98227000D01*
X134167000Y-99420155D01*
X134396890Y-99541476D01*
X134544099Y-99496825D01*
X134806920Y-99371641D01*
X135040269Y-99197588D01*
X135235178Y-98981355D01*
X135304805Y-98864466D01*
X135426525Y-99046632D01*
X135633368Y-99253475D01*
X135820001Y-99378179D01*
X135820001Y-100532668D01*
X135816324Y-100570000D01*
X135820001Y-100607333D01*
X135830998Y-100718986D01*
X135840649Y-100750801D01*
X135874454Y-100862246D01*
X135945026Y-100994276D01*
X136004132Y-101066296D01*
X136040000Y-101110001D01*
X136068998Y-101133799D01*
X136460000Y-101524802D01*
X136460001Y-115947342D01*
X136432961Y-115811404D01*
X136252421Y-115375542D01*
X135990318Y-114983277D01*
X135656723Y-114649682D01*
X135264458Y-114387579D01*
X134828596Y-114207039D01*
X134365887Y-114115000D01*
X133894113Y-114115000D01*
X133431404Y-114207039D01*
X132995542Y-114387579D01*
X132603277Y-114649682D01*
X132269682Y-114983277D01*
X132007579Y-115375542D01*
X131827039Y-115811404D01*
X131735000Y-116274113D01*
X131735000Y-116745887D01*
X131827039Y-117208596D01*
X132007579Y-117644458D01*
X132269682Y-118036723D01*
X132603277Y-118370318D01*
X132995542Y-118632421D01*
X133431404Y-118812961D01*
X133894113Y-118905000D01*
X134365887Y-118905000D01*
X134828596Y-118812961D01*
X135264458Y-118632421D01*
X135656723Y-118370318D01*
X135990318Y-118036723D01*
X136252421Y-117644458D01*
X136432961Y-117208596D01*
X136460001Y-117072658D01*
X136460001Y-117546288D01*
X136446063Y-117560226D01*
X136332795Y-117729744D01*
X136254774Y-117918102D01*
X136215000Y-118118061D01*
X136215000Y-118321939D01*
X136254774Y-118521898D01*
X136332795Y-118710256D01*
X136446063Y-118879774D01*
X136590226Y-119023937D01*
X136759744Y-119137205D01*
X136948102Y-119215226D01*
X137148061Y-119255000D01*
X137351939Y-119255000D01*
X137551898Y-119215226D01*
X137740256Y-119137205D01*
X137909774Y-119023937D01*
X138053937Y-118879774D01*
X138167205Y-118710256D01*
X138245226Y-118521898D01*
X138285000Y-118321939D01*
X138285000Y-118118061D01*
X138245226Y-117918102D01*
X138167205Y-117729744D01*
X138053937Y-117560226D01*
X137980000Y-117486289D01*
X137980000Y-114055000D01*
X138176949Y-114055000D01*
X138376908Y-114015226D01*
X138565266Y-113937205D01*
X138734784Y-113823937D01*
X138878947Y-113679774D01*
X138992215Y-113510256D01*
X139070236Y-113321898D01*
X139110010Y-113121939D01*
X139110010Y-112918061D01*
X139070236Y-112718102D01*
X138992215Y-112529744D01*
X138878947Y-112360226D01*
X138835010Y-112316289D01*
X138835010Y-102716222D01*
X138868725Y-102726449D01*
X138932617Y-102732742D01*
X138996290Y-102740822D01*
X139044356Y-102737446D01*
X139058243Y-102737446D01*
X139106309Y-102740822D01*
X139169981Y-102732742D01*
X139233875Y-102726449D01*
X139279997Y-102712458D01*
X139293516Y-102709373D01*
X139341134Y-102701967D01*
X139401416Y-102679919D01*
X139462305Y-102659567D01*
X139504152Y-102635667D01*
X139516654Y-102629646D01*
X139561424Y-102611833D01*
X139615286Y-102576927D01*
X139670123Y-102543533D01*
X139705604Y-102510919D01*
X139716446Y-102502272D01*
X139756139Y-102474937D01*
X139800888Y-102428915D01*
X139846910Y-102384166D01*
X139874244Y-102344474D01*
X139882897Y-102333624D01*
X139915507Y-102298146D01*
X139948881Y-102243338D01*
X139983805Y-102189449D01*
X140001623Y-102144666D01*
X140007635Y-102132182D01*
X140031533Y-102090338D01*
X140051886Y-102029447D01*
X140073936Y-101969156D01*
X140081340Y-101921543D01*
X140084423Y-101908036D01*
X140094689Y-101874195D01*
X140128524Y-101863931D01*
X140142043Y-101860846D01*
X140189661Y-101853440D01*
X140249943Y-101831392D01*
X140310832Y-101811040D01*
X140352679Y-101787140D01*
X140365181Y-101781119D01*
X140409951Y-101763306D01*
X140463813Y-101728400D01*
X140518650Y-101695006D01*
X140554131Y-101662392D01*
X140564973Y-101653745D01*
X140604666Y-101626410D01*
X140649415Y-101580388D01*
X140695437Y-101535639D01*
X140722771Y-101495947D01*
X140731424Y-101485097D01*
X140764034Y-101449619D01*
X140797408Y-101394811D01*
X140832332Y-101340922D01*
X140850150Y-101296139D01*
X140856162Y-101283655D01*
X140880060Y-101241811D01*
X140900413Y-101180920D01*
X140922463Y-101120629D01*
X140929867Y-101073016D01*
X140932950Y-101059509D01*
X140946943Y-101013380D01*
X140953237Y-100949478D01*
X140961316Y-100885818D01*
X140957940Y-100837747D01*
X140957940Y-100823862D01*
X140961316Y-100775791D01*
X140953236Y-100712127D01*
X140946943Y-100648230D01*
X140932951Y-100602104D01*
X140929867Y-100588593D01*
X140922463Y-100540980D01*
X140900413Y-100480689D01*
X140880060Y-100419798D01*
X140856162Y-100377954D01*
X140850150Y-100365470D01*
X140844218Y-100350561D01*
X141609779Y-99585000D01*
X141806260Y-99585000D01*
X142093158Y-99527932D01*
X142363411Y-99415990D01*
X142606632Y-99253475D01*
X142813475Y-99046632D01*
X142930000Y-98872240D01*
X143046525Y-99046632D01*
X143253368Y-99253475D01*
X143496589Y-99415990D01*
X143766842Y-99527932D01*
X144053740Y-99585000D01*
X144346260Y-99585000D01*
X144633158Y-99527932D01*
X144903411Y-99415990D01*
X145146632Y-99253475D01*
X145353475Y-99046632D01*
X145515990Y-98803411D01*
X145627932Y-98533158D01*
X145685000Y-98246260D01*
X145685000Y-97953740D01*
X145627932Y-97666842D01*
X145515990Y-97396589D01*
X145353475Y-97153368D01*
X145146632Y-96946525D01*
X144903411Y-96784010D01*
X144633158Y-96672068D01*
X144346260Y-96615000D01*
X144053740Y-96615000D01*
X143766842Y-96672068D01*
X143496589Y-96784010D01*
X143253368Y-96946525D01*
X143046525Y-97153368D01*
X142930000Y-97327760D01*
X142813475Y-97153368D01*
X142606632Y-96946525D01*
X142420000Y-96821822D01*
X142420000Y-96107781D01*
X143151362Y-95376420D01*
X147065152Y-95376420D01*
X147002795Y-95469744D01*
X146924774Y-95658102D01*
X146885000Y-95858061D01*
X146885000Y-96061939D01*
X146924774Y-96261898D01*
X147002795Y-96450256D01*
X147116063Y-96619774D01*
X147160001Y-96663712D01*
X147160001Y-99129442D01*
X147060256Y-99062795D01*
X146871898Y-98984774D01*
X146671939Y-98945000D01*
X146468061Y-98945000D01*
X146268102Y-98984774D01*
X146079744Y-99062795D01*
X145910226Y-99176063D01*
X145766063Y-99320226D01*
X145652795Y-99489744D01*
X145574774Y-99678102D01*
X145535000Y-99878061D01*
X145535000Y-100081939D01*
X145574774Y-100281898D01*
X145652795Y-100470256D01*
X145766063Y-100639774D01*
X145790000Y-100663711D01*
X145790001Y-108055732D01*
X145748722Y-108059797D01*
X145712016Y-108061343D01*
X145649643Y-108076503D01*
X145586869Y-108089907D01*
X145542604Y-108108973D01*
X145529512Y-108113554D01*
X145483017Y-108126246D01*
X145425578Y-108154907D01*
X145367356Y-108181946D01*
X145328449Y-108210381D01*
X145316698Y-108217764D01*
X145274206Y-108240477D01*
X145224577Y-108281206D01*
X145173837Y-108320519D01*
X145142236Y-108356894D01*
X145132424Y-108366707D01*
X145096048Y-108398308D01*
X145056735Y-108449048D01*
X145016005Y-108498677D01*
X144993286Y-108541180D01*
X144985911Y-108552918D01*
X144957475Y-108591827D01*
X144930436Y-108650049D01*
X144901775Y-108707488D01*
X144889083Y-108753983D01*
X144884501Y-108767078D01*
X144865436Y-108811341D01*
X144852034Y-108874107D01*
X144836872Y-108936486D01*
X144834844Y-108984649D01*
X144833294Y-108998411D01*
X144824555Y-109045806D01*
X144825455Y-109110016D01*
X144824556Y-109174195D01*
X144833292Y-109221577D01*
X144834844Y-109235353D01*
X144836872Y-109283513D01*
X144852031Y-109345882D01*
X144865436Y-109408660D01*
X144884502Y-109452926D01*
X144889083Y-109466016D01*
X144901775Y-109512511D01*
X144930436Y-109569950D01*
X144957475Y-109628172D01*
X144985911Y-109667081D01*
X144993286Y-109678819D01*
X145009953Y-109709999D01*
X144993286Y-109741180D01*
X144985911Y-109752918D01*
X144957475Y-109791827D01*
X144930436Y-109850049D01*
X144901775Y-109907488D01*
X144889083Y-109953983D01*
X144884501Y-109967078D01*
X144865436Y-110011341D01*
X144852034Y-110074107D01*
X144836872Y-110136486D01*
X144834844Y-110184649D01*
X144833294Y-110198411D01*
X144824555Y-110245806D01*
X144825455Y-110310016D01*
X144824556Y-110374195D01*
X144833292Y-110421577D01*
X144834844Y-110435353D01*
X144836872Y-110483513D01*
X144852031Y-110545882D01*
X144865436Y-110608660D01*
X144884502Y-110652926D01*
X144889083Y-110666016D01*
X144901775Y-110712511D01*
X144930436Y-110769950D01*
X144957475Y-110828172D01*
X144985911Y-110867081D01*
X144993286Y-110878819D01*
X145016005Y-110921322D01*
X145056735Y-110970951D01*
X145096048Y-111021691D01*
X145132424Y-111053292D01*
X145142236Y-111063105D01*
X145173837Y-111099480D01*
X145224577Y-111138793D01*
X145274206Y-111179522D01*
X145316698Y-111202235D01*
X145328449Y-111209618D01*
X145367356Y-111238053D01*
X145425578Y-111265092D01*
X145483017Y-111293753D01*
X145529512Y-111306445D01*
X145542596Y-111311023D01*
X145586858Y-111330089D01*
X145649640Y-111343495D01*
X145712016Y-111358656D01*
X145748705Y-111360201D01*
X145800132Y-111365266D01*
X145799799Y-111373178D01*
X145794184Y-111430183D01*
X145790599Y-111462002D01*
X145790524Y-111467347D01*
X145790000Y-111472668D01*
X145790000Y-111504720D01*
X145789026Y-111574184D01*
X145790000Y-111579467D01*
X145790001Y-113575991D01*
X142571515Y-116794478D01*
X142509377Y-116794478D01*
X142309418Y-116834252D01*
X142121060Y-116912273D01*
X141951542Y-117025541D01*
X141807379Y-117169704D01*
X141694111Y-117339222D01*
X141616090Y-117527580D01*
X141576316Y-117727539D01*
X141576316Y-117931417D01*
X141616090Y-118131376D01*
X141694111Y-118319734D01*
X141807379Y-118489252D01*
X141854708Y-118536581D01*
X141833563Y-118557726D01*
X141720295Y-118727244D01*
X141642274Y-118915602D01*
X141602500Y-119115561D01*
X141602500Y-119319439D01*
X141642274Y-119519398D01*
X141720295Y-119707756D01*
X141833563Y-119877274D01*
X141977726Y-120021437D01*
X142147244Y-120134705D01*
X142335602Y-120212726D01*
X142535561Y-120252500D01*
X142739439Y-120252500D01*
X142939398Y-120212726D01*
X143127756Y-120134705D01*
X143297274Y-120021437D01*
X143441437Y-119877274D01*
X143554705Y-119707756D01*
X143632726Y-119519398D01*
X143672500Y-119319439D01*
X143672500Y-119257301D01*
X146705688Y-116224113D01*
X161215000Y-116224113D01*
X161215000Y-116695887D01*
X161307039Y-117158596D01*
X161487579Y-117594458D01*
X161749682Y-117986723D01*
X162083277Y-118320318D01*
X162475542Y-118582421D01*
X162911404Y-118762961D01*
X163374113Y-118855000D01*
X163845887Y-118855000D01*
X164308596Y-118762961D01*
X164744458Y-118582421D01*
X165136723Y-118320318D01*
X165470318Y-117986723D01*
X165732421Y-117594458D01*
X165912961Y-117158596D01*
X166005000Y-116695887D01*
X166005000Y-116224113D01*
X165912961Y-115761404D01*
X165732421Y-115325542D01*
X165470318Y-114933277D01*
X165136723Y-114599682D01*
X164744458Y-114337579D01*
X164308596Y-114157039D01*
X163845887Y-114065000D01*
X163374113Y-114065000D01*
X162911404Y-114157039D01*
X162475542Y-114337579D01*
X162083277Y-114599682D01*
X161749682Y-114933277D01*
X161487579Y-115325542D01*
X161307039Y-115761404D01*
X161215000Y-116224113D01*
X146705688Y-116224113D01*
X148431004Y-114498798D01*
X148460001Y-114475001D01*
X148520078Y-114401797D01*
X148554974Y-114359277D01*
X148625546Y-114227247D01*
X148631676Y-114207039D01*
X148669003Y-114083986D01*
X148680000Y-113972333D01*
X148680000Y-113972324D01*
X148683676Y-113935001D01*
X148680000Y-113897678D01*
X148680000Y-108818061D01*
X165315000Y-108818061D01*
X165315000Y-109021939D01*
X165354774Y-109221898D01*
X165432795Y-109410256D01*
X165546063Y-109579774D01*
X165690226Y-109723937D01*
X165859744Y-109837205D01*
X166048102Y-109915226D01*
X166248061Y-109955000D01*
X166451939Y-109955000D01*
X166651898Y-109915226D01*
X166840256Y-109837205D01*
X167009774Y-109723937D01*
X167153937Y-109579774D01*
X167267205Y-109410256D01*
X167345226Y-109221898D01*
X167385000Y-109021939D01*
X167385000Y-108818061D01*
X167345226Y-108618102D01*
X167267205Y-108429744D01*
X167153937Y-108260226D01*
X167009774Y-108116063D01*
X166840256Y-108002795D01*
X166651898Y-107924774D01*
X166451939Y-107885000D01*
X166248061Y-107885000D01*
X166048102Y-107924774D01*
X165859744Y-108002795D01*
X165690226Y-108116063D01*
X165546063Y-108260226D01*
X165432795Y-108429744D01*
X165354774Y-108618102D01*
X165315000Y-108818061D01*
X148680000Y-108818061D01*
X148680000Y-97320000D01*
X148951928Y-97320000D01*
X148951928Y-99020000D01*
X148964188Y-99144482D01*
X149000498Y-99264180D01*
X149059463Y-99374494D01*
X149138815Y-99471185D01*
X149235506Y-99550537D01*
X149345820Y-99609502D01*
X149465518Y-99645812D01*
X149590000Y-99658072D01*
X151290000Y-99658072D01*
X151414482Y-99645812D01*
X151534180Y-99609502D01*
X151644494Y-99550537D01*
X151741185Y-99471185D01*
X151820537Y-99374494D01*
X151879502Y-99264180D01*
X151901513Y-99191620D01*
X152033368Y-99323475D01*
X152276589Y-99485990D01*
X152546842Y-99597932D01*
X152833740Y-99655000D01*
X153126260Y-99655000D01*
X153413158Y-99597932D01*
X153683411Y-99485990D01*
X153926632Y-99323475D01*
X154133475Y-99116632D01*
X154255195Y-98934466D01*
X154324822Y-99051355D01*
X154519731Y-99267588D01*
X154753080Y-99441641D01*
X155015901Y-99566825D01*
X155163110Y-99611476D01*
X155393000Y-99490155D01*
X155393000Y-98297000D01*
X155373000Y-98297000D01*
X155373000Y-98043000D01*
X155393000Y-98043000D01*
X155393000Y-96849845D01*
X155163110Y-96728524D01*
X155015901Y-96773175D01*
X154753080Y-96898359D01*
X154519731Y-97072412D01*
X154324822Y-97288645D01*
X154255195Y-97405534D01*
X154133475Y-97223368D01*
X153926632Y-97016525D01*
X153683411Y-96854010D01*
X153413158Y-96742068D01*
X153126260Y-96685000D01*
X152833740Y-96685000D01*
X152546842Y-96742068D01*
X152276589Y-96854010D01*
X152033368Y-97016525D01*
X151901513Y-97148380D01*
X151879502Y-97075820D01*
X151820537Y-96965506D01*
X151741185Y-96868815D01*
X151644494Y-96789463D01*
X151534180Y-96730498D01*
X151414482Y-96694188D01*
X151290000Y-96681928D01*
X149590000Y-96681928D01*
X149465518Y-96694188D01*
X149345820Y-96730498D01*
X149235506Y-96789463D01*
X149138815Y-96868815D01*
X149059463Y-96965506D01*
X149000498Y-97075820D01*
X148964188Y-97195518D01*
X148951928Y-97320000D01*
X148680000Y-97320000D01*
X148680000Y-96663711D01*
X148723937Y-96619774D01*
X148837205Y-96450256D01*
X148915226Y-96261898D01*
X148955000Y-96061939D01*
X148955000Y-95858061D01*
X148915226Y-95658102D01*
X148837205Y-95469744D01*
X148774848Y-95376420D01*
X150224255Y-95376420D01*
X150238962Y-95436929D01*
X150252367Y-95499707D01*
X150271433Y-95543973D01*
X150276014Y-95557063D01*
X150288706Y-95603558D01*
X150317367Y-95660997D01*
X150344406Y-95719219D01*
X150372842Y-95758128D01*
X150380217Y-95769866D01*
X150402936Y-95812369D01*
X150443666Y-95861998D01*
X150482979Y-95912738D01*
X150519355Y-95944339D01*
X150529167Y-95954152D01*
X150560768Y-95990527D01*
X150611508Y-96029840D01*
X150661137Y-96070569D01*
X150703629Y-96093282D01*
X150715380Y-96100665D01*
X150754287Y-96129100D01*
X150812509Y-96156139D01*
X150869948Y-96184800D01*
X150916443Y-96197492D01*
X150929527Y-96202070D01*
X150973789Y-96221136D01*
X151036571Y-96234542D01*
X151098947Y-96249703D01*
X151147105Y-96251731D01*
X151160880Y-96253283D01*
X151208278Y-96262021D01*
X151272460Y-96261120D01*
X151336643Y-96262021D01*
X151384038Y-96253283D01*
X151397815Y-96251731D01*
X151445973Y-96249703D01*
X151508362Y-96234539D01*
X151571130Y-96221135D01*
X151615386Y-96202073D01*
X151628476Y-96197492D01*
X151674971Y-96184800D01*
X151732410Y-96156139D01*
X151790632Y-96129100D01*
X151829541Y-96100664D01*
X151841279Y-96093289D01*
X151872460Y-96076622D01*
X151903629Y-96093282D01*
X151915380Y-96100665D01*
X151954287Y-96129100D01*
X152012509Y-96156139D01*
X152069948Y-96184800D01*
X152116443Y-96197492D01*
X152129527Y-96202070D01*
X152173789Y-96221136D01*
X152236571Y-96234542D01*
X152298947Y-96249703D01*
X152347105Y-96251731D01*
X152360880Y-96253283D01*
X152408278Y-96262021D01*
X152472460Y-96261120D01*
X152536643Y-96262021D01*
X152584038Y-96253283D01*
X152597815Y-96251731D01*
X152645973Y-96249703D01*
X152708362Y-96234539D01*
X152771130Y-96221135D01*
X152815386Y-96202073D01*
X152828476Y-96197492D01*
X152874971Y-96184800D01*
X152932410Y-96156139D01*
X152990632Y-96129100D01*
X153029541Y-96100664D01*
X153041279Y-96093289D01*
X153083782Y-96070570D01*
X153133411Y-96029840D01*
X153184151Y-95990527D01*
X153215752Y-95954151D01*
X153225565Y-95944339D01*
X153261940Y-95912738D01*
X153301253Y-95861998D01*
X153341982Y-95812369D01*
X153364695Y-95769877D01*
X153372078Y-95758126D01*
X153400513Y-95719219D01*
X153427552Y-95660997D01*
X153456213Y-95603558D01*
X153468905Y-95557063D01*
X153473484Y-95543976D01*
X153492548Y-95499718D01*
X153505953Y-95436942D01*
X153521116Y-95374559D01*
X153521475Y-95366026D01*
X153535653Y-95366623D01*
X153592683Y-95372240D01*
X153624472Y-95375821D01*
X153629804Y-95375896D01*
X153635127Y-95376420D01*
X153667219Y-95376420D01*
X153736655Y-95377393D01*
X153741932Y-95376420D01*
X159280679Y-95376420D01*
X159840000Y-95935742D01*
X159840000Y-96891821D01*
X159653368Y-97016525D01*
X159446525Y-97223368D01*
X159330000Y-97397760D01*
X159213475Y-97223368D01*
X159006632Y-97016525D01*
X158763411Y-96854010D01*
X158493158Y-96742068D01*
X158206260Y-96685000D01*
X157913740Y-96685000D01*
X157626842Y-96742068D01*
X157356589Y-96854010D01*
X157113368Y-97016525D01*
X156906525Y-97223368D01*
X156784805Y-97405534D01*
X156715178Y-97288645D01*
X156520269Y-97072412D01*
X156286920Y-96898359D01*
X156024099Y-96773175D01*
X155876890Y-96728524D01*
X155647000Y-96849845D01*
X155647000Y-98043000D01*
X155667000Y-98043000D01*
X155667000Y-98297000D01*
X155647000Y-98297000D01*
X155647000Y-99490155D01*
X155876890Y-99611476D01*
X156024099Y-99566825D01*
X156286920Y-99441641D01*
X156520269Y-99267588D01*
X156715178Y-99051355D01*
X156784805Y-98934466D01*
X156906525Y-99116632D01*
X157113368Y-99323475D01*
X157356589Y-99485990D01*
X157626842Y-99597932D01*
X157913740Y-99655000D01*
X158206260Y-99655000D01*
X158493158Y-99597932D01*
X158763411Y-99485990D01*
X159006632Y-99323475D01*
X159213475Y-99116632D01*
X159330000Y-98942240D01*
X159446525Y-99116632D01*
X159653368Y-99323475D01*
X159896589Y-99485990D01*
X160166842Y-99597932D01*
X160453740Y-99655000D01*
X160746260Y-99655000D01*
X161033158Y-99597932D01*
X161303411Y-99485990D01*
X161546632Y-99323475D01*
X161753475Y-99116632D01*
X161870000Y-98942240D01*
X161986525Y-99116632D01*
X162193368Y-99323475D01*
X162436589Y-99485990D01*
X162706842Y-99597932D01*
X162993740Y-99655000D01*
X163286260Y-99655000D01*
X163573158Y-99597932D01*
X163843411Y-99485990D01*
X164086632Y-99323475D01*
X164293475Y-99116632D01*
X164410000Y-98942240D01*
X164526525Y-99116632D01*
X164733368Y-99323475D01*
X164976589Y-99485990D01*
X165246842Y-99597932D01*
X165533740Y-99655000D01*
X165826260Y-99655000D01*
X166113158Y-99597932D01*
X166383411Y-99485990D01*
X166626632Y-99323475D01*
X166833475Y-99116632D01*
X166950000Y-98942240D01*
X167066525Y-99116632D01*
X167273368Y-99323475D01*
X167516589Y-99485990D01*
X167786842Y-99597932D01*
X168073740Y-99655000D01*
X168366260Y-99655000D01*
X168653158Y-99597932D01*
X168923411Y-99485990D01*
X169166632Y-99323475D01*
X169373475Y-99116632D01*
X169535990Y-98873411D01*
X169647932Y-98603158D01*
X169705000Y-98316260D01*
X169705000Y-98023740D01*
X169647932Y-97736842D01*
X169535990Y-97466589D01*
X169373475Y-97223368D01*
X169166632Y-97016525D01*
X168923411Y-96854010D01*
X168653158Y-96742068D01*
X168366260Y-96685000D01*
X168073740Y-96685000D01*
X167786842Y-96742068D01*
X167516589Y-96854010D01*
X167273368Y-97016525D01*
X167066525Y-97223368D01*
X166950000Y-97397760D01*
X166833475Y-97223368D01*
X166626632Y-97016525D01*
X166383411Y-96854010D01*
X166113158Y-96742068D01*
X165826260Y-96685000D01*
X165533740Y-96685000D01*
X165246842Y-96742068D01*
X164976589Y-96854010D01*
X164733368Y-97016525D01*
X164526525Y-97223368D01*
X164410000Y-97397760D01*
X164293475Y-97223368D01*
X164086632Y-97016525D01*
X163843411Y-96854010D01*
X163573158Y-96742068D01*
X163286260Y-96685000D01*
X162993740Y-96685000D01*
X162706842Y-96742068D01*
X162436589Y-96854010D01*
X162193368Y-97016525D01*
X161986525Y-97223368D01*
X161870000Y-97397760D01*
X161753475Y-97223368D01*
X161546632Y-97016525D01*
X161360000Y-96891822D01*
X161360000Y-95658263D01*
X161363676Y-95620940D01*
X161360000Y-95583617D01*
X161360000Y-95583607D01*
X161349003Y-95471954D01*
X161305546Y-95328693D01*
X161234974Y-95196664D01*
X161140001Y-95080939D01*
X161111004Y-95057142D01*
X160159284Y-94105422D01*
X160135481Y-94076419D01*
X160019756Y-93981446D01*
X159887727Y-93910874D01*
X159744466Y-93867417D01*
X159632813Y-93856420D01*
X159632802Y-93856420D01*
X159595480Y-93852744D01*
X159558158Y-93856420D01*
X154120664Y-93856420D01*
X154105953Y-93795898D01*
X154092548Y-93733122D01*
X154073484Y-93688864D01*
X154068905Y-93675777D01*
X154056213Y-93629282D01*
X154027552Y-93571843D01*
X154000513Y-93513621D01*
X153972078Y-93474714D01*
X153964695Y-93462963D01*
X153941982Y-93420471D01*
X153901253Y-93370842D01*
X153861940Y-93320102D01*
X153825565Y-93288501D01*
X153815752Y-93278689D01*
X153784151Y-93242313D01*
X153781166Y-93240000D01*
X154116289Y-93240000D01*
X154160226Y-93283937D01*
X154329744Y-93397205D01*
X154518102Y-93475226D01*
X154718061Y-93515000D01*
X154921939Y-93515000D01*
X155121898Y-93475226D01*
X155310256Y-93397205D01*
X155479774Y-93283937D01*
X155623937Y-93139774D01*
X155737205Y-92970256D01*
X155815226Y-92781898D01*
X155855000Y-92581939D01*
X155855000Y-92378061D01*
X155815226Y-92178102D01*
X155737205Y-91989744D01*
X155623937Y-91820226D01*
X155479774Y-91676063D01*
X155343488Y-91585000D01*
X168049156Y-91585000D01*
X168084606Y-91620450D01*
X168278692Y-91750134D01*
X168494348Y-91839461D01*
X168723288Y-91885000D01*
X168956712Y-91885000D01*
X169185652Y-91839461D01*
X169401308Y-91750134D01*
X169595394Y-91620450D01*
X169760450Y-91455394D01*
X169890134Y-91261308D01*
X169979461Y-91045652D01*
X170025000Y-90816712D01*
X170025000Y-90583288D01*
X169979461Y-90354348D01*
X169890134Y-90138692D01*
X169760450Y-89944606D01*
X169595394Y-89779550D01*
X169401308Y-89649866D01*
X169185652Y-89560539D01*
X168956712Y-89515000D01*
X168723288Y-89515000D01*
X168494348Y-89560539D01*
X168278692Y-89649866D01*
X168084606Y-89779550D01*
X168049156Y-89815000D01*
X151089489Y-89815000D01*
X151020034Y-89768592D01*
X150804378Y-89679265D01*
X150575438Y-89633726D01*
X150530009Y-89633726D01*
X150402786Y-89529316D01*
X150249040Y-89447138D01*
X150082217Y-89396532D01*
X149952204Y-89383727D01*
X149952196Y-89383727D01*
X149908727Y-89379446D01*
X149865258Y-89383727D01*
X135484738Y-89383727D01*
X135441272Y-89379446D01*
X135397806Y-89383727D01*
X135397796Y-89383727D01*
X135267783Y-89396532D01*
X135100960Y-89447138D01*
X134947214Y-89529316D01*
X134947212Y-89529317D01*
X134947213Y-89529317D01*
X134846226Y-89612195D01*
X134846224Y-89612197D01*
X134812456Y-89639910D01*
X134784743Y-89673678D01*
X128364952Y-96093470D01*
X128331184Y-96121183D01*
X128303471Y-96154951D01*
X128303468Y-96154954D01*
X128220590Y-96255941D01*
X128138412Y-96409687D01*
X128087805Y-96576510D01*
X128084065Y-96614482D01*
X127985518Y-96624188D01*
X127865820Y-96660498D01*
X127755506Y-96719463D01*
X127658815Y-96798815D01*
X127579463Y-96895506D01*
X127520498Y-97005820D01*
X127484188Y-97125518D01*
X127471928Y-97250000D01*
X124315857Y-97250000D01*
X124307127Y-72034335D01*
X124565000Y-72034335D01*
X124565000Y-72705664D01*
X124582870Y-72887101D01*
X124653489Y-73119900D01*
X124768167Y-73334448D01*
X124922498Y-73522502D01*
X125110551Y-73676833D01*
X125325099Y-73791511D01*
X125557898Y-73862130D01*
X125800000Y-73885975D01*
X126042101Y-73862130D01*
X126274900Y-73791511D01*
X126489448Y-73676833D01*
X126643309Y-73550564D01*
X126669463Y-73599494D01*
X126748815Y-73696185D01*
X126845506Y-73775537D01*
X126955820Y-73834502D01*
X127075518Y-73870812D01*
X127200000Y-73883072D01*
X127514250Y-73880000D01*
X127673000Y-73721250D01*
X127673000Y-72497000D01*
X127927000Y-72497000D01*
X127927000Y-73721250D01*
X128085750Y-73880000D01*
X128400000Y-73883072D01*
X128524482Y-73870812D01*
X128644180Y-73834502D01*
X128754494Y-73775537D01*
X128851185Y-73696185D01*
X128930537Y-73599494D01*
X128989502Y-73489180D01*
X129025812Y-73369482D01*
X129038072Y-73245000D01*
X129036363Y-72917000D01*
X144145000Y-72917000D01*
X144145000Y-73417000D01*
X144190144Y-73621355D01*
X144274288Y-73812977D01*
X144394199Y-73984501D01*
X144545269Y-74129336D01*
X144721692Y-74241916D01*
X144914938Y-74309540D01*
X145078000Y-74182257D01*
X145078000Y-72917000D01*
X145332000Y-72917000D01*
X145332000Y-74182257D01*
X145495062Y-74309540D01*
X145688308Y-74241916D01*
X145864731Y-74129336D01*
X146015801Y-73984501D01*
X146135712Y-73812977D01*
X146219856Y-73621355D01*
X146265000Y-73417000D01*
X146265000Y-72917000D01*
X145332000Y-72917000D01*
X145078000Y-72917000D01*
X144145000Y-72917000D01*
X129036363Y-72917000D01*
X129035000Y-72655750D01*
X128876250Y-72497000D01*
X127927000Y-72497000D01*
X127673000Y-72497000D01*
X127653000Y-72497000D01*
X127653000Y-72243000D01*
X127673000Y-72243000D01*
X127673000Y-71018750D01*
X127927000Y-71018750D01*
X127927000Y-72243000D01*
X128876250Y-72243000D01*
X129035000Y-72084250D01*
X129038072Y-71495000D01*
X129025812Y-71370518D01*
X128989502Y-71250820D01*
X128930537Y-71140506D01*
X128851185Y-71043815D01*
X128754494Y-70964463D01*
X128644180Y-70905498D01*
X128524482Y-70869188D01*
X128400000Y-70856928D01*
X128085750Y-70860000D01*
X127927000Y-71018750D01*
X127673000Y-71018750D01*
X127514250Y-70860000D01*
X127200000Y-70856928D01*
X127075518Y-70869188D01*
X126955820Y-70905498D01*
X126845506Y-70964463D01*
X126748815Y-71043815D01*
X126669463Y-71140506D01*
X126643309Y-71189436D01*
X126489449Y-71063167D01*
X126274901Y-70948489D01*
X126042102Y-70877870D01*
X125800000Y-70854025D01*
X125557899Y-70877870D01*
X125325100Y-70948489D01*
X125110552Y-71063167D01*
X124922499Y-71217498D01*
X124768168Y-71405551D01*
X124653489Y-71620099D01*
X124582870Y-71852898D01*
X124565000Y-72034335D01*
X124307127Y-72034335D01*
X124305237Y-66575000D01*
X129896353Y-66575000D01*
X129930000Y-66578314D01*
X130064283Y-66565088D01*
X130193406Y-66525919D01*
X130312407Y-66462312D01*
X130416711Y-66376711D01*
X130502312Y-66272407D01*
X130565919Y-66153406D01*
X130605088Y-66024283D01*
X130612984Y-65944113D01*
X131755000Y-65944113D01*
X131755000Y-66415887D01*
X131847039Y-66878596D01*
X132027579Y-67314458D01*
X132289682Y-67706723D01*
X132623277Y-68040318D01*
X133015542Y-68302421D01*
X133451404Y-68482961D01*
X133914113Y-68575000D01*
X134385887Y-68575000D01*
X134848596Y-68482961D01*
X135284458Y-68302421D01*
X135676723Y-68040318D01*
X136010318Y-67706723D01*
X136272421Y-67314458D01*
X136452961Y-66878596D01*
X136545000Y-66415887D01*
X136545000Y-65944113D01*
X136452961Y-65481404D01*
X136445458Y-65463288D01*
X141865000Y-65463288D01*
X141865000Y-65696712D01*
X141910539Y-65925652D01*
X141999866Y-66141308D01*
X142129550Y-66335394D01*
X142165000Y-66370844D01*
X142165001Y-67637921D01*
X142160719Y-67681400D01*
X142177805Y-67854890D01*
X142228412Y-68021713D01*
X142310590Y-68175459D01*
X142393468Y-68276446D01*
X142393471Y-68276449D01*
X142421184Y-68310217D01*
X142454951Y-68337929D01*
X143689565Y-69572544D01*
X143790552Y-69655422D01*
X143846424Y-69685286D01*
X143780539Y-69844348D01*
X143735000Y-70073288D01*
X143735000Y-70306712D01*
X143780539Y-70535652D01*
X143869866Y-70751308D01*
X143999550Y-70945394D01*
X144164606Y-71110450D01*
X144358692Y-71240134D01*
X144574348Y-71329461D01*
X144696979Y-71353854D01*
X144545269Y-71450664D01*
X144394199Y-71595499D01*
X144274288Y-71767023D01*
X144190144Y-71958645D01*
X144145000Y-72163000D01*
X144145000Y-72663000D01*
X145078000Y-72663000D01*
X145078000Y-72643000D01*
X145332000Y-72643000D01*
X145332000Y-72663000D01*
X146265000Y-72663000D01*
X146265000Y-72163000D01*
X146219856Y-71958645D01*
X146135712Y-71767023D01*
X146015801Y-71595499D01*
X145864731Y-71450664D01*
X145688308Y-71338084D01*
X145495062Y-71270460D01*
X145332002Y-71397741D01*
X145332002Y-71301978D01*
X145481308Y-71240134D01*
X145675394Y-71110450D01*
X145710844Y-71075000D01*
X146133422Y-71075000D01*
X146595001Y-71536579D01*
X146595001Y-71715648D01*
X146529463Y-71795506D01*
X146470498Y-71905820D01*
X146434188Y-72025518D01*
X146421928Y-72150000D01*
X146421928Y-72990000D01*
X146434188Y-73114482D01*
X146470498Y-73234180D01*
X146529463Y-73344494D01*
X146608815Y-73441185D01*
X146705506Y-73520537D01*
X146815820Y-73579502D01*
X146935518Y-73615812D01*
X147060000Y-73628072D01*
X147075000Y-73628072D01*
X147075000Y-73673908D01*
X147115543Y-73877732D01*
X147195071Y-74069730D01*
X147310528Y-74242523D01*
X147457477Y-74389472D01*
X147630270Y-74504929D01*
X147822268Y-74584457D01*
X148026092Y-74625000D01*
X148233908Y-74625000D01*
X148437732Y-74584457D01*
X148629730Y-74504929D01*
X148780000Y-74404521D01*
X148930270Y-74504929D01*
X149122268Y-74584457D01*
X149326092Y-74625000D01*
X149533908Y-74625000D01*
X149737732Y-74584457D01*
X149929730Y-74504929D01*
X150102523Y-74389472D01*
X150249472Y-74242523D01*
X150364929Y-74069730D01*
X150444457Y-73877732D01*
X150485000Y-73673908D01*
X150485000Y-73544364D01*
X150563428Y-73513462D01*
X150595881Y-73496115D01*
X150621193Y-73290798D01*
X150292968Y-72962573D01*
X150249472Y-72897477D01*
X150102523Y-72750528D01*
X149952185Y-72650075D01*
X149886253Y-72584143D01*
X149900395Y-72570000D01*
X150259605Y-72570000D01*
X150800798Y-73111193D01*
X151006115Y-73085881D01*
X151079526Y-72917000D01*
X151295000Y-72917000D01*
X151295000Y-73417000D01*
X151340144Y-73621355D01*
X151424288Y-73812977D01*
X151544199Y-73984501D01*
X151695269Y-74129336D01*
X151871692Y-74241916D01*
X152064938Y-74309540D01*
X152228000Y-74182257D01*
X152228000Y-72917000D01*
X152482000Y-72917000D01*
X152482000Y-74182257D01*
X152645062Y-74309540D01*
X152838308Y-74241916D01*
X153014731Y-74129336D01*
X153165801Y-73984501D01*
X153285712Y-73812977D01*
X153369856Y-73621355D01*
X153415000Y-73417000D01*
X153415000Y-72917000D01*
X152482000Y-72917000D01*
X152228000Y-72917000D01*
X151295000Y-72917000D01*
X151079526Y-72917000D01*
X151088963Y-72895292D01*
X151133038Y-72692204D01*
X151136645Y-72484418D01*
X151099646Y-72279921D01*
X151053577Y-72163000D01*
X151295000Y-72163000D01*
X151295000Y-72663000D01*
X152228000Y-72663000D01*
X152228000Y-71397743D01*
X152482000Y-71397743D01*
X152482000Y-72663000D01*
X153415000Y-72663000D01*
X153415000Y-72163000D01*
X153369856Y-71958645D01*
X153285712Y-71767023D01*
X153165801Y-71595499D01*
X153014731Y-71450664D01*
X152838308Y-71338084D01*
X152645062Y-71270460D01*
X152482000Y-71397743D01*
X152228000Y-71397743D01*
X152064938Y-71270460D01*
X151871692Y-71338084D01*
X151695269Y-71450664D01*
X151544199Y-71595499D01*
X151424288Y-71767023D01*
X151340144Y-71958645D01*
X151295000Y-72163000D01*
X151053577Y-72163000D01*
X151023462Y-72086572D01*
X151006115Y-72054119D01*
X150800798Y-72028807D01*
X150259605Y-72570000D01*
X149900395Y-72570000D01*
X149886253Y-72555858D01*
X150065858Y-72376253D01*
X150080000Y-72390395D01*
X150621193Y-71849202D01*
X150595881Y-71643885D01*
X150405292Y-71561037D01*
X150202204Y-71516962D01*
X149994418Y-71513355D01*
X149789921Y-71550354D01*
X149596572Y-71626538D01*
X149564119Y-71643885D01*
X149540167Y-71838172D01*
X149452523Y-71750528D01*
X149279730Y-71635071D01*
X149087732Y-71555543D01*
X148883908Y-71515000D01*
X148676092Y-71515000D01*
X148472268Y-71555543D01*
X148365000Y-71599975D01*
X148365000Y-71213465D01*
X148369281Y-71169999D01*
X148365000Y-71126533D01*
X148365000Y-71126523D01*
X148352195Y-70996510D01*
X148301589Y-70829687D01*
X148219411Y-70675941D01*
X148108817Y-70541183D01*
X148075049Y-70513470D01*
X147643364Y-70081785D01*
X147775644Y-70055473D01*
X147991300Y-69966146D01*
X148185386Y-69836462D01*
X148350442Y-69671406D01*
X148480126Y-69477320D01*
X148569453Y-69261664D01*
X148614992Y-69032724D01*
X148614992Y-68923288D01*
X152475000Y-68923288D01*
X152475000Y-69156712D01*
X152520539Y-69385652D01*
X152609866Y-69601308D01*
X152739550Y-69795394D01*
X152904606Y-69960450D01*
X153098692Y-70090134D01*
X153314348Y-70179461D01*
X153543288Y-70225000D01*
X153776712Y-70225000D01*
X154005652Y-70179461D01*
X154221308Y-70090134D01*
X154415394Y-69960450D01*
X154483844Y-69892000D01*
X156436156Y-69892000D01*
X156534606Y-69990450D01*
X156728692Y-70120134D01*
X156944348Y-70209461D01*
X157173288Y-70255000D01*
X157406712Y-70255000D01*
X157635652Y-70209461D01*
X157851308Y-70120134D01*
X158045394Y-69990450D01*
X158210450Y-69825394D01*
X158340134Y-69631308D01*
X158429461Y-69415652D01*
X158475000Y-69186712D01*
X158475000Y-68953288D01*
X158429461Y-68724348D01*
X158340134Y-68508692D01*
X158210450Y-68314606D01*
X158045394Y-68149550D01*
X157851308Y-68019866D01*
X157635652Y-67930539D01*
X157406712Y-67885000D01*
X157173288Y-67885000D01*
X156944348Y-67930539D01*
X156728692Y-68019866D01*
X156575838Y-68122000D01*
X154417844Y-68122000D01*
X154415394Y-68119550D01*
X154221308Y-67989866D01*
X154005652Y-67900539D01*
X153776712Y-67855000D01*
X153543288Y-67855000D01*
X153314348Y-67900539D01*
X153098692Y-67989866D01*
X152904606Y-68119550D01*
X152739550Y-68284606D01*
X152609866Y-68478692D01*
X152520539Y-68694348D01*
X152475000Y-68923288D01*
X148614992Y-68923288D01*
X148614992Y-68799300D01*
X148569453Y-68570360D01*
X148480126Y-68354704D01*
X148350442Y-68160618D01*
X148185386Y-67995562D01*
X147991300Y-67865878D01*
X147775644Y-67776551D01*
X147546704Y-67731012D01*
X147313280Y-67731012D01*
X147084340Y-67776551D01*
X146868684Y-67865878D01*
X146674598Y-67995562D01*
X146639148Y-68031012D01*
X144651191Y-68031012D01*
X143935000Y-67314822D01*
X143935000Y-66370844D01*
X143970450Y-66335394D01*
X144100134Y-66141308D01*
X144189461Y-65925652D01*
X144195734Y-65894113D01*
X161245000Y-65894113D01*
X161245000Y-66365887D01*
X161337039Y-66828596D01*
X161517579Y-67264458D01*
X161779682Y-67656723D01*
X162113277Y-67990318D01*
X162505542Y-68252421D01*
X162941404Y-68432961D01*
X163404113Y-68525000D01*
X163875887Y-68525000D01*
X164338596Y-68432961D01*
X164774458Y-68252421D01*
X165166723Y-67990318D01*
X165500318Y-67656723D01*
X165762421Y-67264458D01*
X165942961Y-66828596D01*
X166035000Y-66365887D01*
X166035000Y-65894113D01*
X165942961Y-65431404D01*
X165762421Y-64995542D01*
X165500318Y-64603277D01*
X165166723Y-64269682D01*
X164774458Y-64007579D01*
X164338596Y-63827039D01*
X163875887Y-63735000D01*
X163404113Y-63735000D01*
X162941404Y-63827039D01*
X162505542Y-64007579D01*
X162113277Y-64269682D01*
X161779682Y-64603277D01*
X161517579Y-64995542D01*
X161337039Y-65431404D01*
X161245000Y-65894113D01*
X144195734Y-65894113D01*
X144235000Y-65696712D01*
X144235000Y-65463288D01*
X144189461Y-65234348D01*
X144100134Y-65018692D01*
X143970450Y-64824606D01*
X143805394Y-64659550D01*
X143611308Y-64529866D01*
X143395652Y-64440539D01*
X143166712Y-64395000D01*
X142933288Y-64395000D01*
X142704348Y-64440539D01*
X142488692Y-64529866D01*
X142294606Y-64659550D01*
X142129550Y-64824606D01*
X141999866Y-65018692D01*
X141910539Y-65234348D01*
X141865000Y-65463288D01*
X136445458Y-65463288D01*
X136272421Y-65045542D01*
X136010318Y-64653277D01*
X135676723Y-64319682D01*
X135284458Y-64057579D01*
X134848596Y-63877039D01*
X134385887Y-63785000D01*
X133914113Y-63785000D01*
X133451404Y-63877039D01*
X133015542Y-64057579D01*
X132623277Y-64319682D01*
X132289682Y-64653277D01*
X132027579Y-65045542D01*
X131847039Y-65481404D01*
X131755000Y-65944113D01*
X130612984Y-65944113D01*
X130615000Y-65923647D01*
X130618314Y-65890000D01*
X130615000Y-65856353D01*
X130615000Y-63158061D01*
X141995000Y-63158061D01*
X141995000Y-63361939D01*
X142034774Y-63561898D01*
X142112795Y-63750256D01*
X142226063Y-63919774D01*
X142370226Y-64063937D01*
X142539744Y-64177205D01*
X142728102Y-64255226D01*
X142928061Y-64295000D01*
X143131939Y-64295000D01*
X143331898Y-64255226D01*
X143520256Y-64177205D01*
X143689774Y-64063937D01*
X143733711Y-64020000D01*
X147116289Y-64020000D01*
X147160226Y-64063937D01*
X147329744Y-64177205D01*
X147518102Y-64255226D01*
X147718061Y-64295000D01*
X147921939Y-64295000D01*
X148121898Y-64255226D01*
X148310256Y-64177205D01*
X148479774Y-64063937D01*
X148623937Y-63919774D01*
X148737205Y-63750256D01*
X148815226Y-63561898D01*
X148855000Y-63361939D01*
X148855000Y-63158061D01*
X148815226Y-62958102D01*
X148737205Y-62769744D01*
X148623937Y-62600226D01*
X148479774Y-62456063D01*
X148310256Y-62342795D01*
X148121898Y-62264774D01*
X147921939Y-62225000D01*
X147718061Y-62225000D01*
X147518102Y-62264774D01*
X147329744Y-62342795D01*
X147160226Y-62456063D01*
X147116289Y-62500000D01*
X143733711Y-62500000D01*
X143689774Y-62456063D01*
X143520256Y-62342795D01*
X143331898Y-62264774D01*
X143131939Y-62225000D01*
X142928061Y-62225000D01*
X142728102Y-62264774D01*
X142539744Y-62342795D01*
X142370226Y-62456063D01*
X142226063Y-62600226D01*
X142112795Y-62769744D01*
X142034774Y-62958102D01*
X141995000Y-63158061D01*
X130615000Y-63158061D01*
X130615000Y-59655000D01*
X131617217Y-59655000D01*
X131651718Y-59658311D01*
X131717684Y-59651648D01*
X131784283Y-59645088D01*
X131785112Y-59644836D01*
X131785968Y-59644750D01*
X131849426Y-59625327D01*
X131913406Y-59605919D01*
X131914170Y-59605511D01*
X131914992Y-59605259D01*
X131973398Y-59573853D01*
X132032407Y-59542312D01*
X132033077Y-59541762D01*
X132033834Y-59541355D01*
X132084997Y-59499152D01*
X132136711Y-59456711D01*
X132137261Y-59456041D01*
X132137924Y-59455494D01*
X132179891Y-59404096D01*
X132222312Y-59352407D01*
X132222720Y-59351643D01*
X132223265Y-59350976D01*
X132254405Y-59292365D01*
X132285919Y-59233406D01*
X132286171Y-59232576D01*
X132286574Y-59231817D01*
X132305696Y-59168211D01*
X132325088Y-59104283D01*
X132325173Y-59103423D01*
X132325421Y-59102597D01*
X132331759Y-59036556D01*
X132338314Y-58970000D01*
X132334915Y-58935491D01*
X132323825Y-54493740D01*
X152965000Y-54493740D01*
X152965000Y-54786260D01*
X153022068Y-55073158D01*
X153134010Y-55343411D01*
X153296525Y-55586632D01*
X153503368Y-55793475D01*
X153746589Y-55955990D01*
X154016842Y-56067932D01*
X154303740Y-56125000D01*
X154596260Y-56125000D01*
X154883158Y-56067932D01*
X155153411Y-55955990D01*
X155396632Y-55793475D01*
X155528487Y-55661620D01*
X155550498Y-55734180D01*
X155609463Y-55844494D01*
X155688815Y-55941185D01*
X155785506Y-56020537D01*
X155895820Y-56079502D01*
X156015518Y-56115812D01*
X156140000Y-56128072D01*
X157840000Y-56128072D01*
X157964482Y-56115812D01*
X158084180Y-56079502D01*
X158194494Y-56020537D01*
X158291185Y-55941185D01*
X158370537Y-55844494D01*
X158429502Y-55734180D01*
X158465812Y-55614482D01*
X158478072Y-55490000D01*
X158478072Y-53790000D01*
X158465812Y-53665518D01*
X158429502Y-53545820D01*
X158370537Y-53435506D01*
X158291185Y-53338815D01*
X158194494Y-53259463D01*
X158084180Y-53200498D01*
X157964482Y-53164188D01*
X157840000Y-53151928D01*
X156140000Y-53151928D01*
X156015518Y-53164188D01*
X155895820Y-53200498D01*
X155785506Y-53259463D01*
X155688815Y-53338815D01*
X155609463Y-53435506D01*
X155550498Y-53545820D01*
X155528487Y-53618380D01*
X155396632Y-53486525D01*
X155153411Y-53324010D01*
X154883158Y-53212068D01*
X154596260Y-53155000D01*
X154303740Y-53155000D01*
X154016842Y-53212068D01*
X153746589Y-53324010D01*
X153503368Y-53486525D01*
X153296525Y-53693368D01*
X153134010Y-53936589D01*
X153022068Y-54206842D01*
X152965000Y-54493740D01*
X132323825Y-54493740D01*
X132316712Y-51645000D01*
X165466709Y-51645000D01*
X165484920Y-58938489D01*
%TA.AperFunction,Conductor*%
D22*
G36*
X165484920Y-58938489D02*
G01*
X165481691Y-58972587D01*
X165488547Y-59039614D01*
X165495250Y-59105968D01*
X165495378Y-59106385D01*
X165495422Y-59106819D01*
X165515097Y-59170812D01*
X165534741Y-59234993D01*
X165534948Y-59235378D01*
X165535076Y-59235794D01*
X165566841Y-59294689D01*
X165598645Y-59353834D01*
X165598923Y-59354171D01*
X165599130Y-59354555D01*
X165641811Y-59406165D01*
X165684506Y-59457924D01*
X165684845Y-59458201D01*
X165685123Y-59458537D01*
X165736972Y-59500763D01*
X165789024Y-59543265D01*
X165789411Y-59543471D01*
X165789748Y-59543745D01*
X165848803Y-59575025D01*
X165908183Y-59606574D01*
X165908602Y-59606700D01*
X165908987Y-59606904D01*
X165973318Y-59626155D01*
X166037404Y-59645421D01*
X166037837Y-59645463D01*
X166038256Y-59645588D01*
X166105032Y-59651911D01*
X166171718Y-59658311D01*
X166205786Y-59654870D01*
X173464895Y-59627580D01*
X173455106Y-122975000D01*
X166163214Y-122975000D01*
X166129140Y-122971687D01*
X166062909Y-122978294D01*
X165995717Y-122984912D01*
X165995300Y-122985039D01*
X165994874Y-122985081D01*
X165931226Y-123004475D01*
X165866594Y-123024081D01*
X165866211Y-123024286D01*
X165865800Y-123024411D01*
X165807094Y-123055884D01*
X165747593Y-123087688D01*
X165747257Y-123087964D01*
X165746878Y-123088167D01*
X165695313Y-123130594D01*
X165643289Y-123173289D01*
X165643014Y-123173624D01*
X165642681Y-123173898D01*
X165600417Y-123225528D01*
X165557688Y-123277593D01*
X165557483Y-123277977D01*
X165557211Y-123278309D01*
X165526008Y-123336863D01*
X165494081Y-123396594D01*
X165493954Y-123397013D01*
X165493753Y-123397390D01*
X165474525Y-123461060D01*
X165454912Y-123525717D01*
X165454869Y-123526149D01*
X165454745Y-123526561D01*
X165448296Y-123592889D01*
X165441686Y-123660000D01*
X165445043Y-123694079D01*
X165446279Y-124682799D01*
X132331303Y-124673198D01*
X132334868Y-123726216D01*
X132338308Y-123692577D01*
X132330662Y-123611848D01*
X132325588Y-123558260D01*
X132325587Y-123558256D01*
X132325586Y-123558247D01*
X132303423Y-123484188D01*
X132286905Y-123428990D01*
X132286902Y-123428984D01*
X132286900Y-123428978D01*
X132253041Y-123365057D01*
X132223747Y-123309751D01*
X132223744Y-123309747D01*
X132223740Y-123309740D01*
X132177752Y-123253275D01*
X132138539Y-123205125D01*
X132138534Y-123205121D01*
X132138530Y-123205116D01*
X132094224Y-123168476D01*
X132034558Y-123119132D01*
X132034551Y-123119128D01*
X132034547Y-123119125D01*
X131952218Y-123074721D01*
X131915797Y-123055078D01*
X131915785Y-123055072D01*
X131825690Y-123027373D01*
X131786823Y-123015423D01*
X131786818Y-123015423D01*
X131786810Y-123015420D01*
X131686212Y-123005131D01*
X131686209Y-123005131D01*
X131652590Y-123001692D01*
X131618933Y-123004879D01*
X124324763Y-122977560D01*
X124319860Y-108813061D01*
X130295000Y-108813061D01*
X130295000Y-109016939D01*
X130334774Y-109216898D01*
X130412795Y-109405256D01*
X130526063Y-109574774D01*
X130670226Y-109718937D01*
X130839744Y-109832205D01*
X131028102Y-109910226D01*
X131228061Y-109950000D01*
X131431939Y-109950000D01*
X131631898Y-109910226D01*
X131820256Y-109832205D01*
X131989774Y-109718937D01*
X132133937Y-109574774D01*
X132247205Y-109405256D01*
X132325226Y-109216898D01*
X132365000Y-109016939D01*
X132365000Y-108813061D01*
X132325226Y-108613102D01*
X132247205Y-108424744D01*
X132133937Y-108255226D01*
X131989774Y-108111063D01*
X131820256Y-107997795D01*
X131631898Y-107919774D01*
X131431939Y-107880000D01*
X131228061Y-107880000D01*
X131028102Y-107919774D01*
X130839744Y-107997795D01*
X130670226Y-108111063D01*
X130526063Y-108255226D01*
X130412795Y-108424744D01*
X130334774Y-108613102D01*
X130295000Y-108813061D01*
X124319860Y-108813061D01*
X124315857Y-97250000D01*
X127471928Y-97250000D01*
X127471928Y-98950000D01*
X127484188Y-99074482D01*
X127520498Y-99194180D01*
X127579463Y-99304494D01*
X127658815Y-99401185D01*
X127755506Y-99480537D01*
X127865820Y-99539502D01*
X127985518Y-99575812D01*
X128110000Y-99588072D01*
X129810000Y-99588072D01*
X129934482Y-99575812D01*
X130054180Y-99539502D01*
X130164494Y-99480537D01*
X130261185Y-99401185D01*
X130340537Y-99304494D01*
X130399502Y-99194180D01*
X130421513Y-99121620D01*
X130553368Y-99253475D01*
X130796589Y-99415990D01*
X131066842Y-99527932D01*
X131353740Y-99585000D01*
X131646260Y-99585000D01*
X131933158Y-99527932D01*
X132203411Y-99415990D01*
X132446632Y-99253475D01*
X132653475Y-99046632D01*
X132775195Y-98864466D01*
X132844822Y-98981355D01*
X133039731Y-99197588D01*
X133273080Y-99371641D01*
X133535901Y-99496825D01*
X133683110Y-99541476D01*
X133913000Y-99420155D01*
X133913000Y-98227000D01*
X133893000Y-98227000D01*
X133893000Y-97973000D01*
X133913000Y-97973000D01*
X133913000Y-96779845D01*
X133683110Y-96658524D01*
X133535901Y-96703175D01*
X133273080Y-96828359D01*
X133039731Y-97002412D01*
X132844822Y-97218645D01*
X132775195Y-97335534D01*
X132653475Y-97153368D01*
X132446632Y-96946525D01*
X132203411Y-96784010D01*
X131933158Y-96672068D01*
X131646260Y-96615000D01*
X131353740Y-96615000D01*
X131066842Y-96672068D01*
X130796589Y-96784010D01*
X130553368Y-96946525D01*
X130421513Y-97078380D01*
X130399502Y-97005820D01*
X130340537Y-96895506D01*
X130261185Y-96798815D01*
X130207127Y-96754451D01*
X135807852Y-91153727D01*
X149317146Y-91153727D01*
X149319265Y-91164378D01*
X149408592Y-91380034D01*
X149538276Y-91574120D01*
X149684156Y-91720000D01*
X138957325Y-91720000D01*
X138920000Y-91716324D01*
X138882675Y-91720000D01*
X138882667Y-91720000D01*
X138771014Y-91730997D01*
X138627753Y-91774454D01*
X138495724Y-91845026D01*
X138379999Y-91939999D01*
X138356201Y-91968997D01*
X136068998Y-94256201D01*
X136040000Y-94279999D01*
X136016202Y-94308997D01*
X136016201Y-94308998D01*
X135945026Y-94395724D01*
X135874454Y-94527754D01*
X135845133Y-94624417D01*
X135830998Y-94671014D01*
X135820910Y-94773436D01*
X135816324Y-94820000D01*
X135820001Y-94857332D01*
X135820000Y-96821821D01*
X135633368Y-96946525D01*
X135426525Y-97153368D01*
X135304805Y-97335534D01*
X135235178Y-97218645D01*
X135040269Y-97002412D01*
X134806920Y-96828359D01*
X134544099Y-96703175D01*
X134396890Y-96658524D01*
X134167000Y-96779845D01*
X134167000Y-97973000D01*
X134187000Y-97973000D01*
X134187000Y-98227000D01*
X134167000Y-98227000D01*
X134167000Y-99420155D01*
X134396890Y-99541476D01*
X134544099Y-99496825D01*
X134806920Y-99371641D01*
X135040269Y-99197588D01*
X135235178Y-98981355D01*
X135304805Y-98864466D01*
X135426525Y-99046632D01*
X135633368Y-99253475D01*
X135820001Y-99378179D01*
X135820001Y-100532668D01*
X135816324Y-100570000D01*
X135820001Y-100607333D01*
X135830998Y-100718986D01*
X135840649Y-100750801D01*
X135874454Y-100862246D01*
X135945026Y-100994276D01*
X136004132Y-101066296D01*
X136040000Y-101110001D01*
X136068998Y-101133799D01*
X136460000Y-101524802D01*
X136460001Y-115947342D01*
X136432961Y-115811404D01*
X136252421Y-115375542D01*
X135990318Y-114983277D01*
X135656723Y-114649682D01*
X135264458Y-114387579D01*
X134828596Y-114207039D01*
X134365887Y-114115000D01*
X133894113Y-114115000D01*
X133431404Y-114207039D01*
X132995542Y-114387579D01*
X132603277Y-114649682D01*
X132269682Y-114983277D01*
X132007579Y-115375542D01*
X131827039Y-115811404D01*
X131735000Y-116274113D01*
X131735000Y-116745887D01*
X131827039Y-117208596D01*
X132007579Y-117644458D01*
X132269682Y-118036723D01*
X132603277Y-118370318D01*
X132995542Y-118632421D01*
X133431404Y-118812961D01*
X133894113Y-118905000D01*
X134365887Y-118905000D01*
X134828596Y-118812961D01*
X135264458Y-118632421D01*
X135656723Y-118370318D01*
X135990318Y-118036723D01*
X136252421Y-117644458D01*
X136432961Y-117208596D01*
X136460001Y-117072658D01*
X136460001Y-117546288D01*
X136446063Y-117560226D01*
X136332795Y-117729744D01*
X136254774Y-117918102D01*
X136215000Y-118118061D01*
X136215000Y-118321939D01*
X136254774Y-118521898D01*
X136332795Y-118710256D01*
X136446063Y-118879774D01*
X136590226Y-119023937D01*
X136759744Y-119137205D01*
X136948102Y-119215226D01*
X137148061Y-119255000D01*
X137351939Y-119255000D01*
X137551898Y-119215226D01*
X137740256Y-119137205D01*
X137909774Y-119023937D01*
X138053937Y-118879774D01*
X138167205Y-118710256D01*
X138245226Y-118521898D01*
X138285000Y-118321939D01*
X138285000Y-118118061D01*
X138245226Y-117918102D01*
X138167205Y-117729744D01*
X138053937Y-117560226D01*
X137980000Y-117486289D01*
X137980000Y-114055000D01*
X138176949Y-114055000D01*
X138376908Y-114015226D01*
X138565266Y-113937205D01*
X138734784Y-113823937D01*
X138878947Y-113679774D01*
X138992215Y-113510256D01*
X139070236Y-113321898D01*
X139110010Y-113121939D01*
X139110010Y-112918061D01*
X139070236Y-112718102D01*
X138992215Y-112529744D01*
X138878947Y-112360226D01*
X138835010Y-112316289D01*
X138835010Y-102716222D01*
X138868725Y-102726449D01*
X138932617Y-102732742D01*
X138996290Y-102740822D01*
X139044356Y-102737446D01*
X139058243Y-102737446D01*
X139106309Y-102740822D01*
X139169981Y-102732742D01*
X139233875Y-102726449D01*
X139279997Y-102712458D01*
X139293516Y-102709373D01*
X139341134Y-102701967D01*
X139401416Y-102679919D01*
X139462305Y-102659567D01*
X139504152Y-102635667D01*
X139516654Y-102629646D01*
X139561424Y-102611833D01*
X139615286Y-102576927D01*
X139670123Y-102543533D01*
X139705604Y-102510919D01*
X139716446Y-102502272D01*
X139756139Y-102474937D01*
X139800888Y-102428915D01*
X139846910Y-102384166D01*
X139874244Y-102344474D01*
X139882897Y-102333624D01*
X139915507Y-102298146D01*
X139948881Y-102243338D01*
X139983805Y-102189449D01*
X140001623Y-102144666D01*
X140007635Y-102132182D01*
X140031533Y-102090338D01*
X140051886Y-102029447D01*
X140073936Y-101969156D01*
X140081340Y-101921543D01*
X140084423Y-101908036D01*
X140094689Y-101874195D01*
X140128524Y-101863931D01*
X140142043Y-101860846D01*
X140189661Y-101853440D01*
X140249943Y-101831392D01*
X140310832Y-101811040D01*
X140352679Y-101787140D01*
X140365181Y-101781119D01*
X140409951Y-101763306D01*
X140463813Y-101728400D01*
X140518650Y-101695006D01*
X140554131Y-101662392D01*
X140564973Y-101653745D01*
X140604666Y-101626410D01*
X140649415Y-101580388D01*
X140695437Y-101535639D01*
X140722771Y-101495947D01*
X140731424Y-101485097D01*
X140764034Y-101449619D01*
X140797408Y-101394811D01*
X140832332Y-101340922D01*
X140850150Y-101296139D01*
X140856162Y-101283655D01*
X140880060Y-101241811D01*
X140900413Y-101180920D01*
X140922463Y-101120629D01*
X140929867Y-101073016D01*
X140932950Y-101059509D01*
X140946943Y-101013380D01*
X140953237Y-100949478D01*
X140961316Y-100885818D01*
X140957940Y-100837747D01*
X140957940Y-100823862D01*
X140961316Y-100775791D01*
X140953236Y-100712127D01*
X140946943Y-100648230D01*
X140932951Y-100602104D01*
X140929867Y-100588593D01*
X140922463Y-100540980D01*
X140900413Y-100480689D01*
X140880060Y-100419798D01*
X140856162Y-100377954D01*
X140850150Y-100365470D01*
X140844218Y-100350561D01*
X141609779Y-99585000D01*
X141806260Y-99585000D01*
X142093158Y-99527932D01*
X142363411Y-99415990D01*
X142606632Y-99253475D01*
X142813475Y-99046632D01*
X142930000Y-98872240D01*
X143046525Y-99046632D01*
X143253368Y-99253475D01*
X143496589Y-99415990D01*
X143766842Y-99527932D01*
X144053740Y-99585000D01*
X144346260Y-99585000D01*
X144633158Y-99527932D01*
X144903411Y-99415990D01*
X145146632Y-99253475D01*
X145353475Y-99046632D01*
X145515990Y-98803411D01*
X145627932Y-98533158D01*
X145685000Y-98246260D01*
X145685000Y-97953740D01*
X145627932Y-97666842D01*
X145515990Y-97396589D01*
X145353475Y-97153368D01*
X145146632Y-96946525D01*
X144903411Y-96784010D01*
X144633158Y-96672068D01*
X144346260Y-96615000D01*
X144053740Y-96615000D01*
X143766842Y-96672068D01*
X143496589Y-96784010D01*
X143253368Y-96946525D01*
X143046525Y-97153368D01*
X142930000Y-97327760D01*
X142813475Y-97153368D01*
X142606632Y-96946525D01*
X142420000Y-96821822D01*
X142420000Y-96107781D01*
X143151362Y-95376420D01*
X147065152Y-95376420D01*
X147002795Y-95469744D01*
X146924774Y-95658102D01*
X146885000Y-95858061D01*
X146885000Y-96061939D01*
X146924774Y-96261898D01*
X147002795Y-96450256D01*
X147116063Y-96619774D01*
X147160001Y-96663712D01*
X147160001Y-99129442D01*
X147060256Y-99062795D01*
X146871898Y-98984774D01*
X146671939Y-98945000D01*
X146468061Y-98945000D01*
X146268102Y-98984774D01*
X146079744Y-99062795D01*
X145910226Y-99176063D01*
X145766063Y-99320226D01*
X145652795Y-99489744D01*
X145574774Y-99678102D01*
X145535000Y-99878061D01*
X145535000Y-100081939D01*
X145574774Y-100281898D01*
X145652795Y-100470256D01*
X145766063Y-100639774D01*
X145790000Y-100663711D01*
X145790001Y-108055732D01*
X145748722Y-108059797D01*
X145712016Y-108061343D01*
X145649643Y-108076503D01*
X145586869Y-108089907D01*
X145542604Y-108108973D01*
X145529512Y-108113554D01*
X145483017Y-108126246D01*
X145425578Y-108154907D01*
X145367356Y-108181946D01*
X145328449Y-108210381D01*
X145316698Y-108217764D01*
X145274206Y-108240477D01*
X145224577Y-108281206D01*
X145173837Y-108320519D01*
X145142236Y-108356894D01*
X145132424Y-108366707D01*
X145096048Y-108398308D01*
X145056735Y-108449048D01*
X145016005Y-108498677D01*
X144993286Y-108541180D01*
X144985911Y-108552918D01*
X144957475Y-108591827D01*
X144930436Y-108650049D01*
X144901775Y-108707488D01*
X144889083Y-108753983D01*
X144884501Y-108767078D01*
X144865436Y-108811341D01*
X144852034Y-108874107D01*
X144836872Y-108936486D01*
X144834844Y-108984649D01*
X144833294Y-108998411D01*
X144824555Y-109045806D01*
X144825455Y-109110016D01*
X144824556Y-109174195D01*
X144833292Y-109221577D01*
X144834844Y-109235353D01*
X144836872Y-109283513D01*
X144852031Y-109345882D01*
X144865436Y-109408660D01*
X144884502Y-109452926D01*
X144889083Y-109466016D01*
X144901775Y-109512511D01*
X144930436Y-109569950D01*
X144957475Y-109628172D01*
X144985911Y-109667081D01*
X144993286Y-109678819D01*
X145009953Y-109709999D01*
X144993286Y-109741180D01*
X144985911Y-109752918D01*
X144957475Y-109791827D01*
X144930436Y-109850049D01*
X144901775Y-109907488D01*
X144889083Y-109953983D01*
X144884501Y-109967078D01*
X144865436Y-110011341D01*
X144852034Y-110074107D01*
X144836872Y-110136486D01*
X144834844Y-110184649D01*
X144833294Y-110198411D01*
X144824555Y-110245806D01*
X144825455Y-110310016D01*
X144824556Y-110374195D01*
X144833292Y-110421577D01*
X144834844Y-110435353D01*
X144836872Y-110483513D01*
X144852031Y-110545882D01*
X144865436Y-110608660D01*
X144884502Y-110652926D01*
X144889083Y-110666016D01*
X144901775Y-110712511D01*
X144930436Y-110769950D01*
X144957475Y-110828172D01*
X144985911Y-110867081D01*
X144993286Y-110878819D01*
X145016005Y-110921322D01*
X145056735Y-110970951D01*
X145096048Y-111021691D01*
X145132424Y-111053292D01*
X145142236Y-111063105D01*
X145173837Y-111099480D01*
X145224577Y-111138793D01*
X145274206Y-111179522D01*
X145316698Y-111202235D01*
X145328449Y-111209618D01*
X145367356Y-111238053D01*
X145425578Y-111265092D01*
X145483017Y-111293753D01*
X145529512Y-111306445D01*
X145542596Y-111311023D01*
X145586858Y-111330089D01*
X145649640Y-111343495D01*
X145712016Y-111358656D01*
X145748705Y-111360201D01*
X145800132Y-111365266D01*
X145799799Y-111373178D01*
X145794184Y-111430183D01*
X145790599Y-111462002D01*
X145790524Y-111467347D01*
X145790000Y-111472668D01*
X145790000Y-111504720D01*
X145789026Y-111574184D01*
X145790000Y-111579467D01*
X145790001Y-113575991D01*
X142571515Y-116794478D01*
X142509377Y-116794478D01*
X142309418Y-116834252D01*
X142121060Y-116912273D01*
X141951542Y-117025541D01*
X141807379Y-117169704D01*
X141694111Y-117339222D01*
X141616090Y-117527580D01*
X141576316Y-117727539D01*
X141576316Y-117931417D01*
X141616090Y-118131376D01*
X141694111Y-118319734D01*
X141807379Y-118489252D01*
X141854708Y-118536581D01*
X141833563Y-118557726D01*
X141720295Y-118727244D01*
X141642274Y-118915602D01*
X141602500Y-119115561D01*
X141602500Y-119319439D01*
X141642274Y-119519398D01*
X141720295Y-119707756D01*
X141833563Y-119877274D01*
X141977726Y-120021437D01*
X142147244Y-120134705D01*
X142335602Y-120212726D01*
X142535561Y-120252500D01*
X142739439Y-120252500D01*
X142939398Y-120212726D01*
X143127756Y-120134705D01*
X143297274Y-120021437D01*
X143441437Y-119877274D01*
X143554705Y-119707756D01*
X143632726Y-119519398D01*
X143672500Y-119319439D01*
X143672500Y-119257301D01*
X146705688Y-116224113D01*
X161215000Y-116224113D01*
X161215000Y-116695887D01*
X161307039Y-117158596D01*
X161487579Y-117594458D01*
X161749682Y-117986723D01*
X162083277Y-118320318D01*
X162475542Y-118582421D01*
X162911404Y-118762961D01*
X163374113Y-118855000D01*
X163845887Y-118855000D01*
X164308596Y-118762961D01*
X164744458Y-118582421D01*
X165136723Y-118320318D01*
X165470318Y-117986723D01*
X165732421Y-117594458D01*
X165912961Y-117158596D01*
X166005000Y-116695887D01*
X166005000Y-116224113D01*
X165912961Y-115761404D01*
X165732421Y-115325542D01*
X165470318Y-114933277D01*
X165136723Y-114599682D01*
X164744458Y-114337579D01*
X164308596Y-114157039D01*
X163845887Y-114065000D01*
X163374113Y-114065000D01*
X162911404Y-114157039D01*
X162475542Y-114337579D01*
X162083277Y-114599682D01*
X161749682Y-114933277D01*
X161487579Y-115325542D01*
X161307039Y-115761404D01*
X161215000Y-116224113D01*
X146705688Y-116224113D01*
X148431004Y-114498798D01*
X148460001Y-114475001D01*
X148520078Y-114401797D01*
X148554974Y-114359277D01*
X148625546Y-114227247D01*
X148631676Y-114207039D01*
X148669003Y-114083986D01*
X148680000Y-113972333D01*
X148680000Y-113972324D01*
X148683676Y-113935001D01*
X148680000Y-113897678D01*
X148680000Y-108818061D01*
X165315000Y-108818061D01*
X165315000Y-109021939D01*
X165354774Y-109221898D01*
X165432795Y-109410256D01*
X165546063Y-109579774D01*
X165690226Y-109723937D01*
X165859744Y-109837205D01*
X166048102Y-109915226D01*
X166248061Y-109955000D01*
X166451939Y-109955000D01*
X166651898Y-109915226D01*
X166840256Y-109837205D01*
X167009774Y-109723937D01*
X167153937Y-109579774D01*
X167267205Y-109410256D01*
X167345226Y-109221898D01*
X167385000Y-109021939D01*
X167385000Y-108818061D01*
X167345226Y-108618102D01*
X167267205Y-108429744D01*
X167153937Y-108260226D01*
X167009774Y-108116063D01*
X166840256Y-108002795D01*
X166651898Y-107924774D01*
X166451939Y-107885000D01*
X166248061Y-107885000D01*
X166048102Y-107924774D01*
X165859744Y-108002795D01*
X165690226Y-108116063D01*
X165546063Y-108260226D01*
X165432795Y-108429744D01*
X165354774Y-108618102D01*
X165315000Y-108818061D01*
X148680000Y-108818061D01*
X148680000Y-97320000D01*
X148951928Y-97320000D01*
X148951928Y-99020000D01*
X148964188Y-99144482D01*
X149000498Y-99264180D01*
X149059463Y-99374494D01*
X149138815Y-99471185D01*
X149235506Y-99550537D01*
X149345820Y-99609502D01*
X149465518Y-99645812D01*
X149590000Y-99658072D01*
X151290000Y-99658072D01*
X151414482Y-99645812D01*
X151534180Y-99609502D01*
X151644494Y-99550537D01*
X151741185Y-99471185D01*
X151820537Y-99374494D01*
X151879502Y-99264180D01*
X151901513Y-99191620D01*
X152033368Y-99323475D01*
X152276589Y-99485990D01*
X152546842Y-99597932D01*
X152833740Y-99655000D01*
X153126260Y-99655000D01*
X153413158Y-99597932D01*
X153683411Y-99485990D01*
X153926632Y-99323475D01*
X154133475Y-99116632D01*
X154255195Y-98934466D01*
X154324822Y-99051355D01*
X154519731Y-99267588D01*
X154753080Y-99441641D01*
X155015901Y-99566825D01*
X155163110Y-99611476D01*
X155393000Y-99490155D01*
X155393000Y-98297000D01*
X155373000Y-98297000D01*
X155373000Y-98043000D01*
X155393000Y-98043000D01*
X155393000Y-96849845D01*
X155163110Y-96728524D01*
X155015901Y-96773175D01*
X154753080Y-96898359D01*
X154519731Y-97072412D01*
X154324822Y-97288645D01*
X154255195Y-97405534D01*
X154133475Y-97223368D01*
X153926632Y-97016525D01*
X153683411Y-96854010D01*
X153413158Y-96742068D01*
X153126260Y-96685000D01*
X152833740Y-96685000D01*
X152546842Y-96742068D01*
X152276589Y-96854010D01*
X152033368Y-97016525D01*
X151901513Y-97148380D01*
X151879502Y-97075820D01*
X151820537Y-96965506D01*
X151741185Y-96868815D01*
X151644494Y-96789463D01*
X151534180Y-96730498D01*
X151414482Y-96694188D01*
X151290000Y-96681928D01*
X149590000Y-96681928D01*
X149465518Y-96694188D01*
X149345820Y-96730498D01*
X149235506Y-96789463D01*
X149138815Y-96868815D01*
X149059463Y-96965506D01*
X149000498Y-97075820D01*
X148964188Y-97195518D01*
X148951928Y-97320000D01*
X148680000Y-97320000D01*
X148680000Y-96663711D01*
X148723937Y-96619774D01*
X148837205Y-96450256D01*
X148915226Y-96261898D01*
X148955000Y-96061939D01*
X148955000Y-95858061D01*
X148915226Y-95658102D01*
X148837205Y-95469744D01*
X148774848Y-95376420D01*
X150224255Y-95376420D01*
X150238962Y-95436929D01*
X150252367Y-95499707D01*
X150271433Y-95543973D01*
X150276014Y-95557063D01*
X150288706Y-95603558D01*
X150317367Y-95660997D01*
X150344406Y-95719219D01*
X150372842Y-95758128D01*
X150380217Y-95769866D01*
X150402936Y-95812369D01*
X150443666Y-95861998D01*
X150482979Y-95912738D01*
X150519355Y-95944339D01*
X150529167Y-95954152D01*
X150560768Y-95990527D01*
X150611508Y-96029840D01*
X150661137Y-96070569D01*
X150703629Y-96093282D01*
X150715380Y-96100665D01*
X150754287Y-96129100D01*
X150812509Y-96156139D01*
X150869948Y-96184800D01*
X150916443Y-96197492D01*
X150929527Y-96202070D01*
X150973789Y-96221136D01*
X151036571Y-96234542D01*
X151098947Y-96249703D01*
X151147105Y-96251731D01*
X151160880Y-96253283D01*
X151208278Y-96262021D01*
X151272460Y-96261120D01*
X151336643Y-96262021D01*
X151384038Y-96253283D01*
X151397815Y-96251731D01*
X151445973Y-96249703D01*
X151508362Y-96234539D01*
X151571130Y-96221135D01*
X151615386Y-96202073D01*
X151628476Y-96197492D01*
X151674971Y-96184800D01*
X151732410Y-96156139D01*
X151790632Y-96129100D01*
X151829541Y-96100664D01*
X151841279Y-96093289D01*
X151872460Y-96076622D01*
X151903629Y-96093282D01*
X151915380Y-96100665D01*
X151954287Y-96129100D01*
X152012509Y-96156139D01*
X152069948Y-96184800D01*
X152116443Y-96197492D01*
X152129527Y-96202070D01*
X152173789Y-96221136D01*
X152236571Y-96234542D01*
X152298947Y-96249703D01*
X152347105Y-96251731D01*
X152360880Y-96253283D01*
X152408278Y-96262021D01*
X152472460Y-96261120D01*
X152536643Y-96262021D01*
X152584038Y-96253283D01*
X152597815Y-96251731D01*
X152645973Y-96249703D01*
X152708362Y-96234539D01*
X152771130Y-96221135D01*
X152815386Y-96202073D01*
X152828476Y-96197492D01*
X152874971Y-96184800D01*
X152932410Y-96156139D01*
X152990632Y-96129100D01*
X153029541Y-96100664D01*
X153041279Y-96093289D01*
X153083782Y-96070570D01*
X153133411Y-96029840D01*
X153184151Y-95990527D01*
X153215752Y-95954151D01*
X153225565Y-95944339D01*
X153261940Y-95912738D01*
X153301253Y-95861998D01*
X153341982Y-95812369D01*
X153364695Y-95769877D01*
X153372078Y-95758126D01*
X153400513Y-95719219D01*
X153427552Y-95660997D01*
X153456213Y-95603558D01*
X153468905Y-95557063D01*
X153473484Y-95543976D01*
X153492548Y-95499718D01*
X153505953Y-95436942D01*
X153521116Y-95374559D01*
X153521475Y-95366026D01*
X153535653Y-95366623D01*
X153592683Y-95372240D01*
X153624472Y-95375821D01*
X153629804Y-95375896D01*
X153635127Y-95376420D01*
X153667219Y-95376420D01*
X153736655Y-95377393D01*
X153741932Y-95376420D01*
X159280679Y-95376420D01*
X159840000Y-95935742D01*
X159840000Y-96891821D01*
X159653368Y-97016525D01*
X159446525Y-97223368D01*
X159330000Y-97397760D01*
X159213475Y-97223368D01*
X159006632Y-97016525D01*
X158763411Y-96854010D01*
X158493158Y-96742068D01*
X158206260Y-96685000D01*
X157913740Y-96685000D01*
X157626842Y-96742068D01*
X157356589Y-96854010D01*
X157113368Y-97016525D01*
X156906525Y-97223368D01*
X156784805Y-97405534D01*
X156715178Y-97288645D01*
X156520269Y-97072412D01*
X156286920Y-96898359D01*
X156024099Y-96773175D01*
X155876890Y-96728524D01*
X155647000Y-96849845D01*
X155647000Y-98043000D01*
X155667000Y-98043000D01*
X155667000Y-98297000D01*
X155647000Y-98297000D01*
X155647000Y-99490155D01*
X155876890Y-99611476D01*
X156024099Y-99566825D01*
X156286920Y-99441641D01*
X156520269Y-99267588D01*
X156715178Y-99051355D01*
X156784805Y-98934466D01*
X156906525Y-99116632D01*
X157113368Y-99323475D01*
X157356589Y-99485990D01*
X157626842Y-99597932D01*
X157913740Y-99655000D01*
X158206260Y-99655000D01*
X158493158Y-99597932D01*
X158763411Y-99485990D01*
X159006632Y-99323475D01*
X159213475Y-99116632D01*
X159330000Y-98942240D01*
X159446525Y-99116632D01*
X159653368Y-99323475D01*
X159896589Y-99485990D01*
X160166842Y-99597932D01*
X160453740Y-99655000D01*
X160746260Y-99655000D01*
X161033158Y-99597932D01*
X161303411Y-99485990D01*
X161546632Y-99323475D01*
X161753475Y-99116632D01*
X161870000Y-98942240D01*
X161986525Y-99116632D01*
X162193368Y-99323475D01*
X162436589Y-99485990D01*
X162706842Y-99597932D01*
X162993740Y-99655000D01*
X163286260Y-99655000D01*
X163573158Y-99597932D01*
X163843411Y-99485990D01*
X164086632Y-99323475D01*
X164293475Y-99116632D01*
X164410000Y-98942240D01*
X164526525Y-99116632D01*
X164733368Y-99323475D01*
X164976589Y-99485990D01*
X165246842Y-99597932D01*
X165533740Y-99655000D01*
X165826260Y-99655000D01*
X166113158Y-99597932D01*
X166383411Y-99485990D01*
X166626632Y-99323475D01*
X166833475Y-99116632D01*
X166950000Y-98942240D01*
X167066525Y-99116632D01*
X167273368Y-99323475D01*
X167516589Y-99485990D01*
X167786842Y-99597932D01*
X168073740Y-99655000D01*
X168366260Y-99655000D01*
X168653158Y-99597932D01*
X168923411Y-99485990D01*
X169166632Y-99323475D01*
X169373475Y-99116632D01*
X169535990Y-98873411D01*
X169647932Y-98603158D01*
X169705000Y-98316260D01*
X169705000Y-98023740D01*
X169647932Y-97736842D01*
X169535990Y-97466589D01*
X169373475Y-97223368D01*
X169166632Y-97016525D01*
X168923411Y-96854010D01*
X168653158Y-96742068D01*
X168366260Y-96685000D01*
X168073740Y-96685000D01*
X167786842Y-96742068D01*
X167516589Y-96854010D01*
X167273368Y-97016525D01*
X167066525Y-97223368D01*
X166950000Y-97397760D01*
X166833475Y-97223368D01*
X166626632Y-97016525D01*
X166383411Y-96854010D01*
X166113158Y-96742068D01*
X165826260Y-96685000D01*
X165533740Y-96685000D01*
X165246842Y-96742068D01*
X164976589Y-96854010D01*
X164733368Y-97016525D01*
X164526525Y-97223368D01*
X164410000Y-97397760D01*
X164293475Y-97223368D01*
X164086632Y-97016525D01*
X163843411Y-96854010D01*
X163573158Y-96742068D01*
X163286260Y-96685000D01*
X162993740Y-96685000D01*
X162706842Y-96742068D01*
X162436589Y-96854010D01*
X162193368Y-97016525D01*
X161986525Y-97223368D01*
X161870000Y-97397760D01*
X161753475Y-97223368D01*
X161546632Y-97016525D01*
X161360000Y-96891822D01*
X161360000Y-95658263D01*
X161363676Y-95620940D01*
X161360000Y-95583617D01*
X161360000Y-95583607D01*
X161349003Y-95471954D01*
X161305546Y-95328693D01*
X161234974Y-95196664D01*
X161140001Y-95080939D01*
X161111004Y-95057142D01*
X160159284Y-94105422D01*
X160135481Y-94076419D01*
X160019756Y-93981446D01*
X159887727Y-93910874D01*
X159744466Y-93867417D01*
X159632813Y-93856420D01*
X159632802Y-93856420D01*
X159595480Y-93852744D01*
X159558158Y-93856420D01*
X154120664Y-93856420D01*
X154105953Y-93795898D01*
X154092548Y-93733122D01*
X154073484Y-93688864D01*
X154068905Y-93675777D01*
X154056213Y-93629282D01*
X154027552Y-93571843D01*
X154000513Y-93513621D01*
X153972078Y-93474714D01*
X153964695Y-93462963D01*
X153941982Y-93420471D01*
X153901253Y-93370842D01*
X153861940Y-93320102D01*
X153825565Y-93288501D01*
X153815752Y-93278689D01*
X153784151Y-93242313D01*
X153781166Y-93240000D01*
X154116289Y-93240000D01*
X154160226Y-93283937D01*
X154329744Y-93397205D01*
X154518102Y-93475226D01*
X154718061Y-93515000D01*
X154921939Y-93515000D01*
X155121898Y-93475226D01*
X155310256Y-93397205D01*
X155479774Y-93283937D01*
X155623937Y-93139774D01*
X155737205Y-92970256D01*
X155815226Y-92781898D01*
X155855000Y-92581939D01*
X155855000Y-92378061D01*
X155815226Y-92178102D01*
X155737205Y-91989744D01*
X155623937Y-91820226D01*
X155479774Y-91676063D01*
X155343488Y-91585000D01*
X168049156Y-91585000D01*
X168084606Y-91620450D01*
X168278692Y-91750134D01*
X168494348Y-91839461D01*
X168723288Y-91885000D01*
X168956712Y-91885000D01*
X169185652Y-91839461D01*
X169401308Y-91750134D01*
X169595394Y-91620450D01*
X169760450Y-91455394D01*
X169890134Y-91261308D01*
X169979461Y-91045652D01*
X170025000Y-90816712D01*
X170025000Y-90583288D01*
X169979461Y-90354348D01*
X169890134Y-90138692D01*
X169760450Y-89944606D01*
X169595394Y-89779550D01*
X169401308Y-89649866D01*
X169185652Y-89560539D01*
X168956712Y-89515000D01*
X168723288Y-89515000D01*
X168494348Y-89560539D01*
X168278692Y-89649866D01*
X168084606Y-89779550D01*
X168049156Y-89815000D01*
X151089489Y-89815000D01*
X151020034Y-89768592D01*
X150804378Y-89679265D01*
X150575438Y-89633726D01*
X150530009Y-89633726D01*
X150402786Y-89529316D01*
X150249040Y-89447138D01*
X150082217Y-89396532D01*
X149952204Y-89383727D01*
X149952196Y-89383727D01*
X149908727Y-89379446D01*
X149865258Y-89383727D01*
X135484738Y-89383727D01*
X135441272Y-89379446D01*
X135397806Y-89383727D01*
X135397796Y-89383727D01*
X135267783Y-89396532D01*
X135100960Y-89447138D01*
X134947214Y-89529316D01*
X134947212Y-89529317D01*
X134947213Y-89529317D01*
X134846226Y-89612195D01*
X134846224Y-89612197D01*
X134812456Y-89639910D01*
X134784743Y-89673678D01*
X128364952Y-96093470D01*
X128331184Y-96121183D01*
X128303471Y-96154951D01*
X128303468Y-96154954D01*
X128220590Y-96255941D01*
X128138412Y-96409687D01*
X128087805Y-96576510D01*
X128084065Y-96614482D01*
X127985518Y-96624188D01*
X127865820Y-96660498D01*
X127755506Y-96719463D01*
X127658815Y-96798815D01*
X127579463Y-96895506D01*
X127520498Y-97005820D01*
X127484188Y-97125518D01*
X127471928Y-97250000D01*
X124315857Y-97250000D01*
X124307127Y-72034335D01*
X124565000Y-72034335D01*
X124565000Y-72705664D01*
X124582870Y-72887101D01*
X124653489Y-73119900D01*
X124768167Y-73334448D01*
X124922498Y-73522502D01*
X125110551Y-73676833D01*
X125325099Y-73791511D01*
X125557898Y-73862130D01*
X125800000Y-73885975D01*
X126042101Y-73862130D01*
X126274900Y-73791511D01*
X126489448Y-73676833D01*
X126643309Y-73550564D01*
X126669463Y-73599494D01*
X126748815Y-73696185D01*
X126845506Y-73775537D01*
X126955820Y-73834502D01*
X127075518Y-73870812D01*
X127200000Y-73883072D01*
X127514250Y-73880000D01*
X127673000Y-73721250D01*
X127673000Y-72497000D01*
X127927000Y-72497000D01*
X127927000Y-73721250D01*
X128085750Y-73880000D01*
X128400000Y-73883072D01*
X128524482Y-73870812D01*
X128644180Y-73834502D01*
X128754494Y-73775537D01*
X128851185Y-73696185D01*
X128930537Y-73599494D01*
X128989502Y-73489180D01*
X129025812Y-73369482D01*
X129038072Y-73245000D01*
X129036363Y-72917000D01*
X144145000Y-72917000D01*
X144145000Y-73417000D01*
X144190144Y-73621355D01*
X144274288Y-73812977D01*
X144394199Y-73984501D01*
X144545269Y-74129336D01*
X144721692Y-74241916D01*
X144914938Y-74309540D01*
X145078000Y-74182257D01*
X145078000Y-72917000D01*
X145332000Y-72917000D01*
X145332000Y-74182257D01*
X145495062Y-74309540D01*
X145688308Y-74241916D01*
X145864731Y-74129336D01*
X146015801Y-73984501D01*
X146135712Y-73812977D01*
X146219856Y-73621355D01*
X146265000Y-73417000D01*
X146265000Y-72917000D01*
X145332000Y-72917000D01*
X145078000Y-72917000D01*
X144145000Y-72917000D01*
X129036363Y-72917000D01*
X129035000Y-72655750D01*
X128876250Y-72497000D01*
X127927000Y-72497000D01*
X127673000Y-72497000D01*
X127653000Y-72497000D01*
X127653000Y-72243000D01*
X127673000Y-72243000D01*
X127673000Y-71018750D01*
X127927000Y-71018750D01*
X127927000Y-72243000D01*
X128876250Y-72243000D01*
X129035000Y-72084250D01*
X129038072Y-71495000D01*
X129025812Y-71370518D01*
X128989502Y-71250820D01*
X128930537Y-71140506D01*
X128851185Y-71043815D01*
X128754494Y-70964463D01*
X128644180Y-70905498D01*
X128524482Y-70869188D01*
X128400000Y-70856928D01*
X128085750Y-70860000D01*
X127927000Y-71018750D01*
X127673000Y-71018750D01*
X127514250Y-70860000D01*
X127200000Y-70856928D01*
X127075518Y-70869188D01*
X126955820Y-70905498D01*
X126845506Y-70964463D01*
X126748815Y-71043815D01*
X126669463Y-71140506D01*
X126643309Y-71189436D01*
X126489449Y-71063167D01*
X126274901Y-70948489D01*
X126042102Y-70877870D01*
X125800000Y-70854025D01*
X125557899Y-70877870D01*
X125325100Y-70948489D01*
X125110552Y-71063167D01*
X124922499Y-71217498D01*
X124768168Y-71405551D01*
X124653489Y-71620099D01*
X124582870Y-71852898D01*
X124565000Y-72034335D01*
X124307127Y-72034335D01*
X124305237Y-66575000D01*
X129896353Y-66575000D01*
X129930000Y-66578314D01*
X130064283Y-66565088D01*
X130193406Y-66525919D01*
X130312407Y-66462312D01*
X130416711Y-66376711D01*
X130502312Y-66272407D01*
X130565919Y-66153406D01*
X130605088Y-66024283D01*
X130612984Y-65944113D01*
X131755000Y-65944113D01*
X131755000Y-66415887D01*
X131847039Y-66878596D01*
X132027579Y-67314458D01*
X132289682Y-67706723D01*
X132623277Y-68040318D01*
X133015542Y-68302421D01*
X133451404Y-68482961D01*
X133914113Y-68575000D01*
X134385887Y-68575000D01*
X134848596Y-68482961D01*
X135284458Y-68302421D01*
X135676723Y-68040318D01*
X136010318Y-67706723D01*
X136272421Y-67314458D01*
X136452961Y-66878596D01*
X136545000Y-66415887D01*
X136545000Y-65944113D01*
X136452961Y-65481404D01*
X136445458Y-65463288D01*
X141865000Y-65463288D01*
X141865000Y-65696712D01*
X141910539Y-65925652D01*
X141999866Y-66141308D01*
X142129550Y-66335394D01*
X142165000Y-66370844D01*
X142165001Y-67637921D01*
X142160719Y-67681400D01*
X142177805Y-67854890D01*
X142228412Y-68021713D01*
X142310590Y-68175459D01*
X142393468Y-68276446D01*
X142393471Y-68276449D01*
X142421184Y-68310217D01*
X142454951Y-68337929D01*
X143689565Y-69572544D01*
X143790552Y-69655422D01*
X143846424Y-69685286D01*
X143780539Y-69844348D01*
X143735000Y-70073288D01*
X143735000Y-70306712D01*
X143780539Y-70535652D01*
X143869866Y-70751308D01*
X143999550Y-70945394D01*
X144164606Y-71110450D01*
X144358692Y-71240134D01*
X144574348Y-71329461D01*
X144696979Y-71353854D01*
X144545269Y-71450664D01*
X144394199Y-71595499D01*
X144274288Y-71767023D01*
X144190144Y-71958645D01*
X144145000Y-72163000D01*
X144145000Y-72663000D01*
X145078000Y-72663000D01*
X145078000Y-72643000D01*
X145332000Y-72643000D01*
X145332000Y-72663000D01*
X146265000Y-72663000D01*
X146265000Y-72163000D01*
X146219856Y-71958645D01*
X146135712Y-71767023D01*
X146015801Y-71595499D01*
X145864731Y-71450664D01*
X145688308Y-71338084D01*
X145495062Y-71270460D01*
X145332002Y-71397741D01*
X145332002Y-71301978D01*
X145481308Y-71240134D01*
X145675394Y-71110450D01*
X145710844Y-71075000D01*
X146133422Y-71075000D01*
X146595001Y-71536579D01*
X146595001Y-71715648D01*
X146529463Y-71795506D01*
X146470498Y-71905820D01*
X146434188Y-72025518D01*
X146421928Y-72150000D01*
X146421928Y-72990000D01*
X146434188Y-73114482D01*
X146470498Y-73234180D01*
X146529463Y-73344494D01*
X146608815Y-73441185D01*
X146705506Y-73520537D01*
X146815820Y-73579502D01*
X146935518Y-73615812D01*
X147060000Y-73628072D01*
X147075000Y-73628072D01*
X147075000Y-73673908D01*
X147115543Y-73877732D01*
X147195071Y-74069730D01*
X147310528Y-74242523D01*
X147457477Y-74389472D01*
X147630270Y-74504929D01*
X147822268Y-74584457D01*
X148026092Y-74625000D01*
X148233908Y-74625000D01*
X148437732Y-74584457D01*
X148629730Y-74504929D01*
X148780000Y-74404521D01*
X148930270Y-74504929D01*
X149122268Y-74584457D01*
X149326092Y-74625000D01*
X149533908Y-74625000D01*
X149737732Y-74584457D01*
X149929730Y-74504929D01*
X150102523Y-74389472D01*
X150249472Y-74242523D01*
X150364929Y-74069730D01*
X150444457Y-73877732D01*
X150485000Y-73673908D01*
X150485000Y-73544364D01*
X150563428Y-73513462D01*
X150595881Y-73496115D01*
X150621193Y-73290798D01*
X150292968Y-72962573D01*
X150249472Y-72897477D01*
X150102523Y-72750528D01*
X149952185Y-72650075D01*
X149886253Y-72584143D01*
X149900395Y-72570000D01*
X150259605Y-72570000D01*
X150800798Y-73111193D01*
X151006115Y-73085881D01*
X151079526Y-72917000D01*
X151295000Y-72917000D01*
X151295000Y-73417000D01*
X151340144Y-73621355D01*
X151424288Y-73812977D01*
X151544199Y-73984501D01*
X151695269Y-74129336D01*
X151871692Y-74241916D01*
X152064938Y-74309540D01*
X152228000Y-74182257D01*
X152228000Y-72917000D01*
X152482000Y-72917000D01*
X152482000Y-74182257D01*
X152645062Y-74309540D01*
X152838308Y-74241916D01*
X153014731Y-74129336D01*
X153165801Y-73984501D01*
X153285712Y-73812977D01*
X153369856Y-73621355D01*
X153415000Y-73417000D01*
X153415000Y-72917000D01*
X152482000Y-72917000D01*
X152228000Y-72917000D01*
X151295000Y-72917000D01*
X151079526Y-72917000D01*
X151088963Y-72895292D01*
X151133038Y-72692204D01*
X151136645Y-72484418D01*
X151099646Y-72279921D01*
X151053577Y-72163000D01*
X151295000Y-72163000D01*
X151295000Y-72663000D01*
X152228000Y-72663000D01*
X152228000Y-71397743D01*
X152482000Y-71397743D01*
X152482000Y-72663000D01*
X153415000Y-72663000D01*
X153415000Y-72163000D01*
X153369856Y-71958645D01*
X153285712Y-71767023D01*
X153165801Y-71595499D01*
X153014731Y-71450664D01*
X152838308Y-71338084D01*
X152645062Y-71270460D01*
X152482000Y-71397743D01*
X152228000Y-71397743D01*
X152064938Y-71270460D01*
X151871692Y-71338084D01*
X151695269Y-71450664D01*
X151544199Y-71595499D01*
X151424288Y-71767023D01*
X151340144Y-71958645D01*
X151295000Y-72163000D01*
X151053577Y-72163000D01*
X151023462Y-72086572D01*
X151006115Y-72054119D01*
X150800798Y-72028807D01*
X150259605Y-72570000D01*
X149900395Y-72570000D01*
X149886253Y-72555858D01*
X150065858Y-72376253D01*
X150080000Y-72390395D01*
X150621193Y-71849202D01*
X150595881Y-71643885D01*
X150405292Y-71561037D01*
X150202204Y-71516962D01*
X149994418Y-71513355D01*
X149789921Y-71550354D01*
X149596572Y-71626538D01*
X149564119Y-71643885D01*
X149540167Y-71838172D01*
X149452523Y-71750528D01*
X149279730Y-71635071D01*
X149087732Y-71555543D01*
X148883908Y-71515000D01*
X148676092Y-71515000D01*
X148472268Y-71555543D01*
X148365000Y-71599975D01*
X148365000Y-71213465D01*
X148369281Y-71169999D01*
X148365000Y-71126533D01*
X148365000Y-71126523D01*
X148352195Y-70996510D01*
X148301589Y-70829687D01*
X148219411Y-70675941D01*
X148108817Y-70541183D01*
X148075049Y-70513470D01*
X147643364Y-70081785D01*
X147775644Y-70055473D01*
X147991300Y-69966146D01*
X148185386Y-69836462D01*
X148350442Y-69671406D01*
X148480126Y-69477320D01*
X148569453Y-69261664D01*
X148614992Y-69032724D01*
X148614992Y-68923288D01*
X152475000Y-68923288D01*
X152475000Y-69156712D01*
X152520539Y-69385652D01*
X152609866Y-69601308D01*
X152739550Y-69795394D01*
X152904606Y-69960450D01*
X153098692Y-70090134D01*
X153314348Y-70179461D01*
X153543288Y-70225000D01*
X153776712Y-70225000D01*
X154005652Y-70179461D01*
X154221308Y-70090134D01*
X154415394Y-69960450D01*
X154483844Y-69892000D01*
X156436156Y-69892000D01*
X156534606Y-69990450D01*
X156728692Y-70120134D01*
X156944348Y-70209461D01*
X157173288Y-70255000D01*
X157406712Y-70255000D01*
X157635652Y-70209461D01*
X157851308Y-70120134D01*
X158045394Y-69990450D01*
X158210450Y-69825394D01*
X158340134Y-69631308D01*
X158429461Y-69415652D01*
X158475000Y-69186712D01*
X158475000Y-68953288D01*
X158429461Y-68724348D01*
X158340134Y-68508692D01*
X158210450Y-68314606D01*
X158045394Y-68149550D01*
X157851308Y-68019866D01*
X157635652Y-67930539D01*
X157406712Y-67885000D01*
X157173288Y-67885000D01*
X156944348Y-67930539D01*
X156728692Y-68019866D01*
X156575838Y-68122000D01*
X154417844Y-68122000D01*
X154415394Y-68119550D01*
X154221308Y-67989866D01*
X154005652Y-67900539D01*
X153776712Y-67855000D01*
X153543288Y-67855000D01*
X153314348Y-67900539D01*
X153098692Y-67989866D01*
X152904606Y-68119550D01*
X152739550Y-68284606D01*
X152609866Y-68478692D01*
X152520539Y-68694348D01*
X152475000Y-68923288D01*
X148614992Y-68923288D01*
X148614992Y-68799300D01*
X148569453Y-68570360D01*
X148480126Y-68354704D01*
X148350442Y-68160618D01*
X148185386Y-67995562D01*
X147991300Y-67865878D01*
X147775644Y-67776551D01*
X147546704Y-67731012D01*
X147313280Y-67731012D01*
X147084340Y-67776551D01*
X146868684Y-67865878D01*
X146674598Y-67995562D01*
X146639148Y-68031012D01*
X144651191Y-68031012D01*
X143935000Y-67314822D01*
X143935000Y-66370844D01*
X143970450Y-66335394D01*
X144100134Y-66141308D01*
X144189461Y-65925652D01*
X144195734Y-65894113D01*
X161245000Y-65894113D01*
X161245000Y-66365887D01*
X161337039Y-66828596D01*
X161517579Y-67264458D01*
X161779682Y-67656723D01*
X162113277Y-67990318D01*
X162505542Y-68252421D01*
X162941404Y-68432961D01*
X163404113Y-68525000D01*
X163875887Y-68525000D01*
X164338596Y-68432961D01*
X164774458Y-68252421D01*
X165166723Y-67990318D01*
X165500318Y-67656723D01*
X165762421Y-67264458D01*
X165942961Y-66828596D01*
X166035000Y-66365887D01*
X166035000Y-65894113D01*
X165942961Y-65431404D01*
X165762421Y-64995542D01*
X165500318Y-64603277D01*
X165166723Y-64269682D01*
X164774458Y-64007579D01*
X164338596Y-63827039D01*
X163875887Y-63735000D01*
X163404113Y-63735000D01*
X162941404Y-63827039D01*
X162505542Y-64007579D01*
X162113277Y-64269682D01*
X161779682Y-64603277D01*
X161517579Y-64995542D01*
X161337039Y-65431404D01*
X161245000Y-65894113D01*
X144195734Y-65894113D01*
X144235000Y-65696712D01*
X144235000Y-65463288D01*
X144189461Y-65234348D01*
X144100134Y-65018692D01*
X143970450Y-64824606D01*
X143805394Y-64659550D01*
X143611308Y-64529866D01*
X143395652Y-64440539D01*
X143166712Y-64395000D01*
X142933288Y-64395000D01*
X142704348Y-64440539D01*
X142488692Y-64529866D01*
X142294606Y-64659550D01*
X142129550Y-64824606D01*
X141999866Y-65018692D01*
X141910539Y-65234348D01*
X141865000Y-65463288D01*
X136445458Y-65463288D01*
X136272421Y-65045542D01*
X136010318Y-64653277D01*
X135676723Y-64319682D01*
X135284458Y-64057579D01*
X134848596Y-63877039D01*
X134385887Y-63785000D01*
X133914113Y-63785000D01*
X133451404Y-63877039D01*
X133015542Y-64057579D01*
X132623277Y-64319682D01*
X132289682Y-64653277D01*
X132027579Y-65045542D01*
X131847039Y-65481404D01*
X131755000Y-65944113D01*
X130612984Y-65944113D01*
X130615000Y-65923647D01*
X130618314Y-65890000D01*
X130615000Y-65856353D01*
X130615000Y-63158061D01*
X141995000Y-63158061D01*
X141995000Y-63361939D01*
X142034774Y-63561898D01*
X142112795Y-63750256D01*
X142226063Y-63919774D01*
X142370226Y-64063937D01*
X142539744Y-64177205D01*
X142728102Y-64255226D01*
X142928061Y-64295000D01*
X143131939Y-64295000D01*
X143331898Y-64255226D01*
X143520256Y-64177205D01*
X143689774Y-64063937D01*
X143733711Y-64020000D01*
X147116289Y-64020000D01*
X147160226Y-64063937D01*
X147329744Y-64177205D01*
X147518102Y-64255226D01*
X147718061Y-64295000D01*
X147921939Y-64295000D01*
X148121898Y-64255226D01*
X148310256Y-64177205D01*
X148479774Y-64063937D01*
X148623937Y-63919774D01*
X148737205Y-63750256D01*
X148815226Y-63561898D01*
X148855000Y-63361939D01*
X148855000Y-63158061D01*
X148815226Y-62958102D01*
X148737205Y-62769744D01*
X148623937Y-62600226D01*
X148479774Y-62456063D01*
X148310256Y-62342795D01*
X148121898Y-62264774D01*
X147921939Y-62225000D01*
X147718061Y-62225000D01*
X147518102Y-62264774D01*
X147329744Y-62342795D01*
X147160226Y-62456063D01*
X147116289Y-62500000D01*
X143733711Y-62500000D01*
X143689774Y-62456063D01*
X143520256Y-62342795D01*
X143331898Y-62264774D01*
X143131939Y-62225000D01*
X142928061Y-62225000D01*
X142728102Y-62264774D01*
X142539744Y-62342795D01*
X142370226Y-62456063D01*
X142226063Y-62600226D01*
X142112795Y-62769744D01*
X142034774Y-62958102D01*
X141995000Y-63158061D01*
X130615000Y-63158061D01*
X130615000Y-59655000D01*
X131617217Y-59655000D01*
X131651718Y-59658311D01*
X131717684Y-59651648D01*
X131784283Y-59645088D01*
X131785112Y-59644836D01*
X131785968Y-59644750D01*
X131849426Y-59625327D01*
X131913406Y-59605919D01*
X131914170Y-59605511D01*
X131914992Y-59605259D01*
X131973398Y-59573853D01*
X132032407Y-59542312D01*
X132033077Y-59541762D01*
X132033834Y-59541355D01*
X132084997Y-59499152D01*
X132136711Y-59456711D01*
X132137261Y-59456041D01*
X132137924Y-59455494D01*
X132179891Y-59404096D01*
X132222312Y-59352407D01*
X132222720Y-59351643D01*
X132223265Y-59350976D01*
X132254405Y-59292365D01*
X132285919Y-59233406D01*
X132286171Y-59232576D01*
X132286574Y-59231817D01*
X132305696Y-59168211D01*
X132325088Y-59104283D01*
X132325173Y-59103423D01*
X132325421Y-59102597D01*
X132331759Y-59036556D01*
X132338314Y-58970000D01*
X132334915Y-58935491D01*
X132323825Y-54493740D01*
X152965000Y-54493740D01*
X152965000Y-54786260D01*
X153022068Y-55073158D01*
X153134010Y-55343411D01*
X153296525Y-55586632D01*
X153503368Y-55793475D01*
X153746589Y-55955990D01*
X154016842Y-56067932D01*
X154303740Y-56125000D01*
X154596260Y-56125000D01*
X154883158Y-56067932D01*
X155153411Y-55955990D01*
X155396632Y-55793475D01*
X155528487Y-55661620D01*
X155550498Y-55734180D01*
X155609463Y-55844494D01*
X155688815Y-55941185D01*
X155785506Y-56020537D01*
X155895820Y-56079502D01*
X156015518Y-56115812D01*
X156140000Y-56128072D01*
X157840000Y-56128072D01*
X157964482Y-56115812D01*
X158084180Y-56079502D01*
X158194494Y-56020537D01*
X158291185Y-55941185D01*
X158370537Y-55844494D01*
X158429502Y-55734180D01*
X158465812Y-55614482D01*
X158478072Y-55490000D01*
X158478072Y-53790000D01*
X158465812Y-53665518D01*
X158429502Y-53545820D01*
X158370537Y-53435506D01*
X158291185Y-53338815D01*
X158194494Y-53259463D01*
X158084180Y-53200498D01*
X157964482Y-53164188D01*
X157840000Y-53151928D01*
X156140000Y-53151928D01*
X156015518Y-53164188D01*
X155895820Y-53200498D01*
X155785506Y-53259463D01*
X155688815Y-53338815D01*
X155609463Y-53435506D01*
X155550498Y-53545820D01*
X155528487Y-53618380D01*
X155396632Y-53486525D01*
X155153411Y-53324010D01*
X154883158Y-53212068D01*
X154596260Y-53155000D01*
X154303740Y-53155000D01*
X154016842Y-53212068D01*
X153746589Y-53324010D01*
X153503368Y-53486525D01*
X153296525Y-53693368D01*
X153134010Y-53936589D01*
X153022068Y-54206842D01*
X152965000Y-54493740D01*
X132323825Y-54493740D01*
X132316712Y-51645000D01*
X165466709Y-51645000D01*
X165484920Y-58938489D01*
G37*
%TD.AperFunction*%
%TD*%
M02*
