%TF.GenerationSoftware,KiCad,Pcbnew,(5.1.9)-1*%
%TF.CreationDate,2021-03-18T14:02:07+01:00*%
%TF.ProjectId,clip,636c6970-2e6b-4696-9361-645f70636258,rev?*%
%TF.SameCoordinates,Original*%
%TF.FileFunction,Other,User*%
%FSLAX46Y46*%
G04 Gerber Fmt 4.6, Leading zero omitted, Abs format (unit mm)*
G04 Created by KiCad (PCBNEW (5.1.9)-1) date 2021-03-18 14:02:07*
%MOMM*%
%LPD*%
G01*
G04 APERTURE LIST*
%ADD10C,0.050000*%
G04 APERTURE END LIST*
D10*
%TO.C,J1*%
X123350000Y-74220000D02*
X130250000Y-74220000D01*
X123350000Y-65620000D02*
X123350000Y-74220000D01*
X130250000Y-65620000D02*
X123350000Y-65620000D01*
X130250000Y-74220000D02*
X130250000Y-65620000D01*
%TO.C,U4*%
X139080000Y-125320000D02*
X134580000Y-125320000D01*
X163080000Y-125320000D02*
X158580000Y-125320000D01*
X134580000Y-136600000D02*
X134580000Y-125320000D01*
X163080000Y-136600000D02*
X163080000Y-125320000D01*
X163080000Y-136600000D02*
X134580000Y-136600000D01*
X139080000Y-125320000D02*
X139080000Y-105100000D01*
X158580000Y-105100000D02*
X139080000Y-105100000D01*
X158580000Y-105100000D02*
X158580000Y-125320000D01*
%TO.C,J2*%
X144280000Y-70840000D02*
X144280000Y-74740000D01*
X144280000Y-74740000D02*
X153280000Y-74740000D01*
X153280000Y-74740000D02*
X153280000Y-70840000D01*
X153280000Y-70840000D02*
X144280000Y-70840000D01*
%TO.C,JP1*%
X158790000Y-56440000D02*
X158790000Y-52840000D01*
X152640000Y-56440000D02*
X158790000Y-56440000D01*
X152640000Y-52840000D02*
X152640000Y-56440000D01*
X158790000Y-52840000D02*
X152640000Y-52840000D01*
%TO.C,R13*%
X160090000Y-81790000D02*
X160090000Y-85490000D01*
X158190000Y-81790000D02*
X160090000Y-81790000D01*
X158190000Y-85490000D02*
X158190000Y-81790000D01*
X160090000Y-85490000D02*
X158190000Y-85490000D01*
%TO.C,C6*%
X142358000Y-78622000D02*
X142358000Y-74922000D01*
X144258000Y-78622000D02*
X142358000Y-78622000D01*
X144258000Y-74922000D02*
X144258000Y-78622000D01*
X142358000Y-74922000D02*
X144258000Y-74922000D01*
%TO.C,U3*%
X151890000Y-78944000D02*
X144990000Y-78944000D01*
X151890000Y-88244000D02*
X144990000Y-88244000D01*
X144990000Y-88244000D02*
X144990000Y-78944000D01*
X151890000Y-88244000D02*
X151890000Y-78944000D01*
%TO.C,U2*%
X156888000Y-68267000D02*
X152128000Y-68267000D01*
X156888000Y-68267000D02*
X156888000Y-64667000D01*
X152128000Y-64667000D02*
X152128000Y-68267000D01*
X152128000Y-64667000D02*
X156888000Y-64667000D01*
%TO.C,U1*%
X141820000Y-60870000D02*
X137060000Y-60870000D01*
X141820000Y-60870000D02*
X141820000Y-57270000D01*
X137060000Y-57270000D02*
X137060000Y-60870000D01*
X137060000Y-57270000D02*
X141820000Y-57270000D01*
%TO.C,EN*%
X168000000Y-106520000D02*
X164700000Y-106520000D01*
X168000000Y-111320000D02*
X168000000Y-106520000D01*
X164700000Y-111320000D02*
X168000000Y-111320000D01*
X164700000Y-106520000D02*
X164700000Y-111320000D01*
%TO.C,BOOT*%
X129680000Y-111315000D02*
X132980000Y-111315000D01*
X129680000Y-106515000D02*
X129680000Y-111315000D01*
X132980000Y-106515000D02*
X129680000Y-106515000D01*
X132980000Y-111315000D02*
X132980000Y-106515000D01*
%TO.C,R12*%
X163590000Y-81790000D02*
X163590000Y-85490000D01*
X161690000Y-81790000D02*
X163590000Y-81790000D01*
X161690000Y-85490000D02*
X161690000Y-81790000D01*
X163590000Y-85490000D02*
X161690000Y-85490000D01*
%TO.C,R11*%
X133570000Y-110175000D02*
X133570000Y-106475000D01*
X135470000Y-110175000D02*
X133570000Y-110175000D01*
X135470000Y-106475000D02*
X135470000Y-110175000D01*
X133570000Y-106475000D02*
X135470000Y-106475000D01*
%TO.C,R10*%
X162480000Y-111410000D02*
X166180000Y-111410000D01*
X162480000Y-113310000D02*
X162480000Y-111410000D01*
X166180000Y-113310000D02*
X162480000Y-113310000D01*
X166180000Y-111410000D02*
X166180000Y-113310000D01*
%TO.C,R9*%
X155375000Y-104690000D02*
X151675000Y-104690000D01*
X155375000Y-102790000D02*
X155375000Y-104690000D01*
X151675000Y-102790000D02*
X155375000Y-102790000D01*
X151675000Y-104690000D02*
X151675000Y-102790000D01*
%TO.C,R8*%
X142850000Y-53690000D02*
X146550000Y-53690000D01*
X142850000Y-55590000D02*
X142850000Y-53690000D01*
X146550000Y-55590000D02*
X142850000Y-55590000D01*
X146550000Y-53690000D02*
X146550000Y-55590000D01*
%TO.C,R7*%
X144644000Y-78622000D02*
X144644000Y-74922000D01*
X146544000Y-78622000D02*
X144644000Y-78622000D01*
X146544000Y-74922000D02*
X146544000Y-78622000D01*
X144644000Y-74922000D02*
X146544000Y-74922000D01*
%TO.C,R6*%
X147820000Y-59080000D02*
X144120000Y-59080000D01*
X147820000Y-57180000D02*
X147820000Y-59080000D01*
X144120000Y-57180000D02*
X147820000Y-57180000D01*
X144120000Y-59080000D02*
X144120000Y-57180000D01*
%TO.C,R5*%
X158390000Y-64490000D02*
X160290000Y-64490000D01*
X160290000Y-64490000D02*
X160290000Y-68190000D01*
X160290000Y-68190000D02*
X158390000Y-68190000D01*
X158390000Y-68190000D02*
X158390000Y-64490000D01*
%TO.C,R4*%
X150974000Y-78710000D02*
X150974000Y-75010000D01*
X152874000Y-78710000D02*
X150974000Y-78710000D01*
X152874000Y-75010000D02*
X152874000Y-78710000D01*
X150974000Y-75010000D02*
X152874000Y-75010000D01*
%TO.C,R2*%
X141910000Y-72090000D02*
X138210000Y-72090000D01*
X141910000Y-70190000D02*
X141910000Y-72090000D01*
X138210000Y-70190000D02*
X141910000Y-70190000D01*
X138210000Y-72090000D02*
X138210000Y-70190000D01*
%TO.C,R1*%
X152240000Y-64100000D02*
X148540000Y-64100000D01*
X152240000Y-62200000D02*
X152240000Y-64100000D01*
X148540000Y-62200000D02*
X152240000Y-62200000D01*
X148540000Y-64100000D02*
X148540000Y-62200000D01*
%TO.C,Q3*%
X159052000Y-85790000D02*
X162552000Y-85790000D01*
X159052000Y-89190000D02*
X159052000Y-85790000D01*
X162552000Y-89190000D02*
X159052000Y-89190000D01*
X162552000Y-85790000D02*
X162552000Y-89190000D01*
%TO.C,Q2*%
X162640000Y-81340000D02*
X159140000Y-81340000D01*
X162640000Y-77940000D02*
X162640000Y-81340000D01*
X159140000Y-77940000D02*
X162640000Y-77940000D01*
X159140000Y-81340000D02*
X159140000Y-77940000D01*
%TO.C,Q1*%
X142300000Y-64780000D02*
X142300000Y-68280000D01*
X136900000Y-64780000D02*
X142300000Y-64780000D01*
X136900000Y-68280000D02*
X136900000Y-64780000D01*
X142300000Y-68280000D02*
X136900000Y-68280000D01*
%TO.C,J4*%
X148640000Y-96370000D02*
X148640000Y-99970000D01*
X169990000Y-96370000D02*
X148640000Y-96370000D01*
X169990000Y-99970000D02*
X169990000Y-96370000D01*
X148640000Y-99970000D02*
X169990000Y-99970000D01*
%TO.C,J3*%
X127160000Y-96300000D02*
X127160000Y-99900000D01*
X146010000Y-96300000D02*
X127160000Y-96300000D01*
X146010000Y-99900000D02*
X146010000Y-96300000D01*
X127160000Y-99900000D02*
X146010000Y-99900000D01*
%TO.C,D5*%
X142285000Y-102780000D02*
X145985000Y-102780000D01*
X142285000Y-104680000D02*
X142285000Y-102780000D01*
X145985000Y-104680000D02*
X142285000Y-104680000D01*
X145985000Y-102780000D02*
X145985000Y-104680000D01*
%TO.C,D3*%
X152250000Y-55610000D02*
X148550000Y-55610000D01*
X152250000Y-53710000D02*
X152250000Y-55610000D01*
X148550000Y-53710000D02*
X152250000Y-53710000D01*
X148550000Y-55610000D02*
X148550000Y-53710000D01*
%TO.C,D2*%
X148180000Y-68480000D02*
X148180000Y-66580000D01*
X148180000Y-66580000D02*
X144180000Y-66580000D01*
X144180000Y-68480000D02*
X144180000Y-66580000D01*
X148180000Y-68480000D02*
X144180000Y-68480000D01*
%TO.C,D1*%
X148500000Y-57310000D02*
X152200000Y-57310000D01*
X148500000Y-59210000D02*
X148500000Y-57310000D01*
X152200000Y-59210000D02*
X148500000Y-59210000D01*
X152200000Y-57310000D02*
X152200000Y-59210000D01*
%TO.C,C12*%
X164240000Y-106590000D02*
X164240000Y-110290000D01*
X162340000Y-106590000D02*
X164240000Y-106590000D01*
X162340000Y-110290000D02*
X162340000Y-106590000D01*
X164240000Y-110290000D02*
X162340000Y-110290000D01*
%TO.C,C11*%
X159230000Y-124650000D02*
X159230000Y-120950000D01*
X161130000Y-124650000D02*
X159230000Y-124650000D01*
X161130000Y-120950000D02*
X161130000Y-124650000D01*
X159230000Y-120950000D02*
X161130000Y-120950000D01*
%TO.C,C10*%
X161440000Y-124640000D02*
X161440000Y-120940000D01*
X163340000Y-124640000D02*
X161440000Y-124640000D01*
X163340000Y-120940000D02*
X163340000Y-124640000D01*
X161440000Y-120940000D02*
X163340000Y-120940000D01*
%TO.C,C9*%
X140110000Y-85395000D02*
X140110000Y-81695000D01*
X142010000Y-85395000D02*
X140110000Y-85395000D01*
X142010000Y-81695000D02*
X142010000Y-85395000D01*
X140110000Y-81695000D02*
X142010000Y-81695000D01*
%TO.C,C8*%
X142310000Y-85425000D02*
X142310000Y-81725000D01*
X144210000Y-85425000D02*
X142310000Y-85425000D01*
X144210000Y-81725000D02*
X144210000Y-85425000D01*
X142310000Y-81725000D02*
X144210000Y-81725000D01*
%TO.C,C7*%
X154400000Y-81955000D02*
X154400000Y-85655000D01*
X152500000Y-81955000D02*
X154400000Y-81955000D01*
X152500000Y-85655000D02*
X152500000Y-81955000D01*
X154400000Y-85655000D02*
X152500000Y-85655000D01*
%TO.C,C5*%
X153460000Y-78650000D02*
X153460000Y-74950000D01*
X155360000Y-78650000D02*
X153460000Y-78650000D01*
X155360000Y-74950000D02*
X155360000Y-78650000D01*
X153460000Y-74950000D02*
X155360000Y-74950000D01*
%TO.C,C4*%
X158390000Y-68200000D02*
X160290000Y-68200000D01*
X160290000Y-68200000D02*
X160290000Y-71900000D01*
X160290000Y-71900000D02*
X158390000Y-71900000D01*
X158390000Y-71900000D02*
X158390000Y-68200000D01*
%TO.C,C3*%
X151360000Y-68380000D02*
X149460000Y-68380000D01*
X149460000Y-68380000D02*
X149460000Y-64680000D01*
X149460000Y-64680000D02*
X151360000Y-64680000D01*
X151360000Y-64680000D02*
X151360000Y-68380000D01*
%TO.C,C2*%
X147820000Y-61180000D02*
X144120000Y-61180000D01*
X147820000Y-59280000D02*
X147820000Y-61180000D01*
X144120000Y-59280000D02*
X147820000Y-59280000D01*
X144120000Y-61180000D02*
X144120000Y-59280000D01*
%TO.C,C1*%
X132090000Y-73010000D02*
X132090000Y-69310000D01*
X133990000Y-73010000D02*
X132090000Y-73010000D01*
X133990000Y-69310000D02*
X133990000Y-73010000D01*
X132090000Y-69310000D02*
X133990000Y-69310000D01*
%TD*%
M02*
