%FSLAX45Y45*%
G04 Gerber Fmt 4.5, Leading zero omitted, Abs format (unit mm)*
G04 Created by KiCad (PCBNEW (5.1.10)-1) date 2021-07-02 09:23:47*
%MOMM*%
%LPD*%
G01*
G04 APERTURE LIST*
%TA.AperFunction,Profile*%
%ADD10C,0.100000*%
%TD*%
%ADD11C,0.200000*%
%ADD12C,0.300000*%
G04 APERTURE END LIST*
D10*
X12558000Y-7323000D02*
X13360400Y-7322312D01*
X12553000Y-12532000D02*
X12557828Y-7323000D01*
X17214000Y-12530000D02*
X12553000Y-12532000D01*
X17214000Y-7327000D02*
X17214000Y-12530000D01*
X13360400Y-7322312D02*
X17214000Y-7327000D01*
D11*
X12913000Y-8977000D02*
X12993000Y-9057000D01*
X12993000Y-8977000D02*
X12913000Y-9057000D01*
X12913000Y-9477000D02*
X12993000Y-9557000D01*
X12993000Y-9477000D02*
X12913000Y-9557000D01*
X16210000Y-10936000D02*
X16290000Y-11016000D01*
X16290000Y-10936000D02*
X16210000Y-11016000D01*
D12*
X12834428Y-13002714D02*
X12834428Y-12702714D01*
X12905857Y-12702714D01*
X12948714Y-12717000D01*
X12977286Y-12745571D01*
X12991571Y-12774143D01*
X13005857Y-12831286D01*
X13005857Y-12874143D01*
X12991571Y-12931286D01*
X12977286Y-12959857D01*
X12948714Y-12988429D01*
X12905857Y-13002714D01*
X12834428Y-13002714D01*
X13134428Y-13002714D02*
X13134428Y-12802714D01*
X13134428Y-12859857D02*
X13148714Y-12831286D01*
X13163000Y-12817000D01*
X13191571Y-12802714D01*
X13220143Y-12802714D01*
X13320143Y-13002714D02*
X13320143Y-12802714D01*
X13320143Y-12702714D02*
X13305857Y-12717000D01*
X13320143Y-12731286D01*
X13334428Y-12717000D01*
X13320143Y-12702714D01*
X13320143Y-12731286D01*
X13505857Y-13002714D02*
X13477286Y-12988429D01*
X13463000Y-12959857D01*
X13463000Y-12702714D01*
X13663000Y-13002714D02*
X13634428Y-12988429D01*
X13620143Y-12959857D01*
X13620143Y-12702714D01*
X14005857Y-13002714D02*
X14005857Y-12702714D01*
X14105857Y-12917000D01*
X14205857Y-12702714D01*
X14205857Y-13002714D01*
X14477286Y-13002714D02*
X14477286Y-12845571D01*
X14463000Y-12817000D01*
X14434428Y-12802714D01*
X14377286Y-12802714D01*
X14348714Y-12817000D01*
X14477286Y-12988429D02*
X14448714Y-13002714D01*
X14377286Y-13002714D01*
X14348714Y-12988429D01*
X14334428Y-12959857D01*
X14334428Y-12931286D01*
X14348714Y-12902714D01*
X14377286Y-12888429D01*
X14448714Y-12888429D01*
X14477286Y-12874143D01*
X14620143Y-12802714D02*
X14620143Y-13102714D01*
X14620143Y-12817000D02*
X14648714Y-12802714D01*
X14705857Y-12802714D01*
X14734428Y-12817000D01*
X14748714Y-12831286D01*
X14763000Y-12859857D01*
X14763000Y-12945571D01*
X14748714Y-12974143D01*
X14734428Y-12988429D01*
X14705857Y-13002714D01*
X14648714Y-13002714D01*
X14620143Y-12988429D01*
X14891571Y-12974143D02*
X14905857Y-12988429D01*
X14891571Y-13002714D01*
X14877286Y-12988429D01*
X14891571Y-12974143D01*
X14891571Y-13002714D01*
X14891571Y-12817000D02*
X14905857Y-12831286D01*
X14891571Y-12845571D01*
X14877286Y-12831286D01*
X14891571Y-12817000D01*
X14891571Y-12845571D01*
X12468000Y-13457000D02*
X12548000Y-13537000D01*
X12548000Y-13457000D02*
X12468000Y-13537000D01*
X12891571Y-13332714D02*
X12920143Y-13332714D01*
X12948714Y-13347000D01*
X12963000Y-13361286D01*
X12977286Y-13389857D01*
X12991571Y-13447000D01*
X12991571Y-13518429D01*
X12977286Y-13575571D01*
X12963000Y-13604143D01*
X12948714Y-13618429D01*
X12920143Y-13632714D01*
X12891571Y-13632714D01*
X12863000Y-13618429D01*
X12848714Y-13604143D01*
X12834428Y-13575571D01*
X12820143Y-13518429D01*
X12820143Y-13447000D01*
X12834428Y-13389857D01*
X12848714Y-13361286D01*
X12863000Y-13347000D01*
X12891571Y-13332714D01*
X13120143Y-13604143D02*
X13134428Y-13618429D01*
X13120143Y-13632714D01*
X13105857Y-13618429D01*
X13120143Y-13604143D01*
X13120143Y-13632714D01*
X13305857Y-13461286D02*
X13277286Y-13447000D01*
X13263000Y-13432714D01*
X13248714Y-13404143D01*
X13248714Y-13389857D01*
X13263000Y-13361286D01*
X13277286Y-13347000D01*
X13305857Y-13332714D01*
X13363000Y-13332714D01*
X13391571Y-13347000D01*
X13405857Y-13361286D01*
X13420143Y-13389857D01*
X13420143Y-13404143D01*
X13405857Y-13432714D01*
X13391571Y-13447000D01*
X13363000Y-13461286D01*
X13305857Y-13461286D01*
X13277286Y-13475571D01*
X13263000Y-13489857D01*
X13248714Y-13518429D01*
X13248714Y-13575571D01*
X13263000Y-13604143D01*
X13277286Y-13618429D01*
X13305857Y-13632714D01*
X13363000Y-13632714D01*
X13391571Y-13618429D01*
X13405857Y-13604143D01*
X13420143Y-13575571D01*
X13420143Y-13518429D01*
X13405857Y-13489857D01*
X13391571Y-13475571D01*
X13363000Y-13461286D01*
X13605857Y-13332714D02*
X13634428Y-13332714D01*
X13663000Y-13347000D01*
X13677286Y-13361286D01*
X13691571Y-13389857D01*
X13705857Y-13447000D01*
X13705857Y-13518429D01*
X13691571Y-13575571D01*
X13677286Y-13604143D01*
X13663000Y-13618429D01*
X13634428Y-13632714D01*
X13605857Y-13632714D01*
X13577286Y-13618429D01*
X13563000Y-13604143D01*
X13548714Y-13575571D01*
X13534428Y-13518429D01*
X13534428Y-13447000D01*
X13548714Y-13389857D01*
X13563000Y-13361286D01*
X13577286Y-13347000D01*
X13605857Y-13332714D01*
X13891571Y-13332714D02*
X13920143Y-13332714D01*
X13948714Y-13347000D01*
X13963000Y-13361286D01*
X13977286Y-13389857D01*
X13991571Y-13447000D01*
X13991571Y-13518429D01*
X13977286Y-13575571D01*
X13963000Y-13604143D01*
X13948714Y-13618429D01*
X13920143Y-13632714D01*
X13891571Y-13632714D01*
X13863000Y-13618429D01*
X13848714Y-13604143D01*
X13834428Y-13575571D01*
X13820143Y-13518429D01*
X13820143Y-13447000D01*
X13834428Y-13389857D01*
X13848714Y-13361286D01*
X13863000Y-13347000D01*
X13891571Y-13332714D01*
X14120143Y-13632714D02*
X14120143Y-13432714D01*
X14120143Y-13461286D02*
X14134428Y-13447000D01*
X14163000Y-13432714D01*
X14205857Y-13432714D01*
X14234428Y-13447000D01*
X14248714Y-13475571D01*
X14248714Y-13632714D01*
X14248714Y-13475571D02*
X14263000Y-13447000D01*
X14291571Y-13432714D01*
X14334428Y-13432714D01*
X14363000Y-13447000D01*
X14377286Y-13475571D01*
X14377286Y-13632714D01*
X14520143Y-13632714D02*
X14520143Y-13432714D01*
X14520143Y-13461286D02*
X14534428Y-13447000D01*
X14563000Y-13432714D01*
X14605857Y-13432714D01*
X14634428Y-13447000D01*
X14648714Y-13475571D01*
X14648714Y-13632714D01*
X14648714Y-13475571D02*
X14663000Y-13447000D01*
X14691571Y-13432714D01*
X14734428Y-13432714D01*
X14763000Y-13447000D01*
X14777286Y-13475571D01*
X14777286Y-13632714D01*
X15363000Y-13318429D02*
X15105857Y-13704143D01*
X15748714Y-13332714D02*
X15777286Y-13332714D01*
X15805857Y-13347000D01*
X15820143Y-13361286D01*
X15834428Y-13389857D01*
X15848714Y-13447000D01*
X15848714Y-13518429D01*
X15834428Y-13575571D01*
X15820143Y-13604143D01*
X15805857Y-13618429D01*
X15777286Y-13632714D01*
X15748714Y-13632714D01*
X15720143Y-13618429D01*
X15705857Y-13604143D01*
X15691571Y-13575571D01*
X15677286Y-13518429D01*
X15677286Y-13447000D01*
X15691571Y-13389857D01*
X15705857Y-13361286D01*
X15720143Y-13347000D01*
X15748714Y-13332714D01*
X15977286Y-13604143D02*
X15991571Y-13618429D01*
X15977286Y-13632714D01*
X15963000Y-13618429D01*
X15977286Y-13604143D01*
X15977286Y-13632714D01*
X16177286Y-13332714D02*
X16205857Y-13332714D01*
X16234428Y-13347000D01*
X16248714Y-13361286D01*
X16263000Y-13389857D01*
X16277286Y-13447000D01*
X16277286Y-13518429D01*
X16263000Y-13575571D01*
X16248714Y-13604143D01*
X16234428Y-13618429D01*
X16205857Y-13632714D01*
X16177286Y-13632714D01*
X16148714Y-13618429D01*
X16134428Y-13604143D01*
X16120143Y-13575571D01*
X16105857Y-13518429D01*
X16105857Y-13447000D01*
X16120143Y-13389857D01*
X16134428Y-13361286D01*
X16148714Y-13347000D01*
X16177286Y-13332714D01*
X16377286Y-13332714D02*
X16563000Y-13332714D01*
X16463000Y-13447000D01*
X16505857Y-13447000D01*
X16534428Y-13461286D01*
X16548714Y-13475571D01*
X16563000Y-13504143D01*
X16563000Y-13575571D01*
X16548714Y-13604143D01*
X16534428Y-13618429D01*
X16505857Y-13632714D01*
X16420143Y-13632714D01*
X16391571Y-13618429D01*
X16377286Y-13604143D01*
X16848714Y-13632714D02*
X16677286Y-13632714D01*
X16763000Y-13632714D02*
X16763000Y-13332714D01*
X16734428Y-13375571D01*
X16705857Y-13404143D01*
X16677286Y-13418429D01*
X17120143Y-13332714D02*
X16977286Y-13332714D01*
X16963000Y-13475571D01*
X16977286Y-13461286D01*
X17005857Y-13447000D01*
X17077286Y-13447000D01*
X17105857Y-13461286D01*
X17120143Y-13475571D01*
X17134428Y-13504143D01*
X17134428Y-13575571D01*
X17120143Y-13604143D01*
X17105857Y-13618429D01*
X17077286Y-13632714D01*
X17005857Y-13632714D01*
X16977286Y-13618429D01*
X16963000Y-13604143D01*
X17248714Y-13332714D02*
X17248714Y-13389857D01*
X17363000Y-13332714D02*
X17363000Y-13389857D01*
X17805857Y-13747000D02*
X17791571Y-13732714D01*
X17763000Y-13689857D01*
X17748714Y-13661286D01*
X17734428Y-13618429D01*
X17720143Y-13547000D01*
X17720143Y-13489857D01*
X17734428Y-13418429D01*
X17748714Y-13375571D01*
X17763000Y-13347000D01*
X17791571Y-13304143D01*
X17805857Y-13289857D01*
X17891571Y-13332714D02*
X18077286Y-13332714D01*
X17977286Y-13447000D01*
X18020143Y-13447000D01*
X18048714Y-13461286D01*
X18063000Y-13475571D01*
X18077286Y-13504143D01*
X18077286Y-13575571D01*
X18063000Y-13604143D01*
X18048714Y-13618429D01*
X18020143Y-13632714D01*
X17934428Y-13632714D01*
X17905857Y-13618429D01*
X17891571Y-13604143D01*
X18434428Y-13632714D02*
X18434428Y-13332714D01*
X18563000Y-13632714D02*
X18563000Y-13475571D01*
X18548714Y-13447000D01*
X18520143Y-13432714D01*
X18477286Y-13432714D01*
X18448714Y-13447000D01*
X18434428Y-13461286D01*
X18748714Y-13632714D02*
X18720143Y-13618429D01*
X18705857Y-13604143D01*
X18691571Y-13575571D01*
X18691571Y-13489857D01*
X18705857Y-13461286D01*
X18720143Y-13447000D01*
X18748714Y-13432714D01*
X18791571Y-13432714D01*
X18820143Y-13447000D01*
X18834428Y-13461286D01*
X18848714Y-13489857D01*
X18848714Y-13575571D01*
X18834428Y-13604143D01*
X18820143Y-13618429D01*
X18791571Y-13632714D01*
X18748714Y-13632714D01*
X19020143Y-13632714D02*
X18991571Y-13618429D01*
X18977286Y-13589857D01*
X18977286Y-13332714D01*
X19248714Y-13618429D02*
X19220143Y-13632714D01*
X19163000Y-13632714D01*
X19134428Y-13618429D01*
X19120143Y-13589857D01*
X19120143Y-13475571D01*
X19134428Y-13447000D01*
X19163000Y-13432714D01*
X19220143Y-13432714D01*
X19248714Y-13447000D01*
X19263000Y-13475571D01*
X19263000Y-13504143D01*
X19120143Y-13532714D01*
X19377286Y-13618429D02*
X19405857Y-13632714D01*
X19463000Y-13632714D01*
X19491571Y-13618429D01*
X19505857Y-13589857D01*
X19505857Y-13575571D01*
X19491571Y-13547000D01*
X19463000Y-13532714D01*
X19420143Y-13532714D01*
X19391571Y-13518429D01*
X19377286Y-13489857D01*
X19377286Y-13475571D01*
X19391571Y-13447000D01*
X19420143Y-13432714D01*
X19463000Y-13432714D01*
X19491571Y-13447000D01*
X19605857Y-13747000D02*
X19620143Y-13732714D01*
X19648714Y-13689857D01*
X19663000Y-13661286D01*
X19677286Y-13618429D01*
X19691571Y-13547000D01*
X19691571Y-13489857D01*
X19677286Y-13418429D01*
X19663000Y-13375571D01*
X19648714Y-13347000D01*
X19620143Y-13304143D01*
X19605857Y-13289857D01*
X20148714Y-13747000D02*
X20134428Y-13732714D01*
X20105857Y-13689857D01*
X20091571Y-13661286D01*
X20077286Y-13618429D01*
X20063000Y-13547000D01*
X20063000Y-13489857D01*
X20077286Y-13418429D01*
X20091571Y-13375571D01*
X20105857Y-13347000D01*
X20134428Y-13304143D01*
X20148714Y-13289857D01*
X20263000Y-13432714D02*
X20263000Y-13632714D01*
X20263000Y-13461286D02*
X20277286Y-13447000D01*
X20305857Y-13432714D01*
X20348714Y-13432714D01*
X20377286Y-13447000D01*
X20391571Y-13475571D01*
X20391571Y-13632714D01*
X20577286Y-13632714D02*
X20548714Y-13618429D01*
X20534428Y-13604143D01*
X20520143Y-13575571D01*
X20520143Y-13489857D01*
X20534428Y-13461286D01*
X20548714Y-13447000D01*
X20577286Y-13432714D01*
X20620143Y-13432714D01*
X20648714Y-13447000D01*
X20663000Y-13461286D01*
X20677286Y-13489857D01*
X20677286Y-13575571D01*
X20663000Y-13604143D01*
X20648714Y-13618429D01*
X20620143Y-13632714D01*
X20577286Y-13632714D01*
X20763000Y-13432714D02*
X20877286Y-13432714D01*
X20805857Y-13332714D02*
X20805857Y-13589857D01*
X20820143Y-13618429D01*
X20848714Y-13632714D01*
X20877286Y-13632714D01*
X21205857Y-13432714D02*
X21205857Y-13732714D01*
X21205857Y-13447000D02*
X21234428Y-13432714D01*
X21291571Y-13432714D01*
X21320143Y-13447000D01*
X21334428Y-13461286D01*
X21348714Y-13489857D01*
X21348714Y-13575571D01*
X21334428Y-13604143D01*
X21320143Y-13618429D01*
X21291571Y-13632714D01*
X21234428Y-13632714D01*
X21205857Y-13618429D01*
X21520143Y-13632714D02*
X21491571Y-13618429D01*
X21477286Y-13589857D01*
X21477286Y-13332714D01*
X21763000Y-13632714D02*
X21763000Y-13475571D01*
X21748714Y-13447000D01*
X21720143Y-13432714D01*
X21663000Y-13432714D01*
X21634428Y-13447000D01*
X21763000Y-13618429D02*
X21734428Y-13632714D01*
X21663000Y-13632714D01*
X21634428Y-13618429D01*
X21620143Y-13589857D01*
X21620143Y-13561286D01*
X21634428Y-13532714D01*
X21663000Y-13518429D01*
X21734428Y-13518429D01*
X21763000Y-13504143D01*
X21863000Y-13432714D02*
X21977286Y-13432714D01*
X21905857Y-13332714D02*
X21905857Y-13589857D01*
X21920143Y-13618429D01*
X21948714Y-13632714D01*
X21977286Y-13632714D01*
X22191571Y-13618429D02*
X22163000Y-13632714D01*
X22105857Y-13632714D01*
X22077286Y-13618429D01*
X22063000Y-13589857D01*
X22063000Y-13475571D01*
X22077286Y-13447000D01*
X22105857Y-13432714D01*
X22163000Y-13432714D01*
X22191571Y-13447000D01*
X22205857Y-13475571D01*
X22205857Y-13504143D01*
X22063000Y-13532714D01*
X22463000Y-13632714D02*
X22463000Y-13332714D01*
X22463000Y-13618429D02*
X22434428Y-13632714D01*
X22377286Y-13632714D01*
X22348714Y-13618429D01*
X22334428Y-13604143D01*
X22320143Y-13575571D01*
X22320143Y-13489857D01*
X22334428Y-13461286D01*
X22348714Y-13447000D01*
X22377286Y-13432714D01*
X22434428Y-13432714D01*
X22463000Y-13447000D01*
X22577286Y-13747000D02*
X22591571Y-13732714D01*
X22620143Y-13689857D01*
X22634428Y-13661286D01*
X22648714Y-13618429D01*
X22663000Y-13547000D01*
X22663000Y-13489857D01*
X22648714Y-13418429D01*
X22634428Y-13375571D01*
X22620143Y-13347000D01*
X22591571Y-13304143D01*
X22577286Y-13289857D01*
M02*
