%TF.GenerationSoftware,KiCad,Pcbnew,(5.1.10)-1*%
%TF.CreationDate,2021-06-27T19:43:52+02:00*%
%TF.ProjectId,clip,636c6970-2e6b-4696-9361-645f70636258,rev?*%
%TF.SameCoordinates,Original*%
%TF.FileFunction,Legend,Top*%
%TF.FilePolarity,Positive*%
%FSLAX46Y46*%
G04 Gerber Fmt 4.6, Leading zero omitted, Abs format (unit mm)*
G04 Created by KiCad (PCBNEW (5.1.10)-1) date 2021-06-27 19:43:52*
%MOMM*%
%LPD*%
G01*
G04 APERTURE LIST*
%ADD10C,0.150000*%
%ADD11C,0.120000*%
%ADD12C,3.800000*%
%ADD13O,1.700000X1.700000*%
%ADD14R,1.700000X1.700000*%
%ADD15R,1.000000X1.000000*%
%ADD16C,0.100000*%
%ADD17R,1.560000X0.650000*%
%ADD18R,5.000000X5.000000*%
%ADD19R,2.800000X0.900000*%
%ADD20R,0.900000X2.800000*%
%ADD21O,0.800000X0.800000*%
%ADD22O,1.800000X1.150000*%
%ADD23O,2.000000X1.450000*%
%ADD24R,1.700000X0.450000*%
%ADD25C,0.800000*%
%ADD26R,1.700000X1.300000*%
%ADD27O,1.200000X1.750000*%
%ADD28R,1.900000X0.800000*%
G04 APERTURE END LIST*
D10*
X129244047Y-86546428D02*
X130005952Y-86546428D01*
X129625000Y-86927380D02*
X129625000Y-86165476D01*
X133819047Y-90901828D02*
X134580952Y-90901828D01*
X134200000Y-91282780D02*
X134200000Y-90520876D01*
X137044047Y-81421428D02*
X137805952Y-81421428D01*
X137425000Y-81802380D02*
X137425000Y-81040476D01*
X148073202Y-80829508D02*
X148444631Y-80829508D01*
X148244631Y-81058080D01*
X148330345Y-81058080D01*
X148387488Y-81086651D01*
X148416060Y-81115222D01*
X148444631Y-81172365D01*
X148444631Y-81315222D01*
X148416060Y-81372365D01*
X148387488Y-81400937D01*
X148330345Y-81429508D01*
X148158917Y-81429508D01*
X148101774Y-81400937D01*
X148073202Y-81372365D01*
X148616060Y-80829508D02*
X148816060Y-81429508D01*
X149016060Y-80829508D01*
X149158917Y-80829508D02*
X149530345Y-80829508D01*
X149330345Y-81058080D01*
X149416060Y-81058080D01*
X149473202Y-81086651D01*
X149501774Y-81115222D01*
X149530345Y-81172365D01*
X149530345Y-81315222D01*
X149501774Y-81372365D01*
X149473202Y-81400937D01*
X149416060Y-81429508D01*
X149244631Y-81429508D01*
X149187488Y-81400937D01*
X149158917Y-81372365D01*
X166840602Y-100261068D02*
X166840602Y-99661068D01*
X167126317Y-100261068D02*
X167126317Y-99661068D01*
X167469174Y-100261068D01*
X167469174Y-99661068D01*
X167669174Y-99661068D02*
X168012031Y-99661068D01*
X167840602Y-100261068D02*
X167840602Y-99661068D01*
X164751080Y-100198845D02*
X164722508Y-100227417D01*
X164636794Y-100255988D01*
X164579651Y-100255988D01*
X164493937Y-100227417D01*
X164436794Y-100170274D01*
X164408222Y-100113131D01*
X164379651Y-99998845D01*
X164379651Y-99913131D01*
X164408222Y-99798845D01*
X164436794Y-99741702D01*
X164493937Y-99684560D01*
X164579651Y-99655988D01*
X164636794Y-99655988D01*
X164722508Y-99684560D01*
X164751080Y-99713131D01*
X164979651Y-100227417D02*
X165065365Y-100255988D01*
X165208222Y-100255988D01*
X165265365Y-100227417D01*
X165293937Y-100198845D01*
X165322508Y-100141702D01*
X165322508Y-100084560D01*
X165293937Y-100027417D01*
X165265365Y-99998845D01*
X165208222Y-99970274D01*
X165093937Y-99941702D01*
X165036794Y-99913131D01*
X165008222Y-99884560D01*
X164979651Y-99827417D01*
X164979651Y-99770274D01*
X165008222Y-99713131D01*
X165036794Y-99684560D01*
X165093937Y-99655988D01*
X165236794Y-99655988D01*
X165322508Y-99684560D01*
X161530445Y-100229957D02*
X161616160Y-100258528D01*
X161759017Y-100258528D01*
X161816160Y-100229957D01*
X161844731Y-100201385D01*
X161873302Y-100144242D01*
X161873302Y-100087100D01*
X161844731Y-100029957D01*
X161816160Y-100001385D01*
X161759017Y-99972814D01*
X161644731Y-99944242D01*
X161587588Y-99915671D01*
X161559017Y-99887100D01*
X161530445Y-99829957D01*
X161530445Y-99772814D01*
X161559017Y-99715671D01*
X161587588Y-99687100D01*
X161644731Y-99658528D01*
X161787588Y-99658528D01*
X161873302Y-99687100D01*
X162130445Y-100258528D02*
X162130445Y-99658528D01*
X162273302Y-99658528D01*
X162359017Y-99687100D01*
X162416160Y-99744242D01*
X162444731Y-99801385D01*
X162473302Y-99915671D01*
X162473302Y-100001385D01*
X162444731Y-100115671D01*
X162416160Y-100172814D01*
X162359017Y-100229957D01*
X162273302Y-100258528D01*
X162130445Y-100258528D01*
X162844731Y-99658528D02*
X162959017Y-99658528D01*
X163016160Y-99687100D01*
X163073302Y-99744242D01*
X163101874Y-99858528D01*
X163101874Y-100058528D01*
X163073302Y-100172814D01*
X163016160Y-100229957D01*
X162959017Y-100258528D01*
X162844731Y-100258528D01*
X162787588Y-100229957D01*
X162730445Y-100172814D01*
X162701874Y-100058528D01*
X162701874Y-99858528D01*
X162730445Y-99744242D01*
X162787588Y-99687100D01*
X162844731Y-99658528D01*
X151430128Y-99658528D02*
X151801557Y-99658528D01*
X151601557Y-99887100D01*
X151687271Y-99887100D01*
X151744414Y-99915671D01*
X151772985Y-99944242D01*
X151801557Y-100001385D01*
X151801557Y-100144242D01*
X151772985Y-100201385D01*
X151744414Y-100229957D01*
X151687271Y-100258528D01*
X151515842Y-100258528D01*
X151458700Y-100229957D01*
X151430128Y-100201385D01*
X151972985Y-99658528D02*
X152172985Y-100258528D01*
X152372985Y-99658528D01*
X152658700Y-100258528D02*
X152601557Y-100229957D01*
X152572985Y-100201385D01*
X152544414Y-100144242D01*
X152544414Y-99972814D01*
X152572985Y-99915671D01*
X152601557Y-99887100D01*
X152658700Y-99858528D01*
X152744414Y-99858528D01*
X152801557Y-99887100D01*
X152830128Y-99915671D01*
X152858700Y-99972814D01*
X152858700Y-100144242D01*
X152830128Y-100201385D01*
X152801557Y-100229957D01*
X152744414Y-100258528D01*
X152658700Y-100258528D01*
X145777280Y-100198845D02*
X145748708Y-100227417D01*
X145662994Y-100255988D01*
X145605851Y-100255988D01*
X145520137Y-100227417D01*
X145462994Y-100170274D01*
X145434422Y-100113131D01*
X145405851Y-99998845D01*
X145405851Y-99913131D01*
X145434422Y-99798845D01*
X145462994Y-99741702D01*
X145520137Y-99684560D01*
X145605851Y-99655988D01*
X145662994Y-99655988D01*
X145748708Y-99684560D01*
X145777280Y-99713131D01*
X146005851Y-100227417D02*
X146091565Y-100255988D01*
X146234422Y-100255988D01*
X146291565Y-100227417D01*
X146320137Y-100198845D01*
X146348708Y-100141702D01*
X146348708Y-100084560D01*
X146320137Y-100027417D01*
X146291565Y-99998845D01*
X146234422Y-99970274D01*
X146120137Y-99941702D01*
X146062994Y-99913131D01*
X146034422Y-99884560D01*
X146005851Y-99827417D01*
X146005851Y-99770274D01*
X146034422Y-99713131D01*
X146062994Y-99684560D01*
X146120137Y-99655988D01*
X146262994Y-99655988D01*
X146348708Y-99684560D01*
X139986165Y-100227417D02*
X140071880Y-100255988D01*
X140214737Y-100255988D01*
X140271880Y-100227417D01*
X140300451Y-100198845D01*
X140329022Y-100141702D01*
X140329022Y-100084560D01*
X140300451Y-100027417D01*
X140271880Y-99998845D01*
X140214737Y-99970274D01*
X140100451Y-99941702D01*
X140043308Y-99913131D01*
X140014737Y-99884560D01*
X139986165Y-99827417D01*
X139986165Y-99770274D01*
X140014737Y-99713131D01*
X140043308Y-99684560D01*
X140100451Y-99655988D01*
X140243308Y-99655988D01*
X140329022Y-99684560D01*
X140586165Y-100255988D02*
X140586165Y-99655988D01*
X140729022Y-99655988D01*
X140814737Y-99684560D01*
X140871880Y-99741702D01*
X140900451Y-99798845D01*
X140929022Y-99913131D01*
X140929022Y-99998845D01*
X140900451Y-100113131D01*
X140871880Y-100170274D01*
X140814737Y-100227417D01*
X140729022Y-100255988D01*
X140586165Y-100255988D01*
X141300451Y-99655988D02*
X141414737Y-99655988D01*
X141471880Y-99684560D01*
X141529022Y-99741702D01*
X141557594Y-99855988D01*
X141557594Y-100055988D01*
X141529022Y-100170274D01*
X141471880Y-100227417D01*
X141414737Y-100255988D01*
X141300451Y-100255988D01*
X141243308Y-100227417D01*
X141186165Y-100170274D01*
X141157594Y-100055988D01*
X141157594Y-99855988D01*
X141186165Y-99741702D01*
X141243308Y-99684560D01*
X141300451Y-99655988D01*
X132448708Y-99655988D02*
X132820137Y-99655988D01*
X132620137Y-99884560D01*
X132705851Y-99884560D01*
X132762994Y-99913131D01*
X132791565Y-99941702D01*
X132820137Y-99998845D01*
X132820137Y-100141702D01*
X132791565Y-100198845D01*
X132762994Y-100227417D01*
X132705851Y-100255988D01*
X132534422Y-100255988D01*
X132477280Y-100227417D01*
X132448708Y-100198845D01*
X132991565Y-99655988D02*
X133191565Y-100255988D01*
X133391565Y-99655988D01*
X133677280Y-100255988D02*
X133620137Y-100227417D01*
X133591565Y-100198845D01*
X133562994Y-100141702D01*
X133562994Y-99970274D01*
X133591565Y-99913131D01*
X133620137Y-99884560D01*
X133677280Y-99855988D01*
X133762994Y-99855988D01*
X133820137Y-99884560D01*
X133848708Y-99913131D01*
X133877280Y-99970274D01*
X133877280Y-100141702D01*
X133848708Y-100198845D01*
X133820137Y-100227417D01*
X133762994Y-100255988D01*
X133677280Y-100255988D01*
X150975117Y-80842840D02*
X150917974Y-80814268D01*
X150832260Y-80814268D01*
X150746545Y-80842840D01*
X150689402Y-80899982D01*
X150660831Y-80957125D01*
X150632260Y-81071411D01*
X150632260Y-81157125D01*
X150660831Y-81271411D01*
X150689402Y-81328554D01*
X150746545Y-81385697D01*
X150832260Y-81414268D01*
X150889402Y-81414268D01*
X150975117Y-81385697D01*
X151003688Y-81357125D01*
X151003688Y-81157125D01*
X150889402Y-81157125D01*
X151260831Y-81414268D02*
X151260831Y-80814268D01*
X151603688Y-81414268D01*
X151603688Y-80814268D01*
X151889402Y-81414268D02*
X151889402Y-80814268D01*
X152032260Y-80814268D01*
X152117974Y-80842840D01*
X152175117Y-80899982D01*
X152203688Y-80957125D01*
X152232260Y-81071411D01*
X152232260Y-81157125D01*
X152203688Y-81271411D01*
X152175117Y-81328554D01*
X152117974Y-81385697D01*
X152032260Y-81414268D01*
X151889402Y-81414268D01*
X145624642Y-81278400D02*
X145910357Y-81278400D01*
X145567500Y-81449828D02*
X145767500Y-80849828D01*
X145967500Y-81449828D01*
X146167500Y-81449828D02*
X146167500Y-80849828D01*
X146310357Y-80849828D01*
X146396071Y-80878400D01*
X146453214Y-80935542D01*
X146481785Y-80992685D01*
X146510357Y-81106971D01*
X146510357Y-81192685D01*
X146481785Y-81306971D01*
X146453214Y-81364114D01*
X146396071Y-81421257D01*
X146310357Y-81449828D01*
X146167500Y-81449828D01*
X147110357Y-81392685D02*
X147081785Y-81421257D01*
X146996071Y-81449828D01*
X146938928Y-81449828D01*
X146853214Y-81421257D01*
X146796071Y-81364114D01*
X146767500Y-81306971D01*
X146738928Y-81192685D01*
X146738928Y-81106971D01*
X146767500Y-80992685D01*
X146796071Y-80935542D01*
X146853214Y-80878400D01*
X146938928Y-80849828D01*
X146996071Y-80849828D01*
X147081785Y-80878400D01*
X147110357Y-80906971D01*
X136553322Y-122721408D02*
X136924751Y-122721408D01*
X136724751Y-122949980D01*
X136810465Y-122949980D01*
X136867608Y-122978551D01*
X136896180Y-123007122D01*
X136924751Y-123064265D01*
X136924751Y-123207122D01*
X136896180Y-123264265D01*
X136867608Y-123292837D01*
X136810465Y-123321408D01*
X136639037Y-123321408D01*
X136581894Y-123292837D01*
X136553322Y-123264265D01*
X137096180Y-122721408D02*
X137296180Y-123321408D01*
X137496180Y-122721408D01*
X137639037Y-122721408D02*
X138010465Y-122721408D01*
X137810465Y-122949980D01*
X137896180Y-122949980D01*
X137953322Y-122978551D01*
X137981894Y-123007122D01*
X138010465Y-123064265D01*
X138010465Y-123207122D01*
X137981894Y-123264265D01*
X137953322Y-123292837D01*
X137896180Y-123321408D01*
X137724751Y-123321408D01*
X137667608Y-123292837D01*
X137639037Y-123264265D01*
X136896180Y-120679808D02*
X136696180Y-120394094D01*
X136553322Y-120679808D02*
X136553322Y-120079808D01*
X136781894Y-120079808D01*
X136839037Y-120108380D01*
X136867608Y-120136951D01*
X136896180Y-120194094D01*
X136896180Y-120279808D01*
X136867608Y-120336951D01*
X136839037Y-120365522D01*
X136781894Y-120394094D01*
X136553322Y-120394094D01*
X137096180Y-120079808D02*
X137496180Y-120679808D01*
X137496180Y-120079808D02*
X137096180Y-120679808D01*
X137724751Y-120679808D02*
X137724751Y-120079808D01*
X137867608Y-120079808D01*
X137953322Y-120108380D01*
X138010465Y-120165522D01*
X138039037Y-120222665D01*
X138067608Y-120336951D01*
X138067608Y-120422665D01*
X138039037Y-120536951D01*
X138010465Y-120594094D01*
X137953322Y-120651237D01*
X137867608Y-120679808D01*
X137724751Y-120679808D01*
X136556817Y-117613468D02*
X136899674Y-117613468D01*
X136728245Y-118213468D02*
X136728245Y-117613468D01*
X137042531Y-117613468D02*
X137442531Y-118213468D01*
X137442531Y-117613468D02*
X137042531Y-118213468D01*
X137671102Y-118213468D02*
X137671102Y-117613468D01*
X137813960Y-117613468D01*
X137899674Y-117642040D01*
X137956817Y-117699182D01*
X137985388Y-117756325D01*
X138013960Y-117870611D01*
X138013960Y-117956325D01*
X137985388Y-118070611D01*
X137956817Y-118127754D01*
X137899674Y-118184897D01*
X137813960Y-118213468D01*
X137671102Y-118213468D01*
X136568842Y-115280442D02*
X136768842Y-115280442D01*
X136854557Y-115594728D02*
X136568842Y-115594728D01*
X136568842Y-114994728D01*
X136854557Y-114994728D01*
X137111700Y-115594728D02*
X137111700Y-114994728D01*
X137454557Y-115594728D01*
X137454557Y-114994728D01*
X136913608Y-112396940D02*
X136856465Y-112368368D01*
X136770751Y-112368368D01*
X136685037Y-112396940D01*
X136627894Y-112454082D01*
X136599322Y-112511225D01*
X136570751Y-112625511D01*
X136570751Y-112711225D01*
X136599322Y-112825511D01*
X136627894Y-112882654D01*
X136685037Y-112939797D01*
X136770751Y-112968368D01*
X136827894Y-112968368D01*
X136913608Y-112939797D01*
X136942180Y-112911225D01*
X136942180Y-112711225D01*
X136827894Y-112711225D01*
X137313608Y-112368368D02*
X137370751Y-112368368D01*
X137427894Y-112396940D01*
X137456465Y-112425511D01*
X137485037Y-112482654D01*
X137513608Y-112596940D01*
X137513608Y-112739797D01*
X137485037Y-112854082D01*
X137456465Y-112911225D01*
X137427894Y-112939797D01*
X137370751Y-112968368D01*
X137313608Y-112968368D01*
X137256465Y-112939797D01*
X137227894Y-112911225D01*
X137199322Y-112854082D01*
X137170751Y-112739797D01*
X137170751Y-112596940D01*
X137199322Y-112482654D01*
X137227894Y-112425511D01*
X137256465Y-112396940D01*
X137313608Y-112368368D01*
X136915237Y-109971240D02*
X136858094Y-109942668D01*
X136772380Y-109942668D01*
X136686665Y-109971240D01*
X136629522Y-110028382D01*
X136600951Y-110085525D01*
X136572380Y-110199811D01*
X136572380Y-110285525D01*
X136600951Y-110399811D01*
X136629522Y-110456954D01*
X136686665Y-110514097D01*
X136772380Y-110542668D01*
X136829522Y-110542668D01*
X136915237Y-110514097D01*
X136943808Y-110485525D01*
X136943808Y-110285525D01*
X136829522Y-110285525D01*
X137200951Y-110542668D02*
X137200951Y-109942668D01*
X137543808Y-110542668D01*
X137543808Y-109942668D01*
X137829522Y-110542668D02*
X137829522Y-109942668D01*
X137972380Y-109942668D01*
X138058094Y-109971240D01*
X138115237Y-110028382D01*
X138143808Y-110085525D01*
X138172380Y-110199811D01*
X138172380Y-110285525D01*
X138143808Y-110399811D01*
X138115237Y-110456954D01*
X138058094Y-110514097D01*
X137972380Y-110542668D01*
X137829522Y-110542668D01*
X159057748Y-100227417D02*
X159143462Y-100255988D01*
X159286320Y-100255988D01*
X159343462Y-100227417D01*
X159372034Y-100198845D01*
X159400605Y-100141702D01*
X159400605Y-100084560D01*
X159372034Y-100027417D01*
X159343462Y-99998845D01*
X159286320Y-99970274D01*
X159172034Y-99941702D01*
X159114891Y-99913131D01*
X159086320Y-99884560D01*
X159057748Y-99827417D01*
X159057748Y-99770274D01*
X159086320Y-99713131D01*
X159114891Y-99684560D01*
X159172034Y-99655988D01*
X159314891Y-99655988D01*
X159400605Y-99684560D01*
X159657748Y-100255988D02*
X159657748Y-99655988D01*
X159800605Y-99655988D01*
X159886320Y-99684560D01*
X159943462Y-99741702D01*
X159972034Y-99798845D01*
X160000605Y-99913131D01*
X160000605Y-99998845D01*
X159972034Y-100113131D01*
X159943462Y-100170274D01*
X159886320Y-100227417D01*
X159800605Y-100255988D01*
X159657748Y-100255988D01*
X160229177Y-100084560D02*
X160514891Y-100084560D01*
X160172034Y-100255988D02*
X160372034Y-99655988D01*
X160572034Y-100255988D01*
X156552354Y-100227417D02*
X156638068Y-100255988D01*
X156780925Y-100255988D01*
X156838068Y-100227417D01*
X156866640Y-100198845D01*
X156895211Y-100141702D01*
X156895211Y-100084560D01*
X156866640Y-100027417D01*
X156838068Y-99998845D01*
X156780925Y-99970274D01*
X156666640Y-99941702D01*
X156609497Y-99913131D01*
X156580925Y-99884560D01*
X156552354Y-99827417D01*
X156552354Y-99770274D01*
X156580925Y-99713131D01*
X156609497Y-99684560D01*
X156666640Y-99655988D01*
X156809497Y-99655988D01*
X156895211Y-99684560D01*
X157495211Y-100198845D02*
X157466640Y-100227417D01*
X157380925Y-100255988D01*
X157323782Y-100255988D01*
X157238068Y-100227417D01*
X157180925Y-100170274D01*
X157152354Y-100113131D01*
X157123782Y-99998845D01*
X157123782Y-99913131D01*
X157152354Y-99798845D01*
X157180925Y-99741702D01*
X157238068Y-99684560D01*
X157323782Y-99655988D01*
X157380925Y-99655988D01*
X157466640Y-99684560D01*
X157495211Y-99713131D01*
X158038068Y-100255988D02*
X157752354Y-100255988D01*
X157752354Y-99655988D01*
X154236477Y-99687100D02*
X154179334Y-99658528D01*
X154093620Y-99658528D01*
X154007905Y-99687100D01*
X153950762Y-99744242D01*
X153922191Y-99801385D01*
X153893620Y-99915671D01*
X153893620Y-100001385D01*
X153922191Y-100115671D01*
X153950762Y-100172814D01*
X154007905Y-100229957D01*
X154093620Y-100258528D01*
X154150762Y-100258528D01*
X154236477Y-100229957D01*
X154265048Y-100201385D01*
X154265048Y-100001385D01*
X154150762Y-100001385D01*
X154522191Y-100258528D02*
X154522191Y-99658528D01*
X154865048Y-100258528D01*
X154865048Y-99658528D01*
X155150762Y-100258528D02*
X155150762Y-99658528D01*
X155293620Y-99658528D01*
X155379334Y-99687100D01*
X155436477Y-99744242D01*
X155465048Y-99801385D01*
X155493620Y-99915671D01*
X155493620Y-100001385D01*
X155465048Y-100115671D01*
X155436477Y-100172814D01*
X155379334Y-100229957D01*
X155293620Y-100258528D01*
X155150762Y-100258528D01*
X149029814Y-99658528D02*
X149229814Y-100258528D01*
X149429814Y-99658528D01*
X149629814Y-100258528D02*
X149629814Y-99858528D01*
X149629814Y-99658528D02*
X149601242Y-99687100D01*
X149629814Y-99715671D01*
X149658385Y-99687100D01*
X149629814Y-99658528D01*
X149629814Y-99715671D01*
X149915528Y-99858528D02*
X149915528Y-100258528D01*
X149915528Y-99915671D02*
X149944100Y-99887100D01*
X150001242Y-99858528D01*
X150086957Y-99858528D01*
X150144100Y-99887100D01*
X150172671Y-99944242D01*
X150172671Y-100258528D01*
X142697594Y-100227417D02*
X142783308Y-100255988D01*
X142926165Y-100255988D01*
X142983308Y-100227417D01*
X143011880Y-100198845D01*
X143040451Y-100141702D01*
X143040451Y-100084560D01*
X143011880Y-100027417D01*
X142983308Y-99998845D01*
X142926165Y-99970274D01*
X142811880Y-99941702D01*
X142754737Y-99913131D01*
X142726165Y-99884560D01*
X142697594Y-99827417D01*
X142697594Y-99770274D01*
X142726165Y-99713131D01*
X142754737Y-99684560D01*
X142811880Y-99655988D01*
X142954737Y-99655988D01*
X143040451Y-99684560D01*
X143297594Y-100255988D02*
X143297594Y-99655988D01*
X143440451Y-99655988D01*
X143526165Y-99684560D01*
X143583308Y-99741702D01*
X143611880Y-99798845D01*
X143640451Y-99913131D01*
X143640451Y-99998845D01*
X143611880Y-100113131D01*
X143583308Y-100170274D01*
X143526165Y-100227417D01*
X143440451Y-100255988D01*
X143297594Y-100255988D01*
X143897594Y-100255988D02*
X143897594Y-99655988D01*
X137457911Y-100214717D02*
X137543625Y-100243288D01*
X137686482Y-100243288D01*
X137743625Y-100214717D01*
X137772197Y-100186145D01*
X137800768Y-100129002D01*
X137800768Y-100071860D01*
X137772197Y-100014717D01*
X137743625Y-99986145D01*
X137686482Y-99957574D01*
X137572197Y-99929002D01*
X137515054Y-99900431D01*
X137486482Y-99871860D01*
X137457911Y-99814717D01*
X137457911Y-99757574D01*
X137486482Y-99700431D01*
X137515054Y-99671860D01*
X137572197Y-99643288D01*
X137715054Y-99643288D01*
X137800768Y-99671860D01*
X138400768Y-100186145D02*
X138372197Y-100214717D01*
X138286482Y-100243288D01*
X138229340Y-100243288D01*
X138143625Y-100214717D01*
X138086482Y-100157574D01*
X138057911Y-100100431D01*
X138029340Y-99986145D01*
X138029340Y-99900431D01*
X138057911Y-99786145D01*
X138086482Y-99729002D01*
X138143625Y-99671860D01*
X138229340Y-99643288D01*
X138286482Y-99643288D01*
X138372197Y-99671860D01*
X138400768Y-99700431D01*
X138657911Y-100243288D02*
X138657911Y-99643288D01*
X139000768Y-100243288D02*
X138743625Y-99900431D01*
X139000768Y-99643288D02*
X138657911Y-99986145D01*
X135260137Y-99659160D02*
X135202994Y-99630588D01*
X135117280Y-99630588D01*
X135031565Y-99659160D01*
X134974422Y-99716302D01*
X134945851Y-99773445D01*
X134917280Y-99887731D01*
X134917280Y-99973445D01*
X134945851Y-100087731D01*
X134974422Y-100144874D01*
X135031565Y-100202017D01*
X135117280Y-100230588D01*
X135174422Y-100230588D01*
X135260137Y-100202017D01*
X135288708Y-100173445D01*
X135288708Y-99973445D01*
X135174422Y-99973445D01*
X135545851Y-100230588D02*
X135545851Y-99630588D01*
X135888708Y-100230588D01*
X135888708Y-99630588D01*
X136174422Y-100230588D02*
X136174422Y-99630588D01*
X136317280Y-99630588D01*
X136402994Y-99659160D01*
X136460137Y-99716302D01*
X136488708Y-99773445D01*
X136517280Y-99887731D01*
X136517280Y-99973445D01*
X136488708Y-100087731D01*
X136460137Y-100144874D01*
X136402994Y-100202017D01*
X136317280Y-100230588D01*
X136174422Y-100230588D01*
X130022994Y-99681388D02*
X130222994Y-100281388D01*
X130422994Y-99681388D01*
X130622994Y-100281388D02*
X130622994Y-99881388D01*
X130622994Y-99681388D02*
X130594422Y-99709960D01*
X130622994Y-99738531D01*
X130651565Y-99709960D01*
X130622994Y-99681388D01*
X130622994Y-99738531D01*
X130908708Y-99881388D02*
X130908708Y-100281388D01*
X130908708Y-99938531D02*
X130937280Y-99909960D01*
X130994422Y-99881388D01*
X131080137Y-99881388D01*
X131137280Y-99909960D01*
X131165851Y-99967102D01*
X131165851Y-100281388D01*
D11*
%TO.C,MOISTURE1*%
X152769880Y-80283360D02*
X152769880Y-77623360D01*
X147629880Y-80283360D02*
X152769880Y-80283360D01*
X147629880Y-77623360D02*
X152769880Y-77623360D01*
X147629880Y-80283360D02*
X147629880Y-77623360D01*
X146359880Y-80283360D02*
X145029880Y-80283360D01*
X145029880Y-80283360D02*
X145029880Y-78953360D01*
%TO.C,D3*%
X149094280Y-89232480D02*
X145944280Y-89232480D01*
X149094280Y-87532480D02*
X145944280Y-87532480D01*
X149094280Y-89232480D02*
X149094280Y-87532480D01*
%TO.C,D2*%
X160598400Y-78689080D02*
X163458400Y-78689080D01*
X160598400Y-76769080D02*
X160598400Y-78689080D01*
X163458400Y-76769080D02*
X160598400Y-76769080D01*
%TO.C,JP2*%
X163412980Y-87399620D02*
X166212980Y-87399620D01*
X166212980Y-87399620D02*
X166212980Y-89399620D01*
X166212980Y-89399620D02*
X163412980Y-89399620D01*
X163412980Y-89399620D02*
X163412980Y-87399620D01*
%TO.C,D4*%
X159510000Y-95510000D02*
X162370000Y-95510000D01*
X159510000Y-93590000D02*
X159510000Y-95510000D01*
X162370000Y-93590000D02*
X159510000Y-93590000D01*
%TO.C,U1*%
X143523800Y-97257940D02*
X145323800Y-97257940D01*
X145323800Y-94037940D02*
X142873800Y-94037940D01*
%TO.C,U3*%
X157950000Y-125045000D02*
X158330000Y-125045000D01*
X157950000Y-131465000D02*
X157950000Y-125045000D01*
X139710000Y-131465000D02*
X139710000Y-125045000D01*
X157950000Y-131465000D02*
X139710000Y-131465000D01*
X139710000Y-105720000D02*
X140710000Y-105720000D01*
X139710000Y-106500000D02*
X139710000Y-105720000D01*
X157950000Y-105720000D02*
X156950000Y-105720000D01*
X157950000Y-106500000D02*
X157950000Y-105720000D01*
D10*
%TO.C,USB1*%
X133027120Y-93996920D02*
X133027120Y-94996920D01*
X133027120Y-90396920D02*
X133027120Y-89396920D01*
X133452120Y-90396920D02*
X133027120Y-90396920D01*
X133452120Y-91121920D02*
X133452120Y-90396920D01*
X129877120Y-96346920D02*
X131277120Y-96346920D01*
X127327120Y-96346920D02*
X127477120Y-96346920D01*
X127327120Y-96046920D02*
X127327120Y-96346920D01*
X126877120Y-96046920D02*
X127327120Y-96046920D01*
X127327120Y-88346920D02*
X126877120Y-88346920D01*
X127327120Y-88046920D02*
X127327120Y-88346920D01*
X127477120Y-88046920D02*
X127327120Y-88046920D01*
X131277120Y-88046920D02*
X129877120Y-88046920D01*
D11*
%TO.C,EN1*%
X161400000Y-108110000D02*
X161100000Y-108110000D01*
X161100000Y-108110000D02*
X161100000Y-111410000D01*
X161100000Y-111410000D02*
X161400000Y-111410000D01*
X163600000Y-108110000D02*
X163900000Y-108110000D01*
X163900000Y-108110000D02*
X163900000Y-111410000D01*
X163900000Y-111410000D02*
X163600000Y-111410000D01*
%TO.C,LIS1*%
X168710000Y-103130000D02*
X168710000Y-100470000D01*
X150870000Y-103130000D02*
X168710000Y-103130000D01*
X150870000Y-100470000D02*
X168710000Y-100470000D01*
X150870000Y-103130000D02*
X150870000Y-100470000D01*
X149600000Y-103130000D02*
X148270000Y-103130000D01*
X148270000Y-103130000D02*
X148270000Y-101800000D01*
%TO.C,VIN1*%
X136790000Y-82825000D02*
X135460000Y-82825000D01*
X136790000Y-81495000D02*
X136790000Y-82825000D01*
X136790000Y-80225000D02*
X134130000Y-80225000D01*
X134130000Y-80225000D02*
X134130000Y-77625000D01*
X136790000Y-80225000D02*
X136790000Y-77625000D01*
X136790000Y-77625000D02*
X134130000Y-77625000D01*
%TO.C,FLASH1*%
X133610000Y-108880000D02*
X134940000Y-108880000D01*
X133610000Y-110210000D02*
X133610000Y-108880000D01*
X133610000Y-111480000D02*
X136270000Y-111480000D01*
X136270000Y-111480000D02*
X136270000Y-124240000D01*
X133610000Y-111480000D02*
X133610000Y-124240000D01*
X133610000Y-124240000D02*
X136270000Y-124240000D01*
%TO.C,BME1*%
X147273320Y-103130660D02*
X147273320Y-100470660D01*
X131973320Y-103130660D02*
X147273320Y-103130660D01*
X131973320Y-100470660D02*
X147273320Y-100470660D01*
X131973320Y-103130660D02*
X131973320Y-100470660D01*
X130703320Y-103130660D02*
X129373320Y-103130660D01*
X129373320Y-103130660D02*
X129373320Y-101800660D01*
%TO.C,U2*%
X156433780Y-85904320D02*
X154633780Y-85904320D01*
X154633780Y-89124320D02*
X157083780Y-89124320D01*
%TO.C,R3*%
X162204768Y-80811440D02*
X162727272Y-80811440D01*
X162204768Y-79391440D02*
X162727272Y-79391440D01*
%TO.C,JP1*%
X163409340Y-83895440D02*
X163409340Y-81895440D01*
X166209340Y-83895440D02*
X163409340Y-83895440D01*
X166209340Y-81895440D02*
X166209340Y-83895440D01*
X163409340Y-81895440D02*
X166209340Y-81895440D01*
%TO.C,D5*%
X133079200Y-106404180D02*
X135939200Y-106404180D01*
X133079200Y-104484180D02*
X133079200Y-106404180D01*
X135939200Y-104484180D02*
X133079200Y-104484180D01*
%TO.C,R7*%
X131321252Y-104730000D02*
X130798748Y-104730000D01*
X131321252Y-106150000D02*
X130798748Y-106150000D01*
%TO.C,R9*%
X161760000Y-114841252D02*
X161760000Y-114318748D01*
X163180000Y-114841252D02*
X163180000Y-114318748D01*
%TO.C,R8*%
X134678448Y-108114380D02*
X135200952Y-108114380D01*
X134678448Y-106694380D02*
X135200952Y-106694380D01*
%TO.C,R6*%
X148728748Y-95280000D02*
X149251252Y-95280000D01*
X148728748Y-93860000D02*
X149251252Y-93860000D01*
%TO.C,R4*%
X161611252Y-96040000D02*
X161088748Y-96040000D01*
X161611252Y-97460000D02*
X161088748Y-97460000D01*
%TO.C,R5*%
X160011180Y-87201108D02*
X160011180Y-87723612D01*
X158591180Y-87201108D02*
X158591180Y-87723612D01*
%TO.C,R2*%
X155308748Y-96030000D02*
X155831252Y-96030000D01*
X155308748Y-97450000D02*
X155831252Y-97450000D01*
%TO.C,R1*%
X141726552Y-91601360D02*
X141204048Y-91601360D01*
X141726552Y-90181360D02*
X141204048Y-90181360D01*
%TO.C,Q1*%
X139851860Y-86014440D02*
X141311860Y-86014440D01*
X139851860Y-89174440D02*
X143011860Y-89174440D01*
X139851860Y-89174440D02*
X139851860Y-88244440D01*
X139851860Y-86014440D02*
X139851860Y-86944440D01*
%TO.C,D1*%
X157430000Y-93600000D02*
X154570000Y-93600000D01*
X157430000Y-95520000D02*
X157430000Y-93600000D01*
X154570000Y-95520000D02*
X157430000Y-95520000D01*
%TO.C,C6*%
X163180000Y-122508748D02*
X163180000Y-123031252D01*
X161760000Y-122508748D02*
X161760000Y-123031252D01*
%TO.C,C5*%
X161760000Y-118921252D02*
X161760000Y-118398748D01*
X163180000Y-118921252D02*
X163180000Y-118398748D01*
%TO.C,C4*%
X150775160Y-87770592D02*
X150775160Y-87248088D01*
X152195160Y-87770592D02*
X152195160Y-87248088D01*
%TO.C,C3*%
X160849240Y-87726152D02*
X160849240Y-87203648D01*
X162269240Y-87726152D02*
X162269240Y-87203648D01*
%TO.C,C2*%
X148728748Y-96030000D02*
X149251252Y-96030000D01*
X148728748Y-97450000D02*
X149251252Y-97450000D01*
%TO.C,C1*%
X140053980Y-95914092D02*
X140053980Y-95391588D01*
X141473980Y-95914092D02*
X141473980Y-95391588D01*
%TO.C,MOISTURE1*%
D10*
X145025238Y-77052380D02*
X145025238Y-76052380D01*
X145358571Y-76766666D01*
X145691904Y-76052380D01*
X145691904Y-77052380D01*
X146358571Y-76052380D02*
X146549047Y-76052380D01*
X146644285Y-76100000D01*
X146739523Y-76195238D01*
X146787142Y-76385714D01*
X146787142Y-76719047D01*
X146739523Y-76909523D01*
X146644285Y-77004761D01*
X146549047Y-77052380D01*
X146358571Y-77052380D01*
X146263333Y-77004761D01*
X146168095Y-76909523D01*
X146120476Y-76719047D01*
X146120476Y-76385714D01*
X146168095Y-76195238D01*
X146263333Y-76100000D01*
X146358571Y-76052380D01*
X147215714Y-77052380D02*
X147215714Y-76052380D01*
X147644285Y-77004761D02*
X147787142Y-77052380D01*
X148025238Y-77052380D01*
X148120476Y-77004761D01*
X148168095Y-76957142D01*
X148215714Y-76861904D01*
X148215714Y-76766666D01*
X148168095Y-76671428D01*
X148120476Y-76623809D01*
X148025238Y-76576190D01*
X147834761Y-76528571D01*
X147739523Y-76480952D01*
X147691904Y-76433333D01*
X147644285Y-76338095D01*
X147644285Y-76242857D01*
X147691904Y-76147619D01*
X147739523Y-76100000D01*
X147834761Y-76052380D01*
X148072857Y-76052380D01*
X148215714Y-76100000D01*
X148501428Y-76052380D02*
X149072857Y-76052380D01*
X148787142Y-77052380D02*
X148787142Y-76052380D01*
X149406190Y-76052380D02*
X149406190Y-76861904D01*
X149453809Y-76957142D01*
X149501428Y-77004761D01*
X149596666Y-77052380D01*
X149787142Y-77052380D01*
X149882380Y-77004761D01*
X149930000Y-76957142D01*
X149977619Y-76861904D01*
X149977619Y-76052380D01*
X151025238Y-77052380D02*
X150691904Y-76576190D01*
X150453809Y-77052380D02*
X150453809Y-76052380D01*
X150834761Y-76052380D01*
X150930000Y-76100000D01*
X150977619Y-76147619D01*
X151025238Y-76242857D01*
X151025238Y-76385714D01*
X150977619Y-76480952D01*
X150930000Y-76528571D01*
X150834761Y-76576190D01*
X150453809Y-76576190D01*
X151453809Y-76528571D02*
X151787142Y-76528571D01*
X151930000Y-77052380D02*
X151453809Y-77052380D01*
X151453809Y-76052380D01*
X151930000Y-76052380D01*
X152882380Y-77052380D02*
X152310952Y-77052380D01*
X152596666Y-77052380D02*
X152596666Y-76052380D01*
X152501428Y-76195238D01*
X152406190Y-76290476D01*
X152310952Y-76338095D01*
%TO.C,D3*%
X146439664Y-87330540D02*
X146439664Y-86330540D01*
X146677760Y-86330540D01*
X146820617Y-86378160D01*
X146915855Y-86473398D01*
X146963474Y-86568636D01*
X147011093Y-86759112D01*
X147011093Y-86901969D01*
X146963474Y-87092445D01*
X146915855Y-87187683D01*
X146820617Y-87282921D01*
X146677760Y-87330540D01*
X146439664Y-87330540D01*
X147344426Y-86330540D02*
X147963474Y-86330540D01*
X147630140Y-86711493D01*
X147772998Y-86711493D01*
X147868236Y-86759112D01*
X147915855Y-86806731D01*
X147963474Y-86901969D01*
X147963474Y-87140064D01*
X147915855Y-87235302D01*
X147868236Y-87282921D01*
X147772998Y-87330540D01*
X147487283Y-87330540D01*
X147392045Y-87282921D01*
X147344426Y-87235302D01*
%TO.C,D2*%
X164425404Y-78260200D02*
X164425404Y-77260200D01*
X164663500Y-77260200D01*
X164806357Y-77307820D01*
X164901595Y-77403058D01*
X164949214Y-77498296D01*
X164996833Y-77688772D01*
X164996833Y-77831629D01*
X164949214Y-78022105D01*
X164901595Y-78117343D01*
X164806357Y-78212581D01*
X164663500Y-78260200D01*
X164425404Y-78260200D01*
X165377785Y-77355439D02*
X165425404Y-77307820D01*
X165520642Y-77260200D01*
X165758738Y-77260200D01*
X165853976Y-77307820D01*
X165901595Y-77355439D01*
X165949214Y-77450677D01*
X165949214Y-77545915D01*
X165901595Y-77688772D01*
X165330166Y-78260200D01*
X165949214Y-78260200D01*
%TO.C,JP2*%
X163940106Y-89749380D02*
X163940106Y-90463666D01*
X163892487Y-90606523D01*
X163797249Y-90701761D01*
X163654392Y-90749380D01*
X163559154Y-90749380D01*
X164416297Y-90749380D02*
X164416297Y-89749380D01*
X164797249Y-89749380D01*
X164892487Y-89797000D01*
X164940106Y-89844619D01*
X164987725Y-89939857D01*
X164987725Y-90082714D01*
X164940106Y-90177952D01*
X164892487Y-90225571D01*
X164797249Y-90273190D01*
X164416297Y-90273190D01*
X165368678Y-89844619D02*
X165416297Y-89797000D01*
X165511535Y-89749380D01*
X165749630Y-89749380D01*
X165844868Y-89797000D01*
X165892487Y-89844619D01*
X165940106Y-89939857D01*
X165940106Y-90035095D01*
X165892487Y-90177952D01*
X165321059Y-90749380D01*
X165940106Y-90749380D01*
%TO.C,D4*%
X163411904Y-95032380D02*
X163411904Y-94032380D01*
X163650000Y-94032380D01*
X163792857Y-94080000D01*
X163888095Y-94175238D01*
X163935714Y-94270476D01*
X163983333Y-94460952D01*
X163983333Y-94603809D01*
X163935714Y-94794285D01*
X163888095Y-94889523D01*
X163792857Y-94984761D01*
X163650000Y-95032380D01*
X163411904Y-95032380D01*
X164840476Y-94365714D02*
X164840476Y-95032380D01*
X164602380Y-93984761D02*
X164364285Y-94699047D01*
X164983333Y-94699047D01*
%TO.C,U1*%
X143893635Y-92744040D02*
X143893635Y-93553564D01*
X143941254Y-93648802D01*
X143988873Y-93696421D01*
X144084111Y-93744040D01*
X144274587Y-93744040D01*
X144369825Y-93696421D01*
X144417444Y-93648802D01*
X144465063Y-93553564D01*
X144465063Y-92744040D01*
X145465063Y-93744040D02*
X144893635Y-93744040D01*
X145179349Y-93744040D02*
X145179349Y-92744040D01*
X145084111Y-92886898D01*
X144988873Y-92982136D01*
X144893635Y-93029755D01*
%TO.C,U3*%
X159557815Y-123429780D02*
X159557815Y-124239304D01*
X159605434Y-124334542D01*
X159653053Y-124382161D01*
X159748291Y-124429780D01*
X159938767Y-124429780D01*
X160034005Y-124382161D01*
X160081624Y-124334542D01*
X160129243Y-124239304D01*
X160129243Y-123429780D01*
X160510196Y-123429780D02*
X161129243Y-123429780D01*
X160795910Y-123810733D01*
X160938767Y-123810733D01*
X161034005Y-123858352D01*
X161081624Y-123905971D01*
X161129243Y-124001209D01*
X161129243Y-124239304D01*
X161081624Y-124334542D01*
X161034005Y-124382161D01*
X160938767Y-124429780D01*
X160653053Y-124429780D01*
X160557815Y-124382161D01*
X160510196Y-124334542D01*
%TO.C,USB1*%
X128734084Y-97260160D02*
X128734084Y-98069684D01*
X128781703Y-98164922D01*
X128829322Y-98212541D01*
X128924560Y-98260160D01*
X129115037Y-98260160D01*
X129210275Y-98212541D01*
X129257894Y-98164922D01*
X129305513Y-98069684D01*
X129305513Y-97260160D01*
X129734084Y-98212541D02*
X129876941Y-98260160D01*
X130115037Y-98260160D01*
X130210275Y-98212541D01*
X130257894Y-98164922D01*
X130305513Y-98069684D01*
X130305513Y-97974446D01*
X130257894Y-97879208D01*
X130210275Y-97831589D01*
X130115037Y-97783970D01*
X129924560Y-97736351D01*
X129829322Y-97688732D01*
X129781703Y-97641113D01*
X129734084Y-97545875D01*
X129734084Y-97450637D01*
X129781703Y-97355399D01*
X129829322Y-97307780D01*
X129924560Y-97260160D01*
X130162656Y-97260160D01*
X130305513Y-97307780D01*
X131067418Y-97736351D02*
X131210275Y-97783970D01*
X131257894Y-97831589D01*
X131305513Y-97926827D01*
X131305513Y-98069684D01*
X131257894Y-98164922D01*
X131210275Y-98212541D01*
X131115037Y-98260160D01*
X130734084Y-98260160D01*
X130734084Y-97260160D01*
X131067418Y-97260160D01*
X131162656Y-97307780D01*
X131210275Y-97355399D01*
X131257894Y-97450637D01*
X131257894Y-97545875D01*
X131210275Y-97641113D01*
X131162656Y-97688732D01*
X131067418Y-97736351D01*
X130734084Y-97736351D01*
X132257894Y-98260160D02*
X131686465Y-98260160D01*
X131972180Y-98260160D02*
X131972180Y-97260160D01*
X131876941Y-97403018D01*
X131781703Y-97498256D01*
X131686465Y-97545875D01*
%TO.C,EN1*%
X161338094Y-106255511D02*
X161671427Y-106255511D01*
X161814284Y-106779320D02*
X161338094Y-106779320D01*
X161338094Y-105779320D01*
X161814284Y-105779320D01*
X162242856Y-106779320D02*
X162242856Y-105779320D01*
X162814284Y-106779320D01*
X162814284Y-105779320D01*
X163814284Y-106779320D02*
X163242856Y-106779320D01*
X163528570Y-106779320D02*
X163528570Y-105779320D01*
X163433332Y-105922178D01*
X163338094Y-106017416D01*
X163242856Y-106065035D01*
%TO.C,LIS1*%
X155787867Y-104512980D02*
X155311677Y-104512980D01*
X155311677Y-103512980D01*
X156121200Y-104512980D02*
X156121200Y-103512980D01*
X156549772Y-104465361D02*
X156692629Y-104512980D01*
X156930724Y-104512980D01*
X157025962Y-104465361D01*
X157073581Y-104417742D01*
X157121200Y-104322504D01*
X157121200Y-104227266D01*
X157073581Y-104132028D01*
X157025962Y-104084409D01*
X156930724Y-104036790D01*
X156740248Y-103989171D01*
X156645010Y-103941552D01*
X156597391Y-103893933D01*
X156549772Y-103798695D01*
X156549772Y-103703457D01*
X156597391Y-103608219D01*
X156645010Y-103560600D01*
X156740248Y-103512980D01*
X156978343Y-103512980D01*
X157121200Y-103560600D01*
X158073581Y-104512980D02*
X157502153Y-104512980D01*
X157787867Y-104512980D02*
X157787867Y-103512980D01*
X157692629Y-103655838D01*
X157597391Y-103751076D01*
X157502153Y-103798695D01*
%TO.C,VIN1*%
X133848571Y-76052380D02*
X134181904Y-77052380D01*
X134515238Y-76052380D01*
X134848571Y-77052380D02*
X134848571Y-76052380D01*
X135324761Y-77052380D02*
X135324761Y-76052380D01*
X135896190Y-77052380D01*
X135896190Y-76052380D01*
X136896190Y-77052380D02*
X136324761Y-77052380D01*
X136610476Y-77052380D02*
X136610476Y-76052380D01*
X136515238Y-76195238D01*
X136420000Y-76290476D01*
X136324761Y-76338095D01*
%TO.C,FLASH1*%
X132519071Y-119211806D02*
X132519071Y-119545140D01*
X133042880Y-119545140D02*
X132042880Y-119545140D01*
X132042880Y-119068949D01*
X133042880Y-118211806D02*
X133042880Y-118687997D01*
X132042880Y-118687997D01*
X132757166Y-117926092D02*
X132757166Y-117449901D01*
X133042880Y-118021330D02*
X132042880Y-117687997D01*
X133042880Y-117354663D01*
X132995261Y-117068949D02*
X133042880Y-116926092D01*
X133042880Y-116687997D01*
X132995261Y-116592759D01*
X132947642Y-116545140D01*
X132852404Y-116497520D01*
X132757166Y-116497520D01*
X132661928Y-116545140D01*
X132614309Y-116592759D01*
X132566690Y-116687997D01*
X132519071Y-116878473D01*
X132471452Y-116973711D01*
X132423833Y-117021330D01*
X132328595Y-117068949D01*
X132233357Y-117068949D01*
X132138119Y-117021330D01*
X132090500Y-116973711D01*
X132042880Y-116878473D01*
X132042880Y-116640378D01*
X132090500Y-116497520D01*
X133042880Y-116068949D02*
X132042880Y-116068949D01*
X132519071Y-116068949D02*
X132519071Y-115497520D01*
X133042880Y-115497520D02*
X132042880Y-115497520D01*
X133042880Y-114497520D02*
X133042880Y-115068949D01*
X133042880Y-114783235D02*
X132042880Y-114783235D01*
X132185738Y-114878473D01*
X132280976Y-114973711D01*
X132328595Y-115068949D01*
%TO.C,BME1*%
X139132488Y-103926331D02*
X139275345Y-103973950D01*
X139322964Y-104021569D01*
X139370583Y-104116807D01*
X139370583Y-104259664D01*
X139322964Y-104354902D01*
X139275345Y-104402521D01*
X139180107Y-104450140D01*
X138799155Y-104450140D01*
X138799155Y-103450140D01*
X139132488Y-103450140D01*
X139227726Y-103497760D01*
X139275345Y-103545379D01*
X139322964Y-103640617D01*
X139322964Y-103735855D01*
X139275345Y-103831093D01*
X139227726Y-103878712D01*
X139132488Y-103926331D01*
X138799155Y-103926331D01*
X139799155Y-104450140D02*
X139799155Y-103450140D01*
X140132488Y-104164426D01*
X140465821Y-103450140D01*
X140465821Y-104450140D01*
X140942012Y-103926331D02*
X141275345Y-103926331D01*
X141418202Y-104450140D02*
X140942012Y-104450140D01*
X140942012Y-103450140D01*
X141418202Y-103450140D01*
X142370583Y-104450140D02*
X141799155Y-104450140D01*
X142084869Y-104450140D02*
X142084869Y-103450140D01*
X141989631Y-103592998D01*
X141894393Y-103688236D01*
X141799155Y-103735855D01*
%TO.C,U2*%
X154759755Y-84608420D02*
X154759755Y-85417944D01*
X154807374Y-85513182D01*
X154854993Y-85560801D01*
X154950231Y-85608420D01*
X155140707Y-85608420D01*
X155235945Y-85560801D01*
X155283564Y-85513182D01*
X155331183Y-85417944D01*
X155331183Y-84608420D01*
X155759755Y-84703659D02*
X155807374Y-84656040D01*
X155902612Y-84608420D01*
X156140707Y-84608420D01*
X156235945Y-84656040D01*
X156283564Y-84703659D01*
X156331183Y-84798897D01*
X156331183Y-84894135D01*
X156283564Y-85036992D01*
X155712136Y-85608420D01*
X156331183Y-85608420D01*
%TO.C,R3*%
X165017153Y-80655420D02*
X164683820Y-80179230D01*
X164445724Y-80655420D02*
X164445724Y-79655420D01*
X164826677Y-79655420D01*
X164921915Y-79703040D01*
X164969534Y-79750659D01*
X165017153Y-79845897D01*
X165017153Y-79988754D01*
X164969534Y-80083992D01*
X164921915Y-80131611D01*
X164826677Y-80179230D01*
X164445724Y-80179230D01*
X165350486Y-79655420D02*
X165969534Y-79655420D01*
X165636200Y-80036373D01*
X165779058Y-80036373D01*
X165874296Y-80083992D01*
X165921915Y-80131611D01*
X165969534Y-80226849D01*
X165969534Y-80464944D01*
X165921915Y-80560182D01*
X165874296Y-80607801D01*
X165779058Y-80655420D01*
X165493343Y-80655420D01*
X165398105Y-80607801D01*
X165350486Y-80560182D01*
%TO.C,JP1*%
X163951706Y-84250280D02*
X163951706Y-84964566D01*
X163904087Y-85107423D01*
X163808849Y-85202661D01*
X163665992Y-85250280D01*
X163570754Y-85250280D01*
X164427897Y-85250280D02*
X164427897Y-84250280D01*
X164808849Y-84250280D01*
X164904087Y-84297900D01*
X164951706Y-84345519D01*
X164999325Y-84440757D01*
X164999325Y-84583614D01*
X164951706Y-84678852D01*
X164904087Y-84726471D01*
X164808849Y-84774090D01*
X164427897Y-84774090D01*
X165951706Y-85250280D02*
X165380278Y-85250280D01*
X165665992Y-85250280D02*
X165665992Y-84250280D01*
X165570754Y-84393138D01*
X165475516Y-84488376D01*
X165380278Y-84535995D01*
%TO.C,D5*%
X136881904Y-105962380D02*
X136881904Y-104962380D01*
X137120000Y-104962380D01*
X137262857Y-105010000D01*
X137358095Y-105105238D01*
X137405714Y-105200476D01*
X137453333Y-105390952D01*
X137453333Y-105533809D01*
X137405714Y-105724285D01*
X137358095Y-105819523D01*
X137262857Y-105914761D01*
X137120000Y-105962380D01*
X136881904Y-105962380D01*
X138358095Y-104962380D02*
X137881904Y-104962380D01*
X137834285Y-105438571D01*
X137881904Y-105390952D01*
X137977142Y-105343333D01*
X138215238Y-105343333D01*
X138310476Y-105390952D01*
X138358095Y-105438571D01*
X138405714Y-105533809D01*
X138405714Y-105771904D01*
X138358095Y-105867142D01*
X138310476Y-105914761D01*
X138215238Y-105962380D01*
X137977142Y-105962380D01*
X137881904Y-105914761D01*
X137834285Y-105867142D01*
%TO.C,R7*%
X130903333Y-107492380D02*
X130570000Y-107016190D01*
X130331904Y-107492380D02*
X130331904Y-106492380D01*
X130712857Y-106492380D01*
X130808095Y-106540000D01*
X130855714Y-106587619D01*
X130903333Y-106682857D01*
X130903333Y-106825714D01*
X130855714Y-106920952D01*
X130808095Y-106968571D01*
X130712857Y-107016190D01*
X130331904Y-107016190D01*
X131236666Y-106492380D02*
X131903333Y-106492380D01*
X131474761Y-107492380D01*
%TO.C,R9*%
X164223333Y-115022380D02*
X163890000Y-114546190D01*
X163651904Y-115022380D02*
X163651904Y-114022380D01*
X164032857Y-114022380D01*
X164128095Y-114070000D01*
X164175714Y-114117619D01*
X164223333Y-114212857D01*
X164223333Y-114355714D01*
X164175714Y-114450952D01*
X164128095Y-114498571D01*
X164032857Y-114546190D01*
X163651904Y-114546190D01*
X164699523Y-115022380D02*
X164890000Y-115022380D01*
X164985238Y-114974761D01*
X165032857Y-114927142D01*
X165128095Y-114784285D01*
X165175714Y-114593809D01*
X165175714Y-114212857D01*
X165128095Y-114117619D01*
X165080476Y-114070000D01*
X164985238Y-114022380D01*
X164794761Y-114022380D01*
X164699523Y-114070000D01*
X164651904Y-114117619D01*
X164604285Y-114212857D01*
X164604285Y-114450952D01*
X164651904Y-114546190D01*
X164699523Y-114593809D01*
X164794761Y-114641428D01*
X164985238Y-114641428D01*
X165080476Y-114593809D01*
X165128095Y-114546190D01*
X165175714Y-114450952D01*
%TO.C,R8*%
X137443333Y-107862380D02*
X137110000Y-107386190D01*
X136871904Y-107862380D02*
X136871904Y-106862380D01*
X137252857Y-106862380D01*
X137348095Y-106910000D01*
X137395714Y-106957619D01*
X137443333Y-107052857D01*
X137443333Y-107195714D01*
X137395714Y-107290952D01*
X137348095Y-107338571D01*
X137252857Y-107386190D01*
X136871904Y-107386190D01*
X138014761Y-107290952D02*
X137919523Y-107243333D01*
X137871904Y-107195714D01*
X137824285Y-107100476D01*
X137824285Y-107052857D01*
X137871904Y-106957619D01*
X137919523Y-106910000D01*
X138014761Y-106862380D01*
X138205238Y-106862380D01*
X138300476Y-106910000D01*
X138348095Y-106957619D01*
X138395714Y-107052857D01*
X138395714Y-107100476D01*
X138348095Y-107195714D01*
X138300476Y-107243333D01*
X138205238Y-107290952D01*
X138014761Y-107290952D01*
X137919523Y-107338571D01*
X137871904Y-107386190D01*
X137824285Y-107481428D01*
X137824285Y-107671904D01*
X137871904Y-107767142D01*
X137919523Y-107814761D01*
X138014761Y-107862380D01*
X138205238Y-107862380D01*
X138300476Y-107814761D01*
X138348095Y-107767142D01*
X138395714Y-107671904D01*
X138395714Y-107481428D01*
X138348095Y-107386190D01*
X138300476Y-107338571D01*
X138205238Y-107290952D01*
%TO.C,R6*%
X151637933Y-95012380D02*
X151304600Y-94536190D01*
X151066504Y-95012380D02*
X151066504Y-94012380D01*
X151447457Y-94012380D01*
X151542695Y-94060000D01*
X151590314Y-94107619D01*
X151637933Y-94202857D01*
X151637933Y-94345714D01*
X151590314Y-94440952D01*
X151542695Y-94488571D01*
X151447457Y-94536190D01*
X151066504Y-94536190D01*
X152495076Y-94012380D02*
X152304600Y-94012380D01*
X152209361Y-94060000D01*
X152161742Y-94107619D01*
X152066504Y-94250476D01*
X152018885Y-94440952D01*
X152018885Y-94821904D01*
X152066504Y-94917142D01*
X152114123Y-94964761D01*
X152209361Y-95012380D01*
X152399838Y-95012380D01*
X152495076Y-94964761D01*
X152542695Y-94917142D01*
X152590314Y-94821904D01*
X152590314Y-94583809D01*
X152542695Y-94488571D01*
X152495076Y-94440952D01*
X152399838Y-94393333D01*
X152209361Y-94393333D01*
X152114123Y-94440952D01*
X152066504Y-94488571D01*
X152018885Y-94583809D01*
%TO.C,R4*%
X163973333Y-97222380D02*
X163640000Y-96746190D01*
X163401904Y-97222380D02*
X163401904Y-96222380D01*
X163782857Y-96222380D01*
X163878095Y-96270000D01*
X163925714Y-96317619D01*
X163973333Y-96412857D01*
X163973333Y-96555714D01*
X163925714Y-96650952D01*
X163878095Y-96698571D01*
X163782857Y-96746190D01*
X163401904Y-96746190D01*
X164830476Y-96555714D02*
X164830476Y-97222380D01*
X164592380Y-96174761D02*
X164354285Y-96889047D01*
X164973333Y-96889047D01*
%TO.C,R5*%
X159149753Y-85506820D02*
X158816420Y-85030630D01*
X158578324Y-85506820D02*
X158578324Y-84506820D01*
X158959277Y-84506820D01*
X159054515Y-84554440D01*
X159102134Y-84602059D01*
X159149753Y-84697297D01*
X159149753Y-84840154D01*
X159102134Y-84935392D01*
X159054515Y-84983011D01*
X158959277Y-85030630D01*
X158578324Y-85030630D01*
X160054515Y-84506820D02*
X159578324Y-84506820D01*
X159530705Y-84983011D01*
X159578324Y-84935392D01*
X159673562Y-84887773D01*
X159911658Y-84887773D01*
X160006896Y-84935392D01*
X160054515Y-84983011D01*
X160102134Y-85078249D01*
X160102134Y-85316344D01*
X160054515Y-85411582D01*
X160006896Y-85459201D01*
X159911658Y-85506820D01*
X159673562Y-85506820D01*
X159578324Y-85459201D01*
X159530705Y-85411582D01*
%TO.C,R2*%
X158183333Y-97212380D02*
X157850000Y-96736190D01*
X157611904Y-97212380D02*
X157611904Y-96212380D01*
X157992857Y-96212380D01*
X158088095Y-96260000D01*
X158135714Y-96307619D01*
X158183333Y-96402857D01*
X158183333Y-96545714D01*
X158135714Y-96640952D01*
X158088095Y-96688571D01*
X157992857Y-96736190D01*
X157611904Y-96736190D01*
X158564285Y-96307619D02*
X158611904Y-96260000D01*
X158707142Y-96212380D01*
X158945238Y-96212380D01*
X159040476Y-96260000D01*
X159088095Y-96307619D01*
X159135714Y-96402857D01*
X159135714Y-96498095D01*
X159088095Y-96640952D01*
X158516666Y-97212380D01*
X159135714Y-97212380D01*
%TO.C,R1*%
X143988493Y-91427560D02*
X143655160Y-90951370D01*
X143417064Y-91427560D02*
X143417064Y-90427560D01*
X143798017Y-90427560D01*
X143893255Y-90475180D01*
X143940874Y-90522799D01*
X143988493Y-90618037D01*
X143988493Y-90760894D01*
X143940874Y-90856132D01*
X143893255Y-90903751D01*
X143798017Y-90951370D01*
X143417064Y-90951370D01*
X144940874Y-91427560D02*
X144369445Y-91427560D01*
X144655160Y-91427560D02*
X144655160Y-90427560D01*
X144559921Y-90570418D01*
X144464683Y-90665656D01*
X144369445Y-90713275D01*
%TO.C,Q1*%
X141296401Y-85741759D02*
X141201163Y-85694140D01*
X141105925Y-85598901D01*
X140963068Y-85456044D01*
X140867830Y-85408425D01*
X140772592Y-85408425D01*
X140820211Y-85646520D02*
X140724973Y-85598901D01*
X140629735Y-85503663D01*
X140582116Y-85313187D01*
X140582116Y-84979854D01*
X140629735Y-84789378D01*
X140724973Y-84694140D01*
X140820211Y-84646520D01*
X141010687Y-84646520D01*
X141105925Y-84694140D01*
X141201163Y-84789378D01*
X141248782Y-84979854D01*
X141248782Y-85313187D01*
X141201163Y-85503663D01*
X141105925Y-85598901D01*
X141010687Y-85646520D01*
X140820211Y-85646520D01*
X142201163Y-85646520D02*
X141629735Y-85646520D01*
X141915449Y-85646520D02*
X141915449Y-84646520D01*
X141820211Y-84789378D01*
X141724973Y-84884616D01*
X141629735Y-84932235D01*
%TO.C,D1*%
X157671904Y-95022380D02*
X157671904Y-94022380D01*
X157910000Y-94022380D01*
X158052857Y-94070000D01*
X158148095Y-94165238D01*
X158195714Y-94260476D01*
X158243333Y-94450952D01*
X158243333Y-94593809D01*
X158195714Y-94784285D01*
X158148095Y-94879523D01*
X158052857Y-94974761D01*
X157910000Y-95022380D01*
X157671904Y-95022380D01*
X159195714Y-95022380D02*
X158624285Y-95022380D01*
X158910000Y-95022380D02*
X158910000Y-94022380D01*
X158814761Y-94165238D01*
X158719523Y-94260476D01*
X158624285Y-94308095D01*
%TO.C,C6*%
X164264353Y-123140982D02*
X164216734Y-123188601D01*
X164073877Y-123236220D01*
X163978639Y-123236220D01*
X163835781Y-123188601D01*
X163740543Y-123093363D01*
X163692924Y-122998125D01*
X163645305Y-122807649D01*
X163645305Y-122664792D01*
X163692924Y-122474316D01*
X163740543Y-122379078D01*
X163835781Y-122283840D01*
X163978639Y-122236220D01*
X164073877Y-122236220D01*
X164216734Y-122283840D01*
X164264353Y-122331459D01*
X165121496Y-122236220D02*
X164931020Y-122236220D01*
X164835781Y-122283840D01*
X164788162Y-122331459D01*
X164692924Y-122474316D01*
X164645305Y-122664792D01*
X164645305Y-123045744D01*
X164692924Y-123140982D01*
X164740543Y-123188601D01*
X164835781Y-123236220D01*
X165026258Y-123236220D01*
X165121496Y-123188601D01*
X165169115Y-123140982D01*
X165216734Y-123045744D01*
X165216734Y-122807649D01*
X165169115Y-122712411D01*
X165121496Y-122664792D01*
X165026258Y-122617173D01*
X164835781Y-122617173D01*
X164740543Y-122664792D01*
X164692924Y-122712411D01*
X164645305Y-122807649D01*
%TO.C,C5*%
X164273333Y-119084362D02*
X164225714Y-119131981D01*
X164082857Y-119179600D01*
X163987619Y-119179600D01*
X163844761Y-119131981D01*
X163749523Y-119036743D01*
X163701904Y-118941505D01*
X163654285Y-118751029D01*
X163654285Y-118608172D01*
X163701904Y-118417696D01*
X163749523Y-118322458D01*
X163844761Y-118227220D01*
X163987619Y-118179600D01*
X164082857Y-118179600D01*
X164225714Y-118227220D01*
X164273333Y-118274839D01*
X165178095Y-118179600D02*
X164701904Y-118179600D01*
X164654285Y-118655791D01*
X164701904Y-118608172D01*
X164797142Y-118560553D01*
X165035238Y-118560553D01*
X165130476Y-118608172D01*
X165178095Y-118655791D01*
X165225714Y-118751029D01*
X165225714Y-118989124D01*
X165178095Y-119084362D01*
X165130476Y-119131981D01*
X165035238Y-119179600D01*
X164797142Y-119179600D01*
X164701904Y-119131981D01*
X164654285Y-119084362D01*
%TO.C,C4*%
X151316393Y-85457302D02*
X151268774Y-85504921D01*
X151125917Y-85552540D01*
X151030679Y-85552540D01*
X150887821Y-85504921D01*
X150792583Y-85409683D01*
X150744964Y-85314445D01*
X150697345Y-85123969D01*
X150697345Y-84981112D01*
X150744964Y-84790636D01*
X150792583Y-84695398D01*
X150887821Y-84600160D01*
X151030679Y-84552540D01*
X151125917Y-84552540D01*
X151268774Y-84600160D01*
X151316393Y-84647779D01*
X152173536Y-84885874D02*
X152173536Y-85552540D01*
X151935440Y-84504921D02*
X151697345Y-85219207D01*
X152316393Y-85219207D01*
%TO.C,C3*%
X161379873Y-85411582D02*
X161332254Y-85459201D01*
X161189397Y-85506820D01*
X161094159Y-85506820D01*
X160951301Y-85459201D01*
X160856063Y-85363963D01*
X160808444Y-85268725D01*
X160760825Y-85078249D01*
X160760825Y-84935392D01*
X160808444Y-84744916D01*
X160856063Y-84649678D01*
X160951301Y-84554440D01*
X161094159Y-84506820D01*
X161189397Y-84506820D01*
X161332254Y-84554440D01*
X161379873Y-84602059D01*
X161713206Y-84506820D02*
X162332254Y-84506820D01*
X161998920Y-84887773D01*
X162141778Y-84887773D01*
X162237016Y-84935392D01*
X162284635Y-84983011D01*
X162332254Y-85078249D01*
X162332254Y-85316344D01*
X162284635Y-85411582D01*
X162237016Y-85459201D01*
X162141778Y-85506820D01*
X161856063Y-85506820D01*
X161760825Y-85459201D01*
X161713206Y-85411582D01*
%TO.C,C2*%
X151673333Y-97127142D02*
X151625714Y-97174761D01*
X151482857Y-97222380D01*
X151387619Y-97222380D01*
X151244761Y-97174761D01*
X151149523Y-97079523D01*
X151101904Y-96984285D01*
X151054285Y-96793809D01*
X151054285Y-96650952D01*
X151101904Y-96460476D01*
X151149523Y-96365238D01*
X151244761Y-96270000D01*
X151387619Y-96222380D01*
X151482857Y-96222380D01*
X151625714Y-96270000D01*
X151673333Y-96317619D01*
X152054285Y-96317619D02*
X152101904Y-96270000D01*
X152197142Y-96222380D01*
X152435238Y-96222380D01*
X152530476Y-96270000D01*
X152578095Y-96317619D01*
X152625714Y-96412857D01*
X152625714Y-96508095D01*
X152578095Y-96650952D01*
X152006666Y-97222380D01*
X152625714Y-97222380D01*
%TO.C,C1*%
X140592513Y-93605622D02*
X140544894Y-93653241D01*
X140402037Y-93700860D01*
X140306799Y-93700860D01*
X140163941Y-93653241D01*
X140068703Y-93558003D01*
X140021084Y-93462765D01*
X139973465Y-93272289D01*
X139973465Y-93129432D01*
X140021084Y-92938956D01*
X140068703Y-92843718D01*
X140163941Y-92748480D01*
X140306799Y-92700860D01*
X140402037Y-92700860D01*
X140544894Y-92748480D01*
X140592513Y-92796099D01*
X141544894Y-93700860D02*
X140973465Y-93700860D01*
X141259180Y-93700860D02*
X141259180Y-92700860D01*
X141163941Y-92843718D01*
X141068703Y-92938956D01*
X140973465Y-92986575D01*
%TD*%
%LPC*%
D12*
%TO.C,H4*%
X129644140Y-123050300D03*
%TD*%
%TO.C,H3*%
X168125140Y-123083320D03*
%TD*%
%TO.C,H2*%
X168104820Y-75491340D03*
%TD*%
%TO.C,H1*%
X129689860Y-75453240D03*
%TD*%
D13*
%TO.C,MOISTURE1*%
X151439880Y-78953360D03*
X148899880Y-78953360D03*
D14*
X146359880Y-78953360D03*
%TD*%
D15*
%TO.C,D3*%
X145944280Y-88382480D03*
X148444280Y-88382480D03*
%TD*%
%TO.C,D2*%
G36*
G01*
X162908400Y-78179081D02*
X162908400Y-77279079D01*
G75*
G02*
X163158399Y-77029080I249999J0D01*
G01*
X163808401Y-77029080D01*
G75*
G02*
X164058400Y-77279079I0J-249999D01*
G01*
X164058400Y-78179081D01*
G75*
G02*
X163808401Y-78429080I-249999J0D01*
G01*
X163158399Y-78429080D01*
G75*
G02*
X162908400Y-78179081I0J249999D01*
G01*
G37*
G36*
G01*
X160858400Y-78179081D02*
X160858400Y-77279079D01*
G75*
G02*
X161108399Y-77029080I249999J0D01*
G01*
X161758401Y-77029080D01*
G75*
G02*
X162008400Y-77279079I0J-249999D01*
G01*
X162008400Y-78179081D01*
G75*
G02*
X161758401Y-78429080I-249999J0D01*
G01*
X161108399Y-78429080D01*
G75*
G02*
X160858400Y-78179081I0J249999D01*
G01*
G37*
%TD*%
D16*
%TO.C,JP2*%
G36*
X165087980Y-88399620D02*
G01*
X164587980Y-89149620D01*
X163587980Y-89149620D01*
X163587980Y-87649620D01*
X164587980Y-87649620D01*
X165087980Y-88399620D01*
G37*
G36*
X166037980Y-89149620D02*
G01*
X164887980Y-89149620D01*
X165387980Y-88399620D01*
X164887980Y-87649620D01*
X166037980Y-87649620D01*
X166037980Y-89149620D01*
G37*
%TD*%
%TO.C,D4*%
G36*
G01*
X159770000Y-95000001D02*
X159770000Y-94099999D01*
G75*
G02*
X160019999Y-93850000I249999J0D01*
G01*
X160670001Y-93850000D01*
G75*
G02*
X160920000Y-94099999I0J-249999D01*
G01*
X160920000Y-95000001D01*
G75*
G02*
X160670001Y-95250000I-249999J0D01*
G01*
X160019999Y-95250000D01*
G75*
G02*
X159770000Y-95000001I0J249999D01*
G01*
G37*
G36*
G01*
X161820000Y-95000001D02*
X161820000Y-94099999D01*
G75*
G02*
X162069999Y-93850000I249999J0D01*
G01*
X162720001Y-93850000D01*
G75*
G02*
X162970000Y-94099999I0J-249999D01*
G01*
X162970000Y-95000001D01*
G75*
G02*
X162720001Y-95250000I-249999J0D01*
G01*
X162069999Y-95250000D01*
G75*
G02*
X161820000Y-95000001I0J249999D01*
G01*
G37*
%TD*%
D17*
%TO.C,U1*%
X145773800Y-94697940D03*
X145773800Y-96597940D03*
X143073800Y-96597940D03*
X143073800Y-95647940D03*
X143073800Y-94697940D03*
%TD*%
D18*
%TO.C,U3*%
X149830000Y-116355000D03*
D19*
X157730000Y-123855000D03*
X157730000Y-122585000D03*
X157730000Y-121315000D03*
X157730000Y-120045000D03*
X157730000Y-118775000D03*
X157730000Y-117505000D03*
X157730000Y-116235000D03*
X157730000Y-114965000D03*
X157730000Y-113695000D03*
X157730000Y-112425000D03*
X157730000Y-111155000D03*
X157730000Y-109885000D03*
X157730000Y-108615000D03*
X157730000Y-107345000D03*
D20*
X154545000Y-105945000D03*
X153275000Y-105945000D03*
X152005000Y-105945000D03*
X150735000Y-105945000D03*
X149465000Y-105945000D03*
X148195000Y-105945000D03*
X146925000Y-105945000D03*
X145655000Y-105945000D03*
X144385000Y-105945000D03*
X143115000Y-105945000D03*
D19*
X139930000Y-107345000D03*
X139930000Y-108615000D03*
X139930000Y-109885000D03*
X139930000Y-111155000D03*
X139930000Y-112425000D03*
X139930000Y-113695000D03*
X139930000Y-114965000D03*
X139930000Y-116235000D03*
X139930000Y-117505000D03*
X139930000Y-118775000D03*
X139930000Y-120045000D03*
X139930000Y-121315000D03*
X139930000Y-122585000D03*
X139930000Y-123855000D03*
%TD*%
D21*
%TO.C,USB1*%
X131427120Y-94696920D03*
X131427120Y-89696920D03*
D22*
X128677120Y-96071920D03*
X128677120Y-88321920D03*
D23*
X132477120Y-95921920D03*
X132477120Y-88471920D03*
D24*
X132727120Y-93496920D03*
X132727120Y-92846920D03*
X132727120Y-92196920D03*
X132727120Y-91546920D03*
X132727120Y-90896920D03*
%TD*%
D25*
%TO.C,EN1*%
X162500000Y-109760000D03*
D26*
X162500000Y-111660000D03*
X162500000Y-107860000D03*
%TD*%
D13*
%TO.C,LIS1*%
X167380000Y-101800000D03*
X164840000Y-101800000D03*
X162300000Y-101800000D03*
X159760000Y-101800000D03*
X157220000Y-101800000D03*
X154680000Y-101800000D03*
X152140000Y-101800000D03*
D14*
X149600000Y-101800000D03*
%TD*%
D13*
%TO.C,VIN1*%
X135460000Y-78955000D03*
D14*
X135460000Y-81495000D03*
%TD*%
D13*
%TO.C,FLASH1*%
X134940000Y-122910000D03*
X134940000Y-120370000D03*
X134940000Y-117830000D03*
X134940000Y-115290000D03*
X134940000Y-112750000D03*
D14*
X134940000Y-110210000D03*
%TD*%
D13*
%TO.C,BME1*%
X145943320Y-101800660D03*
X143403320Y-101800660D03*
X140863320Y-101800660D03*
X138323320Y-101800660D03*
X135783320Y-101800660D03*
X133243320Y-101800660D03*
D14*
X130703320Y-101800660D03*
%TD*%
D17*
%TO.C,U2*%
X154183780Y-88464320D03*
X154183780Y-86564320D03*
X156883780Y-86564320D03*
X156883780Y-87514320D03*
X156883780Y-88464320D03*
%TD*%
%TO.C,R3*%
G36*
G01*
X160866020Y-80551441D02*
X160866020Y-79651439D01*
G75*
G02*
X161116019Y-79401440I249999J0D01*
G01*
X161766021Y-79401440D01*
G75*
G02*
X162016020Y-79651439I0J-249999D01*
G01*
X162016020Y-80551441D01*
G75*
G02*
X161766021Y-80801440I-249999J0D01*
G01*
X161116019Y-80801440D01*
G75*
G02*
X160866020Y-80551441I0J249999D01*
G01*
G37*
G36*
G01*
X162916020Y-80551441D02*
X162916020Y-79651439D01*
G75*
G02*
X163166019Y-79401440I249999J0D01*
G01*
X163816021Y-79401440D01*
G75*
G02*
X164066020Y-79651439I0J-249999D01*
G01*
X164066020Y-80551441D01*
G75*
G02*
X163816021Y-80801440I-249999J0D01*
G01*
X163166019Y-80801440D01*
G75*
G02*
X162916020Y-80551441I0J249999D01*
G01*
G37*
%TD*%
D16*
%TO.C,JP1*%
G36*
X165084340Y-82895440D02*
G01*
X164584340Y-83645440D01*
X163584340Y-83645440D01*
X163584340Y-82145440D01*
X164584340Y-82145440D01*
X165084340Y-82895440D01*
G37*
G36*
X166034340Y-83645440D02*
G01*
X164884340Y-83645440D01*
X165384340Y-82895440D01*
X164884340Y-82145440D01*
X166034340Y-82145440D01*
X166034340Y-83645440D01*
G37*
%TD*%
%TO.C,D5*%
G36*
G01*
X133339200Y-105894181D02*
X133339200Y-104994179D01*
G75*
G02*
X133589199Y-104744180I249999J0D01*
G01*
X134239201Y-104744180D01*
G75*
G02*
X134489200Y-104994179I0J-249999D01*
G01*
X134489200Y-105894181D01*
G75*
G02*
X134239201Y-106144180I-249999J0D01*
G01*
X133589199Y-106144180D01*
G75*
G02*
X133339200Y-105894181I0J249999D01*
G01*
G37*
G36*
G01*
X135389200Y-105894181D02*
X135389200Y-104994179D01*
G75*
G02*
X135639199Y-104744180I249999J0D01*
G01*
X136289201Y-104744180D01*
G75*
G02*
X136539200Y-104994179I0J-249999D01*
G01*
X136539200Y-105894181D01*
G75*
G02*
X136289201Y-106144180I-249999J0D01*
G01*
X135639199Y-106144180D01*
G75*
G02*
X135389200Y-105894181I0J249999D01*
G01*
G37*
%TD*%
D27*
%TO.C,BATTERY1*%
X131650000Y-85025000D03*
G36*
G01*
X129050000Y-85650001D02*
X129050000Y-84399999D01*
G75*
G02*
X129299999Y-84150000I249999J0D01*
G01*
X130000001Y-84150000D01*
G75*
G02*
X130250000Y-84399999I0J-249999D01*
G01*
X130250000Y-85650001D01*
G75*
G02*
X130000001Y-85900000I-249999J0D01*
G01*
X129299999Y-85900000D01*
G75*
G02*
X129050000Y-85650001I0J249999D01*
G01*
G37*
%TD*%
%TO.C,R7*%
G36*
G01*
X132660000Y-104989999D02*
X132660000Y-105890001D01*
G75*
G02*
X132410001Y-106140000I-249999J0D01*
G01*
X131759999Y-106140000D01*
G75*
G02*
X131510000Y-105890001I0J249999D01*
G01*
X131510000Y-104989999D01*
G75*
G02*
X131759999Y-104740000I249999J0D01*
G01*
X132410001Y-104740000D01*
G75*
G02*
X132660000Y-104989999I0J-249999D01*
G01*
G37*
G36*
G01*
X130610000Y-104989999D02*
X130610000Y-105890001D01*
G75*
G02*
X130360001Y-106140000I-249999J0D01*
G01*
X129709999Y-106140000D01*
G75*
G02*
X129460000Y-105890001I0J249999D01*
G01*
X129460000Y-104989999D01*
G75*
G02*
X129709999Y-104740000I249999J0D01*
G01*
X130360001Y-104740000D01*
G75*
G02*
X130610000Y-104989999I0J-249999D01*
G01*
G37*
%TD*%
%TO.C,R9*%
G36*
G01*
X162920001Y-114130000D02*
X162019999Y-114130000D01*
G75*
G02*
X161770000Y-113880001I0J249999D01*
G01*
X161770000Y-113229999D01*
G75*
G02*
X162019999Y-112980000I249999J0D01*
G01*
X162920001Y-112980000D01*
G75*
G02*
X163170000Y-113229999I0J-249999D01*
G01*
X163170000Y-113880001D01*
G75*
G02*
X162920001Y-114130000I-249999J0D01*
G01*
G37*
G36*
G01*
X162920001Y-116180000D02*
X162019999Y-116180000D01*
G75*
G02*
X161770000Y-115930001I0J249999D01*
G01*
X161770000Y-115279999D01*
G75*
G02*
X162019999Y-115030000I249999J0D01*
G01*
X162920001Y-115030000D01*
G75*
G02*
X163170000Y-115279999I0J-249999D01*
G01*
X163170000Y-115930001D01*
G75*
G02*
X162920001Y-116180000I-249999J0D01*
G01*
G37*
%TD*%
%TO.C,R8*%
G36*
G01*
X133339700Y-107854381D02*
X133339700Y-106954379D01*
G75*
G02*
X133589699Y-106704380I249999J0D01*
G01*
X134239701Y-106704380D01*
G75*
G02*
X134489700Y-106954379I0J-249999D01*
G01*
X134489700Y-107854381D01*
G75*
G02*
X134239701Y-108104380I-249999J0D01*
G01*
X133589699Y-108104380D01*
G75*
G02*
X133339700Y-107854381I0J249999D01*
G01*
G37*
G36*
G01*
X135389700Y-107854381D02*
X135389700Y-106954379D01*
G75*
G02*
X135639699Y-106704380I249999J0D01*
G01*
X136289701Y-106704380D01*
G75*
G02*
X136539700Y-106954379I0J-249999D01*
G01*
X136539700Y-107854381D01*
G75*
G02*
X136289701Y-108104380I-249999J0D01*
G01*
X135639699Y-108104380D01*
G75*
G02*
X135389700Y-107854381I0J249999D01*
G01*
G37*
%TD*%
%TO.C,R6*%
G36*
G01*
X147390000Y-95020001D02*
X147390000Y-94119999D01*
G75*
G02*
X147639999Y-93870000I249999J0D01*
G01*
X148290001Y-93870000D01*
G75*
G02*
X148540000Y-94119999I0J-249999D01*
G01*
X148540000Y-95020001D01*
G75*
G02*
X148290001Y-95270000I-249999J0D01*
G01*
X147639999Y-95270000D01*
G75*
G02*
X147390000Y-95020001I0J249999D01*
G01*
G37*
G36*
G01*
X149440000Y-95020001D02*
X149440000Y-94119999D01*
G75*
G02*
X149689999Y-93870000I249999J0D01*
G01*
X150340001Y-93870000D01*
G75*
G02*
X150590000Y-94119999I0J-249999D01*
G01*
X150590000Y-95020001D01*
G75*
G02*
X150340001Y-95270000I-249999J0D01*
G01*
X149689999Y-95270000D01*
G75*
G02*
X149440000Y-95020001I0J249999D01*
G01*
G37*
%TD*%
%TO.C,R4*%
G36*
G01*
X162950000Y-96299999D02*
X162950000Y-97200001D01*
G75*
G02*
X162700001Y-97450000I-249999J0D01*
G01*
X162049999Y-97450000D01*
G75*
G02*
X161800000Y-97200001I0J249999D01*
G01*
X161800000Y-96299999D01*
G75*
G02*
X162049999Y-96050000I249999J0D01*
G01*
X162700001Y-96050000D01*
G75*
G02*
X162950000Y-96299999I0J-249999D01*
G01*
G37*
G36*
G01*
X160900000Y-96299999D02*
X160900000Y-97200001D01*
G75*
G02*
X160650001Y-97450000I-249999J0D01*
G01*
X159999999Y-97450000D01*
G75*
G02*
X159750000Y-97200001I0J249999D01*
G01*
X159750000Y-96299999D01*
G75*
G02*
X159999999Y-96050000I249999J0D01*
G01*
X160650001Y-96050000D01*
G75*
G02*
X160900000Y-96299999I0J-249999D01*
G01*
G37*
%TD*%
%TO.C,R5*%
G36*
G01*
X158851179Y-87912360D02*
X159751181Y-87912360D01*
G75*
G02*
X160001180Y-88162359I0J-249999D01*
G01*
X160001180Y-88812361D01*
G75*
G02*
X159751181Y-89062360I-249999J0D01*
G01*
X158851179Y-89062360D01*
G75*
G02*
X158601180Y-88812361I0J249999D01*
G01*
X158601180Y-88162359D01*
G75*
G02*
X158851179Y-87912360I249999J0D01*
G01*
G37*
G36*
G01*
X158851179Y-85862360D02*
X159751181Y-85862360D01*
G75*
G02*
X160001180Y-86112359I0J-249999D01*
G01*
X160001180Y-86762361D01*
G75*
G02*
X159751181Y-87012360I-249999J0D01*
G01*
X158851179Y-87012360D01*
G75*
G02*
X158601180Y-86762361I0J249999D01*
G01*
X158601180Y-86112359D01*
G75*
G02*
X158851179Y-85862360I249999J0D01*
G01*
G37*
%TD*%
%TO.C,R2*%
G36*
G01*
X156020000Y-97190001D02*
X156020000Y-96289999D01*
G75*
G02*
X156269999Y-96040000I249999J0D01*
G01*
X156920001Y-96040000D01*
G75*
G02*
X157170000Y-96289999I0J-249999D01*
G01*
X157170000Y-97190001D01*
G75*
G02*
X156920001Y-97440000I-249999J0D01*
G01*
X156269999Y-97440000D01*
G75*
G02*
X156020000Y-97190001I0J249999D01*
G01*
G37*
G36*
G01*
X153970000Y-97190001D02*
X153970000Y-96289999D01*
G75*
G02*
X154219999Y-96040000I249999J0D01*
G01*
X154870001Y-96040000D01*
G75*
G02*
X155120000Y-96289999I0J-249999D01*
G01*
X155120000Y-97190001D01*
G75*
G02*
X154870001Y-97440000I-249999J0D01*
G01*
X154219999Y-97440000D01*
G75*
G02*
X153970000Y-97190001I0J249999D01*
G01*
G37*
%TD*%
%TO.C,R1*%
G36*
G01*
X141015300Y-90441359D02*
X141015300Y-91341361D01*
G75*
G02*
X140765301Y-91591360I-249999J0D01*
G01*
X140115299Y-91591360D01*
G75*
G02*
X139865300Y-91341361I0J249999D01*
G01*
X139865300Y-90441359D01*
G75*
G02*
X140115299Y-90191360I249999J0D01*
G01*
X140765301Y-90191360D01*
G75*
G02*
X141015300Y-90441359I0J-249999D01*
G01*
G37*
G36*
G01*
X143065300Y-90441359D02*
X143065300Y-91341361D01*
G75*
G02*
X142815301Y-91591360I-249999J0D01*
G01*
X142165299Y-91591360D01*
G75*
G02*
X141915300Y-91341361I0J249999D01*
G01*
X141915300Y-90441359D01*
G75*
G02*
X142165299Y-90191360I249999J0D01*
G01*
X142815301Y-90191360D01*
G75*
G02*
X143065300Y-90441359I0J-249999D01*
G01*
G37*
%TD*%
D28*
%TO.C,Q1*%
X142111860Y-88544440D03*
X142111860Y-86644440D03*
X139111860Y-87594440D03*
%TD*%
%TO.C,D1*%
G36*
G01*
X157170000Y-94109999D02*
X157170000Y-95010001D01*
G75*
G02*
X156920001Y-95260000I-249999J0D01*
G01*
X156269999Y-95260000D01*
G75*
G02*
X156020000Y-95010001I0J249999D01*
G01*
X156020000Y-94109999D01*
G75*
G02*
X156269999Y-93860000I249999J0D01*
G01*
X156920001Y-93860000D01*
G75*
G02*
X157170000Y-94109999I0J-249999D01*
G01*
G37*
G36*
G01*
X155120000Y-94109999D02*
X155120000Y-95010001D01*
G75*
G02*
X154870001Y-95260000I-249999J0D01*
G01*
X154219999Y-95260000D01*
G75*
G02*
X153970000Y-95010001I0J249999D01*
G01*
X153970000Y-94109999D01*
G75*
G02*
X154219999Y-93860000I249999J0D01*
G01*
X154870001Y-93860000D01*
G75*
G02*
X155120000Y-94109999I0J-249999D01*
G01*
G37*
%TD*%
%TO.C,C6*%
G36*
G01*
X162019999Y-123220000D02*
X162920001Y-123220000D01*
G75*
G02*
X163170000Y-123469999I0J-249999D01*
G01*
X163170000Y-124120001D01*
G75*
G02*
X162920001Y-124370000I-249999J0D01*
G01*
X162019999Y-124370000D01*
G75*
G02*
X161770000Y-124120001I0J249999D01*
G01*
X161770000Y-123469999D01*
G75*
G02*
X162019999Y-123220000I249999J0D01*
G01*
G37*
G36*
G01*
X162019999Y-121170000D02*
X162920001Y-121170000D01*
G75*
G02*
X163170000Y-121419999I0J-249999D01*
G01*
X163170000Y-122070001D01*
G75*
G02*
X162920001Y-122320000I-249999J0D01*
G01*
X162019999Y-122320000D01*
G75*
G02*
X161770000Y-122070001I0J249999D01*
G01*
X161770000Y-121419999D01*
G75*
G02*
X162019999Y-121170000I249999J0D01*
G01*
G37*
%TD*%
%TO.C,C5*%
G36*
G01*
X162920001Y-118210000D02*
X162019999Y-118210000D01*
G75*
G02*
X161770000Y-117960001I0J249999D01*
G01*
X161770000Y-117309999D01*
G75*
G02*
X162019999Y-117060000I249999J0D01*
G01*
X162920001Y-117060000D01*
G75*
G02*
X163170000Y-117309999I0J-249999D01*
G01*
X163170000Y-117960001D01*
G75*
G02*
X162920001Y-118210000I-249999J0D01*
G01*
G37*
G36*
G01*
X162920001Y-120260000D02*
X162019999Y-120260000D01*
G75*
G02*
X161770000Y-120010001I0J249999D01*
G01*
X161770000Y-119359999D01*
G75*
G02*
X162019999Y-119110000I249999J0D01*
G01*
X162920001Y-119110000D01*
G75*
G02*
X163170000Y-119359999I0J-249999D01*
G01*
X163170000Y-120010001D01*
G75*
G02*
X162920001Y-120260000I-249999J0D01*
G01*
G37*
%TD*%
%TO.C,C4*%
G36*
G01*
X151935161Y-87059340D02*
X151035159Y-87059340D01*
G75*
G02*
X150785160Y-86809341I0J249999D01*
G01*
X150785160Y-86159339D01*
G75*
G02*
X151035159Y-85909340I249999J0D01*
G01*
X151935161Y-85909340D01*
G75*
G02*
X152185160Y-86159339I0J-249999D01*
G01*
X152185160Y-86809341D01*
G75*
G02*
X151935161Y-87059340I-249999J0D01*
G01*
G37*
G36*
G01*
X151935161Y-89109340D02*
X151035159Y-89109340D01*
G75*
G02*
X150785160Y-88859341I0J249999D01*
G01*
X150785160Y-88209339D01*
G75*
G02*
X151035159Y-87959340I249999J0D01*
G01*
X151935161Y-87959340D01*
G75*
G02*
X152185160Y-88209339I0J-249999D01*
G01*
X152185160Y-88859341D01*
G75*
G02*
X151935161Y-89109340I-249999J0D01*
G01*
G37*
%TD*%
%TO.C,C3*%
G36*
G01*
X162009241Y-87014900D02*
X161109239Y-87014900D01*
G75*
G02*
X160859240Y-86764901I0J249999D01*
G01*
X160859240Y-86114899D01*
G75*
G02*
X161109239Y-85864900I249999J0D01*
G01*
X162009241Y-85864900D01*
G75*
G02*
X162259240Y-86114899I0J-249999D01*
G01*
X162259240Y-86764901D01*
G75*
G02*
X162009241Y-87014900I-249999J0D01*
G01*
G37*
G36*
G01*
X162009241Y-89064900D02*
X161109239Y-89064900D01*
G75*
G02*
X160859240Y-88814901I0J249999D01*
G01*
X160859240Y-88164899D01*
G75*
G02*
X161109239Y-87914900I249999J0D01*
G01*
X162009241Y-87914900D01*
G75*
G02*
X162259240Y-88164899I0J-249999D01*
G01*
X162259240Y-88814901D01*
G75*
G02*
X162009241Y-89064900I-249999J0D01*
G01*
G37*
%TD*%
%TO.C,C2*%
G36*
G01*
X149440000Y-97190001D02*
X149440000Y-96289999D01*
G75*
G02*
X149689999Y-96040000I249999J0D01*
G01*
X150340001Y-96040000D01*
G75*
G02*
X150590000Y-96289999I0J-249999D01*
G01*
X150590000Y-97190001D01*
G75*
G02*
X150340001Y-97440000I-249999J0D01*
G01*
X149689999Y-97440000D01*
G75*
G02*
X149440000Y-97190001I0J249999D01*
G01*
G37*
G36*
G01*
X147390000Y-97190001D02*
X147390000Y-96289999D01*
G75*
G02*
X147639999Y-96040000I249999J0D01*
G01*
X148290001Y-96040000D01*
G75*
G02*
X148540000Y-96289999I0J-249999D01*
G01*
X148540000Y-97190001D01*
G75*
G02*
X148290001Y-97440000I-249999J0D01*
G01*
X147639999Y-97440000D01*
G75*
G02*
X147390000Y-97190001I0J249999D01*
G01*
G37*
%TD*%
%TO.C,C1*%
G36*
G01*
X141213981Y-95202840D02*
X140313979Y-95202840D01*
G75*
G02*
X140063980Y-94952841I0J249999D01*
G01*
X140063980Y-94302839D01*
G75*
G02*
X140313979Y-94052840I249999J0D01*
G01*
X141213981Y-94052840D01*
G75*
G02*
X141463980Y-94302839I0J-249999D01*
G01*
X141463980Y-94952841D01*
G75*
G02*
X141213981Y-95202840I-249999J0D01*
G01*
G37*
G36*
G01*
X141213981Y-97252840D02*
X140313979Y-97252840D01*
G75*
G02*
X140063980Y-97002841I0J249999D01*
G01*
X140063980Y-96352839D01*
G75*
G02*
X140313979Y-96102840I249999J0D01*
G01*
X141213981Y-96102840D01*
G75*
G02*
X141463980Y-96352839I0J-249999D01*
G01*
X141463980Y-97002841D01*
G75*
G02*
X141213981Y-97252840I-249999J0D01*
G01*
G37*
%TD*%
M02*
