M48
; DRILL file {KiCad (5.1.9)-1} date 03/02/21 21:56:25
; FORMAT={-:-/ absolute / inch / decimal}
; #@! TF.CreationDate,2021-03-02T21:56:25+01:00
; #@! TF.GenerationSoftware,Kicad,Pcbnew,(5.1.9)-1
; #@! TF.FileFunction,Plated,1,2,PTH
FMAT,2
INCH
T1C0.0138
T2C0.0157
T3C0.0173
T4C0.0276
T5C0.0295
T6C0.0394
T7C0.1382
%
G90
G05
T2
X5.3157Y-3.1157
X5.4035Y-4.6543
X5.436Y-4.4496
X5.6157Y-4.6398
X5.6311Y-2.4906
X5.7607Y-4.5485
X5.7705Y-3.8765
X5.8067Y-2.4906
X5.8236Y-3.8764
X6.0953Y-3.6409
T3
X4.9913Y-3.0843
X4.9913Y-3.1354
X5.0307Y-3.0587
X5.0307Y-3.1098
X5.0307Y-3.161
T4
X5.4941Y-2.8969
X5.4949Y-3.1012
X5.6319Y-2.5819
X5.7933Y-2.7132
X5.9228Y-3.4465
X6.1571Y-2.7154
X6.3Y-2.7165
X6.6492Y-3.4465
T5
X4.9854Y-2.8512
X5.0642Y-2.8512
T6
X5.0772Y-3.8622
X5.1772Y-3.8622
X5.2772Y-3.8622
X5.3772Y-3.8622
X5.4772Y-3.8622
X5.5772Y-3.8622
X5.6772Y-3.8622
X5.9228Y-3.865
X6.0228Y-3.865
X6.0807Y-2.1512
X6.1228Y-3.865
X6.1807Y-2.1512
X6.2228Y-3.865
X6.3228Y-3.865
X6.4228Y-3.865
X6.5228Y-3.865
X6.6228Y-3.865
T7
X5.3134Y-2.6063
X5.3161Y-4.5862
X6.4717Y-4.585
X6.474Y-2.6035
T1
G00X5.0417Y-2.9691
M15
G01X5.0024Y-2.9691
M16
G05
G00X5.0417Y-3.2506
M15
G01X5.0024Y-3.2506
M16
G05
T0
M30
