%TF.GenerationSoftware,KiCad,Pcbnew,(5.1.9)-1*%
%TF.CreationDate,2021-03-02T21:55:11+01:00*%
%TF.ProjectId,clip,636c6970-2e6b-4696-9361-645f70636258,rev?*%
%TF.SameCoordinates,Original*%
%TF.FileFunction,Copper,L2,Bot*%
%TF.FilePolarity,Positive*%
%FSLAX46Y46*%
G04 Gerber Fmt 4.6, Leading zero omitted, Abs format (unit mm)*
G04 Created by KiCad (PCBNEW (5.1.9)-1) date 2021-03-02 21:55:11*
%MOMM*%
%LPD*%
G01*
G04 APERTURE LIST*
%TA.AperFunction,ComponentPad*%
%ADD10O,1.200000X1.750000*%
%TD*%
%TA.AperFunction,ComponentPad*%
%ADD11O,1.850000X0.850000*%
%TD*%
%TA.AperFunction,ComponentPad*%
%ADD12C,0.840000*%
%TD*%
%TA.AperFunction,ComponentPad*%
%ADD13R,0.840000X0.840000*%
%TD*%
%TA.AperFunction,ComponentPad*%
%ADD14O,1.700000X1.700000*%
%TD*%
%TA.AperFunction,ComponentPad*%
%ADD15R,1.700000X1.700000*%
%TD*%
%TA.AperFunction,ViaPad*%
%ADD16C,3.520000*%
%TD*%
%TA.AperFunction,ViaPad*%
%ADD17C,0.800000*%
%TD*%
%TA.AperFunction,ViaPad*%
%ADD18C,1.100000*%
%TD*%
%TA.AperFunction,Conductor*%
%ADD19C,0.250000*%
%TD*%
%TA.AperFunction,Conductor*%
%ADD20C,0.500000*%
%TD*%
%TA.AperFunction,Conductor*%
%ADD21C,0.254000*%
%TD*%
%TA.AperFunction,Conductor*%
%ADD22C,0.100000*%
%TD*%
G04 APERTURE END LIST*
D10*
%TO.P,J1,2*%
%TO.N,+BATT*%
X126630000Y-72420000D03*
%TO.P,J1,1*%
%TO.N,GND*%
%TA.AperFunction,ComponentPad*%
G36*
G01*
X129230000Y-71794999D02*
X129230000Y-73045001D01*
G75*
G02*
X128980001Y-73295000I-249999J0D01*
G01*
X128279999Y-73295000D01*
G75*
G02*
X128030000Y-73045001I0J249999D01*
G01*
X128030000Y-71794999D01*
G75*
G02*
X128279999Y-71545000I249999J0D01*
G01*
X128980001Y-71545000D01*
G75*
G02*
X129230000Y-71794999I0J-249999D01*
G01*
G37*
%TD.AperFunction*%
%TD*%
D11*
%TO.P,J2,6*%
%TO.N,GND*%
X127560000Y-82565000D03*
X127560000Y-75415000D03*
D12*
%TO.P,J2,5*%
X127780000Y-80290000D03*
%TO.P,J2,4*%
%TO.N,Net-(J2-Pad4)*%
X126780000Y-79640000D03*
%TO.P,J2,3*%
%TO.N,/D+*%
X127780000Y-78990000D03*
%TO.P,J2,2*%
%TO.N,/D-*%
X126780000Y-78340000D03*
D13*
%TO.P,J2,1*%
%TO.N,VBUS*%
X127780000Y-77690000D03*
%TD*%
D14*
%TO.P,JP1,2*%
%TO.N,Net-(D3-Pad2)*%
X154450000Y-54640000D03*
D15*
%TO.P,JP1,1*%
%TO.N,+3V3*%
X156990000Y-54640000D03*
%TD*%
D14*
%TO.P,J4,8*%
%TO.N,Net-(J4-Pad8)*%
X168220000Y-98170000D03*
%TO.P,J4,7*%
%TO.N,Net-(J4-Pad7)*%
X165680000Y-98170000D03*
%TO.P,J4,6*%
%TO.N,Net-(J4-Pad6)*%
X163140000Y-98170000D03*
%TO.P,J4,5*%
%TO.N,SDA*%
X160600000Y-98170000D03*
%TO.P,J4,4*%
%TO.N,SCL*%
X158060000Y-98170000D03*
%TO.P,J4,3*%
%TO.N,GND*%
X155520000Y-98170000D03*
%TO.P,J4,2*%
%TO.N,Net-(J4-Pad2)*%
X152980000Y-98170000D03*
D15*
%TO.P,J4,1*%
%TO.N,+3V3*%
X150440000Y-98170000D03*
%TD*%
D14*
%TO.P,J3,7*%
%TO.N,Net-(J3-Pad7)*%
X144200000Y-98100000D03*
%TO.P,J3,6*%
%TO.N,SDA*%
X141660000Y-98100000D03*
%TO.P,J3,5*%
%TO.N,Net-(J3-Pad5)*%
X139120000Y-98100000D03*
%TO.P,J3,4*%
%TO.N,SCL*%
X136580000Y-98100000D03*
%TO.P,J3,3*%
%TO.N,GND*%
X134040000Y-98100000D03*
%TO.P,J3,2*%
%TO.N,Net-(J3-Pad2)*%
X131500000Y-98100000D03*
D15*
%TO.P,J3,1*%
%TO.N,+3V3*%
X128960000Y-98100000D03*
%TD*%
D16*
%TO.N,*%
X134960000Y-66200000D03*
X164380000Y-116460000D03*
X135030000Y-116490000D03*
X164440000Y-66130000D03*
D17*
%TO.N,GND*%
X135020000Y-79140000D03*
D18*
%TO.N,VBUS*%
X139570000Y-78770000D03*
X139549999Y-73580000D03*
%TO.N,VIN*%
X143050000Y-65580000D03*
X147149992Y-68916012D03*
%TO.N,+3V3*%
X156390000Y-68970000D03*
X160020000Y-69000000D03*
X168889998Y-87540000D03*
X150440000Y-87540000D03*
D17*
%TO.N,SDA*%
X138075010Y-113020000D03*
%TO.N,SCL*%
X137250000Y-118220000D03*
X154820000Y-92480000D03*
%TO.N,TX0*%
X146323000Y-115532000D03*
X147920000Y-98460000D03*
%TO.N,RX0*%
X142640000Y-117850000D03*
X146570000Y-98462000D03*
%TO.N,Net-(R1-Pad1)*%
X147490000Y-63260000D03*
X143030000Y-63260000D03*
%TD*%
D19*
%TO.N,GND*%
X127560000Y-82565000D02*
X129305000Y-82565000D01*
X129305000Y-82565000D02*
X131890000Y-79980000D01*
X134180000Y-79980000D02*
X135020000Y-79140000D01*
X131890000Y-79980000D02*
X134180000Y-79980000D01*
D20*
%TO.N,VBUS*%
X139570000Y-73600001D02*
X139549999Y-73580000D01*
X139570000Y-78770000D02*
X139570000Y-73600001D01*
%TO.N,VIN*%
X144284612Y-68916012D02*
X147149992Y-68916012D01*
X143050000Y-67681400D02*
X144284612Y-68916012D01*
X143050000Y-65580000D02*
X143050000Y-67681400D01*
%TO.N,+3V3*%
X159894840Y-68937000D02*
X159910080Y-68921760D01*
X156338840Y-68937000D02*
X159894840Y-68937000D01*
X128960000Y-98100000D02*
X128960000Y-92280000D01*
X128960000Y-92280000D02*
X133700000Y-87540000D01*
X150440000Y-87540000D02*
X168889998Y-87540000D01*
X133700000Y-87540000D02*
X150440000Y-87540000D01*
D19*
%TO.N,SDA*%
X141660000Y-98459977D02*
X141660000Y-98100000D01*
X140018764Y-100101213D02*
X141660000Y-98459977D01*
X139976879Y-100153735D02*
X140018764Y-100101213D01*
X139947731Y-100214261D02*
X139976879Y-100153735D01*
X139932782Y-100279756D02*
X139947731Y-100214261D01*
X138566797Y-100678006D02*
X138566797Y-100610828D01*
X138652780Y-100856548D02*
X138610894Y-100804027D01*
X138705303Y-100390399D02*
X138765828Y-100361253D01*
X139305317Y-101519722D02*
X139263432Y-101467199D01*
X138963996Y-100361252D02*
X139024521Y-100390400D01*
X139349413Y-101645742D02*
X139334464Y-101580248D01*
X140018764Y-100525477D02*
X139976879Y-100472955D01*
X139334464Y-101580248D02*
X139305317Y-101519722D01*
X139334464Y-101778415D02*
X139349413Y-101712921D01*
X140197940Y-100797215D02*
X140182991Y-100731721D01*
X139305317Y-101838941D02*
X139334464Y-101778415D01*
X138610894Y-100804027D02*
X138581746Y-100743501D01*
X138581746Y-100743501D02*
X138566797Y-100678006D01*
X139263432Y-101891464D02*
X139305317Y-101838941D01*
X139210910Y-101933349D02*
X139263432Y-101891464D01*
X139024521Y-100390400D02*
X139077044Y-100432285D01*
X139150384Y-101962497D02*
X139210910Y-101933349D01*
X139084889Y-101977446D02*
X139150384Y-101962497D01*
X138652780Y-100432284D02*
X138705303Y-100390399D01*
X139017711Y-101977446D02*
X139084889Y-101977446D01*
X138075010Y-113020000D02*
X138075010Y-102044970D01*
X140059437Y-101084822D02*
X140111959Y-101042937D01*
X138075010Y-102044970D02*
X138321710Y-101798270D01*
X138321710Y-101798270D02*
X138374232Y-101756384D01*
X138500252Y-101712288D02*
X138567431Y-101712288D01*
X138374232Y-101756384D02*
X138434758Y-101727237D01*
X138898501Y-100346304D02*
X138963996Y-100361252D01*
X138567431Y-101712288D02*
X138632925Y-101727237D01*
X138831323Y-100346303D02*
X138898501Y-100346304D01*
X138891690Y-101933349D02*
X138952216Y-101962497D01*
X139263432Y-101467199D02*
X138652780Y-100856548D01*
X139687695Y-101042937D02*
X139740217Y-101084822D01*
X138632925Y-101727237D02*
X138693451Y-101756384D01*
X138765828Y-100361253D02*
X138831323Y-100346303D01*
X138434758Y-101727237D02*
X138500252Y-101712288D01*
X139933416Y-101128919D02*
X139998911Y-101113970D01*
X138839168Y-101891464D02*
X138891690Y-101933349D01*
X138693451Y-101756384D02*
X138745974Y-101798270D01*
X139800743Y-101113970D02*
X139866238Y-101128919D01*
X138745974Y-101798270D02*
X138839168Y-101891464D01*
X139349413Y-101712921D02*
X139349413Y-101645742D01*
X138952216Y-101962497D02*
X139017711Y-101977446D01*
X138566797Y-100610828D02*
X138581746Y-100545333D01*
X138581746Y-100545333D02*
X138610894Y-100484807D01*
X138610894Y-100484807D02*
X138652780Y-100432284D01*
X139077044Y-100432285D02*
X139687695Y-101042937D01*
X139740217Y-101084822D02*
X139800743Y-101113970D01*
X139866238Y-101128919D02*
X139933416Y-101128919D01*
X139998911Y-101113970D02*
X140059437Y-101084822D01*
X140111959Y-101042937D02*
X140153844Y-100990414D01*
X140153844Y-100990414D02*
X140182991Y-100929888D01*
X140182991Y-100929888D02*
X140197940Y-100864394D01*
X140197940Y-100864394D02*
X140197940Y-100797215D01*
X140182991Y-100731721D02*
X140153844Y-100671195D01*
X140153844Y-100671195D02*
X140111959Y-100618672D01*
X140111959Y-100618672D02*
X140018764Y-100525477D01*
X139976879Y-100472955D02*
X139947731Y-100412429D01*
X139947731Y-100412429D02*
X139932782Y-100346934D01*
X139932782Y-100346934D02*
X139932782Y-100279756D01*
X159595480Y-94616420D02*
X160600000Y-95620940D01*
X153672460Y-94616420D02*
X159595480Y-94616420D01*
X153542294Y-94586711D02*
X153605703Y-94608899D01*
X153437910Y-94503467D02*
X153485413Y-94550970D01*
X153402169Y-94446586D02*
X153437910Y-94503467D01*
X153379981Y-94383177D02*
X153402169Y-94446586D01*
X153372460Y-94031793D02*
X153372460Y-94316420D01*
X153364938Y-93965037D02*
X153372460Y-94031793D01*
X153342750Y-93901628D02*
X153364938Y-93965037D01*
X153259506Y-93797244D02*
X153307009Y-93844747D01*
X153072460Y-93731793D02*
X153139216Y-93739315D01*
X153005703Y-93739315D02*
X153072460Y-93731793D01*
X152942294Y-93761503D02*
X153005703Y-93739315D01*
X152885413Y-93797244D02*
X152942294Y-93761503D01*
X152837910Y-93844747D02*
X152885413Y-93797244D01*
X151602169Y-93901628D02*
X151637910Y-93844747D01*
X153605703Y-94608899D02*
X153672460Y-94616420D01*
X151579981Y-93965037D02*
X151602169Y-93901628D01*
X151572460Y-95201047D02*
X151572460Y-94031793D01*
X151564938Y-95267803D02*
X151572460Y-95201047D01*
X151542750Y-95331212D02*
X151564938Y-95267803D01*
X151507009Y-95388093D02*
X151542750Y-95331212D01*
X151459506Y-95435596D02*
X151507009Y-95388093D01*
X153202625Y-93761503D02*
X153259506Y-93797244D01*
X151572460Y-94031793D02*
X151579981Y-93965037D01*
X151402625Y-95471337D02*
X151459506Y-95435596D01*
X151272460Y-95501047D02*
X151339216Y-95493525D01*
X151205703Y-95493525D02*
X151272460Y-95501047D01*
X151037910Y-95388093D02*
X151085413Y-95435596D01*
X151339216Y-95493525D02*
X151402625Y-95471337D01*
X160600000Y-95620940D02*
X160600000Y-98170000D01*
X151002169Y-95331212D02*
X151037910Y-95388093D01*
X153139216Y-93739315D02*
X153202625Y-93761503D01*
X141660000Y-98100000D02*
X141660000Y-95792980D01*
X151085413Y-95435596D02*
X151142294Y-95471337D01*
X141660000Y-95792980D02*
X142836560Y-94616420D01*
X142836560Y-94616420D02*
X150672460Y-94616420D01*
X151142294Y-95471337D02*
X151205703Y-95493525D01*
X150739216Y-94623941D02*
X150802625Y-94646129D01*
X150942750Y-94786254D02*
X150964938Y-94849663D01*
X153307009Y-93844747D02*
X153342750Y-93901628D01*
X150672460Y-94616420D02*
X150739216Y-94623941D01*
X150802625Y-94646129D02*
X150859506Y-94681870D01*
X150859506Y-94681870D02*
X150907009Y-94729373D01*
X150979981Y-95267803D02*
X151002169Y-95331212D01*
X150907009Y-94729373D02*
X150942750Y-94786254D01*
X150972460Y-95201047D02*
X150979981Y-95267803D01*
X150964938Y-94849663D02*
X150972460Y-94916420D01*
X150972460Y-94916420D02*
X150972460Y-95201047D01*
X153372460Y-94316420D02*
X153379981Y-94383177D01*
X151637910Y-93844747D02*
X151685413Y-93797244D01*
X151685413Y-93797244D02*
X151742294Y-93761503D01*
X151742294Y-93761503D02*
X151805703Y-93739315D01*
X151805703Y-93739315D02*
X151872460Y-93731793D01*
X151872460Y-93731793D02*
X151939216Y-93739315D01*
X153485413Y-94550970D02*
X153542294Y-94586711D01*
X151939216Y-93739315D02*
X152002625Y-93761503D01*
X152764938Y-95267803D02*
X152772460Y-95201047D01*
X152002625Y-93761503D02*
X152059506Y-93797244D01*
X152059506Y-93797244D02*
X152107009Y-93844747D01*
X152107009Y-93844747D02*
X152142750Y-93901628D01*
X152142750Y-93901628D02*
X152164938Y-93965037D01*
X152164938Y-93965037D02*
X152172460Y-94031793D01*
X152172460Y-94031793D02*
X152172460Y-95201047D01*
X152172460Y-95201047D02*
X152179981Y-95267803D01*
X152179981Y-95267803D02*
X152202169Y-95331212D01*
X152202169Y-95331212D02*
X152237910Y-95388093D01*
X152237910Y-95388093D02*
X152285413Y-95435596D01*
X152285413Y-95435596D02*
X152342294Y-95471337D01*
X152342294Y-95471337D02*
X152405703Y-95493525D01*
X152405703Y-95493525D02*
X152472460Y-95501047D01*
X152472460Y-95501047D02*
X152539216Y-95493525D01*
X152772460Y-95201047D02*
X152772460Y-94031793D01*
X152539216Y-95493525D02*
X152602625Y-95471337D01*
X152742750Y-95331212D02*
X152764938Y-95267803D01*
X152602625Y-95471337D02*
X152659506Y-95435596D01*
X152659506Y-95435596D02*
X152707009Y-95388093D01*
X152802169Y-93901628D02*
X152837910Y-93844747D01*
X152707009Y-95388093D02*
X152742750Y-95331212D01*
X152772460Y-94031793D02*
X152779981Y-93965037D01*
X152779981Y-93965037D02*
X152802169Y-93901628D01*
%TO.N,SCL*%
X154254315Y-92480000D02*
X154820000Y-92480000D01*
X138920000Y-92480000D02*
X154254315Y-92480000D01*
X136580000Y-94820000D02*
X138920000Y-92480000D01*
X136580000Y-98100000D02*
X136580000Y-94820000D01*
X137220000Y-118190000D02*
X137250000Y-118220000D01*
X137220000Y-101210000D02*
X137220000Y-118190000D01*
X136580000Y-100570000D02*
X137220000Y-101210000D01*
X136580000Y-98100000D02*
X136580000Y-100570000D01*
%TO.N,TX0*%
X146323000Y-115532000D02*
X147920000Y-113935000D01*
X147920000Y-113935000D02*
X147920000Y-98460000D01*
%TO.N,RX0*%
X142640000Y-117850000D02*
X146570000Y-113920000D01*
X146570000Y-113920000D02*
X146570000Y-98462000D01*
%TO.N,Net-(R1-Pad1)*%
X147490000Y-63260000D02*
X143030000Y-63260000D01*
%TD*%
D21*
%TO.N,GND*%
X166284920Y-58938489D02*
X166281691Y-58972587D01*
X166288547Y-59039614D01*
X166295250Y-59105968D01*
X166295378Y-59106385D01*
X166295422Y-59106819D01*
X166315097Y-59170812D01*
X166334741Y-59234993D01*
X166334948Y-59235378D01*
X166335076Y-59235794D01*
X166366841Y-59294689D01*
X166398645Y-59353834D01*
X166398923Y-59354171D01*
X166399130Y-59354555D01*
X166441811Y-59406165D01*
X166484506Y-59457924D01*
X166484845Y-59458201D01*
X166485123Y-59458537D01*
X166536972Y-59500763D01*
X166589024Y-59543265D01*
X166589411Y-59543471D01*
X166589748Y-59543745D01*
X166648803Y-59575025D01*
X166708183Y-59606574D01*
X166708602Y-59606700D01*
X166708987Y-59606904D01*
X166773318Y-59626155D01*
X166837404Y-59645421D01*
X166837837Y-59645463D01*
X166838256Y-59645588D01*
X166905032Y-59651911D01*
X166971718Y-59658311D01*
X167005786Y-59654870D01*
X174264895Y-59627580D01*
X174255106Y-122975000D01*
X166963214Y-122975000D01*
X166929140Y-122971687D01*
X166862909Y-122978294D01*
X166795717Y-122984912D01*
X166795300Y-122985039D01*
X166794874Y-122985081D01*
X166731226Y-123004475D01*
X166666594Y-123024081D01*
X166666211Y-123024286D01*
X166665800Y-123024411D01*
X166607094Y-123055884D01*
X166547593Y-123087688D01*
X166547257Y-123087964D01*
X166546878Y-123088167D01*
X166495313Y-123130594D01*
X166443289Y-123173289D01*
X166443014Y-123173624D01*
X166442681Y-123173898D01*
X166400417Y-123225528D01*
X166357688Y-123277593D01*
X166357483Y-123277977D01*
X166357211Y-123278309D01*
X166326008Y-123336863D01*
X166294081Y-123396594D01*
X166293954Y-123397013D01*
X166293753Y-123397390D01*
X166274525Y-123461060D01*
X166254912Y-123525717D01*
X166254869Y-123526149D01*
X166254745Y-123526561D01*
X166248296Y-123592889D01*
X166241686Y-123660000D01*
X166245043Y-123694079D01*
X166246492Y-124853198D01*
X133130590Y-124862800D01*
X133134868Y-123726216D01*
X133138308Y-123692577D01*
X133130662Y-123611848D01*
X133125588Y-123558260D01*
X133125587Y-123558256D01*
X133125586Y-123558247D01*
X133103423Y-123484188D01*
X133086905Y-123428990D01*
X133086902Y-123428984D01*
X133086900Y-123428978D01*
X133053041Y-123365057D01*
X133023747Y-123309751D01*
X133023744Y-123309747D01*
X133023740Y-123309740D01*
X132977752Y-123253275D01*
X132938539Y-123205125D01*
X132938534Y-123205121D01*
X132938530Y-123205116D01*
X132894224Y-123168476D01*
X132834558Y-123119132D01*
X132834551Y-123119128D01*
X132834547Y-123119125D01*
X132752218Y-123074721D01*
X132715797Y-123055078D01*
X132715785Y-123055072D01*
X132625690Y-123027373D01*
X132586823Y-123015423D01*
X132586818Y-123015423D01*
X132586810Y-123015420D01*
X132486212Y-123005131D01*
X132486209Y-123005131D01*
X132452590Y-123001692D01*
X132418933Y-123004879D01*
X125124763Y-122977560D01*
X125122437Y-116254113D01*
X132635000Y-116254113D01*
X132635000Y-116725887D01*
X132727039Y-117188596D01*
X132907579Y-117624458D01*
X133169682Y-118016723D01*
X133503277Y-118350318D01*
X133895542Y-118612421D01*
X134331404Y-118792961D01*
X134794113Y-118885000D01*
X135265887Y-118885000D01*
X135728596Y-118792961D01*
X136164458Y-118612421D01*
X136264564Y-118545532D01*
X136332795Y-118710256D01*
X136446063Y-118879774D01*
X136590226Y-119023937D01*
X136759744Y-119137205D01*
X136948102Y-119215226D01*
X137148061Y-119255000D01*
X137351939Y-119255000D01*
X137551898Y-119215226D01*
X137740256Y-119137205D01*
X137909774Y-119023937D01*
X138053937Y-118879774D01*
X138167205Y-118710256D01*
X138245226Y-118521898D01*
X138285000Y-118321939D01*
X138285000Y-118118061D01*
X138245226Y-117918102D01*
X138167205Y-117729744D01*
X138053937Y-117560226D01*
X137980000Y-117486289D01*
X137980000Y-114055000D01*
X138176949Y-114055000D01*
X138376908Y-114015226D01*
X138565266Y-113937205D01*
X138734784Y-113823937D01*
X138878947Y-113679774D01*
X138992215Y-113510256D01*
X139070236Y-113321898D01*
X139110010Y-113121939D01*
X139110010Y-112918061D01*
X139070236Y-112718102D01*
X138992215Y-112529744D01*
X138878947Y-112360226D01*
X138835010Y-112316289D01*
X138835010Y-102716222D01*
X138868725Y-102726449D01*
X138932617Y-102732742D01*
X138996290Y-102740822D01*
X139044356Y-102737446D01*
X139058243Y-102737446D01*
X139106309Y-102740822D01*
X139169981Y-102732742D01*
X139233875Y-102726449D01*
X139279997Y-102712458D01*
X139293516Y-102709373D01*
X139341134Y-102701967D01*
X139401416Y-102679919D01*
X139462305Y-102659567D01*
X139504152Y-102635667D01*
X139516654Y-102629646D01*
X139561424Y-102611833D01*
X139615286Y-102576927D01*
X139670123Y-102543533D01*
X139705604Y-102510919D01*
X139716446Y-102502272D01*
X139756139Y-102474937D01*
X139800888Y-102428915D01*
X139846910Y-102384166D01*
X139874244Y-102344474D01*
X139882897Y-102333624D01*
X139915507Y-102298146D01*
X139948881Y-102243338D01*
X139983805Y-102189449D01*
X140001623Y-102144666D01*
X140007635Y-102132182D01*
X140031533Y-102090338D01*
X140051886Y-102029447D01*
X140073936Y-101969156D01*
X140081340Y-101921543D01*
X140084423Y-101908036D01*
X140094689Y-101874195D01*
X140128524Y-101863931D01*
X140142043Y-101860846D01*
X140189661Y-101853440D01*
X140249943Y-101831392D01*
X140310832Y-101811040D01*
X140352679Y-101787140D01*
X140365181Y-101781119D01*
X140409951Y-101763306D01*
X140463813Y-101728400D01*
X140518650Y-101695006D01*
X140554131Y-101662392D01*
X140564973Y-101653745D01*
X140604666Y-101626410D01*
X140649415Y-101580388D01*
X140695437Y-101535639D01*
X140722771Y-101495947D01*
X140731424Y-101485097D01*
X140764034Y-101449619D01*
X140797408Y-101394811D01*
X140832332Y-101340922D01*
X140850150Y-101296139D01*
X140856162Y-101283655D01*
X140880060Y-101241811D01*
X140900413Y-101180920D01*
X140922463Y-101120629D01*
X140929867Y-101073016D01*
X140932950Y-101059509D01*
X140946943Y-101013380D01*
X140953237Y-100949478D01*
X140961316Y-100885818D01*
X140957940Y-100837747D01*
X140957940Y-100823862D01*
X140961316Y-100775791D01*
X140953236Y-100712127D01*
X140946943Y-100648230D01*
X140932951Y-100602104D01*
X140929867Y-100588593D01*
X140922463Y-100540980D01*
X140900413Y-100480689D01*
X140880060Y-100419798D01*
X140856162Y-100377954D01*
X140850150Y-100365470D01*
X140844218Y-100350561D01*
X141609779Y-99585000D01*
X141806260Y-99585000D01*
X142093158Y-99527932D01*
X142363411Y-99415990D01*
X142606632Y-99253475D01*
X142813475Y-99046632D01*
X142930000Y-98872240D01*
X143046525Y-99046632D01*
X143253368Y-99253475D01*
X143496589Y-99415990D01*
X143766842Y-99527932D01*
X144053740Y-99585000D01*
X144346260Y-99585000D01*
X144633158Y-99527932D01*
X144903411Y-99415990D01*
X145146632Y-99253475D01*
X145353475Y-99046632D01*
X145515990Y-98803411D01*
X145561013Y-98694716D01*
X145574774Y-98763898D01*
X145652795Y-98952256D01*
X145766063Y-99121774D01*
X145810001Y-99165712D01*
X145810000Y-113605198D01*
X142600199Y-116815000D01*
X142538061Y-116815000D01*
X142338102Y-116854774D01*
X142149744Y-116932795D01*
X141980226Y-117046063D01*
X141836063Y-117190226D01*
X141722795Y-117359744D01*
X141644774Y-117548102D01*
X141605000Y-117748061D01*
X141605000Y-117951939D01*
X141644774Y-118151898D01*
X141722795Y-118340256D01*
X141836063Y-118509774D01*
X141980226Y-118653937D01*
X142149744Y-118767205D01*
X142338102Y-118845226D01*
X142538061Y-118885000D01*
X142741939Y-118885000D01*
X142941898Y-118845226D01*
X143130256Y-118767205D01*
X143299774Y-118653937D01*
X143443937Y-118509774D01*
X143557205Y-118340256D01*
X143635226Y-118151898D01*
X143675000Y-117951939D01*
X143675000Y-117889801D01*
X145460570Y-116104232D01*
X145519063Y-116191774D01*
X145663226Y-116335937D01*
X145832744Y-116449205D01*
X146021102Y-116527226D01*
X146221061Y-116567000D01*
X146424939Y-116567000D01*
X146624898Y-116527226D01*
X146813256Y-116449205D01*
X146982774Y-116335937D01*
X147094598Y-116224113D01*
X161985000Y-116224113D01*
X161985000Y-116695887D01*
X162077039Y-117158596D01*
X162257579Y-117594458D01*
X162519682Y-117986723D01*
X162853277Y-118320318D01*
X163245542Y-118582421D01*
X163681404Y-118762961D01*
X164144113Y-118855000D01*
X164615887Y-118855000D01*
X165078596Y-118762961D01*
X165514458Y-118582421D01*
X165906723Y-118320318D01*
X166240318Y-117986723D01*
X166502421Y-117594458D01*
X166682961Y-117158596D01*
X166775000Y-116695887D01*
X166775000Y-116224113D01*
X166682961Y-115761404D01*
X166502421Y-115325542D01*
X166240318Y-114933277D01*
X165906723Y-114599682D01*
X165514458Y-114337579D01*
X165078596Y-114157039D01*
X164615887Y-114065000D01*
X164144113Y-114065000D01*
X163681404Y-114157039D01*
X163245542Y-114337579D01*
X162853277Y-114599682D01*
X162519682Y-114933277D01*
X162257579Y-115325542D01*
X162077039Y-115761404D01*
X161985000Y-116224113D01*
X147094598Y-116224113D01*
X147126937Y-116191774D01*
X147240205Y-116022256D01*
X147318226Y-115833898D01*
X147358000Y-115633939D01*
X147358000Y-115571801D01*
X148431004Y-114498798D01*
X148460001Y-114475001D01*
X148496109Y-114431003D01*
X148554974Y-114359277D01*
X148625546Y-114227247D01*
X148646843Y-114157039D01*
X148669003Y-114083986D01*
X148680000Y-113972333D01*
X148680000Y-113972324D01*
X148683676Y-113935001D01*
X148680000Y-113897678D01*
X148680000Y-108818061D01*
X165315000Y-108818061D01*
X165315000Y-109021939D01*
X165354774Y-109221898D01*
X165432795Y-109410256D01*
X165546063Y-109579774D01*
X165690226Y-109723937D01*
X165859744Y-109837205D01*
X166048102Y-109915226D01*
X166248061Y-109955000D01*
X166451939Y-109955000D01*
X166651898Y-109915226D01*
X166840256Y-109837205D01*
X167009774Y-109723937D01*
X167153937Y-109579774D01*
X167267205Y-109410256D01*
X167345226Y-109221898D01*
X167385000Y-109021939D01*
X167385000Y-108818061D01*
X167345226Y-108618102D01*
X167267205Y-108429744D01*
X167153937Y-108260226D01*
X167009774Y-108116063D01*
X166840256Y-108002795D01*
X166651898Y-107924774D01*
X166451939Y-107885000D01*
X166248061Y-107885000D01*
X166048102Y-107924774D01*
X165859744Y-108002795D01*
X165690226Y-108116063D01*
X165546063Y-108260226D01*
X165432795Y-108429744D01*
X165354774Y-108618102D01*
X165315000Y-108818061D01*
X148680000Y-108818061D01*
X148680000Y-99163711D01*
X148723937Y-99119774D01*
X148837205Y-98950256D01*
X148915226Y-98761898D01*
X148951928Y-98577383D01*
X148951928Y-99020000D01*
X148964188Y-99144482D01*
X149000498Y-99264180D01*
X149059463Y-99374494D01*
X149138815Y-99471185D01*
X149235506Y-99550537D01*
X149345820Y-99609502D01*
X149465518Y-99645812D01*
X149590000Y-99658072D01*
X151290000Y-99658072D01*
X151414482Y-99645812D01*
X151534180Y-99609502D01*
X151644494Y-99550537D01*
X151741185Y-99471185D01*
X151820537Y-99374494D01*
X151879502Y-99264180D01*
X151901513Y-99191620D01*
X152033368Y-99323475D01*
X152276589Y-99485990D01*
X152546842Y-99597932D01*
X152833740Y-99655000D01*
X153126260Y-99655000D01*
X153413158Y-99597932D01*
X153683411Y-99485990D01*
X153926632Y-99323475D01*
X154133475Y-99116632D01*
X154255195Y-98934466D01*
X154324822Y-99051355D01*
X154519731Y-99267588D01*
X154753080Y-99441641D01*
X155015901Y-99566825D01*
X155163110Y-99611476D01*
X155393000Y-99490155D01*
X155393000Y-98297000D01*
X155373000Y-98297000D01*
X155373000Y-98043000D01*
X155393000Y-98043000D01*
X155393000Y-96849845D01*
X155163110Y-96728524D01*
X155015901Y-96773175D01*
X154753080Y-96898359D01*
X154519731Y-97072412D01*
X154324822Y-97288645D01*
X154255195Y-97405534D01*
X154133475Y-97223368D01*
X153926632Y-97016525D01*
X153683411Y-96854010D01*
X153413158Y-96742068D01*
X153126260Y-96685000D01*
X152833740Y-96685000D01*
X152546842Y-96742068D01*
X152276589Y-96854010D01*
X152033368Y-97016525D01*
X151901513Y-97148380D01*
X151879502Y-97075820D01*
X151820537Y-96965506D01*
X151741185Y-96868815D01*
X151644494Y-96789463D01*
X151534180Y-96730498D01*
X151414482Y-96694188D01*
X151290000Y-96681928D01*
X149590000Y-96681928D01*
X149465518Y-96694188D01*
X149345820Y-96730498D01*
X149235506Y-96789463D01*
X149138815Y-96868815D01*
X149059463Y-96965506D01*
X149000498Y-97075820D01*
X148964188Y-97195518D01*
X148951928Y-97320000D01*
X148951928Y-98342617D01*
X148915226Y-98158102D01*
X148837205Y-97969744D01*
X148723937Y-97800226D01*
X148579774Y-97656063D01*
X148410256Y-97542795D01*
X148221898Y-97464774D01*
X148021939Y-97425000D01*
X147818061Y-97425000D01*
X147618102Y-97464774D01*
X147429744Y-97542795D01*
X147260226Y-97656063D01*
X147244000Y-97672289D01*
X147229774Y-97658063D01*
X147060256Y-97544795D01*
X146871898Y-97466774D01*
X146671939Y-97427000D01*
X146468061Y-97427000D01*
X146268102Y-97466774D01*
X146079744Y-97544795D01*
X145910226Y-97658063D01*
X145766063Y-97802226D01*
X145680372Y-97930472D01*
X145627932Y-97666842D01*
X145515990Y-97396589D01*
X145353475Y-97153368D01*
X145146632Y-96946525D01*
X144903411Y-96784010D01*
X144633158Y-96672068D01*
X144346260Y-96615000D01*
X144053740Y-96615000D01*
X143766842Y-96672068D01*
X143496589Y-96784010D01*
X143253368Y-96946525D01*
X143046525Y-97153368D01*
X142930000Y-97327760D01*
X142813475Y-97153368D01*
X142606632Y-96946525D01*
X142420000Y-96821822D01*
X142420000Y-96107781D01*
X143151362Y-95376420D01*
X150224255Y-95376420D01*
X150238962Y-95436929D01*
X150252367Y-95499707D01*
X150271433Y-95543973D01*
X150276014Y-95557063D01*
X150288706Y-95603558D01*
X150317367Y-95660997D01*
X150344406Y-95719219D01*
X150372842Y-95758128D01*
X150380217Y-95769866D01*
X150402936Y-95812369D01*
X150443666Y-95861998D01*
X150482979Y-95912738D01*
X150519355Y-95944339D01*
X150529167Y-95954152D01*
X150560768Y-95990527D01*
X150611508Y-96029840D01*
X150661137Y-96070569D01*
X150703629Y-96093282D01*
X150715380Y-96100665D01*
X150754287Y-96129100D01*
X150812509Y-96156139D01*
X150869948Y-96184800D01*
X150916443Y-96197492D01*
X150929527Y-96202070D01*
X150973789Y-96221136D01*
X151036571Y-96234542D01*
X151098947Y-96249703D01*
X151147105Y-96251731D01*
X151160880Y-96253283D01*
X151208278Y-96262021D01*
X151272460Y-96261120D01*
X151336643Y-96262021D01*
X151384038Y-96253283D01*
X151397815Y-96251731D01*
X151445973Y-96249703D01*
X151508362Y-96234539D01*
X151571130Y-96221135D01*
X151615386Y-96202073D01*
X151628476Y-96197492D01*
X151674971Y-96184800D01*
X151732410Y-96156139D01*
X151790632Y-96129100D01*
X151829541Y-96100664D01*
X151841279Y-96093289D01*
X151872460Y-96076622D01*
X151903629Y-96093282D01*
X151915380Y-96100665D01*
X151954287Y-96129100D01*
X152012509Y-96156139D01*
X152069948Y-96184800D01*
X152116443Y-96197492D01*
X152129527Y-96202070D01*
X152173789Y-96221136D01*
X152236571Y-96234542D01*
X152298947Y-96249703D01*
X152347105Y-96251731D01*
X152360880Y-96253283D01*
X152408278Y-96262021D01*
X152472460Y-96261120D01*
X152536643Y-96262021D01*
X152584038Y-96253283D01*
X152597815Y-96251731D01*
X152645973Y-96249703D01*
X152708362Y-96234539D01*
X152771130Y-96221135D01*
X152815386Y-96202073D01*
X152828476Y-96197492D01*
X152874971Y-96184800D01*
X152932410Y-96156139D01*
X152990632Y-96129100D01*
X153029541Y-96100664D01*
X153041279Y-96093289D01*
X153083782Y-96070570D01*
X153133411Y-96029840D01*
X153184151Y-95990527D01*
X153215752Y-95954151D01*
X153225565Y-95944339D01*
X153261940Y-95912738D01*
X153301253Y-95861998D01*
X153341982Y-95812369D01*
X153364695Y-95769877D01*
X153372078Y-95758126D01*
X153400513Y-95719219D01*
X153427552Y-95660997D01*
X153456213Y-95603558D01*
X153468905Y-95557063D01*
X153473484Y-95543976D01*
X153492548Y-95499718D01*
X153505953Y-95436942D01*
X153521116Y-95374559D01*
X153521475Y-95366026D01*
X153535653Y-95366623D01*
X153592683Y-95372240D01*
X153624472Y-95375821D01*
X153629804Y-95375896D01*
X153635127Y-95376420D01*
X153667219Y-95376420D01*
X153736655Y-95377393D01*
X153741932Y-95376420D01*
X159280679Y-95376420D01*
X159840000Y-95935742D01*
X159840000Y-96891821D01*
X159653368Y-97016525D01*
X159446525Y-97223368D01*
X159330000Y-97397760D01*
X159213475Y-97223368D01*
X159006632Y-97016525D01*
X158763411Y-96854010D01*
X158493158Y-96742068D01*
X158206260Y-96685000D01*
X157913740Y-96685000D01*
X157626842Y-96742068D01*
X157356589Y-96854010D01*
X157113368Y-97016525D01*
X156906525Y-97223368D01*
X156784805Y-97405534D01*
X156715178Y-97288645D01*
X156520269Y-97072412D01*
X156286920Y-96898359D01*
X156024099Y-96773175D01*
X155876890Y-96728524D01*
X155647000Y-96849845D01*
X155647000Y-98043000D01*
X155667000Y-98043000D01*
X155667000Y-98297000D01*
X155647000Y-98297000D01*
X155647000Y-99490155D01*
X155876890Y-99611476D01*
X156024099Y-99566825D01*
X156286920Y-99441641D01*
X156520269Y-99267588D01*
X156715178Y-99051355D01*
X156784805Y-98934466D01*
X156906525Y-99116632D01*
X157113368Y-99323475D01*
X157356589Y-99485990D01*
X157626842Y-99597932D01*
X157913740Y-99655000D01*
X158206260Y-99655000D01*
X158493158Y-99597932D01*
X158763411Y-99485990D01*
X159006632Y-99323475D01*
X159213475Y-99116632D01*
X159330000Y-98942240D01*
X159446525Y-99116632D01*
X159653368Y-99323475D01*
X159896589Y-99485990D01*
X160166842Y-99597932D01*
X160453740Y-99655000D01*
X160746260Y-99655000D01*
X161033158Y-99597932D01*
X161303411Y-99485990D01*
X161546632Y-99323475D01*
X161753475Y-99116632D01*
X161870000Y-98942240D01*
X161986525Y-99116632D01*
X162193368Y-99323475D01*
X162436589Y-99485990D01*
X162706842Y-99597932D01*
X162993740Y-99655000D01*
X163286260Y-99655000D01*
X163573158Y-99597932D01*
X163843411Y-99485990D01*
X164086632Y-99323475D01*
X164293475Y-99116632D01*
X164410000Y-98942240D01*
X164526525Y-99116632D01*
X164733368Y-99323475D01*
X164976589Y-99485990D01*
X165246842Y-99597932D01*
X165533740Y-99655000D01*
X165826260Y-99655000D01*
X166113158Y-99597932D01*
X166383411Y-99485990D01*
X166626632Y-99323475D01*
X166833475Y-99116632D01*
X166950000Y-98942240D01*
X167066525Y-99116632D01*
X167273368Y-99323475D01*
X167516589Y-99485990D01*
X167786842Y-99597932D01*
X168073740Y-99655000D01*
X168366260Y-99655000D01*
X168653158Y-99597932D01*
X168923411Y-99485990D01*
X169166632Y-99323475D01*
X169373475Y-99116632D01*
X169535990Y-98873411D01*
X169647932Y-98603158D01*
X169705000Y-98316260D01*
X169705000Y-98023740D01*
X169647932Y-97736842D01*
X169535990Y-97466589D01*
X169373475Y-97223368D01*
X169166632Y-97016525D01*
X168923411Y-96854010D01*
X168653158Y-96742068D01*
X168366260Y-96685000D01*
X168073740Y-96685000D01*
X167786842Y-96742068D01*
X167516589Y-96854010D01*
X167273368Y-97016525D01*
X167066525Y-97223368D01*
X166950000Y-97397760D01*
X166833475Y-97223368D01*
X166626632Y-97016525D01*
X166383411Y-96854010D01*
X166113158Y-96742068D01*
X165826260Y-96685000D01*
X165533740Y-96685000D01*
X165246842Y-96742068D01*
X164976589Y-96854010D01*
X164733368Y-97016525D01*
X164526525Y-97223368D01*
X164410000Y-97397760D01*
X164293475Y-97223368D01*
X164086632Y-97016525D01*
X163843411Y-96854010D01*
X163573158Y-96742068D01*
X163286260Y-96685000D01*
X162993740Y-96685000D01*
X162706842Y-96742068D01*
X162436589Y-96854010D01*
X162193368Y-97016525D01*
X161986525Y-97223368D01*
X161870000Y-97397760D01*
X161753475Y-97223368D01*
X161546632Y-97016525D01*
X161360000Y-96891822D01*
X161360000Y-95658263D01*
X161363676Y-95620940D01*
X161360000Y-95583617D01*
X161360000Y-95583607D01*
X161349003Y-95471954D01*
X161305546Y-95328693D01*
X161234974Y-95196664D01*
X161140001Y-95080939D01*
X161111004Y-95057142D01*
X160159284Y-94105422D01*
X160135481Y-94076419D01*
X160019756Y-93981446D01*
X159887727Y-93910874D01*
X159744466Y-93867417D01*
X159632813Y-93856420D01*
X159632802Y-93856420D01*
X159595480Y-93852744D01*
X159558158Y-93856420D01*
X154120664Y-93856420D01*
X154105953Y-93795898D01*
X154092548Y-93733122D01*
X154073484Y-93688864D01*
X154068905Y-93675777D01*
X154056213Y-93629282D01*
X154027552Y-93571843D01*
X154000513Y-93513621D01*
X153972078Y-93474714D01*
X153964695Y-93462963D01*
X153941982Y-93420471D01*
X153901253Y-93370842D01*
X153861940Y-93320102D01*
X153825565Y-93288501D01*
X153815752Y-93278689D01*
X153784151Y-93242313D01*
X153781166Y-93240000D01*
X154116289Y-93240000D01*
X154160226Y-93283937D01*
X154329744Y-93397205D01*
X154518102Y-93475226D01*
X154718061Y-93515000D01*
X154921939Y-93515000D01*
X155121898Y-93475226D01*
X155310256Y-93397205D01*
X155479774Y-93283937D01*
X155623937Y-93139774D01*
X155737205Y-92970256D01*
X155815226Y-92781898D01*
X155855000Y-92581939D01*
X155855000Y-92378061D01*
X155815226Y-92178102D01*
X155737205Y-91989744D01*
X155623937Y-91820226D01*
X155479774Y-91676063D01*
X155310256Y-91562795D01*
X155121898Y-91484774D01*
X154921939Y-91445000D01*
X154718061Y-91445000D01*
X154518102Y-91484774D01*
X154329744Y-91562795D01*
X154160226Y-91676063D01*
X154116289Y-91720000D01*
X138957325Y-91720000D01*
X138920000Y-91716324D01*
X138882675Y-91720000D01*
X138882667Y-91720000D01*
X138771014Y-91730997D01*
X138627753Y-91774454D01*
X138495724Y-91845026D01*
X138379999Y-91939999D01*
X138356201Y-91968997D01*
X136068998Y-94256201D01*
X136040000Y-94279999D01*
X136016202Y-94308997D01*
X136016201Y-94308998D01*
X135945026Y-94395724D01*
X135874454Y-94527754D01*
X135845133Y-94624417D01*
X135830998Y-94671014D01*
X135820910Y-94773436D01*
X135816324Y-94820000D01*
X135820001Y-94857332D01*
X135820000Y-96821821D01*
X135633368Y-96946525D01*
X135426525Y-97153368D01*
X135304805Y-97335534D01*
X135235178Y-97218645D01*
X135040269Y-97002412D01*
X134806920Y-96828359D01*
X134544099Y-96703175D01*
X134396890Y-96658524D01*
X134167000Y-96779845D01*
X134167000Y-97973000D01*
X134187000Y-97973000D01*
X134187000Y-98227000D01*
X134167000Y-98227000D01*
X134167000Y-99420155D01*
X134396890Y-99541476D01*
X134544099Y-99496825D01*
X134806920Y-99371641D01*
X135040269Y-99197588D01*
X135235178Y-98981355D01*
X135304805Y-98864466D01*
X135426525Y-99046632D01*
X135633368Y-99253475D01*
X135820001Y-99378179D01*
X135820001Y-100532668D01*
X135816324Y-100570000D01*
X135820001Y-100607333D01*
X135830998Y-100718986D01*
X135840649Y-100750801D01*
X135874454Y-100862246D01*
X135945026Y-100994276D01*
X136004132Y-101066296D01*
X136040000Y-101110001D01*
X136068998Y-101133799D01*
X136460000Y-101524802D01*
X136460001Y-114565054D01*
X136164458Y-114367579D01*
X135728596Y-114187039D01*
X135265887Y-114095000D01*
X134794113Y-114095000D01*
X134331404Y-114187039D01*
X133895542Y-114367579D01*
X133503277Y-114629682D01*
X133169682Y-114963277D01*
X132907579Y-115355542D01*
X132727039Y-115791404D01*
X132635000Y-116254113D01*
X125122437Y-116254113D01*
X125119861Y-108813061D01*
X130295000Y-108813061D01*
X130295000Y-109016939D01*
X130334774Y-109216898D01*
X130412795Y-109405256D01*
X130526063Y-109574774D01*
X130670226Y-109718937D01*
X130839744Y-109832205D01*
X131028102Y-109910226D01*
X131228061Y-109950000D01*
X131431939Y-109950000D01*
X131631898Y-109910226D01*
X131820256Y-109832205D01*
X131989774Y-109718937D01*
X132133937Y-109574774D01*
X132247205Y-109405256D01*
X132325226Y-109216898D01*
X132365000Y-109016939D01*
X132365000Y-108813061D01*
X132325226Y-108613102D01*
X132247205Y-108424744D01*
X132133937Y-108255226D01*
X131989774Y-108111063D01*
X131820256Y-107997795D01*
X131631898Y-107919774D01*
X131431939Y-107880000D01*
X131228061Y-107880000D01*
X131028102Y-107919774D01*
X130839744Y-107997795D01*
X130670226Y-108111063D01*
X130526063Y-108255226D01*
X130412795Y-108424744D01*
X130334774Y-108613102D01*
X130295000Y-108813061D01*
X125119861Y-108813061D01*
X125115858Y-97250000D01*
X127471928Y-97250000D01*
X127471928Y-98950000D01*
X127484188Y-99074482D01*
X127520498Y-99194180D01*
X127579463Y-99304494D01*
X127658815Y-99401185D01*
X127755506Y-99480537D01*
X127865820Y-99539502D01*
X127985518Y-99575812D01*
X128110000Y-99588072D01*
X129810000Y-99588072D01*
X129934482Y-99575812D01*
X130054180Y-99539502D01*
X130164494Y-99480537D01*
X130261185Y-99401185D01*
X130340537Y-99304494D01*
X130399502Y-99194180D01*
X130421513Y-99121620D01*
X130553368Y-99253475D01*
X130796589Y-99415990D01*
X131066842Y-99527932D01*
X131353740Y-99585000D01*
X131646260Y-99585000D01*
X131933158Y-99527932D01*
X132203411Y-99415990D01*
X132446632Y-99253475D01*
X132653475Y-99046632D01*
X132775195Y-98864466D01*
X132844822Y-98981355D01*
X133039731Y-99197588D01*
X133273080Y-99371641D01*
X133535901Y-99496825D01*
X133683110Y-99541476D01*
X133913000Y-99420155D01*
X133913000Y-98227000D01*
X133893000Y-98227000D01*
X133893000Y-97973000D01*
X133913000Y-97973000D01*
X133913000Y-96779845D01*
X133683110Y-96658524D01*
X133535901Y-96703175D01*
X133273080Y-96828359D01*
X133039731Y-97002412D01*
X132844822Y-97218645D01*
X132775195Y-97335534D01*
X132653475Y-97153368D01*
X132446632Y-96946525D01*
X132203411Y-96784010D01*
X131933158Y-96672068D01*
X131646260Y-96615000D01*
X131353740Y-96615000D01*
X131066842Y-96672068D01*
X130796589Y-96784010D01*
X130553368Y-96946525D01*
X130421513Y-97078380D01*
X130399502Y-97005820D01*
X130340537Y-96895506D01*
X130261185Y-96798815D01*
X130164494Y-96719463D01*
X130054180Y-96660498D01*
X129934482Y-96624188D01*
X129845000Y-96615375D01*
X129845000Y-92646578D01*
X134066579Y-88425000D01*
X149649156Y-88425000D01*
X149684606Y-88460450D01*
X149878692Y-88590134D01*
X150094348Y-88679461D01*
X150323288Y-88725000D01*
X150556712Y-88725000D01*
X150785652Y-88679461D01*
X151001308Y-88590134D01*
X151195394Y-88460450D01*
X151230844Y-88425000D01*
X168099154Y-88425000D01*
X168134604Y-88460450D01*
X168328690Y-88590134D01*
X168544346Y-88679461D01*
X168773286Y-88725000D01*
X169006710Y-88725000D01*
X169235650Y-88679461D01*
X169451306Y-88590134D01*
X169645392Y-88460450D01*
X169810448Y-88295394D01*
X169940132Y-88101308D01*
X170029459Y-87885652D01*
X170074998Y-87656712D01*
X170074998Y-87423288D01*
X170029459Y-87194348D01*
X169940132Y-86978692D01*
X169810448Y-86784606D01*
X169645392Y-86619550D01*
X169451306Y-86489866D01*
X169235650Y-86400539D01*
X169006710Y-86355000D01*
X168773286Y-86355000D01*
X168544346Y-86400539D01*
X168328690Y-86489866D01*
X168134604Y-86619550D01*
X168099154Y-86655000D01*
X151230844Y-86655000D01*
X151195394Y-86619550D01*
X151001308Y-86489866D01*
X150785652Y-86400539D01*
X150556712Y-86355000D01*
X150323288Y-86355000D01*
X150094348Y-86400539D01*
X149878692Y-86489866D01*
X149684606Y-86619550D01*
X149649156Y-86655000D01*
X133743465Y-86655000D01*
X133699999Y-86650719D01*
X133656533Y-86655000D01*
X133656523Y-86655000D01*
X133526510Y-86667805D01*
X133359687Y-86718411D01*
X133205941Y-86800589D01*
X133205939Y-86800590D01*
X133205940Y-86800590D01*
X133104953Y-86883468D01*
X133104951Y-86883470D01*
X133071183Y-86911183D01*
X133043470Y-86944951D01*
X128364952Y-91623470D01*
X128331184Y-91651183D01*
X128303471Y-91684951D01*
X128303468Y-91684954D01*
X128220590Y-91785941D01*
X128138412Y-91939687D01*
X128087805Y-92106510D01*
X128070719Y-92280000D01*
X128075001Y-92323479D01*
X128075000Y-96615375D01*
X127985518Y-96624188D01*
X127865820Y-96660498D01*
X127755506Y-96719463D01*
X127658815Y-96798815D01*
X127579463Y-96895506D01*
X127520498Y-97005820D01*
X127484188Y-97125518D01*
X127471928Y-97250000D01*
X125115858Y-97250000D01*
X125110874Y-82855062D01*
X126040460Y-82855062D01*
X126108084Y-83048308D01*
X126220664Y-83224731D01*
X126365499Y-83375801D01*
X126537023Y-83495712D01*
X126728645Y-83579856D01*
X126933000Y-83625000D01*
X127433000Y-83625000D01*
X127433000Y-82692000D01*
X127687000Y-82692000D01*
X127687000Y-83625000D01*
X128187000Y-83625000D01*
X128391355Y-83579856D01*
X128582977Y-83495712D01*
X128754501Y-83375801D01*
X128899336Y-83224731D01*
X129011916Y-83048308D01*
X129079540Y-82855062D01*
X128952257Y-82692000D01*
X127687000Y-82692000D01*
X127433000Y-82692000D01*
X126167743Y-82692000D01*
X126040460Y-82855062D01*
X125110874Y-82855062D01*
X125110674Y-82274938D01*
X126040460Y-82274938D01*
X126167743Y-82438000D01*
X127433000Y-82438000D01*
X127433000Y-81505000D01*
X127687000Y-81505000D01*
X127687000Y-82438000D01*
X128952257Y-82438000D01*
X129079540Y-82274938D01*
X129011916Y-82081692D01*
X128899336Y-81905269D01*
X128754501Y-81754199D01*
X128582977Y-81634288D01*
X128391355Y-81550144D01*
X128187000Y-81505000D01*
X127687000Y-81505000D01*
X127433000Y-81505000D01*
X126933000Y-81505000D01*
X126728645Y-81550144D01*
X126537023Y-81634288D01*
X126365499Y-81754199D01*
X126220664Y-81905269D01*
X126108084Y-82081692D01*
X126040460Y-82274938D01*
X125110674Y-82274938D01*
X125110237Y-81010798D01*
X127238807Y-81010798D01*
X127264119Y-81216115D01*
X127454708Y-81298963D01*
X127657796Y-81343038D01*
X127865582Y-81346645D01*
X128070079Y-81309646D01*
X128263428Y-81233462D01*
X128295881Y-81216115D01*
X128321193Y-81010798D01*
X127780000Y-80469605D01*
X127238807Y-81010798D01*
X125110237Y-81010798D01*
X125109275Y-78236092D01*
X125725000Y-78236092D01*
X125725000Y-78443908D01*
X125765543Y-78647732D01*
X125845071Y-78839730D01*
X125945479Y-78990000D01*
X125845071Y-79140270D01*
X125765543Y-79332268D01*
X125725000Y-79536092D01*
X125725000Y-79743908D01*
X125765543Y-79947732D01*
X125845071Y-80139730D01*
X125960528Y-80312523D01*
X126107477Y-80459472D01*
X126280270Y-80574929D01*
X126472268Y-80654457D01*
X126676092Y-80695000D01*
X126805636Y-80695000D01*
X126836538Y-80773428D01*
X126853885Y-80805881D01*
X127059202Y-80831193D01*
X127387427Y-80502968D01*
X127452523Y-80459472D01*
X127599472Y-80312523D01*
X127699925Y-80162185D01*
X127765858Y-80096253D01*
X127780000Y-80110395D01*
X127794143Y-80096253D01*
X127973748Y-80275858D01*
X127959605Y-80290000D01*
X128500798Y-80831193D01*
X128706115Y-80805881D01*
X128788963Y-80615292D01*
X128833038Y-80412204D01*
X128836645Y-80204418D01*
X128799646Y-79999921D01*
X128723462Y-79806572D01*
X128706115Y-79774119D01*
X128511828Y-79750167D01*
X128599472Y-79662523D01*
X128714929Y-79489730D01*
X128794457Y-79297732D01*
X128835000Y-79093908D01*
X128835000Y-78886092D01*
X128794457Y-78682268D01*
X128714929Y-78490270D01*
X128712440Y-78486545D01*
X128730537Y-78464494D01*
X128789502Y-78354180D01*
X128825812Y-78234482D01*
X128838072Y-78110000D01*
X128838072Y-77270000D01*
X128825812Y-77145518D01*
X128789502Y-77025820D01*
X128730537Y-76915506D01*
X128651185Y-76818815D01*
X128554494Y-76739463D01*
X128444180Y-76680498D01*
X128324482Y-76644188D01*
X128200000Y-76631928D01*
X127360000Y-76631928D01*
X127235518Y-76644188D01*
X127115820Y-76680498D01*
X127005506Y-76739463D01*
X126908815Y-76818815D01*
X126829463Y-76915506D01*
X126770498Y-77025820D01*
X126734188Y-77145518D01*
X126721928Y-77270000D01*
X126721928Y-77285000D01*
X126676092Y-77285000D01*
X126472268Y-77325543D01*
X126280270Y-77405071D01*
X126107477Y-77520528D01*
X125960528Y-77667477D01*
X125845071Y-77840270D01*
X125765543Y-78032268D01*
X125725000Y-78236092D01*
X125109275Y-78236092D01*
X125108399Y-75705062D01*
X126040460Y-75705062D01*
X126108084Y-75898308D01*
X126220664Y-76074731D01*
X126365499Y-76225801D01*
X126537023Y-76345712D01*
X126728645Y-76429856D01*
X126933000Y-76475000D01*
X127433000Y-76475000D01*
X127433000Y-75542000D01*
X127687000Y-75542000D01*
X127687000Y-76475000D01*
X128187000Y-76475000D01*
X128391355Y-76429856D01*
X128582977Y-76345712D01*
X128754501Y-76225801D01*
X128899336Y-76074731D01*
X129011916Y-75898308D01*
X129079540Y-75705062D01*
X128952257Y-75542000D01*
X127687000Y-75542000D01*
X127433000Y-75542000D01*
X126167743Y-75542000D01*
X126040460Y-75705062D01*
X125108399Y-75705062D01*
X125108199Y-75124938D01*
X126040460Y-75124938D01*
X126167743Y-75288000D01*
X127433000Y-75288000D01*
X127433000Y-74355000D01*
X127687000Y-74355000D01*
X127687000Y-75288000D01*
X128952257Y-75288000D01*
X129079540Y-75124938D01*
X129011916Y-74931692D01*
X128899336Y-74755269D01*
X128754501Y-74604199D01*
X128582977Y-74484288D01*
X128391355Y-74400144D01*
X128187000Y-74355000D01*
X127687000Y-74355000D01*
X127433000Y-74355000D01*
X126933000Y-74355000D01*
X126728645Y-74400144D01*
X126537023Y-74484288D01*
X126365499Y-74604199D01*
X126220664Y-74755269D01*
X126108084Y-74931692D01*
X126040460Y-75124938D01*
X125108199Y-75124938D01*
X125107145Y-72084335D01*
X125395000Y-72084335D01*
X125395000Y-72755664D01*
X125412870Y-72937101D01*
X125483489Y-73169900D01*
X125598167Y-73384448D01*
X125752498Y-73572502D01*
X125940551Y-73726833D01*
X126155099Y-73841511D01*
X126387898Y-73912130D01*
X126630000Y-73935975D01*
X126872101Y-73912130D01*
X127104900Y-73841511D01*
X127319448Y-73726833D01*
X127473309Y-73600564D01*
X127499463Y-73649494D01*
X127578815Y-73746185D01*
X127675506Y-73825537D01*
X127785820Y-73884502D01*
X127905518Y-73920812D01*
X128030000Y-73933072D01*
X128344250Y-73930000D01*
X128503000Y-73771250D01*
X128503000Y-72547000D01*
X128757000Y-72547000D01*
X128757000Y-73771250D01*
X128915750Y-73930000D01*
X129230000Y-73933072D01*
X129354482Y-73920812D01*
X129474180Y-73884502D01*
X129584494Y-73825537D01*
X129681185Y-73746185D01*
X129760537Y-73649494D01*
X129819502Y-73539180D01*
X129842523Y-73463288D01*
X138364999Y-73463288D01*
X138364999Y-73696712D01*
X138410538Y-73925652D01*
X138499865Y-74141308D01*
X138629549Y-74335394D01*
X138685001Y-74390846D01*
X138685000Y-77979156D01*
X138649550Y-78014606D01*
X138519866Y-78208692D01*
X138430539Y-78424348D01*
X138385000Y-78653288D01*
X138385000Y-78886712D01*
X138430539Y-79115652D01*
X138519866Y-79331308D01*
X138649550Y-79525394D01*
X138814606Y-79690450D01*
X139008692Y-79820134D01*
X139224348Y-79909461D01*
X139453288Y-79955000D01*
X139686712Y-79955000D01*
X139915652Y-79909461D01*
X140131308Y-79820134D01*
X140325394Y-79690450D01*
X140490450Y-79525394D01*
X140620134Y-79331308D01*
X140709461Y-79115652D01*
X140755000Y-78886712D01*
X140755000Y-78653288D01*
X140709461Y-78424348D01*
X140620134Y-78208692D01*
X140490450Y-78014606D01*
X140455000Y-77979156D01*
X140455000Y-74350843D01*
X140470449Y-74335394D01*
X140600133Y-74141308D01*
X140689460Y-73925652D01*
X140734999Y-73696712D01*
X140734999Y-73463288D01*
X140689460Y-73234348D01*
X140600133Y-73018692D01*
X140470449Y-72824606D01*
X140305393Y-72659550D01*
X140111307Y-72529866D01*
X139895651Y-72440539D01*
X139666711Y-72395000D01*
X139433287Y-72395000D01*
X139204347Y-72440539D01*
X138988691Y-72529866D01*
X138794605Y-72659550D01*
X138629549Y-72824606D01*
X138499865Y-73018692D01*
X138410538Y-73234348D01*
X138364999Y-73463288D01*
X129842523Y-73463288D01*
X129855812Y-73419482D01*
X129868072Y-73295000D01*
X129865000Y-72705750D01*
X129706250Y-72547000D01*
X128757000Y-72547000D01*
X128503000Y-72547000D01*
X128483000Y-72547000D01*
X128483000Y-72293000D01*
X128503000Y-72293000D01*
X128503000Y-71068750D01*
X128757000Y-71068750D01*
X128757000Y-72293000D01*
X129706250Y-72293000D01*
X129865000Y-72134250D01*
X129868072Y-71545000D01*
X129855812Y-71420518D01*
X129819502Y-71300820D01*
X129760537Y-71190506D01*
X129681185Y-71093815D01*
X129584494Y-71014463D01*
X129474180Y-70955498D01*
X129354482Y-70919188D01*
X129230000Y-70906928D01*
X128915750Y-70910000D01*
X128757000Y-71068750D01*
X128503000Y-71068750D01*
X128344250Y-70910000D01*
X128030000Y-70906928D01*
X127905518Y-70919188D01*
X127785820Y-70955498D01*
X127675506Y-71014463D01*
X127578815Y-71093815D01*
X127499463Y-71190506D01*
X127473309Y-71239436D01*
X127319449Y-71113167D01*
X127104901Y-70998489D01*
X126872102Y-70927870D01*
X126630000Y-70904025D01*
X126387899Y-70927870D01*
X126155100Y-70998489D01*
X125940552Y-71113167D01*
X125752499Y-71267498D01*
X125598168Y-71455551D01*
X125483489Y-71670099D01*
X125412870Y-71902898D01*
X125395000Y-72084335D01*
X125107145Y-72084335D01*
X125105237Y-66575000D01*
X130696353Y-66575000D01*
X130730000Y-66578314D01*
X130864283Y-66565088D01*
X130993406Y-66525919D01*
X131112407Y-66462312D01*
X131216711Y-66376711D01*
X131302312Y-66272407D01*
X131365919Y-66153406D01*
X131405088Y-66024283D01*
X131411014Y-65964113D01*
X132565000Y-65964113D01*
X132565000Y-66435887D01*
X132657039Y-66898596D01*
X132837579Y-67334458D01*
X133099682Y-67726723D01*
X133433277Y-68060318D01*
X133825542Y-68322421D01*
X134261404Y-68502961D01*
X134724113Y-68595000D01*
X135195887Y-68595000D01*
X135658596Y-68502961D01*
X136094458Y-68322421D01*
X136486723Y-68060318D01*
X136820318Y-67726723D01*
X137082421Y-67334458D01*
X137262961Y-66898596D01*
X137355000Y-66435887D01*
X137355000Y-65964113D01*
X137262961Y-65501404D01*
X137247173Y-65463288D01*
X141865000Y-65463288D01*
X141865000Y-65696712D01*
X141910539Y-65925652D01*
X141999866Y-66141308D01*
X142129550Y-66335394D01*
X142165000Y-66370844D01*
X142165001Y-67637921D01*
X142160719Y-67681400D01*
X142177805Y-67854890D01*
X142228412Y-68021713D01*
X142310590Y-68175459D01*
X142393468Y-68276446D01*
X142393471Y-68276449D01*
X142421184Y-68310217D01*
X142454951Y-68337929D01*
X143628082Y-69511061D01*
X143655795Y-69544829D01*
X143689563Y-69572542D01*
X143689565Y-69572544D01*
X143715139Y-69593532D01*
X143790553Y-69655423D01*
X143944299Y-69737601D01*
X144111122Y-69788207D01*
X144241135Y-69801012D01*
X144241145Y-69801012D01*
X144284611Y-69805293D01*
X144328078Y-69801012D01*
X146359148Y-69801012D01*
X146394598Y-69836462D01*
X146588684Y-69966146D01*
X146804340Y-70055473D01*
X147033280Y-70101012D01*
X147266704Y-70101012D01*
X147495644Y-70055473D01*
X147711300Y-69966146D01*
X147905386Y-69836462D01*
X148070442Y-69671406D01*
X148200126Y-69477320D01*
X148289453Y-69261664D01*
X148334992Y-69032724D01*
X148334992Y-68853288D01*
X155205000Y-68853288D01*
X155205000Y-69086712D01*
X155250539Y-69315652D01*
X155339866Y-69531308D01*
X155469550Y-69725394D01*
X155634606Y-69890450D01*
X155828692Y-70020134D01*
X156044348Y-70109461D01*
X156273288Y-70155000D01*
X156506712Y-70155000D01*
X156735652Y-70109461D01*
X156951308Y-70020134D01*
X157145394Y-69890450D01*
X157213844Y-69822000D01*
X159166156Y-69822000D01*
X159264606Y-69920450D01*
X159458692Y-70050134D01*
X159674348Y-70139461D01*
X159903288Y-70185000D01*
X160136712Y-70185000D01*
X160365652Y-70139461D01*
X160581308Y-70050134D01*
X160775394Y-69920450D01*
X160940450Y-69755394D01*
X161070134Y-69561308D01*
X161159461Y-69345652D01*
X161205000Y-69116712D01*
X161205000Y-68883288D01*
X161159461Y-68654348D01*
X161070134Y-68438692D01*
X160940450Y-68244606D01*
X160775394Y-68079550D01*
X160581308Y-67949866D01*
X160365652Y-67860539D01*
X160136712Y-67815000D01*
X159903288Y-67815000D01*
X159674348Y-67860539D01*
X159458692Y-67949866D01*
X159305838Y-68052000D01*
X157147844Y-68052000D01*
X157145394Y-68049550D01*
X156951308Y-67919866D01*
X156735652Y-67830539D01*
X156506712Y-67785000D01*
X156273288Y-67785000D01*
X156044348Y-67830539D01*
X155828692Y-67919866D01*
X155634606Y-68049550D01*
X155469550Y-68214606D01*
X155339866Y-68408692D01*
X155250539Y-68624348D01*
X155205000Y-68853288D01*
X148334992Y-68853288D01*
X148334992Y-68799300D01*
X148289453Y-68570360D01*
X148200126Y-68354704D01*
X148070442Y-68160618D01*
X147905386Y-67995562D01*
X147711300Y-67865878D01*
X147495644Y-67776551D01*
X147266704Y-67731012D01*
X147033280Y-67731012D01*
X146804340Y-67776551D01*
X146588684Y-67865878D01*
X146394598Y-67995562D01*
X146359148Y-68031012D01*
X144651191Y-68031012D01*
X143935000Y-67314822D01*
X143935000Y-66370844D01*
X143970450Y-66335394D01*
X144100134Y-66141308D01*
X144189461Y-65925652D01*
X144195734Y-65894113D01*
X162045000Y-65894113D01*
X162045000Y-66365887D01*
X162137039Y-66828596D01*
X162317579Y-67264458D01*
X162579682Y-67656723D01*
X162913277Y-67990318D01*
X163305542Y-68252421D01*
X163741404Y-68432961D01*
X164204113Y-68525000D01*
X164675887Y-68525000D01*
X165138596Y-68432961D01*
X165574458Y-68252421D01*
X165966723Y-67990318D01*
X166300318Y-67656723D01*
X166562421Y-67264458D01*
X166742961Y-66828596D01*
X166835000Y-66365887D01*
X166835000Y-65894113D01*
X166742961Y-65431404D01*
X166562421Y-64995542D01*
X166300318Y-64603277D01*
X165966723Y-64269682D01*
X165574458Y-64007579D01*
X165138596Y-63827039D01*
X164675887Y-63735000D01*
X164204113Y-63735000D01*
X163741404Y-63827039D01*
X163305542Y-64007579D01*
X162913277Y-64269682D01*
X162579682Y-64603277D01*
X162317579Y-64995542D01*
X162137039Y-65431404D01*
X162045000Y-65894113D01*
X144195734Y-65894113D01*
X144235000Y-65696712D01*
X144235000Y-65463288D01*
X144189461Y-65234348D01*
X144100134Y-65018692D01*
X143970450Y-64824606D01*
X143805394Y-64659550D01*
X143611308Y-64529866D01*
X143395652Y-64440539D01*
X143166712Y-64395000D01*
X142933288Y-64395000D01*
X142704348Y-64440539D01*
X142488692Y-64529866D01*
X142294606Y-64659550D01*
X142129550Y-64824606D01*
X141999866Y-65018692D01*
X141910539Y-65234348D01*
X141865000Y-65463288D01*
X137247173Y-65463288D01*
X137082421Y-65065542D01*
X136820318Y-64673277D01*
X136486723Y-64339682D01*
X136094458Y-64077579D01*
X135658596Y-63897039D01*
X135195887Y-63805000D01*
X134724113Y-63805000D01*
X134261404Y-63897039D01*
X133825542Y-64077579D01*
X133433277Y-64339682D01*
X133099682Y-64673277D01*
X132837579Y-65065542D01*
X132657039Y-65501404D01*
X132565000Y-65964113D01*
X131411014Y-65964113D01*
X131415000Y-65923647D01*
X131418314Y-65890000D01*
X131415000Y-65856353D01*
X131415000Y-63158061D01*
X141995000Y-63158061D01*
X141995000Y-63361939D01*
X142034774Y-63561898D01*
X142112795Y-63750256D01*
X142226063Y-63919774D01*
X142370226Y-64063937D01*
X142539744Y-64177205D01*
X142728102Y-64255226D01*
X142928061Y-64295000D01*
X143131939Y-64295000D01*
X143331898Y-64255226D01*
X143520256Y-64177205D01*
X143689774Y-64063937D01*
X143733711Y-64020000D01*
X146786289Y-64020000D01*
X146830226Y-64063937D01*
X146999744Y-64177205D01*
X147188102Y-64255226D01*
X147388061Y-64295000D01*
X147591939Y-64295000D01*
X147791898Y-64255226D01*
X147980256Y-64177205D01*
X148149774Y-64063937D01*
X148293937Y-63919774D01*
X148407205Y-63750256D01*
X148485226Y-63561898D01*
X148525000Y-63361939D01*
X148525000Y-63158061D01*
X148485226Y-62958102D01*
X148407205Y-62769744D01*
X148293937Y-62600226D01*
X148149774Y-62456063D01*
X147980256Y-62342795D01*
X147791898Y-62264774D01*
X147591939Y-62225000D01*
X147388061Y-62225000D01*
X147188102Y-62264774D01*
X146999744Y-62342795D01*
X146830226Y-62456063D01*
X146786289Y-62500000D01*
X143733711Y-62500000D01*
X143689774Y-62456063D01*
X143520256Y-62342795D01*
X143331898Y-62264774D01*
X143131939Y-62225000D01*
X142928061Y-62225000D01*
X142728102Y-62264774D01*
X142539744Y-62342795D01*
X142370226Y-62456063D01*
X142226063Y-62600226D01*
X142112795Y-62769744D01*
X142034774Y-62958102D01*
X141995000Y-63158061D01*
X131415000Y-63158061D01*
X131415000Y-59655000D01*
X132417217Y-59655000D01*
X132451718Y-59658311D01*
X132517684Y-59651648D01*
X132584283Y-59645088D01*
X132585112Y-59644836D01*
X132585968Y-59644750D01*
X132649426Y-59625327D01*
X132713406Y-59605919D01*
X132714170Y-59605511D01*
X132714992Y-59605259D01*
X132773398Y-59573853D01*
X132832407Y-59542312D01*
X132833077Y-59541762D01*
X132833834Y-59541355D01*
X132884997Y-59499152D01*
X132936711Y-59456711D01*
X132937261Y-59456041D01*
X132937924Y-59455494D01*
X132979891Y-59404096D01*
X133022312Y-59352407D01*
X133022720Y-59351643D01*
X133023265Y-59350976D01*
X133054405Y-59292365D01*
X133085919Y-59233406D01*
X133086171Y-59232576D01*
X133086574Y-59231817D01*
X133105696Y-59168211D01*
X133125088Y-59104283D01*
X133125173Y-59103423D01*
X133125421Y-59102597D01*
X133131759Y-59036556D01*
X133138314Y-58970000D01*
X133134915Y-58935491D01*
X133123825Y-54493740D01*
X152965000Y-54493740D01*
X152965000Y-54786260D01*
X153022068Y-55073158D01*
X153134010Y-55343411D01*
X153296525Y-55586632D01*
X153503368Y-55793475D01*
X153746589Y-55955990D01*
X154016842Y-56067932D01*
X154303740Y-56125000D01*
X154596260Y-56125000D01*
X154883158Y-56067932D01*
X155153411Y-55955990D01*
X155396632Y-55793475D01*
X155528487Y-55661620D01*
X155550498Y-55734180D01*
X155609463Y-55844494D01*
X155688815Y-55941185D01*
X155785506Y-56020537D01*
X155895820Y-56079502D01*
X156015518Y-56115812D01*
X156140000Y-56128072D01*
X157840000Y-56128072D01*
X157964482Y-56115812D01*
X158084180Y-56079502D01*
X158194494Y-56020537D01*
X158291185Y-55941185D01*
X158370537Y-55844494D01*
X158429502Y-55734180D01*
X158465812Y-55614482D01*
X158478072Y-55490000D01*
X158478072Y-53790000D01*
X158465812Y-53665518D01*
X158429502Y-53545820D01*
X158370537Y-53435506D01*
X158291185Y-53338815D01*
X158194494Y-53259463D01*
X158084180Y-53200498D01*
X157964482Y-53164188D01*
X157840000Y-53151928D01*
X156140000Y-53151928D01*
X156015518Y-53164188D01*
X155895820Y-53200498D01*
X155785506Y-53259463D01*
X155688815Y-53338815D01*
X155609463Y-53435506D01*
X155550498Y-53545820D01*
X155528487Y-53618380D01*
X155396632Y-53486525D01*
X155153411Y-53324010D01*
X154883158Y-53212068D01*
X154596260Y-53155000D01*
X154303740Y-53155000D01*
X154016842Y-53212068D01*
X153746589Y-53324010D01*
X153503368Y-53486525D01*
X153296525Y-53693368D01*
X153134010Y-53936589D01*
X153022068Y-54206842D01*
X152965000Y-54493740D01*
X133123825Y-54493740D01*
X133116712Y-51645000D01*
X166266709Y-51645000D01*
X166284920Y-58938489D01*
%TA.AperFunction,Conductor*%
D22*
G36*
X166284920Y-58938489D02*
G01*
X166281691Y-58972587D01*
X166288547Y-59039614D01*
X166295250Y-59105968D01*
X166295378Y-59106385D01*
X166295422Y-59106819D01*
X166315097Y-59170812D01*
X166334741Y-59234993D01*
X166334948Y-59235378D01*
X166335076Y-59235794D01*
X166366841Y-59294689D01*
X166398645Y-59353834D01*
X166398923Y-59354171D01*
X166399130Y-59354555D01*
X166441811Y-59406165D01*
X166484506Y-59457924D01*
X166484845Y-59458201D01*
X166485123Y-59458537D01*
X166536972Y-59500763D01*
X166589024Y-59543265D01*
X166589411Y-59543471D01*
X166589748Y-59543745D01*
X166648803Y-59575025D01*
X166708183Y-59606574D01*
X166708602Y-59606700D01*
X166708987Y-59606904D01*
X166773318Y-59626155D01*
X166837404Y-59645421D01*
X166837837Y-59645463D01*
X166838256Y-59645588D01*
X166905032Y-59651911D01*
X166971718Y-59658311D01*
X167005786Y-59654870D01*
X174264895Y-59627580D01*
X174255106Y-122975000D01*
X166963214Y-122975000D01*
X166929140Y-122971687D01*
X166862909Y-122978294D01*
X166795717Y-122984912D01*
X166795300Y-122985039D01*
X166794874Y-122985081D01*
X166731226Y-123004475D01*
X166666594Y-123024081D01*
X166666211Y-123024286D01*
X166665800Y-123024411D01*
X166607094Y-123055884D01*
X166547593Y-123087688D01*
X166547257Y-123087964D01*
X166546878Y-123088167D01*
X166495313Y-123130594D01*
X166443289Y-123173289D01*
X166443014Y-123173624D01*
X166442681Y-123173898D01*
X166400417Y-123225528D01*
X166357688Y-123277593D01*
X166357483Y-123277977D01*
X166357211Y-123278309D01*
X166326008Y-123336863D01*
X166294081Y-123396594D01*
X166293954Y-123397013D01*
X166293753Y-123397390D01*
X166274525Y-123461060D01*
X166254912Y-123525717D01*
X166254869Y-123526149D01*
X166254745Y-123526561D01*
X166248296Y-123592889D01*
X166241686Y-123660000D01*
X166245043Y-123694079D01*
X166246492Y-124853198D01*
X133130590Y-124862800D01*
X133134868Y-123726216D01*
X133138308Y-123692577D01*
X133130662Y-123611848D01*
X133125588Y-123558260D01*
X133125587Y-123558256D01*
X133125586Y-123558247D01*
X133103423Y-123484188D01*
X133086905Y-123428990D01*
X133086902Y-123428984D01*
X133086900Y-123428978D01*
X133053041Y-123365057D01*
X133023747Y-123309751D01*
X133023744Y-123309747D01*
X133023740Y-123309740D01*
X132977752Y-123253275D01*
X132938539Y-123205125D01*
X132938534Y-123205121D01*
X132938530Y-123205116D01*
X132894224Y-123168476D01*
X132834558Y-123119132D01*
X132834551Y-123119128D01*
X132834547Y-123119125D01*
X132752218Y-123074721D01*
X132715797Y-123055078D01*
X132715785Y-123055072D01*
X132625690Y-123027373D01*
X132586823Y-123015423D01*
X132586818Y-123015423D01*
X132586810Y-123015420D01*
X132486212Y-123005131D01*
X132486209Y-123005131D01*
X132452590Y-123001692D01*
X132418933Y-123004879D01*
X125124763Y-122977560D01*
X125122437Y-116254113D01*
X132635000Y-116254113D01*
X132635000Y-116725887D01*
X132727039Y-117188596D01*
X132907579Y-117624458D01*
X133169682Y-118016723D01*
X133503277Y-118350318D01*
X133895542Y-118612421D01*
X134331404Y-118792961D01*
X134794113Y-118885000D01*
X135265887Y-118885000D01*
X135728596Y-118792961D01*
X136164458Y-118612421D01*
X136264564Y-118545532D01*
X136332795Y-118710256D01*
X136446063Y-118879774D01*
X136590226Y-119023937D01*
X136759744Y-119137205D01*
X136948102Y-119215226D01*
X137148061Y-119255000D01*
X137351939Y-119255000D01*
X137551898Y-119215226D01*
X137740256Y-119137205D01*
X137909774Y-119023937D01*
X138053937Y-118879774D01*
X138167205Y-118710256D01*
X138245226Y-118521898D01*
X138285000Y-118321939D01*
X138285000Y-118118061D01*
X138245226Y-117918102D01*
X138167205Y-117729744D01*
X138053937Y-117560226D01*
X137980000Y-117486289D01*
X137980000Y-114055000D01*
X138176949Y-114055000D01*
X138376908Y-114015226D01*
X138565266Y-113937205D01*
X138734784Y-113823937D01*
X138878947Y-113679774D01*
X138992215Y-113510256D01*
X139070236Y-113321898D01*
X139110010Y-113121939D01*
X139110010Y-112918061D01*
X139070236Y-112718102D01*
X138992215Y-112529744D01*
X138878947Y-112360226D01*
X138835010Y-112316289D01*
X138835010Y-102716222D01*
X138868725Y-102726449D01*
X138932617Y-102732742D01*
X138996290Y-102740822D01*
X139044356Y-102737446D01*
X139058243Y-102737446D01*
X139106309Y-102740822D01*
X139169981Y-102732742D01*
X139233875Y-102726449D01*
X139279997Y-102712458D01*
X139293516Y-102709373D01*
X139341134Y-102701967D01*
X139401416Y-102679919D01*
X139462305Y-102659567D01*
X139504152Y-102635667D01*
X139516654Y-102629646D01*
X139561424Y-102611833D01*
X139615286Y-102576927D01*
X139670123Y-102543533D01*
X139705604Y-102510919D01*
X139716446Y-102502272D01*
X139756139Y-102474937D01*
X139800888Y-102428915D01*
X139846910Y-102384166D01*
X139874244Y-102344474D01*
X139882897Y-102333624D01*
X139915507Y-102298146D01*
X139948881Y-102243338D01*
X139983805Y-102189449D01*
X140001623Y-102144666D01*
X140007635Y-102132182D01*
X140031533Y-102090338D01*
X140051886Y-102029447D01*
X140073936Y-101969156D01*
X140081340Y-101921543D01*
X140084423Y-101908036D01*
X140094689Y-101874195D01*
X140128524Y-101863931D01*
X140142043Y-101860846D01*
X140189661Y-101853440D01*
X140249943Y-101831392D01*
X140310832Y-101811040D01*
X140352679Y-101787140D01*
X140365181Y-101781119D01*
X140409951Y-101763306D01*
X140463813Y-101728400D01*
X140518650Y-101695006D01*
X140554131Y-101662392D01*
X140564973Y-101653745D01*
X140604666Y-101626410D01*
X140649415Y-101580388D01*
X140695437Y-101535639D01*
X140722771Y-101495947D01*
X140731424Y-101485097D01*
X140764034Y-101449619D01*
X140797408Y-101394811D01*
X140832332Y-101340922D01*
X140850150Y-101296139D01*
X140856162Y-101283655D01*
X140880060Y-101241811D01*
X140900413Y-101180920D01*
X140922463Y-101120629D01*
X140929867Y-101073016D01*
X140932950Y-101059509D01*
X140946943Y-101013380D01*
X140953237Y-100949478D01*
X140961316Y-100885818D01*
X140957940Y-100837747D01*
X140957940Y-100823862D01*
X140961316Y-100775791D01*
X140953236Y-100712127D01*
X140946943Y-100648230D01*
X140932951Y-100602104D01*
X140929867Y-100588593D01*
X140922463Y-100540980D01*
X140900413Y-100480689D01*
X140880060Y-100419798D01*
X140856162Y-100377954D01*
X140850150Y-100365470D01*
X140844218Y-100350561D01*
X141609779Y-99585000D01*
X141806260Y-99585000D01*
X142093158Y-99527932D01*
X142363411Y-99415990D01*
X142606632Y-99253475D01*
X142813475Y-99046632D01*
X142930000Y-98872240D01*
X143046525Y-99046632D01*
X143253368Y-99253475D01*
X143496589Y-99415990D01*
X143766842Y-99527932D01*
X144053740Y-99585000D01*
X144346260Y-99585000D01*
X144633158Y-99527932D01*
X144903411Y-99415990D01*
X145146632Y-99253475D01*
X145353475Y-99046632D01*
X145515990Y-98803411D01*
X145561013Y-98694716D01*
X145574774Y-98763898D01*
X145652795Y-98952256D01*
X145766063Y-99121774D01*
X145810001Y-99165712D01*
X145810000Y-113605198D01*
X142600199Y-116815000D01*
X142538061Y-116815000D01*
X142338102Y-116854774D01*
X142149744Y-116932795D01*
X141980226Y-117046063D01*
X141836063Y-117190226D01*
X141722795Y-117359744D01*
X141644774Y-117548102D01*
X141605000Y-117748061D01*
X141605000Y-117951939D01*
X141644774Y-118151898D01*
X141722795Y-118340256D01*
X141836063Y-118509774D01*
X141980226Y-118653937D01*
X142149744Y-118767205D01*
X142338102Y-118845226D01*
X142538061Y-118885000D01*
X142741939Y-118885000D01*
X142941898Y-118845226D01*
X143130256Y-118767205D01*
X143299774Y-118653937D01*
X143443937Y-118509774D01*
X143557205Y-118340256D01*
X143635226Y-118151898D01*
X143675000Y-117951939D01*
X143675000Y-117889801D01*
X145460570Y-116104232D01*
X145519063Y-116191774D01*
X145663226Y-116335937D01*
X145832744Y-116449205D01*
X146021102Y-116527226D01*
X146221061Y-116567000D01*
X146424939Y-116567000D01*
X146624898Y-116527226D01*
X146813256Y-116449205D01*
X146982774Y-116335937D01*
X147094598Y-116224113D01*
X161985000Y-116224113D01*
X161985000Y-116695887D01*
X162077039Y-117158596D01*
X162257579Y-117594458D01*
X162519682Y-117986723D01*
X162853277Y-118320318D01*
X163245542Y-118582421D01*
X163681404Y-118762961D01*
X164144113Y-118855000D01*
X164615887Y-118855000D01*
X165078596Y-118762961D01*
X165514458Y-118582421D01*
X165906723Y-118320318D01*
X166240318Y-117986723D01*
X166502421Y-117594458D01*
X166682961Y-117158596D01*
X166775000Y-116695887D01*
X166775000Y-116224113D01*
X166682961Y-115761404D01*
X166502421Y-115325542D01*
X166240318Y-114933277D01*
X165906723Y-114599682D01*
X165514458Y-114337579D01*
X165078596Y-114157039D01*
X164615887Y-114065000D01*
X164144113Y-114065000D01*
X163681404Y-114157039D01*
X163245542Y-114337579D01*
X162853277Y-114599682D01*
X162519682Y-114933277D01*
X162257579Y-115325542D01*
X162077039Y-115761404D01*
X161985000Y-116224113D01*
X147094598Y-116224113D01*
X147126937Y-116191774D01*
X147240205Y-116022256D01*
X147318226Y-115833898D01*
X147358000Y-115633939D01*
X147358000Y-115571801D01*
X148431004Y-114498798D01*
X148460001Y-114475001D01*
X148496109Y-114431003D01*
X148554974Y-114359277D01*
X148625546Y-114227247D01*
X148646843Y-114157039D01*
X148669003Y-114083986D01*
X148680000Y-113972333D01*
X148680000Y-113972324D01*
X148683676Y-113935001D01*
X148680000Y-113897678D01*
X148680000Y-108818061D01*
X165315000Y-108818061D01*
X165315000Y-109021939D01*
X165354774Y-109221898D01*
X165432795Y-109410256D01*
X165546063Y-109579774D01*
X165690226Y-109723937D01*
X165859744Y-109837205D01*
X166048102Y-109915226D01*
X166248061Y-109955000D01*
X166451939Y-109955000D01*
X166651898Y-109915226D01*
X166840256Y-109837205D01*
X167009774Y-109723937D01*
X167153937Y-109579774D01*
X167267205Y-109410256D01*
X167345226Y-109221898D01*
X167385000Y-109021939D01*
X167385000Y-108818061D01*
X167345226Y-108618102D01*
X167267205Y-108429744D01*
X167153937Y-108260226D01*
X167009774Y-108116063D01*
X166840256Y-108002795D01*
X166651898Y-107924774D01*
X166451939Y-107885000D01*
X166248061Y-107885000D01*
X166048102Y-107924774D01*
X165859744Y-108002795D01*
X165690226Y-108116063D01*
X165546063Y-108260226D01*
X165432795Y-108429744D01*
X165354774Y-108618102D01*
X165315000Y-108818061D01*
X148680000Y-108818061D01*
X148680000Y-99163711D01*
X148723937Y-99119774D01*
X148837205Y-98950256D01*
X148915226Y-98761898D01*
X148951928Y-98577383D01*
X148951928Y-99020000D01*
X148964188Y-99144482D01*
X149000498Y-99264180D01*
X149059463Y-99374494D01*
X149138815Y-99471185D01*
X149235506Y-99550537D01*
X149345820Y-99609502D01*
X149465518Y-99645812D01*
X149590000Y-99658072D01*
X151290000Y-99658072D01*
X151414482Y-99645812D01*
X151534180Y-99609502D01*
X151644494Y-99550537D01*
X151741185Y-99471185D01*
X151820537Y-99374494D01*
X151879502Y-99264180D01*
X151901513Y-99191620D01*
X152033368Y-99323475D01*
X152276589Y-99485990D01*
X152546842Y-99597932D01*
X152833740Y-99655000D01*
X153126260Y-99655000D01*
X153413158Y-99597932D01*
X153683411Y-99485990D01*
X153926632Y-99323475D01*
X154133475Y-99116632D01*
X154255195Y-98934466D01*
X154324822Y-99051355D01*
X154519731Y-99267588D01*
X154753080Y-99441641D01*
X155015901Y-99566825D01*
X155163110Y-99611476D01*
X155393000Y-99490155D01*
X155393000Y-98297000D01*
X155373000Y-98297000D01*
X155373000Y-98043000D01*
X155393000Y-98043000D01*
X155393000Y-96849845D01*
X155163110Y-96728524D01*
X155015901Y-96773175D01*
X154753080Y-96898359D01*
X154519731Y-97072412D01*
X154324822Y-97288645D01*
X154255195Y-97405534D01*
X154133475Y-97223368D01*
X153926632Y-97016525D01*
X153683411Y-96854010D01*
X153413158Y-96742068D01*
X153126260Y-96685000D01*
X152833740Y-96685000D01*
X152546842Y-96742068D01*
X152276589Y-96854010D01*
X152033368Y-97016525D01*
X151901513Y-97148380D01*
X151879502Y-97075820D01*
X151820537Y-96965506D01*
X151741185Y-96868815D01*
X151644494Y-96789463D01*
X151534180Y-96730498D01*
X151414482Y-96694188D01*
X151290000Y-96681928D01*
X149590000Y-96681928D01*
X149465518Y-96694188D01*
X149345820Y-96730498D01*
X149235506Y-96789463D01*
X149138815Y-96868815D01*
X149059463Y-96965506D01*
X149000498Y-97075820D01*
X148964188Y-97195518D01*
X148951928Y-97320000D01*
X148951928Y-98342617D01*
X148915226Y-98158102D01*
X148837205Y-97969744D01*
X148723937Y-97800226D01*
X148579774Y-97656063D01*
X148410256Y-97542795D01*
X148221898Y-97464774D01*
X148021939Y-97425000D01*
X147818061Y-97425000D01*
X147618102Y-97464774D01*
X147429744Y-97542795D01*
X147260226Y-97656063D01*
X147244000Y-97672289D01*
X147229774Y-97658063D01*
X147060256Y-97544795D01*
X146871898Y-97466774D01*
X146671939Y-97427000D01*
X146468061Y-97427000D01*
X146268102Y-97466774D01*
X146079744Y-97544795D01*
X145910226Y-97658063D01*
X145766063Y-97802226D01*
X145680372Y-97930472D01*
X145627932Y-97666842D01*
X145515990Y-97396589D01*
X145353475Y-97153368D01*
X145146632Y-96946525D01*
X144903411Y-96784010D01*
X144633158Y-96672068D01*
X144346260Y-96615000D01*
X144053740Y-96615000D01*
X143766842Y-96672068D01*
X143496589Y-96784010D01*
X143253368Y-96946525D01*
X143046525Y-97153368D01*
X142930000Y-97327760D01*
X142813475Y-97153368D01*
X142606632Y-96946525D01*
X142420000Y-96821822D01*
X142420000Y-96107781D01*
X143151362Y-95376420D01*
X150224255Y-95376420D01*
X150238962Y-95436929D01*
X150252367Y-95499707D01*
X150271433Y-95543973D01*
X150276014Y-95557063D01*
X150288706Y-95603558D01*
X150317367Y-95660997D01*
X150344406Y-95719219D01*
X150372842Y-95758128D01*
X150380217Y-95769866D01*
X150402936Y-95812369D01*
X150443666Y-95861998D01*
X150482979Y-95912738D01*
X150519355Y-95944339D01*
X150529167Y-95954152D01*
X150560768Y-95990527D01*
X150611508Y-96029840D01*
X150661137Y-96070569D01*
X150703629Y-96093282D01*
X150715380Y-96100665D01*
X150754287Y-96129100D01*
X150812509Y-96156139D01*
X150869948Y-96184800D01*
X150916443Y-96197492D01*
X150929527Y-96202070D01*
X150973789Y-96221136D01*
X151036571Y-96234542D01*
X151098947Y-96249703D01*
X151147105Y-96251731D01*
X151160880Y-96253283D01*
X151208278Y-96262021D01*
X151272460Y-96261120D01*
X151336643Y-96262021D01*
X151384038Y-96253283D01*
X151397815Y-96251731D01*
X151445973Y-96249703D01*
X151508362Y-96234539D01*
X151571130Y-96221135D01*
X151615386Y-96202073D01*
X151628476Y-96197492D01*
X151674971Y-96184800D01*
X151732410Y-96156139D01*
X151790632Y-96129100D01*
X151829541Y-96100664D01*
X151841279Y-96093289D01*
X151872460Y-96076622D01*
X151903629Y-96093282D01*
X151915380Y-96100665D01*
X151954287Y-96129100D01*
X152012509Y-96156139D01*
X152069948Y-96184800D01*
X152116443Y-96197492D01*
X152129527Y-96202070D01*
X152173789Y-96221136D01*
X152236571Y-96234542D01*
X152298947Y-96249703D01*
X152347105Y-96251731D01*
X152360880Y-96253283D01*
X152408278Y-96262021D01*
X152472460Y-96261120D01*
X152536643Y-96262021D01*
X152584038Y-96253283D01*
X152597815Y-96251731D01*
X152645973Y-96249703D01*
X152708362Y-96234539D01*
X152771130Y-96221135D01*
X152815386Y-96202073D01*
X152828476Y-96197492D01*
X152874971Y-96184800D01*
X152932410Y-96156139D01*
X152990632Y-96129100D01*
X153029541Y-96100664D01*
X153041279Y-96093289D01*
X153083782Y-96070570D01*
X153133411Y-96029840D01*
X153184151Y-95990527D01*
X153215752Y-95954151D01*
X153225565Y-95944339D01*
X153261940Y-95912738D01*
X153301253Y-95861998D01*
X153341982Y-95812369D01*
X153364695Y-95769877D01*
X153372078Y-95758126D01*
X153400513Y-95719219D01*
X153427552Y-95660997D01*
X153456213Y-95603558D01*
X153468905Y-95557063D01*
X153473484Y-95543976D01*
X153492548Y-95499718D01*
X153505953Y-95436942D01*
X153521116Y-95374559D01*
X153521475Y-95366026D01*
X153535653Y-95366623D01*
X153592683Y-95372240D01*
X153624472Y-95375821D01*
X153629804Y-95375896D01*
X153635127Y-95376420D01*
X153667219Y-95376420D01*
X153736655Y-95377393D01*
X153741932Y-95376420D01*
X159280679Y-95376420D01*
X159840000Y-95935742D01*
X159840000Y-96891821D01*
X159653368Y-97016525D01*
X159446525Y-97223368D01*
X159330000Y-97397760D01*
X159213475Y-97223368D01*
X159006632Y-97016525D01*
X158763411Y-96854010D01*
X158493158Y-96742068D01*
X158206260Y-96685000D01*
X157913740Y-96685000D01*
X157626842Y-96742068D01*
X157356589Y-96854010D01*
X157113368Y-97016525D01*
X156906525Y-97223368D01*
X156784805Y-97405534D01*
X156715178Y-97288645D01*
X156520269Y-97072412D01*
X156286920Y-96898359D01*
X156024099Y-96773175D01*
X155876890Y-96728524D01*
X155647000Y-96849845D01*
X155647000Y-98043000D01*
X155667000Y-98043000D01*
X155667000Y-98297000D01*
X155647000Y-98297000D01*
X155647000Y-99490155D01*
X155876890Y-99611476D01*
X156024099Y-99566825D01*
X156286920Y-99441641D01*
X156520269Y-99267588D01*
X156715178Y-99051355D01*
X156784805Y-98934466D01*
X156906525Y-99116632D01*
X157113368Y-99323475D01*
X157356589Y-99485990D01*
X157626842Y-99597932D01*
X157913740Y-99655000D01*
X158206260Y-99655000D01*
X158493158Y-99597932D01*
X158763411Y-99485990D01*
X159006632Y-99323475D01*
X159213475Y-99116632D01*
X159330000Y-98942240D01*
X159446525Y-99116632D01*
X159653368Y-99323475D01*
X159896589Y-99485990D01*
X160166842Y-99597932D01*
X160453740Y-99655000D01*
X160746260Y-99655000D01*
X161033158Y-99597932D01*
X161303411Y-99485990D01*
X161546632Y-99323475D01*
X161753475Y-99116632D01*
X161870000Y-98942240D01*
X161986525Y-99116632D01*
X162193368Y-99323475D01*
X162436589Y-99485990D01*
X162706842Y-99597932D01*
X162993740Y-99655000D01*
X163286260Y-99655000D01*
X163573158Y-99597932D01*
X163843411Y-99485990D01*
X164086632Y-99323475D01*
X164293475Y-99116632D01*
X164410000Y-98942240D01*
X164526525Y-99116632D01*
X164733368Y-99323475D01*
X164976589Y-99485990D01*
X165246842Y-99597932D01*
X165533740Y-99655000D01*
X165826260Y-99655000D01*
X166113158Y-99597932D01*
X166383411Y-99485990D01*
X166626632Y-99323475D01*
X166833475Y-99116632D01*
X166950000Y-98942240D01*
X167066525Y-99116632D01*
X167273368Y-99323475D01*
X167516589Y-99485990D01*
X167786842Y-99597932D01*
X168073740Y-99655000D01*
X168366260Y-99655000D01*
X168653158Y-99597932D01*
X168923411Y-99485990D01*
X169166632Y-99323475D01*
X169373475Y-99116632D01*
X169535990Y-98873411D01*
X169647932Y-98603158D01*
X169705000Y-98316260D01*
X169705000Y-98023740D01*
X169647932Y-97736842D01*
X169535990Y-97466589D01*
X169373475Y-97223368D01*
X169166632Y-97016525D01*
X168923411Y-96854010D01*
X168653158Y-96742068D01*
X168366260Y-96685000D01*
X168073740Y-96685000D01*
X167786842Y-96742068D01*
X167516589Y-96854010D01*
X167273368Y-97016525D01*
X167066525Y-97223368D01*
X166950000Y-97397760D01*
X166833475Y-97223368D01*
X166626632Y-97016525D01*
X166383411Y-96854010D01*
X166113158Y-96742068D01*
X165826260Y-96685000D01*
X165533740Y-96685000D01*
X165246842Y-96742068D01*
X164976589Y-96854010D01*
X164733368Y-97016525D01*
X164526525Y-97223368D01*
X164410000Y-97397760D01*
X164293475Y-97223368D01*
X164086632Y-97016525D01*
X163843411Y-96854010D01*
X163573158Y-96742068D01*
X163286260Y-96685000D01*
X162993740Y-96685000D01*
X162706842Y-96742068D01*
X162436589Y-96854010D01*
X162193368Y-97016525D01*
X161986525Y-97223368D01*
X161870000Y-97397760D01*
X161753475Y-97223368D01*
X161546632Y-97016525D01*
X161360000Y-96891822D01*
X161360000Y-95658263D01*
X161363676Y-95620940D01*
X161360000Y-95583617D01*
X161360000Y-95583607D01*
X161349003Y-95471954D01*
X161305546Y-95328693D01*
X161234974Y-95196664D01*
X161140001Y-95080939D01*
X161111004Y-95057142D01*
X160159284Y-94105422D01*
X160135481Y-94076419D01*
X160019756Y-93981446D01*
X159887727Y-93910874D01*
X159744466Y-93867417D01*
X159632813Y-93856420D01*
X159632802Y-93856420D01*
X159595480Y-93852744D01*
X159558158Y-93856420D01*
X154120664Y-93856420D01*
X154105953Y-93795898D01*
X154092548Y-93733122D01*
X154073484Y-93688864D01*
X154068905Y-93675777D01*
X154056213Y-93629282D01*
X154027552Y-93571843D01*
X154000513Y-93513621D01*
X153972078Y-93474714D01*
X153964695Y-93462963D01*
X153941982Y-93420471D01*
X153901253Y-93370842D01*
X153861940Y-93320102D01*
X153825565Y-93288501D01*
X153815752Y-93278689D01*
X153784151Y-93242313D01*
X153781166Y-93240000D01*
X154116289Y-93240000D01*
X154160226Y-93283937D01*
X154329744Y-93397205D01*
X154518102Y-93475226D01*
X154718061Y-93515000D01*
X154921939Y-93515000D01*
X155121898Y-93475226D01*
X155310256Y-93397205D01*
X155479774Y-93283937D01*
X155623937Y-93139774D01*
X155737205Y-92970256D01*
X155815226Y-92781898D01*
X155855000Y-92581939D01*
X155855000Y-92378061D01*
X155815226Y-92178102D01*
X155737205Y-91989744D01*
X155623937Y-91820226D01*
X155479774Y-91676063D01*
X155310256Y-91562795D01*
X155121898Y-91484774D01*
X154921939Y-91445000D01*
X154718061Y-91445000D01*
X154518102Y-91484774D01*
X154329744Y-91562795D01*
X154160226Y-91676063D01*
X154116289Y-91720000D01*
X138957325Y-91720000D01*
X138920000Y-91716324D01*
X138882675Y-91720000D01*
X138882667Y-91720000D01*
X138771014Y-91730997D01*
X138627753Y-91774454D01*
X138495724Y-91845026D01*
X138379999Y-91939999D01*
X138356201Y-91968997D01*
X136068998Y-94256201D01*
X136040000Y-94279999D01*
X136016202Y-94308997D01*
X136016201Y-94308998D01*
X135945026Y-94395724D01*
X135874454Y-94527754D01*
X135845133Y-94624417D01*
X135830998Y-94671014D01*
X135820910Y-94773436D01*
X135816324Y-94820000D01*
X135820001Y-94857332D01*
X135820000Y-96821821D01*
X135633368Y-96946525D01*
X135426525Y-97153368D01*
X135304805Y-97335534D01*
X135235178Y-97218645D01*
X135040269Y-97002412D01*
X134806920Y-96828359D01*
X134544099Y-96703175D01*
X134396890Y-96658524D01*
X134167000Y-96779845D01*
X134167000Y-97973000D01*
X134187000Y-97973000D01*
X134187000Y-98227000D01*
X134167000Y-98227000D01*
X134167000Y-99420155D01*
X134396890Y-99541476D01*
X134544099Y-99496825D01*
X134806920Y-99371641D01*
X135040269Y-99197588D01*
X135235178Y-98981355D01*
X135304805Y-98864466D01*
X135426525Y-99046632D01*
X135633368Y-99253475D01*
X135820001Y-99378179D01*
X135820001Y-100532668D01*
X135816324Y-100570000D01*
X135820001Y-100607333D01*
X135830998Y-100718986D01*
X135840649Y-100750801D01*
X135874454Y-100862246D01*
X135945026Y-100994276D01*
X136004132Y-101066296D01*
X136040000Y-101110001D01*
X136068998Y-101133799D01*
X136460000Y-101524802D01*
X136460001Y-114565054D01*
X136164458Y-114367579D01*
X135728596Y-114187039D01*
X135265887Y-114095000D01*
X134794113Y-114095000D01*
X134331404Y-114187039D01*
X133895542Y-114367579D01*
X133503277Y-114629682D01*
X133169682Y-114963277D01*
X132907579Y-115355542D01*
X132727039Y-115791404D01*
X132635000Y-116254113D01*
X125122437Y-116254113D01*
X125119861Y-108813061D01*
X130295000Y-108813061D01*
X130295000Y-109016939D01*
X130334774Y-109216898D01*
X130412795Y-109405256D01*
X130526063Y-109574774D01*
X130670226Y-109718937D01*
X130839744Y-109832205D01*
X131028102Y-109910226D01*
X131228061Y-109950000D01*
X131431939Y-109950000D01*
X131631898Y-109910226D01*
X131820256Y-109832205D01*
X131989774Y-109718937D01*
X132133937Y-109574774D01*
X132247205Y-109405256D01*
X132325226Y-109216898D01*
X132365000Y-109016939D01*
X132365000Y-108813061D01*
X132325226Y-108613102D01*
X132247205Y-108424744D01*
X132133937Y-108255226D01*
X131989774Y-108111063D01*
X131820256Y-107997795D01*
X131631898Y-107919774D01*
X131431939Y-107880000D01*
X131228061Y-107880000D01*
X131028102Y-107919774D01*
X130839744Y-107997795D01*
X130670226Y-108111063D01*
X130526063Y-108255226D01*
X130412795Y-108424744D01*
X130334774Y-108613102D01*
X130295000Y-108813061D01*
X125119861Y-108813061D01*
X125115858Y-97250000D01*
X127471928Y-97250000D01*
X127471928Y-98950000D01*
X127484188Y-99074482D01*
X127520498Y-99194180D01*
X127579463Y-99304494D01*
X127658815Y-99401185D01*
X127755506Y-99480537D01*
X127865820Y-99539502D01*
X127985518Y-99575812D01*
X128110000Y-99588072D01*
X129810000Y-99588072D01*
X129934482Y-99575812D01*
X130054180Y-99539502D01*
X130164494Y-99480537D01*
X130261185Y-99401185D01*
X130340537Y-99304494D01*
X130399502Y-99194180D01*
X130421513Y-99121620D01*
X130553368Y-99253475D01*
X130796589Y-99415990D01*
X131066842Y-99527932D01*
X131353740Y-99585000D01*
X131646260Y-99585000D01*
X131933158Y-99527932D01*
X132203411Y-99415990D01*
X132446632Y-99253475D01*
X132653475Y-99046632D01*
X132775195Y-98864466D01*
X132844822Y-98981355D01*
X133039731Y-99197588D01*
X133273080Y-99371641D01*
X133535901Y-99496825D01*
X133683110Y-99541476D01*
X133913000Y-99420155D01*
X133913000Y-98227000D01*
X133893000Y-98227000D01*
X133893000Y-97973000D01*
X133913000Y-97973000D01*
X133913000Y-96779845D01*
X133683110Y-96658524D01*
X133535901Y-96703175D01*
X133273080Y-96828359D01*
X133039731Y-97002412D01*
X132844822Y-97218645D01*
X132775195Y-97335534D01*
X132653475Y-97153368D01*
X132446632Y-96946525D01*
X132203411Y-96784010D01*
X131933158Y-96672068D01*
X131646260Y-96615000D01*
X131353740Y-96615000D01*
X131066842Y-96672068D01*
X130796589Y-96784010D01*
X130553368Y-96946525D01*
X130421513Y-97078380D01*
X130399502Y-97005820D01*
X130340537Y-96895506D01*
X130261185Y-96798815D01*
X130164494Y-96719463D01*
X130054180Y-96660498D01*
X129934482Y-96624188D01*
X129845000Y-96615375D01*
X129845000Y-92646578D01*
X134066579Y-88425000D01*
X149649156Y-88425000D01*
X149684606Y-88460450D01*
X149878692Y-88590134D01*
X150094348Y-88679461D01*
X150323288Y-88725000D01*
X150556712Y-88725000D01*
X150785652Y-88679461D01*
X151001308Y-88590134D01*
X151195394Y-88460450D01*
X151230844Y-88425000D01*
X168099154Y-88425000D01*
X168134604Y-88460450D01*
X168328690Y-88590134D01*
X168544346Y-88679461D01*
X168773286Y-88725000D01*
X169006710Y-88725000D01*
X169235650Y-88679461D01*
X169451306Y-88590134D01*
X169645392Y-88460450D01*
X169810448Y-88295394D01*
X169940132Y-88101308D01*
X170029459Y-87885652D01*
X170074998Y-87656712D01*
X170074998Y-87423288D01*
X170029459Y-87194348D01*
X169940132Y-86978692D01*
X169810448Y-86784606D01*
X169645392Y-86619550D01*
X169451306Y-86489866D01*
X169235650Y-86400539D01*
X169006710Y-86355000D01*
X168773286Y-86355000D01*
X168544346Y-86400539D01*
X168328690Y-86489866D01*
X168134604Y-86619550D01*
X168099154Y-86655000D01*
X151230844Y-86655000D01*
X151195394Y-86619550D01*
X151001308Y-86489866D01*
X150785652Y-86400539D01*
X150556712Y-86355000D01*
X150323288Y-86355000D01*
X150094348Y-86400539D01*
X149878692Y-86489866D01*
X149684606Y-86619550D01*
X149649156Y-86655000D01*
X133743465Y-86655000D01*
X133699999Y-86650719D01*
X133656533Y-86655000D01*
X133656523Y-86655000D01*
X133526510Y-86667805D01*
X133359687Y-86718411D01*
X133205941Y-86800589D01*
X133205939Y-86800590D01*
X133205940Y-86800590D01*
X133104953Y-86883468D01*
X133104951Y-86883470D01*
X133071183Y-86911183D01*
X133043470Y-86944951D01*
X128364952Y-91623470D01*
X128331184Y-91651183D01*
X128303471Y-91684951D01*
X128303468Y-91684954D01*
X128220590Y-91785941D01*
X128138412Y-91939687D01*
X128087805Y-92106510D01*
X128070719Y-92280000D01*
X128075001Y-92323479D01*
X128075000Y-96615375D01*
X127985518Y-96624188D01*
X127865820Y-96660498D01*
X127755506Y-96719463D01*
X127658815Y-96798815D01*
X127579463Y-96895506D01*
X127520498Y-97005820D01*
X127484188Y-97125518D01*
X127471928Y-97250000D01*
X125115858Y-97250000D01*
X125110874Y-82855062D01*
X126040460Y-82855062D01*
X126108084Y-83048308D01*
X126220664Y-83224731D01*
X126365499Y-83375801D01*
X126537023Y-83495712D01*
X126728645Y-83579856D01*
X126933000Y-83625000D01*
X127433000Y-83625000D01*
X127433000Y-82692000D01*
X127687000Y-82692000D01*
X127687000Y-83625000D01*
X128187000Y-83625000D01*
X128391355Y-83579856D01*
X128582977Y-83495712D01*
X128754501Y-83375801D01*
X128899336Y-83224731D01*
X129011916Y-83048308D01*
X129079540Y-82855062D01*
X128952257Y-82692000D01*
X127687000Y-82692000D01*
X127433000Y-82692000D01*
X126167743Y-82692000D01*
X126040460Y-82855062D01*
X125110874Y-82855062D01*
X125110674Y-82274938D01*
X126040460Y-82274938D01*
X126167743Y-82438000D01*
X127433000Y-82438000D01*
X127433000Y-81505000D01*
X127687000Y-81505000D01*
X127687000Y-82438000D01*
X128952257Y-82438000D01*
X129079540Y-82274938D01*
X129011916Y-82081692D01*
X128899336Y-81905269D01*
X128754501Y-81754199D01*
X128582977Y-81634288D01*
X128391355Y-81550144D01*
X128187000Y-81505000D01*
X127687000Y-81505000D01*
X127433000Y-81505000D01*
X126933000Y-81505000D01*
X126728645Y-81550144D01*
X126537023Y-81634288D01*
X126365499Y-81754199D01*
X126220664Y-81905269D01*
X126108084Y-82081692D01*
X126040460Y-82274938D01*
X125110674Y-82274938D01*
X125110237Y-81010798D01*
X127238807Y-81010798D01*
X127264119Y-81216115D01*
X127454708Y-81298963D01*
X127657796Y-81343038D01*
X127865582Y-81346645D01*
X128070079Y-81309646D01*
X128263428Y-81233462D01*
X128295881Y-81216115D01*
X128321193Y-81010798D01*
X127780000Y-80469605D01*
X127238807Y-81010798D01*
X125110237Y-81010798D01*
X125109275Y-78236092D01*
X125725000Y-78236092D01*
X125725000Y-78443908D01*
X125765543Y-78647732D01*
X125845071Y-78839730D01*
X125945479Y-78990000D01*
X125845071Y-79140270D01*
X125765543Y-79332268D01*
X125725000Y-79536092D01*
X125725000Y-79743908D01*
X125765543Y-79947732D01*
X125845071Y-80139730D01*
X125960528Y-80312523D01*
X126107477Y-80459472D01*
X126280270Y-80574929D01*
X126472268Y-80654457D01*
X126676092Y-80695000D01*
X126805636Y-80695000D01*
X126836538Y-80773428D01*
X126853885Y-80805881D01*
X127059202Y-80831193D01*
X127387427Y-80502968D01*
X127452523Y-80459472D01*
X127599472Y-80312523D01*
X127699925Y-80162185D01*
X127765858Y-80096253D01*
X127780000Y-80110395D01*
X127794143Y-80096253D01*
X127973748Y-80275858D01*
X127959605Y-80290000D01*
X128500798Y-80831193D01*
X128706115Y-80805881D01*
X128788963Y-80615292D01*
X128833038Y-80412204D01*
X128836645Y-80204418D01*
X128799646Y-79999921D01*
X128723462Y-79806572D01*
X128706115Y-79774119D01*
X128511828Y-79750167D01*
X128599472Y-79662523D01*
X128714929Y-79489730D01*
X128794457Y-79297732D01*
X128835000Y-79093908D01*
X128835000Y-78886092D01*
X128794457Y-78682268D01*
X128714929Y-78490270D01*
X128712440Y-78486545D01*
X128730537Y-78464494D01*
X128789502Y-78354180D01*
X128825812Y-78234482D01*
X128838072Y-78110000D01*
X128838072Y-77270000D01*
X128825812Y-77145518D01*
X128789502Y-77025820D01*
X128730537Y-76915506D01*
X128651185Y-76818815D01*
X128554494Y-76739463D01*
X128444180Y-76680498D01*
X128324482Y-76644188D01*
X128200000Y-76631928D01*
X127360000Y-76631928D01*
X127235518Y-76644188D01*
X127115820Y-76680498D01*
X127005506Y-76739463D01*
X126908815Y-76818815D01*
X126829463Y-76915506D01*
X126770498Y-77025820D01*
X126734188Y-77145518D01*
X126721928Y-77270000D01*
X126721928Y-77285000D01*
X126676092Y-77285000D01*
X126472268Y-77325543D01*
X126280270Y-77405071D01*
X126107477Y-77520528D01*
X125960528Y-77667477D01*
X125845071Y-77840270D01*
X125765543Y-78032268D01*
X125725000Y-78236092D01*
X125109275Y-78236092D01*
X125108399Y-75705062D01*
X126040460Y-75705062D01*
X126108084Y-75898308D01*
X126220664Y-76074731D01*
X126365499Y-76225801D01*
X126537023Y-76345712D01*
X126728645Y-76429856D01*
X126933000Y-76475000D01*
X127433000Y-76475000D01*
X127433000Y-75542000D01*
X127687000Y-75542000D01*
X127687000Y-76475000D01*
X128187000Y-76475000D01*
X128391355Y-76429856D01*
X128582977Y-76345712D01*
X128754501Y-76225801D01*
X128899336Y-76074731D01*
X129011916Y-75898308D01*
X129079540Y-75705062D01*
X128952257Y-75542000D01*
X127687000Y-75542000D01*
X127433000Y-75542000D01*
X126167743Y-75542000D01*
X126040460Y-75705062D01*
X125108399Y-75705062D01*
X125108199Y-75124938D01*
X126040460Y-75124938D01*
X126167743Y-75288000D01*
X127433000Y-75288000D01*
X127433000Y-74355000D01*
X127687000Y-74355000D01*
X127687000Y-75288000D01*
X128952257Y-75288000D01*
X129079540Y-75124938D01*
X129011916Y-74931692D01*
X128899336Y-74755269D01*
X128754501Y-74604199D01*
X128582977Y-74484288D01*
X128391355Y-74400144D01*
X128187000Y-74355000D01*
X127687000Y-74355000D01*
X127433000Y-74355000D01*
X126933000Y-74355000D01*
X126728645Y-74400144D01*
X126537023Y-74484288D01*
X126365499Y-74604199D01*
X126220664Y-74755269D01*
X126108084Y-74931692D01*
X126040460Y-75124938D01*
X125108199Y-75124938D01*
X125107145Y-72084335D01*
X125395000Y-72084335D01*
X125395000Y-72755664D01*
X125412870Y-72937101D01*
X125483489Y-73169900D01*
X125598167Y-73384448D01*
X125752498Y-73572502D01*
X125940551Y-73726833D01*
X126155099Y-73841511D01*
X126387898Y-73912130D01*
X126630000Y-73935975D01*
X126872101Y-73912130D01*
X127104900Y-73841511D01*
X127319448Y-73726833D01*
X127473309Y-73600564D01*
X127499463Y-73649494D01*
X127578815Y-73746185D01*
X127675506Y-73825537D01*
X127785820Y-73884502D01*
X127905518Y-73920812D01*
X128030000Y-73933072D01*
X128344250Y-73930000D01*
X128503000Y-73771250D01*
X128503000Y-72547000D01*
X128757000Y-72547000D01*
X128757000Y-73771250D01*
X128915750Y-73930000D01*
X129230000Y-73933072D01*
X129354482Y-73920812D01*
X129474180Y-73884502D01*
X129584494Y-73825537D01*
X129681185Y-73746185D01*
X129760537Y-73649494D01*
X129819502Y-73539180D01*
X129842523Y-73463288D01*
X138364999Y-73463288D01*
X138364999Y-73696712D01*
X138410538Y-73925652D01*
X138499865Y-74141308D01*
X138629549Y-74335394D01*
X138685001Y-74390846D01*
X138685000Y-77979156D01*
X138649550Y-78014606D01*
X138519866Y-78208692D01*
X138430539Y-78424348D01*
X138385000Y-78653288D01*
X138385000Y-78886712D01*
X138430539Y-79115652D01*
X138519866Y-79331308D01*
X138649550Y-79525394D01*
X138814606Y-79690450D01*
X139008692Y-79820134D01*
X139224348Y-79909461D01*
X139453288Y-79955000D01*
X139686712Y-79955000D01*
X139915652Y-79909461D01*
X140131308Y-79820134D01*
X140325394Y-79690450D01*
X140490450Y-79525394D01*
X140620134Y-79331308D01*
X140709461Y-79115652D01*
X140755000Y-78886712D01*
X140755000Y-78653288D01*
X140709461Y-78424348D01*
X140620134Y-78208692D01*
X140490450Y-78014606D01*
X140455000Y-77979156D01*
X140455000Y-74350843D01*
X140470449Y-74335394D01*
X140600133Y-74141308D01*
X140689460Y-73925652D01*
X140734999Y-73696712D01*
X140734999Y-73463288D01*
X140689460Y-73234348D01*
X140600133Y-73018692D01*
X140470449Y-72824606D01*
X140305393Y-72659550D01*
X140111307Y-72529866D01*
X139895651Y-72440539D01*
X139666711Y-72395000D01*
X139433287Y-72395000D01*
X139204347Y-72440539D01*
X138988691Y-72529866D01*
X138794605Y-72659550D01*
X138629549Y-72824606D01*
X138499865Y-73018692D01*
X138410538Y-73234348D01*
X138364999Y-73463288D01*
X129842523Y-73463288D01*
X129855812Y-73419482D01*
X129868072Y-73295000D01*
X129865000Y-72705750D01*
X129706250Y-72547000D01*
X128757000Y-72547000D01*
X128503000Y-72547000D01*
X128483000Y-72547000D01*
X128483000Y-72293000D01*
X128503000Y-72293000D01*
X128503000Y-71068750D01*
X128757000Y-71068750D01*
X128757000Y-72293000D01*
X129706250Y-72293000D01*
X129865000Y-72134250D01*
X129868072Y-71545000D01*
X129855812Y-71420518D01*
X129819502Y-71300820D01*
X129760537Y-71190506D01*
X129681185Y-71093815D01*
X129584494Y-71014463D01*
X129474180Y-70955498D01*
X129354482Y-70919188D01*
X129230000Y-70906928D01*
X128915750Y-70910000D01*
X128757000Y-71068750D01*
X128503000Y-71068750D01*
X128344250Y-70910000D01*
X128030000Y-70906928D01*
X127905518Y-70919188D01*
X127785820Y-70955498D01*
X127675506Y-71014463D01*
X127578815Y-71093815D01*
X127499463Y-71190506D01*
X127473309Y-71239436D01*
X127319449Y-71113167D01*
X127104901Y-70998489D01*
X126872102Y-70927870D01*
X126630000Y-70904025D01*
X126387899Y-70927870D01*
X126155100Y-70998489D01*
X125940552Y-71113167D01*
X125752499Y-71267498D01*
X125598168Y-71455551D01*
X125483489Y-71670099D01*
X125412870Y-71902898D01*
X125395000Y-72084335D01*
X125107145Y-72084335D01*
X125105237Y-66575000D01*
X130696353Y-66575000D01*
X130730000Y-66578314D01*
X130864283Y-66565088D01*
X130993406Y-66525919D01*
X131112407Y-66462312D01*
X131216711Y-66376711D01*
X131302312Y-66272407D01*
X131365919Y-66153406D01*
X131405088Y-66024283D01*
X131411014Y-65964113D01*
X132565000Y-65964113D01*
X132565000Y-66435887D01*
X132657039Y-66898596D01*
X132837579Y-67334458D01*
X133099682Y-67726723D01*
X133433277Y-68060318D01*
X133825542Y-68322421D01*
X134261404Y-68502961D01*
X134724113Y-68595000D01*
X135195887Y-68595000D01*
X135658596Y-68502961D01*
X136094458Y-68322421D01*
X136486723Y-68060318D01*
X136820318Y-67726723D01*
X137082421Y-67334458D01*
X137262961Y-66898596D01*
X137355000Y-66435887D01*
X137355000Y-65964113D01*
X137262961Y-65501404D01*
X137247173Y-65463288D01*
X141865000Y-65463288D01*
X141865000Y-65696712D01*
X141910539Y-65925652D01*
X141999866Y-66141308D01*
X142129550Y-66335394D01*
X142165000Y-66370844D01*
X142165001Y-67637921D01*
X142160719Y-67681400D01*
X142177805Y-67854890D01*
X142228412Y-68021713D01*
X142310590Y-68175459D01*
X142393468Y-68276446D01*
X142393471Y-68276449D01*
X142421184Y-68310217D01*
X142454951Y-68337929D01*
X143628082Y-69511061D01*
X143655795Y-69544829D01*
X143689563Y-69572542D01*
X143689565Y-69572544D01*
X143715139Y-69593532D01*
X143790553Y-69655423D01*
X143944299Y-69737601D01*
X144111122Y-69788207D01*
X144241135Y-69801012D01*
X144241145Y-69801012D01*
X144284611Y-69805293D01*
X144328078Y-69801012D01*
X146359148Y-69801012D01*
X146394598Y-69836462D01*
X146588684Y-69966146D01*
X146804340Y-70055473D01*
X147033280Y-70101012D01*
X147266704Y-70101012D01*
X147495644Y-70055473D01*
X147711300Y-69966146D01*
X147905386Y-69836462D01*
X148070442Y-69671406D01*
X148200126Y-69477320D01*
X148289453Y-69261664D01*
X148334992Y-69032724D01*
X148334992Y-68853288D01*
X155205000Y-68853288D01*
X155205000Y-69086712D01*
X155250539Y-69315652D01*
X155339866Y-69531308D01*
X155469550Y-69725394D01*
X155634606Y-69890450D01*
X155828692Y-70020134D01*
X156044348Y-70109461D01*
X156273288Y-70155000D01*
X156506712Y-70155000D01*
X156735652Y-70109461D01*
X156951308Y-70020134D01*
X157145394Y-69890450D01*
X157213844Y-69822000D01*
X159166156Y-69822000D01*
X159264606Y-69920450D01*
X159458692Y-70050134D01*
X159674348Y-70139461D01*
X159903288Y-70185000D01*
X160136712Y-70185000D01*
X160365652Y-70139461D01*
X160581308Y-70050134D01*
X160775394Y-69920450D01*
X160940450Y-69755394D01*
X161070134Y-69561308D01*
X161159461Y-69345652D01*
X161205000Y-69116712D01*
X161205000Y-68883288D01*
X161159461Y-68654348D01*
X161070134Y-68438692D01*
X160940450Y-68244606D01*
X160775394Y-68079550D01*
X160581308Y-67949866D01*
X160365652Y-67860539D01*
X160136712Y-67815000D01*
X159903288Y-67815000D01*
X159674348Y-67860539D01*
X159458692Y-67949866D01*
X159305838Y-68052000D01*
X157147844Y-68052000D01*
X157145394Y-68049550D01*
X156951308Y-67919866D01*
X156735652Y-67830539D01*
X156506712Y-67785000D01*
X156273288Y-67785000D01*
X156044348Y-67830539D01*
X155828692Y-67919866D01*
X155634606Y-68049550D01*
X155469550Y-68214606D01*
X155339866Y-68408692D01*
X155250539Y-68624348D01*
X155205000Y-68853288D01*
X148334992Y-68853288D01*
X148334992Y-68799300D01*
X148289453Y-68570360D01*
X148200126Y-68354704D01*
X148070442Y-68160618D01*
X147905386Y-67995562D01*
X147711300Y-67865878D01*
X147495644Y-67776551D01*
X147266704Y-67731012D01*
X147033280Y-67731012D01*
X146804340Y-67776551D01*
X146588684Y-67865878D01*
X146394598Y-67995562D01*
X146359148Y-68031012D01*
X144651191Y-68031012D01*
X143935000Y-67314822D01*
X143935000Y-66370844D01*
X143970450Y-66335394D01*
X144100134Y-66141308D01*
X144189461Y-65925652D01*
X144195734Y-65894113D01*
X162045000Y-65894113D01*
X162045000Y-66365887D01*
X162137039Y-66828596D01*
X162317579Y-67264458D01*
X162579682Y-67656723D01*
X162913277Y-67990318D01*
X163305542Y-68252421D01*
X163741404Y-68432961D01*
X164204113Y-68525000D01*
X164675887Y-68525000D01*
X165138596Y-68432961D01*
X165574458Y-68252421D01*
X165966723Y-67990318D01*
X166300318Y-67656723D01*
X166562421Y-67264458D01*
X166742961Y-66828596D01*
X166835000Y-66365887D01*
X166835000Y-65894113D01*
X166742961Y-65431404D01*
X166562421Y-64995542D01*
X166300318Y-64603277D01*
X165966723Y-64269682D01*
X165574458Y-64007579D01*
X165138596Y-63827039D01*
X164675887Y-63735000D01*
X164204113Y-63735000D01*
X163741404Y-63827039D01*
X163305542Y-64007579D01*
X162913277Y-64269682D01*
X162579682Y-64603277D01*
X162317579Y-64995542D01*
X162137039Y-65431404D01*
X162045000Y-65894113D01*
X144195734Y-65894113D01*
X144235000Y-65696712D01*
X144235000Y-65463288D01*
X144189461Y-65234348D01*
X144100134Y-65018692D01*
X143970450Y-64824606D01*
X143805394Y-64659550D01*
X143611308Y-64529866D01*
X143395652Y-64440539D01*
X143166712Y-64395000D01*
X142933288Y-64395000D01*
X142704348Y-64440539D01*
X142488692Y-64529866D01*
X142294606Y-64659550D01*
X142129550Y-64824606D01*
X141999866Y-65018692D01*
X141910539Y-65234348D01*
X141865000Y-65463288D01*
X137247173Y-65463288D01*
X137082421Y-65065542D01*
X136820318Y-64673277D01*
X136486723Y-64339682D01*
X136094458Y-64077579D01*
X135658596Y-63897039D01*
X135195887Y-63805000D01*
X134724113Y-63805000D01*
X134261404Y-63897039D01*
X133825542Y-64077579D01*
X133433277Y-64339682D01*
X133099682Y-64673277D01*
X132837579Y-65065542D01*
X132657039Y-65501404D01*
X132565000Y-65964113D01*
X131411014Y-65964113D01*
X131415000Y-65923647D01*
X131418314Y-65890000D01*
X131415000Y-65856353D01*
X131415000Y-63158061D01*
X141995000Y-63158061D01*
X141995000Y-63361939D01*
X142034774Y-63561898D01*
X142112795Y-63750256D01*
X142226063Y-63919774D01*
X142370226Y-64063937D01*
X142539744Y-64177205D01*
X142728102Y-64255226D01*
X142928061Y-64295000D01*
X143131939Y-64295000D01*
X143331898Y-64255226D01*
X143520256Y-64177205D01*
X143689774Y-64063937D01*
X143733711Y-64020000D01*
X146786289Y-64020000D01*
X146830226Y-64063937D01*
X146999744Y-64177205D01*
X147188102Y-64255226D01*
X147388061Y-64295000D01*
X147591939Y-64295000D01*
X147791898Y-64255226D01*
X147980256Y-64177205D01*
X148149774Y-64063937D01*
X148293937Y-63919774D01*
X148407205Y-63750256D01*
X148485226Y-63561898D01*
X148525000Y-63361939D01*
X148525000Y-63158061D01*
X148485226Y-62958102D01*
X148407205Y-62769744D01*
X148293937Y-62600226D01*
X148149774Y-62456063D01*
X147980256Y-62342795D01*
X147791898Y-62264774D01*
X147591939Y-62225000D01*
X147388061Y-62225000D01*
X147188102Y-62264774D01*
X146999744Y-62342795D01*
X146830226Y-62456063D01*
X146786289Y-62500000D01*
X143733711Y-62500000D01*
X143689774Y-62456063D01*
X143520256Y-62342795D01*
X143331898Y-62264774D01*
X143131939Y-62225000D01*
X142928061Y-62225000D01*
X142728102Y-62264774D01*
X142539744Y-62342795D01*
X142370226Y-62456063D01*
X142226063Y-62600226D01*
X142112795Y-62769744D01*
X142034774Y-62958102D01*
X141995000Y-63158061D01*
X131415000Y-63158061D01*
X131415000Y-59655000D01*
X132417217Y-59655000D01*
X132451718Y-59658311D01*
X132517684Y-59651648D01*
X132584283Y-59645088D01*
X132585112Y-59644836D01*
X132585968Y-59644750D01*
X132649426Y-59625327D01*
X132713406Y-59605919D01*
X132714170Y-59605511D01*
X132714992Y-59605259D01*
X132773398Y-59573853D01*
X132832407Y-59542312D01*
X132833077Y-59541762D01*
X132833834Y-59541355D01*
X132884997Y-59499152D01*
X132936711Y-59456711D01*
X132937261Y-59456041D01*
X132937924Y-59455494D01*
X132979891Y-59404096D01*
X133022312Y-59352407D01*
X133022720Y-59351643D01*
X133023265Y-59350976D01*
X133054405Y-59292365D01*
X133085919Y-59233406D01*
X133086171Y-59232576D01*
X133086574Y-59231817D01*
X133105696Y-59168211D01*
X133125088Y-59104283D01*
X133125173Y-59103423D01*
X133125421Y-59102597D01*
X133131759Y-59036556D01*
X133138314Y-58970000D01*
X133134915Y-58935491D01*
X133123825Y-54493740D01*
X152965000Y-54493740D01*
X152965000Y-54786260D01*
X153022068Y-55073158D01*
X153134010Y-55343411D01*
X153296525Y-55586632D01*
X153503368Y-55793475D01*
X153746589Y-55955990D01*
X154016842Y-56067932D01*
X154303740Y-56125000D01*
X154596260Y-56125000D01*
X154883158Y-56067932D01*
X155153411Y-55955990D01*
X155396632Y-55793475D01*
X155528487Y-55661620D01*
X155550498Y-55734180D01*
X155609463Y-55844494D01*
X155688815Y-55941185D01*
X155785506Y-56020537D01*
X155895820Y-56079502D01*
X156015518Y-56115812D01*
X156140000Y-56128072D01*
X157840000Y-56128072D01*
X157964482Y-56115812D01*
X158084180Y-56079502D01*
X158194494Y-56020537D01*
X158291185Y-55941185D01*
X158370537Y-55844494D01*
X158429502Y-55734180D01*
X158465812Y-55614482D01*
X158478072Y-55490000D01*
X158478072Y-53790000D01*
X158465812Y-53665518D01*
X158429502Y-53545820D01*
X158370537Y-53435506D01*
X158291185Y-53338815D01*
X158194494Y-53259463D01*
X158084180Y-53200498D01*
X157964482Y-53164188D01*
X157840000Y-53151928D01*
X156140000Y-53151928D01*
X156015518Y-53164188D01*
X155895820Y-53200498D01*
X155785506Y-53259463D01*
X155688815Y-53338815D01*
X155609463Y-53435506D01*
X155550498Y-53545820D01*
X155528487Y-53618380D01*
X155396632Y-53486525D01*
X155153411Y-53324010D01*
X154883158Y-53212068D01*
X154596260Y-53155000D01*
X154303740Y-53155000D01*
X154016842Y-53212068D01*
X153746589Y-53324010D01*
X153503368Y-53486525D01*
X153296525Y-53693368D01*
X153134010Y-53936589D01*
X153022068Y-54206842D01*
X152965000Y-54493740D01*
X133123825Y-54493740D01*
X133116712Y-51645000D01*
X166266709Y-51645000D01*
X166284920Y-58938489D01*
G37*
%TD.AperFunction*%
%TD*%
M02*
