%TF.GenerationSoftware,KiCad,Pcbnew,(5.1.10)-1*%
%TF.CreationDate,2021-06-27T19:43:52+02:00*%
%TF.ProjectId,clip,636c6970-2e6b-4696-9361-645f70636258,rev?*%
%TF.SameCoordinates,Original*%
%TF.FileFunction,Other,Fab,Bot*%
%FSLAX46Y46*%
G04 Gerber Fmt 4.6, Leading zero omitted, Abs format (unit mm)*
G04 Created by KiCad (PCBNEW (5.1.10)-1) date 2021-06-27 19:43:52*
%MOMM*%
%LPD*%
G01*
G04 APERTURE LIST*
%ADD10C,0.100000*%
%ADD11C,0.150000*%
G04 APERTURE END LIST*
D10*
%TO.C,BATTERY1*%
X128400000Y-84775000D02*
X128400000Y-86375000D01*
X128400000Y-86375000D02*
X127700000Y-86375000D01*
X127700000Y-86375000D02*
X127700000Y-78775000D01*
X127700000Y-78775000D02*
X133600000Y-78775000D01*
X133600000Y-78775000D02*
X133600000Y-86375000D01*
X133600000Y-86375000D02*
X132900000Y-86375000D01*
X132900000Y-86375000D02*
X132900000Y-84775000D01*
X132900000Y-84775000D02*
X128400000Y-84775000D01*
X129650000Y-84150000D02*
X129150000Y-83650000D01*
X129150000Y-83650000D02*
X130150000Y-83650000D01*
X130150000Y-83650000D02*
X129650000Y-84150000D01*
%TD*%
%TO.C,BATTERY1*%
D11*
X131530952Y-78027380D02*
X132007142Y-78027380D01*
X132007142Y-77027380D01*
X131197619Y-78027380D02*
X131197619Y-77360714D01*
X131197619Y-77027380D02*
X131245238Y-77075000D01*
X131197619Y-77122619D01*
X131150000Y-77075000D01*
X131197619Y-77027380D01*
X131197619Y-77122619D01*
X130721428Y-78027380D02*
X130721428Y-77027380D01*
X130340476Y-77027380D01*
X130245238Y-77075000D01*
X130197619Y-77122619D01*
X130150000Y-77217857D01*
X130150000Y-77360714D01*
X130197619Y-77455952D01*
X130245238Y-77503571D01*
X130340476Y-77551190D01*
X130721428Y-77551190D01*
X129578571Y-78027380D02*
X129673809Y-77979761D01*
X129721428Y-77932142D01*
X129769047Y-77836904D01*
X129769047Y-77551190D01*
X129721428Y-77455952D01*
X129673809Y-77408333D01*
X129578571Y-77360714D01*
X129435714Y-77360714D01*
X129340476Y-77408333D01*
X129292857Y-77455952D01*
X129245238Y-77551190D01*
X129245238Y-77836904D01*
X129292857Y-77932142D01*
X129340476Y-77979761D01*
X129435714Y-78027380D01*
X129578571Y-78027380D01*
X133626190Y-82453571D02*
X133483333Y-82501190D01*
X133435714Y-82548809D01*
X133388095Y-82644047D01*
X133388095Y-82786904D01*
X133435714Y-82882142D01*
X133483333Y-82929761D01*
X133578571Y-82977380D01*
X133959523Y-82977380D01*
X133959523Y-81977380D01*
X133626190Y-81977380D01*
X133530952Y-82025000D01*
X133483333Y-82072619D01*
X133435714Y-82167857D01*
X133435714Y-82263095D01*
X133483333Y-82358333D01*
X133530952Y-82405952D01*
X133626190Y-82453571D01*
X133959523Y-82453571D01*
X133007142Y-82691666D02*
X132530952Y-82691666D01*
X133102380Y-82977380D02*
X132769047Y-81977380D01*
X132435714Y-82977380D01*
X132245238Y-81977380D02*
X131673809Y-81977380D01*
X131959523Y-82977380D02*
X131959523Y-81977380D01*
X131483333Y-81977380D02*
X130911904Y-81977380D01*
X131197619Y-82977380D02*
X131197619Y-81977380D01*
X130578571Y-82453571D02*
X130245238Y-82453571D01*
X130102380Y-82977380D02*
X130578571Y-82977380D01*
X130578571Y-81977380D01*
X130102380Y-81977380D01*
X129102380Y-82977380D02*
X129435714Y-82501190D01*
X129673809Y-82977380D02*
X129673809Y-81977380D01*
X129292857Y-81977380D01*
X129197619Y-82025000D01*
X129150000Y-82072619D01*
X129102380Y-82167857D01*
X129102380Y-82310714D01*
X129150000Y-82405952D01*
X129197619Y-82453571D01*
X129292857Y-82501190D01*
X129673809Y-82501190D01*
X128483333Y-82501190D02*
X128483333Y-82977380D01*
X128816666Y-81977380D02*
X128483333Y-82501190D01*
X128150000Y-81977380D01*
X127292857Y-82977380D02*
X127864285Y-82977380D01*
X127578571Y-82977380D02*
X127578571Y-81977380D01*
X127673809Y-82120238D01*
X127769047Y-82215476D01*
X127864285Y-82263095D01*
%TD*%
M02*
