%TF.GenerationSoftware,KiCad,Pcbnew,(5.1.10)-1*%
%TF.CreationDate,2021-07-02T09:23:45+02:00*%
%TF.ProjectId,clip,636c6970-2e6b-4696-9361-645f70636258,rev?*%
%TF.SameCoordinates,Original*%
%TF.FileFunction,Copper,L2,Bot*%
%TF.FilePolarity,Positive*%
%FSLAX46Y46*%
G04 Gerber Fmt 4.6, Leading zero omitted, Abs format (unit mm)*
G04 Created by KiCad (PCBNEW (5.1.10)-1) date 2021-07-02 09:23:45*
%MOMM*%
%LPD*%
G01*
G04 APERTURE LIST*
%TA.AperFunction,ComponentPad*%
%ADD10C,3.800000*%
%TD*%
%TA.AperFunction,ComponentPad*%
%ADD11O,1.700000X1.700000*%
%TD*%
%TA.AperFunction,ComponentPad*%
%ADD12R,1.700000X1.700000*%
%TD*%
%TA.AperFunction,ComponentPad*%
%ADD13O,1.800000X1.150000*%
%TD*%
%TA.AperFunction,ComponentPad*%
%ADD14O,2.000000X1.450000*%
%TD*%
%TA.AperFunction,ComponentPad*%
%ADD15O,1.200000X1.750000*%
%TD*%
%TA.AperFunction,ViaPad*%
%ADD16C,0.800000*%
%TD*%
%TA.AperFunction,ViaPad*%
%ADD17C,1.100000*%
%TD*%
%TA.AperFunction,Conductor*%
%ADD18C,0.250000*%
%TD*%
%TA.AperFunction,Conductor*%
%ADD19C,0.500000*%
%TD*%
%TA.AperFunction,Conductor*%
%ADD20C,0.254000*%
%TD*%
%TA.AperFunction,Conductor*%
%ADD21C,0.100000*%
%TD*%
G04 APERTURE END LIST*
D10*
%TO.P,H4,1*%
%TO.N,N/C*%
X127688340Y-123154440D03*
%TD*%
%TO.P,H3,1*%
%TO.N,N/C*%
X169994580Y-123146820D03*
%TD*%
%TO.P,H2,1*%
%TO.N,N/C*%
X169981880Y-75420220D03*
%TD*%
%TO.P,H1,1*%
%TO.N,N/C*%
X127739140Y-75377040D03*
%TD*%
D11*
%TO.P,MOISTURE1,3*%
%TO.N,GND*%
X151439880Y-78953360D03*
%TO.P,MOISTURE1,2*%
%TO.N,+3V3*%
X148899880Y-78953360D03*
D12*
%TO.P,MOISTURE1,1*%
%TO.N,ADC1*%
X146359880Y-78953360D03*
%TD*%
D13*
%TO.P,USB1,6*%
%TO.N,GND*%
X126780000Y-96545000D03*
X126780000Y-88795000D03*
D14*
X130580000Y-96395000D03*
X130580000Y-88945000D03*
%TD*%
D12*
%TO.P,LIS1,1*%
%TO.N,+3V3*%
X127030000Y-101720000D03*
D11*
%TO.P,LIS1,2*%
%TO.N,Net-(LIS1-Pad2)*%
X129570000Y-101720000D03*
%TO.P,LIS1,3*%
%TO.N,GND*%
X132110000Y-101720000D03*
%TO.P,LIS1,4*%
%TO.N,SCL*%
X134650000Y-101720000D03*
%TO.P,LIS1,5*%
%TO.N,SDA*%
X137190000Y-101720000D03*
%TO.P,LIS1,6*%
%TO.N,Net-(LIS1-Pad6)*%
X139730000Y-101720000D03*
%TO.P,LIS1,7*%
%TO.N,Net-(LIS1-Pad7)*%
X142270000Y-101720000D03*
%TO.P,LIS1,8*%
%TO.N,INT*%
X144810000Y-101720000D03*
%TD*%
%TO.P,VIN1,2*%
%TO.N,GND*%
X132847080Y-77048360D03*
D12*
%TO.P,VIN1,1*%
%TO.N,VBUS*%
X135387080Y-77048360D03*
%TD*%
D11*
%TO.P,FLASH1,6*%
%TO.N,+3V3*%
X134940000Y-122910000D03*
%TO.P,FLASH1,5*%
%TO.N,TX0*%
X134940000Y-120370000D03*
%TO.P,FLASH1,4*%
%TO.N,RX0*%
X134940000Y-117830000D03*
%TO.P,FLASH1,3*%
%TO.N,EN*%
X134940000Y-115290000D03*
%TO.P,FLASH1,2*%
%TO.N,IO0*%
X134940000Y-112750000D03*
D12*
%TO.P,FLASH1,1*%
%TO.N,GND*%
X134940000Y-110210000D03*
%TD*%
D11*
%TO.P,BME1,7*%
%TO.N,Net-(BME1-Pad7)*%
X166650000Y-101727000D03*
%TO.P,BME1,6*%
%TO.N,SDA*%
X164110000Y-101727000D03*
%TO.P,BME1,5*%
%TO.N,Net-(BME1-Pad5)*%
X161570000Y-101727000D03*
%TO.P,BME1,4*%
%TO.N,SCL*%
X159030000Y-101727000D03*
%TO.P,BME1,3*%
%TO.N,GND*%
X156490000Y-101727000D03*
%TO.P,BME1,2*%
%TO.N,Net-(BME1-Pad2)*%
X153950000Y-101727000D03*
D12*
%TO.P,BME1,1*%
%TO.N,+3V3*%
X151410000Y-101727000D03*
%TD*%
D15*
%TO.P,BATTERY1,2*%
%TO.N,GND*%
X130100000Y-85430000D03*
%TO.P,BATTERY1,1*%
%TO.N,+BATT*%
%TA.AperFunction,ComponentPad*%
G36*
G01*
X127500000Y-86055001D02*
X127500000Y-84804999D01*
G75*
G02*
X127749999Y-84555000I249999J0D01*
G01*
X128450001Y-84555000D01*
G75*
G02*
X128700000Y-84804999I0J-249999D01*
G01*
X128700000Y-86055001D01*
G75*
G02*
X128450001Y-86305000I-249999J0D01*
G01*
X127749999Y-86305000D01*
G75*
G02*
X127500000Y-86055001I0J249999D01*
G01*
G37*
%TD.AperFunction*%
%TD*%
D16*
%TO.N,GND*%
X165070000Y-120020000D03*
X165100002Y-113070000D03*
X165080000Y-123840000D03*
X165090000Y-116956680D03*
X138681180Y-93010000D03*
D17*
%TO.N,VBUS*%
X151100000Y-91290000D03*
X135970000Y-84504990D03*
X135960000Y-88630000D03*
X138676380Y-91274900D03*
D16*
%TO.N,EN*%
X153930000Y-121340000D03*
%TO.N,SDA*%
X143060000Y-115030000D03*
%TO.N,SCL*%
X142110000Y-119130000D03*
%TO.N,Net-(C3-Pad1)*%
X154767380Y-96391580D03*
X151404440Y-96412820D03*
%TO.N,ADC1*%
X162443280Y-105100000D03*
%TD*%
D18*
%TO.N,GND*%
X165070000Y-123830000D02*
X165080000Y-123840000D01*
X165070000Y-120020000D02*
X165070000Y-123830000D01*
X165100002Y-113070000D02*
X165100002Y-116946678D01*
X165100002Y-116946678D02*
X165090000Y-116956680D01*
X136740620Y-93010000D02*
X138681180Y-93010000D01*
X133301740Y-96448880D02*
X136740620Y-93010000D01*
X130498880Y-96448880D02*
X133301740Y-96448880D01*
X130370000Y-96320000D02*
X130498880Y-96448880D01*
D19*
%TO.N,VBUS*%
X135970000Y-84504990D02*
X135970000Y-88620000D01*
X135970000Y-88620000D02*
X135960000Y-88630000D01*
X151100000Y-91290000D02*
X138691480Y-91290000D01*
X138691480Y-91290000D02*
X138676380Y-91274900D01*
D18*
%TO.N,EN*%
X153900000Y-121310000D02*
X153930000Y-121340000D01*
X138020000Y-121340000D02*
X153930000Y-121340000D01*
X137261600Y-120581600D02*
X138020000Y-121340000D01*
X137261600Y-116184680D02*
X137261600Y-120581600D01*
X136336920Y-115260000D02*
X137261600Y-116184680D01*
X134870000Y-115260000D02*
X136336920Y-115260000D01*
%TO.N,SDA*%
X143280000Y-115030000D02*
X143060000Y-115030000D01*
X137190000Y-101720000D02*
X137190000Y-102020000D01*
X137190000Y-102020000D02*
X138955000Y-103785000D01*
X138960000Y-103790000D02*
X138955000Y-103785000D01*
X143060000Y-107900000D02*
X138900000Y-103740000D01*
X143060000Y-115030000D02*
X143060000Y-107900000D01*
X164100000Y-101740000D02*
X164120000Y-101740000D01*
X162596620Y-103243380D02*
X164100000Y-101740000D01*
X149453600Y-103243380D02*
X162596620Y-103243380D01*
X146667220Y-100457000D02*
X149453600Y-103243380D01*
X138453000Y-100457000D02*
X146667220Y-100457000D01*
X137190000Y-101720000D02*
X138453000Y-100457000D01*
%TO.N,SCL*%
X134650000Y-101720000D02*
X142110000Y-109180000D01*
X142110000Y-109180000D02*
X142110000Y-119130000D01*
X156700000Y-99390000D02*
X159030000Y-101720000D01*
X156470000Y-99160000D02*
X156700000Y-99390000D01*
X137110000Y-99160000D02*
X156470000Y-99160000D01*
X134750000Y-101520000D02*
X137110000Y-99160000D01*
D19*
%TO.N,Net-(C3-Pad1)*%
X151440820Y-96433640D02*
X151428120Y-96446340D01*
X154757120Y-96433640D02*
X151440820Y-96433640D01*
X154769820Y-96446340D02*
X154757120Y-96433640D01*
D18*
%TO.N,ADC1*%
X166490000Y-105100000D02*
X162443280Y-105100000D01*
X168940000Y-102650000D02*
X166490000Y-105100000D01*
X166620000Y-85480000D02*
X168940000Y-87800000D01*
X148250000Y-85480000D02*
X166620000Y-85480000D01*
X168940000Y-87800000D02*
X168940000Y-102650000D01*
X146360000Y-83590000D02*
X148250000Y-85480000D01*
X146360000Y-79031980D02*
X146360000Y-83590000D01*
X146410680Y-78981300D02*
X146360000Y-79031980D01*
%TD*%
D20*
%TO.N,GND*%
X167915524Y-73949861D02*
X167735392Y-74219447D01*
X167544298Y-74680788D01*
X167446880Y-75170544D01*
X167446880Y-75669896D01*
X167544298Y-76159652D01*
X167735392Y-76620993D01*
X168012817Y-77036188D01*
X168365912Y-77389283D01*
X168781107Y-77666708D01*
X169242448Y-77857802D01*
X169732204Y-77955220D01*
X170231556Y-77955220D01*
X170721312Y-77857802D01*
X171182653Y-77666708D01*
X171455000Y-77484731D01*
X171455001Y-121073824D01*
X171195353Y-120900332D01*
X170734012Y-120709238D01*
X170244256Y-120611820D01*
X169744904Y-120611820D01*
X169255148Y-120709238D01*
X168793807Y-120900332D01*
X168378612Y-121177757D01*
X168025517Y-121530852D01*
X167748092Y-121946047D01*
X167556998Y-122407388D01*
X167459580Y-122897144D01*
X167459580Y-123396496D01*
X167556998Y-123886252D01*
X167748092Y-124347593D01*
X167927976Y-124616808D01*
X129749089Y-124633190D01*
X129934828Y-124355213D01*
X130125922Y-123893872D01*
X130223340Y-123404116D01*
X130223340Y-122904764D01*
X130125922Y-122415008D01*
X129934828Y-121953667D01*
X129657403Y-121538472D01*
X129304308Y-121185377D01*
X128889113Y-120907952D01*
X128427772Y-120716858D01*
X127938016Y-120619440D01*
X127438664Y-120619440D01*
X126948908Y-120716858D01*
X126487567Y-120907952D01*
X126218923Y-121087455D01*
X126228216Y-111060000D01*
X133451928Y-111060000D01*
X133464188Y-111184482D01*
X133500498Y-111304180D01*
X133559463Y-111414494D01*
X133638815Y-111511185D01*
X133735506Y-111590537D01*
X133845820Y-111649502D01*
X133918380Y-111671513D01*
X133786525Y-111803368D01*
X133624010Y-112046589D01*
X133512068Y-112316842D01*
X133455000Y-112603740D01*
X133455000Y-112896260D01*
X133512068Y-113183158D01*
X133624010Y-113453411D01*
X133786525Y-113696632D01*
X133993368Y-113903475D01*
X134167760Y-114020000D01*
X133993368Y-114136525D01*
X133786525Y-114343368D01*
X133624010Y-114586589D01*
X133512068Y-114856842D01*
X133455000Y-115143740D01*
X133455000Y-115436260D01*
X133512068Y-115723158D01*
X133624010Y-115993411D01*
X133786525Y-116236632D01*
X133993368Y-116443475D01*
X134167760Y-116560000D01*
X133993368Y-116676525D01*
X133786525Y-116883368D01*
X133624010Y-117126589D01*
X133512068Y-117396842D01*
X133455000Y-117683740D01*
X133455000Y-117976260D01*
X133512068Y-118263158D01*
X133624010Y-118533411D01*
X133786525Y-118776632D01*
X133993368Y-118983475D01*
X134167760Y-119100000D01*
X133993368Y-119216525D01*
X133786525Y-119423368D01*
X133624010Y-119666589D01*
X133512068Y-119936842D01*
X133455000Y-120223740D01*
X133455000Y-120516260D01*
X133512068Y-120803158D01*
X133624010Y-121073411D01*
X133786525Y-121316632D01*
X133993368Y-121523475D01*
X134167760Y-121640000D01*
X133993368Y-121756525D01*
X133786525Y-121963368D01*
X133624010Y-122206589D01*
X133512068Y-122476842D01*
X133455000Y-122763740D01*
X133455000Y-123056260D01*
X133512068Y-123343158D01*
X133624010Y-123613411D01*
X133786525Y-123856632D01*
X133993368Y-124063475D01*
X134236589Y-124225990D01*
X134506842Y-124337932D01*
X134793740Y-124395000D01*
X135086260Y-124395000D01*
X135373158Y-124337932D01*
X135643411Y-124225990D01*
X135886632Y-124063475D01*
X136093475Y-123856632D01*
X136255990Y-123613411D01*
X136367932Y-123343158D01*
X136425000Y-123056260D01*
X136425000Y-122763740D01*
X136367932Y-122476842D01*
X136255990Y-122206589D01*
X136093475Y-121963368D01*
X135886632Y-121756525D01*
X135712240Y-121640000D01*
X135886632Y-121523475D01*
X136093475Y-121316632D01*
X136255990Y-121073411D01*
X136367932Y-120803158D01*
X136425000Y-120516260D01*
X136425000Y-120223740D01*
X136367932Y-119936842D01*
X136255990Y-119666589D01*
X136093475Y-119423368D01*
X135886632Y-119216525D01*
X135712240Y-119100000D01*
X135886632Y-118983475D01*
X136093475Y-118776632D01*
X136255990Y-118533411D01*
X136367932Y-118263158D01*
X136425000Y-117976260D01*
X136425000Y-117683740D01*
X136367932Y-117396842D01*
X136255990Y-117126589D01*
X136093475Y-116883368D01*
X135886632Y-116676525D01*
X135712240Y-116560000D01*
X135886632Y-116443475D01*
X136093475Y-116236632D01*
X136151664Y-116149546D01*
X136501600Y-116499482D01*
X136501601Y-120544268D01*
X136497924Y-120581600D01*
X136512598Y-120730585D01*
X136556054Y-120873846D01*
X136626626Y-121005876D01*
X136697801Y-121092602D01*
X136721600Y-121121601D01*
X136750598Y-121145399D01*
X137456201Y-121851002D01*
X137479999Y-121880001D01*
X137508997Y-121903799D01*
X137595724Y-121974974D01*
X137727753Y-122045546D01*
X137871014Y-122089003D01*
X138020000Y-122103677D01*
X138057333Y-122100000D01*
X153226289Y-122100000D01*
X153270226Y-122143937D01*
X153439744Y-122257205D01*
X153628102Y-122335226D01*
X153828061Y-122375000D01*
X154031939Y-122375000D01*
X154231898Y-122335226D01*
X154420256Y-122257205D01*
X154589774Y-122143937D01*
X154733937Y-121999774D01*
X154847205Y-121830256D01*
X154925226Y-121641898D01*
X154965000Y-121441939D01*
X154965000Y-121238061D01*
X154925226Y-121038102D01*
X154847205Y-120849744D01*
X154733937Y-120680226D01*
X154589774Y-120536063D01*
X154420256Y-120422795D01*
X154231898Y-120344774D01*
X154031939Y-120305000D01*
X153828061Y-120305000D01*
X153628102Y-120344774D01*
X153439744Y-120422795D01*
X153270226Y-120536063D01*
X153226289Y-120580000D01*
X138334802Y-120580000D01*
X138021600Y-120266799D01*
X138021600Y-116222002D01*
X138025276Y-116184680D01*
X138021600Y-116147357D01*
X138021600Y-116147347D01*
X138010603Y-116035694D01*
X137967146Y-115892433D01*
X137935879Y-115833937D01*
X137896574Y-115760403D01*
X137825399Y-115673677D01*
X137801601Y-115644679D01*
X137772604Y-115620882D01*
X136900723Y-114749002D01*
X136876921Y-114719999D01*
X136761196Y-114625026D01*
X136629167Y-114554454D01*
X136485906Y-114510997D01*
X136374253Y-114500000D01*
X136374242Y-114500000D01*
X136336920Y-114496324D01*
X136299598Y-114500000D01*
X136198133Y-114500000D01*
X136093475Y-114343368D01*
X135886632Y-114136525D01*
X135712240Y-114020000D01*
X135886632Y-113903475D01*
X136093475Y-113696632D01*
X136255990Y-113453411D01*
X136367932Y-113183158D01*
X136425000Y-112896260D01*
X136425000Y-112603740D01*
X136367932Y-112316842D01*
X136255990Y-112046589D01*
X136093475Y-111803368D01*
X135961620Y-111671513D01*
X136034180Y-111649502D01*
X136144494Y-111590537D01*
X136241185Y-111511185D01*
X136320537Y-111414494D01*
X136379502Y-111304180D01*
X136415812Y-111184482D01*
X136428072Y-111060000D01*
X136425000Y-110495750D01*
X136266250Y-110337000D01*
X135067000Y-110337000D01*
X135067000Y-110357000D01*
X134813000Y-110357000D01*
X134813000Y-110337000D01*
X133613750Y-110337000D01*
X133455000Y-110495750D01*
X133451928Y-111060000D01*
X126228216Y-111060000D01*
X126229791Y-109360000D01*
X133451928Y-109360000D01*
X133455000Y-109924250D01*
X133613750Y-110083000D01*
X134813000Y-110083000D01*
X134813000Y-108883750D01*
X135067000Y-108883750D01*
X135067000Y-110083000D01*
X136266250Y-110083000D01*
X136425000Y-109924250D01*
X136428072Y-109360000D01*
X136415812Y-109235518D01*
X136379502Y-109115820D01*
X136320537Y-109005506D01*
X136241185Y-108908815D01*
X136144494Y-108829463D01*
X136034180Y-108770498D01*
X135914482Y-108734188D01*
X135790000Y-108721928D01*
X135225750Y-108725000D01*
X135067000Y-108883750D01*
X134813000Y-108883750D01*
X134654250Y-108725000D01*
X134090000Y-108721928D01*
X133965518Y-108734188D01*
X133845820Y-108770498D01*
X133735506Y-108829463D01*
X133638815Y-108908815D01*
X133559463Y-109005506D01*
X133500498Y-109115820D01*
X133464188Y-109235518D01*
X133451928Y-109360000D01*
X126229791Y-109360000D01*
X126235494Y-103208072D01*
X127880000Y-103208072D01*
X128004482Y-103195812D01*
X128124180Y-103159502D01*
X128234494Y-103100537D01*
X128331185Y-103021185D01*
X128410537Y-102924494D01*
X128469502Y-102814180D01*
X128491513Y-102741620D01*
X128623368Y-102873475D01*
X128866589Y-103035990D01*
X129136842Y-103147932D01*
X129423740Y-103205000D01*
X129716260Y-103205000D01*
X130003158Y-103147932D01*
X130273411Y-103035990D01*
X130516632Y-102873475D01*
X130723475Y-102666632D01*
X130845195Y-102484466D01*
X130914822Y-102601355D01*
X131109731Y-102817588D01*
X131343080Y-102991641D01*
X131605901Y-103116825D01*
X131753110Y-103161476D01*
X131983000Y-103040155D01*
X131983000Y-101847000D01*
X131963000Y-101847000D01*
X131963000Y-101593000D01*
X131983000Y-101593000D01*
X131983000Y-100399845D01*
X132237000Y-100399845D01*
X132237000Y-101593000D01*
X132257000Y-101593000D01*
X132257000Y-101847000D01*
X132237000Y-101847000D01*
X132237000Y-103040155D01*
X132466890Y-103161476D01*
X132614099Y-103116825D01*
X132876920Y-102991641D01*
X133110269Y-102817588D01*
X133305178Y-102601355D01*
X133374805Y-102484466D01*
X133496525Y-102666632D01*
X133703368Y-102873475D01*
X133946589Y-103035990D01*
X134216842Y-103147932D01*
X134503740Y-103205000D01*
X134796260Y-103205000D01*
X135016408Y-103161209D01*
X141350000Y-109494802D01*
X141350001Y-118426288D01*
X141306063Y-118470226D01*
X141192795Y-118639744D01*
X141114774Y-118828102D01*
X141075000Y-119028061D01*
X141075000Y-119231939D01*
X141114774Y-119431898D01*
X141192795Y-119620256D01*
X141306063Y-119789774D01*
X141450226Y-119933937D01*
X141619744Y-120047205D01*
X141808102Y-120125226D01*
X142008061Y-120165000D01*
X142211939Y-120165000D01*
X142411898Y-120125226D01*
X142600256Y-120047205D01*
X142769774Y-119933937D01*
X142913937Y-119789774D01*
X143027205Y-119620256D01*
X143105226Y-119431898D01*
X143145000Y-119231939D01*
X143145000Y-119028061D01*
X143105226Y-118828102D01*
X143027205Y-118639744D01*
X142913937Y-118470226D01*
X142870000Y-118426289D01*
X142870000Y-116047484D01*
X142958061Y-116065000D01*
X143161939Y-116065000D01*
X143361898Y-116025226D01*
X143550256Y-115947205D01*
X143719774Y-115833937D01*
X143863937Y-115689774D01*
X143977205Y-115520256D01*
X144055226Y-115331898D01*
X144095000Y-115131939D01*
X144095000Y-114928061D01*
X144055226Y-114728102D01*
X143977205Y-114539744D01*
X143863937Y-114370226D01*
X143820000Y-114326289D01*
X143820000Y-109658061D01*
X161465000Y-109658061D01*
X161465000Y-109861939D01*
X161504774Y-110061898D01*
X161582795Y-110250256D01*
X161696063Y-110419774D01*
X161840226Y-110563937D01*
X162009744Y-110677205D01*
X162198102Y-110755226D01*
X162398061Y-110795000D01*
X162601939Y-110795000D01*
X162801898Y-110755226D01*
X162990256Y-110677205D01*
X163159774Y-110563937D01*
X163303937Y-110419774D01*
X163417205Y-110250256D01*
X163495226Y-110061898D01*
X163535000Y-109861939D01*
X163535000Y-109658061D01*
X163495226Y-109458102D01*
X163417205Y-109269744D01*
X163303937Y-109100226D01*
X163159774Y-108956063D01*
X162990256Y-108842795D01*
X162801898Y-108764774D01*
X162601939Y-108725000D01*
X162398061Y-108725000D01*
X162198102Y-108764774D01*
X162009744Y-108842795D01*
X161840226Y-108956063D01*
X161696063Y-109100226D01*
X161582795Y-109269744D01*
X161504774Y-109458102D01*
X161465000Y-109658061D01*
X143820000Y-109658061D01*
X143820000Y-107937322D01*
X143823676Y-107899999D01*
X143820000Y-107862676D01*
X143820000Y-107862667D01*
X143809003Y-107751014D01*
X143765546Y-107607753D01*
X143694974Y-107475724D01*
X143681811Y-107459685D01*
X143623799Y-107388996D01*
X143623795Y-107388992D01*
X143600001Y-107359999D01*
X143571008Y-107336205D01*
X139569567Y-103334766D01*
X139523799Y-103278998D01*
X139518804Y-103274003D01*
X139518799Y-103273997D01*
X139416544Y-103171742D01*
X139583740Y-103205000D01*
X139876260Y-103205000D01*
X140163158Y-103147932D01*
X140433411Y-103035990D01*
X140676632Y-102873475D01*
X140883475Y-102666632D01*
X141000000Y-102492240D01*
X141116525Y-102666632D01*
X141323368Y-102873475D01*
X141566589Y-103035990D01*
X141836842Y-103147932D01*
X142123740Y-103205000D01*
X142416260Y-103205000D01*
X142703158Y-103147932D01*
X142973411Y-103035990D01*
X143216632Y-102873475D01*
X143423475Y-102666632D01*
X143540000Y-102492240D01*
X143656525Y-102666632D01*
X143863368Y-102873475D01*
X144106589Y-103035990D01*
X144376842Y-103147932D01*
X144663740Y-103205000D01*
X144956260Y-103205000D01*
X145243158Y-103147932D01*
X145513411Y-103035990D01*
X145756632Y-102873475D01*
X145963475Y-102666632D01*
X146125990Y-102423411D01*
X146237932Y-102153158D01*
X146295000Y-101866260D01*
X146295000Y-101573740D01*
X146237932Y-101286842D01*
X146209003Y-101217000D01*
X146352419Y-101217000D01*
X148889805Y-103754388D01*
X148913599Y-103783381D01*
X148942592Y-103807175D01*
X148942596Y-103807179D01*
X149013285Y-103865191D01*
X149029324Y-103878354D01*
X149161353Y-103948926D01*
X149304614Y-103992383D01*
X149416267Y-104003380D01*
X149416276Y-104003380D01*
X149453599Y-104007056D01*
X149490922Y-104003380D01*
X162559298Y-104003380D01*
X162596620Y-104007056D01*
X162633942Y-104003380D01*
X162633953Y-104003380D01*
X162745606Y-103992383D01*
X162888867Y-103948926D01*
X163020896Y-103878354D01*
X163136621Y-103783381D01*
X163160423Y-103754378D01*
X163746095Y-103168707D01*
X163963740Y-103212000D01*
X164256260Y-103212000D01*
X164543158Y-103154932D01*
X164813411Y-103042990D01*
X165056632Y-102880475D01*
X165263475Y-102673632D01*
X165380000Y-102499240D01*
X165496525Y-102673632D01*
X165703368Y-102880475D01*
X165946589Y-103042990D01*
X166216842Y-103154932D01*
X166503740Y-103212000D01*
X166796260Y-103212000D01*
X167083158Y-103154932D01*
X167353411Y-103042990D01*
X167596632Y-102880475D01*
X167803475Y-102673632D01*
X167965990Y-102430411D01*
X168077932Y-102160158D01*
X168135000Y-101873260D01*
X168135000Y-101580740D01*
X168077932Y-101293842D01*
X167965990Y-101023589D01*
X167803475Y-100780368D01*
X167596632Y-100573525D01*
X167353411Y-100411010D01*
X167083158Y-100299068D01*
X166796260Y-100242000D01*
X166503740Y-100242000D01*
X166216842Y-100299068D01*
X165946589Y-100411010D01*
X165703368Y-100573525D01*
X165496525Y-100780368D01*
X165380000Y-100954760D01*
X165263475Y-100780368D01*
X165056632Y-100573525D01*
X164813411Y-100411010D01*
X164543158Y-100299068D01*
X164256260Y-100242000D01*
X163963740Y-100242000D01*
X163676842Y-100299068D01*
X163406589Y-100411010D01*
X163163368Y-100573525D01*
X162956525Y-100780368D01*
X162840000Y-100954760D01*
X162723475Y-100780368D01*
X162516632Y-100573525D01*
X162273411Y-100411010D01*
X162003158Y-100299068D01*
X161716260Y-100242000D01*
X161423740Y-100242000D01*
X161136842Y-100299068D01*
X160866589Y-100411010D01*
X160623368Y-100573525D01*
X160416525Y-100780368D01*
X160300000Y-100954760D01*
X160183475Y-100780368D01*
X159976632Y-100573525D01*
X159733411Y-100411010D01*
X159463158Y-100299068D01*
X159176260Y-100242000D01*
X158883740Y-100242000D01*
X158669431Y-100284629D01*
X157211002Y-98826201D01*
X157033804Y-98649003D01*
X157010001Y-98619999D01*
X156894276Y-98525026D01*
X156762247Y-98454454D01*
X156618986Y-98410997D01*
X156507333Y-98400000D01*
X156507322Y-98400000D01*
X156470000Y-98396324D01*
X156432678Y-98400000D01*
X137147322Y-98400000D01*
X137109999Y-98396324D01*
X137072677Y-98400000D01*
X137072667Y-98400000D01*
X136961014Y-98410997D01*
X136817753Y-98454454D01*
X136685723Y-98525026D01*
X136602083Y-98593668D01*
X136569999Y-98619999D01*
X136546201Y-98648997D01*
X134932999Y-100262199D01*
X134796260Y-100235000D01*
X134503740Y-100235000D01*
X134216842Y-100292068D01*
X133946589Y-100404010D01*
X133703368Y-100566525D01*
X133496525Y-100773368D01*
X133374805Y-100955534D01*
X133305178Y-100838645D01*
X133110269Y-100622412D01*
X132876920Y-100448359D01*
X132614099Y-100323175D01*
X132466890Y-100278524D01*
X132237000Y-100399845D01*
X131983000Y-100399845D01*
X131753110Y-100278524D01*
X131605901Y-100323175D01*
X131343080Y-100448359D01*
X131109731Y-100622412D01*
X130914822Y-100838645D01*
X130845195Y-100955534D01*
X130723475Y-100773368D01*
X130516632Y-100566525D01*
X130273411Y-100404010D01*
X130003158Y-100292068D01*
X129716260Y-100235000D01*
X129423740Y-100235000D01*
X129136842Y-100292068D01*
X128866589Y-100404010D01*
X128623368Y-100566525D01*
X128491513Y-100698380D01*
X128469502Y-100625820D01*
X128410537Y-100515506D01*
X128331185Y-100418815D01*
X128234494Y-100339463D01*
X128124180Y-100280498D01*
X128004482Y-100244188D01*
X127880000Y-100231928D01*
X126238253Y-100231928D01*
X126240565Y-97737026D01*
X126328000Y-97755000D01*
X126653000Y-97755000D01*
X126653000Y-96672000D01*
X126907000Y-96672000D01*
X126907000Y-97755000D01*
X127232000Y-97755000D01*
X127465619Y-97706974D01*
X127685380Y-97614294D01*
X127882837Y-97480521D01*
X128050402Y-97310797D01*
X128181636Y-97111644D01*
X128271496Y-96890715D01*
X128273635Y-96858677D01*
X128188927Y-96732258D01*
X128987481Y-96732258D01*
X128999922Y-96798117D01*
X129103643Y-97044979D01*
X129253531Y-97266863D01*
X129443827Y-97455242D01*
X129667217Y-97602876D01*
X129915117Y-97704092D01*
X130178000Y-97755000D01*
X130453000Y-97755000D01*
X130453000Y-96522000D01*
X130707000Y-96522000D01*
X130707000Y-97755000D01*
X130982000Y-97755000D01*
X131244883Y-97704092D01*
X131492783Y-97602876D01*
X131716173Y-97455242D01*
X131906469Y-97266863D01*
X132056357Y-97044979D01*
X132160078Y-96798117D01*
X132172519Y-96732258D01*
X132049518Y-96522000D01*
X130707000Y-96522000D01*
X130453000Y-96522000D01*
X129110482Y-96522000D01*
X128987481Y-96732258D01*
X128188927Y-96732258D01*
X128148550Y-96672000D01*
X126907000Y-96672000D01*
X126653000Y-96672000D01*
X126633000Y-96672000D01*
X126633000Y-96418000D01*
X126653000Y-96418000D01*
X126653000Y-95335000D01*
X126907000Y-95335000D01*
X126907000Y-96418000D01*
X128148550Y-96418000D01*
X128220326Y-96310881D01*
X150369440Y-96310881D01*
X150369440Y-96514759D01*
X150409214Y-96714718D01*
X150487235Y-96903076D01*
X150600503Y-97072594D01*
X150744666Y-97216757D01*
X150914184Y-97330025D01*
X151102542Y-97408046D01*
X151302501Y-97447820D01*
X151506379Y-97447820D01*
X151706338Y-97408046D01*
X151894696Y-97330025D01*
X151911735Y-97318640D01*
X154300916Y-97318640D01*
X154465482Y-97386806D01*
X154665441Y-97426580D01*
X154869319Y-97426580D01*
X155069278Y-97386806D01*
X155257636Y-97308785D01*
X155427154Y-97195517D01*
X155571317Y-97051354D01*
X155684585Y-96881836D01*
X155762606Y-96693478D01*
X155802380Y-96493519D01*
X155802380Y-96289641D01*
X155762606Y-96089682D01*
X155684585Y-95901324D01*
X155571317Y-95731806D01*
X155427154Y-95587643D01*
X155257636Y-95474375D01*
X155069278Y-95396354D01*
X154869319Y-95356580D01*
X154665441Y-95356580D01*
X154465482Y-95396354D01*
X154277124Y-95474375D01*
X154165978Y-95548640D01*
X151974054Y-95548640D01*
X151894696Y-95495615D01*
X151706338Y-95417594D01*
X151506379Y-95377820D01*
X151302501Y-95377820D01*
X151102542Y-95417594D01*
X150914184Y-95495615D01*
X150744666Y-95608883D01*
X150600503Y-95753046D01*
X150487235Y-95922564D01*
X150409214Y-96110922D01*
X150369440Y-96310881D01*
X128220326Y-96310881D01*
X128273635Y-96231323D01*
X128271496Y-96199285D01*
X128181636Y-95978356D01*
X128050402Y-95779203D01*
X127882837Y-95609479D01*
X127685380Y-95475706D01*
X127465619Y-95383026D01*
X127232000Y-95335000D01*
X126907000Y-95335000D01*
X126653000Y-95335000D01*
X126328000Y-95335000D01*
X126242775Y-95352520D01*
X126243038Y-95068061D01*
X128495000Y-95068061D01*
X128495000Y-95271939D01*
X128534774Y-95471898D01*
X128612795Y-95660256D01*
X128726063Y-95829774D01*
X128870226Y-95973937D01*
X128988396Y-96052896D01*
X128987481Y-96057742D01*
X129110482Y-96268000D01*
X130453000Y-96268000D01*
X130453000Y-95646266D01*
X130525226Y-95471898D01*
X130565000Y-95271939D01*
X130565000Y-95068061D01*
X130558424Y-95035000D01*
X130707000Y-95035000D01*
X130707000Y-96268000D01*
X132049518Y-96268000D01*
X132172519Y-96057742D01*
X132160078Y-95991883D01*
X132056357Y-95745021D01*
X131906469Y-95523137D01*
X131716173Y-95334758D01*
X131492783Y-95187124D01*
X131244883Y-95085908D01*
X130982000Y-95035000D01*
X130707000Y-95035000D01*
X130558424Y-95035000D01*
X130525226Y-94868102D01*
X130447205Y-94679744D01*
X130333937Y-94510226D01*
X130189774Y-94366063D01*
X130020256Y-94252795D01*
X129831898Y-94174774D01*
X129631939Y-94135000D01*
X129428061Y-94135000D01*
X129228102Y-94174774D01*
X129039744Y-94252795D01*
X128870226Y-94366063D01*
X128726063Y-94510226D01*
X128612795Y-94679744D01*
X128534774Y-94868102D01*
X128495000Y-95068061D01*
X126243038Y-95068061D01*
X126247673Y-90068061D01*
X128495000Y-90068061D01*
X128495000Y-90271939D01*
X128534774Y-90471898D01*
X128612795Y-90660256D01*
X128726063Y-90829774D01*
X128870226Y-90973937D01*
X129039744Y-91087205D01*
X129228102Y-91165226D01*
X129428061Y-91205000D01*
X129631939Y-91205000D01*
X129831898Y-91165226D01*
X129848889Y-91158188D01*
X137491380Y-91158188D01*
X137491380Y-91391612D01*
X137536919Y-91620552D01*
X137626246Y-91836208D01*
X137755930Y-92030294D01*
X137920986Y-92195350D01*
X138115072Y-92325034D01*
X138330728Y-92414361D01*
X138559668Y-92459900D01*
X138793092Y-92459900D01*
X139022032Y-92414361D01*
X139237688Y-92325034D01*
X139431774Y-92195350D01*
X139452124Y-92175000D01*
X150309156Y-92175000D01*
X150344606Y-92210450D01*
X150538692Y-92340134D01*
X150754348Y-92429461D01*
X150983288Y-92475000D01*
X151216712Y-92475000D01*
X151445652Y-92429461D01*
X151661308Y-92340134D01*
X151855394Y-92210450D01*
X152020450Y-92045394D01*
X152150134Y-91851308D01*
X152239461Y-91635652D01*
X152285000Y-91406712D01*
X152285000Y-91173288D01*
X152239461Y-90944348D01*
X152150134Y-90728692D01*
X152020450Y-90534606D01*
X151855394Y-90369550D01*
X151661308Y-90239866D01*
X151445652Y-90150539D01*
X151216712Y-90105000D01*
X150983288Y-90105000D01*
X150754348Y-90150539D01*
X150538692Y-90239866D01*
X150344606Y-90369550D01*
X150309156Y-90405000D01*
X139482324Y-90405000D01*
X139431774Y-90354450D01*
X139237688Y-90224766D01*
X139022032Y-90135439D01*
X138793092Y-90089900D01*
X138559668Y-90089900D01*
X138330728Y-90135439D01*
X138115072Y-90224766D01*
X137920986Y-90354450D01*
X137755930Y-90519506D01*
X137626246Y-90713592D01*
X137536919Y-90929248D01*
X137491380Y-91158188D01*
X129848889Y-91158188D01*
X130020256Y-91087205D01*
X130189774Y-90973937D01*
X130333937Y-90829774D01*
X130447205Y-90660256D01*
X130525226Y-90471898D01*
X130565000Y-90271939D01*
X130565000Y-90068061D01*
X130525226Y-89868102D01*
X130453000Y-89693734D01*
X130453000Y-89072000D01*
X130707000Y-89072000D01*
X130707000Y-90305000D01*
X130982000Y-90305000D01*
X131244883Y-90254092D01*
X131492783Y-90152876D01*
X131716173Y-90005242D01*
X131906469Y-89816863D01*
X132056357Y-89594979D01*
X132160078Y-89348117D01*
X132172519Y-89282258D01*
X132049518Y-89072000D01*
X130707000Y-89072000D01*
X130453000Y-89072000D01*
X129110482Y-89072000D01*
X128987481Y-89282258D01*
X128988396Y-89287104D01*
X128870226Y-89366063D01*
X128726063Y-89510226D01*
X128612795Y-89679744D01*
X128534774Y-89868102D01*
X128495000Y-90068061D01*
X126247673Y-90068061D01*
X126247747Y-89988502D01*
X126328000Y-90005000D01*
X126653000Y-90005000D01*
X126653000Y-88922000D01*
X126907000Y-88922000D01*
X126907000Y-90005000D01*
X127232000Y-90005000D01*
X127465619Y-89956974D01*
X127685380Y-89864294D01*
X127882837Y-89730521D01*
X128050402Y-89560797D01*
X128181636Y-89361644D01*
X128271496Y-89140715D01*
X128273635Y-89108677D01*
X128148550Y-88922000D01*
X126907000Y-88922000D01*
X126653000Y-88922000D01*
X126633000Y-88922000D01*
X126633000Y-88668000D01*
X126653000Y-88668000D01*
X126653000Y-87585000D01*
X126907000Y-87585000D01*
X126907000Y-88668000D01*
X128148550Y-88668000D01*
X128188926Y-88607742D01*
X128987481Y-88607742D01*
X129110482Y-88818000D01*
X130453000Y-88818000D01*
X130453000Y-87585000D01*
X130707000Y-87585000D01*
X130707000Y-88818000D01*
X132049518Y-88818000D01*
X132172519Y-88607742D01*
X132160078Y-88541883D01*
X132148064Y-88513288D01*
X134775000Y-88513288D01*
X134775000Y-88746712D01*
X134820539Y-88975652D01*
X134909866Y-89191308D01*
X135039550Y-89385394D01*
X135204606Y-89550450D01*
X135398692Y-89680134D01*
X135614348Y-89769461D01*
X135843288Y-89815000D01*
X136076712Y-89815000D01*
X136305652Y-89769461D01*
X136521308Y-89680134D01*
X136715394Y-89550450D01*
X136880450Y-89385394D01*
X137010134Y-89191308D01*
X137099461Y-88975652D01*
X137145000Y-88746712D01*
X137145000Y-88513288D01*
X137099461Y-88284348D01*
X137010134Y-88068692D01*
X136880450Y-87874606D01*
X136855000Y-87849156D01*
X136855000Y-85295834D01*
X136890450Y-85260384D01*
X137020134Y-85066298D01*
X137109461Y-84850642D01*
X137155000Y-84621702D01*
X137155000Y-84388278D01*
X137109461Y-84159338D01*
X137020134Y-83943682D01*
X136890450Y-83749596D01*
X136725394Y-83584540D01*
X136531308Y-83454856D01*
X136315652Y-83365529D01*
X136086712Y-83319990D01*
X135853288Y-83319990D01*
X135624348Y-83365529D01*
X135408692Y-83454856D01*
X135214606Y-83584540D01*
X135049550Y-83749596D01*
X134919866Y-83943682D01*
X134830539Y-84159338D01*
X134785000Y-84388278D01*
X134785000Y-84621702D01*
X134830539Y-84850642D01*
X134919866Y-85066298D01*
X135049550Y-85260384D01*
X135085000Y-85295834D01*
X135085001Y-87829155D01*
X135039550Y-87874606D01*
X134909866Y-88068692D01*
X134820539Y-88284348D01*
X134775000Y-88513288D01*
X132148064Y-88513288D01*
X132056357Y-88295021D01*
X131906469Y-88073137D01*
X131716173Y-87884758D01*
X131492783Y-87737124D01*
X131244883Y-87635908D01*
X130982000Y-87585000D01*
X130707000Y-87585000D01*
X130453000Y-87585000D01*
X130178000Y-87585000D01*
X129915117Y-87635908D01*
X129667217Y-87737124D01*
X129443827Y-87884758D01*
X129253531Y-88073137D01*
X129103643Y-88295021D01*
X128999922Y-88541883D01*
X128987481Y-88607742D01*
X128188926Y-88607742D01*
X128273635Y-88481323D01*
X128271496Y-88449285D01*
X128181636Y-88228356D01*
X128050402Y-88029203D01*
X127882837Y-87859479D01*
X127685380Y-87725706D01*
X127465619Y-87633026D01*
X127232000Y-87585000D01*
X126907000Y-87585000D01*
X126653000Y-87585000D01*
X126328000Y-87585000D01*
X126249960Y-87601043D01*
X126252551Y-84804999D01*
X126861928Y-84804999D01*
X126861928Y-86055001D01*
X126878992Y-86228255D01*
X126929528Y-86394851D01*
X127011595Y-86548387D01*
X127122038Y-86682962D01*
X127256613Y-86793405D01*
X127410149Y-86875472D01*
X127576745Y-86926008D01*
X127749999Y-86943072D01*
X128450001Y-86943072D01*
X128623255Y-86926008D01*
X128789851Y-86875472D01*
X128943387Y-86793405D01*
X129077962Y-86682962D01*
X129188405Y-86548387D01*
X129190967Y-86543594D01*
X129316526Y-86668078D01*
X129519467Y-86802421D01*
X129744718Y-86894591D01*
X129782391Y-86898462D01*
X129973000Y-86773731D01*
X129973000Y-85557000D01*
X130227000Y-85557000D01*
X130227000Y-86773731D01*
X130417609Y-86898462D01*
X130455282Y-86894591D01*
X130680533Y-86802421D01*
X130883474Y-86668078D01*
X131056307Y-86496725D01*
X131192390Y-86294946D01*
X131286493Y-86070496D01*
X131335000Y-85832000D01*
X131335000Y-85557000D01*
X130227000Y-85557000D01*
X129973000Y-85557000D01*
X129953000Y-85557000D01*
X129953000Y-85303000D01*
X129973000Y-85303000D01*
X129973000Y-84086269D01*
X130227000Y-84086269D01*
X130227000Y-85303000D01*
X131335000Y-85303000D01*
X131335000Y-85028000D01*
X131286493Y-84789504D01*
X131192390Y-84565054D01*
X131056307Y-84363275D01*
X130883474Y-84191922D01*
X130680533Y-84057579D01*
X130455282Y-83965409D01*
X130417609Y-83961538D01*
X130227000Y-84086269D01*
X129973000Y-84086269D01*
X129782391Y-83961538D01*
X129744718Y-83965409D01*
X129519467Y-84057579D01*
X129316526Y-84191922D01*
X129190967Y-84316406D01*
X129188405Y-84311613D01*
X129077962Y-84177038D01*
X128943387Y-84066595D01*
X128789851Y-83984528D01*
X128623255Y-83933992D01*
X128450001Y-83916928D01*
X127749999Y-83916928D01*
X127576745Y-83933992D01*
X127410149Y-83984528D01*
X127256613Y-84066595D01*
X127122038Y-84177038D01*
X127011595Y-84311613D01*
X126929528Y-84465149D01*
X126878992Y-84631745D01*
X126861928Y-84804999D01*
X126252551Y-84804999D01*
X126259380Y-77437114D01*
X126538367Y-77623528D01*
X126999708Y-77814622D01*
X127489464Y-77912040D01*
X127988816Y-77912040D01*
X128478572Y-77814622D01*
X128939913Y-77623528D01*
X129266586Y-77405251D01*
X131405599Y-77405251D01*
X131502923Y-77679612D01*
X131651902Y-77929715D01*
X131846811Y-78145948D01*
X132080160Y-78320001D01*
X132342981Y-78445185D01*
X132490190Y-78489836D01*
X132720080Y-78368515D01*
X132720080Y-77175360D01*
X131526266Y-77175360D01*
X131405599Y-77405251D01*
X129266586Y-77405251D01*
X129355108Y-77346103D01*
X129708203Y-76993008D01*
X129909685Y-76691469D01*
X131405599Y-76691469D01*
X131526266Y-76921360D01*
X132720080Y-76921360D01*
X132720080Y-75728205D01*
X132974080Y-75728205D01*
X132974080Y-76921360D01*
X132994080Y-76921360D01*
X132994080Y-77175360D01*
X132974080Y-77175360D01*
X132974080Y-78368515D01*
X133203970Y-78489836D01*
X133351179Y-78445185D01*
X133614000Y-78320001D01*
X133847349Y-78145948D01*
X133923114Y-78061894D01*
X133947578Y-78142540D01*
X134006543Y-78252854D01*
X134085895Y-78349545D01*
X134182586Y-78428897D01*
X134292900Y-78487862D01*
X134412598Y-78524172D01*
X134537080Y-78536432D01*
X136237080Y-78536432D01*
X136361562Y-78524172D01*
X136481260Y-78487862D01*
X136591574Y-78428897D01*
X136688265Y-78349545D01*
X136767617Y-78252854D01*
X136826582Y-78142540D01*
X136838467Y-78103360D01*
X144871808Y-78103360D01*
X144871808Y-79803360D01*
X144884068Y-79927842D01*
X144920378Y-80047540D01*
X144979343Y-80157854D01*
X145058695Y-80254545D01*
X145155386Y-80333897D01*
X145265700Y-80392862D01*
X145385398Y-80429172D01*
X145509880Y-80441432D01*
X145600000Y-80441432D01*
X145600001Y-83552668D01*
X145596324Y-83590000D01*
X145600001Y-83627333D01*
X145610998Y-83738986D01*
X145619065Y-83765579D01*
X145654454Y-83882246D01*
X145725026Y-84014276D01*
X145767964Y-84066595D01*
X145820000Y-84130001D01*
X145848998Y-84153799D01*
X147686200Y-85991002D01*
X147709999Y-86020001D01*
X147825724Y-86114974D01*
X147957753Y-86185546D01*
X148101014Y-86229003D01*
X148212667Y-86240000D01*
X148212675Y-86240000D01*
X148250000Y-86243676D01*
X148287325Y-86240000D01*
X166305199Y-86240000D01*
X168180000Y-88114803D01*
X168180001Y-102335197D01*
X166175199Y-104340000D01*
X163146991Y-104340000D01*
X163103054Y-104296063D01*
X162933536Y-104182795D01*
X162745178Y-104104774D01*
X162545219Y-104065000D01*
X162341341Y-104065000D01*
X162141382Y-104104774D01*
X161953024Y-104182795D01*
X161783506Y-104296063D01*
X161639343Y-104440226D01*
X161526075Y-104609744D01*
X161448054Y-104798102D01*
X161408280Y-104998061D01*
X161408280Y-105201939D01*
X161448054Y-105401898D01*
X161526075Y-105590256D01*
X161639343Y-105759774D01*
X161783506Y-105903937D01*
X161953024Y-106017205D01*
X162141382Y-106095226D01*
X162341341Y-106135000D01*
X162545219Y-106135000D01*
X162745178Y-106095226D01*
X162933536Y-106017205D01*
X163103054Y-105903937D01*
X163146991Y-105860000D01*
X166452678Y-105860000D01*
X166490000Y-105863676D01*
X166527322Y-105860000D01*
X166527333Y-105860000D01*
X166638986Y-105849003D01*
X166782247Y-105805546D01*
X166914276Y-105734974D01*
X167030001Y-105640001D01*
X167053804Y-105610997D01*
X169451003Y-103213799D01*
X169480001Y-103190001D01*
X169574974Y-103074276D01*
X169645546Y-102942247D01*
X169689003Y-102798986D01*
X169700000Y-102687333D01*
X169700000Y-102687324D01*
X169703676Y-102650001D01*
X169700000Y-102612678D01*
X169700000Y-87837322D01*
X169703676Y-87799999D01*
X169700000Y-87762676D01*
X169700000Y-87762667D01*
X169689003Y-87651014D01*
X169645546Y-87507753D01*
X169574974Y-87375724D01*
X169561811Y-87359685D01*
X169503799Y-87288996D01*
X169503795Y-87288992D01*
X169480001Y-87259999D01*
X169451009Y-87236206D01*
X167183804Y-84969002D01*
X167160001Y-84939999D01*
X167044276Y-84845026D01*
X166912247Y-84774454D01*
X166768986Y-84730997D01*
X166657333Y-84720000D01*
X166657322Y-84720000D01*
X166620000Y-84716324D01*
X166582678Y-84720000D01*
X148564802Y-84720000D01*
X147120000Y-83275199D01*
X147120000Y-80441432D01*
X147209880Y-80441432D01*
X147334362Y-80429172D01*
X147454060Y-80392862D01*
X147564374Y-80333897D01*
X147661065Y-80254545D01*
X147740417Y-80157854D01*
X147799382Y-80047540D01*
X147821393Y-79974980D01*
X147953248Y-80106835D01*
X148196469Y-80269350D01*
X148466722Y-80381292D01*
X148753620Y-80438360D01*
X149046140Y-80438360D01*
X149333038Y-80381292D01*
X149603291Y-80269350D01*
X149846512Y-80106835D01*
X150053355Y-79899992D01*
X150175075Y-79717826D01*
X150244702Y-79834715D01*
X150439611Y-80050948D01*
X150672960Y-80225001D01*
X150935781Y-80350185D01*
X151082990Y-80394836D01*
X151312880Y-80273515D01*
X151312880Y-79080360D01*
X151566880Y-79080360D01*
X151566880Y-80273515D01*
X151796770Y-80394836D01*
X151943979Y-80350185D01*
X152206800Y-80225001D01*
X152440149Y-80050948D01*
X152635058Y-79834715D01*
X152784037Y-79584612D01*
X152881361Y-79310251D01*
X152760694Y-79080360D01*
X151566880Y-79080360D01*
X151312880Y-79080360D01*
X151292880Y-79080360D01*
X151292880Y-78826360D01*
X151312880Y-78826360D01*
X151312880Y-77633205D01*
X151566880Y-77633205D01*
X151566880Y-78826360D01*
X152760694Y-78826360D01*
X152881361Y-78596469D01*
X152784037Y-78322108D01*
X152635058Y-78072005D01*
X152440149Y-77855772D01*
X152206800Y-77681719D01*
X151943979Y-77556535D01*
X151796770Y-77511884D01*
X151566880Y-77633205D01*
X151312880Y-77633205D01*
X151082990Y-77511884D01*
X150935781Y-77556535D01*
X150672960Y-77681719D01*
X150439611Y-77855772D01*
X150244702Y-78072005D01*
X150175075Y-78188894D01*
X150053355Y-78006728D01*
X149846512Y-77799885D01*
X149603291Y-77637370D01*
X149333038Y-77525428D01*
X149046140Y-77468360D01*
X148753620Y-77468360D01*
X148466722Y-77525428D01*
X148196469Y-77637370D01*
X147953248Y-77799885D01*
X147821393Y-77931740D01*
X147799382Y-77859180D01*
X147740417Y-77748866D01*
X147661065Y-77652175D01*
X147564374Y-77572823D01*
X147454060Y-77513858D01*
X147334362Y-77477548D01*
X147209880Y-77465288D01*
X145509880Y-77465288D01*
X145385398Y-77477548D01*
X145265700Y-77513858D01*
X145155386Y-77572823D01*
X145058695Y-77652175D01*
X144979343Y-77748866D01*
X144920378Y-77859180D01*
X144884068Y-77978878D01*
X144871808Y-78103360D01*
X136838467Y-78103360D01*
X136862892Y-78022842D01*
X136875152Y-77898360D01*
X136875152Y-76198360D01*
X136862892Y-76073878D01*
X136826582Y-75954180D01*
X136767617Y-75843866D01*
X136688265Y-75747175D01*
X136591574Y-75667823D01*
X136481260Y-75608858D01*
X136361562Y-75572548D01*
X136237080Y-75560288D01*
X134537080Y-75560288D01*
X134412598Y-75572548D01*
X134292900Y-75608858D01*
X134182586Y-75667823D01*
X134085895Y-75747175D01*
X134006543Y-75843866D01*
X133947578Y-75954180D01*
X133923114Y-76034826D01*
X133847349Y-75950772D01*
X133614000Y-75776719D01*
X133351179Y-75651535D01*
X133203970Y-75606884D01*
X132974080Y-75728205D01*
X132720080Y-75728205D01*
X132490190Y-75606884D01*
X132342981Y-75651535D01*
X132080160Y-75776719D01*
X131846811Y-75950772D01*
X131651902Y-76167005D01*
X131502923Y-76417108D01*
X131405599Y-76691469D01*
X129909685Y-76691469D01*
X129985628Y-76577813D01*
X130176722Y-76116472D01*
X130274140Y-75626716D01*
X130274140Y-75127364D01*
X130176722Y-74637608D01*
X129985628Y-74176267D01*
X129808632Y-73911374D01*
X133603715Y-73908120D01*
X167915524Y-73949861D01*
%TA.AperFunction,Conductor*%
D21*
G36*
X167915524Y-73949861D02*
G01*
X167735392Y-74219447D01*
X167544298Y-74680788D01*
X167446880Y-75170544D01*
X167446880Y-75669896D01*
X167544298Y-76159652D01*
X167735392Y-76620993D01*
X168012817Y-77036188D01*
X168365912Y-77389283D01*
X168781107Y-77666708D01*
X169242448Y-77857802D01*
X169732204Y-77955220D01*
X170231556Y-77955220D01*
X170721312Y-77857802D01*
X171182653Y-77666708D01*
X171455000Y-77484731D01*
X171455001Y-121073824D01*
X171195353Y-120900332D01*
X170734012Y-120709238D01*
X170244256Y-120611820D01*
X169744904Y-120611820D01*
X169255148Y-120709238D01*
X168793807Y-120900332D01*
X168378612Y-121177757D01*
X168025517Y-121530852D01*
X167748092Y-121946047D01*
X167556998Y-122407388D01*
X167459580Y-122897144D01*
X167459580Y-123396496D01*
X167556998Y-123886252D01*
X167748092Y-124347593D01*
X167927976Y-124616808D01*
X129749089Y-124633190D01*
X129934828Y-124355213D01*
X130125922Y-123893872D01*
X130223340Y-123404116D01*
X130223340Y-122904764D01*
X130125922Y-122415008D01*
X129934828Y-121953667D01*
X129657403Y-121538472D01*
X129304308Y-121185377D01*
X128889113Y-120907952D01*
X128427772Y-120716858D01*
X127938016Y-120619440D01*
X127438664Y-120619440D01*
X126948908Y-120716858D01*
X126487567Y-120907952D01*
X126218923Y-121087455D01*
X126228216Y-111060000D01*
X133451928Y-111060000D01*
X133464188Y-111184482D01*
X133500498Y-111304180D01*
X133559463Y-111414494D01*
X133638815Y-111511185D01*
X133735506Y-111590537D01*
X133845820Y-111649502D01*
X133918380Y-111671513D01*
X133786525Y-111803368D01*
X133624010Y-112046589D01*
X133512068Y-112316842D01*
X133455000Y-112603740D01*
X133455000Y-112896260D01*
X133512068Y-113183158D01*
X133624010Y-113453411D01*
X133786525Y-113696632D01*
X133993368Y-113903475D01*
X134167760Y-114020000D01*
X133993368Y-114136525D01*
X133786525Y-114343368D01*
X133624010Y-114586589D01*
X133512068Y-114856842D01*
X133455000Y-115143740D01*
X133455000Y-115436260D01*
X133512068Y-115723158D01*
X133624010Y-115993411D01*
X133786525Y-116236632D01*
X133993368Y-116443475D01*
X134167760Y-116560000D01*
X133993368Y-116676525D01*
X133786525Y-116883368D01*
X133624010Y-117126589D01*
X133512068Y-117396842D01*
X133455000Y-117683740D01*
X133455000Y-117976260D01*
X133512068Y-118263158D01*
X133624010Y-118533411D01*
X133786525Y-118776632D01*
X133993368Y-118983475D01*
X134167760Y-119100000D01*
X133993368Y-119216525D01*
X133786525Y-119423368D01*
X133624010Y-119666589D01*
X133512068Y-119936842D01*
X133455000Y-120223740D01*
X133455000Y-120516260D01*
X133512068Y-120803158D01*
X133624010Y-121073411D01*
X133786525Y-121316632D01*
X133993368Y-121523475D01*
X134167760Y-121640000D01*
X133993368Y-121756525D01*
X133786525Y-121963368D01*
X133624010Y-122206589D01*
X133512068Y-122476842D01*
X133455000Y-122763740D01*
X133455000Y-123056260D01*
X133512068Y-123343158D01*
X133624010Y-123613411D01*
X133786525Y-123856632D01*
X133993368Y-124063475D01*
X134236589Y-124225990D01*
X134506842Y-124337932D01*
X134793740Y-124395000D01*
X135086260Y-124395000D01*
X135373158Y-124337932D01*
X135643411Y-124225990D01*
X135886632Y-124063475D01*
X136093475Y-123856632D01*
X136255990Y-123613411D01*
X136367932Y-123343158D01*
X136425000Y-123056260D01*
X136425000Y-122763740D01*
X136367932Y-122476842D01*
X136255990Y-122206589D01*
X136093475Y-121963368D01*
X135886632Y-121756525D01*
X135712240Y-121640000D01*
X135886632Y-121523475D01*
X136093475Y-121316632D01*
X136255990Y-121073411D01*
X136367932Y-120803158D01*
X136425000Y-120516260D01*
X136425000Y-120223740D01*
X136367932Y-119936842D01*
X136255990Y-119666589D01*
X136093475Y-119423368D01*
X135886632Y-119216525D01*
X135712240Y-119100000D01*
X135886632Y-118983475D01*
X136093475Y-118776632D01*
X136255990Y-118533411D01*
X136367932Y-118263158D01*
X136425000Y-117976260D01*
X136425000Y-117683740D01*
X136367932Y-117396842D01*
X136255990Y-117126589D01*
X136093475Y-116883368D01*
X135886632Y-116676525D01*
X135712240Y-116560000D01*
X135886632Y-116443475D01*
X136093475Y-116236632D01*
X136151664Y-116149546D01*
X136501600Y-116499482D01*
X136501601Y-120544268D01*
X136497924Y-120581600D01*
X136512598Y-120730585D01*
X136556054Y-120873846D01*
X136626626Y-121005876D01*
X136697801Y-121092602D01*
X136721600Y-121121601D01*
X136750598Y-121145399D01*
X137456201Y-121851002D01*
X137479999Y-121880001D01*
X137508997Y-121903799D01*
X137595724Y-121974974D01*
X137727753Y-122045546D01*
X137871014Y-122089003D01*
X138020000Y-122103677D01*
X138057333Y-122100000D01*
X153226289Y-122100000D01*
X153270226Y-122143937D01*
X153439744Y-122257205D01*
X153628102Y-122335226D01*
X153828061Y-122375000D01*
X154031939Y-122375000D01*
X154231898Y-122335226D01*
X154420256Y-122257205D01*
X154589774Y-122143937D01*
X154733937Y-121999774D01*
X154847205Y-121830256D01*
X154925226Y-121641898D01*
X154965000Y-121441939D01*
X154965000Y-121238061D01*
X154925226Y-121038102D01*
X154847205Y-120849744D01*
X154733937Y-120680226D01*
X154589774Y-120536063D01*
X154420256Y-120422795D01*
X154231898Y-120344774D01*
X154031939Y-120305000D01*
X153828061Y-120305000D01*
X153628102Y-120344774D01*
X153439744Y-120422795D01*
X153270226Y-120536063D01*
X153226289Y-120580000D01*
X138334802Y-120580000D01*
X138021600Y-120266799D01*
X138021600Y-116222002D01*
X138025276Y-116184680D01*
X138021600Y-116147357D01*
X138021600Y-116147347D01*
X138010603Y-116035694D01*
X137967146Y-115892433D01*
X137935879Y-115833937D01*
X137896574Y-115760403D01*
X137825399Y-115673677D01*
X137801601Y-115644679D01*
X137772604Y-115620882D01*
X136900723Y-114749002D01*
X136876921Y-114719999D01*
X136761196Y-114625026D01*
X136629167Y-114554454D01*
X136485906Y-114510997D01*
X136374253Y-114500000D01*
X136374242Y-114500000D01*
X136336920Y-114496324D01*
X136299598Y-114500000D01*
X136198133Y-114500000D01*
X136093475Y-114343368D01*
X135886632Y-114136525D01*
X135712240Y-114020000D01*
X135886632Y-113903475D01*
X136093475Y-113696632D01*
X136255990Y-113453411D01*
X136367932Y-113183158D01*
X136425000Y-112896260D01*
X136425000Y-112603740D01*
X136367932Y-112316842D01*
X136255990Y-112046589D01*
X136093475Y-111803368D01*
X135961620Y-111671513D01*
X136034180Y-111649502D01*
X136144494Y-111590537D01*
X136241185Y-111511185D01*
X136320537Y-111414494D01*
X136379502Y-111304180D01*
X136415812Y-111184482D01*
X136428072Y-111060000D01*
X136425000Y-110495750D01*
X136266250Y-110337000D01*
X135067000Y-110337000D01*
X135067000Y-110357000D01*
X134813000Y-110357000D01*
X134813000Y-110337000D01*
X133613750Y-110337000D01*
X133455000Y-110495750D01*
X133451928Y-111060000D01*
X126228216Y-111060000D01*
X126229791Y-109360000D01*
X133451928Y-109360000D01*
X133455000Y-109924250D01*
X133613750Y-110083000D01*
X134813000Y-110083000D01*
X134813000Y-108883750D01*
X135067000Y-108883750D01*
X135067000Y-110083000D01*
X136266250Y-110083000D01*
X136425000Y-109924250D01*
X136428072Y-109360000D01*
X136415812Y-109235518D01*
X136379502Y-109115820D01*
X136320537Y-109005506D01*
X136241185Y-108908815D01*
X136144494Y-108829463D01*
X136034180Y-108770498D01*
X135914482Y-108734188D01*
X135790000Y-108721928D01*
X135225750Y-108725000D01*
X135067000Y-108883750D01*
X134813000Y-108883750D01*
X134654250Y-108725000D01*
X134090000Y-108721928D01*
X133965518Y-108734188D01*
X133845820Y-108770498D01*
X133735506Y-108829463D01*
X133638815Y-108908815D01*
X133559463Y-109005506D01*
X133500498Y-109115820D01*
X133464188Y-109235518D01*
X133451928Y-109360000D01*
X126229791Y-109360000D01*
X126235494Y-103208072D01*
X127880000Y-103208072D01*
X128004482Y-103195812D01*
X128124180Y-103159502D01*
X128234494Y-103100537D01*
X128331185Y-103021185D01*
X128410537Y-102924494D01*
X128469502Y-102814180D01*
X128491513Y-102741620D01*
X128623368Y-102873475D01*
X128866589Y-103035990D01*
X129136842Y-103147932D01*
X129423740Y-103205000D01*
X129716260Y-103205000D01*
X130003158Y-103147932D01*
X130273411Y-103035990D01*
X130516632Y-102873475D01*
X130723475Y-102666632D01*
X130845195Y-102484466D01*
X130914822Y-102601355D01*
X131109731Y-102817588D01*
X131343080Y-102991641D01*
X131605901Y-103116825D01*
X131753110Y-103161476D01*
X131983000Y-103040155D01*
X131983000Y-101847000D01*
X131963000Y-101847000D01*
X131963000Y-101593000D01*
X131983000Y-101593000D01*
X131983000Y-100399845D01*
X132237000Y-100399845D01*
X132237000Y-101593000D01*
X132257000Y-101593000D01*
X132257000Y-101847000D01*
X132237000Y-101847000D01*
X132237000Y-103040155D01*
X132466890Y-103161476D01*
X132614099Y-103116825D01*
X132876920Y-102991641D01*
X133110269Y-102817588D01*
X133305178Y-102601355D01*
X133374805Y-102484466D01*
X133496525Y-102666632D01*
X133703368Y-102873475D01*
X133946589Y-103035990D01*
X134216842Y-103147932D01*
X134503740Y-103205000D01*
X134796260Y-103205000D01*
X135016408Y-103161209D01*
X141350000Y-109494802D01*
X141350001Y-118426288D01*
X141306063Y-118470226D01*
X141192795Y-118639744D01*
X141114774Y-118828102D01*
X141075000Y-119028061D01*
X141075000Y-119231939D01*
X141114774Y-119431898D01*
X141192795Y-119620256D01*
X141306063Y-119789774D01*
X141450226Y-119933937D01*
X141619744Y-120047205D01*
X141808102Y-120125226D01*
X142008061Y-120165000D01*
X142211939Y-120165000D01*
X142411898Y-120125226D01*
X142600256Y-120047205D01*
X142769774Y-119933937D01*
X142913937Y-119789774D01*
X143027205Y-119620256D01*
X143105226Y-119431898D01*
X143145000Y-119231939D01*
X143145000Y-119028061D01*
X143105226Y-118828102D01*
X143027205Y-118639744D01*
X142913937Y-118470226D01*
X142870000Y-118426289D01*
X142870000Y-116047484D01*
X142958061Y-116065000D01*
X143161939Y-116065000D01*
X143361898Y-116025226D01*
X143550256Y-115947205D01*
X143719774Y-115833937D01*
X143863937Y-115689774D01*
X143977205Y-115520256D01*
X144055226Y-115331898D01*
X144095000Y-115131939D01*
X144095000Y-114928061D01*
X144055226Y-114728102D01*
X143977205Y-114539744D01*
X143863937Y-114370226D01*
X143820000Y-114326289D01*
X143820000Y-109658061D01*
X161465000Y-109658061D01*
X161465000Y-109861939D01*
X161504774Y-110061898D01*
X161582795Y-110250256D01*
X161696063Y-110419774D01*
X161840226Y-110563937D01*
X162009744Y-110677205D01*
X162198102Y-110755226D01*
X162398061Y-110795000D01*
X162601939Y-110795000D01*
X162801898Y-110755226D01*
X162990256Y-110677205D01*
X163159774Y-110563937D01*
X163303937Y-110419774D01*
X163417205Y-110250256D01*
X163495226Y-110061898D01*
X163535000Y-109861939D01*
X163535000Y-109658061D01*
X163495226Y-109458102D01*
X163417205Y-109269744D01*
X163303937Y-109100226D01*
X163159774Y-108956063D01*
X162990256Y-108842795D01*
X162801898Y-108764774D01*
X162601939Y-108725000D01*
X162398061Y-108725000D01*
X162198102Y-108764774D01*
X162009744Y-108842795D01*
X161840226Y-108956063D01*
X161696063Y-109100226D01*
X161582795Y-109269744D01*
X161504774Y-109458102D01*
X161465000Y-109658061D01*
X143820000Y-109658061D01*
X143820000Y-107937322D01*
X143823676Y-107899999D01*
X143820000Y-107862676D01*
X143820000Y-107862667D01*
X143809003Y-107751014D01*
X143765546Y-107607753D01*
X143694974Y-107475724D01*
X143681811Y-107459685D01*
X143623799Y-107388996D01*
X143623795Y-107388992D01*
X143600001Y-107359999D01*
X143571008Y-107336205D01*
X139569567Y-103334766D01*
X139523799Y-103278998D01*
X139518804Y-103274003D01*
X139518799Y-103273997D01*
X139416544Y-103171742D01*
X139583740Y-103205000D01*
X139876260Y-103205000D01*
X140163158Y-103147932D01*
X140433411Y-103035990D01*
X140676632Y-102873475D01*
X140883475Y-102666632D01*
X141000000Y-102492240D01*
X141116525Y-102666632D01*
X141323368Y-102873475D01*
X141566589Y-103035990D01*
X141836842Y-103147932D01*
X142123740Y-103205000D01*
X142416260Y-103205000D01*
X142703158Y-103147932D01*
X142973411Y-103035990D01*
X143216632Y-102873475D01*
X143423475Y-102666632D01*
X143540000Y-102492240D01*
X143656525Y-102666632D01*
X143863368Y-102873475D01*
X144106589Y-103035990D01*
X144376842Y-103147932D01*
X144663740Y-103205000D01*
X144956260Y-103205000D01*
X145243158Y-103147932D01*
X145513411Y-103035990D01*
X145756632Y-102873475D01*
X145963475Y-102666632D01*
X146125990Y-102423411D01*
X146237932Y-102153158D01*
X146295000Y-101866260D01*
X146295000Y-101573740D01*
X146237932Y-101286842D01*
X146209003Y-101217000D01*
X146352419Y-101217000D01*
X148889805Y-103754388D01*
X148913599Y-103783381D01*
X148942592Y-103807175D01*
X148942596Y-103807179D01*
X149013285Y-103865191D01*
X149029324Y-103878354D01*
X149161353Y-103948926D01*
X149304614Y-103992383D01*
X149416267Y-104003380D01*
X149416276Y-104003380D01*
X149453599Y-104007056D01*
X149490922Y-104003380D01*
X162559298Y-104003380D01*
X162596620Y-104007056D01*
X162633942Y-104003380D01*
X162633953Y-104003380D01*
X162745606Y-103992383D01*
X162888867Y-103948926D01*
X163020896Y-103878354D01*
X163136621Y-103783381D01*
X163160423Y-103754378D01*
X163746095Y-103168707D01*
X163963740Y-103212000D01*
X164256260Y-103212000D01*
X164543158Y-103154932D01*
X164813411Y-103042990D01*
X165056632Y-102880475D01*
X165263475Y-102673632D01*
X165380000Y-102499240D01*
X165496525Y-102673632D01*
X165703368Y-102880475D01*
X165946589Y-103042990D01*
X166216842Y-103154932D01*
X166503740Y-103212000D01*
X166796260Y-103212000D01*
X167083158Y-103154932D01*
X167353411Y-103042990D01*
X167596632Y-102880475D01*
X167803475Y-102673632D01*
X167965990Y-102430411D01*
X168077932Y-102160158D01*
X168135000Y-101873260D01*
X168135000Y-101580740D01*
X168077932Y-101293842D01*
X167965990Y-101023589D01*
X167803475Y-100780368D01*
X167596632Y-100573525D01*
X167353411Y-100411010D01*
X167083158Y-100299068D01*
X166796260Y-100242000D01*
X166503740Y-100242000D01*
X166216842Y-100299068D01*
X165946589Y-100411010D01*
X165703368Y-100573525D01*
X165496525Y-100780368D01*
X165380000Y-100954760D01*
X165263475Y-100780368D01*
X165056632Y-100573525D01*
X164813411Y-100411010D01*
X164543158Y-100299068D01*
X164256260Y-100242000D01*
X163963740Y-100242000D01*
X163676842Y-100299068D01*
X163406589Y-100411010D01*
X163163368Y-100573525D01*
X162956525Y-100780368D01*
X162840000Y-100954760D01*
X162723475Y-100780368D01*
X162516632Y-100573525D01*
X162273411Y-100411010D01*
X162003158Y-100299068D01*
X161716260Y-100242000D01*
X161423740Y-100242000D01*
X161136842Y-100299068D01*
X160866589Y-100411010D01*
X160623368Y-100573525D01*
X160416525Y-100780368D01*
X160300000Y-100954760D01*
X160183475Y-100780368D01*
X159976632Y-100573525D01*
X159733411Y-100411010D01*
X159463158Y-100299068D01*
X159176260Y-100242000D01*
X158883740Y-100242000D01*
X158669431Y-100284629D01*
X157211002Y-98826201D01*
X157033804Y-98649003D01*
X157010001Y-98619999D01*
X156894276Y-98525026D01*
X156762247Y-98454454D01*
X156618986Y-98410997D01*
X156507333Y-98400000D01*
X156507322Y-98400000D01*
X156470000Y-98396324D01*
X156432678Y-98400000D01*
X137147322Y-98400000D01*
X137109999Y-98396324D01*
X137072677Y-98400000D01*
X137072667Y-98400000D01*
X136961014Y-98410997D01*
X136817753Y-98454454D01*
X136685723Y-98525026D01*
X136602083Y-98593668D01*
X136569999Y-98619999D01*
X136546201Y-98648997D01*
X134932999Y-100262199D01*
X134796260Y-100235000D01*
X134503740Y-100235000D01*
X134216842Y-100292068D01*
X133946589Y-100404010D01*
X133703368Y-100566525D01*
X133496525Y-100773368D01*
X133374805Y-100955534D01*
X133305178Y-100838645D01*
X133110269Y-100622412D01*
X132876920Y-100448359D01*
X132614099Y-100323175D01*
X132466890Y-100278524D01*
X132237000Y-100399845D01*
X131983000Y-100399845D01*
X131753110Y-100278524D01*
X131605901Y-100323175D01*
X131343080Y-100448359D01*
X131109731Y-100622412D01*
X130914822Y-100838645D01*
X130845195Y-100955534D01*
X130723475Y-100773368D01*
X130516632Y-100566525D01*
X130273411Y-100404010D01*
X130003158Y-100292068D01*
X129716260Y-100235000D01*
X129423740Y-100235000D01*
X129136842Y-100292068D01*
X128866589Y-100404010D01*
X128623368Y-100566525D01*
X128491513Y-100698380D01*
X128469502Y-100625820D01*
X128410537Y-100515506D01*
X128331185Y-100418815D01*
X128234494Y-100339463D01*
X128124180Y-100280498D01*
X128004482Y-100244188D01*
X127880000Y-100231928D01*
X126238253Y-100231928D01*
X126240565Y-97737026D01*
X126328000Y-97755000D01*
X126653000Y-97755000D01*
X126653000Y-96672000D01*
X126907000Y-96672000D01*
X126907000Y-97755000D01*
X127232000Y-97755000D01*
X127465619Y-97706974D01*
X127685380Y-97614294D01*
X127882837Y-97480521D01*
X128050402Y-97310797D01*
X128181636Y-97111644D01*
X128271496Y-96890715D01*
X128273635Y-96858677D01*
X128188927Y-96732258D01*
X128987481Y-96732258D01*
X128999922Y-96798117D01*
X129103643Y-97044979D01*
X129253531Y-97266863D01*
X129443827Y-97455242D01*
X129667217Y-97602876D01*
X129915117Y-97704092D01*
X130178000Y-97755000D01*
X130453000Y-97755000D01*
X130453000Y-96522000D01*
X130707000Y-96522000D01*
X130707000Y-97755000D01*
X130982000Y-97755000D01*
X131244883Y-97704092D01*
X131492783Y-97602876D01*
X131716173Y-97455242D01*
X131906469Y-97266863D01*
X132056357Y-97044979D01*
X132160078Y-96798117D01*
X132172519Y-96732258D01*
X132049518Y-96522000D01*
X130707000Y-96522000D01*
X130453000Y-96522000D01*
X129110482Y-96522000D01*
X128987481Y-96732258D01*
X128188927Y-96732258D01*
X128148550Y-96672000D01*
X126907000Y-96672000D01*
X126653000Y-96672000D01*
X126633000Y-96672000D01*
X126633000Y-96418000D01*
X126653000Y-96418000D01*
X126653000Y-95335000D01*
X126907000Y-95335000D01*
X126907000Y-96418000D01*
X128148550Y-96418000D01*
X128220326Y-96310881D01*
X150369440Y-96310881D01*
X150369440Y-96514759D01*
X150409214Y-96714718D01*
X150487235Y-96903076D01*
X150600503Y-97072594D01*
X150744666Y-97216757D01*
X150914184Y-97330025D01*
X151102542Y-97408046D01*
X151302501Y-97447820D01*
X151506379Y-97447820D01*
X151706338Y-97408046D01*
X151894696Y-97330025D01*
X151911735Y-97318640D01*
X154300916Y-97318640D01*
X154465482Y-97386806D01*
X154665441Y-97426580D01*
X154869319Y-97426580D01*
X155069278Y-97386806D01*
X155257636Y-97308785D01*
X155427154Y-97195517D01*
X155571317Y-97051354D01*
X155684585Y-96881836D01*
X155762606Y-96693478D01*
X155802380Y-96493519D01*
X155802380Y-96289641D01*
X155762606Y-96089682D01*
X155684585Y-95901324D01*
X155571317Y-95731806D01*
X155427154Y-95587643D01*
X155257636Y-95474375D01*
X155069278Y-95396354D01*
X154869319Y-95356580D01*
X154665441Y-95356580D01*
X154465482Y-95396354D01*
X154277124Y-95474375D01*
X154165978Y-95548640D01*
X151974054Y-95548640D01*
X151894696Y-95495615D01*
X151706338Y-95417594D01*
X151506379Y-95377820D01*
X151302501Y-95377820D01*
X151102542Y-95417594D01*
X150914184Y-95495615D01*
X150744666Y-95608883D01*
X150600503Y-95753046D01*
X150487235Y-95922564D01*
X150409214Y-96110922D01*
X150369440Y-96310881D01*
X128220326Y-96310881D01*
X128273635Y-96231323D01*
X128271496Y-96199285D01*
X128181636Y-95978356D01*
X128050402Y-95779203D01*
X127882837Y-95609479D01*
X127685380Y-95475706D01*
X127465619Y-95383026D01*
X127232000Y-95335000D01*
X126907000Y-95335000D01*
X126653000Y-95335000D01*
X126328000Y-95335000D01*
X126242775Y-95352520D01*
X126243038Y-95068061D01*
X128495000Y-95068061D01*
X128495000Y-95271939D01*
X128534774Y-95471898D01*
X128612795Y-95660256D01*
X128726063Y-95829774D01*
X128870226Y-95973937D01*
X128988396Y-96052896D01*
X128987481Y-96057742D01*
X129110482Y-96268000D01*
X130453000Y-96268000D01*
X130453000Y-95646266D01*
X130525226Y-95471898D01*
X130565000Y-95271939D01*
X130565000Y-95068061D01*
X130558424Y-95035000D01*
X130707000Y-95035000D01*
X130707000Y-96268000D01*
X132049518Y-96268000D01*
X132172519Y-96057742D01*
X132160078Y-95991883D01*
X132056357Y-95745021D01*
X131906469Y-95523137D01*
X131716173Y-95334758D01*
X131492783Y-95187124D01*
X131244883Y-95085908D01*
X130982000Y-95035000D01*
X130707000Y-95035000D01*
X130558424Y-95035000D01*
X130525226Y-94868102D01*
X130447205Y-94679744D01*
X130333937Y-94510226D01*
X130189774Y-94366063D01*
X130020256Y-94252795D01*
X129831898Y-94174774D01*
X129631939Y-94135000D01*
X129428061Y-94135000D01*
X129228102Y-94174774D01*
X129039744Y-94252795D01*
X128870226Y-94366063D01*
X128726063Y-94510226D01*
X128612795Y-94679744D01*
X128534774Y-94868102D01*
X128495000Y-95068061D01*
X126243038Y-95068061D01*
X126247673Y-90068061D01*
X128495000Y-90068061D01*
X128495000Y-90271939D01*
X128534774Y-90471898D01*
X128612795Y-90660256D01*
X128726063Y-90829774D01*
X128870226Y-90973937D01*
X129039744Y-91087205D01*
X129228102Y-91165226D01*
X129428061Y-91205000D01*
X129631939Y-91205000D01*
X129831898Y-91165226D01*
X129848889Y-91158188D01*
X137491380Y-91158188D01*
X137491380Y-91391612D01*
X137536919Y-91620552D01*
X137626246Y-91836208D01*
X137755930Y-92030294D01*
X137920986Y-92195350D01*
X138115072Y-92325034D01*
X138330728Y-92414361D01*
X138559668Y-92459900D01*
X138793092Y-92459900D01*
X139022032Y-92414361D01*
X139237688Y-92325034D01*
X139431774Y-92195350D01*
X139452124Y-92175000D01*
X150309156Y-92175000D01*
X150344606Y-92210450D01*
X150538692Y-92340134D01*
X150754348Y-92429461D01*
X150983288Y-92475000D01*
X151216712Y-92475000D01*
X151445652Y-92429461D01*
X151661308Y-92340134D01*
X151855394Y-92210450D01*
X152020450Y-92045394D01*
X152150134Y-91851308D01*
X152239461Y-91635652D01*
X152285000Y-91406712D01*
X152285000Y-91173288D01*
X152239461Y-90944348D01*
X152150134Y-90728692D01*
X152020450Y-90534606D01*
X151855394Y-90369550D01*
X151661308Y-90239866D01*
X151445652Y-90150539D01*
X151216712Y-90105000D01*
X150983288Y-90105000D01*
X150754348Y-90150539D01*
X150538692Y-90239866D01*
X150344606Y-90369550D01*
X150309156Y-90405000D01*
X139482324Y-90405000D01*
X139431774Y-90354450D01*
X139237688Y-90224766D01*
X139022032Y-90135439D01*
X138793092Y-90089900D01*
X138559668Y-90089900D01*
X138330728Y-90135439D01*
X138115072Y-90224766D01*
X137920986Y-90354450D01*
X137755930Y-90519506D01*
X137626246Y-90713592D01*
X137536919Y-90929248D01*
X137491380Y-91158188D01*
X129848889Y-91158188D01*
X130020256Y-91087205D01*
X130189774Y-90973937D01*
X130333937Y-90829774D01*
X130447205Y-90660256D01*
X130525226Y-90471898D01*
X130565000Y-90271939D01*
X130565000Y-90068061D01*
X130525226Y-89868102D01*
X130453000Y-89693734D01*
X130453000Y-89072000D01*
X130707000Y-89072000D01*
X130707000Y-90305000D01*
X130982000Y-90305000D01*
X131244883Y-90254092D01*
X131492783Y-90152876D01*
X131716173Y-90005242D01*
X131906469Y-89816863D01*
X132056357Y-89594979D01*
X132160078Y-89348117D01*
X132172519Y-89282258D01*
X132049518Y-89072000D01*
X130707000Y-89072000D01*
X130453000Y-89072000D01*
X129110482Y-89072000D01*
X128987481Y-89282258D01*
X128988396Y-89287104D01*
X128870226Y-89366063D01*
X128726063Y-89510226D01*
X128612795Y-89679744D01*
X128534774Y-89868102D01*
X128495000Y-90068061D01*
X126247673Y-90068061D01*
X126247747Y-89988502D01*
X126328000Y-90005000D01*
X126653000Y-90005000D01*
X126653000Y-88922000D01*
X126907000Y-88922000D01*
X126907000Y-90005000D01*
X127232000Y-90005000D01*
X127465619Y-89956974D01*
X127685380Y-89864294D01*
X127882837Y-89730521D01*
X128050402Y-89560797D01*
X128181636Y-89361644D01*
X128271496Y-89140715D01*
X128273635Y-89108677D01*
X128148550Y-88922000D01*
X126907000Y-88922000D01*
X126653000Y-88922000D01*
X126633000Y-88922000D01*
X126633000Y-88668000D01*
X126653000Y-88668000D01*
X126653000Y-87585000D01*
X126907000Y-87585000D01*
X126907000Y-88668000D01*
X128148550Y-88668000D01*
X128188926Y-88607742D01*
X128987481Y-88607742D01*
X129110482Y-88818000D01*
X130453000Y-88818000D01*
X130453000Y-87585000D01*
X130707000Y-87585000D01*
X130707000Y-88818000D01*
X132049518Y-88818000D01*
X132172519Y-88607742D01*
X132160078Y-88541883D01*
X132148064Y-88513288D01*
X134775000Y-88513288D01*
X134775000Y-88746712D01*
X134820539Y-88975652D01*
X134909866Y-89191308D01*
X135039550Y-89385394D01*
X135204606Y-89550450D01*
X135398692Y-89680134D01*
X135614348Y-89769461D01*
X135843288Y-89815000D01*
X136076712Y-89815000D01*
X136305652Y-89769461D01*
X136521308Y-89680134D01*
X136715394Y-89550450D01*
X136880450Y-89385394D01*
X137010134Y-89191308D01*
X137099461Y-88975652D01*
X137145000Y-88746712D01*
X137145000Y-88513288D01*
X137099461Y-88284348D01*
X137010134Y-88068692D01*
X136880450Y-87874606D01*
X136855000Y-87849156D01*
X136855000Y-85295834D01*
X136890450Y-85260384D01*
X137020134Y-85066298D01*
X137109461Y-84850642D01*
X137155000Y-84621702D01*
X137155000Y-84388278D01*
X137109461Y-84159338D01*
X137020134Y-83943682D01*
X136890450Y-83749596D01*
X136725394Y-83584540D01*
X136531308Y-83454856D01*
X136315652Y-83365529D01*
X136086712Y-83319990D01*
X135853288Y-83319990D01*
X135624348Y-83365529D01*
X135408692Y-83454856D01*
X135214606Y-83584540D01*
X135049550Y-83749596D01*
X134919866Y-83943682D01*
X134830539Y-84159338D01*
X134785000Y-84388278D01*
X134785000Y-84621702D01*
X134830539Y-84850642D01*
X134919866Y-85066298D01*
X135049550Y-85260384D01*
X135085000Y-85295834D01*
X135085001Y-87829155D01*
X135039550Y-87874606D01*
X134909866Y-88068692D01*
X134820539Y-88284348D01*
X134775000Y-88513288D01*
X132148064Y-88513288D01*
X132056357Y-88295021D01*
X131906469Y-88073137D01*
X131716173Y-87884758D01*
X131492783Y-87737124D01*
X131244883Y-87635908D01*
X130982000Y-87585000D01*
X130707000Y-87585000D01*
X130453000Y-87585000D01*
X130178000Y-87585000D01*
X129915117Y-87635908D01*
X129667217Y-87737124D01*
X129443827Y-87884758D01*
X129253531Y-88073137D01*
X129103643Y-88295021D01*
X128999922Y-88541883D01*
X128987481Y-88607742D01*
X128188926Y-88607742D01*
X128273635Y-88481323D01*
X128271496Y-88449285D01*
X128181636Y-88228356D01*
X128050402Y-88029203D01*
X127882837Y-87859479D01*
X127685380Y-87725706D01*
X127465619Y-87633026D01*
X127232000Y-87585000D01*
X126907000Y-87585000D01*
X126653000Y-87585000D01*
X126328000Y-87585000D01*
X126249960Y-87601043D01*
X126252551Y-84804999D01*
X126861928Y-84804999D01*
X126861928Y-86055001D01*
X126878992Y-86228255D01*
X126929528Y-86394851D01*
X127011595Y-86548387D01*
X127122038Y-86682962D01*
X127256613Y-86793405D01*
X127410149Y-86875472D01*
X127576745Y-86926008D01*
X127749999Y-86943072D01*
X128450001Y-86943072D01*
X128623255Y-86926008D01*
X128789851Y-86875472D01*
X128943387Y-86793405D01*
X129077962Y-86682962D01*
X129188405Y-86548387D01*
X129190967Y-86543594D01*
X129316526Y-86668078D01*
X129519467Y-86802421D01*
X129744718Y-86894591D01*
X129782391Y-86898462D01*
X129973000Y-86773731D01*
X129973000Y-85557000D01*
X130227000Y-85557000D01*
X130227000Y-86773731D01*
X130417609Y-86898462D01*
X130455282Y-86894591D01*
X130680533Y-86802421D01*
X130883474Y-86668078D01*
X131056307Y-86496725D01*
X131192390Y-86294946D01*
X131286493Y-86070496D01*
X131335000Y-85832000D01*
X131335000Y-85557000D01*
X130227000Y-85557000D01*
X129973000Y-85557000D01*
X129953000Y-85557000D01*
X129953000Y-85303000D01*
X129973000Y-85303000D01*
X129973000Y-84086269D01*
X130227000Y-84086269D01*
X130227000Y-85303000D01*
X131335000Y-85303000D01*
X131335000Y-85028000D01*
X131286493Y-84789504D01*
X131192390Y-84565054D01*
X131056307Y-84363275D01*
X130883474Y-84191922D01*
X130680533Y-84057579D01*
X130455282Y-83965409D01*
X130417609Y-83961538D01*
X130227000Y-84086269D01*
X129973000Y-84086269D01*
X129782391Y-83961538D01*
X129744718Y-83965409D01*
X129519467Y-84057579D01*
X129316526Y-84191922D01*
X129190967Y-84316406D01*
X129188405Y-84311613D01*
X129077962Y-84177038D01*
X128943387Y-84066595D01*
X128789851Y-83984528D01*
X128623255Y-83933992D01*
X128450001Y-83916928D01*
X127749999Y-83916928D01*
X127576745Y-83933992D01*
X127410149Y-83984528D01*
X127256613Y-84066595D01*
X127122038Y-84177038D01*
X127011595Y-84311613D01*
X126929528Y-84465149D01*
X126878992Y-84631745D01*
X126861928Y-84804999D01*
X126252551Y-84804999D01*
X126259380Y-77437114D01*
X126538367Y-77623528D01*
X126999708Y-77814622D01*
X127489464Y-77912040D01*
X127988816Y-77912040D01*
X128478572Y-77814622D01*
X128939913Y-77623528D01*
X129266586Y-77405251D01*
X131405599Y-77405251D01*
X131502923Y-77679612D01*
X131651902Y-77929715D01*
X131846811Y-78145948D01*
X132080160Y-78320001D01*
X132342981Y-78445185D01*
X132490190Y-78489836D01*
X132720080Y-78368515D01*
X132720080Y-77175360D01*
X131526266Y-77175360D01*
X131405599Y-77405251D01*
X129266586Y-77405251D01*
X129355108Y-77346103D01*
X129708203Y-76993008D01*
X129909685Y-76691469D01*
X131405599Y-76691469D01*
X131526266Y-76921360D01*
X132720080Y-76921360D01*
X132720080Y-75728205D01*
X132974080Y-75728205D01*
X132974080Y-76921360D01*
X132994080Y-76921360D01*
X132994080Y-77175360D01*
X132974080Y-77175360D01*
X132974080Y-78368515D01*
X133203970Y-78489836D01*
X133351179Y-78445185D01*
X133614000Y-78320001D01*
X133847349Y-78145948D01*
X133923114Y-78061894D01*
X133947578Y-78142540D01*
X134006543Y-78252854D01*
X134085895Y-78349545D01*
X134182586Y-78428897D01*
X134292900Y-78487862D01*
X134412598Y-78524172D01*
X134537080Y-78536432D01*
X136237080Y-78536432D01*
X136361562Y-78524172D01*
X136481260Y-78487862D01*
X136591574Y-78428897D01*
X136688265Y-78349545D01*
X136767617Y-78252854D01*
X136826582Y-78142540D01*
X136838467Y-78103360D01*
X144871808Y-78103360D01*
X144871808Y-79803360D01*
X144884068Y-79927842D01*
X144920378Y-80047540D01*
X144979343Y-80157854D01*
X145058695Y-80254545D01*
X145155386Y-80333897D01*
X145265700Y-80392862D01*
X145385398Y-80429172D01*
X145509880Y-80441432D01*
X145600000Y-80441432D01*
X145600001Y-83552668D01*
X145596324Y-83590000D01*
X145600001Y-83627333D01*
X145610998Y-83738986D01*
X145619065Y-83765579D01*
X145654454Y-83882246D01*
X145725026Y-84014276D01*
X145767964Y-84066595D01*
X145820000Y-84130001D01*
X145848998Y-84153799D01*
X147686200Y-85991002D01*
X147709999Y-86020001D01*
X147825724Y-86114974D01*
X147957753Y-86185546D01*
X148101014Y-86229003D01*
X148212667Y-86240000D01*
X148212675Y-86240000D01*
X148250000Y-86243676D01*
X148287325Y-86240000D01*
X166305199Y-86240000D01*
X168180000Y-88114803D01*
X168180001Y-102335197D01*
X166175199Y-104340000D01*
X163146991Y-104340000D01*
X163103054Y-104296063D01*
X162933536Y-104182795D01*
X162745178Y-104104774D01*
X162545219Y-104065000D01*
X162341341Y-104065000D01*
X162141382Y-104104774D01*
X161953024Y-104182795D01*
X161783506Y-104296063D01*
X161639343Y-104440226D01*
X161526075Y-104609744D01*
X161448054Y-104798102D01*
X161408280Y-104998061D01*
X161408280Y-105201939D01*
X161448054Y-105401898D01*
X161526075Y-105590256D01*
X161639343Y-105759774D01*
X161783506Y-105903937D01*
X161953024Y-106017205D01*
X162141382Y-106095226D01*
X162341341Y-106135000D01*
X162545219Y-106135000D01*
X162745178Y-106095226D01*
X162933536Y-106017205D01*
X163103054Y-105903937D01*
X163146991Y-105860000D01*
X166452678Y-105860000D01*
X166490000Y-105863676D01*
X166527322Y-105860000D01*
X166527333Y-105860000D01*
X166638986Y-105849003D01*
X166782247Y-105805546D01*
X166914276Y-105734974D01*
X167030001Y-105640001D01*
X167053804Y-105610997D01*
X169451003Y-103213799D01*
X169480001Y-103190001D01*
X169574974Y-103074276D01*
X169645546Y-102942247D01*
X169689003Y-102798986D01*
X169700000Y-102687333D01*
X169700000Y-102687324D01*
X169703676Y-102650001D01*
X169700000Y-102612678D01*
X169700000Y-87837322D01*
X169703676Y-87799999D01*
X169700000Y-87762676D01*
X169700000Y-87762667D01*
X169689003Y-87651014D01*
X169645546Y-87507753D01*
X169574974Y-87375724D01*
X169561811Y-87359685D01*
X169503799Y-87288996D01*
X169503795Y-87288992D01*
X169480001Y-87259999D01*
X169451009Y-87236206D01*
X167183804Y-84969002D01*
X167160001Y-84939999D01*
X167044276Y-84845026D01*
X166912247Y-84774454D01*
X166768986Y-84730997D01*
X166657333Y-84720000D01*
X166657322Y-84720000D01*
X166620000Y-84716324D01*
X166582678Y-84720000D01*
X148564802Y-84720000D01*
X147120000Y-83275199D01*
X147120000Y-80441432D01*
X147209880Y-80441432D01*
X147334362Y-80429172D01*
X147454060Y-80392862D01*
X147564374Y-80333897D01*
X147661065Y-80254545D01*
X147740417Y-80157854D01*
X147799382Y-80047540D01*
X147821393Y-79974980D01*
X147953248Y-80106835D01*
X148196469Y-80269350D01*
X148466722Y-80381292D01*
X148753620Y-80438360D01*
X149046140Y-80438360D01*
X149333038Y-80381292D01*
X149603291Y-80269350D01*
X149846512Y-80106835D01*
X150053355Y-79899992D01*
X150175075Y-79717826D01*
X150244702Y-79834715D01*
X150439611Y-80050948D01*
X150672960Y-80225001D01*
X150935781Y-80350185D01*
X151082990Y-80394836D01*
X151312880Y-80273515D01*
X151312880Y-79080360D01*
X151566880Y-79080360D01*
X151566880Y-80273515D01*
X151796770Y-80394836D01*
X151943979Y-80350185D01*
X152206800Y-80225001D01*
X152440149Y-80050948D01*
X152635058Y-79834715D01*
X152784037Y-79584612D01*
X152881361Y-79310251D01*
X152760694Y-79080360D01*
X151566880Y-79080360D01*
X151312880Y-79080360D01*
X151292880Y-79080360D01*
X151292880Y-78826360D01*
X151312880Y-78826360D01*
X151312880Y-77633205D01*
X151566880Y-77633205D01*
X151566880Y-78826360D01*
X152760694Y-78826360D01*
X152881361Y-78596469D01*
X152784037Y-78322108D01*
X152635058Y-78072005D01*
X152440149Y-77855772D01*
X152206800Y-77681719D01*
X151943979Y-77556535D01*
X151796770Y-77511884D01*
X151566880Y-77633205D01*
X151312880Y-77633205D01*
X151082990Y-77511884D01*
X150935781Y-77556535D01*
X150672960Y-77681719D01*
X150439611Y-77855772D01*
X150244702Y-78072005D01*
X150175075Y-78188894D01*
X150053355Y-78006728D01*
X149846512Y-77799885D01*
X149603291Y-77637370D01*
X149333038Y-77525428D01*
X149046140Y-77468360D01*
X148753620Y-77468360D01*
X148466722Y-77525428D01*
X148196469Y-77637370D01*
X147953248Y-77799885D01*
X147821393Y-77931740D01*
X147799382Y-77859180D01*
X147740417Y-77748866D01*
X147661065Y-77652175D01*
X147564374Y-77572823D01*
X147454060Y-77513858D01*
X147334362Y-77477548D01*
X147209880Y-77465288D01*
X145509880Y-77465288D01*
X145385398Y-77477548D01*
X145265700Y-77513858D01*
X145155386Y-77572823D01*
X145058695Y-77652175D01*
X144979343Y-77748866D01*
X144920378Y-77859180D01*
X144884068Y-77978878D01*
X144871808Y-78103360D01*
X136838467Y-78103360D01*
X136862892Y-78022842D01*
X136875152Y-77898360D01*
X136875152Y-76198360D01*
X136862892Y-76073878D01*
X136826582Y-75954180D01*
X136767617Y-75843866D01*
X136688265Y-75747175D01*
X136591574Y-75667823D01*
X136481260Y-75608858D01*
X136361562Y-75572548D01*
X136237080Y-75560288D01*
X134537080Y-75560288D01*
X134412598Y-75572548D01*
X134292900Y-75608858D01*
X134182586Y-75667823D01*
X134085895Y-75747175D01*
X134006543Y-75843866D01*
X133947578Y-75954180D01*
X133923114Y-76034826D01*
X133847349Y-75950772D01*
X133614000Y-75776719D01*
X133351179Y-75651535D01*
X133203970Y-75606884D01*
X132974080Y-75728205D01*
X132720080Y-75728205D01*
X132490190Y-75606884D01*
X132342981Y-75651535D01*
X132080160Y-75776719D01*
X131846811Y-75950772D01*
X131651902Y-76167005D01*
X131502923Y-76417108D01*
X131405599Y-76691469D01*
X129909685Y-76691469D01*
X129985628Y-76577813D01*
X130176722Y-76116472D01*
X130274140Y-75626716D01*
X130274140Y-75127364D01*
X130176722Y-74637608D01*
X129985628Y-74176267D01*
X129808632Y-73911374D01*
X133603715Y-73908120D01*
X167915524Y-73949861D01*
G37*
%TD.AperFunction*%
D20*
X156617000Y-101600000D02*
X156637000Y-101600000D01*
X156637000Y-101854000D01*
X156617000Y-101854000D01*
X156617000Y-101874000D01*
X156363000Y-101874000D01*
X156363000Y-101854000D01*
X156343000Y-101854000D01*
X156343000Y-101600000D01*
X156363000Y-101600000D01*
X156363000Y-101580000D01*
X156617000Y-101580000D01*
X156617000Y-101600000D01*
%TA.AperFunction,Conductor*%
D21*
G36*
X156617000Y-101600000D02*
G01*
X156637000Y-101600000D01*
X156637000Y-101854000D01*
X156617000Y-101854000D01*
X156617000Y-101874000D01*
X156363000Y-101874000D01*
X156363000Y-101854000D01*
X156343000Y-101854000D01*
X156343000Y-101600000D01*
X156363000Y-101600000D01*
X156363000Y-101580000D01*
X156617000Y-101580000D01*
X156617000Y-101600000D01*
G37*
%TD.AperFunction*%
%TD*%
M02*
