M48
; DRILL file {KiCad (5.1.10)-1} date 06/27/21 19:44:01
; FORMAT={-:-/ absolute / inch / decimal}
; #@! TF.CreationDate,2021-06-27T19:44:01+02:00
; #@! TF.GenerationSoftware,Kicad,Pcbnew,(5.1.10)-1
; #@! TF.FileFunction,Plated,1,2,PTH
FMAT,2
INCH
T1C0.0157
T2C0.0217
T3C0.0276
T4C0.0295
T5C0.0335
T6C0.0394
T7C0.1181
%
G90
G05
T1
X5.6126Y-4.687
X5.6441Y-4.5327
X5.9051Y-3.4051
X5.9055Y-3.6293
X6.0602Y-4.7772
X6.1243Y-3.5372
X6.1244Y-3.6298
X6.2567Y-3.5364
X6.424Y-4.1378
X6.4988Y-4.7252
X6.4992Y-4.8756
X6.4996Y-4.5976
X6.5Y-4.4516
T3
X5.3323Y-3.3508
X5.3339Y-3.5784
X5.4687Y-3.6968
X5.4692Y-3.5248
T4
X5.1043Y-3.3474
X5.1831Y-3.3474
T6
X5.1458Y-4.0079
X5.2458Y-4.0079
X5.3126Y-4.339
X5.3126Y-4.439
X5.3126Y-4.539
X5.3126Y-4.639
X5.3126Y-4.739
X5.3126Y-4.839
X5.3331Y-3.1085
X5.3331Y-3.2085
X5.3458Y-4.0079
X5.4458Y-4.0079
X5.5458Y-4.0079
X5.6458Y-4.0079
X5.7458Y-4.0079
X5.7622Y-3.1084
X5.8622Y-3.1084
X5.8898Y-4.0079
X5.9622Y-3.1084
X5.9898Y-4.0079
X6.0898Y-4.0079
X6.1898Y-4.0079
X6.2898Y-4.0079
X6.3898Y-4.0079
X6.4898Y-4.0079
X6.5898Y-4.0079
T7
X5.1041Y-4.8445
X5.1059Y-2.9706
X6.6183Y-2.9721
X6.6191Y-4.8458
T2
G00X5.0788Y-3.4772
M15
G01X5.0532Y-3.4772
M16
G05
G00X5.0788Y-3.7824
M15
G01X5.0532Y-3.7824
M16
G05
T5
G00X5.2265Y-3.4831
M15
G01X5.2048Y-3.4831
M16
G05
G00X5.2265Y-3.7765
M15
G01X5.2048Y-3.7765
M16
G05
T0
M30
