%TF.GenerationSoftware,KiCad,Pcbnew,(5.1.10)-1*%
%TF.CreationDate,2021-06-27T19:43:52+02:00*%
%TF.ProjectId,clip,636c6970-2e6b-4696-9361-645f70636258,rev?*%
%TF.SameCoordinates,Original*%
%TF.FileFunction,Legend,Bot*%
%TF.FilePolarity,Positive*%
%FSLAX46Y46*%
G04 Gerber Fmt 4.6, Leading zero omitted, Abs format (unit mm)*
G04 Created by KiCad (PCBNEW (5.1.10)-1) date 2021-06-27 19:43:52*
%MOMM*%
%LPD*%
G01*
G04 APERTURE LIST*
%ADD10C,0.150000*%
%ADD11C,0.120000*%
%ADD12C,3.800000*%
%ADD13O,1.700000X1.700000*%
%ADD14R,1.700000X1.700000*%
%ADD15O,0.800000X0.800000*%
%ADD16O,1.800000X1.150000*%
%ADD17O,2.000000X1.450000*%
%ADD18C,0.800000*%
%ADD19O,1.200000X1.750000*%
G04 APERTURE END LIST*
D10*
X129244047Y-86553571D02*
X130005952Y-86553571D01*
X129625000Y-86172619D02*
X129625000Y-86934523D01*
D11*
%TO.C,BATTERY1*%
X128790000Y-84885000D02*
X128510000Y-84885000D01*
X128510000Y-84885000D02*
X128510000Y-86485000D01*
X128510000Y-86485000D02*
X127590000Y-86485000D01*
X127590000Y-86485000D02*
X127590000Y-78665000D01*
X127590000Y-78665000D02*
X133710000Y-78665000D01*
X133710000Y-78665000D02*
X133710000Y-86485000D01*
X133710000Y-86485000D02*
X132790000Y-86485000D01*
X132790000Y-86485000D02*
X132790000Y-84885000D01*
X132790000Y-84885000D02*
X132510000Y-84885000D01*
X130150000Y-78665000D02*
X130150000Y-83025000D01*
X130150000Y-83025000D02*
X131150000Y-83025000D01*
X131150000Y-83025000D02*
X131150000Y-78665000D01*
X127590000Y-84885000D02*
X128510000Y-84885000D01*
X133710000Y-84885000D02*
X132790000Y-84885000D01*
X128350000Y-82525000D02*
X128350000Y-80925000D01*
X128350000Y-80925000D02*
X129350000Y-80925000D01*
X129350000Y-80925000D02*
X129350000Y-82525000D01*
X129350000Y-82525000D02*
X128350000Y-82525000D01*
X132950000Y-82525000D02*
X132950000Y-80925000D01*
X132950000Y-80925000D02*
X131950000Y-80925000D01*
X131950000Y-80925000D02*
X131950000Y-82525000D01*
X131950000Y-82525000D02*
X132950000Y-82525000D01*
X129350000Y-80925000D02*
X129350000Y-78665000D01*
X128850000Y-80925000D02*
X128850000Y-78665000D01*
X128790000Y-84885000D02*
X128790000Y-86100000D01*
%TD*%
%LPC*%
D12*
%TO.C,H4*%
X129644140Y-123050300D03*
%TD*%
%TO.C,H3*%
X168125140Y-123083320D03*
%TD*%
%TO.C,H2*%
X168104820Y-75491340D03*
%TD*%
%TO.C,H1*%
X129689860Y-75453240D03*
%TD*%
D13*
%TO.C,MOISTURE1*%
X151439880Y-78953360D03*
X148899880Y-78953360D03*
D14*
X146359880Y-78953360D03*
%TD*%
D15*
%TO.C,USB1*%
X131427120Y-94696920D03*
X131427120Y-89696920D03*
D16*
X128677120Y-96071920D03*
X128677120Y-88321920D03*
D17*
X132477120Y-95921920D03*
X132477120Y-88471920D03*
%TD*%
D18*
%TO.C,EN1*%
X162500000Y-109760000D03*
%TD*%
D13*
%TO.C,LIS1*%
X167380000Y-101800000D03*
X164840000Y-101800000D03*
X162300000Y-101800000D03*
X159760000Y-101800000D03*
X157220000Y-101800000D03*
X154680000Y-101800000D03*
X152140000Y-101800000D03*
D14*
X149600000Y-101800000D03*
%TD*%
D13*
%TO.C,VIN1*%
X135460000Y-78955000D03*
D14*
X135460000Y-81495000D03*
%TD*%
D13*
%TO.C,FLASH1*%
X134940000Y-122910000D03*
X134940000Y-120370000D03*
X134940000Y-117830000D03*
X134940000Y-115290000D03*
X134940000Y-112750000D03*
D14*
X134940000Y-110210000D03*
%TD*%
D13*
%TO.C,BME1*%
X145943320Y-101800660D03*
X143403320Y-101800660D03*
X140863320Y-101800660D03*
X138323320Y-101800660D03*
X135783320Y-101800660D03*
X133243320Y-101800660D03*
D14*
X130703320Y-101800660D03*
%TD*%
D19*
%TO.C,BATTERY1*%
X131650000Y-85025000D03*
G36*
G01*
X129050000Y-85650001D02*
X129050000Y-84399999D01*
G75*
G02*
X129299999Y-84150000I249999J0D01*
G01*
X130000001Y-84150000D01*
G75*
G02*
X130250000Y-84399999I0J-249999D01*
G01*
X130250000Y-85650001D01*
G75*
G02*
X130000001Y-85900000I-249999J0D01*
G01*
X129299999Y-85900000D01*
G75*
G02*
X129050000Y-85650001I0J249999D01*
G01*
G37*
%TD*%
M02*
