%TF.GenerationSoftware,KiCad,Pcbnew,(5.1.10)-1*%
%TF.CreationDate,2021-06-27T19:43:52+02:00*%
%TF.ProjectId,clip,636c6970-2e6b-4696-9361-645f70636258,rev?*%
%TF.SameCoordinates,Original*%
%TF.FileFunction,Copper,L1,Top*%
%TF.FilePolarity,Positive*%
%FSLAX46Y46*%
G04 Gerber Fmt 4.6, Leading zero omitted, Abs format (unit mm)*
G04 Created by KiCad (PCBNEW (5.1.10)-1) date 2021-06-27 19:43:52*
%MOMM*%
%LPD*%
G01*
G04 APERTURE LIST*
%TA.AperFunction,ComponentPad*%
%ADD10C,3.800000*%
%TD*%
%TA.AperFunction,ComponentPad*%
%ADD11O,1.700000X1.700000*%
%TD*%
%TA.AperFunction,ComponentPad*%
%ADD12R,1.700000X1.700000*%
%TD*%
%TA.AperFunction,SMDPad,CuDef*%
%ADD13R,1.000000X1.000000*%
%TD*%
%TA.AperFunction,SMDPad,CuDef*%
%ADD14C,0.100000*%
%TD*%
%TA.AperFunction,SMDPad,CuDef*%
%ADD15R,1.560000X0.650000*%
%TD*%
%TA.AperFunction,SMDPad,CuDef*%
%ADD16R,5.000000X5.000000*%
%TD*%
%TA.AperFunction,SMDPad,CuDef*%
%ADD17R,2.800000X0.900000*%
%TD*%
%TA.AperFunction,SMDPad,CuDef*%
%ADD18R,0.900000X2.800000*%
%TD*%
%TA.AperFunction,ComponentPad*%
%ADD19O,1.800000X1.150000*%
%TD*%
%TA.AperFunction,ComponentPad*%
%ADD20O,2.000000X1.450000*%
%TD*%
%TA.AperFunction,SMDPad,CuDef*%
%ADD21R,1.700000X0.450000*%
%TD*%
%TA.AperFunction,SMDPad,CuDef*%
%ADD22R,1.700000X1.300000*%
%TD*%
%TA.AperFunction,ComponentPad*%
%ADD23O,1.200000X1.750000*%
%TD*%
%TA.AperFunction,SMDPad,CuDef*%
%ADD24R,1.900000X0.800000*%
%TD*%
%TA.AperFunction,ViaPad*%
%ADD25C,0.800000*%
%TD*%
%TA.AperFunction,ViaPad*%
%ADD26C,1.100000*%
%TD*%
%TA.AperFunction,Conductor*%
%ADD27C,0.250000*%
%TD*%
%TA.AperFunction,Conductor*%
%ADD28C,0.500000*%
%TD*%
%TA.AperFunction,Conductor*%
%ADD29C,0.400000*%
%TD*%
%TA.AperFunction,Conductor*%
%ADD30C,0.254000*%
%TD*%
%TA.AperFunction,Conductor*%
%ADD31C,0.100000*%
%TD*%
G04 APERTURE END LIST*
D10*
%TO.P,H4,1*%
%TO.N,N/C*%
X129644140Y-123050300D03*
%TD*%
%TO.P,H3,1*%
%TO.N,N/C*%
X168125140Y-123083320D03*
%TD*%
%TO.P,H2,1*%
%TO.N,N/C*%
X168104820Y-75491340D03*
%TD*%
%TO.P,H1,1*%
%TO.N,N/C*%
X129689860Y-75453240D03*
%TD*%
D11*
%TO.P,MOISTURE1,3*%
%TO.N,GND*%
X151439880Y-78953360D03*
%TO.P,MOISTURE1,2*%
%TO.N,+3V3*%
X148899880Y-78953360D03*
D12*
%TO.P,MOISTURE1,1*%
%TO.N,ADC1*%
X146359880Y-78953360D03*
%TD*%
D13*
%TO.P,D3,2*%
%TO.N,VBUS*%
X145944280Y-88382480D03*
%TO.P,D3,1*%
%TO.N,Net-(C4-Pad1)*%
X148444280Y-88382480D03*
%TD*%
%TO.P,D2,2*%
%TO.N,Net-(D2-Pad2)*%
%TA.AperFunction,SMDPad,CuDef*%
G36*
G01*
X162908400Y-78179081D02*
X162908400Y-77279079D01*
G75*
G02*
X163158399Y-77029080I249999J0D01*
G01*
X163808401Y-77029080D01*
G75*
G02*
X164058400Y-77279079I0J-249999D01*
G01*
X164058400Y-78179081D01*
G75*
G02*
X163808401Y-78429080I-249999J0D01*
G01*
X163158399Y-78429080D01*
G75*
G02*
X162908400Y-78179081I0J249999D01*
G01*
G37*
%TD.AperFunction*%
%TO.P,D2,1*%
%TO.N,Net-(D2-Pad1)*%
%TA.AperFunction,SMDPad,CuDef*%
G36*
G01*
X160858400Y-78179081D02*
X160858400Y-77279079D01*
G75*
G02*
X161108399Y-77029080I249999J0D01*
G01*
X161758401Y-77029080D01*
G75*
G02*
X162008400Y-77279079I0J-249999D01*
G01*
X162008400Y-78179081D01*
G75*
G02*
X161758401Y-78429080I-249999J0D01*
G01*
X161108399Y-78429080D01*
G75*
G02*
X160858400Y-78179081I0J249999D01*
G01*
G37*
%TD.AperFunction*%
%TD*%
%TA.AperFunction,SMDPad,CuDef*%
D14*
%TO.P,JP2,1*%
%TO.N,Net-(C3-Pad1)*%
G36*
X165087980Y-88399620D02*
G01*
X164587980Y-89149620D01*
X163587980Y-89149620D01*
X163587980Y-87649620D01*
X164587980Y-87649620D01*
X165087980Y-88399620D01*
G37*
%TD.AperFunction*%
%TA.AperFunction,SMDPad,CuDef*%
%TO.P,JP2,2*%
%TO.N,+3V3*%
G36*
X166037980Y-89149620D02*
G01*
X164887980Y-89149620D01*
X165387980Y-88399620D01*
X164887980Y-87649620D01*
X166037980Y-87649620D01*
X166037980Y-89149620D01*
G37*
%TD.AperFunction*%
%TD*%
%TO.P,D4,1*%
%TO.N,GND*%
%TA.AperFunction,SMDPad,CuDef*%
G36*
G01*
X159770000Y-95000001D02*
X159770000Y-94099999D01*
G75*
G02*
X160019999Y-93850000I249999J0D01*
G01*
X160670001Y-93850000D01*
G75*
G02*
X160920000Y-94099999I0J-249999D01*
G01*
X160920000Y-95000001D01*
G75*
G02*
X160670001Y-95250000I-249999J0D01*
G01*
X160019999Y-95250000D01*
G75*
G02*
X159770000Y-95000001I0J249999D01*
G01*
G37*
%TD.AperFunction*%
%TO.P,D4,2*%
%TO.N,Net-(D4-Pad2)*%
%TA.AperFunction,SMDPad,CuDef*%
G36*
G01*
X161820000Y-95000001D02*
X161820000Y-94099999D01*
G75*
G02*
X162069999Y-93850000I249999J0D01*
G01*
X162720001Y-93850000D01*
G75*
G02*
X162970000Y-94099999I0J-249999D01*
G01*
X162970000Y-95000001D01*
G75*
G02*
X162720001Y-95250000I-249999J0D01*
G01*
X162069999Y-95250000D01*
G75*
G02*
X161820000Y-95000001I0J249999D01*
G01*
G37*
%TD.AperFunction*%
%TD*%
D15*
%TO.P,U1,5*%
%TO.N,Net-(R6-Pad1)*%
X145773800Y-94697940D03*
%TO.P,U1,4*%
%TO.N,VBUS*%
X145773800Y-96597940D03*
%TO.P,U1,3*%
%TO.N,+BATT*%
X143073800Y-96597940D03*
%TO.P,U1,2*%
%TO.N,GND*%
X143073800Y-95647940D03*
%TO.P,U1,1*%
%TO.N,Net-(R2-Pad1)*%
X143073800Y-94697940D03*
%TD*%
D16*
%TO.P,U3,39*%
%TO.N,GND*%
X149830000Y-116355000D03*
D17*
%TO.P,U3,1*%
X157730000Y-123855000D03*
%TO.P,U3,2*%
%TO.N,+3V3*%
X157730000Y-122585000D03*
%TO.P,U3,3*%
%TO.N,EN*%
X157730000Y-121315000D03*
%TO.P,U3,4*%
%TO.N,Net-(U3-Pad4)*%
X157730000Y-120045000D03*
%TO.P,U3,5*%
%TO.N,Net-(U3-Pad5)*%
X157730000Y-118775000D03*
%TO.P,U3,6*%
%TO.N,ADC1*%
X157730000Y-117505000D03*
%TO.P,U3,7*%
%TO.N,Net-(U3-Pad7)*%
X157730000Y-116235000D03*
%TO.P,U3,8*%
%TO.N,Net-(U3-Pad8)*%
X157730000Y-114965000D03*
%TO.P,U3,9*%
%TO.N,INT*%
X157730000Y-113695000D03*
%TO.P,U3,10*%
%TO.N,Net-(U3-Pad10)*%
X157730000Y-112425000D03*
%TO.P,U3,11*%
%TO.N,Net-(U3-Pad11)*%
X157730000Y-111155000D03*
%TO.P,U3,12*%
%TO.N,Net-(U3-Pad12)*%
X157730000Y-109885000D03*
%TO.P,U3,13*%
%TO.N,Net-(U3-Pad13)*%
X157730000Y-108615000D03*
%TO.P,U3,14*%
%TO.N,Net-(U3-Pad14)*%
X157730000Y-107345000D03*
D18*
%TO.P,U3,15*%
%TO.N,GND*%
X154545000Y-105945000D03*
%TO.P,U3,16*%
%TO.N,Net-(U3-Pad16)*%
X153275000Y-105945000D03*
%TO.P,U3,17*%
%TO.N,Net-(U3-Pad17)*%
X152005000Y-105945000D03*
%TO.P,U3,18*%
%TO.N,Net-(U3-Pad18)*%
X150735000Y-105945000D03*
%TO.P,U3,19*%
%TO.N,Net-(U3-Pad19)*%
X149465000Y-105945000D03*
%TO.P,U3,20*%
%TO.N,Net-(U3-Pad20)*%
X148195000Y-105945000D03*
%TO.P,U3,21*%
%TO.N,Net-(U3-Pad21)*%
X146925000Y-105945000D03*
%TO.P,U3,22*%
%TO.N,Net-(U3-Pad22)*%
X145655000Y-105945000D03*
%TO.P,U3,23*%
%TO.N,Net-(U3-Pad23)*%
X144385000Y-105945000D03*
%TO.P,U3,24*%
%TO.N,IO2*%
X143115000Y-105945000D03*
D17*
%TO.P,U3,25*%
%TO.N,IO0*%
X139930000Y-107345000D03*
%TO.P,U3,26*%
%TO.N,Net-(U3-Pad26)*%
X139930000Y-108615000D03*
%TO.P,U3,27*%
%TO.N,Net-(U3-Pad27)*%
X139930000Y-109885000D03*
%TO.P,U3,28*%
%TO.N,Net-(U3-Pad28)*%
X139930000Y-111155000D03*
%TO.P,U3,29*%
%TO.N,Net-(U3-Pad29)*%
X139930000Y-112425000D03*
%TO.P,U3,30*%
%TO.N,Net-(U3-Pad30)*%
X139930000Y-113695000D03*
%TO.P,U3,31*%
%TO.N,Net-(U3-Pad31)*%
X139930000Y-114965000D03*
%TO.P,U3,32*%
%TO.N,Net-(U3-Pad32)*%
X139930000Y-116235000D03*
%TO.P,U3,33*%
%TO.N,SDA*%
X139930000Y-117505000D03*
%TO.P,U3,34*%
%TO.N,RX0*%
X139930000Y-118775000D03*
%TO.P,U3,35*%
%TO.N,TX0*%
X139930000Y-120045000D03*
%TO.P,U3,36*%
%TO.N,SCL*%
X139930000Y-121315000D03*
%TO.P,U3,37*%
%TO.N,Net-(U3-Pad37)*%
X139930000Y-122585000D03*
%TO.P,U3,38*%
%TO.N,GND*%
X139930000Y-123855000D03*
%TD*%
D19*
%TO.P,USB1,6*%
%TO.N,GND*%
X128677120Y-96071920D03*
X128677120Y-88321920D03*
D20*
X132477120Y-95921920D03*
X132477120Y-88471920D03*
D21*
%TO.P,USB1,5*%
X132727120Y-93496920D03*
%TO.P,USB1,4*%
%TO.N,Net-(USB1-Pad4)*%
X132727120Y-92846920D03*
%TO.P,USB1,3*%
%TO.N,Net-(USB1-Pad3)*%
X132727120Y-92196920D03*
%TO.P,USB1,2*%
%TO.N,Net-(USB1-Pad2)*%
X132727120Y-91546920D03*
%TO.P,USB1,1*%
%TO.N,VBUS*%
X132727120Y-90896920D03*
%TD*%
D22*
%TO.P,EN1,2*%
%TO.N,EN*%
X162500000Y-111660000D03*
%TO.P,EN1,1*%
%TO.N,GND*%
X162500000Y-107860000D03*
%TD*%
D11*
%TO.P,LIS1,8*%
%TO.N,INT*%
X167380000Y-101800000D03*
%TO.P,LIS1,7*%
%TO.N,Net-(LIS1-Pad7)*%
X164840000Y-101800000D03*
%TO.P,LIS1,6*%
%TO.N,Net-(LIS1-Pad6)*%
X162300000Y-101800000D03*
%TO.P,LIS1,5*%
%TO.N,SDA*%
X159760000Y-101800000D03*
%TO.P,LIS1,4*%
%TO.N,SCL*%
X157220000Y-101800000D03*
%TO.P,LIS1,3*%
%TO.N,GND*%
X154680000Y-101800000D03*
%TO.P,LIS1,2*%
%TO.N,Net-(LIS1-Pad2)*%
X152140000Y-101800000D03*
D12*
%TO.P,LIS1,1*%
%TO.N,+3V3*%
X149600000Y-101800000D03*
%TD*%
D11*
%TO.P,VIN1,2*%
%TO.N,GND*%
X135460000Y-78955000D03*
D12*
%TO.P,VIN1,1*%
%TO.N,VBUS*%
X135460000Y-81495000D03*
%TD*%
D11*
%TO.P,FLASH1,6*%
%TO.N,+3V3*%
X134940000Y-122910000D03*
%TO.P,FLASH1,5*%
%TO.N,TX0*%
X134940000Y-120370000D03*
%TO.P,FLASH1,4*%
%TO.N,RX0*%
X134940000Y-117830000D03*
%TO.P,FLASH1,3*%
%TO.N,EN*%
X134940000Y-115290000D03*
%TO.P,FLASH1,2*%
%TO.N,IO0*%
X134940000Y-112750000D03*
D12*
%TO.P,FLASH1,1*%
%TO.N,GND*%
X134940000Y-110210000D03*
%TD*%
D11*
%TO.P,BME1,7*%
%TO.N,Net-(BME1-Pad7)*%
X145943320Y-101800660D03*
%TO.P,BME1,6*%
%TO.N,SDA*%
X143403320Y-101800660D03*
%TO.P,BME1,5*%
%TO.N,Net-(BME1-Pad5)*%
X140863320Y-101800660D03*
%TO.P,BME1,4*%
%TO.N,SCL*%
X138323320Y-101800660D03*
%TO.P,BME1,3*%
%TO.N,GND*%
X135783320Y-101800660D03*
%TO.P,BME1,2*%
%TO.N,Net-(BME1-Pad2)*%
X133243320Y-101800660D03*
D12*
%TO.P,BME1,1*%
%TO.N,+3V3*%
X130703320Y-101800660D03*
%TD*%
D15*
%TO.P,U2,5*%
%TO.N,Net-(C3-Pad1)*%
X154183780Y-88464320D03*
%TO.P,U2,4*%
%TO.N,Net-(U2-Pad4)*%
X154183780Y-86564320D03*
%TO.P,U2,3*%
%TO.N,Net-(R5-Pad1)*%
X156883780Y-86564320D03*
%TO.P,U2,2*%
%TO.N,GND*%
X156883780Y-87514320D03*
%TO.P,U2,1*%
%TO.N,Net-(C4-Pad1)*%
X156883780Y-88464320D03*
%TD*%
%TO.P,R3,1*%
%TO.N,Net-(D2-Pad1)*%
%TA.AperFunction,SMDPad,CuDef*%
G36*
G01*
X160866020Y-80551441D02*
X160866020Y-79651439D01*
G75*
G02*
X161116019Y-79401440I249999J0D01*
G01*
X161766021Y-79401440D01*
G75*
G02*
X162016020Y-79651439I0J-249999D01*
G01*
X162016020Y-80551441D01*
G75*
G02*
X161766021Y-80801440I-249999J0D01*
G01*
X161116019Y-80801440D01*
G75*
G02*
X160866020Y-80551441I0J249999D01*
G01*
G37*
%TD.AperFunction*%
%TO.P,R3,2*%
%TO.N,GND*%
%TA.AperFunction,SMDPad,CuDef*%
G36*
G01*
X162916020Y-80551441D02*
X162916020Y-79651439D01*
G75*
G02*
X163166019Y-79401440I249999J0D01*
G01*
X163816021Y-79401440D01*
G75*
G02*
X164066020Y-79651439I0J-249999D01*
G01*
X164066020Y-80551441D01*
G75*
G02*
X163816021Y-80801440I-249999J0D01*
G01*
X163166019Y-80801440D01*
G75*
G02*
X162916020Y-80551441I0J249999D01*
G01*
G37*
%TD.AperFunction*%
%TD*%
%TA.AperFunction,SMDPad,CuDef*%
D14*
%TO.P,JP1,1*%
%TO.N,+3V3*%
G36*
X165084340Y-82895440D02*
G01*
X164584340Y-83645440D01*
X163584340Y-83645440D01*
X163584340Y-82145440D01*
X164584340Y-82145440D01*
X165084340Y-82895440D01*
G37*
%TD.AperFunction*%
%TA.AperFunction,SMDPad,CuDef*%
%TO.P,JP1,2*%
%TO.N,Net-(D2-Pad2)*%
G36*
X166034340Y-83645440D02*
G01*
X164884340Y-83645440D01*
X165384340Y-82895440D01*
X164884340Y-82145440D01*
X166034340Y-82145440D01*
X166034340Y-83645440D01*
G37*
%TD.AperFunction*%
%TD*%
%TO.P,D5,1*%
%TO.N,Net-(D5-Pad1)*%
%TA.AperFunction,SMDPad,CuDef*%
G36*
G01*
X133339200Y-105894181D02*
X133339200Y-104994179D01*
G75*
G02*
X133589199Y-104744180I249999J0D01*
G01*
X134239201Y-104744180D01*
G75*
G02*
X134489200Y-104994179I0J-249999D01*
G01*
X134489200Y-105894181D01*
G75*
G02*
X134239201Y-106144180I-249999J0D01*
G01*
X133589199Y-106144180D01*
G75*
G02*
X133339200Y-105894181I0J249999D01*
G01*
G37*
%TD.AperFunction*%
%TO.P,D5,2*%
%TO.N,IO2*%
%TA.AperFunction,SMDPad,CuDef*%
G36*
G01*
X135389200Y-105894181D02*
X135389200Y-104994179D01*
G75*
G02*
X135639199Y-104744180I249999J0D01*
G01*
X136289201Y-104744180D01*
G75*
G02*
X136539200Y-104994179I0J-249999D01*
G01*
X136539200Y-105894181D01*
G75*
G02*
X136289201Y-106144180I-249999J0D01*
G01*
X135639199Y-106144180D01*
G75*
G02*
X135389200Y-105894181I0J249999D01*
G01*
G37*
%TD.AperFunction*%
%TD*%
D23*
%TO.P,BATTERY1,2*%
%TO.N,GND*%
X131650000Y-85025000D03*
%TO.P,BATTERY1,1*%
%TO.N,+BATT*%
%TA.AperFunction,ComponentPad*%
G36*
G01*
X129050000Y-85650001D02*
X129050000Y-84399999D01*
G75*
G02*
X129299999Y-84150000I249999J0D01*
G01*
X130000001Y-84150000D01*
G75*
G02*
X130250000Y-84399999I0J-249999D01*
G01*
X130250000Y-85650001D01*
G75*
G02*
X130000001Y-85900000I-249999J0D01*
G01*
X129299999Y-85900000D01*
G75*
G02*
X129050000Y-85650001I0J249999D01*
G01*
G37*
%TD.AperFunction*%
%TD*%
%TO.P,R7,1*%
%TO.N,IO0*%
%TA.AperFunction,SMDPad,CuDef*%
G36*
G01*
X132660000Y-104989999D02*
X132660000Y-105890001D01*
G75*
G02*
X132410001Y-106140000I-249999J0D01*
G01*
X131759999Y-106140000D01*
G75*
G02*
X131510000Y-105890001I0J249999D01*
G01*
X131510000Y-104989999D01*
G75*
G02*
X131759999Y-104740000I249999J0D01*
G01*
X132410001Y-104740000D01*
G75*
G02*
X132660000Y-104989999I0J-249999D01*
G01*
G37*
%TD.AperFunction*%
%TO.P,R7,2*%
%TO.N,+3V3*%
%TA.AperFunction,SMDPad,CuDef*%
G36*
G01*
X130610000Y-104989999D02*
X130610000Y-105890001D01*
G75*
G02*
X130360001Y-106140000I-249999J0D01*
G01*
X129709999Y-106140000D01*
G75*
G02*
X129460000Y-105890001I0J249999D01*
G01*
X129460000Y-104989999D01*
G75*
G02*
X129709999Y-104740000I249999J0D01*
G01*
X130360001Y-104740000D01*
G75*
G02*
X130610000Y-104989999I0J-249999D01*
G01*
G37*
%TD.AperFunction*%
%TD*%
%TO.P,R9,2*%
%TO.N,EN*%
%TA.AperFunction,SMDPad,CuDef*%
G36*
G01*
X162920001Y-114130000D02*
X162019999Y-114130000D01*
G75*
G02*
X161770000Y-113880001I0J249999D01*
G01*
X161770000Y-113229999D01*
G75*
G02*
X162019999Y-112980000I249999J0D01*
G01*
X162920001Y-112980000D01*
G75*
G02*
X163170000Y-113229999I0J-249999D01*
G01*
X163170000Y-113880001D01*
G75*
G02*
X162920001Y-114130000I-249999J0D01*
G01*
G37*
%TD.AperFunction*%
%TO.P,R9,1*%
%TO.N,+3V3*%
%TA.AperFunction,SMDPad,CuDef*%
G36*
G01*
X162920001Y-116180000D02*
X162019999Y-116180000D01*
G75*
G02*
X161770000Y-115930001I0J249999D01*
G01*
X161770000Y-115279999D01*
G75*
G02*
X162019999Y-115030000I249999J0D01*
G01*
X162920001Y-115030000D01*
G75*
G02*
X163170000Y-115279999I0J-249999D01*
G01*
X163170000Y-115930001D01*
G75*
G02*
X162920001Y-116180000I-249999J0D01*
G01*
G37*
%TD.AperFunction*%
%TD*%
%TO.P,R8,1*%
%TO.N,Net-(D5-Pad1)*%
%TA.AperFunction,SMDPad,CuDef*%
G36*
G01*
X133339700Y-107854381D02*
X133339700Y-106954379D01*
G75*
G02*
X133589699Y-106704380I249999J0D01*
G01*
X134239701Y-106704380D01*
G75*
G02*
X134489700Y-106954379I0J-249999D01*
G01*
X134489700Y-107854381D01*
G75*
G02*
X134239701Y-108104380I-249999J0D01*
G01*
X133589699Y-108104380D01*
G75*
G02*
X133339700Y-107854381I0J249999D01*
G01*
G37*
%TD.AperFunction*%
%TO.P,R8,2*%
%TO.N,GND*%
%TA.AperFunction,SMDPad,CuDef*%
G36*
G01*
X135389700Y-107854381D02*
X135389700Y-106954379D01*
G75*
G02*
X135639699Y-106704380I249999J0D01*
G01*
X136289701Y-106704380D01*
G75*
G02*
X136539700Y-106954379I0J-249999D01*
G01*
X136539700Y-107854381D01*
G75*
G02*
X136289701Y-108104380I-249999J0D01*
G01*
X135639699Y-108104380D01*
G75*
G02*
X135389700Y-107854381I0J249999D01*
G01*
G37*
%TD.AperFunction*%
%TD*%
%TO.P,R6,1*%
%TO.N,Net-(R6-Pad1)*%
%TA.AperFunction,SMDPad,CuDef*%
G36*
G01*
X147390000Y-95020001D02*
X147390000Y-94119999D01*
G75*
G02*
X147639999Y-93870000I249999J0D01*
G01*
X148290001Y-93870000D01*
G75*
G02*
X148540000Y-94119999I0J-249999D01*
G01*
X148540000Y-95020001D01*
G75*
G02*
X148290001Y-95270000I-249999J0D01*
G01*
X147639999Y-95270000D01*
G75*
G02*
X147390000Y-95020001I0J249999D01*
G01*
G37*
%TD.AperFunction*%
%TO.P,R6,2*%
%TO.N,GND*%
%TA.AperFunction,SMDPad,CuDef*%
G36*
G01*
X149440000Y-95020001D02*
X149440000Y-94119999D01*
G75*
G02*
X149689999Y-93870000I249999J0D01*
G01*
X150340001Y-93870000D01*
G75*
G02*
X150590000Y-94119999I0J-249999D01*
G01*
X150590000Y-95020001D01*
G75*
G02*
X150340001Y-95270000I-249999J0D01*
G01*
X149689999Y-95270000D01*
G75*
G02*
X149440000Y-95020001I0J249999D01*
G01*
G37*
%TD.AperFunction*%
%TD*%
%TO.P,R4,1*%
%TO.N,Net-(D4-Pad2)*%
%TA.AperFunction,SMDPad,CuDef*%
G36*
G01*
X162950000Y-96299999D02*
X162950000Y-97200001D01*
G75*
G02*
X162700001Y-97450000I-249999J0D01*
G01*
X162049999Y-97450000D01*
G75*
G02*
X161800000Y-97200001I0J249999D01*
G01*
X161800000Y-96299999D01*
G75*
G02*
X162049999Y-96050000I249999J0D01*
G01*
X162700001Y-96050000D01*
G75*
G02*
X162950000Y-96299999I0J-249999D01*
G01*
G37*
%TD.AperFunction*%
%TO.P,R4,2*%
%TO.N,Net-(R2-Pad1)*%
%TA.AperFunction,SMDPad,CuDef*%
G36*
G01*
X160900000Y-96299999D02*
X160900000Y-97200001D01*
G75*
G02*
X160650001Y-97450000I-249999J0D01*
G01*
X159999999Y-97450000D01*
G75*
G02*
X159750000Y-97200001I0J249999D01*
G01*
X159750000Y-96299999D01*
G75*
G02*
X159999999Y-96050000I249999J0D01*
G01*
X160650001Y-96050000D01*
G75*
G02*
X160900000Y-96299999I0J-249999D01*
G01*
G37*
%TD.AperFunction*%
%TD*%
%TO.P,R5,2*%
%TO.N,Net-(C4-Pad1)*%
%TA.AperFunction,SMDPad,CuDef*%
G36*
G01*
X158851179Y-87912360D02*
X159751181Y-87912360D01*
G75*
G02*
X160001180Y-88162359I0J-249999D01*
G01*
X160001180Y-88812361D01*
G75*
G02*
X159751181Y-89062360I-249999J0D01*
G01*
X158851179Y-89062360D01*
G75*
G02*
X158601180Y-88812361I0J249999D01*
G01*
X158601180Y-88162359D01*
G75*
G02*
X158851179Y-87912360I249999J0D01*
G01*
G37*
%TD.AperFunction*%
%TO.P,R5,1*%
%TO.N,Net-(R5-Pad1)*%
%TA.AperFunction,SMDPad,CuDef*%
G36*
G01*
X158851179Y-85862360D02*
X159751181Y-85862360D01*
G75*
G02*
X160001180Y-86112359I0J-249999D01*
G01*
X160001180Y-86762361D01*
G75*
G02*
X159751181Y-87012360I-249999J0D01*
G01*
X158851179Y-87012360D01*
G75*
G02*
X158601180Y-86762361I0J249999D01*
G01*
X158601180Y-86112359D01*
G75*
G02*
X158851179Y-85862360I249999J0D01*
G01*
G37*
%TD.AperFunction*%
%TD*%
%TO.P,R2,2*%
%TO.N,Net-(D1-Pad1)*%
%TA.AperFunction,SMDPad,CuDef*%
G36*
G01*
X156020000Y-97190001D02*
X156020000Y-96289999D01*
G75*
G02*
X156269999Y-96040000I249999J0D01*
G01*
X156920001Y-96040000D01*
G75*
G02*
X157170000Y-96289999I0J-249999D01*
G01*
X157170000Y-97190001D01*
G75*
G02*
X156920001Y-97440000I-249999J0D01*
G01*
X156269999Y-97440000D01*
G75*
G02*
X156020000Y-97190001I0J249999D01*
G01*
G37*
%TD.AperFunction*%
%TO.P,R2,1*%
%TO.N,Net-(R2-Pad1)*%
%TA.AperFunction,SMDPad,CuDef*%
G36*
G01*
X153970000Y-97190001D02*
X153970000Y-96289999D01*
G75*
G02*
X154219999Y-96040000I249999J0D01*
G01*
X154870001Y-96040000D01*
G75*
G02*
X155120000Y-96289999I0J-249999D01*
G01*
X155120000Y-97190001D01*
G75*
G02*
X154870001Y-97440000I-249999J0D01*
G01*
X154219999Y-97440000D01*
G75*
G02*
X153970000Y-97190001I0J249999D01*
G01*
G37*
%TD.AperFunction*%
%TD*%
%TO.P,R1,2*%
%TO.N,VBUS*%
%TA.AperFunction,SMDPad,CuDef*%
G36*
G01*
X141015300Y-90441359D02*
X141015300Y-91341361D01*
G75*
G02*
X140765301Y-91591360I-249999J0D01*
G01*
X140115299Y-91591360D01*
G75*
G02*
X139865300Y-91341361I0J249999D01*
G01*
X139865300Y-90441359D01*
G75*
G02*
X140115299Y-90191360I249999J0D01*
G01*
X140765301Y-90191360D01*
G75*
G02*
X141015300Y-90441359I0J-249999D01*
G01*
G37*
%TD.AperFunction*%
%TO.P,R1,1*%
%TO.N,GND*%
%TA.AperFunction,SMDPad,CuDef*%
G36*
G01*
X143065300Y-90441359D02*
X143065300Y-91341361D01*
G75*
G02*
X142815301Y-91591360I-249999J0D01*
G01*
X142165299Y-91591360D01*
G75*
G02*
X141915300Y-91341361I0J249999D01*
G01*
X141915300Y-90441359D01*
G75*
G02*
X142165299Y-90191360I249999J0D01*
G01*
X142815301Y-90191360D01*
G75*
G02*
X143065300Y-90441359I0J-249999D01*
G01*
G37*
%TD.AperFunction*%
%TD*%
D24*
%TO.P,Q1,1*%
%TO.N,VBUS*%
X142111860Y-88544440D03*
%TO.P,Q1,2*%
%TO.N,Net-(C4-Pad1)*%
X142111860Y-86644440D03*
%TO.P,Q1,3*%
%TO.N,+BATT*%
X139111860Y-87594440D03*
%TD*%
%TO.P,D1,1*%
%TO.N,Net-(D1-Pad1)*%
%TA.AperFunction,SMDPad,CuDef*%
G36*
G01*
X157170000Y-94109999D02*
X157170000Y-95010001D01*
G75*
G02*
X156920001Y-95260000I-249999J0D01*
G01*
X156269999Y-95260000D01*
G75*
G02*
X156020000Y-95010001I0J249999D01*
G01*
X156020000Y-94109999D01*
G75*
G02*
X156269999Y-93860000I249999J0D01*
G01*
X156920001Y-93860000D01*
G75*
G02*
X157170000Y-94109999I0J-249999D01*
G01*
G37*
%TD.AperFunction*%
%TO.P,D1,2*%
%TO.N,VBUS*%
%TA.AperFunction,SMDPad,CuDef*%
G36*
G01*
X155120000Y-94109999D02*
X155120000Y-95010001D01*
G75*
G02*
X154870001Y-95260000I-249999J0D01*
G01*
X154219999Y-95260000D01*
G75*
G02*
X153970000Y-95010001I0J249999D01*
G01*
X153970000Y-94109999D01*
G75*
G02*
X154219999Y-93860000I249999J0D01*
G01*
X154870001Y-93860000D01*
G75*
G02*
X155120000Y-94109999I0J-249999D01*
G01*
G37*
%TD.AperFunction*%
%TD*%
%TO.P,C6,2*%
%TO.N,GND*%
%TA.AperFunction,SMDPad,CuDef*%
G36*
G01*
X162019999Y-123220000D02*
X162920001Y-123220000D01*
G75*
G02*
X163170000Y-123469999I0J-249999D01*
G01*
X163170000Y-124120001D01*
G75*
G02*
X162920001Y-124370000I-249999J0D01*
G01*
X162019999Y-124370000D01*
G75*
G02*
X161770000Y-124120001I0J249999D01*
G01*
X161770000Y-123469999D01*
G75*
G02*
X162019999Y-123220000I249999J0D01*
G01*
G37*
%TD.AperFunction*%
%TO.P,C6,1*%
%TO.N,+3V3*%
%TA.AperFunction,SMDPad,CuDef*%
G36*
G01*
X162019999Y-121170000D02*
X162920001Y-121170000D01*
G75*
G02*
X163170000Y-121419999I0J-249999D01*
G01*
X163170000Y-122070001D01*
G75*
G02*
X162920001Y-122320000I-249999J0D01*
G01*
X162019999Y-122320000D01*
G75*
G02*
X161770000Y-122070001I0J249999D01*
G01*
X161770000Y-121419999D01*
G75*
G02*
X162019999Y-121170000I249999J0D01*
G01*
G37*
%TD.AperFunction*%
%TD*%
%TO.P,C5,2*%
%TO.N,GND*%
%TA.AperFunction,SMDPad,CuDef*%
G36*
G01*
X162920001Y-118210000D02*
X162019999Y-118210000D01*
G75*
G02*
X161770000Y-117960001I0J249999D01*
G01*
X161770000Y-117309999D01*
G75*
G02*
X162019999Y-117060000I249999J0D01*
G01*
X162920001Y-117060000D01*
G75*
G02*
X163170000Y-117309999I0J-249999D01*
G01*
X163170000Y-117960001D01*
G75*
G02*
X162920001Y-118210000I-249999J0D01*
G01*
G37*
%TD.AperFunction*%
%TO.P,C5,1*%
%TO.N,+3V3*%
%TA.AperFunction,SMDPad,CuDef*%
G36*
G01*
X162920001Y-120260000D02*
X162019999Y-120260000D01*
G75*
G02*
X161770000Y-120010001I0J249999D01*
G01*
X161770000Y-119359999D01*
G75*
G02*
X162019999Y-119110000I249999J0D01*
G01*
X162920001Y-119110000D01*
G75*
G02*
X163170000Y-119359999I0J-249999D01*
G01*
X163170000Y-120010001D01*
G75*
G02*
X162920001Y-120260000I-249999J0D01*
G01*
G37*
%TD.AperFunction*%
%TD*%
%TO.P,C4,2*%
%TO.N,GND*%
%TA.AperFunction,SMDPad,CuDef*%
G36*
G01*
X151935161Y-87059340D02*
X151035159Y-87059340D01*
G75*
G02*
X150785160Y-86809341I0J249999D01*
G01*
X150785160Y-86159339D01*
G75*
G02*
X151035159Y-85909340I249999J0D01*
G01*
X151935161Y-85909340D01*
G75*
G02*
X152185160Y-86159339I0J-249999D01*
G01*
X152185160Y-86809341D01*
G75*
G02*
X151935161Y-87059340I-249999J0D01*
G01*
G37*
%TD.AperFunction*%
%TO.P,C4,1*%
%TO.N,Net-(C4-Pad1)*%
%TA.AperFunction,SMDPad,CuDef*%
G36*
G01*
X151935161Y-89109340D02*
X151035159Y-89109340D01*
G75*
G02*
X150785160Y-88859341I0J249999D01*
G01*
X150785160Y-88209339D01*
G75*
G02*
X151035159Y-87959340I249999J0D01*
G01*
X151935161Y-87959340D01*
G75*
G02*
X152185160Y-88209339I0J-249999D01*
G01*
X152185160Y-88859341D01*
G75*
G02*
X151935161Y-89109340I-249999J0D01*
G01*
G37*
%TD.AperFunction*%
%TD*%
%TO.P,C3,2*%
%TO.N,GND*%
%TA.AperFunction,SMDPad,CuDef*%
G36*
G01*
X162009241Y-87014900D02*
X161109239Y-87014900D01*
G75*
G02*
X160859240Y-86764901I0J249999D01*
G01*
X160859240Y-86114899D01*
G75*
G02*
X161109239Y-85864900I249999J0D01*
G01*
X162009241Y-85864900D01*
G75*
G02*
X162259240Y-86114899I0J-249999D01*
G01*
X162259240Y-86764901D01*
G75*
G02*
X162009241Y-87014900I-249999J0D01*
G01*
G37*
%TD.AperFunction*%
%TO.P,C3,1*%
%TO.N,Net-(C3-Pad1)*%
%TA.AperFunction,SMDPad,CuDef*%
G36*
G01*
X162009241Y-89064900D02*
X161109239Y-89064900D01*
G75*
G02*
X160859240Y-88814901I0J249999D01*
G01*
X160859240Y-88164899D01*
G75*
G02*
X161109239Y-87914900I249999J0D01*
G01*
X162009241Y-87914900D01*
G75*
G02*
X162259240Y-88164899I0J-249999D01*
G01*
X162259240Y-88814901D01*
G75*
G02*
X162009241Y-89064900I-249999J0D01*
G01*
G37*
%TD.AperFunction*%
%TD*%
%TO.P,C2,2*%
%TO.N,GND*%
%TA.AperFunction,SMDPad,CuDef*%
G36*
G01*
X149440000Y-97190001D02*
X149440000Y-96289999D01*
G75*
G02*
X149689999Y-96040000I249999J0D01*
G01*
X150340001Y-96040000D01*
G75*
G02*
X150590000Y-96289999I0J-249999D01*
G01*
X150590000Y-97190001D01*
G75*
G02*
X150340001Y-97440000I-249999J0D01*
G01*
X149689999Y-97440000D01*
G75*
G02*
X149440000Y-97190001I0J249999D01*
G01*
G37*
%TD.AperFunction*%
%TO.P,C2,1*%
%TO.N,VBUS*%
%TA.AperFunction,SMDPad,CuDef*%
G36*
G01*
X147390000Y-97190001D02*
X147390000Y-96289999D01*
G75*
G02*
X147639999Y-96040000I249999J0D01*
G01*
X148290001Y-96040000D01*
G75*
G02*
X148540000Y-96289999I0J-249999D01*
G01*
X148540000Y-97190001D01*
G75*
G02*
X148290001Y-97440000I-249999J0D01*
G01*
X147639999Y-97440000D01*
G75*
G02*
X147390000Y-97190001I0J249999D01*
G01*
G37*
%TD.AperFunction*%
%TD*%
%TO.P,C1,2*%
%TO.N,GND*%
%TA.AperFunction,SMDPad,CuDef*%
G36*
G01*
X141213981Y-95202840D02*
X140313979Y-95202840D01*
G75*
G02*
X140063980Y-94952841I0J249999D01*
G01*
X140063980Y-94302839D01*
G75*
G02*
X140313979Y-94052840I249999J0D01*
G01*
X141213981Y-94052840D01*
G75*
G02*
X141463980Y-94302839I0J-249999D01*
G01*
X141463980Y-94952841D01*
G75*
G02*
X141213981Y-95202840I-249999J0D01*
G01*
G37*
%TD.AperFunction*%
%TO.P,C1,1*%
%TO.N,+BATT*%
%TA.AperFunction,SMDPad,CuDef*%
G36*
G01*
X141213981Y-97252840D02*
X140313979Y-97252840D01*
G75*
G02*
X140063980Y-97002841I0J249999D01*
G01*
X140063980Y-96352839D01*
G75*
G02*
X140313979Y-96102840I249999J0D01*
G01*
X141213981Y-96102840D01*
G75*
G02*
X141463980Y-96352839I0J-249999D01*
G01*
X141463980Y-97002841D01*
G75*
G02*
X141213981Y-97252840I-249999J0D01*
G01*
G37*
%TD.AperFunction*%
%TD*%
D25*
%TO.N,GND*%
X149990460Y-86489540D03*
X165090000Y-116780000D03*
X165070000Y-120020000D03*
X165100002Y-113070000D03*
X150000000Y-92183920D03*
X155559760Y-92196920D03*
X165080000Y-123840000D03*
D26*
%TO.N,+BATT*%
X138917682Y-89529920D03*
X138904980Y-93898718D03*
%TO.N,VBUS*%
X135480000Y-90891360D03*
X135439988Y-85110012D03*
D25*
%TO.N,EN*%
X153930000Y-121340000D03*
%TO.N,SDA*%
X143360000Y-115130000D03*
%TO.N,SCL*%
X142560000Y-119050000D03*
%TO.N,Net-(C3-Pad1)*%
X158920160Y-89823640D03*
X155557220Y-89844880D03*
%TO.N,ADC1*%
X163169998Y-105100000D03*
%TD*%
D27*
%TO.N,GND*%
X161842560Y-107364420D02*
X163088320Y-107364420D01*
X140763980Y-94627840D02*
X141037840Y-94627840D01*
X141037840Y-94627840D02*
X142010000Y-95600000D01*
X142010000Y-95600000D02*
X143060000Y-95600000D01*
D28*
X152561180Y-87514320D02*
X156787260Y-87514320D01*
X151617560Y-86570700D02*
X152561180Y-87514320D01*
X151475000Y-86570700D02*
X151617560Y-86570700D01*
D27*
X132740400Y-93581120D02*
X132740400Y-95956120D01*
X151485160Y-86484340D02*
X149995660Y-86484340D01*
X149995660Y-86484340D02*
X149990460Y-86489540D01*
X134752080Y-108641300D02*
X135779200Y-107614180D01*
X134752080Y-110213140D02*
X134752080Y-108641300D01*
X165090000Y-116780000D02*
X165090000Y-120000000D01*
X165090000Y-120000000D02*
X165070000Y-120020000D01*
X150313220Y-94634300D02*
X150000000Y-94321080D01*
X150000000Y-94321080D02*
X150000000Y-92183920D01*
X160356600Y-94313300D02*
X158240220Y-92196920D01*
X158240220Y-92196920D02*
X155559760Y-92196920D01*
X165050000Y-123810000D02*
X165080000Y-123840000D01*
X162410000Y-123810000D02*
X165050000Y-123810000D01*
X165100002Y-108870002D02*
X165100002Y-113070000D01*
X162690000Y-107870000D02*
X164100000Y-107870000D01*
X164100000Y-107870000D02*
X165100002Y-108870002D01*
X162500000Y-108060000D02*
X162690000Y-107870000D01*
D28*
%TO.N,+BATT*%
X140763980Y-96677840D02*
X143012160Y-96677840D01*
X143012160Y-96677840D02*
X143060000Y-96630000D01*
X138917682Y-88752103D02*
X138917682Y-89529920D01*
X138917682Y-87788618D02*
X138917682Y-88752103D01*
X139111860Y-87594440D02*
X138917682Y-87788618D01*
X140763980Y-96677840D02*
X139855300Y-96677840D01*
X139855300Y-96677840D02*
X138904980Y-95727520D01*
X138904980Y-95727520D02*
X138904980Y-93898718D01*
X134790000Y-87600000D02*
X134850000Y-87600000D01*
X134090000Y-86900000D02*
X134790000Y-87600000D01*
X130525000Y-86900000D02*
X134090000Y-86900000D01*
X134850000Y-87600000D02*
X139740000Y-87600000D01*
X129625000Y-86000000D02*
X130525000Y-86900000D01*
X129625000Y-84865000D02*
X129625000Y-86000000D01*
X129520000Y-84760000D02*
X129625000Y-84865000D01*
%TO.N,VBUS*%
X145774920Y-88545080D02*
X145900000Y-88420000D01*
X145773800Y-96597940D02*
X148127940Y-96597940D01*
X148127940Y-96597940D02*
X148190000Y-96660000D01*
X145944280Y-89965840D02*
X145944280Y-88382480D01*
X146844400Y-90865960D02*
X145944280Y-89965840D01*
X150936960Y-90865960D02*
X146844400Y-90865960D01*
X151973280Y-91902280D02*
X150936960Y-90865960D01*
X151973280Y-92836720D02*
X151973280Y-91902280D01*
X151970000Y-92840000D02*
X151973280Y-92836720D01*
X151970000Y-94380000D02*
X151970000Y-92840000D01*
X144318400Y-88545080D02*
X145774920Y-88545080D01*
X142524620Y-88545080D02*
X144318400Y-88545080D01*
X151978280Y-94371720D02*
X151970000Y-94380000D01*
X154547520Y-94371720D02*
X151978280Y-94371720D01*
X140947100Y-88544440D02*
X142111860Y-88544440D01*
X140440300Y-89051240D02*
X140947100Y-88544440D01*
X140440300Y-90891360D02*
X140440300Y-89051240D01*
X147960000Y-97720000D02*
X147960000Y-97160000D01*
X148560000Y-98320000D02*
X147960000Y-97720000D01*
X151140000Y-98320000D02*
X148560000Y-98320000D01*
X151970000Y-97490000D02*
X151140000Y-98320000D01*
X151970000Y-94380000D02*
X151970000Y-97490000D01*
X140440300Y-90891360D02*
X135674100Y-90891360D01*
D29*
X133421120Y-90896440D02*
X133416040Y-90891360D01*
X135474920Y-90896440D02*
X133421120Y-90896440D01*
X135480000Y-90891360D02*
X135474920Y-90896440D01*
X135674100Y-90891360D02*
X135480000Y-90891360D01*
D28*
X135440000Y-81442240D02*
X135440000Y-85110000D01*
X135440000Y-85110000D02*
X135439988Y-85110012D01*
%TO.N,+3V3*%
X149144520Y-101702800D02*
X149311720Y-101870000D01*
X159499780Y-122585000D02*
X160324780Y-121760000D01*
X160324780Y-121760000D02*
X162201720Y-121760000D01*
X157121720Y-122585000D02*
X159499780Y-122585000D01*
X168731720Y-91149960D02*
X168731720Y-100280000D01*
X162490000Y-121471720D02*
X162201720Y-121760000D01*
X162490000Y-119913280D02*
X162490000Y-121471720D01*
X162261720Y-119685000D02*
X162490000Y-119913280D01*
X168731720Y-118368280D02*
X168731720Y-115633980D01*
X165340000Y-121760000D02*
X168731720Y-118368280D01*
X162201720Y-121760000D02*
X165340000Y-121760000D01*
X168731720Y-110918280D02*
X168731720Y-115633980D01*
X168731720Y-112198280D02*
X168731720Y-110918280D01*
X165325000Y-115605000D02*
X168731720Y-112198280D01*
X162261720Y-115605000D02*
X165325000Y-115605000D01*
X168731720Y-89760000D02*
X168731720Y-91149960D01*
D27*
X163864180Y-82614660D02*
X164193220Y-82943700D01*
D28*
X164122100Y-84249260D02*
X165534340Y-84249260D01*
X165534340Y-84249260D02*
X166451280Y-84249260D01*
X166451280Y-84249260D02*
X168731720Y-86529700D01*
X168731720Y-86529700D02*
X168731720Y-89740640D01*
X148920200Y-78950820D02*
X148920200Y-82529680D01*
X148920200Y-82529680D02*
X150639780Y-84249260D01*
X150639780Y-84249260D02*
X164122100Y-84249260D01*
X130680460Y-102138740D02*
X130461720Y-101920000D01*
X130700000Y-103380000D02*
X130700000Y-101830000D01*
X130035000Y-104045000D02*
X130700000Y-103380000D01*
X130035000Y-105440000D02*
X130035000Y-104045000D01*
X168731720Y-101051720D02*
X168731720Y-100280000D01*
X168731720Y-115633980D02*
X168731720Y-101051720D01*
X166948520Y-99918520D02*
X166950000Y-99920000D01*
X151286540Y-99918520D02*
X166948520Y-99918520D01*
X168721720Y-101051720D02*
X168731720Y-101051720D01*
X167588520Y-99918520D02*
X168721720Y-101051720D01*
X166948520Y-99918520D02*
X167588520Y-99918520D01*
X150928520Y-99918520D02*
X151286540Y-99918520D01*
X150341480Y-99918520D02*
X150928520Y-99918520D01*
X149520000Y-100740000D02*
X150341480Y-99918520D01*
X149520000Y-101870000D02*
X149520000Y-100740000D01*
X130680000Y-100790000D02*
X130680000Y-101651720D01*
X131551480Y-99918520D02*
X130680000Y-100790000D01*
X151286540Y-99918520D02*
X131551480Y-99918520D01*
X168731720Y-90614020D02*
X168731720Y-91149960D01*
X166524940Y-88407240D02*
X168731720Y-90614020D01*
X166524940Y-88407240D02*
X165630860Y-88407240D01*
X164104320Y-84231480D02*
X164122100Y-84249260D01*
X164104320Y-83159600D02*
X164104320Y-84231480D01*
X164040820Y-83096100D02*
X164104320Y-83159600D01*
X130080000Y-105710000D02*
X130080000Y-105877060D01*
X130010000Y-105780000D02*
X130080000Y-105710000D01*
X130010000Y-119300000D02*
X130010000Y-105780000D01*
X133670000Y-122960000D02*
X130010000Y-119300000D01*
X135040000Y-122960000D02*
X133670000Y-122960000D01*
D27*
%TO.N,EN*%
X157330000Y-121315000D02*
X159375000Y-121315000D01*
X159375000Y-121315000D02*
X161070000Y-119620000D01*
X161070000Y-119620000D02*
X161070000Y-114860000D01*
X162500000Y-111460000D02*
X162500000Y-113400000D01*
X153930000Y-121340000D02*
X157610000Y-121340000D01*
X162342740Y-113580000D02*
X162400000Y-113580000D01*
X161070000Y-114852740D02*
X162342740Y-113580000D01*
X161070000Y-114860000D02*
X161070000Y-114852740D01*
%TO.N,Net-(D1-Pad1)*%
X156597520Y-94371720D02*
X156597520Y-96684720D01*
%TO.N,IO2*%
X139134180Y-105474180D02*
X135714180Y-105474180D01*
X139670000Y-106010000D02*
X139134180Y-105474180D01*
X142780000Y-106010000D02*
X139670000Y-106010000D01*
%TO.N,Net-(D5-Pad1)*%
X133734200Y-107238340D02*
X133729200Y-107243340D01*
X133914200Y-105444180D02*
X133914200Y-107579180D01*
%TO.N,SDA*%
X143360000Y-116220000D02*
X143360000Y-115130000D01*
X142070000Y-117510000D02*
X143360000Y-116220000D01*
X140060000Y-117510000D02*
X142070000Y-117510000D01*
X139890000Y-117340000D02*
X140060000Y-117510000D01*
%TO.N,SCL*%
X138975000Y-121315000D02*
X138930000Y-121360000D01*
X140330000Y-121315000D02*
X138975000Y-121315000D01*
X142560000Y-120630000D02*
X142560000Y-119050000D01*
X141850000Y-121340000D02*
X142560000Y-120630000D01*
X140130000Y-121340000D02*
X141850000Y-121340000D01*
%TO.N,TX0*%
X139670000Y-120290000D02*
X139900000Y-120060000D01*
X134750000Y-120290000D02*
X139670000Y-120290000D01*
X134730000Y-120310000D02*
X134750000Y-120290000D01*
%TO.N,RX0*%
X137070000Y-118810000D02*
X140000000Y-118810000D01*
X136050000Y-117790000D02*
X137070000Y-118810000D01*
X134830000Y-117790000D02*
X136050000Y-117790000D01*
%TO.N,IO0*%
X136890000Y-108776260D02*
X138206260Y-107460000D01*
X136890000Y-111885220D02*
X136890000Y-108776260D01*
X136075220Y-112700000D02*
X136890000Y-111885220D01*
X132990000Y-112700000D02*
X136075220Y-112700000D01*
X138206260Y-107460000D02*
X140290000Y-107460000D01*
X132085000Y-111795000D02*
X132990000Y-112700000D01*
X132085000Y-105440000D02*
X132085000Y-111795000D01*
%TO.N,Net-(R5-Pad1)*%
X159174220Y-86564320D02*
X159301180Y-86437360D01*
X156883780Y-86564320D02*
X159174220Y-86564320D01*
%TO.N,Net-(D4-Pad2)*%
X162406600Y-94313300D02*
X162406600Y-96644100D01*
D28*
%TO.N,Net-(C3-Pad1)*%
X161590000Y-89372160D02*
X161590000Y-88710000D01*
X161052160Y-89910000D02*
X161590000Y-89372160D01*
X158910000Y-89910000D02*
X161052160Y-89910000D01*
X154840940Y-89844880D02*
X155557220Y-89844880D01*
X154173620Y-89177560D02*
X154840940Y-89844880D01*
X154173620Y-88550680D02*
X154173620Y-89177560D01*
D27*
X164038560Y-88489900D02*
X164197200Y-88648540D01*
D28*
X161559240Y-88489900D02*
X164038560Y-88489900D01*
%TO.N,Net-(C4-Pad1)*%
X142524620Y-86645080D02*
X147845080Y-86645080D01*
X147845080Y-86645080D02*
X148450000Y-87250000D01*
X148450000Y-87250000D02*
X148450000Y-88360000D01*
X148444280Y-88382480D02*
X151236780Y-88382480D01*
X159237720Y-88437720D02*
X159380000Y-88580000D01*
X156910380Y-88437720D02*
X159237720Y-88437720D01*
X156883780Y-88464320D02*
X156910380Y-88437720D01*
X151485160Y-88534340D02*
X151485160Y-89864760D01*
X151485160Y-89864760D02*
X152679400Y-91059000D01*
X152679400Y-91059000D02*
X155671520Y-91059000D01*
X155671520Y-91059000D02*
X156883780Y-89846740D01*
X156883780Y-89846740D02*
X156883780Y-88464320D01*
D27*
%TO.N,Net-(R2-Pad1)*%
X159567080Y-98935540D02*
X160377560Y-98125060D01*
X145234660Y-98935540D02*
X159567080Y-98935540D01*
X144450000Y-98150880D02*
X145234660Y-98935540D01*
X144450000Y-95044140D02*
X144450000Y-98150880D01*
X144103800Y-94697940D02*
X144450000Y-95044140D01*
X160377560Y-98125060D02*
X160377560Y-96865060D01*
X143073800Y-94697940D02*
X144103800Y-94697940D01*
X154558940Y-98897500D02*
X154520900Y-98935540D01*
X154558940Y-96822540D02*
X154558940Y-98897500D01*
%TO.N,Net-(D2-Pad2)*%
X163518960Y-77716380D02*
X163529120Y-77706220D01*
X163518960Y-78244700D02*
X163518960Y-77716380D01*
X165643220Y-78503440D02*
X165643220Y-82943700D01*
X164846000Y-77706220D02*
X165643220Y-78503440D01*
X163529120Y-77706220D02*
X164846000Y-77706220D01*
%TO.N,Net-(D2-Pad1)*%
X161496900Y-80510380D02*
X161474040Y-80533240D01*
X161429700Y-80366980D02*
X161479120Y-80416400D01*
X161429700Y-77755640D02*
X161429700Y-80366980D01*
X161479120Y-77706220D02*
X161429700Y-77755640D01*
%TO.N,Net-(R6-Pad1)*%
X145773800Y-94697940D02*
X148152060Y-94697940D01*
X148152060Y-94697940D02*
X148240000Y-94610000D01*
%TO.N,INT*%
X159580000Y-113680000D02*
X157960000Y-113680000D01*
X159900000Y-113360000D02*
X159580000Y-113680000D01*
X159900000Y-106363590D02*
X159900000Y-113360000D01*
X161893590Y-104370000D02*
X159900000Y-106363590D01*
X165217980Y-104370000D02*
X161893590Y-104370000D01*
X167300000Y-102287980D02*
X165217980Y-104370000D01*
X167300000Y-101870000D02*
X167300000Y-102287980D01*
%TO.N,ADC1*%
X160492440Y-106613960D02*
X162006400Y-105100000D01*
X162006400Y-105100000D02*
X163169998Y-105100000D01*
X160492440Y-116437560D02*
X160492440Y-106613960D01*
X159425000Y-117505000D02*
X160492440Y-116437560D01*
X157330000Y-117505000D02*
X159425000Y-117505000D01*
%TD*%
D30*
%TO.N,GND*%
X148124188Y-100825518D02*
X148111928Y-100950000D01*
X148111928Y-102650000D01*
X148124188Y-102774482D01*
X148160498Y-102894180D01*
X148219463Y-103004494D01*
X148298815Y-103101185D01*
X148395506Y-103180537D01*
X148505820Y-103239502D01*
X148625518Y-103275812D01*
X148750000Y-103288072D01*
X150450000Y-103288072D01*
X150574482Y-103275812D01*
X150694180Y-103239502D01*
X150804494Y-103180537D01*
X150901185Y-103101185D01*
X150980537Y-103004494D01*
X151039502Y-102894180D01*
X151061513Y-102821620D01*
X151193368Y-102953475D01*
X151436589Y-103115990D01*
X151706842Y-103227932D01*
X151993740Y-103285000D01*
X152286260Y-103285000D01*
X152573158Y-103227932D01*
X152843411Y-103115990D01*
X153086632Y-102953475D01*
X153293475Y-102746632D01*
X153415195Y-102564466D01*
X153484822Y-102681355D01*
X153679731Y-102897588D01*
X153913080Y-103071641D01*
X154175901Y-103196825D01*
X154323110Y-103241476D01*
X154553000Y-103120155D01*
X154553000Y-101927000D01*
X154533000Y-101927000D01*
X154533000Y-101673000D01*
X154553000Y-101673000D01*
X154553000Y-101653000D01*
X154807000Y-101653000D01*
X154807000Y-101673000D01*
X154827000Y-101673000D01*
X154827000Y-101927000D01*
X154807000Y-101927000D01*
X154807000Y-103120155D01*
X155036890Y-103241476D01*
X155184099Y-103196825D01*
X155446920Y-103071641D01*
X155680269Y-102897588D01*
X155875178Y-102681355D01*
X155944805Y-102564466D01*
X156066525Y-102746632D01*
X156273368Y-102953475D01*
X156516589Y-103115990D01*
X156786842Y-103227932D01*
X157073740Y-103285000D01*
X157366260Y-103285000D01*
X157653158Y-103227932D01*
X157923411Y-103115990D01*
X158166632Y-102953475D01*
X158373475Y-102746632D01*
X158490000Y-102572240D01*
X158606525Y-102746632D01*
X158813368Y-102953475D01*
X159056589Y-103115990D01*
X159326842Y-103227932D01*
X159613740Y-103285000D01*
X159906260Y-103285000D01*
X160193158Y-103227932D01*
X160463411Y-103115990D01*
X160706632Y-102953475D01*
X160913475Y-102746632D01*
X161030000Y-102572240D01*
X161146525Y-102746632D01*
X161353368Y-102953475D01*
X161596589Y-103115990D01*
X161866842Y-103227932D01*
X162153740Y-103285000D01*
X162446260Y-103285000D01*
X162733158Y-103227932D01*
X163003411Y-103115990D01*
X163246632Y-102953475D01*
X163453475Y-102746632D01*
X163570000Y-102572240D01*
X163686525Y-102746632D01*
X163893368Y-102953475D01*
X164136589Y-103115990D01*
X164406842Y-103227932D01*
X164693740Y-103285000D01*
X164986260Y-103285000D01*
X165273158Y-103227932D01*
X165293795Y-103219384D01*
X164903179Y-103610000D01*
X161930912Y-103610000D01*
X161893589Y-103606324D01*
X161856267Y-103610000D01*
X161856257Y-103610000D01*
X161744604Y-103620997D01*
X161601343Y-103664454D01*
X161469313Y-103735026D01*
X161385673Y-103803668D01*
X161353589Y-103829999D01*
X161329791Y-103858997D01*
X159389003Y-105799786D01*
X159359999Y-105823589D01*
X159310840Y-105883490D01*
X159265026Y-105939314D01*
X159223392Y-106017205D01*
X159194454Y-106071344D01*
X159150997Y-106214605D01*
X159146667Y-106258569D01*
X159130000Y-106256928D01*
X156330000Y-106256928D01*
X156205518Y-106269188D01*
X156085820Y-106305498D01*
X155975506Y-106364463D01*
X155878815Y-106443815D01*
X155799463Y-106540506D01*
X155740498Y-106650820D01*
X155704188Y-106770518D01*
X155691928Y-106895000D01*
X155691928Y-107795000D01*
X155704188Y-107919482D01*
X155722546Y-107980000D01*
X155704188Y-108040518D01*
X155691928Y-108165000D01*
X155691928Y-109065000D01*
X155704188Y-109189482D01*
X155722546Y-109250000D01*
X155704188Y-109310518D01*
X155691928Y-109435000D01*
X155691928Y-110335000D01*
X155704188Y-110459482D01*
X155722546Y-110520000D01*
X155704188Y-110580518D01*
X155691928Y-110705000D01*
X155691928Y-111605000D01*
X155704188Y-111729482D01*
X155722546Y-111790000D01*
X155704188Y-111850518D01*
X155691928Y-111975000D01*
X155691928Y-112875000D01*
X155704188Y-112999482D01*
X155722546Y-113060000D01*
X155704188Y-113120518D01*
X155691928Y-113245000D01*
X155691928Y-114145000D01*
X155704188Y-114269482D01*
X155722546Y-114330000D01*
X155704188Y-114390518D01*
X155691928Y-114515000D01*
X155691928Y-115415000D01*
X155704188Y-115539482D01*
X155722546Y-115600000D01*
X155704188Y-115660518D01*
X155691928Y-115785000D01*
X155691928Y-116685000D01*
X155704188Y-116809482D01*
X155722546Y-116870000D01*
X155704188Y-116930518D01*
X155691928Y-117055000D01*
X155691928Y-117955000D01*
X155704188Y-118079482D01*
X155722546Y-118140000D01*
X155704188Y-118200518D01*
X155691928Y-118325000D01*
X155691928Y-119225000D01*
X155704188Y-119349482D01*
X155722546Y-119410000D01*
X155704188Y-119470518D01*
X155691928Y-119595000D01*
X155691928Y-120495000D01*
X155700299Y-120580000D01*
X154633711Y-120580000D01*
X154589774Y-120536063D01*
X154420256Y-120422795D01*
X154231898Y-120344774D01*
X154031939Y-120305000D01*
X153828061Y-120305000D01*
X153628102Y-120344774D01*
X153439744Y-120422795D01*
X153270226Y-120536063D01*
X153126063Y-120680226D01*
X153012795Y-120849744D01*
X152934774Y-121038102D01*
X152895000Y-121238061D01*
X152895000Y-121441939D01*
X152934774Y-121641898D01*
X153012795Y-121830256D01*
X153126063Y-121999774D01*
X153270226Y-122143937D01*
X153439744Y-122257205D01*
X153628102Y-122335226D01*
X153828061Y-122375000D01*
X154031939Y-122375000D01*
X154231898Y-122335226D01*
X154420256Y-122257205D01*
X154589774Y-122143937D01*
X154633711Y-122100000D01*
X155695375Y-122100000D01*
X155691928Y-122135000D01*
X155691928Y-123035000D01*
X155704188Y-123159482D01*
X155722546Y-123220000D01*
X155704188Y-123280518D01*
X155691928Y-123405000D01*
X155695000Y-123569250D01*
X155853750Y-123728000D01*
X157603000Y-123728000D01*
X157603000Y-123708000D01*
X157857000Y-123708000D01*
X157857000Y-123728000D01*
X159606250Y-123728000D01*
X159765000Y-123569250D01*
X159767631Y-123428570D01*
X159840093Y-123406589D01*
X159993839Y-123324411D01*
X160128597Y-123213817D01*
X160156314Y-123180044D01*
X160691359Y-122645000D01*
X161348573Y-122645000D01*
X161392038Y-122697962D01*
X161398594Y-122703342D01*
X161318815Y-122768815D01*
X161239463Y-122865506D01*
X161180498Y-122975820D01*
X161144188Y-123095518D01*
X161131928Y-123220000D01*
X161135000Y-123509250D01*
X161293750Y-123668000D01*
X162343000Y-123668000D01*
X162343000Y-123648000D01*
X162597000Y-123648000D01*
X162597000Y-123668000D01*
X163646250Y-123668000D01*
X163805000Y-123509250D01*
X163808072Y-123220000D01*
X163795812Y-123095518D01*
X163759502Y-122975820D01*
X163700537Y-122865506D01*
X163621185Y-122768815D01*
X163541406Y-122703342D01*
X163547962Y-122697962D01*
X163591427Y-122645000D01*
X165296531Y-122645000D01*
X165340000Y-122649281D01*
X165383469Y-122645000D01*
X165383477Y-122645000D01*
X165513490Y-122632195D01*
X165637706Y-122594514D01*
X165590140Y-122833644D01*
X165590140Y-123332996D01*
X165687558Y-123822752D01*
X165878652Y-124284093D01*
X166098440Y-124613028D01*
X163760182Y-124611939D01*
X163795812Y-124494482D01*
X163808072Y-124370000D01*
X163805000Y-124080750D01*
X163646250Y-123922000D01*
X162597000Y-123922000D01*
X162597000Y-123942000D01*
X162343000Y-123942000D01*
X162343000Y-123922000D01*
X161293750Y-123922000D01*
X161135000Y-124080750D01*
X161131928Y-124370000D01*
X161144188Y-124494482D01*
X161179453Y-124610736D01*
X159686971Y-124610041D01*
X159719502Y-124549180D01*
X159755812Y-124429482D01*
X159768072Y-124305000D01*
X159765000Y-124140750D01*
X159606250Y-123982000D01*
X157857000Y-123982000D01*
X157857000Y-124002000D01*
X157603000Y-124002000D01*
X157603000Y-123982000D01*
X155853750Y-123982000D01*
X155695000Y-124140750D01*
X155691928Y-124305000D01*
X155704188Y-124429482D01*
X155740498Y-124549180D01*
X155772054Y-124608217D01*
X141891403Y-124601749D01*
X141919502Y-124549180D01*
X141955812Y-124429482D01*
X141968072Y-124305000D01*
X141965000Y-124140750D01*
X141806250Y-123982000D01*
X140057000Y-123982000D01*
X140057000Y-124002000D01*
X139803000Y-124002000D01*
X139803000Y-123982000D01*
X138053750Y-123982000D01*
X137895000Y-124140750D01*
X137891928Y-124305000D01*
X137904188Y-124429482D01*
X137940498Y-124549180D01*
X137967620Y-124599920D01*
X131659499Y-124596981D01*
X131890628Y-124251073D01*
X132081722Y-123789732D01*
X132179140Y-123299976D01*
X132179140Y-122800624D01*
X132159299Y-122700878D01*
X133013470Y-123555049D01*
X133041183Y-123588817D01*
X133074951Y-123616530D01*
X133074953Y-123616532D01*
X133175941Y-123699411D01*
X133329686Y-123781589D01*
X133356530Y-123789732D01*
X133496510Y-123832195D01*
X133626523Y-123845000D01*
X133626531Y-123845000D01*
X133670000Y-123849281D01*
X133713469Y-123845000D01*
X133778753Y-123845000D01*
X133786525Y-123856632D01*
X133993368Y-124063475D01*
X134236589Y-124225990D01*
X134506842Y-124337932D01*
X134793740Y-124395000D01*
X135086260Y-124395000D01*
X135373158Y-124337932D01*
X135643411Y-124225990D01*
X135886632Y-124063475D01*
X136093475Y-123856632D01*
X136255990Y-123613411D01*
X136367932Y-123343158D01*
X136425000Y-123056260D01*
X136425000Y-122763740D01*
X136367932Y-122476842D01*
X136255990Y-122206589D01*
X136093475Y-121963368D01*
X135886632Y-121756525D01*
X135712240Y-121640000D01*
X135886632Y-121523475D01*
X136093475Y-121316632D01*
X136255990Y-121073411D01*
X136265687Y-121050000D01*
X137891928Y-121050000D01*
X137891928Y-121765000D01*
X137904188Y-121889482D01*
X137922546Y-121950000D01*
X137904188Y-122010518D01*
X137891928Y-122135000D01*
X137891928Y-123035000D01*
X137904188Y-123159482D01*
X137922546Y-123220000D01*
X137904188Y-123280518D01*
X137891928Y-123405000D01*
X137895000Y-123569250D01*
X138053750Y-123728000D01*
X139803000Y-123728000D01*
X139803000Y-123708000D01*
X140057000Y-123708000D01*
X140057000Y-123728000D01*
X141806250Y-123728000D01*
X141965000Y-123569250D01*
X141968072Y-123405000D01*
X141955812Y-123280518D01*
X141937454Y-123220000D01*
X141955812Y-123159482D01*
X141968072Y-123035000D01*
X141968072Y-122135000D01*
X141963882Y-122092460D01*
X141998986Y-122089003D01*
X142142247Y-122045546D01*
X142274276Y-121974974D01*
X142390001Y-121880001D01*
X142413803Y-121850998D01*
X143071004Y-121193798D01*
X143100001Y-121170001D01*
X143194974Y-121054276D01*
X143265546Y-120922247D01*
X143309003Y-120778986D01*
X143320000Y-120667333D01*
X143320000Y-120667332D01*
X143323677Y-120630000D01*
X143320000Y-120592667D01*
X143320000Y-119753711D01*
X143363937Y-119709774D01*
X143477205Y-119540256D01*
X143555226Y-119351898D01*
X143595000Y-119151939D01*
X143595000Y-118948061D01*
X143576490Y-118855000D01*
X146691928Y-118855000D01*
X146704188Y-118979482D01*
X146740498Y-119099180D01*
X146799463Y-119209494D01*
X146878815Y-119306185D01*
X146975506Y-119385537D01*
X147085820Y-119444502D01*
X147205518Y-119480812D01*
X147330000Y-119493072D01*
X149544250Y-119490000D01*
X149703000Y-119331250D01*
X149703000Y-116482000D01*
X149957000Y-116482000D01*
X149957000Y-119331250D01*
X150115750Y-119490000D01*
X152330000Y-119493072D01*
X152454482Y-119480812D01*
X152574180Y-119444502D01*
X152684494Y-119385537D01*
X152781185Y-119306185D01*
X152860537Y-119209494D01*
X152919502Y-119099180D01*
X152955812Y-118979482D01*
X152968072Y-118855000D01*
X152965000Y-116640750D01*
X152806250Y-116482000D01*
X149957000Y-116482000D01*
X149703000Y-116482000D01*
X146853750Y-116482000D01*
X146695000Y-116640750D01*
X146691928Y-118855000D01*
X143576490Y-118855000D01*
X143555226Y-118748102D01*
X143477205Y-118559744D01*
X143363937Y-118390226D01*
X143219774Y-118246063D01*
X143050256Y-118132795D01*
X142861898Y-118054774D01*
X142661939Y-118015000D01*
X142639801Y-118015000D01*
X143871009Y-116783794D01*
X143900001Y-116760001D01*
X143923795Y-116731008D01*
X143923799Y-116731004D01*
X143994973Y-116644277D01*
X143994974Y-116644276D01*
X144065546Y-116512247D01*
X144109003Y-116368986D01*
X144120000Y-116257333D01*
X144120000Y-116257324D01*
X144123676Y-116220001D01*
X144120000Y-116182678D01*
X144120000Y-115833711D01*
X144163937Y-115789774D01*
X144277205Y-115620256D01*
X144355226Y-115431898D01*
X144395000Y-115231939D01*
X144395000Y-115028061D01*
X144355226Y-114828102D01*
X144277205Y-114639744D01*
X144163937Y-114470226D01*
X144019774Y-114326063D01*
X143850256Y-114212795D01*
X143661898Y-114134774D01*
X143461939Y-114095000D01*
X143258061Y-114095000D01*
X143058102Y-114134774D01*
X142869744Y-114212795D01*
X142700226Y-114326063D01*
X142556063Y-114470226D01*
X142442795Y-114639744D01*
X142364774Y-114828102D01*
X142325000Y-115028061D01*
X142325000Y-115231939D01*
X142364774Y-115431898D01*
X142442795Y-115620256D01*
X142556063Y-115789774D01*
X142600000Y-115833711D01*
X142600000Y-115905197D01*
X141968072Y-116537126D01*
X141968072Y-115785000D01*
X141955812Y-115660518D01*
X141937454Y-115600000D01*
X141955812Y-115539482D01*
X141968072Y-115415000D01*
X141968072Y-114515000D01*
X141955812Y-114390518D01*
X141937454Y-114330000D01*
X141955812Y-114269482D01*
X141968072Y-114145000D01*
X141968072Y-113855000D01*
X146691928Y-113855000D01*
X146695000Y-116069250D01*
X146853750Y-116228000D01*
X149703000Y-116228000D01*
X149703000Y-113378750D01*
X149957000Y-113378750D01*
X149957000Y-116228000D01*
X152806250Y-116228000D01*
X152965000Y-116069250D01*
X152968072Y-113855000D01*
X152955812Y-113730518D01*
X152919502Y-113610820D01*
X152860537Y-113500506D01*
X152781185Y-113403815D01*
X152684494Y-113324463D01*
X152574180Y-113265498D01*
X152454482Y-113229188D01*
X152330000Y-113216928D01*
X150115750Y-113220000D01*
X149957000Y-113378750D01*
X149703000Y-113378750D01*
X149544250Y-113220000D01*
X147330000Y-113216928D01*
X147205518Y-113229188D01*
X147085820Y-113265498D01*
X146975506Y-113324463D01*
X146878815Y-113403815D01*
X146799463Y-113500506D01*
X146740498Y-113610820D01*
X146704188Y-113730518D01*
X146691928Y-113855000D01*
X141968072Y-113855000D01*
X141968072Y-113245000D01*
X141955812Y-113120518D01*
X141937454Y-113060000D01*
X141955812Y-112999482D01*
X141968072Y-112875000D01*
X141968072Y-111975000D01*
X141955812Y-111850518D01*
X141937454Y-111790000D01*
X141955812Y-111729482D01*
X141968072Y-111605000D01*
X141968072Y-110705000D01*
X141955812Y-110580518D01*
X141937454Y-110520000D01*
X141955812Y-110459482D01*
X141968072Y-110335000D01*
X141968072Y-109435000D01*
X141955812Y-109310518D01*
X141937454Y-109250000D01*
X141955812Y-109189482D01*
X141968072Y-109065000D01*
X141968072Y-108165000D01*
X141955812Y-108040518D01*
X141937454Y-107980000D01*
X141955812Y-107919482D01*
X141968072Y-107795000D01*
X141968072Y-106895000D01*
X141955812Y-106770518D01*
X141955655Y-106770000D01*
X142026928Y-106770000D01*
X142026928Y-107345000D01*
X142039188Y-107469482D01*
X142075498Y-107589180D01*
X142134463Y-107699494D01*
X142213815Y-107796185D01*
X142310506Y-107875537D01*
X142420820Y-107934502D01*
X142540518Y-107970812D01*
X142665000Y-107983072D01*
X143565000Y-107983072D01*
X143689482Y-107970812D01*
X143750000Y-107952454D01*
X143810518Y-107970812D01*
X143935000Y-107983072D01*
X144835000Y-107983072D01*
X144959482Y-107970812D01*
X145020000Y-107952454D01*
X145080518Y-107970812D01*
X145205000Y-107983072D01*
X146105000Y-107983072D01*
X146229482Y-107970812D01*
X146290000Y-107952454D01*
X146350518Y-107970812D01*
X146475000Y-107983072D01*
X147375000Y-107983072D01*
X147499482Y-107970812D01*
X147560000Y-107952454D01*
X147620518Y-107970812D01*
X147745000Y-107983072D01*
X148645000Y-107983072D01*
X148769482Y-107970812D01*
X148830000Y-107952454D01*
X148890518Y-107970812D01*
X149015000Y-107983072D01*
X149915000Y-107983072D01*
X150039482Y-107970812D01*
X150100000Y-107952454D01*
X150160518Y-107970812D01*
X150285000Y-107983072D01*
X151185000Y-107983072D01*
X151309482Y-107970812D01*
X151370000Y-107952454D01*
X151430518Y-107970812D01*
X151555000Y-107983072D01*
X152455000Y-107983072D01*
X152579482Y-107970812D01*
X152640000Y-107952454D01*
X152700518Y-107970812D01*
X152825000Y-107983072D01*
X153725000Y-107983072D01*
X153849482Y-107970812D01*
X153910000Y-107952454D01*
X153970518Y-107970812D01*
X154095000Y-107983072D01*
X154259250Y-107980000D01*
X154418000Y-107821250D01*
X154418000Y-106072000D01*
X154672000Y-106072000D01*
X154672000Y-107821250D01*
X154830750Y-107980000D01*
X154995000Y-107983072D01*
X155119482Y-107970812D01*
X155239180Y-107934502D01*
X155349494Y-107875537D01*
X155446185Y-107796185D01*
X155525537Y-107699494D01*
X155584502Y-107589180D01*
X155620812Y-107469482D01*
X155633072Y-107345000D01*
X155630000Y-106230750D01*
X155471250Y-106072000D01*
X154672000Y-106072000D01*
X154418000Y-106072000D01*
X154398000Y-106072000D01*
X154398000Y-105818000D01*
X154418000Y-105818000D01*
X154418000Y-104068750D01*
X154672000Y-104068750D01*
X154672000Y-105818000D01*
X155471250Y-105818000D01*
X155630000Y-105659250D01*
X155633072Y-104545000D01*
X155620812Y-104420518D01*
X155584502Y-104300820D01*
X155525537Y-104190506D01*
X155446185Y-104093815D01*
X155349494Y-104014463D01*
X155239180Y-103955498D01*
X155119482Y-103919188D01*
X154995000Y-103906928D01*
X154830750Y-103910000D01*
X154672000Y-104068750D01*
X154418000Y-104068750D01*
X154259250Y-103910000D01*
X154095000Y-103906928D01*
X153970518Y-103919188D01*
X153910000Y-103937546D01*
X153849482Y-103919188D01*
X153725000Y-103906928D01*
X152825000Y-103906928D01*
X152700518Y-103919188D01*
X152640000Y-103937546D01*
X152579482Y-103919188D01*
X152455000Y-103906928D01*
X151555000Y-103906928D01*
X151430518Y-103919188D01*
X151370000Y-103937546D01*
X151309482Y-103919188D01*
X151185000Y-103906928D01*
X150285000Y-103906928D01*
X150160518Y-103919188D01*
X150100000Y-103937546D01*
X150039482Y-103919188D01*
X149915000Y-103906928D01*
X149015000Y-103906928D01*
X148890518Y-103919188D01*
X148830000Y-103937546D01*
X148769482Y-103919188D01*
X148645000Y-103906928D01*
X147745000Y-103906928D01*
X147620518Y-103919188D01*
X147560000Y-103937546D01*
X147499482Y-103919188D01*
X147375000Y-103906928D01*
X146475000Y-103906928D01*
X146350518Y-103919188D01*
X146290000Y-103937546D01*
X146229482Y-103919188D01*
X146105000Y-103906928D01*
X145205000Y-103906928D01*
X145080518Y-103919188D01*
X145020000Y-103937546D01*
X144959482Y-103919188D01*
X144835000Y-103906928D01*
X143935000Y-103906928D01*
X143810518Y-103919188D01*
X143750000Y-103937546D01*
X143689482Y-103919188D01*
X143565000Y-103906928D01*
X142665000Y-103906928D01*
X142540518Y-103919188D01*
X142420820Y-103955498D01*
X142310506Y-104014463D01*
X142213815Y-104093815D01*
X142134463Y-104190506D01*
X142075498Y-104300820D01*
X142039188Y-104420518D01*
X142026928Y-104545000D01*
X142026928Y-105250000D01*
X139984802Y-105250000D01*
X139697983Y-104963182D01*
X139674181Y-104934179D01*
X139558456Y-104839206D01*
X139426427Y-104768634D01*
X139283166Y-104725177D01*
X139171513Y-104714180D01*
X139171502Y-104714180D01*
X139134180Y-104710504D01*
X139096858Y-104714180D01*
X137127827Y-104714180D01*
X137109672Y-104654329D01*
X137027605Y-104500793D01*
X136917162Y-104366218D01*
X136782587Y-104255775D01*
X136629051Y-104173708D01*
X136462455Y-104123172D01*
X136289201Y-104106108D01*
X135639199Y-104106108D01*
X135465945Y-104123172D01*
X135299349Y-104173708D01*
X135145813Y-104255775D01*
X135011238Y-104366218D01*
X134939200Y-104453996D01*
X134867162Y-104366218D01*
X134732587Y-104255775D01*
X134579051Y-104173708D01*
X134412455Y-104123172D01*
X134239201Y-104106108D01*
X133589199Y-104106108D01*
X133415945Y-104123172D01*
X133249349Y-104173708D01*
X133095813Y-104255775D01*
X133002147Y-104332645D01*
X132903387Y-104251595D01*
X132749851Y-104169528D01*
X132583255Y-104118992D01*
X132410001Y-104101928D01*
X131759999Y-104101928D01*
X131586745Y-104118992D01*
X131420149Y-104169528D01*
X131266613Y-104251595D01*
X131132038Y-104362038D01*
X131060000Y-104449816D01*
X130987962Y-104362038D01*
X130977844Y-104353734D01*
X131295050Y-104036529D01*
X131328817Y-104008817D01*
X131439411Y-103874059D01*
X131521589Y-103720313D01*
X131572195Y-103553490D01*
X131585000Y-103423477D01*
X131585000Y-103423467D01*
X131589281Y-103380001D01*
X131585000Y-103336534D01*
X131585000Y-103285612D01*
X131677802Y-103276472D01*
X131797500Y-103240162D01*
X131907814Y-103181197D01*
X132004505Y-103101845D01*
X132083857Y-103005154D01*
X132142822Y-102894840D01*
X132164833Y-102822280D01*
X132296688Y-102954135D01*
X132539909Y-103116650D01*
X132810162Y-103228592D01*
X133097060Y-103285660D01*
X133389580Y-103285660D01*
X133676478Y-103228592D01*
X133946731Y-103116650D01*
X134189952Y-102954135D01*
X134396795Y-102747292D01*
X134518515Y-102565126D01*
X134588142Y-102682015D01*
X134783051Y-102898248D01*
X135016400Y-103072301D01*
X135279221Y-103197485D01*
X135426430Y-103242136D01*
X135656320Y-103120815D01*
X135656320Y-101927660D01*
X135636320Y-101927660D01*
X135636320Y-101673660D01*
X135656320Y-101673660D01*
X135656320Y-101653660D01*
X135910320Y-101653660D01*
X135910320Y-101673660D01*
X135930320Y-101673660D01*
X135930320Y-101927660D01*
X135910320Y-101927660D01*
X135910320Y-103120815D01*
X136140210Y-103242136D01*
X136287419Y-103197485D01*
X136550240Y-103072301D01*
X136783589Y-102898248D01*
X136978498Y-102682015D01*
X137048125Y-102565126D01*
X137169845Y-102747292D01*
X137376688Y-102954135D01*
X137619909Y-103116650D01*
X137890162Y-103228592D01*
X138177060Y-103285660D01*
X138469580Y-103285660D01*
X138756478Y-103228592D01*
X139026731Y-103116650D01*
X139269952Y-102954135D01*
X139476795Y-102747292D01*
X139593320Y-102572900D01*
X139709845Y-102747292D01*
X139916688Y-102954135D01*
X140159909Y-103116650D01*
X140430162Y-103228592D01*
X140717060Y-103285660D01*
X141009580Y-103285660D01*
X141296478Y-103228592D01*
X141566731Y-103116650D01*
X141809952Y-102954135D01*
X142016795Y-102747292D01*
X142133320Y-102572900D01*
X142249845Y-102747292D01*
X142456688Y-102954135D01*
X142699909Y-103116650D01*
X142970162Y-103228592D01*
X143257060Y-103285660D01*
X143549580Y-103285660D01*
X143836478Y-103228592D01*
X144106731Y-103116650D01*
X144349952Y-102954135D01*
X144556795Y-102747292D01*
X144673320Y-102572900D01*
X144789845Y-102747292D01*
X144996688Y-102954135D01*
X145239909Y-103116650D01*
X145510162Y-103228592D01*
X145797060Y-103285660D01*
X146089580Y-103285660D01*
X146376478Y-103228592D01*
X146646731Y-103116650D01*
X146889952Y-102954135D01*
X147096795Y-102747292D01*
X147259310Y-102504071D01*
X147371252Y-102233818D01*
X147428320Y-101946920D01*
X147428320Y-101654400D01*
X147371252Y-101367502D01*
X147259310Y-101097249D01*
X147096795Y-100854028D01*
X147046287Y-100803520D01*
X148130861Y-100803520D01*
X148124188Y-100825518D01*
%TA.AperFunction,Conductor*%
D31*
G36*
X148124188Y-100825518D02*
G01*
X148111928Y-100950000D01*
X148111928Y-102650000D01*
X148124188Y-102774482D01*
X148160498Y-102894180D01*
X148219463Y-103004494D01*
X148298815Y-103101185D01*
X148395506Y-103180537D01*
X148505820Y-103239502D01*
X148625518Y-103275812D01*
X148750000Y-103288072D01*
X150450000Y-103288072D01*
X150574482Y-103275812D01*
X150694180Y-103239502D01*
X150804494Y-103180537D01*
X150901185Y-103101185D01*
X150980537Y-103004494D01*
X151039502Y-102894180D01*
X151061513Y-102821620D01*
X151193368Y-102953475D01*
X151436589Y-103115990D01*
X151706842Y-103227932D01*
X151993740Y-103285000D01*
X152286260Y-103285000D01*
X152573158Y-103227932D01*
X152843411Y-103115990D01*
X153086632Y-102953475D01*
X153293475Y-102746632D01*
X153415195Y-102564466D01*
X153484822Y-102681355D01*
X153679731Y-102897588D01*
X153913080Y-103071641D01*
X154175901Y-103196825D01*
X154323110Y-103241476D01*
X154553000Y-103120155D01*
X154553000Y-101927000D01*
X154533000Y-101927000D01*
X154533000Y-101673000D01*
X154553000Y-101673000D01*
X154553000Y-101653000D01*
X154807000Y-101653000D01*
X154807000Y-101673000D01*
X154827000Y-101673000D01*
X154827000Y-101927000D01*
X154807000Y-101927000D01*
X154807000Y-103120155D01*
X155036890Y-103241476D01*
X155184099Y-103196825D01*
X155446920Y-103071641D01*
X155680269Y-102897588D01*
X155875178Y-102681355D01*
X155944805Y-102564466D01*
X156066525Y-102746632D01*
X156273368Y-102953475D01*
X156516589Y-103115990D01*
X156786842Y-103227932D01*
X157073740Y-103285000D01*
X157366260Y-103285000D01*
X157653158Y-103227932D01*
X157923411Y-103115990D01*
X158166632Y-102953475D01*
X158373475Y-102746632D01*
X158490000Y-102572240D01*
X158606525Y-102746632D01*
X158813368Y-102953475D01*
X159056589Y-103115990D01*
X159326842Y-103227932D01*
X159613740Y-103285000D01*
X159906260Y-103285000D01*
X160193158Y-103227932D01*
X160463411Y-103115990D01*
X160706632Y-102953475D01*
X160913475Y-102746632D01*
X161030000Y-102572240D01*
X161146525Y-102746632D01*
X161353368Y-102953475D01*
X161596589Y-103115990D01*
X161866842Y-103227932D01*
X162153740Y-103285000D01*
X162446260Y-103285000D01*
X162733158Y-103227932D01*
X163003411Y-103115990D01*
X163246632Y-102953475D01*
X163453475Y-102746632D01*
X163570000Y-102572240D01*
X163686525Y-102746632D01*
X163893368Y-102953475D01*
X164136589Y-103115990D01*
X164406842Y-103227932D01*
X164693740Y-103285000D01*
X164986260Y-103285000D01*
X165273158Y-103227932D01*
X165293795Y-103219384D01*
X164903179Y-103610000D01*
X161930912Y-103610000D01*
X161893589Y-103606324D01*
X161856267Y-103610000D01*
X161856257Y-103610000D01*
X161744604Y-103620997D01*
X161601343Y-103664454D01*
X161469313Y-103735026D01*
X161385673Y-103803668D01*
X161353589Y-103829999D01*
X161329791Y-103858997D01*
X159389003Y-105799786D01*
X159359999Y-105823589D01*
X159310840Y-105883490D01*
X159265026Y-105939314D01*
X159223392Y-106017205D01*
X159194454Y-106071344D01*
X159150997Y-106214605D01*
X159146667Y-106258569D01*
X159130000Y-106256928D01*
X156330000Y-106256928D01*
X156205518Y-106269188D01*
X156085820Y-106305498D01*
X155975506Y-106364463D01*
X155878815Y-106443815D01*
X155799463Y-106540506D01*
X155740498Y-106650820D01*
X155704188Y-106770518D01*
X155691928Y-106895000D01*
X155691928Y-107795000D01*
X155704188Y-107919482D01*
X155722546Y-107980000D01*
X155704188Y-108040518D01*
X155691928Y-108165000D01*
X155691928Y-109065000D01*
X155704188Y-109189482D01*
X155722546Y-109250000D01*
X155704188Y-109310518D01*
X155691928Y-109435000D01*
X155691928Y-110335000D01*
X155704188Y-110459482D01*
X155722546Y-110520000D01*
X155704188Y-110580518D01*
X155691928Y-110705000D01*
X155691928Y-111605000D01*
X155704188Y-111729482D01*
X155722546Y-111790000D01*
X155704188Y-111850518D01*
X155691928Y-111975000D01*
X155691928Y-112875000D01*
X155704188Y-112999482D01*
X155722546Y-113060000D01*
X155704188Y-113120518D01*
X155691928Y-113245000D01*
X155691928Y-114145000D01*
X155704188Y-114269482D01*
X155722546Y-114330000D01*
X155704188Y-114390518D01*
X155691928Y-114515000D01*
X155691928Y-115415000D01*
X155704188Y-115539482D01*
X155722546Y-115600000D01*
X155704188Y-115660518D01*
X155691928Y-115785000D01*
X155691928Y-116685000D01*
X155704188Y-116809482D01*
X155722546Y-116870000D01*
X155704188Y-116930518D01*
X155691928Y-117055000D01*
X155691928Y-117955000D01*
X155704188Y-118079482D01*
X155722546Y-118140000D01*
X155704188Y-118200518D01*
X155691928Y-118325000D01*
X155691928Y-119225000D01*
X155704188Y-119349482D01*
X155722546Y-119410000D01*
X155704188Y-119470518D01*
X155691928Y-119595000D01*
X155691928Y-120495000D01*
X155700299Y-120580000D01*
X154633711Y-120580000D01*
X154589774Y-120536063D01*
X154420256Y-120422795D01*
X154231898Y-120344774D01*
X154031939Y-120305000D01*
X153828061Y-120305000D01*
X153628102Y-120344774D01*
X153439744Y-120422795D01*
X153270226Y-120536063D01*
X153126063Y-120680226D01*
X153012795Y-120849744D01*
X152934774Y-121038102D01*
X152895000Y-121238061D01*
X152895000Y-121441939D01*
X152934774Y-121641898D01*
X153012795Y-121830256D01*
X153126063Y-121999774D01*
X153270226Y-122143937D01*
X153439744Y-122257205D01*
X153628102Y-122335226D01*
X153828061Y-122375000D01*
X154031939Y-122375000D01*
X154231898Y-122335226D01*
X154420256Y-122257205D01*
X154589774Y-122143937D01*
X154633711Y-122100000D01*
X155695375Y-122100000D01*
X155691928Y-122135000D01*
X155691928Y-123035000D01*
X155704188Y-123159482D01*
X155722546Y-123220000D01*
X155704188Y-123280518D01*
X155691928Y-123405000D01*
X155695000Y-123569250D01*
X155853750Y-123728000D01*
X157603000Y-123728000D01*
X157603000Y-123708000D01*
X157857000Y-123708000D01*
X157857000Y-123728000D01*
X159606250Y-123728000D01*
X159765000Y-123569250D01*
X159767631Y-123428570D01*
X159840093Y-123406589D01*
X159993839Y-123324411D01*
X160128597Y-123213817D01*
X160156314Y-123180044D01*
X160691359Y-122645000D01*
X161348573Y-122645000D01*
X161392038Y-122697962D01*
X161398594Y-122703342D01*
X161318815Y-122768815D01*
X161239463Y-122865506D01*
X161180498Y-122975820D01*
X161144188Y-123095518D01*
X161131928Y-123220000D01*
X161135000Y-123509250D01*
X161293750Y-123668000D01*
X162343000Y-123668000D01*
X162343000Y-123648000D01*
X162597000Y-123648000D01*
X162597000Y-123668000D01*
X163646250Y-123668000D01*
X163805000Y-123509250D01*
X163808072Y-123220000D01*
X163795812Y-123095518D01*
X163759502Y-122975820D01*
X163700537Y-122865506D01*
X163621185Y-122768815D01*
X163541406Y-122703342D01*
X163547962Y-122697962D01*
X163591427Y-122645000D01*
X165296531Y-122645000D01*
X165340000Y-122649281D01*
X165383469Y-122645000D01*
X165383477Y-122645000D01*
X165513490Y-122632195D01*
X165637706Y-122594514D01*
X165590140Y-122833644D01*
X165590140Y-123332996D01*
X165687558Y-123822752D01*
X165878652Y-124284093D01*
X166098440Y-124613028D01*
X163760182Y-124611939D01*
X163795812Y-124494482D01*
X163808072Y-124370000D01*
X163805000Y-124080750D01*
X163646250Y-123922000D01*
X162597000Y-123922000D01*
X162597000Y-123942000D01*
X162343000Y-123942000D01*
X162343000Y-123922000D01*
X161293750Y-123922000D01*
X161135000Y-124080750D01*
X161131928Y-124370000D01*
X161144188Y-124494482D01*
X161179453Y-124610736D01*
X159686971Y-124610041D01*
X159719502Y-124549180D01*
X159755812Y-124429482D01*
X159768072Y-124305000D01*
X159765000Y-124140750D01*
X159606250Y-123982000D01*
X157857000Y-123982000D01*
X157857000Y-124002000D01*
X157603000Y-124002000D01*
X157603000Y-123982000D01*
X155853750Y-123982000D01*
X155695000Y-124140750D01*
X155691928Y-124305000D01*
X155704188Y-124429482D01*
X155740498Y-124549180D01*
X155772054Y-124608217D01*
X141891403Y-124601749D01*
X141919502Y-124549180D01*
X141955812Y-124429482D01*
X141968072Y-124305000D01*
X141965000Y-124140750D01*
X141806250Y-123982000D01*
X140057000Y-123982000D01*
X140057000Y-124002000D01*
X139803000Y-124002000D01*
X139803000Y-123982000D01*
X138053750Y-123982000D01*
X137895000Y-124140750D01*
X137891928Y-124305000D01*
X137904188Y-124429482D01*
X137940498Y-124549180D01*
X137967620Y-124599920D01*
X131659499Y-124596981D01*
X131890628Y-124251073D01*
X132081722Y-123789732D01*
X132179140Y-123299976D01*
X132179140Y-122800624D01*
X132159299Y-122700878D01*
X133013470Y-123555049D01*
X133041183Y-123588817D01*
X133074951Y-123616530D01*
X133074953Y-123616532D01*
X133175941Y-123699411D01*
X133329686Y-123781589D01*
X133356530Y-123789732D01*
X133496510Y-123832195D01*
X133626523Y-123845000D01*
X133626531Y-123845000D01*
X133670000Y-123849281D01*
X133713469Y-123845000D01*
X133778753Y-123845000D01*
X133786525Y-123856632D01*
X133993368Y-124063475D01*
X134236589Y-124225990D01*
X134506842Y-124337932D01*
X134793740Y-124395000D01*
X135086260Y-124395000D01*
X135373158Y-124337932D01*
X135643411Y-124225990D01*
X135886632Y-124063475D01*
X136093475Y-123856632D01*
X136255990Y-123613411D01*
X136367932Y-123343158D01*
X136425000Y-123056260D01*
X136425000Y-122763740D01*
X136367932Y-122476842D01*
X136255990Y-122206589D01*
X136093475Y-121963368D01*
X135886632Y-121756525D01*
X135712240Y-121640000D01*
X135886632Y-121523475D01*
X136093475Y-121316632D01*
X136255990Y-121073411D01*
X136265687Y-121050000D01*
X137891928Y-121050000D01*
X137891928Y-121765000D01*
X137904188Y-121889482D01*
X137922546Y-121950000D01*
X137904188Y-122010518D01*
X137891928Y-122135000D01*
X137891928Y-123035000D01*
X137904188Y-123159482D01*
X137922546Y-123220000D01*
X137904188Y-123280518D01*
X137891928Y-123405000D01*
X137895000Y-123569250D01*
X138053750Y-123728000D01*
X139803000Y-123728000D01*
X139803000Y-123708000D01*
X140057000Y-123708000D01*
X140057000Y-123728000D01*
X141806250Y-123728000D01*
X141965000Y-123569250D01*
X141968072Y-123405000D01*
X141955812Y-123280518D01*
X141937454Y-123220000D01*
X141955812Y-123159482D01*
X141968072Y-123035000D01*
X141968072Y-122135000D01*
X141963882Y-122092460D01*
X141998986Y-122089003D01*
X142142247Y-122045546D01*
X142274276Y-121974974D01*
X142390001Y-121880001D01*
X142413803Y-121850998D01*
X143071004Y-121193798D01*
X143100001Y-121170001D01*
X143194974Y-121054276D01*
X143265546Y-120922247D01*
X143309003Y-120778986D01*
X143320000Y-120667333D01*
X143320000Y-120667332D01*
X143323677Y-120630000D01*
X143320000Y-120592667D01*
X143320000Y-119753711D01*
X143363937Y-119709774D01*
X143477205Y-119540256D01*
X143555226Y-119351898D01*
X143595000Y-119151939D01*
X143595000Y-118948061D01*
X143576490Y-118855000D01*
X146691928Y-118855000D01*
X146704188Y-118979482D01*
X146740498Y-119099180D01*
X146799463Y-119209494D01*
X146878815Y-119306185D01*
X146975506Y-119385537D01*
X147085820Y-119444502D01*
X147205518Y-119480812D01*
X147330000Y-119493072D01*
X149544250Y-119490000D01*
X149703000Y-119331250D01*
X149703000Y-116482000D01*
X149957000Y-116482000D01*
X149957000Y-119331250D01*
X150115750Y-119490000D01*
X152330000Y-119493072D01*
X152454482Y-119480812D01*
X152574180Y-119444502D01*
X152684494Y-119385537D01*
X152781185Y-119306185D01*
X152860537Y-119209494D01*
X152919502Y-119099180D01*
X152955812Y-118979482D01*
X152968072Y-118855000D01*
X152965000Y-116640750D01*
X152806250Y-116482000D01*
X149957000Y-116482000D01*
X149703000Y-116482000D01*
X146853750Y-116482000D01*
X146695000Y-116640750D01*
X146691928Y-118855000D01*
X143576490Y-118855000D01*
X143555226Y-118748102D01*
X143477205Y-118559744D01*
X143363937Y-118390226D01*
X143219774Y-118246063D01*
X143050256Y-118132795D01*
X142861898Y-118054774D01*
X142661939Y-118015000D01*
X142639801Y-118015000D01*
X143871009Y-116783794D01*
X143900001Y-116760001D01*
X143923795Y-116731008D01*
X143923799Y-116731004D01*
X143994973Y-116644277D01*
X143994974Y-116644276D01*
X144065546Y-116512247D01*
X144109003Y-116368986D01*
X144120000Y-116257333D01*
X144120000Y-116257324D01*
X144123676Y-116220001D01*
X144120000Y-116182678D01*
X144120000Y-115833711D01*
X144163937Y-115789774D01*
X144277205Y-115620256D01*
X144355226Y-115431898D01*
X144395000Y-115231939D01*
X144395000Y-115028061D01*
X144355226Y-114828102D01*
X144277205Y-114639744D01*
X144163937Y-114470226D01*
X144019774Y-114326063D01*
X143850256Y-114212795D01*
X143661898Y-114134774D01*
X143461939Y-114095000D01*
X143258061Y-114095000D01*
X143058102Y-114134774D01*
X142869744Y-114212795D01*
X142700226Y-114326063D01*
X142556063Y-114470226D01*
X142442795Y-114639744D01*
X142364774Y-114828102D01*
X142325000Y-115028061D01*
X142325000Y-115231939D01*
X142364774Y-115431898D01*
X142442795Y-115620256D01*
X142556063Y-115789774D01*
X142600000Y-115833711D01*
X142600000Y-115905197D01*
X141968072Y-116537126D01*
X141968072Y-115785000D01*
X141955812Y-115660518D01*
X141937454Y-115600000D01*
X141955812Y-115539482D01*
X141968072Y-115415000D01*
X141968072Y-114515000D01*
X141955812Y-114390518D01*
X141937454Y-114330000D01*
X141955812Y-114269482D01*
X141968072Y-114145000D01*
X141968072Y-113855000D01*
X146691928Y-113855000D01*
X146695000Y-116069250D01*
X146853750Y-116228000D01*
X149703000Y-116228000D01*
X149703000Y-113378750D01*
X149957000Y-113378750D01*
X149957000Y-116228000D01*
X152806250Y-116228000D01*
X152965000Y-116069250D01*
X152968072Y-113855000D01*
X152955812Y-113730518D01*
X152919502Y-113610820D01*
X152860537Y-113500506D01*
X152781185Y-113403815D01*
X152684494Y-113324463D01*
X152574180Y-113265498D01*
X152454482Y-113229188D01*
X152330000Y-113216928D01*
X150115750Y-113220000D01*
X149957000Y-113378750D01*
X149703000Y-113378750D01*
X149544250Y-113220000D01*
X147330000Y-113216928D01*
X147205518Y-113229188D01*
X147085820Y-113265498D01*
X146975506Y-113324463D01*
X146878815Y-113403815D01*
X146799463Y-113500506D01*
X146740498Y-113610820D01*
X146704188Y-113730518D01*
X146691928Y-113855000D01*
X141968072Y-113855000D01*
X141968072Y-113245000D01*
X141955812Y-113120518D01*
X141937454Y-113060000D01*
X141955812Y-112999482D01*
X141968072Y-112875000D01*
X141968072Y-111975000D01*
X141955812Y-111850518D01*
X141937454Y-111790000D01*
X141955812Y-111729482D01*
X141968072Y-111605000D01*
X141968072Y-110705000D01*
X141955812Y-110580518D01*
X141937454Y-110520000D01*
X141955812Y-110459482D01*
X141968072Y-110335000D01*
X141968072Y-109435000D01*
X141955812Y-109310518D01*
X141937454Y-109250000D01*
X141955812Y-109189482D01*
X141968072Y-109065000D01*
X141968072Y-108165000D01*
X141955812Y-108040518D01*
X141937454Y-107980000D01*
X141955812Y-107919482D01*
X141968072Y-107795000D01*
X141968072Y-106895000D01*
X141955812Y-106770518D01*
X141955655Y-106770000D01*
X142026928Y-106770000D01*
X142026928Y-107345000D01*
X142039188Y-107469482D01*
X142075498Y-107589180D01*
X142134463Y-107699494D01*
X142213815Y-107796185D01*
X142310506Y-107875537D01*
X142420820Y-107934502D01*
X142540518Y-107970812D01*
X142665000Y-107983072D01*
X143565000Y-107983072D01*
X143689482Y-107970812D01*
X143750000Y-107952454D01*
X143810518Y-107970812D01*
X143935000Y-107983072D01*
X144835000Y-107983072D01*
X144959482Y-107970812D01*
X145020000Y-107952454D01*
X145080518Y-107970812D01*
X145205000Y-107983072D01*
X146105000Y-107983072D01*
X146229482Y-107970812D01*
X146290000Y-107952454D01*
X146350518Y-107970812D01*
X146475000Y-107983072D01*
X147375000Y-107983072D01*
X147499482Y-107970812D01*
X147560000Y-107952454D01*
X147620518Y-107970812D01*
X147745000Y-107983072D01*
X148645000Y-107983072D01*
X148769482Y-107970812D01*
X148830000Y-107952454D01*
X148890518Y-107970812D01*
X149015000Y-107983072D01*
X149915000Y-107983072D01*
X150039482Y-107970812D01*
X150100000Y-107952454D01*
X150160518Y-107970812D01*
X150285000Y-107983072D01*
X151185000Y-107983072D01*
X151309482Y-107970812D01*
X151370000Y-107952454D01*
X151430518Y-107970812D01*
X151555000Y-107983072D01*
X152455000Y-107983072D01*
X152579482Y-107970812D01*
X152640000Y-107952454D01*
X152700518Y-107970812D01*
X152825000Y-107983072D01*
X153725000Y-107983072D01*
X153849482Y-107970812D01*
X153910000Y-107952454D01*
X153970518Y-107970812D01*
X154095000Y-107983072D01*
X154259250Y-107980000D01*
X154418000Y-107821250D01*
X154418000Y-106072000D01*
X154672000Y-106072000D01*
X154672000Y-107821250D01*
X154830750Y-107980000D01*
X154995000Y-107983072D01*
X155119482Y-107970812D01*
X155239180Y-107934502D01*
X155349494Y-107875537D01*
X155446185Y-107796185D01*
X155525537Y-107699494D01*
X155584502Y-107589180D01*
X155620812Y-107469482D01*
X155633072Y-107345000D01*
X155630000Y-106230750D01*
X155471250Y-106072000D01*
X154672000Y-106072000D01*
X154418000Y-106072000D01*
X154398000Y-106072000D01*
X154398000Y-105818000D01*
X154418000Y-105818000D01*
X154418000Y-104068750D01*
X154672000Y-104068750D01*
X154672000Y-105818000D01*
X155471250Y-105818000D01*
X155630000Y-105659250D01*
X155633072Y-104545000D01*
X155620812Y-104420518D01*
X155584502Y-104300820D01*
X155525537Y-104190506D01*
X155446185Y-104093815D01*
X155349494Y-104014463D01*
X155239180Y-103955498D01*
X155119482Y-103919188D01*
X154995000Y-103906928D01*
X154830750Y-103910000D01*
X154672000Y-104068750D01*
X154418000Y-104068750D01*
X154259250Y-103910000D01*
X154095000Y-103906928D01*
X153970518Y-103919188D01*
X153910000Y-103937546D01*
X153849482Y-103919188D01*
X153725000Y-103906928D01*
X152825000Y-103906928D01*
X152700518Y-103919188D01*
X152640000Y-103937546D01*
X152579482Y-103919188D01*
X152455000Y-103906928D01*
X151555000Y-103906928D01*
X151430518Y-103919188D01*
X151370000Y-103937546D01*
X151309482Y-103919188D01*
X151185000Y-103906928D01*
X150285000Y-103906928D01*
X150160518Y-103919188D01*
X150100000Y-103937546D01*
X150039482Y-103919188D01*
X149915000Y-103906928D01*
X149015000Y-103906928D01*
X148890518Y-103919188D01*
X148830000Y-103937546D01*
X148769482Y-103919188D01*
X148645000Y-103906928D01*
X147745000Y-103906928D01*
X147620518Y-103919188D01*
X147560000Y-103937546D01*
X147499482Y-103919188D01*
X147375000Y-103906928D01*
X146475000Y-103906928D01*
X146350518Y-103919188D01*
X146290000Y-103937546D01*
X146229482Y-103919188D01*
X146105000Y-103906928D01*
X145205000Y-103906928D01*
X145080518Y-103919188D01*
X145020000Y-103937546D01*
X144959482Y-103919188D01*
X144835000Y-103906928D01*
X143935000Y-103906928D01*
X143810518Y-103919188D01*
X143750000Y-103937546D01*
X143689482Y-103919188D01*
X143565000Y-103906928D01*
X142665000Y-103906928D01*
X142540518Y-103919188D01*
X142420820Y-103955498D01*
X142310506Y-104014463D01*
X142213815Y-104093815D01*
X142134463Y-104190506D01*
X142075498Y-104300820D01*
X142039188Y-104420518D01*
X142026928Y-104545000D01*
X142026928Y-105250000D01*
X139984802Y-105250000D01*
X139697983Y-104963182D01*
X139674181Y-104934179D01*
X139558456Y-104839206D01*
X139426427Y-104768634D01*
X139283166Y-104725177D01*
X139171513Y-104714180D01*
X139171502Y-104714180D01*
X139134180Y-104710504D01*
X139096858Y-104714180D01*
X137127827Y-104714180D01*
X137109672Y-104654329D01*
X137027605Y-104500793D01*
X136917162Y-104366218D01*
X136782587Y-104255775D01*
X136629051Y-104173708D01*
X136462455Y-104123172D01*
X136289201Y-104106108D01*
X135639199Y-104106108D01*
X135465945Y-104123172D01*
X135299349Y-104173708D01*
X135145813Y-104255775D01*
X135011238Y-104366218D01*
X134939200Y-104453996D01*
X134867162Y-104366218D01*
X134732587Y-104255775D01*
X134579051Y-104173708D01*
X134412455Y-104123172D01*
X134239201Y-104106108D01*
X133589199Y-104106108D01*
X133415945Y-104123172D01*
X133249349Y-104173708D01*
X133095813Y-104255775D01*
X133002147Y-104332645D01*
X132903387Y-104251595D01*
X132749851Y-104169528D01*
X132583255Y-104118992D01*
X132410001Y-104101928D01*
X131759999Y-104101928D01*
X131586745Y-104118992D01*
X131420149Y-104169528D01*
X131266613Y-104251595D01*
X131132038Y-104362038D01*
X131060000Y-104449816D01*
X130987962Y-104362038D01*
X130977844Y-104353734D01*
X131295050Y-104036529D01*
X131328817Y-104008817D01*
X131439411Y-103874059D01*
X131521589Y-103720313D01*
X131572195Y-103553490D01*
X131585000Y-103423477D01*
X131585000Y-103423467D01*
X131589281Y-103380001D01*
X131585000Y-103336534D01*
X131585000Y-103285612D01*
X131677802Y-103276472D01*
X131797500Y-103240162D01*
X131907814Y-103181197D01*
X132004505Y-103101845D01*
X132083857Y-103005154D01*
X132142822Y-102894840D01*
X132164833Y-102822280D01*
X132296688Y-102954135D01*
X132539909Y-103116650D01*
X132810162Y-103228592D01*
X133097060Y-103285660D01*
X133389580Y-103285660D01*
X133676478Y-103228592D01*
X133946731Y-103116650D01*
X134189952Y-102954135D01*
X134396795Y-102747292D01*
X134518515Y-102565126D01*
X134588142Y-102682015D01*
X134783051Y-102898248D01*
X135016400Y-103072301D01*
X135279221Y-103197485D01*
X135426430Y-103242136D01*
X135656320Y-103120815D01*
X135656320Y-101927660D01*
X135636320Y-101927660D01*
X135636320Y-101673660D01*
X135656320Y-101673660D01*
X135656320Y-101653660D01*
X135910320Y-101653660D01*
X135910320Y-101673660D01*
X135930320Y-101673660D01*
X135930320Y-101927660D01*
X135910320Y-101927660D01*
X135910320Y-103120815D01*
X136140210Y-103242136D01*
X136287419Y-103197485D01*
X136550240Y-103072301D01*
X136783589Y-102898248D01*
X136978498Y-102682015D01*
X137048125Y-102565126D01*
X137169845Y-102747292D01*
X137376688Y-102954135D01*
X137619909Y-103116650D01*
X137890162Y-103228592D01*
X138177060Y-103285660D01*
X138469580Y-103285660D01*
X138756478Y-103228592D01*
X139026731Y-103116650D01*
X139269952Y-102954135D01*
X139476795Y-102747292D01*
X139593320Y-102572900D01*
X139709845Y-102747292D01*
X139916688Y-102954135D01*
X140159909Y-103116650D01*
X140430162Y-103228592D01*
X140717060Y-103285660D01*
X141009580Y-103285660D01*
X141296478Y-103228592D01*
X141566731Y-103116650D01*
X141809952Y-102954135D01*
X142016795Y-102747292D01*
X142133320Y-102572900D01*
X142249845Y-102747292D01*
X142456688Y-102954135D01*
X142699909Y-103116650D01*
X142970162Y-103228592D01*
X143257060Y-103285660D01*
X143549580Y-103285660D01*
X143836478Y-103228592D01*
X144106731Y-103116650D01*
X144349952Y-102954135D01*
X144556795Y-102747292D01*
X144673320Y-102572900D01*
X144789845Y-102747292D01*
X144996688Y-102954135D01*
X145239909Y-103116650D01*
X145510162Y-103228592D01*
X145797060Y-103285660D01*
X146089580Y-103285660D01*
X146376478Y-103228592D01*
X146646731Y-103116650D01*
X146889952Y-102954135D01*
X147096795Y-102747292D01*
X147259310Y-102504071D01*
X147371252Y-102233818D01*
X147428320Y-101946920D01*
X147428320Y-101654400D01*
X147371252Y-101367502D01*
X147259310Y-101097249D01*
X147096795Y-100854028D01*
X147046287Y-100803520D01*
X148130861Y-100803520D01*
X148124188Y-100825518D01*
G37*
%TD.AperFunction*%
D30*
X166086171Y-73949583D02*
X165858332Y-74290567D01*
X165667238Y-74751908D01*
X165569820Y-75241664D01*
X165569820Y-75741016D01*
X165667238Y-76230772D01*
X165858332Y-76692113D01*
X166135757Y-77107308D01*
X166488852Y-77460403D01*
X166904047Y-77737828D01*
X167365388Y-77928922D01*
X167855144Y-78026340D01*
X168354496Y-78026340D01*
X168844252Y-77928922D01*
X169305593Y-77737828D01*
X169645000Y-77511043D01*
X169645001Y-121050040D01*
X169325913Y-120836832D01*
X168864572Y-120645738D01*
X168374816Y-120548320D01*
X167875464Y-120548320D01*
X167785330Y-120566249D01*
X169326770Y-119024809D01*
X169360537Y-118997097D01*
X169391815Y-118958986D01*
X169471130Y-118862340D01*
X169471131Y-118862339D01*
X169553309Y-118708593D01*
X169603915Y-118541770D01*
X169616720Y-118411757D01*
X169616720Y-118411747D01*
X169621001Y-118368281D01*
X169616720Y-118324815D01*
X169616720Y-112241749D01*
X169621001Y-112198280D01*
X169616720Y-112154811D01*
X169616720Y-101095196D01*
X169621002Y-101051720D01*
X169616720Y-101008243D01*
X169616720Y-90657485D01*
X169621001Y-90614019D01*
X169616720Y-90570553D01*
X169616720Y-86573165D01*
X169621001Y-86529699D01*
X169616720Y-86486233D01*
X169616720Y-86486223D01*
X169603915Y-86356210D01*
X169553309Y-86189387D01*
X169471131Y-86035641D01*
X169433552Y-85989851D01*
X169388252Y-85934653D01*
X169388250Y-85934651D01*
X169360537Y-85900883D01*
X169326770Y-85873171D01*
X167107812Y-83654214D01*
X167080097Y-83620443D01*
X166945339Y-83509849D01*
X166791593Y-83427671D01*
X166672412Y-83391517D01*
X166672412Y-82145440D01*
X166660152Y-82020958D01*
X166623842Y-81901260D01*
X166564877Y-81790946D01*
X166485525Y-81694255D01*
X166403220Y-81626709D01*
X166403220Y-78540762D01*
X166406896Y-78503439D01*
X166403220Y-78466116D01*
X166403220Y-78466107D01*
X166392223Y-78354454D01*
X166348766Y-78211193D01*
X166278194Y-78079164D01*
X166183221Y-77963439D01*
X166154224Y-77939642D01*
X165409803Y-77195222D01*
X165386001Y-77166219D01*
X165270276Y-77071246D01*
X165138247Y-77000674D01*
X164994986Y-76957217D01*
X164883333Y-76946220D01*
X164883322Y-76946220D01*
X164846000Y-76942544D01*
X164808678Y-76946220D01*
X164630993Y-76946220D01*
X164628872Y-76939229D01*
X164546805Y-76785693D01*
X164436362Y-76651118D01*
X164301787Y-76540675D01*
X164148251Y-76458608D01*
X163981655Y-76408072D01*
X163808401Y-76391008D01*
X163158399Y-76391008D01*
X162985145Y-76408072D01*
X162818549Y-76458608D01*
X162665013Y-76540675D01*
X162530438Y-76651118D01*
X162458400Y-76738896D01*
X162386362Y-76651118D01*
X162251787Y-76540675D01*
X162098251Y-76458608D01*
X161931655Y-76408072D01*
X161758401Y-76391008D01*
X161108399Y-76391008D01*
X160935145Y-76408072D01*
X160768549Y-76458608D01*
X160615013Y-76540675D01*
X160480438Y-76651118D01*
X160369995Y-76785693D01*
X160287928Y-76939229D01*
X160237392Y-77105825D01*
X160220328Y-77279079D01*
X160220328Y-78179081D01*
X160237392Y-78352335D01*
X160287928Y-78518931D01*
X160369995Y-78672467D01*
X160480438Y-78807042D01*
X160615013Y-78917485D01*
X160616344Y-78918196D01*
X160488058Y-79023478D01*
X160377615Y-79158053D01*
X160295548Y-79311589D01*
X160245012Y-79478185D01*
X160227948Y-79651439D01*
X160227948Y-80551441D01*
X160245012Y-80724695D01*
X160295548Y-80891291D01*
X160377615Y-81044827D01*
X160488058Y-81179402D01*
X160622633Y-81289845D01*
X160776169Y-81371912D01*
X160942765Y-81422448D01*
X161116019Y-81439512D01*
X161766021Y-81439512D01*
X161939275Y-81422448D01*
X162105871Y-81371912D01*
X162259407Y-81289845D01*
X162393982Y-81179402D01*
X162399362Y-81172846D01*
X162464835Y-81252625D01*
X162561526Y-81331977D01*
X162671840Y-81390942D01*
X162791538Y-81427252D01*
X162916020Y-81439512D01*
X163205270Y-81436440D01*
X163364020Y-81277690D01*
X163364020Y-80228440D01*
X163618020Y-80228440D01*
X163618020Y-81277690D01*
X163776770Y-81436440D01*
X164066020Y-81439512D01*
X164190502Y-81427252D01*
X164310200Y-81390942D01*
X164420514Y-81331977D01*
X164517205Y-81252625D01*
X164596557Y-81155934D01*
X164655522Y-81045620D01*
X164691832Y-80925922D01*
X164704092Y-80801440D01*
X164701020Y-80387190D01*
X164542270Y-80228440D01*
X163618020Y-80228440D01*
X163364020Y-80228440D01*
X163344020Y-80228440D01*
X163344020Y-79974440D01*
X163364020Y-79974440D01*
X163364020Y-79954440D01*
X163618020Y-79954440D01*
X163618020Y-79974440D01*
X164542270Y-79974440D01*
X164701020Y-79815690D01*
X164704092Y-79401440D01*
X164691832Y-79276958D01*
X164655522Y-79157260D01*
X164596557Y-79046946D01*
X164517205Y-78950255D01*
X164420514Y-78870903D01*
X164382988Y-78850845D01*
X164436362Y-78807042D01*
X164546805Y-78672467D01*
X164613210Y-78548232D01*
X164883220Y-78818242D01*
X164883221Y-81507478D01*
X164760513Y-81519499D01*
X164734405Y-81527389D01*
X164708822Y-81519628D01*
X164584340Y-81507368D01*
X163584340Y-81507368D01*
X163459858Y-81519628D01*
X163340160Y-81555938D01*
X163229846Y-81614903D01*
X163133155Y-81694255D01*
X163053803Y-81790946D01*
X162994838Y-81901260D01*
X162958528Y-82020958D01*
X162946268Y-82145440D01*
X162946268Y-83364260D01*
X151006359Y-83364260D01*
X149805200Y-82163102D01*
X149805200Y-80134439D01*
X149846512Y-80106835D01*
X150053355Y-79899992D01*
X150175075Y-79717826D01*
X150244702Y-79834715D01*
X150439611Y-80050948D01*
X150672960Y-80225001D01*
X150935781Y-80350185D01*
X151082990Y-80394836D01*
X151312880Y-80273515D01*
X151312880Y-79080360D01*
X151566880Y-79080360D01*
X151566880Y-80273515D01*
X151796770Y-80394836D01*
X151943979Y-80350185D01*
X152206800Y-80225001D01*
X152440149Y-80050948D01*
X152635058Y-79834715D01*
X152784037Y-79584612D01*
X152881361Y-79310251D01*
X152760694Y-79080360D01*
X151566880Y-79080360D01*
X151312880Y-79080360D01*
X151292880Y-79080360D01*
X151292880Y-78826360D01*
X151312880Y-78826360D01*
X151312880Y-77633205D01*
X151566880Y-77633205D01*
X151566880Y-78826360D01*
X152760694Y-78826360D01*
X152881361Y-78596469D01*
X152784037Y-78322108D01*
X152635058Y-78072005D01*
X152440149Y-77855772D01*
X152206800Y-77681719D01*
X151943979Y-77556535D01*
X151796770Y-77511884D01*
X151566880Y-77633205D01*
X151312880Y-77633205D01*
X151082990Y-77511884D01*
X150935781Y-77556535D01*
X150672960Y-77681719D01*
X150439611Y-77855772D01*
X150244702Y-78072005D01*
X150175075Y-78188894D01*
X150053355Y-78006728D01*
X149846512Y-77799885D01*
X149603291Y-77637370D01*
X149333038Y-77525428D01*
X149046140Y-77468360D01*
X148753620Y-77468360D01*
X148466722Y-77525428D01*
X148196469Y-77637370D01*
X147953248Y-77799885D01*
X147821393Y-77931740D01*
X147799382Y-77859180D01*
X147740417Y-77748866D01*
X147661065Y-77652175D01*
X147564374Y-77572823D01*
X147454060Y-77513858D01*
X147334362Y-77477548D01*
X147209880Y-77465288D01*
X145509880Y-77465288D01*
X145385398Y-77477548D01*
X145265700Y-77513858D01*
X145155386Y-77572823D01*
X145058695Y-77652175D01*
X144979343Y-77748866D01*
X144920378Y-77859180D01*
X144884068Y-77978878D01*
X144871808Y-78103360D01*
X144871808Y-79803360D01*
X144884068Y-79927842D01*
X144920378Y-80047540D01*
X144979343Y-80157854D01*
X145058695Y-80254545D01*
X145155386Y-80333897D01*
X145265700Y-80392862D01*
X145385398Y-80429172D01*
X145509880Y-80441432D01*
X147209880Y-80441432D01*
X147334362Y-80429172D01*
X147454060Y-80392862D01*
X147564374Y-80333897D01*
X147661065Y-80254545D01*
X147740417Y-80157854D01*
X147799382Y-80047540D01*
X147821393Y-79974980D01*
X147953248Y-80106835D01*
X148035200Y-80161594D01*
X148035201Y-82486201D01*
X148030919Y-82529680D01*
X148048005Y-82703170D01*
X148098612Y-82869993D01*
X148180790Y-83023739D01*
X148263668Y-83124726D01*
X148263671Y-83124729D01*
X148291384Y-83158497D01*
X148325151Y-83186209D01*
X149983250Y-84844309D01*
X150010963Y-84878077D01*
X150044731Y-84905790D01*
X150044733Y-84905792D01*
X150078483Y-84933490D01*
X150145721Y-84988671D01*
X150299467Y-85070849D01*
X150466290Y-85121455D01*
X150596303Y-85134260D01*
X150596313Y-85134260D01*
X150639779Y-85138541D01*
X150683245Y-85134260D01*
X164078631Y-85134260D01*
X164122100Y-85138541D01*
X164165569Y-85134260D01*
X166084702Y-85134260D01*
X167846720Y-86896279D01*
X167846721Y-88477442D01*
X167181474Y-87812196D01*
X167153757Y-87778423D01*
X167018999Y-87667829D01*
X166865253Y-87585651D01*
X166698430Y-87535045D01*
X166664438Y-87531697D01*
X166663792Y-87525138D01*
X166627482Y-87405440D01*
X166568517Y-87295126D01*
X166489165Y-87198435D01*
X166392474Y-87119083D01*
X166282160Y-87060118D01*
X166162462Y-87023808D01*
X166037980Y-87011548D01*
X164887980Y-87011548D01*
X164764153Y-87023679D01*
X164738045Y-87031569D01*
X164712462Y-87023808D01*
X164587980Y-87011548D01*
X163587980Y-87011548D01*
X163463498Y-87023808D01*
X163343800Y-87060118D01*
X163233486Y-87119083D01*
X163136795Y-87198435D01*
X163057443Y-87295126D01*
X162998478Y-87405440D01*
X162962168Y-87525138D01*
X162954312Y-87604900D01*
X162692977Y-87604900D01*
X162637202Y-87536938D01*
X162630646Y-87531558D01*
X162710425Y-87466085D01*
X162789777Y-87369394D01*
X162848742Y-87259080D01*
X162885052Y-87139382D01*
X162897312Y-87014900D01*
X162894240Y-86725650D01*
X162735490Y-86566900D01*
X161686240Y-86566900D01*
X161686240Y-86586900D01*
X161432240Y-86586900D01*
X161432240Y-86566900D01*
X161412240Y-86566900D01*
X161412240Y-86312900D01*
X161432240Y-86312900D01*
X161432240Y-85388650D01*
X161686240Y-85388650D01*
X161686240Y-86312900D01*
X162735490Y-86312900D01*
X162894240Y-86154150D01*
X162897312Y-85864900D01*
X162885052Y-85740418D01*
X162848742Y-85620720D01*
X162789777Y-85510406D01*
X162710425Y-85413715D01*
X162613734Y-85334363D01*
X162503420Y-85275398D01*
X162383722Y-85239088D01*
X162259240Y-85226828D01*
X161844990Y-85229900D01*
X161686240Y-85388650D01*
X161432240Y-85388650D01*
X161273490Y-85229900D01*
X160859240Y-85226828D01*
X160734758Y-85239088D01*
X160615060Y-85275398D01*
X160504746Y-85334363D01*
X160408055Y-85413715D01*
X160361756Y-85470130D01*
X160244567Y-85373955D01*
X160091031Y-85291888D01*
X159924435Y-85241352D01*
X159751181Y-85224288D01*
X158851179Y-85224288D01*
X158677925Y-85241352D01*
X158511329Y-85291888D01*
X158357793Y-85373955D01*
X158223218Y-85484398D01*
X158112775Y-85618973D01*
X158050593Y-85735307D01*
X158018274Y-85708783D01*
X157907960Y-85649818D01*
X157788262Y-85613508D01*
X157663780Y-85601248D01*
X156103780Y-85601248D01*
X155979298Y-85613508D01*
X155859600Y-85649818D01*
X155749286Y-85708783D01*
X155652595Y-85788135D01*
X155573243Y-85884826D01*
X155533780Y-85958655D01*
X155494317Y-85884826D01*
X155414965Y-85788135D01*
X155318274Y-85708783D01*
X155207960Y-85649818D01*
X155088262Y-85613508D01*
X154963780Y-85601248D01*
X153403780Y-85601248D01*
X153279298Y-85613508D01*
X153159600Y-85649818D01*
X153049286Y-85708783D01*
X152952595Y-85788135D01*
X152873243Y-85884826D01*
X152822484Y-85979788D01*
X152823232Y-85909340D01*
X152810972Y-85784858D01*
X152774662Y-85665160D01*
X152715697Y-85554846D01*
X152636345Y-85458155D01*
X152539654Y-85378803D01*
X152429340Y-85319838D01*
X152309642Y-85283528D01*
X152185160Y-85271268D01*
X151770910Y-85274340D01*
X151612160Y-85433090D01*
X151612160Y-86357340D01*
X151632160Y-86357340D01*
X151632160Y-86611340D01*
X151612160Y-86611340D01*
X151612160Y-86631340D01*
X151358160Y-86631340D01*
X151358160Y-86611340D01*
X150308910Y-86611340D01*
X150150160Y-86770090D01*
X150147088Y-87059340D01*
X150159348Y-87183822D01*
X150195658Y-87303520D01*
X150254623Y-87413834D01*
X150323269Y-87497480D01*
X149449781Y-87497480D01*
X149395465Y-87431295D01*
X149335000Y-87381673D01*
X149335000Y-87293466D01*
X149339281Y-87249999D01*
X149335000Y-87206533D01*
X149335000Y-87206523D01*
X149322195Y-87076510D01*
X149271589Y-86909687D01*
X149189411Y-86755941D01*
X149078817Y-86621183D01*
X149045050Y-86593471D01*
X148501614Y-86050036D01*
X148473897Y-86016263D01*
X148343613Y-85909340D01*
X150147088Y-85909340D01*
X150150160Y-86198590D01*
X150308910Y-86357340D01*
X151358160Y-86357340D01*
X151358160Y-85433090D01*
X151199410Y-85274340D01*
X150785160Y-85271268D01*
X150660678Y-85283528D01*
X150540980Y-85319838D01*
X150430666Y-85378803D01*
X150333975Y-85458155D01*
X150254623Y-85554846D01*
X150195658Y-85665160D01*
X150159348Y-85784858D01*
X150147088Y-85909340D01*
X148343613Y-85909340D01*
X148339139Y-85905669D01*
X148185393Y-85823491D01*
X148018570Y-85772885D01*
X147888557Y-85760080D01*
X147888549Y-85760080D01*
X147845080Y-85755799D01*
X147801611Y-85760080D01*
X143472621Y-85760080D01*
X143416354Y-85713903D01*
X143306040Y-85654938D01*
X143186342Y-85618628D01*
X143061860Y-85606368D01*
X141161860Y-85606368D01*
X141037378Y-85618628D01*
X140917680Y-85654938D01*
X140807366Y-85713903D01*
X140710675Y-85793255D01*
X140631323Y-85889946D01*
X140572358Y-86000260D01*
X140536048Y-86119958D01*
X140523788Y-86244440D01*
X140523788Y-86756345D01*
X140513045Y-86743255D01*
X140416354Y-86663903D01*
X140306040Y-86604938D01*
X140186342Y-86568628D01*
X140061860Y-86556368D01*
X138161860Y-86556368D01*
X138037378Y-86568628D01*
X137917680Y-86604938D01*
X137807366Y-86663903D01*
X137745104Y-86715000D01*
X135156579Y-86715000D01*
X134746534Y-86304956D01*
X134718817Y-86271183D01*
X134584059Y-86160589D01*
X134430313Y-86078411D01*
X134263490Y-86027805D01*
X134133477Y-86015000D01*
X134133469Y-86015000D01*
X134090000Y-86010719D01*
X134046531Y-86015000D01*
X132658052Y-86015000D01*
X132742390Y-85889946D01*
X132836493Y-85665496D01*
X132885000Y-85427000D01*
X132885000Y-85152000D01*
X131777000Y-85152000D01*
X131777000Y-85172000D01*
X131523000Y-85172000D01*
X131523000Y-85152000D01*
X131503000Y-85152000D01*
X131503000Y-84898000D01*
X131523000Y-84898000D01*
X131523000Y-83681269D01*
X131777000Y-83681269D01*
X131777000Y-84898000D01*
X132885000Y-84898000D01*
X132885000Y-84623000D01*
X132836493Y-84384504D01*
X132742390Y-84160054D01*
X132606307Y-83958275D01*
X132433474Y-83786922D01*
X132230533Y-83652579D01*
X132005282Y-83560409D01*
X131967609Y-83556538D01*
X131777000Y-83681269D01*
X131523000Y-83681269D01*
X131332391Y-83556538D01*
X131294718Y-83560409D01*
X131069467Y-83652579D01*
X130866526Y-83786922D01*
X130740967Y-83911406D01*
X130738405Y-83906613D01*
X130627962Y-83772038D01*
X130493387Y-83661595D01*
X130339851Y-83579528D01*
X130173255Y-83528992D01*
X130000001Y-83511928D01*
X129299999Y-83511928D01*
X129126745Y-83528992D01*
X128960149Y-83579528D01*
X128806613Y-83661595D01*
X128672038Y-83772038D01*
X128561595Y-83906613D01*
X128479528Y-84060149D01*
X128428992Y-84226745D01*
X128411928Y-84399999D01*
X128411928Y-85650001D01*
X128428992Y-85823255D01*
X128479528Y-85989851D01*
X128561595Y-86143387D01*
X128672038Y-86277962D01*
X128806613Y-86388405D01*
X128838119Y-86405245D01*
X128885590Y-86494059D01*
X128968468Y-86595046D01*
X128968471Y-86595049D01*
X128996184Y-86628817D01*
X129029951Y-86656529D01*
X129717521Y-87344100D01*
X129582500Y-87252626D01*
X129362739Y-87159946D01*
X129129120Y-87111920D01*
X128804120Y-87111920D01*
X128804120Y-88194920D01*
X130045670Y-88194920D01*
X130170755Y-88008243D01*
X130168616Y-87976205D01*
X130078756Y-87755276D01*
X129968800Y-87588413D01*
X129993621Y-87608783D01*
X130030941Y-87639411D01*
X130184687Y-87721589D01*
X130351510Y-87772195D01*
X130481523Y-87785000D01*
X130481533Y-87785000D01*
X130524999Y-87789281D01*
X130568465Y-87785000D01*
X131025718Y-87785000D01*
X131000763Y-87821941D01*
X130897042Y-88068803D01*
X130884601Y-88134662D01*
X131007602Y-88344920D01*
X132350120Y-88344920D01*
X132350120Y-88324920D01*
X132604120Y-88324920D01*
X132604120Y-88344920D01*
X133946638Y-88344920D01*
X134069639Y-88134662D01*
X134068837Y-88130416D01*
X134133470Y-88195049D01*
X134161183Y-88228817D01*
X134194951Y-88256530D01*
X134194953Y-88256532D01*
X134266452Y-88315210D01*
X134295941Y-88339411D01*
X134449687Y-88421589D01*
X134616510Y-88472195D01*
X134746523Y-88485000D01*
X134746533Y-88485000D01*
X134789999Y-88489281D01*
X134833465Y-88485000D01*
X137758654Y-88485000D01*
X137807366Y-88524977D01*
X137917680Y-88583942D01*
X138032683Y-88618828D01*
X138032683Y-88708618D01*
X138032682Y-88708627D01*
X138032682Y-88739076D01*
X137997232Y-88774526D01*
X137867548Y-88968612D01*
X137778221Y-89184268D01*
X137732682Y-89413208D01*
X137732682Y-89646632D01*
X137778221Y-89875572D01*
X137832395Y-90006360D01*
X136270844Y-90006360D01*
X136235394Y-89970910D01*
X136041308Y-89841226D01*
X135825652Y-89751899D01*
X135596712Y-89706360D01*
X135363288Y-89706360D01*
X135134348Y-89751899D01*
X134918692Y-89841226D01*
X134724606Y-89970910D01*
X134634076Y-90061440D01*
X133752145Y-90061440D01*
X133701602Y-90046108D01*
X133577120Y-90033848D01*
X132407836Y-90033848D01*
X132422346Y-89998818D01*
X132462120Y-89798859D01*
X132462120Y-89594981D01*
X132422346Y-89395022D01*
X132350120Y-89220654D01*
X132350120Y-88598920D01*
X132604120Y-88598920D01*
X132604120Y-89831920D01*
X132879120Y-89831920D01*
X133142003Y-89781012D01*
X133389903Y-89679796D01*
X133613293Y-89532162D01*
X133803589Y-89343783D01*
X133953477Y-89121899D01*
X134057198Y-88875037D01*
X134069639Y-88809178D01*
X133946638Y-88598920D01*
X132604120Y-88598920D01*
X132350120Y-88598920D01*
X131007602Y-88598920D01*
X130884601Y-88809178D01*
X130885516Y-88814024D01*
X130767346Y-88892983D01*
X130623183Y-89037146D01*
X130509915Y-89206664D01*
X130431894Y-89395022D01*
X130392120Y-89594981D01*
X130392120Y-89798859D01*
X130431894Y-89998818D01*
X130509915Y-90187176D01*
X130623183Y-90356694D01*
X130767346Y-90500857D01*
X130936864Y-90614125D01*
X131125222Y-90692146D01*
X131239048Y-90714787D01*
X131239048Y-91121920D01*
X131248897Y-91221920D01*
X131239048Y-91321920D01*
X131239048Y-91771920D01*
X131248897Y-91871920D01*
X131239048Y-91971920D01*
X131239048Y-92421920D01*
X131248897Y-92521920D01*
X131239048Y-92621920D01*
X131239048Y-93071920D01*
X131249182Y-93174817D01*
X131242120Y-93240170D01*
X131274367Y-93272417D01*
X131287618Y-93316100D01*
X131346583Y-93426414D01*
X131425935Y-93523105D01*
X131513442Y-93594920D01*
X131400870Y-93594920D01*
X131333870Y-93661920D01*
X131325181Y-93661920D01*
X131125222Y-93701694D01*
X130936864Y-93779715D01*
X130767346Y-93892983D01*
X130623183Y-94037146D01*
X130509915Y-94206664D01*
X130431894Y-94395022D01*
X130392120Y-94594981D01*
X130392120Y-94798859D01*
X130431894Y-94998818D01*
X130509915Y-95187176D01*
X130623183Y-95356694D01*
X130767346Y-95500857D01*
X130885516Y-95579816D01*
X130884601Y-95584662D01*
X131007602Y-95794920D01*
X132350120Y-95794920D01*
X132350120Y-95173186D01*
X132422346Y-94998818D01*
X132462120Y-94798859D01*
X132462120Y-94594981D01*
X132455544Y-94561920D01*
X132604120Y-94561920D01*
X132604120Y-95794920D01*
X133946638Y-95794920D01*
X134069639Y-95584662D01*
X134057198Y-95518803D01*
X133953477Y-95271941D01*
X133803589Y-95050057D01*
X133613293Y-94861678D01*
X133389903Y-94714044D01*
X133142003Y-94612828D01*
X132879120Y-94561920D01*
X132604120Y-94561920D01*
X132455544Y-94561920D01*
X132422346Y-94395022D01*
X132406642Y-94357108D01*
X132441370Y-94356920D01*
X132600120Y-94198170D01*
X132600120Y-93709992D01*
X132854120Y-93709992D01*
X132854120Y-94198170D01*
X133012870Y-94356920D01*
X133568445Y-94359933D01*
X133693082Y-94349366D01*
X133813262Y-94314687D01*
X133924368Y-94257228D01*
X134022129Y-94179198D01*
X134102789Y-94083594D01*
X134163247Y-93974092D01*
X134201181Y-93854899D01*
X134212120Y-93753670D01*
X134053370Y-93594920D01*
X133940798Y-93594920D01*
X134028305Y-93523105D01*
X134107657Y-93426414D01*
X134166622Y-93316100D01*
X134179873Y-93272417D01*
X134212120Y-93240170D01*
X134205058Y-93174817D01*
X134215192Y-93071920D01*
X134215192Y-92621920D01*
X134205343Y-92521920D01*
X134215192Y-92421920D01*
X134215192Y-91971920D01*
X134205343Y-91871920D01*
X134215192Y-91771920D01*
X134215192Y-91731440D01*
X134644236Y-91731440D01*
X134724606Y-91811810D01*
X134918692Y-91941494D01*
X135134348Y-92030821D01*
X135363288Y-92076360D01*
X135596712Y-92076360D01*
X135825652Y-92030821D01*
X136041308Y-91941494D01*
X136235394Y-91811810D01*
X136270844Y-91776360D01*
X139345686Y-91776360D01*
X139376895Y-91834747D01*
X139487338Y-91969322D01*
X139621913Y-92079765D01*
X139775449Y-92161832D01*
X139942045Y-92212368D01*
X140115299Y-92229432D01*
X140765301Y-92229432D01*
X140938555Y-92212368D01*
X141105151Y-92161832D01*
X141258687Y-92079765D01*
X141393262Y-91969322D01*
X141398642Y-91962766D01*
X141464115Y-92042545D01*
X141560806Y-92121897D01*
X141671120Y-92180862D01*
X141790818Y-92217172D01*
X141915300Y-92229432D01*
X142204550Y-92226360D01*
X142363300Y-92067610D01*
X142363300Y-91018360D01*
X142617300Y-91018360D01*
X142617300Y-92067610D01*
X142776050Y-92226360D01*
X143065300Y-92229432D01*
X143189782Y-92217172D01*
X143309480Y-92180862D01*
X143419794Y-92121897D01*
X143516485Y-92042545D01*
X143595837Y-91945854D01*
X143654802Y-91835540D01*
X143691112Y-91715842D01*
X143703372Y-91591360D01*
X143700300Y-91177110D01*
X143541550Y-91018360D01*
X142617300Y-91018360D01*
X142363300Y-91018360D01*
X142343300Y-91018360D01*
X142343300Y-90764360D01*
X142363300Y-90764360D01*
X142363300Y-90744360D01*
X142617300Y-90744360D01*
X142617300Y-90764360D01*
X143541550Y-90764360D01*
X143700300Y-90605610D01*
X143703372Y-90191360D01*
X143691112Y-90066878D01*
X143654802Y-89947180D01*
X143595837Y-89836866D01*
X143516485Y-89740175D01*
X143419794Y-89660823D01*
X143309480Y-89601858D01*
X143195816Y-89567378D01*
X143306040Y-89533942D01*
X143416354Y-89474977D01*
X143471061Y-89430080D01*
X145059280Y-89430080D01*
X145059280Y-89922371D01*
X145054999Y-89965840D01*
X145059280Y-90009309D01*
X145059280Y-90009316D01*
X145067348Y-90091228D01*
X145072085Y-90139330D01*
X145075913Y-90151949D01*
X145122691Y-90306152D01*
X145204869Y-90459898D01*
X145315463Y-90594657D01*
X145349236Y-90622374D01*
X146187870Y-91461009D01*
X146215583Y-91494777D01*
X146249351Y-91522490D01*
X146249353Y-91522492D01*
X146311025Y-91573105D01*
X146350341Y-91605371D01*
X146504087Y-91687549D01*
X146608942Y-91719357D01*
X146670909Y-91738155D01*
X146685706Y-91739612D01*
X146800923Y-91750960D01*
X146800931Y-91750960D01*
X146844400Y-91755241D01*
X146887869Y-91750960D01*
X150570382Y-91750960D01*
X151088281Y-92268859D01*
X151088280Y-92763225D01*
X151080719Y-92840000D01*
X151085001Y-92883479D01*
X151085001Y-93472205D01*
X151041185Y-93418815D01*
X150944494Y-93339463D01*
X150834180Y-93280498D01*
X150714482Y-93244188D01*
X150590000Y-93231928D01*
X150300750Y-93235000D01*
X150142000Y-93393750D01*
X150142000Y-94443000D01*
X150162000Y-94443000D01*
X150162000Y-94697000D01*
X150142000Y-94697000D01*
X150142000Y-96613000D01*
X150162000Y-96613000D01*
X150162000Y-96867000D01*
X150142000Y-96867000D01*
X150142000Y-96887000D01*
X149888000Y-96887000D01*
X149888000Y-96867000D01*
X149868000Y-96867000D01*
X149868000Y-96613000D01*
X149888000Y-96613000D01*
X149888000Y-94697000D01*
X149868000Y-94697000D01*
X149868000Y-94443000D01*
X149888000Y-94443000D01*
X149888000Y-93393750D01*
X149729250Y-93235000D01*
X149440000Y-93231928D01*
X149315518Y-93244188D01*
X149195820Y-93280498D01*
X149085506Y-93339463D01*
X148988815Y-93418815D01*
X148923342Y-93498594D01*
X148917962Y-93492038D01*
X148783387Y-93381595D01*
X148629851Y-93299528D01*
X148463255Y-93248992D01*
X148290001Y-93231928D01*
X147639999Y-93231928D01*
X147466745Y-93248992D01*
X147300149Y-93299528D01*
X147146613Y-93381595D01*
X147012038Y-93492038D01*
X146901595Y-93626613D01*
X146819528Y-93780149D01*
X146815663Y-93792890D01*
X146797980Y-93783438D01*
X146678282Y-93747128D01*
X146553800Y-93734868D01*
X144993800Y-93734868D01*
X144869318Y-93747128D01*
X144749620Y-93783438D01*
X144639306Y-93842403D01*
X144542615Y-93921755D01*
X144463263Y-94018446D01*
X144459157Y-94026128D01*
X144396047Y-93992394D01*
X144351989Y-93979029D01*
X144304985Y-93921755D01*
X144208294Y-93842403D01*
X144097980Y-93783438D01*
X143978282Y-93747128D01*
X143853800Y-93734868D01*
X142293800Y-93734868D01*
X142169318Y-93747128D01*
X142049620Y-93783438D01*
X142042138Y-93787437D01*
X141994517Y-93698346D01*
X141915165Y-93601655D01*
X141818474Y-93522303D01*
X141708160Y-93463338D01*
X141588462Y-93427028D01*
X141463980Y-93414768D01*
X141049730Y-93417840D01*
X140890980Y-93576590D01*
X140890980Y-94500840D01*
X140910980Y-94500840D01*
X140910980Y-94754840D01*
X140890980Y-94754840D01*
X140890980Y-94774840D01*
X140636980Y-94774840D01*
X140636980Y-94754840D01*
X140616980Y-94754840D01*
X140616980Y-94500840D01*
X140636980Y-94500840D01*
X140636980Y-93576590D01*
X140478230Y-93417840D01*
X140063980Y-93414768D01*
X139990168Y-93422038D01*
X139955114Y-93337410D01*
X139825430Y-93143324D01*
X139660374Y-92978268D01*
X139466288Y-92848584D01*
X139250632Y-92759257D01*
X139021692Y-92713718D01*
X138788268Y-92713718D01*
X138559328Y-92759257D01*
X138343672Y-92848584D01*
X138149586Y-92978268D01*
X137984530Y-93143324D01*
X137854846Y-93337410D01*
X137765519Y-93553066D01*
X137719980Y-93782006D01*
X137719980Y-94015430D01*
X137765519Y-94244370D01*
X137854846Y-94460026D01*
X137984530Y-94654112D01*
X138019981Y-94689563D01*
X138019980Y-95684051D01*
X138015699Y-95727520D01*
X138019980Y-95770989D01*
X138019980Y-95770996D01*
X138026727Y-95839502D01*
X138032785Y-95901010D01*
X138042699Y-95933690D01*
X138083391Y-96067832D01*
X138165569Y-96221578D01*
X138276163Y-96356337D01*
X138309936Y-96384054D01*
X139198770Y-97272889D01*
X139226483Y-97306657D01*
X139260251Y-97334370D01*
X139260253Y-97334372D01*
X139324629Y-97387204D01*
X139361241Y-97417251D01*
X139514987Y-97499429D01*
X139599157Y-97524962D01*
X139686018Y-97630802D01*
X139820593Y-97741245D01*
X139974129Y-97823312D01*
X140140725Y-97873848D01*
X140313979Y-97890912D01*
X141213981Y-97890912D01*
X141387235Y-97873848D01*
X141553831Y-97823312D01*
X141707367Y-97741245D01*
X141841942Y-97630802D01*
X141897717Y-97562840D01*
X142968691Y-97562840D01*
X143012160Y-97567121D01*
X143055629Y-97562840D01*
X143055637Y-97562840D01*
X143074197Y-97561012D01*
X143690001Y-97561012D01*
X143690001Y-98113548D01*
X143686324Y-98150880D01*
X143690001Y-98188213D01*
X143700998Y-98299866D01*
X143711262Y-98333701D01*
X143744454Y-98443126D01*
X143815026Y-98575156D01*
X143886201Y-98661882D01*
X143910000Y-98690881D01*
X143938998Y-98714679D01*
X144257839Y-99033520D01*
X131594949Y-99033520D01*
X131551480Y-99029239D01*
X131508011Y-99033520D01*
X131508003Y-99033520D01*
X131377990Y-99046325D01*
X131211167Y-99096931D01*
X131127619Y-99141588D01*
X131057421Y-99179109D01*
X130956433Y-99261988D01*
X130956431Y-99261990D01*
X130922663Y-99289703D01*
X130894950Y-99323471D01*
X130084956Y-100133466D01*
X130051183Y-100161183D01*
X129940589Y-100295942D01*
X129931692Y-100312588D01*
X129853320Y-100312588D01*
X129728838Y-100324848D01*
X129609140Y-100361158D01*
X129498826Y-100420123D01*
X129402135Y-100499475D01*
X129322783Y-100596166D01*
X129263818Y-100706480D01*
X129227508Y-100826178D01*
X129215248Y-100950660D01*
X129215248Y-102650660D01*
X129227508Y-102775142D01*
X129263818Y-102894840D01*
X129322783Y-103005154D01*
X129402135Y-103101845D01*
X129498826Y-103181197D01*
X129595533Y-103232889D01*
X129439951Y-103388471D01*
X129406184Y-103416183D01*
X129378471Y-103449951D01*
X129378468Y-103449954D01*
X129295590Y-103550941D01*
X129213412Y-103704687D01*
X129162805Y-103871510D01*
X129145719Y-104045000D01*
X129150001Y-104088479D01*
X129150001Y-104306262D01*
X129082038Y-104362038D01*
X128971595Y-104496613D01*
X128889528Y-104650149D01*
X128838992Y-104816745D01*
X128821928Y-104989999D01*
X128821928Y-105890001D01*
X128838992Y-106063255D01*
X128889528Y-106229851D01*
X128971595Y-106383387D01*
X129082038Y-106517962D01*
X129125001Y-106553221D01*
X129125000Y-119256531D01*
X129120719Y-119300000D01*
X129125000Y-119343469D01*
X129125000Y-119343476D01*
X129127987Y-119373799D01*
X129137805Y-119473490D01*
X129144695Y-119496201D01*
X129188411Y-119640312D01*
X129270589Y-119794058D01*
X129381183Y-119928817D01*
X129414956Y-119956534D01*
X129993563Y-120535141D01*
X129893816Y-120515300D01*
X129394464Y-120515300D01*
X128904708Y-120612718D01*
X128443367Y-120803812D01*
X128098681Y-121034124D01*
X128120860Y-97260487D01*
X128225120Y-97281920D01*
X128550120Y-97281920D01*
X128550120Y-96198920D01*
X128804120Y-96198920D01*
X128804120Y-97281920D01*
X129129120Y-97281920D01*
X129362739Y-97233894D01*
X129582500Y-97141214D01*
X129779957Y-97007441D01*
X129947522Y-96837717D01*
X130078756Y-96638564D01*
X130168616Y-96417635D01*
X130170755Y-96385597D01*
X130086047Y-96259178D01*
X130884601Y-96259178D01*
X130897042Y-96325037D01*
X131000763Y-96571899D01*
X131150651Y-96793783D01*
X131340947Y-96982162D01*
X131564337Y-97129796D01*
X131812237Y-97231012D01*
X132075120Y-97281920D01*
X132350120Y-97281920D01*
X132350120Y-96048920D01*
X132604120Y-96048920D01*
X132604120Y-97281920D01*
X132879120Y-97281920D01*
X133142003Y-97231012D01*
X133389903Y-97129796D01*
X133613293Y-96982162D01*
X133803589Y-96793783D01*
X133953477Y-96571899D01*
X134057198Y-96325037D01*
X134069639Y-96259178D01*
X133946638Y-96048920D01*
X132604120Y-96048920D01*
X132350120Y-96048920D01*
X131007602Y-96048920D01*
X130884601Y-96259178D01*
X130086047Y-96259178D01*
X130045670Y-96198920D01*
X128804120Y-96198920D01*
X128550120Y-96198920D01*
X128530120Y-96198920D01*
X128530120Y-95944920D01*
X128550120Y-95944920D01*
X128550120Y-94861920D01*
X128804120Y-94861920D01*
X128804120Y-95944920D01*
X130045670Y-95944920D01*
X130170755Y-95758243D01*
X130168616Y-95726205D01*
X130078756Y-95505276D01*
X129947522Y-95306123D01*
X129779957Y-95136399D01*
X129582500Y-95002626D01*
X129362739Y-94909946D01*
X129129120Y-94861920D01*
X128804120Y-94861920D01*
X128550120Y-94861920D01*
X128225120Y-94861920D01*
X128123078Y-94882897D01*
X128128088Y-89511973D01*
X128225120Y-89531920D01*
X128550120Y-89531920D01*
X128550120Y-88448920D01*
X128804120Y-88448920D01*
X128804120Y-89531920D01*
X129129120Y-89531920D01*
X129362739Y-89483894D01*
X129582500Y-89391214D01*
X129779957Y-89257441D01*
X129947522Y-89087717D01*
X130078756Y-88888564D01*
X130168616Y-88667635D01*
X130170755Y-88635597D01*
X130045670Y-88448920D01*
X128804120Y-88448920D01*
X128550120Y-88448920D01*
X128530120Y-88448920D01*
X128530120Y-88194920D01*
X128550120Y-88194920D01*
X128550120Y-87111920D01*
X128225120Y-87111920D01*
X128130309Y-87131411D01*
X128136360Y-80645000D01*
X133971928Y-80645000D01*
X133971928Y-82345000D01*
X133984188Y-82469482D01*
X134020498Y-82589180D01*
X134079463Y-82699494D01*
X134158815Y-82796185D01*
X134255506Y-82875537D01*
X134365820Y-82934502D01*
X134485518Y-82970812D01*
X134555000Y-82977655D01*
X134555001Y-84319155D01*
X134519538Y-84354618D01*
X134389854Y-84548704D01*
X134300527Y-84764360D01*
X134254988Y-84993300D01*
X134254988Y-85226724D01*
X134300527Y-85455664D01*
X134389854Y-85671320D01*
X134519538Y-85865406D01*
X134684594Y-86030462D01*
X134878680Y-86160146D01*
X135094336Y-86249473D01*
X135323276Y-86295012D01*
X135556700Y-86295012D01*
X135785640Y-86249473D01*
X136001296Y-86160146D01*
X136195382Y-86030462D01*
X136360438Y-85865406D01*
X136490122Y-85671320D01*
X136579449Y-85455664D01*
X136624988Y-85226724D01*
X136624988Y-84993300D01*
X136579449Y-84764360D01*
X136490122Y-84548704D01*
X136360438Y-84354618D01*
X136325000Y-84319180D01*
X136325000Y-82981595D01*
X136434482Y-82970812D01*
X136554180Y-82934502D01*
X136664494Y-82875537D01*
X136761185Y-82796185D01*
X136840537Y-82699494D01*
X136899502Y-82589180D01*
X136935812Y-82469482D01*
X136948072Y-82345000D01*
X136948072Y-80645000D01*
X136935812Y-80520518D01*
X136899502Y-80400820D01*
X136840537Y-80290506D01*
X136761185Y-80193815D01*
X136664494Y-80114463D01*
X136554180Y-80055498D01*
X136473534Y-80031034D01*
X136557588Y-79955269D01*
X136731641Y-79721920D01*
X136856825Y-79459099D01*
X136901476Y-79311890D01*
X136780155Y-79082000D01*
X135587000Y-79082000D01*
X135587000Y-79102000D01*
X135333000Y-79102000D01*
X135333000Y-79082000D01*
X134139845Y-79082000D01*
X134018524Y-79311890D01*
X134063175Y-79459099D01*
X134188359Y-79721920D01*
X134362412Y-79955269D01*
X134446466Y-80031034D01*
X134365820Y-80055498D01*
X134255506Y-80114463D01*
X134158815Y-80193815D01*
X134079463Y-80290506D01*
X134020498Y-80400820D01*
X133984188Y-80520518D01*
X133971928Y-80645000D01*
X128136360Y-80645000D01*
X128138269Y-78598110D01*
X134018524Y-78598110D01*
X134139845Y-78828000D01*
X135333000Y-78828000D01*
X135333000Y-77634186D01*
X135587000Y-77634186D01*
X135587000Y-78828000D01*
X136780155Y-78828000D01*
X136901476Y-78598110D01*
X136856825Y-78450901D01*
X136731641Y-78188080D01*
X136557588Y-77954731D01*
X136341355Y-77759822D01*
X136091252Y-77610843D01*
X135816891Y-77513519D01*
X135587000Y-77634186D01*
X135333000Y-77634186D01*
X135103109Y-77513519D01*
X134828748Y-77610843D01*
X134578645Y-77759822D01*
X134362412Y-77954731D01*
X134188359Y-78188080D01*
X134063175Y-78450901D01*
X134018524Y-78598110D01*
X128138269Y-78598110D01*
X128139326Y-77466025D01*
X128489087Y-77699728D01*
X128950428Y-77890822D01*
X129440184Y-77988240D01*
X129939536Y-77988240D01*
X130429292Y-77890822D01*
X130890633Y-77699728D01*
X131305828Y-77422303D01*
X131658923Y-77069208D01*
X131936348Y-76654013D01*
X132127442Y-76192672D01*
X132224860Y-75702916D01*
X132224860Y-75203564D01*
X132127442Y-74713808D01*
X131936348Y-74252467D01*
X131707190Y-73909509D01*
X133603969Y-73908120D01*
X166086171Y-73949583D01*
%TA.AperFunction,Conductor*%
D31*
G36*
X166086171Y-73949583D02*
G01*
X165858332Y-74290567D01*
X165667238Y-74751908D01*
X165569820Y-75241664D01*
X165569820Y-75741016D01*
X165667238Y-76230772D01*
X165858332Y-76692113D01*
X166135757Y-77107308D01*
X166488852Y-77460403D01*
X166904047Y-77737828D01*
X167365388Y-77928922D01*
X167855144Y-78026340D01*
X168354496Y-78026340D01*
X168844252Y-77928922D01*
X169305593Y-77737828D01*
X169645000Y-77511043D01*
X169645001Y-121050040D01*
X169325913Y-120836832D01*
X168864572Y-120645738D01*
X168374816Y-120548320D01*
X167875464Y-120548320D01*
X167785330Y-120566249D01*
X169326770Y-119024809D01*
X169360537Y-118997097D01*
X169391815Y-118958986D01*
X169471130Y-118862340D01*
X169471131Y-118862339D01*
X169553309Y-118708593D01*
X169603915Y-118541770D01*
X169616720Y-118411757D01*
X169616720Y-118411747D01*
X169621001Y-118368281D01*
X169616720Y-118324815D01*
X169616720Y-112241749D01*
X169621001Y-112198280D01*
X169616720Y-112154811D01*
X169616720Y-101095196D01*
X169621002Y-101051720D01*
X169616720Y-101008243D01*
X169616720Y-90657485D01*
X169621001Y-90614019D01*
X169616720Y-90570553D01*
X169616720Y-86573165D01*
X169621001Y-86529699D01*
X169616720Y-86486233D01*
X169616720Y-86486223D01*
X169603915Y-86356210D01*
X169553309Y-86189387D01*
X169471131Y-86035641D01*
X169433552Y-85989851D01*
X169388252Y-85934653D01*
X169388250Y-85934651D01*
X169360537Y-85900883D01*
X169326770Y-85873171D01*
X167107812Y-83654214D01*
X167080097Y-83620443D01*
X166945339Y-83509849D01*
X166791593Y-83427671D01*
X166672412Y-83391517D01*
X166672412Y-82145440D01*
X166660152Y-82020958D01*
X166623842Y-81901260D01*
X166564877Y-81790946D01*
X166485525Y-81694255D01*
X166403220Y-81626709D01*
X166403220Y-78540762D01*
X166406896Y-78503439D01*
X166403220Y-78466116D01*
X166403220Y-78466107D01*
X166392223Y-78354454D01*
X166348766Y-78211193D01*
X166278194Y-78079164D01*
X166183221Y-77963439D01*
X166154224Y-77939642D01*
X165409803Y-77195222D01*
X165386001Y-77166219D01*
X165270276Y-77071246D01*
X165138247Y-77000674D01*
X164994986Y-76957217D01*
X164883333Y-76946220D01*
X164883322Y-76946220D01*
X164846000Y-76942544D01*
X164808678Y-76946220D01*
X164630993Y-76946220D01*
X164628872Y-76939229D01*
X164546805Y-76785693D01*
X164436362Y-76651118D01*
X164301787Y-76540675D01*
X164148251Y-76458608D01*
X163981655Y-76408072D01*
X163808401Y-76391008D01*
X163158399Y-76391008D01*
X162985145Y-76408072D01*
X162818549Y-76458608D01*
X162665013Y-76540675D01*
X162530438Y-76651118D01*
X162458400Y-76738896D01*
X162386362Y-76651118D01*
X162251787Y-76540675D01*
X162098251Y-76458608D01*
X161931655Y-76408072D01*
X161758401Y-76391008D01*
X161108399Y-76391008D01*
X160935145Y-76408072D01*
X160768549Y-76458608D01*
X160615013Y-76540675D01*
X160480438Y-76651118D01*
X160369995Y-76785693D01*
X160287928Y-76939229D01*
X160237392Y-77105825D01*
X160220328Y-77279079D01*
X160220328Y-78179081D01*
X160237392Y-78352335D01*
X160287928Y-78518931D01*
X160369995Y-78672467D01*
X160480438Y-78807042D01*
X160615013Y-78917485D01*
X160616344Y-78918196D01*
X160488058Y-79023478D01*
X160377615Y-79158053D01*
X160295548Y-79311589D01*
X160245012Y-79478185D01*
X160227948Y-79651439D01*
X160227948Y-80551441D01*
X160245012Y-80724695D01*
X160295548Y-80891291D01*
X160377615Y-81044827D01*
X160488058Y-81179402D01*
X160622633Y-81289845D01*
X160776169Y-81371912D01*
X160942765Y-81422448D01*
X161116019Y-81439512D01*
X161766021Y-81439512D01*
X161939275Y-81422448D01*
X162105871Y-81371912D01*
X162259407Y-81289845D01*
X162393982Y-81179402D01*
X162399362Y-81172846D01*
X162464835Y-81252625D01*
X162561526Y-81331977D01*
X162671840Y-81390942D01*
X162791538Y-81427252D01*
X162916020Y-81439512D01*
X163205270Y-81436440D01*
X163364020Y-81277690D01*
X163364020Y-80228440D01*
X163618020Y-80228440D01*
X163618020Y-81277690D01*
X163776770Y-81436440D01*
X164066020Y-81439512D01*
X164190502Y-81427252D01*
X164310200Y-81390942D01*
X164420514Y-81331977D01*
X164517205Y-81252625D01*
X164596557Y-81155934D01*
X164655522Y-81045620D01*
X164691832Y-80925922D01*
X164704092Y-80801440D01*
X164701020Y-80387190D01*
X164542270Y-80228440D01*
X163618020Y-80228440D01*
X163364020Y-80228440D01*
X163344020Y-80228440D01*
X163344020Y-79974440D01*
X163364020Y-79974440D01*
X163364020Y-79954440D01*
X163618020Y-79954440D01*
X163618020Y-79974440D01*
X164542270Y-79974440D01*
X164701020Y-79815690D01*
X164704092Y-79401440D01*
X164691832Y-79276958D01*
X164655522Y-79157260D01*
X164596557Y-79046946D01*
X164517205Y-78950255D01*
X164420514Y-78870903D01*
X164382988Y-78850845D01*
X164436362Y-78807042D01*
X164546805Y-78672467D01*
X164613210Y-78548232D01*
X164883220Y-78818242D01*
X164883221Y-81507478D01*
X164760513Y-81519499D01*
X164734405Y-81527389D01*
X164708822Y-81519628D01*
X164584340Y-81507368D01*
X163584340Y-81507368D01*
X163459858Y-81519628D01*
X163340160Y-81555938D01*
X163229846Y-81614903D01*
X163133155Y-81694255D01*
X163053803Y-81790946D01*
X162994838Y-81901260D01*
X162958528Y-82020958D01*
X162946268Y-82145440D01*
X162946268Y-83364260D01*
X151006359Y-83364260D01*
X149805200Y-82163102D01*
X149805200Y-80134439D01*
X149846512Y-80106835D01*
X150053355Y-79899992D01*
X150175075Y-79717826D01*
X150244702Y-79834715D01*
X150439611Y-80050948D01*
X150672960Y-80225001D01*
X150935781Y-80350185D01*
X151082990Y-80394836D01*
X151312880Y-80273515D01*
X151312880Y-79080360D01*
X151566880Y-79080360D01*
X151566880Y-80273515D01*
X151796770Y-80394836D01*
X151943979Y-80350185D01*
X152206800Y-80225001D01*
X152440149Y-80050948D01*
X152635058Y-79834715D01*
X152784037Y-79584612D01*
X152881361Y-79310251D01*
X152760694Y-79080360D01*
X151566880Y-79080360D01*
X151312880Y-79080360D01*
X151292880Y-79080360D01*
X151292880Y-78826360D01*
X151312880Y-78826360D01*
X151312880Y-77633205D01*
X151566880Y-77633205D01*
X151566880Y-78826360D01*
X152760694Y-78826360D01*
X152881361Y-78596469D01*
X152784037Y-78322108D01*
X152635058Y-78072005D01*
X152440149Y-77855772D01*
X152206800Y-77681719D01*
X151943979Y-77556535D01*
X151796770Y-77511884D01*
X151566880Y-77633205D01*
X151312880Y-77633205D01*
X151082990Y-77511884D01*
X150935781Y-77556535D01*
X150672960Y-77681719D01*
X150439611Y-77855772D01*
X150244702Y-78072005D01*
X150175075Y-78188894D01*
X150053355Y-78006728D01*
X149846512Y-77799885D01*
X149603291Y-77637370D01*
X149333038Y-77525428D01*
X149046140Y-77468360D01*
X148753620Y-77468360D01*
X148466722Y-77525428D01*
X148196469Y-77637370D01*
X147953248Y-77799885D01*
X147821393Y-77931740D01*
X147799382Y-77859180D01*
X147740417Y-77748866D01*
X147661065Y-77652175D01*
X147564374Y-77572823D01*
X147454060Y-77513858D01*
X147334362Y-77477548D01*
X147209880Y-77465288D01*
X145509880Y-77465288D01*
X145385398Y-77477548D01*
X145265700Y-77513858D01*
X145155386Y-77572823D01*
X145058695Y-77652175D01*
X144979343Y-77748866D01*
X144920378Y-77859180D01*
X144884068Y-77978878D01*
X144871808Y-78103360D01*
X144871808Y-79803360D01*
X144884068Y-79927842D01*
X144920378Y-80047540D01*
X144979343Y-80157854D01*
X145058695Y-80254545D01*
X145155386Y-80333897D01*
X145265700Y-80392862D01*
X145385398Y-80429172D01*
X145509880Y-80441432D01*
X147209880Y-80441432D01*
X147334362Y-80429172D01*
X147454060Y-80392862D01*
X147564374Y-80333897D01*
X147661065Y-80254545D01*
X147740417Y-80157854D01*
X147799382Y-80047540D01*
X147821393Y-79974980D01*
X147953248Y-80106835D01*
X148035200Y-80161594D01*
X148035201Y-82486201D01*
X148030919Y-82529680D01*
X148048005Y-82703170D01*
X148098612Y-82869993D01*
X148180790Y-83023739D01*
X148263668Y-83124726D01*
X148263671Y-83124729D01*
X148291384Y-83158497D01*
X148325151Y-83186209D01*
X149983250Y-84844309D01*
X150010963Y-84878077D01*
X150044731Y-84905790D01*
X150044733Y-84905792D01*
X150078483Y-84933490D01*
X150145721Y-84988671D01*
X150299467Y-85070849D01*
X150466290Y-85121455D01*
X150596303Y-85134260D01*
X150596313Y-85134260D01*
X150639779Y-85138541D01*
X150683245Y-85134260D01*
X164078631Y-85134260D01*
X164122100Y-85138541D01*
X164165569Y-85134260D01*
X166084702Y-85134260D01*
X167846720Y-86896279D01*
X167846721Y-88477442D01*
X167181474Y-87812196D01*
X167153757Y-87778423D01*
X167018999Y-87667829D01*
X166865253Y-87585651D01*
X166698430Y-87535045D01*
X166664438Y-87531697D01*
X166663792Y-87525138D01*
X166627482Y-87405440D01*
X166568517Y-87295126D01*
X166489165Y-87198435D01*
X166392474Y-87119083D01*
X166282160Y-87060118D01*
X166162462Y-87023808D01*
X166037980Y-87011548D01*
X164887980Y-87011548D01*
X164764153Y-87023679D01*
X164738045Y-87031569D01*
X164712462Y-87023808D01*
X164587980Y-87011548D01*
X163587980Y-87011548D01*
X163463498Y-87023808D01*
X163343800Y-87060118D01*
X163233486Y-87119083D01*
X163136795Y-87198435D01*
X163057443Y-87295126D01*
X162998478Y-87405440D01*
X162962168Y-87525138D01*
X162954312Y-87604900D01*
X162692977Y-87604900D01*
X162637202Y-87536938D01*
X162630646Y-87531558D01*
X162710425Y-87466085D01*
X162789777Y-87369394D01*
X162848742Y-87259080D01*
X162885052Y-87139382D01*
X162897312Y-87014900D01*
X162894240Y-86725650D01*
X162735490Y-86566900D01*
X161686240Y-86566900D01*
X161686240Y-86586900D01*
X161432240Y-86586900D01*
X161432240Y-86566900D01*
X161412240Y-86566900D01*
X161412240Y-86312900D01*
X161432240Y-86312900D01*
X161432240Y-85388650D01*
X161686240Y-85388650D01*
X161686240Y-86312900D01*
X162735490Y-86312900D01*
X162894240Y-86154150D01*
X162897312Y-85864900D01*
X162885052Y-85740418D01*
X162848742Y-85620720D01*
X162789777Y-85510406D01*
X162710425Y-85413715D01*
X162613734Y-85334363D01*
X162503420Y-85275398D01*
X162383722Y-85239088D01*
X162259240Y-85226828D01*
X161844990Y-85229900D01*
X161686240Y-85388650D01*
X161432240Y-85388650D01*
X161273490Y-85229900D01*
X160859240Y-85226828D01*
X160734758Y-85239088D01*
X160615060Y-85275398D01*
X160504746Y-85334363D01*
X160408055Y-85413715D01*
X160361756Y-85470130D01*
X160244567Y-85373955D01*
X160091031Y-85291888D01*
X159924435Y-85241352D01*
X159751181Y-85224288D01*
X158851179Y-85224288D01*
X158677925Y-85241352D01*
X158511329Y-85291888D01*
X158357793Y-85373955D01*
X158223218Y-85484398D01*
X158112775Y-85618973D01*
X158050593Y-85735307D01*
X158018274Y-85708783D01*
X157907960Y-85649818D01*
X157788262Y-85613508D01*
X157663780Y-85601248D01*
X156103780Y-85601248D01*
X155979298Y-85613508D01*
X155859600Y-85649818D01*
X155749286Y-85708783D01*
X155652595Y-85788135D01*
X155573243Y-85884826D01*
X155533780Y-85958655D01*
X155494317Y-85884826D01*
X155414965Y-85788135D01*
X155318274Y-85708783D01*
X155207960Y-85649818D01*
X155088262Y-85613508D01*
X154963780Y-85601248D01*
X153403780Y-85601248D01*
X153279298Y-85613508D01*
X153159600Y-85649818D01*
X153049286Y-85708783D01*
X152952595Y-85788135D01*
X152873243Y-85884826D01*
X152822484Y-85979788D01*
X152823232Y-85909340D01*
X152810972Y-85784858D01*
X152774662Y-85665160D01*
X152715697Y-85554846D01*
X152636345Y-85458155D01*
X152539654Y-85378803D01*
X152429340Y-85319838D01*
X152309642Y-85283528D01*
X152185160Y-85271268D01*
X151770910Y-85274340D01*
X151612160Y-85433090D01*
X151612160Y-86357340D01*
X151632160Y-86357340D01*
X151632160Y-86611340D01*
X151612160Y-86611340D01*
X151612160Y-86631340D01*
X151358160Y-86631340D01*
X151358160Y-86611340D01*
X150308910Y-86611340D01*
X150150160Y-86770090D01*
X150147088Y-87059340D01*
X150159348Y-87183822D01*
X150195658Y-87303520D01*
X150254623Y-87413834D01*
X150323269Y-87497480D01*
X149449781Y-87497480D01*
X149395465Y-87431295D01*
X149335000Y-87381673D01*
X149335000Y-87293466D01*
X149339281Y-87249999D01*
X149335000Y-87206533D01*
X149335000Y-87206523D01*
X149322195Y-87076510D01*
X149271589Y-86909687D01*
X149189411Y-86755941D01*
X149078817Y-86621183D01*
X149045050Y-86593471D01*
X148501614Y-86050036D01*
X148473897Y-86016263D01*
X148343613Y-85909340D01*
X150147088Y-85909340D01*
X150150160Y-86198590D01*
X150308910Y-86357340D01*
X151358160Y-86357340D01*
X151358160Y-85433090D01*
X151199410Y-85274340D01*
X150785160Y-85271268D01*
X150660678Y-85283528D01*
X150540980Y-85319838D01*
X150430666Y-85378803D01*
X150333975Y-85458155D01*
X150254623Y-85554846D01*
X150195658Y-85665160D01*
X150159348Y-85784858D01*
X150147088Y-85909340D01*
X148343613Y-85909340D01*
X148339139Y-85905669D01*
X148185393Y-85823491D01*
X148018570Y-85772885D01*
X147888557Y-85760080D01*
X147888549Y-85760080D01*
X147845080Y-85755799D01*
X147801611Y-85760080D01*
X143472621Y-85760080D01*
X143416354Y-85713903D01*
X143306040Y-85654938D01*
X143186342Y-85618628D01*
X143061860Y-85606368D01*
X141161860Y-85606368D01*
X141037378Y-85618628D01*
X140917680Y-85654938D01*
X140807366Y-85713903D01*
X140710675Y-85793255D01*
X140631323Y-85889946D01*
X140572358Y-86000260D01*
X140536048Y-86119958D01*
X140523788Y-86244440D01*
X140523788Y-86756345D01*
X140513045Y-86743255D01*
X140416354Y-86663903D01*
X140306040Y-86604938D01*
X140186342Y-86568628D01*
X140061860Y-86556368D01*
X138161860Y-86556368D01*
X138037378Y-86568628D01*
X137917680Y-86604938D01*
X137807366Y-86663903D01*
X137745104Y-86715000D01*
X135156579Y-86715000D01*
X134746534Y-86304956D01*
X134718817Y-86271183D01*
X134584059Y-86160589D01*
X134430313Y-86078411D01*
X134263490Y-86027805D01*
X134133477Y-86015000D01*
X134133469Y-86015000D01*
X134090000Y-86010719D01*
X134046531Y-86015000D01*
X132658052Y-86015000D01*
X132742390Y-85889946D01*
X132836493Y-85665496D01*
X132885000Y-85427000D01*
X132885000Y-85152000D01*
X131777000Y-85152000D01*
X131777000Y-85172000D01*
X131523000Y-85172000D01*
X131523000Y-85152000D01*
X131503000Y-85152000D01*
X131503000Y-84898000D01*
X131523000Y-84898000D01*
X131523000Y-83681269D01*
X131777000Y-83681269D01*
X131777000Y-84898000D01*
X132885000Y-84898000D01*
X132885000Y-84623000D01*
X132836493Y-84384504D01*
X132742390Y-84160054D01*
X132606307Y-83958275D01*
X132433474Y-83786922D01*
X132230533Y-83652579D01*
X132005282Y-83560409D01*
X131967609Y-83556538D01*
X131777000Y-83681269D01*
X131523000Y-83681269D01*
X131332391Y-83556538D01*
X131294718Y-83560409D01*
X131069467Y-83652579D01*
X130866526Y-83786922D01*
X130740967Y-83911406D01*
X130738405Y-83906613D01*
X130627962Y-83772038D01*
X130493387Y-83661595D01*
X130339851Y-83579528D01*
X130173255Y-83528992D01*
X130000001Y-83511928D01*
X129299999Y-83511928D01*
X129126745Y-83528992D01*
X128960149Y-83579528D01*
X128806613Y-83661595D01*
X128672038Y-83772038D01*
X128561595Y-83906613D01*
X128479528Y-84060149D01*
X128428992Y-84226745D01*
X128411928Y-84399999D01*
X128411928Y-85650001D01*
X128428992Y-85823255D01*
X128479528Y-85989851D01*
X128561595Y-86143387D01*
X128672038Y-86277962D01*
X128806613Y-86388405D01*
X128838119Y-86405245D01*
X128885590Y-86494059D01*
X128968468Y-86595046D01*
X128968471Y-86595049D01*
X128996184Y-86628817D01*
X129029951Y-86656529D01*
X129717521Y-87344100D01*
X129582500Y-87252626D01*
X129362739Y-87159946D01*
X129129120Y-87111920D01*
X128804120Y-87111920D01*
X128804120Y-88194920D01*
X130045670Y-88194920D01*
X130170755Y-88008243D01*
X130168616Y-87976205D01*
X130078756Y-87755276D01*
X129968800Y-87588413D01*
X129993621Y-87608783D01*
X130030941Y-87639411D01*
X130184687Y-87721589D01*
X130351510Y-87772195D01*
X130481523Y-87785000D01*
X130481533Y-87785000D01*
X130524999Y-87789281D01*
X130568465Y-87785000D01*
X131025718Y-87785000D01*
X131000763Y-87821941D01*
X130897042Y-88068803D01*
X130884601Y-88134662D01*
X131007602Y-88344920D01*
X132350120Y-88344920D01*
X132350120Y-88324920D01*
X132604120Y-88324920D01*
X132604120Y-88344920D01*
X133946638Y-88344920D01*
X134069639Y-88134662D01*
X134068837Y-88130416D01*
X134133470Y-88195049D01*
X134161183Y-88228817D01*
X134194951Y-88256530D01*
X134194953Y-88256532D01*
X134266452Y-88315210D01*
X134295941Y-88339411D01*
X134449687Y-88421589D01*
X134616510Y-88472195D01*
X134746523Y-88485000D01*
X134746533Y-88485000D01*
X134789999Y-88489281D01*
X134833465Y-88485000D01*
X137758654Y-88485000D01*
X137807366Y-88524977D01*
X137917680Y-88583942D01*
X138032683Y-88618828D01*
X138032683Y-88708618D01*
X138032682Y-88708627D01*
X138032682Y-88739076D01*
X137997232Y-88774526D01*
X137867548Y-88968612D01*
X137778221Y-89184268D01*
X137732682Y-89413208D01*
X137732682Y-89646632D01*
X137778221Y-89875572D01*
X137832395Y-90006360D01*
X136270844Y-90006360D01*
X136235394Y-89970910D01*
X136041308Y-89841226D01*
X135825652Y-89751899D01*
X135596712Y-89706360D01*
X135363288Y-89706360D01*
X135134348Y-89751899D01*
X134918692Y-89841226D01*
X134724606Y-89970910D01*
X134634076Y-90061440D01*
X133752145Y-90061440D01*
X133701602Y-90046108D01*
X133577120Y-90033848D01*
X132407836Y-90033848D01*
X132422346Y-89998818D01*
X132462120Y-89798859D01*
X132462120Y-89594981D01*
X132422346Y-89395022D01*
X132350120Y-89220654D01*
X132350120Y-88598920D01*
X132604120Y-88598920D01*
X132604120Y-89831920D01*
X132879120Y-89831920D01*
X133142003Y-89781012D01*
X133389903Y-89679796D01*
X133613293Y-89532162D01*
X133803589Y-89343783D01*
X133953477Y-89121899D01*
X134057198Y-88875037D01*
X134069639Y-88809178D01*
X133946638Y-88598920D01*
X132604120Y-88598920D01*
X132350120Y-88598920D01*
X131007602Y-88598920D01*
X130884601Y-88809178D01*
X130885516Y-88814024D01*
X130767346Y-88892983D01*
X130623183Y-89037146D01*
X130509915Y-89206664D01*
X130431894Y-89395022D01*
X130392120Y-89594981D01*
X130392120Y-89798859D01*
X130431894Y-89998818D01*
X130509915Y-90187176D01*
X130623183Y-90356694D01*
X130767346Y-90500857D01*
X130936864Y-90614125D01*
X131125222Y-90692146D01*
X131239048Y-90714787D01*
X131239048Y-91121920D01*
X131248897Y-91221920D01*
X131239048Y-91321920D01*
X131239048Y-91771920D01*
X131248897Y-91871920D01*
X131239048Y-91971920D01*
X131239048Y-92421920D01*
X131248897Y-92521920D01*
X131239048Y-92621920D01*
X131239048Y-93071920D01*
X131249182Y-93174817D01*
X131242120Y-93240170D01*
X131274367Y-93272417D01*
X131287618Y-93316100D01*
X131346583Y-93426414D01*
X131425935Y-93523105D01*
X131513442Y-93594920D01*
X131400870Y-93594920D01*
X131333870Y-93661920D01*
X131325181Y-93661920D01*
X131125222Y-93701694D01*
X130936864Y-93779715D01*
X130767346Y-93892983D01*
X130623183Y-94037146D01*
X130509915Y-94206664D01*
X130431894Y-94395022D01*
X130392120Y-94594981D01*
X130392120Y-94798859D01*
X130431894Y-94998818D01*
X130509915Y-95187176D01*
X130623183Y-95356694D01*
X130767346Y-95500857D01*
X130885516Y-95579816D01*
X130884601Y-95584662D01*
X131007602Y-95794920D01*
X132350120Y-95794920D01*
X132350120Y-95173186D01*
X132422346Y-94998818D01*
X132462120Y-94798859D01*
X132462120Y-94594981D01*
X132455544Y-94561920D01*
X132604120Y-94561920D01*
X132604120Y-95794920D01*
X133946638Y-95794920D01*
X134069639Y-95584662D01*
X134057198Y-95518803D01*
X133953477Y-95271941D01*
X133803589Y-95050057D01*
X133613293Y-94861678D01*
X133389903Y-94714044D01*
X133142003Y-94612828D01*
X132879120Y-94561920D01*
X132604120Y-94561920D01*
X132455544Y-94561920D01*
X132422346Y-94395022D01*
X132406642Y-94357108D01*
X132441370Y-94356920D01*
X132600120Y-94198170D01*
X132600120Y-93709992D01*
X132854120Y-93709992D01*
X132854120Y-94198170D01*
X133012870Y-94356920D01*
X133568445Y-94359933D01*
X133693082Y-94349366D01*
X133813262Y-94314687D01*
X133924368Y-94257228D01*
X134022129Y-94179198D01*
X134102789Y-94083594D01*
X134163247Y-93974092D01*
X134201181Y-93854899D01*
X134212120Y-93753670D01*
X134053370Y-93594920D01*
X133940798Y-93594920D01*
X134028305Y-93523105D01*
X134107657Y-93426414D01*
X134166622Y-93316100D01*
X134179873Y-93272417D01*
X134212120Y-93240170D01*
X134205058Y-93174817D01*
X134215192Y-93071920D01*
X134215192Y-92621920D01*
X134205343Y-92521920D01*
X134215192Y-92421920D01*
X134215192Y-91971920D01*
X134205343Y-91871920D01*
X134215192Y-91771920D01*
X134215192Y-91731440D01*
X134644236Y-91731440D01*
X134724606Y-91811810D01*
X134918692Y-91941494D01*
X135134348Y-92030821D01*
X135363288Y-92076360D01*
X135596712Y-92076360D01*
X135825652Y-92030821D01*
X136041308Y-91941494D01*
X136235394Y-91811810D01*
X136270844Y-91776360D01*
X139345686Y-91776360D01*
X139376895Y-91834747D01*
X139487338Y-91969322D01*
X139621913Y-92079765D01*
X139775449Y-92161832D01*
X139942045Y-92212368D01*
X140115299Y-92229432D01*
X140765301Y-92229432D01*
X140938555Y-92212368D01*
X141105151Y-92161832D01*
X141258687Y-92079765D01*
X141393262Y-91969322D01*
X141398642Y-91962766D01*
X141464115Y-92042545D01*
X141560806Y-92121897D01*
X141671120Y-92180862D01*
X141790818Y-92217172D01*
X141915300Y-92229432D01*
X142204550Y-92226360D01*
X142363300Y-92067610D01*
X142363300Y-91018360D01*
X142617300Y-91018360D01*
X142617300Y-92067610D01*
X142776050Y-92226360D01*
X143065300Y-92229432D01*
X143189782Y-92217172D01*
X143309480Y-92180862D01*
X143419794Y-92121897D01*
X143516485Y-92042545D01*
X143595837Y-91945854D01*
X143654802Y-91835540D01*
X143691112Y-91715842D01*
X143703372Y-91591360D01*
X143700300Y-91177110D01*
X143541550Y-91018360D01*
X142617300Y-91018360D01*
X142363300Y-91018360D01*
X142343300Y-91018360D01*
X142343300Y-90764360D01*
X142363300Y-90764360D01*
X142363300Y-90744360D01*
X142617300Y-90744360D01*
X142617300Y-90764360D01*
X143541550Y-90764360D01*
X143700300Y-90605610D01*
X143703372Y-90191360D01*
X143691112Y-90066878D01*
X143654802Y-89947180D01*
X143595837Y-89836866D01*
X143516485Y-89740175D01*
X143419794Y-89660823D01*
X143309480Y-89601858D01*
X143195816Y-89567378D01*
X143306040Y-89533942D01*
X143416354Y-89474977D01*
X143471061Y-89430080D01*
X145059280Y-89430080D01*
X145059280Y-89922371D01*
X145054999Y-89965840D01*
X145059280Y-90009309D01*
X145059280Y-90009316D01*
X145067348Y-90091228D01*
X145072085Y-90139330D01*
X145075913Y-90151949D01*
X145122691Y-90306152D01*
X145204869Y-90459898D01*
X145315463Y-90594657D01*
X145349236Y-90622374D01*
X146187870Y-91461009D01*
X146215583Y-91494777D01*
X146249351Y-91522490D01*
X146249353Y-91522492D01*
X146311025Y-91573105D01*
X146350341Y-91605371D01*
X146504087Y-91687549D01*
X146608942Y-91719357D01*
X146670909Y-91738155D01*
X146685706Y-91739612D01*
X146800923Y-91750960D01*
X146800931Y-91750960D01*
X146844400Y-91755241D01*
X146887869Y-91750960D01*
X150570382Y-91750960D01*
X151088281Y-92268859D01*
X151088280Y-92763225D01*
X151080719Y-92840000D01*
X151085001Y-92883479D01*
X151085001Y-93472205D01*
X151041185Y-93418815D01*
X150944494Y-93339463D01*
X150834180Y-93280498D01*
X150714482Y-93244188D01*
X150590000Y-93231928D01*
X150300750Y-93235000D01*
X150142000Y-93393750D01*
X150142000Y-94443000D01*
X150162000Y-94443000D01*
X150162000Y-94697000D01*
X150142000Y-94697000D01*
X150142000Y-96613000D01*
X150162000Y-96613000D01*
X150162000Y-96867000D01*
X150142000Y-96867000D01*
X150142000Y-96887000D01*
X149888000Y-96887000D01*
X149888000Y-96867000D01*
X149868000Y-96867000D01*
X149868000Y-96613000D01*
X149888000Y-96613000D01*
X149888000Y-94697000D01*
X149868000Y-94697000D01*
X149868000Y-94443000D01*
X149888000Y-94443000D01*
X149888000Y-93393750D01*
X149729250Y-93235000D01*
X149440000Y-93231928D01*
X149315518Y-93244188D01*
X149195820Y-93280498D01*
X149085506Y-93339463D01*
X148988815Y-93418815D01*
X148923342Y-93498594D01*
X148917962Y-93492038D01*
X148783387Y-93381595D01*
X148629851Y-93299528D01*
X148463255Y-93248992D01*
X148290001Y-93231928D01*
X147639999Y-93231928D01*
X147466745Y-93248992D01*
X147300149Y-93299528D01*
X147146613Y-93381595D01*
X147012038Y-93492038D01*
X146901595Y-93626613D01*
X146819528Y-93780149D01*
X146815663Y-93792890D01*
X146797980Y-93783438D01*
X146678282Y-93747128D01*
X146553800Y-93734868D01*
X144993800Y-93734868D01*
X144869318Y-93747128D01*
X144749620Y-93783438D01*
X144639306Y-93842403D01*
X144542615Y-93921755D01*
X144463263Y-94018446D01*
X144459157Y-94026128D01*
X144396047Y-93992394D01*
X144351989Y-93979029D01*
X144304985Y-93921755D01*
X144208294Y-93842403D01*
X144097980Y-93783438D01*
X143978282Y-93747128D01*
X143853800Y-93734868D01*
X142293800Y-93734868D01*
X142169318Y-93747128D01*
X142049620Y-93783438D01*
X142042138Y-93787437D01*
X141994517Y-93698346D01*
X141915165Y-93601655D01*
X141818474Y-93522303D01*
X141708160Y-93463338D01*
X141588462Y-93427028D01*
X141463980Y-93414768D01*
X141049730Y-93417840D01*
X140890980Y-93576590D01*
X140890980Y-94500840D01*
X140910980Y-94500840D01*
X140910980Y-94754840D01*
X140890980Y-94754840D01*
X140890980Y-94774840D01*
X140636980Y-94774840D01*
X140636980Y-94754840D01*
X140616980Y-94754840D01*
X140616980Y-94500840D01*
X140636980Y-94500840D01*
X140636980Y-93576590D01*
X140478230Y-93417840D01*
X140063980Y-93414768D01*
X139990168Y-93422038D01*
X139955114Y-93337410D01*
X139825430Y-93143324D01*
X139660374Y-92978268D01*
X139466288Y-92848584D01*
X139250632Y-92759257D01*
X139021692Y-92713718D01*
X138788268Y-92713718D01*
X138559328Y-92759257D01*
X138343672Y-92848584D01*
X138149586Y-92978268D01*
X137984530Y-93143324D01*
X137854846Y-93337410D01*
X137765519Y-93553066D01*
X137719980Y-93782006D01*
X137719980Y-94015430D01*
X137765519Y-94244370D01*
X137854846Y-94460026D01*
X137984530Y-94654112D01*
X138019981Y-94689563D01*
X138019980Y-95684051D01*
X138015699Y-95727520D01*
X138019980Y-95770989D01*
X138019980Y-95770996D01*
X138026727Y-95839502D01*
X138032785Y-95901010D01*
X138042699Y-95933690D01*
X138083391Y-96067832D01*
X138165569Y-96221578D01*
X138276163Y-96356337D01*
X138309936Y-96384054D01*
X139198770Y-97272889D01*
X139226483Y-97306657D01*
X139260251Y-97334370D01*
X139260253Y-97334372D01*
X139324629Y-97387204D01*
X139361241Y-97417251D01*
X139514987Y-97499429D01*
X139599157Y-97524962D01*
X139686018Y-97630802D01*
X139820593Y-97741245D01*
X139974129Y-97823312D01*
X140140725Y-97873848D01*
X140313979Y-97890912D01*
X141213981Y-97890912D01*
X141387235Y-97873848D01*
X141553831Y-97823312D01*
X141707367Y-97741245D01*
X141841942Y-97630802D01*
X141897717Y-97562840D01*
X142968691Y-97562840D01*
X143012160Y-97567121D01*
X143055629Y-97562840D01*
X143055637Y-97562840D01*
X143074197Y-97561012D01*
X143690001Y-97561012D01*
X143690001Y-98113548D01*
X143686324Y-98150880D01*
X143690001Y-98188213D01*
X143700998Y-98299866D01*
X143711262Y-98333701D01*
X143744454Y-98443126D01*
X143815026Y-98575156D01*
X143886201Y-98661882D01*
X143910000Y-98690881D01*
X143938998Y-98714679D01*
X144257839Y-99033520D01*
X131594949Y-99033520D01*
X131551480Y-99029239D01*
X131508011Y-99033520D01*
X131508003Y-99033520D01*
X131377990Y-99046325D01*
X131211167Y-99096931D01*
X131127619Y-99141588D01*
X131057421Y-99179109D01*
X130956433Y-99261988D01*
X130956431Y-99261990D01*
X130922663Y-99289703D01*
X130894950Y-99323471D01*
X130084956Y-100133466D01*
X130051183Y-100161183D01*
X129940589Y-100295942D01*
X129931692Y-100312588D01*
X129853320Y-100312588D01*
X129728838Y-100324848D01*
X129609140Y-100361158D01*
X129498826Y-100420123D01*
X129402135Y-100499475D01*
X129322783Y-100596166D01*
X129263818Y-100706480D01*
X129227508Y-100826178D01*
X129215248Y-100950660D01*
X129215248Y-102650660D01*
X129227508Y-102775142D01*
X129263818Y-102894840D01*
X129322783Y-103005154D01*
X129402135Y-103101845D01*
X129498826Y-103181197D01*
X129595533Y-103232889D01*
X129439951Y-103388471D01*
X129406184Y-103416183D01*
X129378471Y-103449951D01*
X129378468Y-103449954D01*
X129295590Y-103550941D01*
X129213412Y-103704687D01*
X129162805Y-103871510D01*
X129145719Y-104045000D01*
X129150001Y-104088479D01*
X129150001Y-104306262D01*
X129082038Y-104362038D01*
X128971595Y-104496613D01*
X128889528Y-104650149D01*
X128838992Y-104816745D01*
X128821928Y-104989999D01*
X128821928Y-105890001D01*
X128838992Y-106063255D01*
X128889528Y-106229851D01*
X128971595Y-106383387D01*
X129082038Y-106517962D01*
X129125001Y-106553221D01*
X129125000Y-119256531D01*
X129120719Y-119300000D01*
X129125000Y-119343469D01*
X129125000Y-119343476D01*
X129127987Y-119373799D01*
X129137805Y-119473490D01*
X129144695Y-119496201D01*
X129188411Y-119640312D01*
X129270589Y-119794058D01*
X129381183Y-119928817D01*
X129414956Y-119956534D01*
X129993563Y-120535141D01*
X129893816Y-120515300D01*
X129394464Y-120515300D01*
X128904708Y-120612718D01*
X128443367Y-120803812D01*
X128098681Y-121034124D01*
X128120860Y-97260487D01*
X128225120Y-97281920D01*
X128550120Y-97281920D01*
X128550120Y-96198920D01*
X128804120Y-96198920D01*
X128804120Y-97281920D01*
X129129120Y-97281920D01*
X129362739Y-97233894D01*
X129582500Y-97141214D01*
X129779957Y-97007441D01*
X129947522Y-96837717D01*
X130078756Y-96638564D01*
X130168616Y-96417635D01*
X130170755Y-96385597D01*
X130086047Y-96259178D01*
X130884601Y-96259178D01*
X130897042Y-96325037D01*
X131000763Y-96571899D01*
X131150651Y-96793783D01*
X131340947Y-96982162D01*
X131564337Y-97129796D01*
X131812237Y-97231012D01*
X132075120Y-97281920D01*
X132350120Y-97281920D01*
X132350120Y-96048920D01*
X132604120Y-96048920D01*
X132604120Y-97281920D01*
X132879120Y-97281920D01*
X133142003Y-97231012D01*
X133389903Y-97129796D01*
X133613293Y-96982162D01*
X133803589Y-96793783D01*
X133953477Y-96571899D01*
X134057198Y-96325037D01*
X134069639Y-96259178D01*
X133946638Y-96048920D01*
X132604120Y-96048920D01*
X132350120Y-96048920D01*
X131007602Y-96048920D01*
X130884601Y-96259178D01*
X130086047Y-96259178D01*
X130045670Y-96198920D01*
X128804120Y-96198920D01*
X128550120Y-96198920D01*
X128530120Y-96198920D01*
X128530120Y-95944920D01*
X128550120Y-95944920D01*
X128550120Y-94861920D01*
X128804120Y-94861920D01*
X128804120Y-95944920D01*
X130045670Y-95944920D01*
X130170755Y-95758243D01*
X130168616Y-95726205D01*
X130078756Y-95505276D01*
X129947522Y-95306123D01*
X129779957Y-95136399D01*
X129582500Y-95002626D01*
X129362739Y-94909946D01*
X129129120Y-94861920D01*
X128804120Y-94861920D01*
X128550120Y-94861920D01*
X128225120Y-94861920D01*
X128123078Y-94882897D01*
X128128088Y-89511973D01*
X128225120Y-89531920D01*
X128550120Y-89531920D01*
X128550120Y-88448920D01*
X128804120Y-88448920D01*
X128804120Y-89531920D01*
X129129120Y-89531920D01*
X129362739Y-89483894D01*
X129582500Y-89391214D01*
X129779957Y-89257441D01*
X129947522Y-89087717D01*
X130078756Y-88888564D01*
X130168616Y-88667635D01*
X130170755Y-88635597D01*
X130045670Y-88448920D01*
X128804120Y-88448920D01*
X128550120Y-88448920D01*
X128530120Y-88448920D01*
X128530120Y-88194920D01*
X128550120Y-88194920D01*
X128550120Y-87111920D01*
X128225120Y-87111920D01*
X128130309Y-87131411D01*
X128136360Y-80645000D01*
X133971928Y-80645000D01*
X133971928Y-82345000D01*
X133984188Y-82469482D01*
X134020498Y-82589180D01*
X134079463Y-82699494D01*
X134158815Y-82796185D01*
X134255506Y-82875537D01*
X134365820Y-82934502D01*
X134485518Y-82970812D01*
X134555000Y-82977655D01*
X134555001Y-84319155D01*
X134519538Y-84354618D01*
X134389854Y-84548704D01*
X134300527Y-84764360D01*
X134254988Y-84993300D01*
X134254988Y-85226724D01*
X134300527Y-85455664D01*
X134389854Y-85671320D01*
X134519538Y-85865406D01*
X134684594Y-86030462D01*
X134878680Y-86160146D01*
X135094336Y-86249473D01*
X135323276Y-86295012D01*
X135556700Y-86295012D01*
X135785640Y-86249473D01*
X136001296Y-86160146D01*
X136195382Y-86030462D01*
X136360438Y-85865406D01*
X136490122Y-85671320D01*
X136579449Y-85455664D01*
X136624988Y-85226724D01*
X136624988Y-84993300D01*
X136579449Y-84764360D01*
X136490122Y-84548704D01*
X136360438Y-84354618D01*
X136325000Y-84319180D01*
X136325000Y-82981595D01*
X136434482Y-82970812D01*
X136554180Y-82934502D01*
X136664494Y-82875537D01*
X136761185Y-82796185D01*
X136840537Y-82699494D01*
X136899502Y-82589180D01*
X136935812Y-82469482D01*
X136948072Y-82345000D01*
X136948072Y-80645000D01*
X136935812Y-80520518D01*
X136899502Y-80400820D01*
X136840537Y-80290506D01*
X136761185Y-80193815D01*
X136664494Y-80114463D01*
X136554180Y-80055498D01*
X136473534Y-80031034D01*
X136557588Y-79955269D01*
X136731641Y-79721920D01*
X136856825Y-79459099D01*
X136901476Y-79311890D01*
X136780155Y-79082000D01*
X135587000Y-79082000D01*
X135587000Y-79102000D01*
X135333000Y-79102000D01*
X135333000Y-79082000D01*
X134139845Y-79082000D01*
X134018524Y-79311890D01*
X134063175Y-79459099D01*
X134188359Y-79721920D01*
X134362412Y-79955269D01*
X134446466Y-80031034D01*
X134365820Y-80055498D01*
X134255506Y-80114463D01*
X134158815Y-80193815D01*
X134079463Y-80290506D01*
X134020498Y-80400820D01*
X133984188Y-80520518D01*
X133971928Y-80645000D01*
X128136360Y-80645000D01*
X128138269Y-78598110D01*
X134018524Y-78598110D01*
X134139845Y-78828000D01*
X135333000Y-78828000D01*
X135333000Y-77634186D01*
X135587000Y-77634186D01*
X135587000Y-78828000D01*
X136780155Y-78828000D01*
X136901476Y-78598110D01*
X136856825Y-78450901D01*
X136731641Y-78188080D01*
X136557588Y-77954731D01*
X136341355Y-77759822D01*
X136091252Y-77610843D01*
X135816891Y-77513519D01*
X135587000Y-77634186D01*
X135333000Y-77634186D01*
X135103109Y-77513519D01*
X134828748Y-77610843D01*
X134578645Y-77759822D01*
X134362412Y-77954731D01*
X134188359Y-78188080D01*
X134063175Y-78450901D01*
X134018524Y-78598110D01*
X128138269Y-78598110D01*
X128139326Y-77466025D01*
X128489087Y-77699728D01*
X128950428Y-77890822D01*
X129440184Y-77988240D01*
X129939536Y-77988240D01*
X130429292Y-77890822D01*
X130890633Y-77699728D01*
X131305828Y-77422303D01*
X131658923Y-77069208D01*
X131936348Y-76654013D01*
X132127442Y-76192672D01*
X132224860Y-75702916D01*
X132224860Y-75203564D01*
X132127442Y-74713808D01*
X131936348Y-74252467D01*
X131707190Y-73909509D01*
X133603969Y-73908120D01*
X166086171Y-73949583D01*
G37*
%TD.AperFunction*%
D30*
X167846720Y-115677456D02*
X167846721Y-115677466D01*
X167846720Y-118001701D01*
X164973422Y-120875000D01*
X163616047Y-120875000D01*
X163547962Y-120792038D01*
X163454091Y-120715000D01*
X163547962Y-120637962D01*
X163658405Y-120503387D01*
X163740472Y-120349851D01*
X163791008Y-120183255D01*
X163808072Y-120010001D01*
X163808072Y-119359999D01*
X163791008Y-119186745D01*
X163740472Y-119020149D01*
X163658405Y-118866613D01*
X163547962Y-118732038D01*
X163541406Y-118726658D01*
X163621185Y-118661185D01*
X163700537Y-118564494D01*
X163759502Y-118454180D01*
X163795812Y-118334482D01*
X163808072Y-118210000D01*
X163805000Y-117920750D01*
X163646250Y-117762000D01*
X162597000Y-117762000D01*
X162597000Y-117782000D01*
X162343000Y-117782000D01*
X162343000Y-117762000D01*
X162323000Y-117762000D01*
X162323000Y-117508000D01*
X162343000Y-117508000D01*
X162343000Y-117488000D01*
X162597000Y-117488000D01*
X162597000Y-117508000D01*
X163646250Y-117508000D01*
X163805000Y-117349250D01*
X163808072Y-117060000D01*
X163795812Y-116935518D01*
X163759502Y-116815820D01*
X163700537Y-116705506D01*
X163621185Y-116608815D01*
X163552493Y-116552441D01*
X163603737Y-116490000D01*
X165281531Y-116490000D01*
X165325000Y-116494281D01*
X165368469Y-116490000D01*
X165368477Y-116490000D01*
X165498490Y-116477195D01*
X165665313Y-116426589D01*
X165819059Y-116344411D01*
X165953817Y-116233817D01*
X165981534Y-116200044D01*
X167846720Y-114334858D01*
X167846720Y-115677456D01*
%TA.AperFunction,Conductor*%
D31*
G36*
X167846720Y-115677456D02*
G01*
X167846721Y-115677466D01*
X167846720Y-118001701D01*
X164973422Y-120875000D01*
X163616047Y-120875000D01*
X163547962Y-120792038D01*
X163454091Y-120715000D01*
X163547962Y-120637962D01*
X163658405Y-120503387D01*
X163740472Y-120349851D01*
X163791008Y-120183255D01*
X163808072Y-120010001D01*
X163808072Y-119359999D01*
X163791008Y-119186745D01*
X163740472Y-119020149D01*
X163658405Y-118866613D01*
X163547962Y-118732038D01*
X163541406Y-118726658D01*
X163621185Y-118661185D01*
X163700537Y-118564494D01*
X163759502Y-118454180D01*
X163795812Y-118334482D01*
X163808072Y-118210000D01*
X163805000Y-117920750D01*
X163646250Y-117762000D01*
X162597000Y-117762000D01*
X162597000Y-117782000D01*
X162343000Y-117782000D01*
X162343000Y-117762000D01*
X162323000Y-117762000D01*
X162323000Y-117508000D01*
X162343000Y-117508000D01*
X162343000Y-117488000D01*
X162597000Y-117488000D01*
X162597000Y-117508000D01*
X163646250Y-117508000D01*
X163805000Y-117349250D01*
X163808072Y-117060000D01*
X163795812Y-116935518D01*
X163759502Y-116815820D01*
X163700537Y-116705506D01*
X163621185Y-116608815D01*
X163552493Y-116552441D01*
X163603737Y-116490000D01*
X165281531Y-116490000D01*
X165325000Y-116494281D01*
X165368469Y-116490000D01*
X165368477Y-116490000D01*
X165498490Y-116477195D01*
X165665313Y-116426589D01*
X165819059Y-116344411D01*
X165953817Y-116233817D01*
X165981534Y-116200044D01*
X167846720Y-114334858D01*
X167846720Y-115677456D01*
G37*
%TD.AperFunction*%
D30*
X167846720Y-111831701D02*
X164958422Y-114720000D01*
X163603737Y-114720000D01*
X163547962Y-114652038D01*
X163460184Y-114580000D01*
X163547962Y-114507962D01*
X163658405Y-114373387D01*
X163740472Y-114219851D01*
X163791008Y-114053255D01*
X163808072Y-113880001D01*
X163808072Y-113229999D01*
X163791008Y-113056745D01*
X163740472Y-112890149D01*
X163711069Y-112835141D01*
X163801185Y-112761185D01*
X163880537Y-112664494D01*
X163939502Y-112554180D01*
X163975812Y-112434482D01*
X163988072Y-112310000D01*
X163988072Y-111010000D01*
X163975812Y-110885518D01*
X163939502Y-110765820D01*
X163880537Y-110655506D01*
X163801185Y-110558815D01*
X163704494Y-110479463D01*
X163594180Y-110420498D01*
X163474482Y-110384188D01*
X163350000Y-110371928D01*
X163335907Y-110371928D01*
X163417205Y-110250256D01*
X163495226Y-110061898D01*
X163535000Y-109861939D01*
X163535000Y-109658061D01*
X163495226Y-109458102D01*
X163417205Y-109269744D01*
X163335855Y-109147995D01*
X163350000Y-109148072D01*
X163474482Y-109135812D01*
X163594180Y-109099502D01*
X163704494Y-109040537D01*
X163801185Y-108961185D01*
X163880537Y-108864494D01*
X163939502Y-108754180D01*
X163975812Y-108634482D01*
X163988072Y-108510000D01*
X163985000Y-108145750D01*
X163826250Y-107987000D01*
X162627000Y-107987000D01*
X162627000Y-108007000D01*
X162373000Y-108007000D01*
X162373000Y-107987000D01*
X162353000Y-107987000D01*
X162353000Y-107733000D01*
X162373000Y-107733000D01*
X162373000Y-106733750D01*
X162627000Y-106733750D01*
X162627000Y-107733000D01*
X163826250Y-107733000D01*
X163985000Y-107574250D01*
X163988072Y-107210000D01*
X163975812Y-107085518D01*
X163939502Y-106965820D01*
X163880537Y-106855506D01*
X163801185Y-106758815D01*
X163704494Y-106679463D01*
X163594180Y-106620498D01*
X163474482Y-106584188D01*
X163350000Y-106571928D01*
X162785750Y-106575000D01*
X162627000Y-106733750D01*
X162373000Y-106733750D01*
X162214250Y-106575000D01*
X161650000Y-106571928D01*
X161604824Y-106576377D01*
X162321202Y-105860000D01*
X162466287Y-105860000D01*
X162510224Y-105903937D01*
X162679742Y-106017205D01*
X162868100Y-106095226D01*
X163068059Y-106135000D01*
X163271937Y-106135000D01*
X163471896Y-106095226D01*
X163660254Y-106017205D01*
X163829772Y-105903937D01*
X163973935Y-105759774D01*
X164087203Y-105590256D01*
X164165224Y-105401898D01*
X164204998Y-105201939D01*
X164204998Y-105130000D01*
X165180658Y-105130000D01*
X165217980Y-105133676D01*
X165255302Y-105130000D01*
X165255313Y-105130000D01*
X165366966Y-105119003D01*
X165510227Y-105075546D01*
X165642256Y-105004974D01*
X165757981Y-104910001D01*
X165781784Y-104880997D01*
X167377782Y-103285000D01*
X167526260Y-103285000D01*
X167813158Y-103227932D01*
X167846721Y-103214030D01*
X167846720Y-111831701D01*
%TA.AperFunction,Conductor*%
D31*
G36*
X167846720Y-111831701D02*
G01*
X164958422Y-114720000D01*
X163603737Y-114720000D01*
X163547962Y-114652038D01*
X163460184Y-114580000D01*
X163547962Y-114507962D01*
X163658405Y-114373387D01*
X163740472Y-114219851D01*
X163791008Y-114053255D01*
X163808072Y-113880001D01*
X163808072Y-113229999D01*
X163791008Y-113056745D01*
X163740472Y-112890149D01*
X163711069Y-112835141D01*
X163801185Y-112761185D01*
X163880537Y-112664494D01*
X163939502Y-112554180D01*
X163975812Y-112434482D01*
X163988072Y-112310000D01*
X163988072Y-111010000D01*
X163975812Y-110885518D01*
X163939502Y-110765820D01*
X163880537Y-110655506D01*
X163801185Y-110558815D01*
X163704494Y-110479463D01*
X163594180Y-110420498D01*
X163474482Y-110384188D01*
X163350000Y-110371928D01*
X163335907Y-110371928D01*
X163417205Y-110250256D01*
X163495226Y-110061898D01*
X163535000Y-109861939D01*
X163535000Y-109658061D01*
X163495226Y-109458102D01*
X163417205Y-109269744D01*
X163335855Y-109147995D01*
X163350000Y-109148072D01*
X163474482Y-109135812D01*
X163594180Y-109099502D01*
X163704494Y-109040537D01*
X163801185Y-108961185D01*
X163880537Y-108864494D01*
X163939502Y-108754180D01*
X163975812Y-108634482D01*
X163988072Y-108510000D01*
X163985000Y-108145750D01*
X163826250Y-107987000D01*
X162627000Y-107987000D01*
X162627000Y-108007000D01*
X162373000Y-108007000D01*
X162373000Y-107987000D01*
X162353000Y-107987000D01*
X162353000Y-107733000D01*
X162373000Y-107733000D01*
X162373000Y-106733750D01*
X162627000Y-106733750D01*
X162627000Y-107733000D01*
X163826250Y-107733000D01*
X163985000Y-107574250D01*
X163988072Y-107210000D01*
X163975812Y-107085518D01*
X163939502Y-106965820D01*
X163880537Y-106855506D01*
X163801185Y-106758815D01*
X163704494Y-106679463D01*
X163594180Y-106620498D01*
X163474482Y-106584188D01*
X163350000Y-106571928D01*
X162785750Y-106575000D01*
X162627000Y-106733750D01*
X162373000Y-106733750D01*
X162214250Y-106575000D01*
X161650000Y-106571928D01*
X161604824Y-106576377D01*
X162321202Y-105860000D01*
X162466287Y-105860000D01*
X162510224Y-105903937D01*
X162679742Y-106017205D01*
X162868100Y-106095226D01*
X163068059Y-106135000D01*
X163271937Y-106135000D01*
X163471896Y-106095226D01*
X163660254Y-106017205D01*
X163829772Y-105903937D01*
X163973935Y-105759774D01*
X164087203Y-105590256D01*
X164165224Y-105401898D01*
X164204998Y-105201939D01*
X164204998Y-105130000D01*
X165180658Y-105130000D01*
X165217980Y-105133676D01*
X165255302Y-105130000D01*
X165255313Y-105130000D01*
X165366966Y-105119003D01*
X165510227Y-105075546D01*
X165642256Y-105004974D01*
X165757981Y-104910001D01*
X165781784Y-104880997D01*
X167377782Y-103285000D01*
X167526260Y-103285000D01*
X167813158Y-103227932D01*
X167846721Y-103214030D01*
X167846720Y-111831701D01*
G37*
%TD.AperFunction*%
D30*
X132851295Y-108347767D02*
X132961738Y-108482342D01*
X133096313Y-108592785D01*
X133249849Y-108674852D01*
X133416445Y-108725388D01*
X133589699Y-108742452D01*
X133938275Y-108742452D01*
X133845820Y-108770498D01*
X133735506Y-108829463D01*
X133638815Y-108908815D01*
X133559463Y-109005506D01*
X133500498Y-109115820D01*
X133464188Y-109235518D01*
X133451928Y-109360000D01*
X133455000Y-109924250D01*
X133613750Y-110083000D01*
X134813000Y-110083000D01*
X134813000Y-108883750D01*
X134654250Y-108725000D01*
X134418466Y-108723716D01*
X134579551Y-108674852D01*
X134733087Y-108592785D01*
X134867662Y-108482342D01*
X134873042Y-108475786D01*
X134938515Y-108555565D01*
X135035206Y-108634917D01*
X135145520Y-108693882D01*
X135247708Y-108724880D01*
X135225750Y-108725000D01*
X135067000Y-108883750D01*
X135067000Y-110083000D01*
X135087000Y-110083000D01*
X135087000Y-110337000D01*
X135067000Y-110337000D01*
X135067000Y-110357000D01*
X134813000Y-110357000D01*
X134813000Y-110337000D01*
X133613750Y-110337000D01*
X133455000Y-110495750D01*
X133451928Y-111060000D01*
X133464188Y-111184482D01*
X133500498Y-111304180D01*
X133559463Y-111414494D01*
X133638815Y-111511185D01*
X133735506Y-111590537D01*
X133845820Y-111649502D01*
X133918380Y-111671513D01*
X133786525Y-111803368D01*
X133695230Y-111940000D01*
X133304802Y-111940000D01*
X132845000Y-111480199D01*
X132845000Y-108335990D01*
X132851295Y-108347767D01*
%TA.AperFunction,Conductor*%
D31*
G36*
X132851295Y-108347767D02*
G01*
X132961738Y-108482342D01*
X133096313Y-108592785D01*
X133249849Y-108674852D01*
X133416445Y-108725388D01*
X133589699Y-108742452D01*
X133938275Y-108742452D01*
X133845820Y-108770498D01*
X133735506Y-108829463D01*
X133638815Y-108908815D01*
X133559463Y-109005506D01*
X133500498Y-109115820D01*
X133464188Y-109235518D01*
X133451928Y-109360000D01*
X133455000Y-109924250D01*
X133613750Y-110083000D01*
X134813000Y-110083000D01*
X134813000Y-108883750D01*
X134654250Y-108725000D01*
X134418466Y-108723716D01*
X134579551Y-108674852D01*
X134733087Y-108592785D01*
X134867662Y-108482342D01*
X134873042Y-108475786D01*
X134938515Y-108555565D01*
X135035206Y-108634917D01*
X135145520Y-108693882D01*
X135247708Y-108724880D01*
X135225750Y-108725000D01*
X135067000Y-108883750D01*
X135067000Y-110083000D01*
X135087000Y-110083000D01*
X135087000Y-110337000D01*
X135067000Y-110337000D01*
X135067000Y-110357000D01*
X134813000Y-110357000D01*
X134813000Y-110337000D01*
X133613750Y-110337000D01*
X133455000Y-110495750D01*
X133451928Y-111060000D01*
X133464188Y-111184482D01*
X133500498Y-111304180D01*
X133559463Y-111414494D01*
X133638815Y-111511185D01*
X133735506Y-111590537D01*
X133845820Y-111649502D01*
X133918380Y-111671513D01*
X133786525Y-111803368D01*
X133695230Y-111940000D01*
X133304802Y-111940000D01*
X132845000Y-111480199D01*
X132845000Y-108335990D01*
X132851295Y-108347767D01*
G37*
%TD.AperFunction*%
D30*
X138842127Y-106256928D02*
X138530000Y-106256928D01*
X138405518Y-106269188D01*
X138285820Y-106305498D01*
X138175506Y-106364463D01*
X138078815Y-106443815D01*
X137999463Y-106540506D01*
X137940498Y-106650820D01*
X137908103Y-106757613D01*
X137781984Y-106825026D01*
X137666259Y-106919999D01*
X137642461Y-106948997D01*
X137038014Y-107553444D01*
X137015950Y-107531380D01*
X136091700Y-107531380D01*
X136091700Y-108580630D01*
X136140760Y-108629690D01*
X136130861Y-108730192D01*
X136126324Y-108776260D01*
X136130001Y-108813592D01*
X136130001Y-108821716D01*
X136034180Y-108770498D01*
X135914482Y-108734188D01*
X135790000Y-108721928D01*
X135695890Y-108722440D01*
X135837700Y-108580630D01*
X135837700Y-107531380D01*
X135817700Y-107531380D01*
X135817700Y-107277380D01*
X135837700Y-107277380D01*
X135837700Y-107257380D01*
X136091700Y-107257380D01*
X136091700Y-107277380D01*
X137015950Y-107277380D01*
X137174700Y-107118630D01*
X137177772Y-106704380D01*
X137165512Y-106579898D01*
X137129202Y-106460200D01*
X137070237Y-106349886D01*
X137056617Y-106333290D01*
X137109592Y-106234180D01*
X138819379Y-106234180D01*
X138842127Y-106256928D01*
%TA.AperFunction,Conductor*%
D31*
G36*
X138842127Y-106256928D02*
G01*
X138530000Y-106256928D01*
X138405518Y-106269188D01*
X138285820Y-106305498D01*
X138175506Y-106364463D01*
X138078815Y-106443815D01*
X137999463Y-106540506D01*
X137940498Y-106650820D01*
X137908103Y-106757613D01*
X137781984Y-106825026D01*
X137666259Y-106919999D01*
X137642461Y-106948997D01*
X137038014Y-107553444D01*
X137015950Y-107531380D01*
X136091700Y-107531380D01*
X136091700Y-108580630D01*
X136140760Y-108629690D01*
X136130861Y-108730192D01*
X136126324Y-108776260D01*
X136130001Y-108813592D01*
X136130001Y-108821716D01*
X136034180Y-108770498D01*
X135914482Y-108734188D01*
X135790000Y-108721928D01*
X135695890Y-108722440D01*
X135837700Y-108580630D01*
X135837700Y-107531380D01*
X135817700Y-107531380D01*
X135817700Y-107277380D01*
X135837700Y-107277380D01*
X135837700Y-107257380D01*
X136091700Y-107257380D01*
X136091700Y-107277380D01*
X137015950Y-107277380D01*
X137174700Y-107118630D01*
X137177772Y-106704380D01*
X137165512Y-106579898D01*
X137129202Y-106460200D01*
X137070237Y-106349886D01*
X137056617Y-106333290D01*
X137109592Y-106234180D01*
X138819379Y-106234180D01*
X138842127Y-106256928D01*
G37*
%TD.AperFunction*%
D30*
X158002955Y-89333384D02*
X157924934Y-89521742D01*
X157885160Y-89721701D01*
X157885160Y-89925579D01*
X157924934Y-90125538D01*
X158002955Y-90313896D01*
X158116223Y-90483414D01*
X158260386Y-90627577D01*
X158429904Y-90740845D01*
X158618262Y-90818866D01*
X158818221Y-90858640D01*
X159022099Y-90858640D01*
X159222058Y-90818866D01*
X159279675Y-90795000D01*
X161008691Y-90795000D01*
X161052160Y-90799281D01*
X161095629Y-90795000D01*
X161095637Y-90795000D01*
X161225650Y-90782195D01*
X161392473Y-90731589D01*
X161546219Y-90649411D01*
X161680977Y-90538817D01*
X161708694Y-90505044D01*
X162185045Y-90028693D01*
X162218817Y-90000977D01*
X162329411Y-89866219D01*
X162368851Y-89792431D01*
X162411589Y-89712474D01*
X162451599Y-89580580D01*
X162502627Y-89553305D01*
X162637202Y-89442862D01*
X162692977Y-89374900D01*
X162992745Y-89374900D01*
X162998478Y-89393800D01*
X163057443Y-89504114D01*
X163136795Y-89600805D01*
X163233486Y-89680157D01*
X163343800Y-89739122D01*
X163463498Y-89775432D01*
X163587980Y-89787692D01*
X164587980Y-89787692D01*
X164713116Y-89775301D01*
X164738044Y-89767711D01*
X164763498Y-89775432D01*
X164887980Y-89787692D01*
X166037980Y-89787692D01*
X166162462Y-89775432D01*
X166282160Y-89739122D01*
X166392474Y-89680157D01*
X166476951Y-89610829D01*
X167846720Y-90980599D01*
X167846720Y-91106484D01*
X167846721Y-99072022D01*
X167762010Y-99046325D01*
X167631997Y-99033520D01*
X167631989Y-99033520D01*
X167588520Y-99029239D01*
X167545051Y-99033520D01*
X166991989Y-99033520D01*
X166948520Y-99029239D01*
X166905051Y-99033520D01*
X160543902Y-99033520D01*
X160888564Y-98688858D01*
X160917561Y-98665061D01*
X161012534Y-98549336D01*
X161083106Y-98417307D01*
X161126563Y-98274046D01*
X161137560Y-98162393D01*
X161137560Y-98162383D01*
X161141236Y-98125060D01*
X161137560Y-98087737D01*
X161137560Y-97941520D01*
X161143387Y-97938405D01*
X161277962Y-97827962D01*
X161350000Y-97740184D01*
X161422038Y-97827962D01*
X161556613Y-97938405D01*
X161710149Y-98020472D01*
X161876745Y-98071008D01*
X162049999Y-98088072D01*
X162700001Y-98088072D01*
X162873255Y-98071008D01*
X163039851Y-98020472D01*
X163193387Y-97938405D01*
X163327962Y-97827962D01*
X163438405Y-97693387D01*
X163520472Y-97539851D01*
X163571008Y-97373255D01*
X163588072Y-97200001D01*
X163588072Y-96299999D01*
X163571008Y-96126745D01*
X163520472Y-95960149D01*
X163438405Y-95806613D01*
X163327962Y-95672038D01*
X163311109Y-95658207D01*
X163347962Y-95627962D01*
X163458405Y-95493387D01*
X163540472Y-95339851D01*
X163591008Y-95173255D01*
X163608072Y-95000001D01*
X163608072Y-94099999D01*
X163591008Y-93926745D01*
X163540472Y-93760149D01*
X163458405Y-93606613D01*
X163347962Y-93472038D01*
X163213387Y-93361595D01*
X163059851Y-93279528D01*
X162893255Y-93228992D01*
X162720001Y-93211928D01*
X162069999Y-93211928D01*
X161896745Y-93228992D01*
X161730149Y-93279528D01*
X161576613Y-93361595D01*
X161442038Y-93472038D01*
X161436658Y-93478594D01*
X161371185Y-93398815D01*
X161274494Y-93319463D01*
X161164180Y-93260498D01*
X161044482Y-93224188D01*
X160920000Y-93211928D01*
X160630750Y-93215000D01*
X160472000Y-93373750D01*
X160472000Y-94423000D01*
X160492000Y-94423000D01*
X160492000Y-94677000D01*
X160472000Y-94677000D01*
X160472000Y-94697000D01*
X160218000Y-94697000D01*
X160218000Y-94677000D01*
X159293750Y-94677000D01*
X159135000Y-94835750D01*
X159131928Y-95250000D01*
X159144188Y-95374482D01*
X159180498Y-95494180D01*
X159239463Y-95604494D01*
X159318815Y-95701185D01*
X159336325Y-95715555D01*
X159261595Y-95806613D01*
X159179528Y-95960149D01*
X159128992Y-96126745D01*
X159111928Y-96299999D01*
X159111928Y-97200001D01*
X159128992Y-97373255D01*
X159179528Y-97539851D01*
X159261595Y-97693387D01*
X159372038Y-97827962D01*
X159497166Y-97930652D01*
X159252279Y-98175540D01*
X155318940Y-98175540D01*
X155318940Y-97952163D01*
X155363387Y-97928405D01*
X155497962Y-97817962D01*
X155570000Y-97730184D01*
X155642038Y-97817962D01*
X155776613Y-97928405D01*
X155930149Y-98010472D01*
X156096745Y-98061008D01*
X156269999Y-98078072D01*
X156920001Y-98078072D01*
X157093255Y-98061008D01*
X157259851Y-98010472D01*
X157413387Y-97928405D01*
X157547962Y-97817962D01*
X157658405Y-97683387D01*
X157740472Y-97529851D01*
X157791008Y-97363255D01*
X157808072Y-97190001D01*
X157808072Y-96289999D01*
X157791008Y-96116745D01*
X157740472Y-95950149D01*
X157658405Y-95796613D01*
X157547962Y-95662038D01*
X157533294Y-95650000D01*
X157547962Y-95637962D01*
X157658405Y-95503387D01*
X157740472Y-95349851D01*
X157791008Y-95183255D01*
X157808072Y-95010001D01*
X157808072Y-94109999D01*
X157791008Y-93936745D01*
X157764695Y-93850000D01*
X159131928Y-93850000D01*
X159135000Y-94264250D01*
X159293750Y-94423000D01*
X160218000Y-94423000D01*
X160218000Y-93373750D01*
X160059250Y-93215000D01*
X159770000Y-93211928D01*
X159645518Y-93224188D01*
X159525820Y-93260498D01*
X159415506Y-93319463D01*
X159318815Y-93398815D01*
X159239463Y-93495506D01*
X159180498Y-93605820D01*
X159144188Y-93725518D01*
X159131928Y-93850000D01*
X157764695Y-93850000D01*
X157740472Y-93770149D01*
X157658405Y-93616613D01*
X157547962Y-93482038D01*
X157413387Y-93371595D01*
X157259851Y-93289528D01*
X157093255Y-93238992D01*
X156920001Y-93221928D01*
X156269999Y-93221928D01*
X156096745Y-93238992D01*
X155930149Y-93289528D01*
X155776613Y-93371595D01*
X155642038Y-93482038D01*
X155570000Y-93569816D01*
X155497962Y-93482038D01*
X155363387Y-93371595D01*
X155209851Y-93289528D01*
X155043255Y-93238992D01*
X154870001Y-93221928D01*
X154219999Y-93221928D01*
X154046745Y-93238992D01*
X153880149Y-93289528D01*
X153726613Y-93371595D01*
X153592038Y-93482038D01*
X153588196Y-93486720D01*
X152855000Y-93486720D01*
X152855000Y-92913500D01*
X152858280Y-92880197D01*
X152858280Y-92880189D01*
X152862561Y-92836720D01*
X152858280Y-92793251D01*
X152858280Y-91945749D01*
X152858452Y-91944000D01*
X155628051Y-91944000D01*
X155671520Y-91948281D01*
X155714989Y-91944000D01*
X155714997Y-91944000D01*
X155845010Y-91931195D01*
X156011833Y-91880589D01*
X156165579Y-91798411D01*
X156300337Y-91687817D01*
X156328054Y-91654044D01*
X157478830Y-90503269D01*
X157512597Y-90475557D01*
X157541343Y-90440531D01*
X157623191Y-90340799D01*
X157705369Y-90187054D01*
X157755975Y-90020230D01*
X157758084Y-89998818D01*
X157768780Y-89890217D01*
X157768780Y-89890209D01*
X157773061Y-89846740D01*
X157768780Y-89803271D01*
X157768780Y-89417051D01*
X157788262Y-89415132D01*
X157907960Y-89378822D01*
X158008504Y-89325079D01*
X158002955Y-89333384D01*
%TA.AperFunction,Conductor*%
D31*
G36*
X158002955Y-89333384D02*
G01*
X157924934Y-89521742D01*
X157885160Y-89721701D01*
X157885160Y-89925579D01*
X157924934Y-90125538D01*
X158002955Y-90313896D01*
X158116223Y-90483414D01*
X158260386Y-90627577D01*
X158429904Y-90740845D01*
X158618262Y-90818866D01*
X158818221Y-90858640D01*
X159022099Y-90858640D01*
X159222058Y-90818866D01*
X159279675Y-90795000D01*
X161008691Y-90795000D01*
X161052160Y-90799281D01*
X161095629Y-90795000D01*
X161095637Y-90795000D01*
X161225650Y-90782195D01*
X161392473Y-90731589D01*
X161546219Y-90649411D01*
X161680977Y-90538817D01*
X161708694Y-90505044D01*
X162185045Y-90028693D01*
X162218817Y-90000977D01*
X162329411Y-89866219D01*
X162368851Y-89792431D01*
X162411589Y-89712474D01*
X162451599Y-89580580D01*
X162502627Y-89553305D01*
X162637202Y-89442862D01*
X162692977Y-89374900D01*
X162992745Y-89374900D01*
X162998478Y-89393800D01*
X163057443Y-89504114D01*
X163136795Y-89600805D01*
X163233486Y-89680157D01*
X163343800Y-89739122D01*
X163463498Y-89775432D01*
X163587980Y-89787692D01*
X164587980Y-89787692D01*
X164713116Y-89775301D01*
X164738044Y-89767711D01*
X164763498Y-89775432D01*
X164887980Y-89787692D01*
X166037980Y-89787692D01*
X166162462Y-89775432D01*
X166282160Y-89739122D01*
X166392474Y-89680157D01*
X166476951Y-89610829D01*
X167846720Y-90980599D01*
X167846720Y-91106484D01*
X167846721Y-99072022D01*
X167762010Y-99046325D01*
X167631997Y-99033520D01*
X167631989Y-99033520D01*
X167588520Y-99029239D01*
X167545051Y-99033520D01*
X166991989Y-99033520D01*
X166948520Y-99029239D01*
X166905051Y-99033520D01*
X160543902Y-99033520D01*
X160888564Y-98688858D01*
X160917561Y-98665061D01*
X161012534Y-98549336D01*
X161083106Y-98417307D01*
X161126563Y-98274046D01*
X161137560Y-98162393D01*
X161137560Y-98162383D01*
X161141236Y-98125060D01*
X161137560Y-98087737D01*
X161137560Y-97941520D01*
X161143387Y-97938405D01*
X161277962Y-97827962D01*
X161350000Y-97740184D01*
X161422038Y-97827962D01*
X161556613Y-97938405D01*
X161710149Y-98020472D01*
X161876745Y-98071008D01*
X162049999Y-98088072D01*
X162700001Y-98088072D01*
X162873255Y-98071008D01*
X163039851Y-98020472D01*
X163193387Y-97938405D01*
X163327962Y-97827962D01*
X163438405Y-97693387D01*
X163520472Y-97539851D01*
X163571008Y-97373255D01*
X163588072Y-97200001D01*
X163588072Y-96299999D01*
X163571008Y-96126745D01*
X163520472Y-95960149D01*
X163438405Y-95806613D01*
X163327962Y-95672038D01*
X163311109Y-95658207D01*
X163347962Y-95627962D01*
X163458405Y-95493387D01*
X163540472Y-95339851D01*
X163591008Y-95173255D01*
X163608072Y-95000001D01*
X163608072Y-94099999D01*
X163591008Y-93926745D01*
X163540472Y-93760149D01*
X163458405Y-93606613D01*
X163347962Y-93472038D01*
X163213387Y-93361595D01*
X163059851Y-93279528D01*
X162893255Y-93228992D01*
X162720001Y-93211928D01*
X162069999Y-93211928D01*
X161896745Y-93228992D01*
X161730149Y-93279528D01*
X161576613Y-93361595D01*
X161442038Y-93472038D01*
X161436658Y-93478594D01*
X161371185Y-93398815D01*
X161274494Y-93319463D01*
X161164180Y-93260498D01*
X161044482Y-93224188D01*
X160920000Y-93211928D01*
X160630750Y-93215000D01*
X160472000Y-93373750D01*
X160472000Y-94423000D01*
X160492000Y-94423000D01*
X160492000Y-94677000D01*
X160472000Y-94677000D01*
X160472000Y-94697000D01*
X160218000Y-94697000D01*
X160218000Y-94677000D01*
X159293750Y-94677000D01*
X159135000Y-94835750D01*
X159131928Y-95250000D01*
X159144188Y-95374482D01*
X159180498Y-95494180D01*
X159239463Y-95604494D01*
X159318815Y-95701185D01*
X159336325Y-95715555D01*
X159261595Y-95806613D01*
X159179528Y-95960149D01*
X159128992Y-96126745D01*
X159111928Y-96299999D01*
X159111928Y-97200001D01*
X159128992Y-97373255D01*
X159179528Y-97539851D01*
X159261595Y-97693387D01*
X159372038Y-97827962D01*
X159497166Y-97930652D01*
X159252279Y-98175540D01*
X155318940Y-98175540D01*
X155318940Y-97952163D01*
X155363387Y-97928405D01*
X155497962Y-97817962D01*
X155570000Y-97730184D01*
X155642038Y-97817962D01*
X155776613Y-97928405D01*
X155930149Y-98010472D01*
X156096745Y-98061008D01*
X156269999Y-98078072D01*
X156920001Y-98078072D01*
X157093255Y-98061008D01*
X157259851Y-98010472D01*
X157413387Y-97928405D01*
X157547962Y-97817962D01*
X157658405Y-97683387D01*
X157740472Y-97529851D01*
X157791008Y-97363255D01*
X157808072Y-97190001D01*
X157808072Y-96289999D01*
X157791008Y-96116745D01*
X157740472Y-95950149D01*
X157658405Y-95796613D01*
X157547962Y-95662038D01*
X157533294Y-95650000D01*
X157547962Y-95637962D01*
X157658405Y-95503387D01*
X157740472Y-95349851D01*
X157791008Y-95183255D01*
X157808072Y-95010001D01*
X157808072Y-94109999D01*
X157791008Y-93936745D01*
X157764695Y-93850000D01*
X159131928Y-93850000D01*
X159135000Y-94264250D01*
X159293750Y-94423000D01*
X160218000Y-94423000D01*
X160218000Y-93373750D01*
X160059250Y-93215000D01*
X159770000Y-93211928D01*
X159645518Y-93224188D01*
X159525820Y-93260498D01*
X159415506Y-93319463D01*
X159318815Y-93398815D01*
X159239463Y-93495506D01*
X159180498Y-93605820D01*
X159144188Y-93725518D01*
X159131928Y-93850000D01*
X157764695Y-93850000D01*
X157740472Y-93770149D01*
X157658405Y-93616613D01*
X157547962Y-93482038D01*
X157413387Y-93371595D01*
X157259851Y-93289528D01*
X157093255Y-93238992D01*
X156920001Y-93221928D01*
X156269999Y-93221928D01*
X156096745Y-93238992D01*
X155930149Y-93289528D01*
X155776613Y-93371595D01*
X155642038Y-93482038D01*
X155570000Y-93569816D01*
X155497962Y-93482038D01*
X155363387Y-93371595D01*
X155209851Y-93289528D01*
X155043255Y-93238992D01*
X154870001Y-93221928D01*
X154219999Y-93221928D01*
X154046745Y-93238992D01*
X153880149Y-93289528D01*
X153726613Y-93371595D01*
X153592038Y-93482038D01*
X153588196Y-93486720D01*
X152855000Y-93486720D01*
X152855000Y-92913500D01*
X152858280Y-92880197D01*
X152858280Y-92880189D01*
X152862561Y-92836720D01*
X152858280Y-92793251D01*
X152858280Y-91945749D01*
X152858452Y-91944000D01*
X155628051Y-91944000D01*
X155671520Y-91948281D01*
X155714989Y-91944000D01*
X155714997Y-91944000D01*
X155845010Y-91931195D01*
X156011833Y-91880589D01*
X156165579Y-91798411D01*
X156300337Y-91687817D01*
X156328054Y-91654044D01*
X157478830Y-90503269D01*
X157512597Y-90475557D01*
X157541343Y-90440531D01*
X157623191Y-90340799D01*
X157705369Y-90187054D01*
X157755975Y-90020230D01*
X157758084Y-89998818D01*
X157768780Y-89890217D01*
X157768780Y-89890209D01*
X157773061Y-89846740D01*
X157768780Y-89803271D01*
X157768780Y-89417051D01*
X157788262Y-89415132D01*
X157907960Y-89378822D01*
X158008504Y-89325079D01*
X158002955Y-89333384D01*
G37*
%TD.AperFunction*%
D30*
X152873243Y-87243814D02*
X152952595Y-87340505D01*
X153049286Y-87419857D01*
X153159600Y-87478822D01*
X153276621Y-87514320D01*
X153159600Y-87549818D01*
X153049286Y-87608783D01*
X152952595Y-87688135D01*
X152873243Y-87784826D01*
X152814278Y-87895140D01*
X152788845Y-87978980D01*
X152755632Y-87869489D01*
X152673565Y-87715953D01*
X152563122Y-87581378D01*
X152556566Y-87575998D01*
X152636345Y-87510525D01*
X152715697Y-87413834D01*
X152774662Y-87303520D01*
X152810972Y-87183822D01*
X152815671Y-87136107D01*
X152873243Y-87243814D01*
%TA.AperFunction,Conductor*%
D31*
G36*
X152873243Y-87243814D02*
G01*
X152952595Y-87340505D01*
X153049286Y-87419857D01*
X153159600Y-87478822D01*
X153276621Y-87514320D01*
X153159600Y-87549818D01*
X153049286Y-87608783D01*
X152952595Y-87688135D01*
X152873243Y-87784826D01*
X152814278Y-87895140D01*
X152788845Y-87978980D01*
X152755632Y-87869489D01*
X152673565Y-87715953D01*
X152563122Y-87581378D01*
X152556566Y-87575998D01*
X152636345Y-87510525D01*
X152715697Y-87413834D01*
X152774662Y-87303520D01*
X152810972Y-87183822D01*
X152815671Y-87136107D01*
X152873243Y-87243814D01*
G37*
%TD.AperFunction*%
%TD*%
M02*
