%TF.GenerationSoftware,KiCad,Pcbnew,(5.1.9)-1*%
%TF.CreationDate,2021-05-12T18:30:48+02:00*%
%TF.ProjectId,clip,636c6970-2e6b-4696-9361-645f70636258,rev?*%
%TF.SameCoordinates,Original*%
%TF.FileFunction,Other,Fab,Top*%
%FSLAX46Y46*%
G04 Gerber Fmt 4.6, Leading zero omitted, Abs format (unit mm)*
G04 Created by KiCad (PCBNEW (5.1.9)-1) date 2021-05-12 18:30:48*
%MOMM*%
%LPD*%
G01*
G04 APERTURE LIST*
%ADD10C,0.100000*%
%ADD11C,0.150000*%
%ADD12C,0.080000*%
%ADD13C,0.075000*%
G04 APERTURE END LIST*
D10*
%TO.C,DL*%
X127125000Y-121480000D02*
X125220000Y-121480000D01*
X125220000Y-121480000D02*
X125220000Y-116400000D01*
X125220000Y-116400000D02*
X127760000Y-116400000D01*
X127760000Y-116400000D02*
X127760000Y-120845000D01*
X127760000Y-120845000D02*
X127125000Y-121480000D01*
%TO.C,PW*%
X172720000Y-120840500D02*
X172085000Y-121475500D01*
X172720000Y-116395500D02*
X172720000Y-120840500D01*
X170180000Y-116395500D02*
X172720000Y-116395500D01*
X170180000Y-121475500D02*
X170180000Y-116395500D01*
X172085000Y-121475500D02*
X170180000Y-121475500D01*
%TO.C,U3*%
X139830000Y-105840000D02*
X139830000Y-131345000D01*
X157830000Y-105840000D02*
X139830000Y-105840000D01*
X157830000Y-131345000D02*
X157830000Y-125620000D01*
X157830000Y-131345000D02*
X139830000Y-131345000D01*
X157830000Y-124620000D02*
X157830000Y-105840000D01*
X157330000Y-125120000D02*
X157830000Y-125620000D01*
X157830000Y-124620000D02*
X157330000Y-125120000D01*
%TO.C,EN*%
X167600000Y-107420000D02*
X167600000Y-110420000D01*
X167600000Y-110420000D02*
X165100000Y-110420000D01*
X165100000Y-110420000D02*
X165100000Y-107420000D01*
X165100000Y-107420000D02*
X167600000Y-107420000D01*
X167100000Y-108920000D02*
G75*
G03*
X167100000Y-108920000I-750000J0D01*
G01*
%TO.C,LIS3DH*%
X149620000Y-92505000D02*
X149620000Y-90600000D01*
X149620000Y-90600000D02*
X169940000Y-90600000D01*
X169940000Y-90600000D02*
X169940000Y-93140000D01*
X169940000Y-93140000D02*
X150255000Y-93140000D01*
X150255000Y-93140000D02*
X149620000Y-92505000D01*
%TO.C,VIN*%
X140645000Y-59860000D02*
X141280000Y-60495000D01*
X136200000Y-59860000D02*
X140645000Y-59860000D01*
X136200000Y-62400000D02*
X136200000Y-59860000D01*
X141280000Y-62400000D02*
X136200000Y-62400000D01*
X141280000Y-60495000D02*
X141280000Y-62400000D01*
%TO.C,FW*%
X141965000Y-98920000D02*
X141330000Y-98285000D01*
X156570000Y-98920000D02*
X141965000Y-98920000D01*
X156570000Y-96380000D02*
X156570000Y-98920000D01*
X141330000Y-96380000D02*
X156570000Y-96380000D01*
X141330000Y-98285000D02*
X141330000Y-96380000D01*
%TO.C,D4*%
X157777800Y-77100000D02*
X157777800Y-75900000D01*
X155777800Y-77100000D02*
X157777800Y-77100000D01*
X155777800Y-76200000D02*
X155777800Y-77100000D01*
X156077800Y-75900000D02*
X155777800Y-76200000D01*
X157777800Y-75900000D02*
X156077800Y-75900000D01*
%TO.C,D2*%
X147200000Y-71150000D02*
X145400000Y-71150000D01*
X145400000Y-71150000D02*
X145400000Y-69750000D01*
X145400000Y-69750000D02*
X147200000Y-69750000D01*
X147200000Y-69750000D02*
X147200000Y-71150000D01*
X146600000Y-70800000D02*
X146600000Y-70100000D01*
X146600000Y-70450000D02*
X146800000Y-70450000D01*
X146600000Y-70450000D02*
X146100000Y-70800000D01*
X146100000Y-70800000D02*
X146100000Y-70100000D01*
X146100000Y-70100000D02*
X146600000Y-70450000D01*
X146100000Y-70450000D02*
X145850000Y-70450000D01*
%TO.C,BME680*%
X127698500Y-92456000D02*
X127698500Y-90551000D01*
X127698500Y-90551000D02*
X145478500Y-90551000D01*
X145478500Y-90551000D02*
X145478500Y-93091000D01*
X145478500Y-93091000D02*
X128333500Y-93091000D01*
X128333500Y-93091000D02*
X127698500Y-92456000D01*
%TO.C,MOISTURE*%
X151700000Y-57110000D02*
X151700000Y-51110000D01*
X151060000Y-51110000D02*
X151700000Y-51110000D01*
X151060000Y-57110000D02*
X151060000Y-51110000D01*
X151700000Y-61470000D02*
X151700000Y-59650000D01*
X151060000Y-61470000D02*
X151700000Y-61470000D01*
X151060000Y-61470000D02*
X151060000Y-59650000D01*
X149160000Y-57110000D02*
X149160000Y-51110000D01*
X148520000Y-51110000D02*
X149160000Y-51110000D01*
X148520000Y-57110000D02*
X148520000Y-51110000D01*
X149160000Y-61470000D02*
X149160000Y-59650000D01*
X148520000Y-61470000D02*
X149160000Y-61470000D01*
X148520000Y-61470000D02*
X148520000Y-59650000D01*
X146620000Y-57110000D02*
X146620000Y-51110000D01*
X145980000Y-51110000D02*
X146620000Y-51110000D01*
X145980000Y-57110000D02*
X145980000Y-51110000D01*
X146620000Y-61470000D02*
X146620000Y-59650000D01*
X145980000Y-61470000D02*
X146620000Y-61470000D01*
X145980000Y-61470000D02*
X145980000Y-59650000D01*
X145665000Y-59650000D02*
X145030000Y-59015000D01*
X152650000Y-59650000D02*
X145665000Y-59650000D01*
X152650000Y-57110000D02*
X152650000Y-59650000D01*
X145030000Y-57110000D02*
X152650000Y-57110000D01*
X145030000Y-59015000D02*
X145030000Y-57110000D01*
D11*
%TO.C,USB*%
X142750000Y-56530000D02*
X141050000Y-56530000D01*
X141050000Y-56530000D02*
X140050000Y-55530000D01*
X140050000Y-55530000D02*
X139050000Y-56530000D01*
X139050000Y-56530000D02*
X134750000Y-56530000D01*
X134750000Y-56530000D02*
X134750000Y-53630000D01*
X134750000Y-53630000D02*
X142750000Y-53630000D01*
X142750000Y-53630000D02*
X142750000Y-56530000D01*
D10*
%TO.C,U2*%
X155690000Y-70280000D02*
X155040000Y-70930000D01*
X153890000Y-70930000D02*
X155040000Y-70930000D01*
X155690000Y-70280000D02*
X155690000Y-67830000D01*
X153890000Y-67830000D02*
X155690000Y-67830000D01*
X153890000Y-70930000D02*
X153890000Y-67830000D01*
%TO.C,R3*%
X155750000Y-78030000D02*
X157750000Y-78030000D01*
X155750000Y-79230000D02*
X155750000Y-78030000D01*
X157750000Y-79230000D02*
X155750000Y-79230000D01*
X157750000Y-78030000D02*
X157750000Y-79230000D01*
%TO.C,D5*%
X143208500Y-103089000D02*
X144908500Y-103089000D01*
X144908500Y-103089000D02*
X145208500Y-102789000D01*
X145208500Y-102789000D02*
X145208500Y-101889000D01*
X145208500Y-101889000D02*
X143208500Y-101889000D01*
X143208500Y-101889000D02*
X143208500Y-103089000D01*
%TO.C,BATTERY*%
X129050000Y-72120000D02*
X129050000Y-73720000D01*
X129050000Y-73720000D02*
X129750000Y-73720000D01*
X129750000Y-73720000D02*
X129750000Y-66120000D01*
X129750000Y-66120000D02*
X123850000Y-66120000D01*
X123850000Y-66120000D02*
X123850000Y-73720000D01*
X123850000Y-73720000D02*
X124550000Y-73720000D01*
X124550000Y-73720000D02*
X124550000Y-72120000D01*
X124550000Y-72120000D02*
X129050000Y-72120000D01*
X127800000Y-71495000D02*
X128300000Y-70995000D01*
X128300000Y-70995000D02*
X127300000Y-70995000D01*
X127300000Y-70995000D02*
X127800000Y-71495000D01*
%TO.C,U1*%
X141001000Y-75902400D02*
X141001000Y-79002400D01*
X141001000Y-79002400D02*
X139201000Y-79002400D01*
X139201000Y-76552400D02*
X139201000Y-79002400D01*
X141001000Y-75902400D02*
X139851000Y-75902400D01*
X139201000Y-76552400D02*
X139851000Y-75902400D01*
%TO.C,BOOT*%
X130080000Y-110415000D02*
X130080000Y-107415000D01*
X130080000Y-107415000D02*
X132580000Y-107415000D01*
X132580000Y-107415000D02*
X132580000Y-110415000D01*
X132580000Y-110415000D02*
X130080000Y-110415000D01*
X132080000Y-108915000D02*
G75*
G03*
X132080000Y-108915000I-750000J0D01*
G01*
%TO.C,R7*%
X133920000Y-107325000D02*
X135120000Y-107325000D01*
X135120000Y-107325000D02*
X135120000Y-109325000D01*
X135120000Y-109325000D02*
X133920000Y-109325000D01*
X133920000Y-109325000D02*
X133920000Y-107325000D01*
%TO.C,R9*%
X165280000Y-112400000D02*
X165280000Y-113600000D01*
X165280000Y-113600000D02*
X163280000Y-113600000D01*
X163280000Y-113600000D02*
X163280000Y-112400000D01*
X163280000Y-112400000D02*
X165280000Y-112400000D01*
%TO.C,R8*%
X152479500Y-103089000D02*
X152479500Y-101889000D01*
X152479500Y-101889000D02*
X154479500Y-101889000D01*
X154479500Y-101889000D02*
X154479500Y-103089000D01*
X154479500Y-103089000D02*
X152479500Y-103089000D01*
%TO.C,R6*%
X160994600Y-60487000D02*
X160994600Y-61687000D01*
X160994600Y-61687000D02*
X158994600Y-61687000D01*
X158994600Y-61687000D02*
X158994600Y-60487000D01*
X158994600Y-60487000D02*
X160994600Y-60487000D01*
%TO.C,R5*%
X147631000Y-77112400D02*
X145631000Y-77112400D01*
X147631000Y-75912400D02*
X147631000Y-77112400D01*
X145631000Y-75912400D02*
X147631000Y-75912400D01*
X145631000Y-77112400D02*
X145631000Y-75912400D01*
%TO.C,R4*%
X159012000Y-68174400D02*
X160212000Y-68174400D01*
X160212000Y-68174400D02*
X160212000Y-70174400D01*
X160212000Y-70174400D02*
X159012000Y-70174400D01*
X159012000Y-70174400D02*
X159012000Y-68174400D01*
%TO.C,R2*%
X145177000Y-65465400D02*
X147177000Y-65465400D01*
X145177000Y-66665400D02*
X145177000Y-65465400D01*
X147177000Y-66665400D02*
X145177000Y-66665400D01*
X147177000Y-65465400D02*
X147177000Y-66665400D01*
%TO.C,R1*%
X153320000Y-79210000D02*
X151320000Y-79210000D01*
X153320000Y-78010000D02*
X153320000Y-79210000D01*
X151320000Y-78010000D02*
X153320000Y-78010000D01*
X151320000Y-79210000D02*
X151320000Y-78010000D01*
%TO.C,Q1*%
X140781000Y-67974400D02*
X139381000Y-67974400D01*
X139381000Y-71014400D02*
X139381000Y-67974400D01*
X140781000Y-70444400D02*
X140231000Y-71014400D01*
X140231000Y-71014400D02*
X139381000Y-71014400D01*
X140781000Y-70444400D02*
X140781000Y-67994400D01*
%TO.C,POWER*%
X157080000Y-55230000D02*
X158780000Y-55230000D01*
X158780000Y-55230000D02*
X159080000Y-54930000D01*
X159080000Y-54930000D02*
X159080000Y-54030000D01*
X159080000Y-54030000D02*
X157080000Y-54030000D01*
X157080000Y-54030000D02*
X157080000Y-55230000D01*
%TO.C,D1*%
X151320000Y-75900000D02*
X151320000Y-77100000D01*
X153320000Y-75900000D02*
X151320000Y-75900000D01*
X153320000Y-76800000D02*
X153320000Y-75900000D01*
X153020000Y-77100000D02*
X153320000Y-76800000D01*
X151320000Y-77100000D02*
X153020000Y-77100000D01*
%TO.C,C7*%
X163890000Y-109440000D02*
X162690000Y-109440000D01*
X162690000Y-109440000D02*
X162690000Y-107440000D01*
X162690000Y-107440000D02*
X163890000Y-107440000D01*
X163890000Y-107440000D02*
X163890000Y-109440000D01*
%TO.C,C6*%
X161760000Y-121785000D02*
X162960000Y-121785000D01*
X162960000Y-121785000D02*
X162960000Y-123785000D01*
X162960000Y-123785000D02*
X161760000Y-123785000D01*
X161760000Y-123785000D02*
X161760000Y-121785000D01*
%TO.C,C5*%
X164070000Y-121790000D02*
X165270000Y-121790000D01*
X165270000Y-121790000D02*
X165270000Y-123790000D01*
X165270000Y-123790000D02*
X164070000Y-123790000D01*
X164070000Y-123790000D02*
X164070000Y-121790000D01*
%TO.C,C4*%
X159012000Y-71884400D02*
X160212000Y-71884400D01*
X160212000Y-71884400D02*
X160212000Y-73884400D01*
X160212000Y-73884400D02*
X159012000Y-73884400D01*
X159012000Y-73884400D02*
X159012000Y-71884400D01*
%TO.C,C3*%
X151282000Y-70364400D02*
X150082000Y-70364400D01*
X150082000Y-70364400D02*
X150082000Y-68364400D01*
X150082000Y-68364400D02*
X151282000Y-68364400D01*
X151282000Y-68364400D02*
X151282000Y-70364400D01*
%TO.C,C2*%
X147631000Y-79212400D02*
X145631000Y-79212400D01*
X147631000Y-78012400D02*
X147631000Y-79212400D01*
X145631000Y-78012400D02*
X147631000Y-78012400D01*
X145631000Y-79212400D02*
X145631000Y-78012400D01*
%TO.C,C1*%
X134585000Y-73847200D02*
X133385000Y-73847200D01*
X133385000Y-73847200D02*
X133385000Y-71847200D01*
X133385000Y-71847200D02*
X134585000Y-71847200D01*
X134585000Y-71847200D02*
X134585000Y-73847200D01*
%TD*%
%TO.C,DL*%
D11*
X122751904Y-115697142D02*
X122704285Y-115744761D01*
X122561428Y-115792380D01*
X122466190Y-115792380D01*
X122323333Y-115744761D01*
X122228095Y-115649523D01*
X122180476Y-115554285D01*
X122132857Y-115363809D01*
X122132857Y-115220952D01*
X122180476Y-115030476D01*
X122228095Y-114935238D01*
X122323333Y-114840000D01*
X122466190Y-114792380D01*
X122561428Y-114792380D01*
X122704285Y-114840000D01*
X122751904Y-114887619D01*
X123323333Y-115792380D02*
X123228095Y-115744761D01*
X123180476Y-115697142D01*
X123132857Y-115601904D01*
X123132857Y-115316190D01*
X123180476Y-115220952D01*
X123228095Y-115173333D01*
X123323333Y-115125714D01*
X123466190Y-115125714D01*
X123561428Y-115173333D01*
X123609047Y-115220952D01*
X123656666Y-115316190D01*
X123656666Y-115601904D01*
X123609047Y-115697142D01*
X123561428Y-115744761D01*
X123466190Y-115792380D01*
X123323333Y-115792380D01*
X124085238Y-115125714D02*
X124085238Y-115792380D01*
X124085238Y-115220952D02*
X124132857Y-115173333D01*
X124228095Y-115125714D01*
X124370952Y-115125714D01*
X124466190Y-115173333D01*
X124513809Y-115268571D01*
X124513809Y-115792380D01*
X124990000Y-115125714D02*
X124990000Y-115792380D01*
X124990000Y-115220952D02*
X125037619Y-115173333D01*
X125132857Y-115125714D01*
X125275714Y-115125714D01*
X125370952Y-115173333D01*
X125418571Y-115268571D01*
X125418571Y-115792380D01*
X125656666Y-115887619D02*
X126418571Y-115887619D01*
X126847142Y-114792380D02*
X126942380Y-114792380D01*
X127037619Y-114840000D01*
X127085238Y-114887619D01*
X127132857Y-114982857D01*
X127180476Y-115173333D01*
X127180476Y-115411428D01*
X127132857Y-115601904D01*
X127085238Y-115697142D01*
X127037619Y-115744761D01*
X126942380Y-115792380D01*
X126847142Y-115792380D01*
X126751904Y-115744761D01*
X126704285Y-115697142D01*
X126656666Y-115601904D01*
X126609047Y-115411428D01*
X126609047Y-115173333D01*
X126656666Y-114982857D01*
X126704285Y-114887619D01*
X126751904Y-114840000D01*
X126847142Y-114792380D01*
X128132857Y-115792380D02*
X127561428Y-115792380D01*
X127847142Y-115792380D02*
X127847142Y-114792380D01*
X127751904Y-114935238D01*
X127656666Y-115030476D01*
X127561428Y-115078095D01*
X128466190Y-115792380D02*
X128990000Y-115125714D01*
X128466190Y-115125714D02*
X128990000Y-115792380D01*
X129561428Y-114792380D02*
X129656666Y-114792380D01*
X129751904Y-114840000D01*
X129799523Y-114887619D01*
X129847142Y-114982857D01*
X129894761Y-115173333D01*
X129894761Y-115411428D01*
X129847142Y-115601904D01*
X129799523Y-115697142D01*
X129751904Y-115744761D01*
X129656666Y-115792380D01*
X129561428Y-115792380D01*
X129466190Y-115744761D01*
X129418571Y-115697142D01*
X129370952Y-115601904D01*
X129323333Y-115411428D01*
X129323333Y-115173333D01*
X129370952Y-114982857D01*
X129418571Y-114887619D01*
X129466190Y-114840000D01*
X129561428Y-114792380D01*
X130228095Y-114792380D02*
X130894761Y-114792380D01*
X130466190Y-115792380D01*
X126942380Y-119606666D02*
X125942380Y-119606666D01*
X125942380Y-119368571D01*
X125990000Y-119225714D01*
X126085238Y-119130476D01*
X126180476Y-119082857D01*
X126370952Y-119035238D01*
X126513809Y-119035238D01*
X126704285Y-119082857D01*
X126799523Y-119130476D01*
X126894761Y-119225714D01*
X126942380Y-119368571D01*
X126942380Y-119606666D01*
X126942380Y-118130476D02*
X126942380Y-118606666D01*
X125942380Y-118606666D01*
%TO.C,PW*%
X167711904Y-115692642D02*
X167664285Y-115740261D01*
X167521428Y-115787880D01*
X167426190Y-115787880D01*
X167283333Y-115740261D01*
X167188095Y-115645023D01*
X167140476Y-115549785D01*
X167092857Y-115359309D01*
X167092857Y-115216452D01*
X167140476Y-115025976D01*
X167188095Y-114930738D01*
X167283333Y-114835500D01*
X167426190Y-114787880D01*
X167521428Y-114787880D01*
X167664285Y-114835500D01*
X167711904Y-114883119D01*
X168283333Y-115787880D02*
X168188095Y-115740261D01*
X168140476Y-115692642D01*
X168092857Y-115597404D01*
X168092857Y-115311690D01*
X168140476Y-115216452D01*
X168188095Y-115168833D01*
X168283333Y-115121214D01*
X168426190Y-115121214D01*
X168521428Y-115168833D01*
X168569047Y-115216452D01*
X168616666Y-115311690D01*
X168616666Y-115597404D01*
X168569047Y-115692642D01*
X168521428Y-115740261D01*
X168426190Y-115787880D01*
X168283333Y-115787880D01*
X169045238Y-115121214D02*
X169045238Y-115787880D01*
X169045238Y-115216452D02*
X169092857Y-115168833D01*
X169188095Y-115121214D01*
X169330952Y-115121214D01*
X169426190Y-115168833D01*
X169473809Y-115264071D01*
X169473809Y-115787880D01*
X169950000Y-115121214D02*
X169950000Y-115787880D01*
X169950000Y-115216452D02*
X169997619Y-115168833D01*
X170092857Y-115121214D01*
X170235714Y-115121214D01*
X170330952Y-115168833D01*
X170378571Y-115264071D01*
X170378571Y-115787880D01*
X170616666Y-115883119D02*
X171378571Y-115883119D01*
X171807142Y-114787880D02*
X171902380Y-114787880D01*
X171997619Y-114835500D01*
X172045238Y-114883119D01*
X172092857Y-114978357D01*
X172140476Y-115168833D01*
X172140476Y-115406928D01*
X172092857Y-115597404D01*
X172045238Y-115692642D01*
X171997619Y-115740261D01*
X171902380Y-115787880D01*
X171807142Y-115787880D01*
X171711904Y-115740261D01*
X171664285Y-115692642D01*
X171616666Y-115597404D01*
X171569047Y-115406928D01*
X171569047Y-115168833D01*
X171616666Y-114978357D01*
X171664285Y-114883119D01*
X171711904Y-114835500D01*
X171807142Y-114787880D01*
X173092857Y-115787880D02*
X172521428Y-115787880D01*
X172807142Y-115787880D02*
X172807142Y-114787880D01*
X172711904Y-114930738D01*
X172616666Y-115025976D01*
X172521428Y-115073595D01*
X173426190Y-115787880D02*
X173950000Y-115121214D01*
X173426190Y-115121214D02*
X173950000Y-115787880D01*
X174521428Y-114787880D02*
X174616666Y-114787880D01*
X174711904Y-114835500D01*
X174759523Y-114883119D01*
X174807142Y-114978357D01*
X174854761Y-115168833D01*
X174854761Y-115406928D01*
X174807142Y-115597404D01*
X174759523Y-115692642D01*
X174711904Y-115740261D01*
X174616666Y-115787880D01*
X174521428Y-115787880D01*
X174426190Y-115740261D01*
X174378571Y-115692642D01*
X174330952Y-115597404D01*
X174283333Y-115406928D01*
X174283333Y-115168833D01*
X174330952Y-114978357D01*
X174378571Y-114883119D01*
X174426190Y-114835500D01*
X174521428Y-114787880D01*
X175188095Y-114787880D02*
X175854761Y-114787880D01*
X175426190Y-115787880D01*
X171902380Y-119768833D02*
X170902380Y-119768833D01*
X170902380Y-119387880D01*
X170950000Y-119292642D01*
X170997619Y-119245023D01*
X171092857Y-119197404D01*
X171235714Y-119197404D01*
X171330952Y-119245023D01*
X171378571Y-119292642D01*
X171426190Y-119387880D01*
X171426190Y-119768833D01*
X170902380Y-118864071D02*
X171902380Y-118625976D01*
X171188095Y-118435500D01*
X171902380Y-118245023D01*
X170902380Y-118006928D01*
%TO.C,U3*%
X141806190Y-104028571D02*
X142139523Y-104028571D01*
X142282380Y-104552380D02*
X141806190Y-104552380D01*
X141806190Y-103552380D01*
X142282380Y-103552380D01*
X142663333Y-104504761D02*
X142806190Y-104552380D01*
X143044285Y-104552380D01*
X143139523Y-104504761D01*
X143187142Y-104457142D01*
X143234761Y-104361904D01*
X143234761Y-104266666D01*
X143187142Y-104171428D01*
X143139523Y-104123809D01*
X143044285Y-104076190D01*
X142853809Y-104028571D01*
X142758571Y-103980952D01*
X142710952Y-103933333D01*
X142663333Y-103838095D01*
X142663333Y-103742857D01*
X142710952Y-103647619D01*
X142758571Y-103600000D01*
X142853809Y-103552380D01*
X143091904Y-103552380D01*
X143234761Y-103600000D01*
X143663333Y-104552380D02*
X143663333Y-103552380D01*
X144044285Y-103552380D01*
X144139523Y-103600000D01*
X144187142Y-103647619D01*
X144234761Y-103742857D01*
X144234761Y-103885714D01*
X144187142Y-103980952D01*
X144139523Y-104028571D01*
X144044285Y-104076190D01*
X143663333Y-104076190D01*
X144568095Y-103552380D02*
X145187142Y-103552380D01*
X144853809Y-103933333D01*
X144996666Y-103933333D01*
X145091904Y-103980952D01*
X145139523Y-104028571D01*
X145187142Y-104123809D01*
X145187142Y-104361904D01*
X145139523Y-104457142D01*
X145091904Y-104504761D01*
X144996666Y-104552380D01*
X144710952Y-104552380D01*
X144615714Y-104504761D01*
X144568095Y-104457142D01*
X145568095Y-103647619D02*
X145615714Y-103600000D01*
X145710952Y-103552380D01*
X145949047Y-103552380D01*
X146044285Y-103600000D01*
X146091904Y-103647619D01*
X146139523Y-103742857D01*
X146139523Y-103838095D01*
X146091904Y-103980952D01*
X145520476Y-104552380D01*
X146139523Y-104552380D01*
X146568095Y-104171428D02*
X147330000Y-104171428D01*
X147710952Y-103552380D02*
X147949047Y-104552380D01*
X148139523Y-103838095D01*
X148330000Y-104552380D01*
X148568095Y-103552380D01*
X149520476Y-104552380D02*
X149187142Y-104076190D01*
X148949047Y-104552380D02*
X148949047Y-103552380D01*
X149330000Y-103552380D01*
X149425238Y-103600000D01*
X149472857Y-103647619D01*
X149520476Y-103742857D01*
X149520476Y-103885714D01*
X149472857Y-103980952D01*
X149425238Y-104028571D01*
X149330000Y-104076190D01*
X148949047Y-104076190D01*
X150139523Y-103552380D02*
X150330000Y-103552380D01*
X150425238Y-103600000D01*
X150520476Y-103695238D01*
X150568095Y-103885714D01*
X150568095Y-104219047D01*
X150520476Y-104409523D01*
X150425238Y-104504761D01*
X150330000Y-104552380D01*
X150139523Y-104552380D01*
X150044285Y-104504761D01*
X149949047Y-104409523D01*
X149901428Y-104219047D01*
X149901428Y-103885714D01*
X149949047Y-103695238D01*
X150044285Y-103600000D01*
X150139523Y-103552380D01*
X151187142Y-103552380D02*
X151377619Y-103552380D01*
X151472857Y-103600000D01*
X151568095Y-103695238D01*
X151615714Y-103885714D01*
X151615714Y-104219047D01*
X151568095Y-104409523D01*
X151472857Y-104504761D01*
X151377619Y-104552380D01*
X151187142Y-104552380D01*
X151091904Y-104504761D01*
X150996666Y-104409523D01*
X150949047Y-104219047D01*
X150949047Y-103885714D01*
X150996666Y-103695238D01*
X151091904Y-103600000D01*
X151187142Y-103552380D01*
X152044285Y-104552380D02*
X152044285Y-103552380D01*
X152377619Y-104266666D01*
X152710952Y-103552380D01*
X152710952Y-104552380D01*
X153187142Y-104171428D02*
X153949047Y-104171428D01*
X154329999Y-103552380D02*
X154949047Y-103552380D01*
X154615714Y-103933333D01*
X154758571Y-103933333D01*
X154853809Y-103980952D01*
X154901428Y-104028571D01*
X154949047Y-104123809D01*
X154949047Y-104361904D01*
X154901428Y-104457142D01*
X154853809Y-104504761D01*
X154758571Y-104552380D01*
X154472857Y-104552380D01*
X154377619Y-104504761D01*
X154329999Y-104457142D01*
X155329999Y-103647619D02*
X155377619Y-103600000D01*
X155472857Y-103552380D01*
X155710952Y-103552380D01*
X155806190Y-103600000D01*
X155853809Y-103647619D01*
X155901428Y-103742857D01*
X155901428Y-103838095D01*
X155853809Y-103980952D01*
X155282380Y-104552380D01*
X155901428Y-104552380D01*
X148068095Y-115052380D02*
X148068095Y-115861904D01*
X148115714Y-115957142D01*
X148163333Y-116004761D01*
X148258571Y-116052380D01*
X148449047Y-116052380D01*
X148544285Y-116004761D01*
X148591904Y-115957142D01*
X148639523Y-115861904D01*
X148639523Y-115052380D01*
X149020476Y-115052380D02*
X149639523Y-115052380D01*
X149306190Y-115433333D01*
X149449047Y-115433333D01*
X149544285Y-115480952D01*
X149591904Y-115528571D01*
X149639523Y-115623809D01*
X149639523Y-115861904D01*
X149591904Y-115957142D01*
X149544285Y-116004761D01*
X149449047Y-116052380D01*
X149163333Y-116052380D01*
X149068095Y-116004761D01*
X149020476Y-115957142D01*
%TO.C,EN*%
X164254761Y-111134285D02*
X164302380Y-110991428D01*
X164302380Y-110753333D01*
X164254761Y-110658095D01*
X164207142Y-110610476D01*
X164111904Y-110562857D01*
X164016666Y-110562857D01*
X163921428Y-110610476D01*
X163873809Y-110658095D01*
X163826190Y-110753333D01*
X163778571Y-110943809D01*
X163730952Y-111039047D01*
X163683333Y-111086666D01*
X163588095Y-111134285D01*
X163492857Y-111134285D01*
X163397619Y-111086666D01*
X163350000Y-111039047D01*
X163302380Y-110943809D01*
X163302380Y-110705714D01*
X163350000Y-110562857D01*
X163635714Y-110229523D02*
X164302380Y-110039047D01*
X163826190Y-109848571D01*
X164302380Y-109658095D01*
X163635714Y-109467619D01*
X164302380Y-109086666D02*
X163635714Y-109086666D01*
X163302380Y-109086666D02*
X163350000Y-109134285D01*
X163397619Y-109086666D01*
X163350000Y-109039047D01*
X163302380Y-109086666D01*
X163397619Y-109086666D01*
X163635714Y-108753333D02*
X163635714Y-108372380D01*
X163302380Y-108610476D02*
X164159523Y-108610476D01*
X164254761Y-108562857D01*
X164302380Y-108467619D01*
X164302380Y-108372380D01*
X164254761Y-107610476D02*
X164302380Y-107705714D01*
X164302380Y-107896190D01*
X164254761Y-107991428D01*
X164207142Y-108039047D01*
X164111904Y-108086666D01*
X163826190Y-108086666D01*
X163730952Y-108039047D01*
X163683333Y-107991428D01*
X163635714Y-107896190D01*
X163635714Y-107705714D01*
X163683333Y-107610476D01*
X164302380Y-107181904D02*
X163302380Y-107181904D01*
X164302380Y-106753333D02*
X163778571Y-106753333D01*
X163683333Y-106800952D01*
X163635714Y-106896190D01*
X163635714Y-107039047D01*
X163683333Y-107134285D01*
X163730952Y-107181904D01*
X168778571Y-109658095D02*
X168778571Y-109324761D01*
X169302380Y-109181904D02*
X169302380Y-109658095D01*
X168302380Y-109658095D01*
X168302380Y-109181904D01*
X169302380Y-108753333D02*
X168302380Y-108753333D01*
X169302380Y-108181904D01*
X168302380Y-108181904D01*
%TO.C,LIS3DH*%
X171452380Y-93774761D02*
X171452380Y-94250952D01*
X170452380Y-94250952D01*
X171452380Y-93441428D02*
X170452380Y-93441428D01*
X171404761Y-93012857D02*
X171452380Y-92870000D01*
X171452380Y-92631904D01*
X171404761Y-92536666D01*
X171357142Y-92489047D01*
X171261904Y-92441428D01*
X171166666Y-92441428D01*
X171071428Y-92489047D01*
X171023809Y-92536666D01*
X170976190Y-92631904D01*
X170928571Y-92822380D01*
X170880952Y-92917619D01*
X170833333Y-92965238D01*
X170738095Y-93012857D01*
X170642857Y-93012857D01*
X170547619Y-92965238D01*
X170500000Y-92917619D01*
X170452380Y-92822380D01*
X170452380Y-92584285D01*
X170500000Y-92441428D01*
X170452380Y-92108095D02*
X170452380Y-91489047D01*
X170833333Y-91822380D01*
X170833333Y-91679523D01*
X170880952Y-91584285D01*
X170928571Y-91536666D01*
X171023809Y-91489047D01*
X171261904Y-91489047D01*
X171357142Y-91536666D01*
X171404761Y-91584285D01*
X171452380Y-91679523D01*
X171452380Y-91965238D01*
X171404761Y-92060476D01*
X171357142Y-92108095D01*
X171452380Y-91060476D02*
X170452380Y-91060476D01*
X170452380Y-90822380D01*
X170500000Y-90679523D01*
X170595238Y-90584285D01*
X170690476Y-90536666D01*
X170880952Y-90489047D01*
X171023809Y-90489047D01*
X171214285Y-90536666D01*
X171309523Y-90584285D01*
X171404761Y-90679523D01*
X171452380Y-90822380D01*
X171452380Y-91060476D01*
X171452380Y-90060476D02*
X170452380Y-90060476D01*
X170928571Y-90060476D02*
X170928571Y-89489047D01*
X171452380Y-89489047D02*
X170452380Y-89489047D01*
X157875238Y-92322380D02*
X157399047Y-92322380D01*
X157399047Y-91322380D01*
X158208571Y-92322380D02*
X158208571Y-91322380D01*
X158637142Y-92274761D02*
X158780000Y-92322380D01*
X159018095Y-92322380D01*
X159113333Y-92274761D01*
X159160952Y-92227142D01*
X159208571Y-92131904D01*
X159208571Y-92036666D01*
X159160952Y-91941428D01*
X159113333Y-91893809D01*
X159018095Y-91846190D01*
X158827619Y-91798571D01*
X158732380Y-91750952D01*
X158684761Y-91703333D01*
X158637142Y-91608095D01*
X158637142Y-91512857D01*
X158684761Y-91417619D01*
X158732380Y-91370000D01*
X158827619Y-91322380D01*
X159065714Y-91322380D01*
X159208571Y-91370000D01*
X159541904Y-91322380D02*
X160160952Y-91322380D01*
X159827619Y-91703333D01*
X159970476Y-91703333D01*
X160065714Y-91750952D01*
X160113333Y-91798571D01*
X160160952Y-91893809D01*
X160160952Y-92131904D01*
X160113333Y-92227142D01*
X160065714Y-92274761D01*
X159970476Y-92322380D01*
X159684761Y-92322380D01*
X159589523Y-92274761D01*
X159541904Y-92227142D01*
X160589523Y-92322380D02*
X160589523Y-91322380D01*
X160827619Y-91322380D01*
X160970476Y-91370000D01*
X161065714Y-91465238D01*
X161113333Y-91560476D01*
X161160952Y-91750952D01*
X161160952Y-91893809D01*
X161113333Y-92084285D01*
X161065714Y-92179523D01*
X160970476Y-92274761D01*
X160827619Y-92322380D01*
X160589523Y-92322380D01*
X161589523Y-92322380D02*
X161589523Y-91322380D01*
X161589523Y-91798571D02*
X162160952Y-91798571D01*
X162160952Y-92322380D02*
X162160952Y-91322380D01*
%TO.C,VIN*%
X135497142Y-64868095D02*
X135544761Y-64915714D01*
X135592380Y-65058571D01*
X135592380Y-65153809D01*
X135544761Y-65296666D01*
X135449523Y-65391904D01*
X135354285Y-65439523D01*
X135163809Y-65487142D01*
X135020952Y-65487142D01*
X134830476Y-65439523D01*
X134735238Y-65391904D01*
X134640000Y-65296666D01*
X134592380Y-65153809D01*
X134592380Y-65058571D01*
X134640000Y-64915714D01*
X134687619Y-64868095D01*
X135592380Y-64296666D02*
X135544761Y-64391904D01*
X135497142Y-64439523D01*
X135401904Y-64487142D01*
X135116190Y-64487142D01*
X135020952Y-64439523D01*
X134973333Y-64391904D01*
X134925714Y-64296666D01*
X134925714Y-64153809D01*
X134973333Y-64058571D01*
X135020952Y-64010952D01*
X135116190Y-63963333D01*
X135401904Y-63963333D01*
X135497142Y-64010952D01*
X135544761Y-64058571D01*
X135592380Y-64153809D01*
X135592380Y-64296666D01*
X134925714Y-63534761D02*
X135592380Y-63534761D01*
X135020952Y-63534761D02*
X134973333Y-63487142D01*
X134925714Y-63391904D01*
X134925714Y-63249047D01*
X134973333Y-63153809D01*
X135068571Y-63106190D01*
X135592380Y-63106190D01*
X134925714Y-62630000D02*
X135592380Y-62630000D01*
X135020952Y-62630000D02*
X134973333Y-62582380D01*
X134925714Y-62487142D01*
X134925714Y-62344285D01*
X134973333Y-62249047D01*
X135068571Y-62201428D01*
X135592380Y-62201428D01*
X135687619Y-61963333D02*
X135687619Y-61201428D01*
X134592380Y-60772857D02*
X134592380Y-60677619D01*
X134640000Y-60582380D01*
X134687619Y-60534761D01*
X134782857Y-60487142D01*
X134973333Y-60439523D01*
X135211428Y-60439523D01*
X135401904Y-60487142D01*
X135497142Y-60534761D01*
X135544761Y-60582380D01*
X135592380Y-60677619D01*
X135592380Y-60772857D01*
X135544761Y-60868095D01*
X135497142Y-60915714D01*
X135401904Y-60963333D01*
X135211428Y-61010952D01*
X134973333Y-61010952D01*
X134782857Y-60963333D01*
X134687619Y-60915714D01*
X134640000Y-60868095D01*
X134592380Y-60772857D01*
X135592380Y-59487142D02*
X135592380Y-60058571D01*
X135592380Y-59772857D02*
X134592380Y-59772857D01*
X134735238Y-59868095D01*
X134830476Y-59963333D01*
X134878095Y-60058571D01*
X135592380Y-59153809D02*
X134925714Y-58630000D01*
X134925714Y-59153809D02*
X135592380Y-58630000D01*
X134592380Y-58058571D02*
X134592380Y-57963333D01*
X134640000Y-57868095D01*
X134687619Y-57820476D01*
X134782857Y-57772857D01*
X134973333Y-57725238D01*
X135211428Y-57725238D01*
X135401904Y-57772857D01*
X135497142Y-57820476D01*
X135544761Y-57868095D01*
X135592380Y-57963333D01*
X135592380Y-58058571D01*
X135544761Y-58153809D01*
X135497142Y-58201428D01*
X135401904Y-58249047D01*
X135211428Y-58296666D01*
X134973333Y-58296666D01*
X134782857Y-58249047D01*
X134687619Y-58201428D01*
X134640000Y-58153809D01*
X134592380Y-58058571D01*
X134592380Y-57391904D02*
X134592380Y-56725238D01*
X135592380Y-57153809D01*
X137644761Y-60582380D02*
X137978095Y-61582380D01*
X138311428Y-60582380D01*
X138644761Y-61582380D02*
X138644761Y-60582380D01*
X139120952Y-61582380D02*
X139120952Y-60582380D01*
X139692380Y-61582380D01*
X139692380Y-60582380D01*
%TO.C,FW*%
X157987142Y-101388095D02*
X158034761Y-101435714D01*
X158082380Y-101578571D01*
X158082380Y-101673809D01*
X158034761Y-101816666D01*
X157939523Y-101911904D01*
X157844285Y-101959523D01*
X157653809Y-102007142D01*
X157510952Y-102007142D01*
X157320476Y-101959523D01*
X157225238Y-101911904D01*
X157130000Y-101816666D01*
X157082380Y-101673809D01*
X157082380Y-101578571D01*
X157130000Y-101435714D01*
X157177619Y-101388095D01*
X158082380Y-100816666D02*
X158034761Y-100911904D01*
X157987142Y-100959523D01*
X157891904Y-101007142D01*
X157606190Y-101007142D01*
X157510952Y-100959523D01*
X157463333Y-100911904D01*
X157415714Y-100816666D01*
X157415714Y-100673809D01*
X157463333Y-100578571D01*
X157510952Y-100530952D01*
X157606190Y-100483333D01*
X157891904Y-100483333D01*
X157987142Y-100530952D01*
X158034761Y-100578571D01*
X158082380Y-100673809D01*
X158082380Y-100816666D01*
X157415714Y-100054761D02*
X158082380Y-100054761D01*
X157510952Y-100054761D02*
X157463333Y-100007142D01*
X157415714Y-99911904D01*
X157415714Y-99769047D01*
X157463333Y-99673809D01*
X157558571Y-99626190D01*
X158082380Y-99626190D01*
X157415714Y-99150000D02*
X158082380Y-99150000D01*
X157510952Y-99150000D02*
X157463333Y-99102380D01*
X157415714Y-99007142D01*
X157415714Y-98864285D01*
X157463333Y-98769047D01*
X157558571Y-98721428D01*
X158082380Y-98721428D01*
X158177619Y-98483333D02*
X158177619Y-97721428D01*
X157082380Y-97292857D02*
X157082380Y-97197619D01*
X157130000Y-97102380D01*
X157177619Y-97054761D01*
X157272857Y-97007142D01*
X157463333Y-96959523D01*
X157701428Y-96959523D01*
X157891904Y-97007142D01*
X157987142Y-97054761D01*
X158034761Y-97102380D01*
X158082380Y-97197619D01*
X158082380Y-97292857D01*
X158034761Y-97388095D01*
X157987142Y-97435714D01*
X157891904Y-97483333D01*
X157701428Y-97530952D01*
X157463333Y-97530952D01*
X157272857Y-97483333D01*
X157177619Y-97435714D01*
X157130000Y-97388095D01*
X157082380Y-97292857D01*
X158082380Y-96007142D02*
X158082380Y-96578571D01*
X158082380Y-96292857D02*
X157082380Y-96292857D01*
X157225238Y-96388095D01*
X157320476Y-96483333D01*
X157368095Y-96578571D01*
X158082380Y-95673809D02*
X157415714Y-95150000D01*
X157415714Y-95673809D02*
X158082380Y-95150000D01*
X157082380Y-94578571D02*
X157082380Y-94483333D01*
X157130000Y-94388095D01*
X157177619Y-94340476D01*
X157272857Y-94292857D01*
X157463333Y-94245238D01*
X157701428Y-94245238D01*
X157891904Y-94292857D01*
X157987142Y-94340476D01*
X158034761Y-94388095D01*
X158082380Y-94483333D01*
X158082380Y-94578571D01*
X158034761Y-94673809D01*
X157987142Y-94721428D01*
X157891904Y-94769047D01*
X157701428Y-94816666D01*
X157463333Y-94816666D01*
X157272857Y-94769047D01*
X157177619Y-94721428D01*
X157130000Y-94673809D01*
X157082380Y-94578571D01*
X157082380Y-93911904D02*
X157082380Y-93245238D01*
X158082380Y-93673809D01*
X148521428Y-97578571D02*
X148188095Y-97578571D01*
X148188095Y-98102380D02*
X148188095Y-97102380D01*
X148664285Y-97102380D01*
X148950000Y-97102380D02*
X149188095Y-98102380D01*
X149378571Y-97388095D01*
X149569047Y-98102380D01*
X149807142Y-97102380D01*
%TO.C,D4*%
X155420657Y-77650000D02*
X155325419Y-77602380D01*
X155182561Y-77602380D01*
X155039704Y-77650000D01*
X154944466Y-77745238D01*
X154896847Y-77840476D01*
X154849228Y-78030952D01*
X154849228Y-78173809D01*
X154896847Y-78364285D01*
X154944466Y-78459523D01*
X155039704Y-78554761D01*
X155182561Y-78602380D01*
X155277800Y-78602380D01*
X155420657Y-78554761D01*
X155468276Y-78507142D01*
X155468276Y-78173809D01*
X155277800Y-78173809D01*
X155896847Y-78602380D02*
X155896847Y-77935714D01*
X155896847Y-78126190D02*
X155944466Y-78030952D01*
X155992085Y-77983333D01*
X156087323Y-77935714D01*
X156182561Y-77935714D01*
X156896847Y-78554761D02*
X156801609Y-78602380D01*
X156611133Y-78602380D01*
X156515895Y-78554761D01*
X156468276Y-78459523D01*
X156468276Y-78078571D01*
X156515895Y-77983333D01*
X156611133Y-77935714D01*
X156801609Y-77935714D01*
X156896847Y-77983333D01*
X156944466Y-78078571D01*
X156944466Y-78173809D01*
X156468276Y-78269047D01*
X157753990Y-78554761D02*
X157658752Y-78602380D01*
X157468276Y-78602380D01*
X157373038Y-78554761D01*
X157325419Y-78459523D01*
X157325419Y-78078571D01*
X157373038Y-77983333D01*
X157468276Y-77935714D01*
X157658752Y-77935714D01*
X157753990Y-77983333D01*
X157801609Y-78078571D01*
X157801609Y-78173809D01*
X157325419Y-78269047D01*
X158230180Y-77935714D02*
X158230180Y-78602380D01*
X158230180Y-78030952D02*
X158277800Y-77983333D01*
X158373038Y-77935714D01*
X158515895Y-77935714D01*
X158611133Y-77983333D01*
X158658752Y-78078571D01*
X158658752Y-78602380D01*
D12*
X156408752Y-76726190D02*
X156408752Y-76226190D01*
X156527800Y-76226190D01*
X156599228Y-76250000D01*
X156646847Y-76297619D01*
X156670657Y-76345238D01*
X156694466Y-76440476D01*
X156694466Y-76511904D01*
X156670657Y-76607142D01*
X156646847Y-76654761D01*
X156599228Y-76702380D01*
X156527800Y-76726190D01*
X156408752Y-76726190D01*
X157123038Y-76392857D02*
X157123038Y-76726190D01*
X157003990Y-76202380D02*
X156884942Y-76559523D01*
X157194466Y-76559523D01*
%TO.C,D2*%
D11*
X141104761Y-69002380D02*
X140533333Y-69002380D01*
X140819047Y-69002380D02*
X140819047Y-68002380D01*
X140723809Y-68145238D01*
X140628571Y-68240476D01*
X140533333Y-68288095D01*
X141485714Y-68716666D02*
X141961904Y-68716666D01*
X141390476Y-69002380D02*
X141723809Y-68002380D01*
X142057142Y-69002380D01*
X143104761Y-67954761D02*
X142247619Y-69240476D01*
X143390476Y-68097619D02*
X143438095Y-68050000D01*
X143533333Y-68002380D01*
X143771428Y-68002380D01*
X143866666Y-68050000D01*
X143914285Y-68097619D01*
X143961904Y-68192857D01*
X143961904Y-68288095D01*
X143914285Y-68430952D01*
X143342857Y-69002380D01*
X143961904Y-69002380D01*
X144295238Y-68002380D02*
X144914285Y-68002380D01*
X144580952Y-68383333D01*
X144723809Y-68383333D01*
X144819047Y-68430952D01*
X144866666Y-68478571D01*
X144914285Y-68573809D01*
X144914285Y-68811904D01*
X144866666Y-68907142D01*
X144819047Y-68954761D01*
X144723809Y-69002380D01*
X144438095Y-69002380D01*
X144342857Y-68954761D01*
X144295238Y-68907142D01*
X145200000Y-68002380D02*
X145533333Y-69002380D01*
X145866666Y-68002380D01*
X146914285Y-67954761D02*
X146057142Y-69240476D01*
X147676190Y-68002380D02*
X147485714Y-68002380D01*
X147390476Y-68050000D01*
X147342857Y-68097619D01*
X147247619Y-68240476D01*
X147200000Y-68430952D01*
X147200000Y-68811904D01*
X147247619Y-68907142D01*
X147295238Y-68954761D01*
X147390476Y-69002380D01*
X147580952Y-69002380D01*
X147676190Y-68954761D01*
X147723809Y-68907142D01*
X147771428Y-68811904D01*
X147771428Y-68573809D01*
X147723809Y-68478571D01*
X147676190Y-68430952D01*
X147580952Y-68383333D01*
X147390476Y-68383333D01*
X147295238Y-68430952D01*
X147247619Y-68478571D01*
X147200000Y-68573809D01*
X148152380Y-68097619D02*
X148200000Y-68050000D01*
X148295238Y-68002380D01*
X148533333Y-68002380D01*
X148628571Y-68050000D01*
X148676190Y-68097619D01*
X148723809Y-68192857D01*
X148723809Y-68288095D01*
X148676190Y-68430952D01*
X148104761Y-69002380D01*
X148723809Y-69002380D01*
X149342857Y-68002380D02*
X149438095Y-68002380D01*
X149533333Y-68050000D01*
X149580952Y-68097619D01*
X149628571Y-68192857D01*
X149676190Y-68383333D01*
X149676190Y-68621428D01*
X149628571Y-68811904D01*
X149580952Y-68907142D01*
X149533333Y-68954761D01*
X149438095Y-69002380D01*
X149342857Y-69002380D01*
X149247619Y-68954761D01*
X149200000Y-68907142D01*
X149152380Y-68811904D01*
X149104761Y-68621428D01*
X149104761Y-68383333D01*
X149152380Y-68192857D01*
X149200000Y-68097619D01*
X149247619Y-68050000D01*
X149342857Y-68002380D01*
X150104761Y-69002380D02*
X150104761Y-68335714D01*
X150104761Y-68430952D02*
X150152380Y-68383333D01*
X150247619Y-68335714D01*
X150390476Y-68335714D01*
X150485714Y-68383333D01*
X150533333Y-68478571D01*
X150533333Y-69002380D01*
X150533333Y-68478571D02*
X150580952Y-68383333D01*
X150676190Y-68335714D01*
X150819047Y-68335714D01*
X150914285Y-68383333D01*
X150961904Y-68478571D01*
X150961904Y-69002380D01*
X151295238Y-68002380D02*
X151628571Y-69002380D01*
X151961904Y-68002380D01*
X145561904Y-72752380D02*
X145561904Y-71752380D01*
X145800000Y-71752380D01*
X145942857Y-71800000D01*
X146038095Y-71895238D01*
X146085714Y-71990476D01*
X146133333Y-72180952D01*
X146133333Y-72323809D01*
X146085714Y-72514285D01*
X146038095Y-72609523D01*
X145942857Y-72704761D01*
X145800000Y-72752380D01*
X145561904Y-72752380D01*
X146514285Y-71847619D02*
X146561904Y-71800000D01*
X146657142Y-71752380D01*
X146895238Y-71752380D01*
X146990476Y-71800000D01*
X147038095Y-71847619D01*
X147085714Y-71942857D01*
X147085714Y-72038095D01*
X147038095Y-72180952D01*
X146466666Y-72752380D01*
X147085714Y-72752380D01*
%TO.C,BME680*%
X146467071Y-94201952D02*
X146514690Y-94059095D01*
X146562309Y-94011476D01*
X146657547Y-93963857D01*
X146800404Y-93963857D01*
X146895642Y-94011476D01*
X146943261Y-94059095D01*
X146990880Y-94154333D01*
X146990880Y-94535285D01*
X145990880Y-94535285D01*
X145990880Y-94201952D01*
X146038500Y-94106714D01*
X146086119Y-94059095D01*
X146181357Y-94011476D01*
X146276595Y-94011476D01*
X146371833Y-94059095D01*
X146419452Y-94106714D01*
X146467071Y-94201952D01*
X146467071Y-94535285D01*
X146990880Y-93535285D02*
X145990880Y-93535285D01*
X146705166Y-93201952D01*
X145990880Y-92868619D01*
X146990880Y-92868619D01*
X146467071Y-92392428D02*
X146467071Y-92059095D01*
X146990880Y-91916238D02*
X146990880Y-92392428D01*
X145990880Y-92392428D01*
X145990880Y-91916238D01*
X145990880Y-91059095D02*
X145990880Y-91249571D01*
X146038500Y-91344809D01*
X146086119Y-91392428D01*
X146228976Y-91487666D01*
X146419452Y-91535285D01*
X146800404Y-91535285D01*
X146895642Y-91487666D01*
X146943261Y-91440047D01*
X146990880Y-91344809D01*
X146990880Y-91154333D01*
X146943261Y-91059095D01*
X146895642Y-91011476D01*
X146800404Y-90963857D01*
X146562309Y-90963857D01*
X146467071Y-91011476D01*
X146419452Y-91059095D01*
X146371833Y-91154333D01*
X146371833Y-91344809D01*
X146419452Y-91440047D01*
X146467071Y-91487666D01*
X146562309Y-91535285D01*
X146419452Y-90392428D02*
X146371833Y-90487666D01*
X146324214Y-90535285D01*
X146228976Y-90582904D01*
X146181357Y-90582904D01*
X146086119Y-90535285D01*
X146038500Y-90487666D01*
X145990880Y-90392428D01*
X145990880Y-90201952D01*
X146038500Y-90106714D01*
X146086119Y-90059095D01*
X146181357Y-90011476D01*
X146228976Y-90011476D01*
X146324214Y-90059095D01*
X146371833Y-90106714D01*
X146419452Y-90201952D01*
X146419452Y-90392428D01*
X146467071Y-90487666D01*
X146514690Y-90535285D01*
X146609928Y-90582904D01*
X146800404Y-90582904D01*
X146895642Y-90535285D01*
X146943261Y-90487666D01*
X146990880Y-90392428D01*
X146990880Y-90201952D01*
X146943261Y-90106714D01*
X146895642Y-90059095D01*
X146800404Y-90011476D01*
X146609928Y-90011476D01*
X146514690Y-90059095D01*
X146467071Y-90106714D01*
X146419452Y-90201952D01*
X145990880Y-89392428D02*
X145990880Y-89297190D01*
X146038500Y-89201952D01*
X146086119Y-89154333D01*
X146181357Y-89106714D01*
X146371833Y-89059095D01*
X146609928Y-89059095D01*
X146800404Y-89106714D01*
X146895642Y-89154333D01*
X146943261Y-89201952D01*
X146990880Y-89297190D01*
X146990880Y-89392428D01*
X146943261Y-89487666D01*
X146895642Y-89535285D01*
X146800404Y-89582904D01*
X146609928Y-89630523D01*
X146371833Y-89630523D01*
X146181357Y-89582904D01*
X146086119Y-89535285D01*
X146038500Y-89487666D01*
X145990880Y-89392428D01*
X134207547Y-91749571D02*
X134350404Y-91797190D01*
X134398023Y-91844809D01*
X134445642Y-91940047D01*
X134445642Y-92082904D01*
X134398023Y-92178142D01*
X134350404Y-92225761D01*
X134255166Y-92273380D01*
X133874214Y-92273380D01*
X133874214Y-91273380D01*
X134207547Y-91273380D01*
X134302785Y-91321000D01*
X134350404Y-91368619D01*
X134398023Y-91463857D01*
X134398023Y-91559095D01*
X134350404Y-91654333D01*
X134302785Y-91701952D01*
X134207547Y-91749571D01*
X133874214Y-91749571D01*
X134874214Y-92273380D02*
X134874214Y-91273380D01*
X135207547Y-91987666D01*
X135540880Y-91273380D01*
X135540880Y-92273380D01*
X136017071Y-91749571D02*
X136350404Y-91749571D01*
X136493261Y-92273380D02*
X136017071Y-92273380D01*
X136017071Y-91273380D01*
X136493261Y-91273380D01*
X137350404Y-91273380D02*
X137159928Y-91273380D01*
X137064690Y-91321000D01*
X137017071Y-91368619D01*
X136921833Y-91511476D01*
X136874214Y-91701952D01*
X136874214Y-92082904D01*
X136921833Y-92178142D01*
X136969452Y-92225761D01*
X137064690Y-92273380D01*
X137255166Y-92273380D01*
X137350404Y-92225761D01*
X137398023Y-92178142D01*
X137445642Y-92082904D01*
X137445642Y-91844809D01*
X137398023Y-91749571D01*
X137350404Y-91701952D01*
X137255166Y-91654333D01*
X137064690Y-91654333D01*
X136969452Y-91701952D01*
X136921833Y-91749571D01*
X136874214Y-91844809D01*
X138017071Y-91701952D02*
X137921833Y-91654333D01*
X137874214Y-91606714D01*
X137826595Y-91511476D01*
X137826595Y-91463857D01*
X137874214Y-91368619D01*
X137921833Y-91321000D01*
X138017071Y-91273380D01*
X138207547Y-91273380D01*
X138302785Y-91321000D01*
X138350404Y-91368619D01*
X138398023Y-91463857D01*
X138398023Y-91511476D01*
X138350404Y-91606714D01*
X138302785Y-91654333D01*
X138207547Y-91701952D01*
X138017071Y-91701952D01*
X137921833Y-91749571D01*
X137874214Y-91797190D01*
X137826595Y-91892428D01*
X137826595Y-92082904D01*
X137874214Y-92178142D01*
X137921833Y-92225761D01*
X138017071Y-92273380D01*
X138207547Y-92273380D01*
X138302785Y-92225761D01*
X138350404Y-92178142D01*
X138398023Y-92082904D01*
X138398023Y-91892428D01*
X138350404Y-91797190D01*
X138302785Y-91749571D01*
X138207547Y-91701952D01*
X139017071Y-91273380D02*
X139112309Y-91273380D01*
X139207547Y-91321000D01*
X139255166Y-91368619D01*
X139302785Y-91463857D01*
X139350404Y-91654333D01*
X139350404Y-91892428D01*
X139302785Y-92082904D01*
X139255166Y-92178142D01*
X139207547Y-92225761D01*
X139112309Y-92273380D01*
X139017071Y-92273380D01*
X138921833Y-92225761D01*
X138874214Y-92178142D01*
X138826595Y-92082904D01*
X138778976Y-91892428D01*
X138778976Y-91654333D01*
X138826595Y-91463857D01*
X138874214Y-91368619D01*
X138921833Y-91321000D01*
X139017071Y-91273380D01*
%TO.C,MOISTURE*%
X154102380Y-59669761D02*
X153102380Y-59669761D01*
X153816666Y-59336428D01*
X153102380Y-59003095D01*
X154102380Y-59003095D01*
X154102380Y-58384047D02*
X154054761Y-58479285D01*
X154007142Y-58526904D01*
X153911904Y-58574523D01*
X153626190Y-58574523D01*
X153530952Y-58526904D01*
X153483333Y-58479285D01*
X153435714Y-58384047D01*
X153435714Y-58241190D01*
X153483333Y-58145952D01*
X153530952Y-58098333D01*
X153626190Y-58050714D01*
X153911904Y-58050714D01*
X154007142Y-58098333D01*
X154054761Y-58145952D01*
X154102380Y-58241190D01*
X154102380Y-58384047D01*
X154102380Y-57622142D02*
X153435714Y-57622142D01*
X153102380Y-57622142D02*
X153150000Y-57669761D01*
X153197619Y-57622142D01*
X153150000Y-57574523D01*
X153102380Y-57622142D01*
X153197619Y-57622142D01*
X154054761Y-57193571D02*
X154102380Y-57098333D01*
X154102380Y-56907857D01*
X154054761Y-56812619D01*
X153959523Y-56765000D01*
X153911904Y-56765000D01*
X153816666Y-56812619D01*
X153769047Y-56907857D01*
X153769047Y-57050714D01*
X153721428Y-57145952D01*
X153626190Y-57193571D01*
X153578571Y-57193571D01*
X153483333Y-57145952D01*
X153435714Y-57050714D01*
X153435714Y-56907857D01*
X153483333Y-56812619D01*
X153435714Y-56479285D02*
X153435714Y-56098333D01*
X153102380Y-56336428D02*
X153959523Y-56336428D01*
X154054761Y-56288809D01*
X154102380Y-56193571D01*
X154102380Y-56098333D01*
X153435714Y-55336428D02*
X154102380Y-55336428D01*
X153435714Y-55765000D02*
X153959523Y-55765000D01*
X154054761Y-55717380D01*
X154102380Y-55622142D01*
X154102380Y-55479285D01*
X154054761Y-55384047D01*
X154007142Y-55336428D01*
X154102380Y-54860238D02*
X153435714Y-54860238D01*
X153626190Y-54860238D02*
X153530952Y-54812619D01*
X153483333Y-54765000D01*
X153435714Y-54669761D01*
X153435714Y-54574523D01*
X154054761Y-53860238D02*
X154102380Y-53955476D01*
X154102380Y-54145952D01*
X154054761Y-54241190D01*
X153959523Y-54288809D01*
X153578571Y-54288809D01*
X153483333Y-54241190D01*
X153435714Y-54145952D01*
X153435714Y-53955476D01*
X153483333Y-53860238D01*
X153578571Y-53812619D01*
X153673809Y-53812619D01*
X153769047Y-54288809D01*
X145411428Y-58832380D02*
X145411428Y-57832380D01*
X145744761Y-58546666D01*
X146078095Y-57832380D01*
X146078095Y-58832380D01*
X146744761Y-57832380D02*
X146935238Y-57832380D01*
X147030476Y-57880000D01*
X147125714Y-57975238D01*
X147173333Y-58165714D01*
X147173333Y-58499047D01*
X147125714Y-58689523D01*
X147030476Y-58784761D01*
X146935238Y-58832380D01*
X146744761Y-58832380D01*
X146649523Y-58784761D01*
X146554285Y-58689523D01*
X146506666Y-58499047D01*
X146506666Y-58165714D01*
X146554285Y-57975238D01*
X146649523Y-57880000D01*
X146744761Y-57832380D01*
X147601904Y-58832380D02*
X147601904Y-57832380D01*
X148030476Y-58784761D02*
X148173333Y-58832380D01*
X148411428Y-58832380D01*
X148506666Y-58784761D01*
X148554285Y-58737142D01*
X148601904Y-58641904D01*
X148601904Y-58546666D01*
X148554285Y-58451428D01*
X148506666Y-58403809D01*
X148411428Y-58356190D01*
X148220952Y-58308571D01*
X148125714Y-58260952D01*
X148078095Y-58213333D01*
X148030476Y-58118095D01*
X148030476Y-58022857D01*
X148078095Y-57927619D01*
X148125714Y-57880000D01*
X148220952Y-57832380D01*
X148459047Y-57832380D01*
X148601904Y-57880000D01*
X148887619Y-57832380D02*
X149459047Y-57832380D01*
X149173333Y-58832380D02*
X149173333Y-57832380D01*
X149792380Y-57832380D02*
X149792380Y-58641904D01*
X149840000Y-58737142D01*
X149887619Y-58784761D01*
X149982857Y-58832380D01*
X150173333Y-58832380D01*
X150268571Y-58784761D01*
X150316190Y-58737142D01*
X150363809Y-58641904D01*
X150363809Y-57832380D01*
X151411428Y-58832380D02*
X151078095Y-58356190D01*
X150840000Y-58832380D02*
X150840000Y-57832380D01*
X151220952Y-57832380D01*
X151316190Y-57880000D01*
X151363809Y-57927619D01*
X151411428Y-58022857D01*
X151411428Y-58165714D01*
X151363809Y-58260952D01*
X151316190Y-58308571D01*
X151220952Y-58356190D01*
X150840000Y-58356190D01*
X151840000Y-58308571D02*
X152173333Y-58308571D01*
X152316190Y-58832380D02*
X151840000Y-58832380D01*
X151840000Y-57832380D01*
X152316190Y-57832380D01*
%TO.C,USB*%
X134226190Y-51832380D02*
X134226190Y-52641904D01*
X134273809Y-52737142D01*
X134321428Y-52784761D01*
X134416666Y-52832380D01*
X134607142Y-52832380D01*
X134702380Y-52784761D01*
X134750000Y-52737142D01*
X134797619Y-52641904D01*
X134797619Y-51832380D01*
X135226190Y-52784761D02*
X135369047Y-52832380D01*
X135607142Y-52832380D01*
X135702380Y-52784761D01*
X135750000Y-52737142D01*
X135797619Y-52641904D01*
X135797619Y-52546666D01*
X135750000Y-52451428D01*
X135702380Y-52403809D01*
X135607142Y-52356190D01*
X135416666Y-52308571D01*
X135321428Y-52260952D01*
X135273809Y-52213333D01*
X135226190Y-52118095D01*
X135226190Y-52022857D01*
X135273809Y-51927619D01*
X135321428Y-51880000D01*
X135416666Y-51832380D01*
X135654761Y-51832380D01*
X135797619Y-51880000D01*
X136559523Y-52308571D02*
X136702380Y-52356190D01*
X136750000Y-52403809D01*
X136797619Y-52499047D01*
X136797619Y-52641904D01*
X136750000Y-52737142D01*
X136702380Y-52784761D01*
X136607142Y-52832380D01*
X136226190Y-52832380D01*
X136226190Y-51832380D01*
X136559523Y-51832380D01*
X136654761Y-51880000D01*
X136702380Y-51927619D01*
X136750000Y-52022857D01*
X136750000Y-52118095D01*
X136702380Y-52213333D01*
X136654761Y-52260952D01*
X136559523Y-52308571D01*
X136226190Y-52308571D01*
X136988095Y-52927619D02*
X137750000Y-52927619D01*
X138321428Y-52308571D02*
X138464285Y-52356190D01*
X138511904Y-52403809D01*
X138559523Y-52499047D01*
X138559523Y-52641904D01*
X138511904Y-52737142D01*
X138464285Y-52784761D01*
X138369047Y-52832380D01*
X137988095Y-52832380D01*
X137988095Y-51832380D01*
X138321428Y-51832380D01*
X138416666Y-51880000D01*
X138464285Y-51927619D01*
X138511904Y-52022857D01*
X138511904Y-52118095D01*
X138464285Y-52213333D01*
X138416666Y-52260952D01*
X138321428Y-52308571D01*
X137988095Y-52308571D01*
X138750000Y-52927619D02*
X139511904Y-52927619D01*
X139750000Y-52832380D02*
X139750000Y-51832380D01*
X140083333Y-52546666D01*
X140416666Y-51832380D01*
X140416666Y-52832380D01*
X140892857Y-52832380D02*
X140892857Y-52165714D01*
X140892857Y-51832380D02*
X140845238Y-51880000D01*
X140892857Y-51927619D01*
X140940476Y-51880000D01*
X140892857Y-51832380D01*
X140892857Y-51927619D01*
X141797619Y-52784761D02*
X141702380Y-52832380D01*
X141511904Y-52832380D01*
X141416666Y-52784761D01*
X141369047Y-52737142D01*
X141321428Y-52641904D01*
X141321428Y-52356190D01*
X141369047Y-52260952D01*
X141416666Y-52213333D01*
X141511904Y-52165714D01*
X141702380Y-52165714D01*
X141797619Y-52213333D01*
X142226190Y-52832380D02*
X142226190Y-52165714D01*
X142226190Y-52356190D02*
X142273809Y-52260952D01*
X142321428Y-52213333D01*
X142416666Y-52165714D01*
X142511904Y-52165714D01*
X142988095Y-52832380D02*
X142892857Y-52784761D01*
X142845238Y-52737142D01*
X142797619Y-52641904D01*
X142797619Y-52356190D01*
X142845238Y-52260952D01*
X142892857Y-52213333D01*
X142988095Y-52165714D01*
X143130952Y-52165714D01*
X143226190Y-52213333D01*
X143273809Y-52260952D01*
X143321428Y-52356190D01*
X143321428Y-52641904D01*
X143273809Y-52737142D01*
X143226190Y-52784761D01*
X143130952Y-52832380D01*
X142988095Y-52832380D01*
X137488095Y-54532380D02*
X137488095Y-55341904D01*
X137535714Y-55437142D01*
X137583333Y-55484761D01*
X137678571Y-55532380D01*
X137869047Y-55532380D01*
X137964285Y-55484761D01*
X138011904Y-55437142D01*
X138059523Y-55341904D01*
X138059523Y-54532380D01*
X138488095Y-55484761D02*
X138630952Y-55532380D01*
X138869047Y-55532380D01*
X138964285Y-55484761D01*
X139011904Y-55437142D01*
X139059523Y-55341904D01*
X139059523Y-55246666D01*
X139011904Y-55151428D01*
X138964285Y-55103809D01*
X138869047Y-55056190D01*
X138678571Y-55008571D01*
X138583333Y-54960952D01*
X138535714Y-54913333D01*
X138488095Y-54818095D01*
X138488095Y-54722857D01*
X138535714Y-54627619D01*
X138583333Y-54580000D01*
X138678571Y-54532380D01*
X138916666Y-54532380D01*
X139059523Y-54580000D01*
X139821428Y-55008571D02*
X139964285Y-55056190D01*
X140011904Y-55103809D01*
X140059523Y-55199047D01*
X140059523Y-55341904D01*
X140011904Y-55437142D01*
X139964285Y-55484761D01*
X139869047Y-55532380D01*
X139488095Y-55532380D01*
X139488095Y-54532380D01*
X139821428Y-54532380D01*
X139916666Y-54580000D01*
X139964285Y-54627619D01*
X140011904Y-54722857D01*
X140011904Y-54818095D01*
X139964285Y-54913333D01*
X139916666Y-54960952D01*
X139821428Y-55008571D01*
X139488095Y-55008571D01*
%TO.C,U2*%
X149837619Y-66646666D02*
X150313809Y-66646666D01*
X149742380Y-66932380D02*
X150075714Y-65932380D01*
X150409047Y-66932380D01*
X150742380Y-66932380D02*
X150742380Y-65932380D01*
X151123333Y-65932380D01*
X151218571Y-65980000D01*
X151266190Y-66027619D01*
X151313809Y-66122857D01*
X151313809Y-66265714D01*
X151266190Y-66360952D01*
X151218571Y-66408571D01*
X151123333Y-66456190D01*
X150742380Y-66456190D01*
X151694761Y-66027619D02*
X151742380Y-65980000D01*
X151837619Y-65932380D01*
X152075714Y-65932380D01*
X152170952Y-65980000D01*
X152218571Y-66027619D01*
X152266190Y-66122857D01*
X152266190Y-66218095D01*
X152218571Y-66360952D01*
X151647142Y-66932380D01*
X152266190Y-66932380D01*
X153218571Y-66932380D02*
X152647142Y-66932380D01*
X152932857Y-66932380D02*
X152932857Y-65932380D01*
X152837619Y-66075238D01*
X152742380Y-66170476D01*
X152647142Y-66218095D01*
X154170952Y-66932380D02*
X153599523Y-66932380D01*
X153885238Y-66932380D02*
X153885238Y-65932380D01*
X153790000Y-66075238D01*
X153694761Y-66170476D01*
X153599523Y-66218095D01*
X154551904Y-66027619D02*
X154599523Y-65980000D01*
X154694761Y-65932380D01*
X154932857Y-65932380D01*
X155028095Y-65980000D01*
X155075714Y-66027619D01*
X155123333Y-66122857D01*
X155123333Y-66218095D01*
X155075714Y-66360952D01*
X154504285Y-66932380D01*
X155123333Y-66932380D01*
X155551904Y-66932380D02*
X155551904Y-65932380D01*
X156123333Y-66932380D02*
X155694761Y-66360952D01*
X156123333Y-65932380D02*
X155551904Y-66503809D01*
X156551904Y-66551428D02*
X157313809Y-66551428D01*
X157694761Y-65932380D02*
X158313809Y-65932380D01*
X157980476Y-66313333D01*
X158123333Y-66313333D01*
X158218571Y-66360952D01*
X158266190Y-66408571D01*
X158313809Y-66503809D01*
X158313809Y-66741904D01*
X158266190Y-66837142D01*
X158218571Y-66884761D01*
X158123333Y-66932380D01*
X157837619Y-66932380D01*
X157742380Y-66884761D01*
X157694761Y-66837142D01*
X158742380Y-66837142D02*
X158790000Y-66884761D01*
X158742380Y-66932380D01*
X158694761Y-66884761D01*
X158742380Y-66837142D01*
X158742380Y-66932380D01*
X159123333Y-65932380D02*
X159742380Y-65932380D01*
X159409047Y-66313333D01*
X159551904Y-66313333D01*
X159647142Y-66360952D01*
X159694761Y-66408571D01*
X159742380Y-66503809D01*
X159742380Y-66741904D01*
X159694761Y-66837142D01*
X159647142Y-66884761D01*
X159551904Y-66932380D01*
X159266190Y-66932380D01*
X159170952Y-66884761D01*
X159123333Y-66837142D01*
D13*
X154516190Y-69760952D02*
X154920952Y-69760952D01*
X154968571Y-69737142D01*
X154992380Y-69713333D01*
X155016190Y-69665714D01*
X155016190Y-69570476D01*
X154992380Y-69522857D01*
X154968571Y-69499047D01*
X154920952Y-69475238D01*
X154516190Y-69475238D01*
X154563809Y-69260952D02*
X154540000Y-69237142D01*
X154516190Y-69189523D01*
X154516190Y-69070476D01*
X154540000Y-69022857D01*
X154563809Y-68999047D01*
X154611428Y-68975238D01*
X154659047Y-68975238D01*
X154730476Y-68999047D01*
X155016190Y-69284761D01*
X155016190Y-68975238D01*
%TO.C,R3*%
D11*
X156535714Y-77432380D02*
X155964285Y-77432380D01*
X156250000Y-77432380D02*
X156250000Y-76432380D01*
X156154761Y-76575238D01*
X156059523Y-76670476D01*
X155964285Y-76718095D01*
X156964285Y-77432380D02*
X156964285Y-76432380D01*
X157535714Y-77432380D02*
X157107142Y-76860952D01*
X157535714Y-76432380D02*
X156964285Y-77003809D01*
D12*
X156666666Y-78856190D02*
X156500000Y-78618095D01*
X156380952Y-78856190D02*
X156380952Y-78356190D01*
X156571428Y-78356190D01*
X156619047Y-78380000D01*
X156642857Y-78403809D01*
X156666666Y-78451428D01*
X156666666Y-78522857D01*
X156642857Y-78570476D01*
X156619047Y-78594285D01*
X156571428Y-78618095D01*
X156380952Y-78618095D01*
X156833333Y-78356190D02*
X157142857Y-78356190D01*
X156976190Y-78546666D01*
X157047619Y-78546666D01*
X157095238Y-78570476D01*
X157119047Y-78594285D01*
X157142857Y-78641904D01*
X157142857Y-78760952D01*
X157119047Y-78808571D01*
X157095238Y-78832380D01*
X157047619Y-78856190D01*
X156904761Y-78856190D01*
X156857142Y-78832380D01*
X156833333Y-78808571D01*
%TO.C,JP1*%
D11*
X155162333Y-59591761D02*
X155305190Y-59639380D01*
X155543285Y-59639380D01*
X155638523Y-59591761D01*
X155686142Y-59544142D01*
X155733761Y-59448904D01*
X155733761Y-59353666D01*
X155686142Y-59258428D01*
X155638523Y-59210809D01*
X155543285Y-59163190D01*
X155352809Y-59115571D01*
X155257571Y-59067952D01*
X155209952Y-59020333D01*
X155162333Y-58925095D01*
X155162333Y-58829857D01*
X155209952Y-58734619D01*
X155257571Y-58687000D01*
X155352809Y-58639380D01*
X155590904Y-58639380D01*
X155733761Y-58687000D01*
X156448047Y-58639380D02*
X156448047Y-59353666D01*
X156400428Y-59496523D01*
X156305190Y-59591761D01*
X156162333Y-59639380D01*
X156067095Y-59639380D01*
%TO.C,D5*%
X143137071Y-100767571D02*
X143279928Y-100815190D01*
X143327547Y-100862809D01*
X143375166Y-100958047D01*
X143375166Y-101100904D01*
X143327547Y-101196142D01*
X143279928Y-101243761D01*
X143184690Y-101291380D01*
X142803738Y-101291380D01*
X142803738Y-100291380D01*
X143137071Y-100291380D01*
X143232309Y-100339000D01*
X143279928Y-100386619D01*
X143327547Y-100481857D01*
X143327547Y-100577095D01*
X143279928Y-100672333D01*
X143232309Y-100719952D01*
X143137071Y-100767571D01*
X142803738Y-100767571D01*
X143946595Y-101291380D02*
X143851357Y-101243761D01*
X143803738Y-101148523D01*
X143803738Y-100291380D01*
X144756119Y-100624714D02*
X144756119Y-101291380D01*
X144327547Y-100624714D02*
X144327547Y-101148523D01*
X144375166Y-101243761D01*
X144470404Y-101291380D01*
X144613261Y-101291380D01*
X144708500Y-101243761D01*
X144756119Y-101196142D01*
X145613261Y-101243761D02*
X145518023Y-101291380D01*
X145327547Y-101291380D01*
X145232309Y-101243761D01*
X145184690Y-101148523D01*
X145184690Y-100767571D01*
X145232309Y-100672333D01*
X145327547Y-100624714D01*
X145518023Y-100624714D01*
X145613261Y-100672333D01*
X145660880Y-100767571D01*
X145660880Y-100862809D01*
X145184690Y-100958047D01*
D12*
X143839452Y-102715190D02*
X143839452Y-102215190D01*
X143958500Y-102215190D01*
X144029928Y-102239000D01*
X144077547Y-102286619D01*
X144101357Y-102334238D01*
X144125166Y-102429476D01*
X144125166Y-102500904D01*
X144101357Y-102596142D01*
X144077547Y-102643761D01*
X144029928Y-102691380D01*
X143958500Y-102715190D01*
X143839452Y-102715190D01*
X144577547Y-102215190D02*
X144339452Y-102215190D01*
X144315642Y-102453285D01*
X144339452Y-102429476D01*
X144387071Y-102405666D01*
X144506119Y-102405666D01*
X144553738Y-102429476D01*
X144577547Y-102453285D01*
X144601357Y-102500904D01*
X144601357Y-102619952D01*
X144577547Y-102667571D01*
X144553738Y-102691380D01*
X144506119Y-102715190D01*
X144387071Y-102715190D01*
X144339452Y-102691380D01*
X144315642Y-102667571D01*
%TO.C,BATTERY*%
D11*
X125919047Y-65372380D02*
X125442857Y-65372380D01*
X125442857Y-64372380D01*
X126252380Y-65372380D02*
X126252380Y-64705714D01*
X126252380Y-64372380D02*
X126204761Y-64420000D01*
X126252380Y-64467619D01*
X126300000Y-64420000D01*
X126252380Y-64372380D01*
X126252380Y-64467619D01*
X126728571Y-65372380D02*
X126728571Y-64372380D01*
X127109523Y-64372380D01*
X127204761Y-64420000D01*
X127252380Y-64467619D01*
X127300000Y-64562857D01*
X127300000Y-64705714D01*
X127252380Y-64800952D01*
X127204761Y-64848571D01*
X127109523Y-64896190D01*
X126728571Y-64896190D01*
X127871428Y-65372380D02*
X127776190Y-65324761D01*
X127728571Y-65277142D01*
X127680952Y-65181904D01*
X127680952Y-64896190D01*
X127728571Y-64800952D01*
X127776190Y-64753333D01*
X127871428Y-64705714D01*
X128014285Y-64705714D01*
X128109523Y-64753333D01*
X128157142Y-64800952D01*
X128204761Y-64896190D01*
X128204761Y-65181904D01*
X128157142Y-65277142D01*
X128109523Y-65324761D01*
X128014285Y-65372380D01*
X127871428Y-65372380D01*
X124300000Y-69798571D02*
X124442857Y-69846190D01*
X124490476Y-69893809D01*
X124538095Y-69989047D01*
X124538095Y-70131904D01*
X124490476Y-70227142D01*
X124442857Y-70274761D01*
X124347619Y-70322380D01*
X123966666Y-70322380D01*
X123966666Y-69322380D01*
X124300000Y-69322380D01*
X124395238Y-69370000D01*
X124442857Y-69417619D01*
X124490476Y-69512857D01*
X124490476Y-69608095D01*
X124442857Y-69703333D01*
X124395238Y-69750952D01*
X124300000Y-69798571D01*
X123966666Y-69798571D01*
X124919047Y-70036666D02*
X125395238Y-70036666D01*
X124823809Y-70322380D02*
X125157142Y-69322380D01*
X125490476Y-70322380D01*
X125680952Y-69322380D02*
X126252380Y-69322380D01*
X125966666Y-70322380D02*
X125966666Y-69322380D01*
X126442857Y-69322380D02*
X127014285Y-69322380D01*
X126728571Y-70322380D02*
X126728571Y-69322380D01*
X127347619Y-69798571D02*
X127680952Y-69798571D01*
X127823809Y-70322380D02*
X127347619Y-70322380D01*
X127347619Y-69322380D01*
X127823809Y-69322380D01*
X128823809Y-70322380D02*
X128490476Y-69846190D01*
X128252380Y-70322380D02*
X128252380Y-69322380D01*
X128633333Y-69322380D01*
X128728571Y-69370000D01*
X128776190Y-69417619D01*
X128823809Y-69512857D01*
X128823809Y-69655714D01*
X128776190Y-69750952D01*
X128728571Y-69798571D01*
X128633333Y-69846190D01*
X128252380Y-69846190D01*
X129442857Y-69846190D02*
X129442857Y-70322380D01*
X129109523Y-69322380D02*
X129442857Y-69846190D01*
X129776190Y-69322380D01*
%TO.C,U1*%
X136386714Y-80804780D02*
X136386714Y-79804780D01*
X136720047Y-80519066D01*
X137053380Y-79804780D01*
X137053380Y-80804780D01*
X138101000Y-80709542D02*
X138053380Y-80757161D01*
X137910523Y-80804780D01*
X137815285Y-80804780D01*
X137672428Y-80757161D01*
X137577190Y-80661923D01*
X137529571Y-80566685D01*
X137481952Y-80376209D01*
X137481952Y-80233352D01*
X137529571Y-80042876D01*
X137577190Y-79947638D01*
X137672428Y-79852400D01*
X137815285Y-79804780D01*
X137910523Y-79804780D01*
X138053380Y-79852400D01*
X138101000Y-79900019D01*
X138529571Y-80804780D02*
X138529571Y-79804780D01*
X138910523Y-79804780D01*
X139005761Y-79852400D01*
X139053380Y-79900019D01*
X139101000Y-79995257D01*
X139101000Y-80138114D01*
X139053380Y-80233352D01*
X139005761Y-80280971D01*
X138910523Y-80328590D01*
X138529571Y-80328590D01*
X139434333Y-79804780D02*
X140101000Y-79804780D01*
X139672428Y-80804780D01*
X140386714Y-79804780D02*
X141005761Y-79804780D01*
X140672428Y-80185733D01*
X140815285Y-80185733D01*
X140910523Y-80233352D01*
X140958142Y-80280971D01*
X141005761Y-80376209D01*
X141005761Y-80614304D01*
X140958142Y-80709542D01*
X140910523Y-80757161D01*
X140815285Y-80804780D01*
X140529571Y-80804780D01*
X140434333Y-80757161D01*
X140386714Y-80709542D01*
X141577190Y-80233352D02*
X141481952Y-80185733D01*
X141434333Y-80138114D01*
X141386714Y-80042876D01*
X141386714Y-79995257D01*
X141434333Y-79900019D01*
X141481952Y-79852400D01*
X141577190Y-79804780D01*
X141767666Y-79804780D01*
X141862904Y-79852400D01*
X141910523Y-79900019D01*
X141958142Y-79995257D01*
X141958142Y-80042876D01*
X141910523Y-80138114D01*
X141862904Y-80185733D01*
X141767666Y-80233352D01*
X141577190Y-80233352D01*
X141481952Y-80280971D01*
X141434333Y-80328590D01*
X141386714Y-80423828D01*
X141386714Y-80614304D01*
X141434333Y-80709542D01*
X141481952Y-80757161D01*
X141577190Y-80804780D01*
X141767666Y-80804780D01*
X141862904Y-80757161D01*
X141910523Y-80709542D01*
X141958142Y-80614304D01*
X141958142Y-80423828D01*
X141910523Y-80328590D01*
X141862904Y-80280971D01*
X141767666Y-80233352D01*
X142291476Y-79804780D02*
X142910523Y-79804780D01*
X142577190Y-80185733D01*
X142720047Y-80185733D01*
X142815285Y-80233352D01*
X142862904Y-80280971D01*
X142910523Y-80376209D01*
X142910523Y-80614304D01*
X142862904Y-80709542D01*
X142815285Y-80757161D01*
X142720047Y-80804780D01*
X142434333Y-80804780D01*
X142339095Y-80757161D01*
X142291476Y-80709542D01*
X143862904Y-80804780D02*
X143291476Y-80804780D01*
X143577190Y-80804780D02*
X143577190Y-79804780D01*
X143481952Y-79947638D01*
X143386714Y-80042876D01*
X143291476Y-80090495D01*
D13*
X139827190Y-77833352D02*
X140231952Y-77833352D01*
X140279571Y-77809542D01*
X140303380Y-77785733D01*
X140327190Y-77738114D01*
X140327190Y-77642876D01*
X140303380Y-77595257D01*
X140279571Y-77571447D01*
X140231952Y-77547638D01*
X139827190Y-77547638D01*
X140327190Y-77047638D02*
X140327190Y-77333352D01*
X140327190Y-77190495D02*
X139827190Y-77190495D01*
X139898619Y-77238114D01*
X139946238Y-77285733D01*
X139970047Y-77333352D01*
%TO.C,BOOT*%
D11*
X134234761Y-111129285D02*
X134282380Y-110986428D01*
X134282380Y-110748333D01*
X134234761Y-110653095D01*
X134187142Y-110605476D01*
X134091904Y-110557857D01*
X133996666Y-110557857D01*
X133901428Y-110605476D01*
X133853809Y-110653095D01*
X133806190Y-110748333D01*
X133758571Y-110938809D01*
X133710952Y-111034047D01*
X133663333Y-111081666D01*
X133568095Y-111129285D01*
X133472857Y-111129285D01*
X133377619Y-111081666D01*
X133330000Y-111034047D01*
X133282380Y-110938809D01*
X133282380Y-110700714D01*
X133330000Y-110557857D01*
X133615714Y-110224523D02*
X134282380Y-110034047D01*
X133806190Y-109843571D01*
X134282380Y-109653095D01*
X133615714Y-109462619D01*
X134282380Y-109081666D02*
X133615714Y-109081666D01*
X133282380Y-109081666D02*
X133330000Y-109129285D01*
X133377619Y-109081666D01*
X133330000Y-109034047D01*
X133282380Y-109081666D01*
X133377619Y-109081666D01*
X133615714Y-108748333D02*
X133615714Y-108367380D01*
X133282380Y-108605476D02*
X134139523Y-108605476D01*
X134234761Y-108557857D01*
X134282380Y-108462619D01*
X134282380Y-108367380D01*
X134234761Y-107605476D02*
X134282380Y-107700714D01*
X134282380Y-107891190D01*
X134234761Y-107986428D01*
X134187142Y-108034047D01*
X134091904Y-108081666D01*
X133806190Y-108081666D01*
X133710952Y-108034047D01*
X133663333Y-107986428D01*
X133615714Y-107891190D01*
X133615714Y-107700714D01*
X133663333Y-107605476D01*
X134282380Y-107176904D02*
X133282380Y-107176904D01*
X134282380Y-106748333D02*
X133758571Y-106748333D01*
X133663333Y-106795952D01*
X133615714Y-106891190D01*
X133615714Y-107034047D01*
X133663333Y-107129285D01*
X133710952Y-107176904D01*
X128758571Y-110272142D02*
X128806190Y-110129285D01*
X128853809Y-110081666D01*
X128949047Y-110034047D01*
X129091904Y-110034047D01*
X129187142Y-110081666D01*
X129234761Y-110129285D01*
X129282380Y-110224523D01*
X129282380Y-110605476D01*
X128282380Y-110605476D01*
X128282380Y-110272142D01*
X128330000Y-110176904D01*
X128377619Y-110129285D01*
X128472857Y-110081666D01*
X128568095Y-110081666D01*
X128663333Y-110129285D01*
X128710952Y-110176904D01*
X128758571Y-110272142D01*
X128758571Y-110605476D01*
X128282380Y-109415000D02*
X128282380Y-109224523D01*
X128330000Y-109129285D01*
X128425238Y-109034047D01*
X128615714Y-108986428D01*
X128949047Y-108986428D01*
X129139523Y-109034047D01*
X129234761Y-109129285D01*
X129282380Y-109224523D01*
X129282380Y-109415000D01*
X129234761Y-109510238D01*
X129139523Y-109605476D01*
X128949047Y-109653095D01*
X128615714Y-109653095D01*
X128425238Y-109605476D01*
X128330000Y-109510238D01*
X128282380Y-109415000D01*
X128282380Y-108367380D02*
X128282380Y-108176904D01*
X128330000Y-108081666D01*
X128425238Y-107986428D01*
X128615714Y-107938809D01*
X128949047Y-107938809D01*
X129139523Y-107986428D01*
X129234761Y-108081666D01*
X129282380Y-108176904D01*
X129282380Y-108367380D01*
X129234761Y-108462619D01*
X129139523Y-108557857D01*
X128949047Y-108605476D01*
X128615714Y-108605476D01*
X128425238Y-108557857D01*
X128330000Y-108462619D01*
X128282380Y-108367380D01*
X128282380Y-107653095D02*
X128282380Y-107081666D01*
X129282380Y-107367380D02*
X128282380Y-107367380D01*
%TO.C,R7*%
X133322380Y-109015476D02*
X133322380Y-109586904D01*
X133322380Y-109301190D02*
X132322380Y-109301190D01*
X132465238Y-109396428D01*
X132560476Y-109491666D01*
X132608095Y-109586904D01*
X132322380Y-108396428D02*
X132322380Y-108301190D01*
X132370000Y-108205952D01*
X132417619Y-108158333D01*
X132512857Y-108110714D01*
X132703333Y-108063095D01*
X132941428Y-108063095D01*
X133131904Y-108110714D01*
X133227142Y-108158333D01*
X133274761Y-108205952D01*
X133322380Y-108301190D01*
X133322380Y-108396428D01*
X133274761Y-108491666D01*
X133227142Y-108539285D01*
X133131904Y-108586904D01*
X132941428Y-108634523D01*
X132703333Y-108634523D01*
X132512857Y-108586904D01*
X132417619Y-108539285D01*
X132370000Y-108491666D01*
X132322380Y-108396428D01*
X133322380Y-107634523D02*
X132322380Y-107634523D01*
X133322380Y-107063095D02*
X132750952Y-107491666D01*
X132322380Y-107063095D02*
X132893809Y-107634523D01*
D12*
X134746190Y-108408333D02*
X134508095Y-108575000D01*
X134746190Y-108694047D02*
X134246190Y-108694047D01*
X134246190Y-108503571D01*
X134270000Y-108455952D01*
X134293809Y-108432142D01*
X134341428Y-108408333D01*
X134412857Y-108408333D01*
X134460476Y-108432142D01*
X134484285Y-108455952D01*
X134508095Y-108503571D01*
X134508095Y-108694047D01*
X134246190Y-108241666D02*
X134246190Y-107908333D01*
X134746190Y-108122619D01*
%TO.C,R9*%
D11*
X163589523Y-111802380D02*
X163018095Y-111802380D01*
X163303809Y-111802380D02*
X163303809Y-110802380D01*
X163208571Y-110945238D01*
X163113333Y-111040476D01*
X163018095Y-111088095D01*
X164208571Y-110802380D02*
X164303809Y-110802380D01*
X164399047Y-110850000D01*
X164446666Y-110897619D01*
X164494285Y-110992857D01*
X164541904Y-111183333D01*
X164541904Y-111421428D01*
X164494285Y-111611904D01*
X164446666Y-111707142D01*
X164399047Y-111754761D01*
X164303809Y-111802380D01*
X164208571Y-111802380D01*
X164113333Y-111754761D01*
X164065714Y-111707142D01*
X164018095Y-111611904D01*
X163970476Y-111421428D01*
X163970476Y-111183333D01*
X164018095Y-110992857D01*
X164065714Y-110897619D01*
X164113333Y-110850000D01*
X164208571Y-110802380D01*
X164970476Y-111802380D02*
X164970476Y-110802380D01*
X165541904Y-111802380D02*
X165113333Y-111230952D01*
X165541904Y-110802380D02*
X164970476Y-111373809D01*
D12*
X164196666Y-113226190D02*
X164030000Y-112988095D01*
X163910952Y-113226190D02*
X163910952Y-112726190D01*
X164101428Y-112726190D01*
X164149047Y-112750000D01*
X164172857Y-112773809D01*
X164196666Y-112821428D01*
X164196666Y-112892857D01*
X164172857Y-112940476D01*
X164149047Y-112964285D01*
X164101428Y-112988095D01*
X163910952Y-112988095D01*
X164434761Y-113226190D02*
X164530000Y-113226190D01*
X164577619Y-113202380D01*
X164601428Y-113178571D01*
X164649047Y-113107142D01*
X164672857Y-113011904D01*
X164672857Y-112821428D01*
X164649047Y-112773809D01*
X164625238Y-112750000D01*
X164577619Y-112726190D01*
X164482380Y-112726190D01*
X164434761Y-112750000D01*
X164410952Y-112773809D01*
X164387142Y-112821428D01*
X164387142Y-112940476D01*
X164410952Y-112988095D01*
X164434761Y-113011904D01*
X164482380Y-113035714D01*
X164577619Y-113035714D01*
X164625238Y-113011904D01*
X164649047Y-112988095D01*
X164672857Y-112940476D01*
%TO.C,R8*%
D11*
X153265214Y-104591380D02*
X152693785Y-104591380D01*
X152979500Y-104591380D02*
X152979500Y-103591380D01*
X152884261Y-103734238D01*
X152789023Y-103829476D01*
X152693785Y-103877095D01*
X153693785Y-104591380D02*
X153693785Y-103591380D01*
X154265214Y-104591380D02*
X153836642Y-104019952D01*
X154265214Y-103591380D02*
X153693785Y-104162809D01*
D12*
X153396166Y-102715190D02*
X153229500Y-102477095D01*
X153110452Y-102715190D02*
X153110452Y-102215190D01*
X153300928Y-102215190D01*
X153348547Y-102239000D01*
X153372357Y-102262809D01*
X153396166Y-102310428D01*
X153396166Y-102381857D01*
X153372357Y-102429476D01*
X153348547Y-102453285D01*
X153300928Y-102477095D01*
X153110452Y-102477095D01*
X153681880Y-102429476D02*
X153634261Y-102405666D01*
X153610452Y-102381857D01*
X153586642Y-102334238D01*
X153586642Y-102310428D01*
X153610452Y-102262809D01*
X153634261Y-102239000D01*
X153681880Y-102215190D01*
X153777119Y-102215190D01*
X153824738Y-102239000D01*
X153848547Y-102262809D01*
X153872357Y-102310428D01*
X153872357Y-102334238D01*
X153848547Y-102381857D01*
X153824738Y-102405666D01*
X153777119Y-102429476D01*
X153681880Y-102429476D01*
X153634261Y-102453285D01*
X153610452Y-102477095D01*
X153586642Y-102524714D01*
X153586642Y-102619952D01*
X153610452Y-102667571D01*
X153634261Y-102691380D01*
X153681880Y-102715190D01*
X153777119Y-102715190D01*
X153824738Y-102691380D01*
X153848547Y-102667571D01*
X153872357Y-102619952D01*
X153872357Y-102524714D01*
X153848547Y-102477095D01*
X153824738Y-102453285D01*
X153777119Y-102429476D01*
%TO.C,R6*%
D11*
X159780314Y-59889380D02*
X159208885Y-59889380D01*
X159494600Y-59889380D02*
X159494600Y-58889380D01*
X159399361Y-59032238D01*
X159304123Y-59127476D01*
X159208885Y-59175095D01*
X160208885Y-59889380D02*
X160208885Y-58889380D01*
X160780314Y-59889380D02*
X160351742Y-59317952D01*
X160780314Y-58889380D02*
X160208885Y-59460809D01*
D12*
X159911266Y-61313190D02*
X159744600Y-61075095D01*
X159625552Y-61313190D02*
X159625552Y-60813190D01*
X159816028Y-60813190D01*
X159863647Y-60837000D01*
X159887457Y-60860809D01*
X159911266Y-60908428D01*
X159911266Y-60979857D01*
X159887457Y-61027476D01*
X159863647Y-61051285D01*
X159816028Y-61075095D01*
X159625552Y-61075095D01*
X160339838Y-60813190D02*
X160244600Y-60813190D01*
X160196980Y-60837000D01*
X160173171Y-60860809D01*
X160125552Y-60932238D01*
X160101742Y-61027476D01*
X160101742Y-61217952D01*
X160125552Y-61265571D01*
X160149361Y-61289380D01*
X160196980Y-61313190D01*
X160292219Y-61313190D01*
X160339838Y-61289380D01*
X160363647Y-61265571D01*
X160387457Y-61217952D01*
X160387457Y-61098904D01*
X160363647Y-61051285D01*
X160339838Y-61027476D01*
X160292219Y-61003666D01*
X160196980Y-61003666D01*
X160149361Y-61027476D01*
X160125552Y-61051285D01*
X160101742Y-61098904D01*
%TO.C,R5*%
D11*
X145131000Y-77710019D02*
X145178619Y-77662400D01*
X145273857Y-77614780D01*
X145511952Y-77614780D01*
X145607190Y-77662400D01*
X145654809Y-77710019D01*
X145702428Y-77805257D01*
X145702428Y-77900495D01*
X145654809Y-78043352D01*
X145083380Y-78614780D01*
X145702428Y-78614780D01*
X146131000Y-78519542D02*
X146178619Y-78567161D01*
X146131000Y-78614780D01*
X146083380Y-78567161D01*
X146131000Y-78519542D01*
X146131000Y-78614780D01*
X146797666Y-77614780D02*
X146892904Y-77614780D01*
X146988142Y-77662400D01*
X147035761Y-77710019D01*
X147083380Y-77805257D01*
X147131000Y-77995733D01*
X147131000Y-78233828D01*
X147083380Y-78424304D01*
X147035761Y-78519542D01*
X146988142Y-78567161D01*
X146892904Y-78614780D01*
X146797666Y-78614780D01*
X146702428Y-78567161D01*
X146654809Y-78519542D01*
X146607190Y-78424304D01*
X146559571Y-78233828D01*
X146559571Y-77995733D01*
X146607190Y-77805257D01*
X146654809Y-77710019D01*
X146702428Y-77662400D01*
X146797666Y-77614780D01*
X147559571Y-78614780D02*
X147559571Y-77614780D01*
X148131000Y-78614780D02*
X147702428Y-78043352D01*
X148131000Y-77614780D02*
X147559571Y-78186209D01*
D12*
X146547666Y-76738590D02*
X146381000Y-76500495D01*
X146261952Y-76738590D02*
X146261952Y-76238590D01*
X146452428Y-76238590D01*
X146500047Y-76262400D01*
X146523857Y-76286209D01*
X146547666Y-76333828D01*
X146547666Y-76405257D01*
X146523857Y-76452876D01*
X146500047Y-76476685D01*
X146452428Y-76500495D01*
X146261952Y-76500495D01*
X147000047Y-76238590D02*
X146761952Y-76238590D01*
X146738142Y-76476685D01*
X146761952Y-76452876D01*
X146809571Y-76429066D01*
X146928619Y-76429066D01*
X146976238Y-76452876D01*
X147000047Y-76476685D01*
X147023857Y-76524304D01*
X147023857Y-76643352D01*
X147000047Y-76690971D01*
X146976238Y-76714780D01*
X146928619Y-76738590D01*
X146809571Y-76738590D01*
X146761952Y-76714780D01*
X146738142Y-76690971D01*
%TO.C,R4*%
D11*
X158414380Y-70341066D02*
X158414380Y-70912495D01*
X158414380Y-70626780D02*
X157414380Y-70626780D01*
X157557238Y-70722019D01*
X157652476Y-70817257D01*
X157700095Y-70912495D01*
X157414380Y-69722019D02*
X157414380Y-69626780D01*
X157462000Y-69531542D01*
X157509619Y-69483923D01*
X157604857Y-69436304D01*
X157795333Y-69388685D01*
X158033428Y-69388685D01*
X158223904Y-69436304D01*
X158319142Y-69483923D01*
X158366761Y-69531542D01*
X158414380Y-69626780D01*
X158414380Y-69722019D01*
X158366761Y-69817257D01*
X158319142Y-69864876D01*
X158223904Y-69912495D01*
X158033428Y-69960114D01*
X157795333Y-69960114D01*
X157604857Y-69912495D01*
X157509619Y-69864876D01*
X157462000Y-69817257D01*
X157414380Y-69722019D01*
X157414380Y-68769638D02*
X157414380Y-68674400D01*
X157462000Y-68579161D01*
X157509619Y-68531542D01*
X157604857Y-68483923D01*
X157795333Y-68436304D01*
X158033428Y-68436304D01*
X158223904Y-68483923D01*
X158319142Y-68531542D01*
X158366761Y-68579161D01*
X158414380Y-68674400D01*
X158414380Y-68769638D01*
X158366761Y-68864876D01*
X158319142Y-68912495D01*
X158223904Y-68960114D01*
X158033428Y-69007733D01*
X157795333Y-69007733D01*
X157604857Y-68960114D01*
X157509619Y-68912495D01*
X157462000Y-68864876D01*
X157414380Y-68769638D01*
X158414380Y-68007733D02*
X157414380Y-68007733D01*
X158414380Y-67436304D02*
X157842952Y-67864876D01*
X157414380Y-67436304D02*
X157985809Y-68007733D01*
D12*
X159838190Y-69257733D02*
X159600095Y-69424400D01*
X159838190Y-69543447D02*
X159338190Y-69543447D01*
X159338190Y-69352971D01*
X159362000Y-69305352D01*
X159385809Y-69281542D01*
X159433428Y-69257733D01*
X159504857Y-69257733D01*
X159552476Y-69281542D01*
X159576285Y-69305352D01*
X159600095Y-69352971D01*
X159600095Y-69543447D01*
X159504857Y-68829161D02*
X159838190Y-68829161D01*
X159314380Y-68948209D02*
X159671523Y-69067257D01*
X159671523Y-68757733D01*
%TO.C,R2*%
D11*
X145486523Y-64867780D02*
X144915095Y-64867780D01*
X145200809Y-64867780D02*
X145200809Y-63867780D01*
X145105571Y-64010638D01*
X145010333Y-64105876D01*
X144915095Y-64153495D01*
X146105571Y-63867780D02*
X146200809Y-63867780D01*
X146296047Y-63915400D01*
X146343666Y-63963019D01*
X146391285Y-64058257D01*
X146438904Y-64248733D01*
X146438904Y-64486828D01*
X146391285Y-64677304D01*
X146343666Y-64772542D01*
X146296047Y-64820161D01*
X146200809Y-64867780D01*
X146105571Y-64867780D01*
X146010333Y-64820161D01*
X145962714Y-64772542D01*
X145915095Y-64677304D01*
X145867476Y-64486828D01*
X145867476Y-64248733D01*
X145915095Y-64058257D01*
X145962714Y-63963019D01*
X146010333Y-63915400D01*
X146105571Y-63867780D01*
X146867476Y-64867780D02*
X146867476Y-63867780D01*
X147438904Y-64867780D02*
X147010333Y-64296352D01*
X147438904Y-63867780D02*
X146867476Y-64439209D01*
D12*
X146093666Y-66291590D02*
X145927000Y-66053495D01*
X145807952Y-66291590D02*
X145807952Y-65791590D01*
X145998428Y-65791590D01*
X146046047Y-65815400D01*
X146069857Y-65839209D01*
X146093666Y-65886828D01*
X146093666Y-65958257D01*
X146069857Y-66005876D01*
X146046047Y-66029685D01*
X145998428Y-66053495D01*
X145807952Y-66053495D01*
X146284142Y-65839209D02*
X146307952Y-65815400D01*
X146355571Y-65791590D01*
X146474619Y-65791590D01*
X146522238Y-65815400D01*
X146546047Y-65839209D01*
X146569857Y-65886828D01*
X146569857Y-65934447D01*
X146546047Y-66005876D01*
X146260333Y-66291590D01*
X146569857Y-66291590D01*
%TO.C,R1*%
D11*
X152105714Y-80712380D02*
X151534285Y-80712380D01*
X151820000Y-80712380D02*
X151820000Y-79712380D01*
X151724761Y-79855238D01*
X151629523Y-79950476D01*
X151534285Y-79998095D01*
X152534285Y-80712380D02*
X152534285Y-79712380D01*
X153105714Y-80712380D02*
X152677142Y-80140952D01*
X153105714Y-79712380D02*
X152534285Y-80283809D01*
D12*
X152236666Y-78836190D02*
X152070000Y-78598095D01*
X151950952Y-78836190D02*
X151950952Y-78336190D01*
X152141428Y-78336190D01*
X152189047Y-78360000D01*
X152212857Y-78383809D01*
X152236666Y-78431428D01*
X152236666Y-78502857D01*
X152212857Y-78550476D01*
X152189047Y-78574285D01*
X152141428Y-78598095D01*
X151950952Y-78598095D01*
X152712857Y-78836190D02*
X152427142Y-78836190D01*
X152570000Y-78836190D02*
X152570000Y-78336190D01*
X152522380Y-78407619D01*
X152474761Y-78455238D01*
X152427142Y-78479047D01*
%TO.C,Q1*%
D11*
X136747666Y-66542019D02*
X136795285Y-66494400D01*
X136890523Y-66446780D01*
X137128619Y-66446780D01*
X137223857Y-66494400D01*
X137271476Y-66542019D01*
X137319095Y-66637257D01*
X137319095Y-66732495D01*
X137271476Y-66875352D01*
X136700047Y-67446780D01*
X137319095Y-67446780D01*
X137747666Y-67351542D02*
X137795285Y-67399161D01*
X137747666Y-67446780D01*
X137700047Y-67399161D01*
X137747666Y-67351542D01*
X137747666Y-67446780D01*
X138700047Y-66446780D02*
X138223857Y-66446780D01*
X138176238Y-66922971D01*
X138223857Y-66875352D01*
X138319095Y-66827733D01*
X138557190Y-66827733D01*
X138652428Y-66875352D01*
X138700047Y-66922971D01*
X138747666Y-67018209D01*
X138747666Y-67256304D01*
X138700047Y-67351542D01*
X138652428Y-67399161D01*
X138557190Y-67446780D01*
X138319095Y-67446780D01*
X138223857Y-67399161D01*
X138176238Y-67351542D01*
X139128619Y-67161066D02*
X139604809Y-67161066D01*
X139033380Y-67446780D02*
X139366714Y-66446780D01*
X139700047Y-67446780D01*
X140747666Y-66399161D02*
X139890523Y-67684876D01*
X140985761Y-66446780D02*
X141604809Y-66446780D01*
X141271476Y-66827733D01*
X141414333Y-66827733D01*
X141509571Y-66875352D01*
X141557190Y-66922971D01*
X141604809Y-67018209D01*
X141604809Y-67256304D01*
X141557190Y-67351542D01*
X141509571Y-67399161D01*
X141414333Y-67446780D01*
X141128619Y-67446780D01*
X141033380Y-67399161D01*
X140985761Y-67351542D01*
X142223857Y-66446780D02*
X142319095Y-66446780D01*
X142414333Y-66494400D01*
X142461952Y-66542019D01*
X142509571Y-66637257D01*
X142557190Y-66827733D01*
X142557190Y-67065828D01*
X142509571Y-67256304D01*
X142461952Y-67351542D01*
X142414333Y-67399161D01*
X142319095Y-67446780D01*
X142223857Y-67446780D01*
X142128619Y-67399161D01*
X142081000Y-67351542D01*
X142033380Y-67256304D01*
X141985761Y-67065828D01*
X141985761Y-66827733D01*
X142033380Y-66637257D01*
X142081000Y-66542019D01*
X142128619Y-66494400D01*
X142223857Y-66446780D01*
X142842904Y-66446780D02*
X143176238Y-67446780D01*
X143509571Y-66446780D01*
D13*
X140354809Y-69542019D02*
X140331000Y-69589638D01*
X140283380Y-69637257D01*
X140211952Y-69708685D01*
X140188142Y-69756304D01*
X140188142Y-69803923D01*
X140307190Y-69780114D02*
X140283380Y-69827733D01*
X140235761Y-69875352D01*
X140140523Y-69899161D01*
X139973857Y-69899161D01*
X139878619Y-69875352D01*
X139831000Y-69827733D01*
X139807190Y-69780114D01*
X139807190Y-69684876D01*
X139831000Y-69637257D01*
X139878619Y-69589638D01*
X139973857Y-69565828D01*
X140140523Y-69565828D01*
X140235761Y-69589638D01*
X140283380Y-69637257D01*
X140307190Y-69684876D01*
X140307190Y-69780114D01*
X140307190Y-69089638D02*
X140307190Y-69375352D01*
X140307190Y-69232495D02*
X139807190Y-69232495D01*
X139878619Y-69280114D01*
X139926238Y-69327733D01*
X139950047Y-69375352D01*
%TO.C,POWER*%
D11*
X156151428Y-52956190D02*
X156151428Y-53432380D01*
X155818095Y-52432380D02*
X156151428Y-52956190D01*
X156484761Y-52432380D01*
X157199047Y-53384761D02*
X157103809Y-53432380D01*
X156913333Y-53432380D01*
X156818095Y-53384761D01*
X156770476Y-53289523D01*
X156770476Y-52908571D01*
X156818095Y-52813333D01*
X156913333Y-52765714D01*
X157103809Y-52765714D01*
X157199047Y-52813333D01*
X157246666Y-52908571D01*
X157246666Y-53003809D01*
X156770476Y-53099047D01*
X157818095Y-53432380D02*
X157722857Y-53384761D01*
X157675238Y-53289523D01*
X157675238Y-52432380D01*
X158341904Y-53432380D02*
X158246666Y-53384761D01*
X158199047Y-53289523D01*
X158199047Y-52432380D01*
X158865714Y-53432380D02*
X158770476Y-53384761D01*
X158722857Y-53337142D01*
X158675238Y-53241904D01*
X158675238Y-52956190D01*
X158722857Y-52860952D01*
X158770476Y-52813333D01*
X158865714Y-52765714D01*
X159008571Y-52765714D01*
X159103809Y-52813333D01*
X159151428Y-52860952D01*
X159199047Y-52956190D01*
X159199047Y-53241904D01*
X159151428Y-53337142D01*
X159103809Y-53384761D01*
X159008571Y-53432380D01*
X158865714Y-53432380D01*
X159532380Y-52765714D02*
X159722857Y-53432380D01*
X159913333Y-52956190D01*
X160103809Y-53432380D01*
X160294285Y-52765714D01*
D12*
X156925238Y-54856190D02*
X156925238Y-54356190D01*
X157115714Y-54356190D01*
X157163333Y-54380000D01*
X157187142Y-54403809D01*
X157210952Y-54451428D01*
X157210952Y-54522857D01*
X157187142Y-54570476D01*
X157163333Y-54594285D01*
X157115714Y-54618095D01*
X156925238Y-54618095D01*
X157520476Y-54356190D02*
X157615714Y-54356190D01*
X157663333Y-54380000D01*
X157710952Y-54427619D01*
X157734761Y-54522857D01*
X157734761Y-54689523D01*
X157710952Y-54784761D01*
X157663333Y-54832380D01*
X157615714Y-54856190D01*
X157520476Y-54856190D01*
X157472857Y-54832380D01*
X157425238Y-54784761D01*
X157401428Y-54689523D01*
X157401428Y-54522857D01*
X157425238Y-54427619D01*
X157472857Y-54380000D01*
X157520476Y-54356190D01*
X157901428Y-54356190D02*
X158020476Y-54856190D01*
X158115714Y-54499047D01*
X158210952Y-54856190D01*
X158330000Y-54356190D01*
X158520476Y-54594285D02*
X158687142Y-54594285D01*
X158758571Y-54856190D02*
X158520476Y-54856190D01*
X158520476Y-54356190D01*
X158758571Y-54356190D01*
X159258571Y-54856190D02*
X159091904Y-54618095D01*
X158972857Y-54856190D02*
X158972857Y-54356190D01*
X159163333Y-54356190D01*
X159210952Y-54380000D01*
X159234761Y-54403809D01*
X159258571Y-54451428D01*
X159258571Y-54522857D01*
X159234761Y-54570476D01*
X159210952Y-54594285D01*
X159163333Y-54618095D01*
X158972857Y-54618095D01*
%TO.C,D1*%
D11*
X151748571Y-75302380D02*
X151415238Y-74826190D01*
X151177142Y-75302380D02*
X151177142Y-74302380D01*
X151558095Y-74302380D01*
X151653333Y-74350000D01*
X151700952Y-74397619D01*
X151748571Y-74492857D01*
X151748571Y-74635714D01*
X151700952Y-74730952D01*
X151653333Y-74778571D01*
X151558095Y-74826190D01*
X151177142Y-74826190D01*
X152558095Y-75254761D02*
X152462857Y-75302380D01*
X152272380Y-75302380D01*
X152177142Y-75254761D01*
X152129523Y-75159523D01*
X152129523Y-74778571D01*
X152177142Y-74683333D01*
X152272380Y-74635714D01*
X152462857Y-74635714D01*
X152558095Y-74683333D01*
X152605714Y-74778571D01*
X152605714Y-74873809D01*
X152129523Y-74969047D01*
X153462857Y-75302380D02*
X153462857Y-74302380D01*
X153462857Y-75254761D02*
X153367619Y-75302380D01*
X153177142Y-75302380D01*
X153081904Y-75254761D01*
X153034285Y-75207142D01*
X152986666Y-75111904D01*
X152986666Y-74826190D01*
X153034285Y-74730952D01*
X153081904Y-74683333D01*
X153177142Y-74635714D01*
X153367619Y-74635714D01*
X153462857Y-74683333D01*
D12*
X151950952Y-76726190D02*
X151950952Y-76226190D01*
X152070000Y-76226190D01*
X152141428Y-76250000D01*
X152189047Y-76297619D01*
X152212857Y-76345238D01*
X152236666Y-76440476D01*
X152236666Y-76511904D01*
X152212857Y-76607142D01*
X152189047Y-76654761D01*
X152141428Y-76702380D01*
X152070000Y-76726190D01*
X151950952Y-76726190D01*
X152712857Y-76726190D02*
X152427142Y-76726190D01*
X152570000Y-76726190D02*
X152570000Y-76226190D01*
X152522380Y-76297619D01*
X152474761Y-76345238D01*
X152427142Y-76369047D01*
%TO.C,C7*%
D11*
X164392380Y-111987619D02*
X164392380Y-111892380D01*
X164440000Y-111797142D01*
X164487619Y-111749523D01*
X164582857Y-111701904D01*
X164773333Y-111654285D01*
X165011428Y-111654285D01*
X165201904Y-111701904D01*
X165297142Y-111749523D01*
X165344761Y-111797142D01*
X165392380Y-111892380D01*
X165392380Y-111987619D01*
X165344761Y-112082857D01*
X165297142Y-112130476D01*
X165201904Y-112178095D01*
X165011428Y-112225714D01*
X164773333Y-112225714D01*
X164582857Y-112178095D01*
X164487619Y-112130476D01*
X164440000Y-112082857D01*
X164392380Y-111987619D01*
X165297142Y-111225714D02*
X165344761Y-111178095D01*
X165392380Y-111225714D01*
X165344761Y-111273333D01*
X165297142Y-111225714D01*
X165392380Y-111225714D01*
X165392380Y-110225714D02*
X165392380Y-110797142D01*
X165392380Y-110511428D02*
X164392380Y-110511428D01*
X164535238Y-110606666D01*
X164630476Y-110701904D01*
X164678095Y-110797142D01*
X164725714Y-109368571D02*
X165392380Y-109368571D01*
X164725714Y-109797142D02*
X165249523Y-109797142D01*
X165344761Y-109749523D01*
X165392380Y-109654285D01*
X165392380Y-109511428D01*
X165344761Y-109416190D01*
X165297142Y-109368571D01*
X164868571Y-108559047D02*
X164868571Y-108892380D01*
X165392380Y-108892380D02*
X164392380Y-108892380D01*
X164392380Y-108416190D01*
X164344761Y-107320952D02*
X165630476Y-108178095D01*
X164392380Y-106511428D02*
X164392380Y-106987619D01*
X164868571Y-107035238D01*
X164820952Y-106987619D01*
X164773333Y-106892380D01*
X164773333Y-106654285D01*
X164820952Y-106559047D01*
X164868571Y-106511428D01*
X164963809Y-106463809D01*
X165201904Y-106463809D01*
X165297142Y-106511428D01*
X165344761Y-106559047D01*
X165392380Y-106654285D01*
X165392380Y-106892380D01*
X165344761Y-106987619D01*
X165297142Y-107035238D01*
X164392380Y-105844761D02*
X164392380Y-105749523D01*
X164440000Y-105654285D01*
X164487619Y-105606666D01*
X164582857Y-105559047D01*
X164773333Y-105511428D01*
X165011428Y-105511428D01*
X165201904Y-105559047D01*
X165297142Y-105606666D01*
X165344761Y-105654285D01*
X165392380Y-105749523D01*
X165392380Y-105844761D01*
X165344761Y-105940000D01*
X165297142Y-105987619D01*
X165201904Y-106035238D01*
X165011428Y-106082857D01*
X164773333Y-106082857D01*
X164582857Y-106035238D01*
X164487619Y-105987619D01*
X164440000Y-105940000D01*
X164392380Y-105844761D01*
X164392380Y-105225714D02*
X165392380Y-104892380D01*
X164392380Y-104559047D01*
D12*
X163468571Y-108523333D02*
X163492380Y-108547142D01*
X163516190Y-108618571D01*
X163516190Y-108666190D01*
X163492380Y-108737619D01*
X163444761Y-108785238D01*
X163397142Y-108809047D01*
X163301904Y-108832857D01*
X163230476Y-108832857D01*
X163135238Y-108809047D01*
X163087619Y-108785238D01*
X163040000Y-108737619D01*
X163016190Y-108666190D01*
X163016190Y-108618571D01*
X163040000Y-108547142D01*
X163063809Y-108523333D01*
X163016190Y-108356666D02*
X163016190Y-108023333D01*
X163516190Y-108237619D01*
%TO.C,C6*%
D11*
X161162380Y-125761190D02*
X161162380Y-126332619D01*
X161162380Y-126046904D02*
X160162380Y-126046904D01*
X160305238Y-126142142D01*
X160400476Y-126237380D01*
X160448095Y-126332619D01*
X160162380Y-125142142D02*
X160162380Y-125046904D01*
X160210000Y-124951666D01*
X160257619Y-124904047D01*
X160352857Y-124856428D01*
X160543333Y-124808809D01*
X160781428Y-124808809D01*
X160971904Y-124856428D01*
X161067142Y-124904047D01*
X161114761Y-124951666D01*
X161162380Y-125046904D01*
X161162380Y-125142142D01*
X161114761Y-125237380D01*
X161067142Y-125285000D01*
X160971904Y-125332619D01*
X160781428Y-125380238D01*
X160543333Y-125380238D01*
X160352857Y-125332619D01*
X160257619Y-125285000D01*
X160210000Y-125237380D01*
X160162380Y-125142142D01*
X160495714Y-123951666D02*
X161162380Y-123951666D01*
X160495714Y-124380238D02*
X161019523Y-124380238D01*
X161114761Y-124332619D01*
X161162380Y-124237380D01*
X161162380Y-124094523D01*
X161114761Y-123999285D01*
X161067142Y-123951666D01*
X160638571Y-123142142D02*
X160638571Y-123475476D01*
X161162380Y-123475476D02*
X160162380Y-123475476D01*
X160162380Y-122999285D01*
X160114761Y-121904047D02*
X161400476Y-122761190D01*
X161162380Y-121046904D02*
X161162380Y-121618333D01*
X161162380Y-121332619D02*
X160162380Y-121332619D01*
X160305238Y-121427857D01*
X160400476Y-121523095D01*
X160448095Y-121618333D01*
X160162380Y-120427857D02*
X160162380Y-120332619D01*
X160210000Y-120237380D01*
X160257619Y-120189761D01*
X160352857Y-120142142D01*
X160543333Y-120094523D01*
X160781428Y-120094523D01*
X160971904Y-120142142D01*
X161067142Y-120189761D01*
X161114761Y-120237380D01*
X161162380Y-120332619D01*
X161162380Y-120427857D01*
X161114761Y-120523095D01*
X161067142Y-120570714D01*
X160971904Y-120618333D01*
X160781428Y-120665952D01*
X160543333Y-120665952D01*
X160352857Y-120618333D01*
X160257619Y-120570714D01*
X160210000Y-120523095D01*
X160162380Y-120427857D01*
X160162380Y-119808809D02*
X161162380Y-119475476D01*
X160162380Y-119142142D01*
D12*
X162538571Y-122868333D02*
X162562380Y-122892142D01*
X162586190Y-122963571D01*
X162586190Y-123011190D01*
X162562380Y-123082619D01*
X162514761Y-123130238D01*
X162467142Y-123154047D01*
X162371904Y-123177857D01*
X162300476Y-123177857D01*
X162205238Y-123154047D01*
X162157619Y-123130238D01*
X162110000Y-123082619D01*
X162086190Y-123011190D01*
X162086190Y-122963571D01*
X162110000Y-122892142D01*
X162133809Y-122868333D01*
X162086190Y-122439761D02*
X162086190Y-122535000D01*
X162110000Y-122582619D01*
X162133809Y-122606428D01*
X162205238Y-122654047D01*
X162300476Y-122677857D01*
X162490952Y-122677857D01*
X162538571Y-122654047D01*
X162562380Y-122630238D01*
X162586190Y-122582619D01*
X162586190Y-122487380D01*
X162562380Y-122439761D01*
X162538571Y-122415952D01*
X162490952Y-122392142D01*
X162371904Y-122392142D01*
X162324285Y-122415952D01*
X162300476Y-122439761D01*
X162276666Y-122487380D01*
X162276666Y-122582619D01*
X162300476Y-122630238D01*
X162324285Y-122654047D01*
X162371904Y-122677857D01*
%TO.C,C5*%
D11*
X162472380Y-126337619D02*
X162472380Y-126242380D01*
X162520000Y-126147142D01*
X162567619Y-126099523D01*
X162662857Y-126051904D01*
X162853333Y-126004285D01*
X163091428Y-126004285D01*
X163281904Y-126051904D01*
X163377142Y-126099523D01*
X163424761Y-126147142D01*
X163472380Y-126242380D01*
X163472380Y-126337619D01*
X163424761Y-126432857D01*
X163377142Y-126480476D01*
X163281904Y-126528095D01*
X163091428Y-126575714D01*
X162853333Y-126575714D01*
X162662857Y-126528095D01*
X162567619Y-126480476D01*
X162520000Y-126432857D01*
X162472380Y-126337619D01*
X163377142Y-125575714D02*
X163424761Y-125528095D01*
X163472380Y-125575714D01*
X163424761Y-125623333D01*
X163377142Y-125575714D01*
X163472380Y-125575714D01*
X163472380Y-124575714D02*
X163472380Y-125147142D01*
X163472380Y-124861428D02*
X162472380Y-124861428D01*
X162615238Y-124956666D01*
X162710476Y-125051904D01*
X162758095Y-125147142D01*
X162805714Y-123718571D02*
X163472380Y-123718571D01*
X162805714Y-124147142D02*
X163329523Y-124147142D01*
X163424761Y-124099523D01*
X163472380Y-124004285D01*
X163472380Y-123861428D01*
X163424761Y-123766190D01*
X163377142Y-123718571D01*
X162948571Y-122909047D02*
X162948571Y-123242380D01*
X163472380Y-123242380D02*
X162472380Y-123242380D01*
X162472380Y-122766190D01*
X162424761Y-121670952D02*
X163710476Y-122528095D01*
X162472380Y-120861428D02*
X162472380Y-121337619D01*
X162948571Y-121385238D01*
X162900952Y-121337619D01*
X162853333Y-121242380D01*
X162853333Y-121004285D01*
X162900952Y-120909047D01*
X162948571Y-120861428D01*
X163043809Y-120813809D01*
X163281904Y-120813809D01*
X163377142Y-120861428D01*
X163424761Y-120909047D01*
X163472380Y-121004285D01*
X163472380Y-121242380D01*
X163424761Y-121337619D01*
X163377142Y-121385238D01*
X162472380Y-120194761D02*
X162472380Y-120099523D01*
X162520000Y-120004285D01*
X162567619Y-119956666D01*
X162662857Y-119909047D01*
X162853333Y-119861428D01*
X163091428Y-119861428D01*
X163281904Y-119909047D01*
X163377142Y-119956666D01*
X163424761Y-120004285D01*
X163472380Y-120099523D01*
X163472380Y-120194761D01*
X163424761Y-120290000D01*
X163377142Y-120337619D01*
X163281904Y-120385238D01*
X163091428Y-120432857D01*
X162853333Y-120432857D01*
X162662857Y-120385238D01*
X162567619Y-120337619D01*
X162520000Y-120290000D01*
X162472380Y-120194761D01*
X162472380Y-119575714D02*
X163472380Y-119242380D01*
X162472380Y-118909047D01*
D12*
X164848571Y-122873333D02*
X164872380Y-122897142D01*
X164896190Y-122968571D01*
X164896190Y-123016190D01*
X164872380Y-123087619D01*
X164824761Y-123135238D01*
X164777142Y-123159047D01*
X164681904Y-123182857D01*
X164610476Y-123182857D01*
X164515238Y-123159047D01*
X164467619Y-123135238D01*
X164420000Y-123087619D01*
X164396190Y-123016190D01*
X164396190Y-122968571D01*
X164420000Y-122897142D01*
X164443809Y-122873333D01*
X164396190Y-122420952D02*
X164396190Y-122659047D01*
X164634285Y-122682857D01*
X164610476Y-122659047D01*
X164586666Y-122611428D01*
X164586666Y-122492380D01*
X164610476Y-122444761D01*
X164634285Y-122420952D01*
X164681904Y-122397142D01*
X164800952Y-122397142D01*
X164848571Y-122420952D01*
X164872380Y-122444761D01*
X164896190Y-122492380D01*
X164896190Y-122611428D01*
X164872380Y-122659047D01*
X164848571Y-122682857D01*
%TO.C,C4*%
D11*
X158414380Y-76336780D02*
X158414380Y-76908209D01*
X158414380Y-76622495D02*
X157414380Y-76622495D01*
X157557238Y-76717733D01*
X157652476Y-76812971D01*
X157700095Y-76908209D01*
X158319142Y-75908209D02*
X158366761Y-75860590D01*
X158414380Y-75908209D01*
X158366761Y-75955828D01*
X158319142Y-75908209D01*
X158414380Y-75908209D01*
X157414380Y-75241542D02*
X157414380Y-75146304D01*
X157462000Y-75051066D01*
X157509619Y-75003447D01*
X157604857Y-74955828D01*
X157795333Y-74908209D01*
X158033428Y-74908209D01*
X158223904Y-74955828D01*
X158319142Y-75003447D01*
X158366761Y-75051066D01*
X158414380Y-75146304D01*
X158414380Y-75241542D01*
X158366761Y-75336780D01*
X158319142Y-75384400D01*
X158223904Y-75432019D01*
X158033428Y-75479638D01*
X157795333Y-75479638D01*
X157604857Y-75432019D01*
X157509619Y-75384400D01*
X157462000Y-75336780D01*
X157414380Y-75241542D01*
X157747714Y-74051066D02*
X158414380Y-74051066D01*
X157747714Y-74479638D02*
X158271523Y-74479638D01*
X158366761Y-74432019D01*
X158414380Y-74336780D01*
X158414380Y-74193923D01*
X158366761Y-74098685D01*
X158319142Y-74051066D01*
X157890571Y-73241542D02*
X157890571Y-73574876D01*
X158414380Y-73574876D02*
X157414380Y-73574876D01*
X157414380Y-73098685D01*
X157366761Y-72003447D02*
X158652476Y-72860590D01*
X157414380Y-71241542D02*
X157414380Y-71432019D01*
X157462000Y-71527257D01*
X157509619Y-71574876D01*
X157652476Y-71670114D01*
X157842952Y-71717733D01*
X158223904Y-71717733D01*
X158319142Y-71670114D01*
X158366761Y-71622495D01*
X158414380Y-71527257D01*
X158414380Y-71336780D01*
X158366761Y-71241542D01*
X158319142Y-71193923D01*
X158223904Y-71146304D01*
X157985809Y-71146304D01*
X157890571Y-71193923D01*
X157842952Y-71241542D01*
X157795333Y-71336780D01*
X157795333Y-71527257D01*
X157842952Y-71622495D01*
X157890571Y-71670114D01*
X157985809Y-71717733D01*
X158319142Y-70717733D02*
X158366761Y-70670114D01*
X158414380Y-70717733D01*
X158366761Y-70765352D01*
X158319142Y-70717733D01*
X158414380Y-70717733D01*
X157414380Y-70336780D02*
X157414380Y-69717733D01*
X157795333Y-70051066D01*
X157795333Y-69908209D01*
X157842952Y-69812971D01*
X157890571Y-69765352D01*
X157985809Y-69717733D01*
X158223904Y-69717733D01*
X158319142Y-69765352D01*
X158366761Y-69812971D01*
X158414380Y-69908209D01*
X158414380Y-70193923D01*
X158366761Y-70289161D01*
X158319142Y-70336780D01*
X157414380Y-69432019D02*
X158414380Y-69098685D01*
X157414380Y-68765352D01*
D12*
X159790571Y-72967733D02*
X159814380Y-72991542D01*
X159838190Y-73062971D01*
X159838190Y-73110590D01*
X159814380Y-73182019D01*
X159766761Y-73229638D01*
X159719142Y-73253447D01*
X159623904Y-73277257D01*
X159552476Y-73277257D01*
X159457238Y-73253447D01*
X159409619Y-73229638D01*
X159362000Y-73182019D01*
X159338190Y-73110590D01*
X159338190Y-73062971D01*
X159362000Y-72991542D01*
X159385809Y-72967733D01*
X159504857Y-72539161D02*
X159838190Y-72539161D01*
X159314380Y-72658209D02*
X159671523Y-72777257D01*
X159671523Y-72467733D01*
%TO.C,C3*%
D11*
X152784380Y-72816780D02*
X152784380Y-73388209D01*
X152784380Y-73102495D02*
X151784380Y-73102495D01*
X151927238Y-73197733D01*
X152022476Y-73292971D01*
X152070095Y-73388209D01*
X152689142Y-72388209D02*
X152736761Y-72340590D01*
X152784380Y-72388209D01*
X152736761Y-72435828D01*
X152689142Y-72388209D01*
X152784380Y-72388209D01*
X151784380Y-71721542D02*
X151784380Y-71626304D01*
X151832000Y-71531066D01*
X151879619Y-71483447D01*
X151974857Y-71435828D01*
X152165333Y-71388209D01*
X152403428Y-71388209D01*
X152593904Y-71435828D01*
X152689142Y-71483447D01*
X152736761Y-71531066D01*
X152784380Y-71626304D01*
X152784380Y-71721542D01*
X152736761Y-71816780D01*
X152689142Y-71864400D01*
X152593904Y-71912019D01*
X152403428Y-71959638D01*
X152165333Y-71959638D01*
X151974857Y-71912019D01*
X151879619Y-71864400D01*
X151832000Y-71816780D01*
X151784380Y-71721542D01*
X152117714Y-70531066D02*
X152784380Y-70531066D01*
X152117714Y-70959638D02*
X152641523Y-70959638D01*
X152736761Y-70912019D01*
X152784380Y-70816780D01*
X152784380Y-70673923D01*
X152736761Y-70578685D01*
X152689142Y-70531066D01*
X152260571Y-69721542D02*
X152260571Y-70054876D01*
X152784380Y-70054876D02*
X151784380Y-70054876D01*
X151784380Y-69578685D01*
X151736761Y-68483447D02*
X153022476Y-69340590D01*
X151784380Y-67721542D02*
X151784380Y-67912019D01*
X151832000Y-68007257D01*
X151879619Y-68054876D01*
X152022476Y-68150114D01*
X152212952Y-68197733D01*
X152593904Y-68197733D01*
X152689142Y-68150114D01*
X152736761Y-68102495D01*
X152784380Y-68007257D01*
X152784380Y-67816780D01*
X152736761Y-67721542D01*
X152689142Y-67673923D01*
X152593904Y-67626304D01*
X152355809Y-67626304D01*
X152260571Y-67673923D01*
X152212952Y-67721542D01*
X152165333Y-67816780D01*
X152165333Y-68007257D01*
X152212952Y-68102495D01*
X152260571Y-68150114D01*
X152355809Y-68197733D01*
X152689142Y-67197733D02*
X152736761Y-67150114D01*
X152784380Y-67197733D01*
X152736761Y-67245352D01*
X152689142Y-67197733D01*
X152784380Y-67197733D01*
X151784380Y-66816780D02*
X151784380Y-66197733D01*
X152165333Y-66531066D01*
X152165333Y-66388209D01*
X152212952Y-66292971D01*
X152260571Y-66245352D01*
X152355809Y-66197733D01*
X152593904Y-66197733D01*
X152689142Y-66245352D01*
X152736761Y-66292971D01*
X152784380Y-66388209D01*
X152784380Y-66673923D01*
X152736761Y-66769161D01*
X152689142Y-66816780D01*
X151784380Y-65912019D02*
X152784380Y-65578685D01*
X151784380Y-65245352D01*
D12*
X150860571Y-69447733D02*
X150884380Y-69471542D01*
X150908190Y-69542971D01*
X150908190Y-69590590D01*
X150884380Y-69662019D01*
X150836761Y-69709638D01*
X150789142Y-69733447D01*
X150693904Y-69757257D01*
X150622476Y-69757257D01*
X150527238Y-69733447D01*
X150479619Y-69709638D01*
X150432000Y-69662019D01*
X150408190Y-69590590D01*
X150408190Y-69542971D01*
X150432000Y-69471542D01*
X150455809Y-69447733D01*
X150408190Y-69281066D02*
X150408190Y-68971542D01*
X150598666Y-69138209D01*
X150598666Y-69066780D01*
X150622476Y-69019161D01*
X150646285Y-68995352D01*
X150693904Y-68971542D01*
X150812952Y-68971542D01*
X150860571Y-68995352D01*
X150884380Y-69019161D01*
X150908190Y-69066780D01*
X150908190Y-69209638D01*
X150884380Y-69257257D01*
X150860571Y-69281066D01*
%TO.C,C2*%
D11*
X143083380Y-80048114D02*
X143083380Y-80714780D01*
X142845285Y-79667161D02*
X142607190Y-80381447D01*
X143226238Y-80381447D01*
X143607190Y-80619542D02*
X143654809Y-80667161D01*
X143607190Y-80714780D01*
X143559571Y-80667161D01*
X143607190Y-80619542D01*
X143607190Y-80714780D01*
X143988142Y-79714780D02*
X144654809Y-79714780D01*
X144226238Y-80714780D01*
X145464333Y-80048114D02*
X145464333Y-80714780D01*
X145035761Y-80048114D02*
X145035761Y-80571923D01*
X145083380Y-80667161D01*
X145178619Y-80714780D01*
X145321476Y-80714780D01*
X145416714Y-80667161D01*
X145464333Y-80619542D01*
X146273857Y-80190971D02*
X145940523Y-80190971D01*
X145940523Y-80714780D02*
X145940523Y-79714780D01*
X146416714Y-79714780D01*
X147511952Y-79667161D02*
X146654809Y-80952876D01*
X148273857Y-79714780D02*
X148083380Y-79714780D01*
X147988142Y-79762400D01*
X147940523Y-79810019D01*
X147845285Y-79952876D01*
X147797666Y-80143352D01*
X147797666Y-80524304D01*
X147845285Y-80619542D01*
X147892904Y-80667161D01*
X147988142Y-80714780D01*
X148178619Y-80714780D01*
X148273857Y-80667161D01*
X148321476Y-80619542D01*
X148369095Y-80524304D01*
X148369095Y-80286209D01*
X148321476Y-80190971D01*
X148273857Y-80143352D01*
X148178619Y-80095733D01*
X147988142Y-80095733D01*
X147892904Y-80143352D01*
X147845285Y-80190971D01*
X147797666Y-80286209D01*
X148797666Y-80619542D02*
X148845285Y-80667161D01*
X148797666Y-80714780D01*
X148750047Y-80667161D01*
X148797666Y-80619542D01*
X148797666Y-80714780D01*
X149178619Y-79714780D02*
X149797666Y-79714780D01*
X149464333Y-80095733D01*
X149607190Y-80095733D01*
X149702428Y-80143352D01*
X149750047Y-80190971D01*
X149797666Y-80286209D01*
X149797666Y-80524304D01*
X149750047Y-80619542D01*
X149702428Y-80667161D01*
X149607190Y-80714780D01*
X149321476Y-80714780D01*
X149226238Y-80667161D01*
X149178619Y-80619542D01*
X150083380Y-79714780D02*
X150416714Y-80714780D01*
X150750047Y-79714780D01*
D12*
X146547666Y-78790971D02*
X146523857Y-78814780D01*
X146452428Y-78838590D01*
X146404809Y-78838590D01*
X146333380Y-78814780D01*
X146285761Y-78767161D01*
X146261952Y-78719542D01*
X146238142Y-78624304D01*
X146238142Y-78552876D01*
X146261952Y-78457638D01*
X146285761Y-78410019D01*
X146333380Y-78362400D01*
X146404809Y-78338590D01*
X146452428Y-78338590D01*
X146523857Y-78362400D01*
X146547666Y-78386209D01*
X146738142Y-78386209D02*
X146761952Y-78362400D01*
X146809571Y-78338590D01*
X146928619Y-78338590D01*
X146976238Y-78362400D01*
X147000047Y-78386209D01*
X147023857Y-78433828D01*
X147023857Y-78481447D01*
X147000047Y-78552876D01*
X146714333Y-78838590D01*
X147023857Y-78838590D01*
%TO.C,C1*%
D11*
X135420714Y-76394819D02*
X136087380Y-76394819D01*
X135039761Y-76632914D02*
X135754047Y-76871009D01*
X135754047Y-76251961D01*
X135992142Y-75871009D02*
X136039761Y-75823390D01*
X136087380Y-75871009D01*
X136039761Y-75918628D01*
X135992142Y-75871009D01*
X136087380Y-75871009D01*
X135087380Y-75490057D02*
X135087380Y-74823390D01*
X136087380Y-75251961D01*
X135420714Y-74013866D02*
X136087380Y-74013866D01*
X135420714Y-74442438D02*
X135944523Y-74442438D01*
X136039761Y-74394819D01*
X136087380Y-74299580D01*
X136087380Y-74156723D01*
X136039761Y-74061485D01*
X135992142Y-74013866D01*
X135563571Y-73204342D02*
X135563571Y-73537676D01*
X136087380Y-73537676D02*
X135087380Y-73537676D01*
X135087380Y-73061485D01*
X135039761Y-71966247D02*
X136325476Y-72823390D01*
X135087380Y-71204342D02*
X135087380Y-71394819D01*
X135135000Y-71490057D01*
X135182619Y-71537676D01*
X135325476Y-71632914D01*
X135515952Y-71680533D01*
X135896904Y-71680533D01*
X135992142Y-71632914D01*
X136039761Y-71585295D01*
X136087380Y-71490057D01*
X136087380Y-71299580D01*
X136039761Y-71204342D01*
X135992142Y-71156723D01*
X135896904Y-71109104D01*
X135658809Y-71109104D01*
X135563571Y-71156723D01*
X135515952Y-71204342D01*
X135468333Y-71299580D01*
X135468333Y-71490057D01*
X135515952Y-71585295D01*
X135563571Y-71632914D01*
X135658809Y-71680533D01*
X135992142Y-70680533D02*
X136039761Y-70632914D01*
X136087380Y-70680533D01*
X136039761Y-70728152D01*
X135992142Y-70680533D01*
X136087380Y-70680533D01*
X135087380Y-70299580D02*
X135087380Y-69680533D01*
X135468333Y-70013866D01*
X135468333Y-69871009D01*
X135515952Y-69775771D01*
X135563571Y-69728152D01*
X135658809Y-69680533D01*
X135896904Y-69680533D01*
X135992142Y-69728152D01*
X136039761Y-69775771D01*
X136087380Y-69871009D01*
X136087380Y-70156723D01*
X136039761Y-70251961D01*
X135992142Y-70299580D01*
X135087380Y-69394819D02*
X136087380Y-69061485D01*
X135087380Y-68728152D01*
D12*
X134163571Y-72930533D02*
X134187380Y-72954342D01*
X134211190Y-73025771D01*
X134211190Y-73073390D01*
X134187380Y-73144819D01*
X134139761Y-73192438D01*
X134092142Y-73216247D01*
X133996904Y-73240057D01*
X133925476Y-73240057D01*
X133830238Y-73216247D01*
X133782619Y-73192438D01*
X133735000Y-73144819D01*
X133711190Y-73073390D01*
X133711190Y-73025771D01*
X133735000Y-72954342D01*
X133758809Y-72930533D01*
X134211190Y-72454342D02*
X134211190Y-72740057D01*
X134211190Y-72597200D02*
X133711190Y-72597200D01*
X133782619Y-72644819D01*
X133830238Y-72692438D01*
X133854047Y-72740057D01*
%TD*%
M02*
