%TF.GenerationSoftware,KiCad,Pcbnew,(5.1.10)-1*%
%TF.CreationDate,2021-07-02T09:23:45+02:00*%
%TF.ProjectId,clip,636c6970-2e6b-4696-9361-645f70636258,rev?*%
%TF.SameCoordinates,Original*%
%TF.FileFunction,Other,Fab,Bot*%
%FSLAX46Y46*%
G04 Gerber Fmt 4.6, Leading zero omitted, Abs format (unit mm)*
G04 Created by KiCad (PCBNEW (5.1.10)-1) date 2021-07-02 09:23:45*
%MOMM*%
%LPD*%
G01*
G04 APERTURE LIST*
%ADD10C,0.100000*%
%ADD11C,0.150000*%
G04 APERTURE END LIST*
D10*
%TO.C,BATTERY1*%
X126850000Y-85180000D02*
X126850000Y-86780000D01*
X126850000Y-86780000D02*
X126150000Y-86780000D01*
X126150000Y-86780000D02*
X126150000Y-79180000D01*
X126150000Y-79180000D02*
X132050000Y-79180000D01*
X132050000Y-79180000D02*
X132050000Y-86780000D01*
X132050000Y-86780000D02*
X131350000Y-86780000D01*
X131350000Y-86780000D02*
X131350000Y-85180000D01*
X131350000Y-85180000D02*
X126850000Y-85180000D01*
X128100000Y-84555000D02*
X127600000Y-84055000D01*
X127600000Y-84055000D02*
X128600000Y-84055000D01*
X128600000Y-84055000D02*
X128100000Y-84555000D01*
%TD*%
%TO.C,BATTERY1*%
D11*
X129980952Y-78432380D02*
X130457142Y-78432380D01*
X130457142Y-77432380D01*
X129647619Y-78432380D02*
X129647619Y-77765714D01*
X129647619Y-77432380D02*
X129695238Y-77480000D01*
X129647619Y-77527619D01*
X129600000Y-77480000D01*
X129647619Y-77432380D01*
X129647619Y-77527619D01*
X129171428Y-78432380D02*
X129171428Y-77432380D01*
X128790476Y-77432380D01*
X128695238Y-77480000D01*
X128647619Y-77527619D01*
X128600000Y-77622857D01*
X128600000Y-77765714D01*
X128647619Y-77860952D01*
X128695238Y-77908571D01*
X128790476Y-77956190D01*
X129171428Y-77956190D01*
X128028571Y-78432380D02*
X128123809Y-78384761D01*
X128171428Y-78337142D01*
X128219047Y-78241904D01*
X128219047Y-77956190D01*
X128171428Y-77860952D01*
X128123809Y-77813333D01*
X128028571Y-77765714D01*
X127885714Y-77765714D01*
X127790476Y-77813333D01*
X127742857Y-77860952D01*
X127695238Y-77956190D01*
X127695238Y-78241904D01*
X127742857Y-78337142D01*
X127790476Y-78384761D01*
X127885714Y-78432380D01*
X128028571Y-78432380D01*
X132076190Y-82858571D02*
X131933333Y-82906190D01*
X131885714Y-82953809D01*
X131838095Y-83049047D01*
X131838095Y-83191904D01*
X131885714Y-83287142D01*
X131933333Y-83334761D01*
X132028571Y-83382380D01*
X132409523Y-83382380D01*
X132409523Y-82382380D01*
X132076190Y-82382380D01*
X131980952Y-82430000D01*
X131933333Y-82477619D01*
X131885714Y-82572857D01*
X131885714Y-82668095D01*
X131933333Y-82763333D01*
X131980952Y-82810952D01*
X132076190Y-82858571D01*
X132409523Y-82858571D01*
X131457142Y-83096666D02*
X130980952Y-83096666D01*
X131552380Y-83382380D02*
X131219047Y-82382380D01*
X130885714Y-83382380D01*
X130695238Y-82382380D02*
X130123809Y-82382380D01*
X130409523Y-83382380D02*
X130409523Y-82382380D01*
X129933333Y-82382380D02*
X129361904Y-82382380D01*
X129647619Y-83382380D02*
X129647619Y-82382380D01*
X129028571Y-82858571D02*
X128695238Y-82858571D01*
X128552380Y-83382380D02*
X129028571Y-83382380D01*
X129028571Y-82382380D01*
X128552380Y-82382380D01*
X127552380Y-83382380D02*
X127885714Y-82906190D01*
X128123809Y-83382380D02*
X128123809Y-82382380D01*
X127742857Y-82382380D01*
X127647619Y-82430000D01*
X127600000Y-82477619D01*
X127552380Y-82572857D01*
X127552380Y-82715714D01*
X127600000Y-82810952D01*
X127647619Y-82858571D01*
X127742857Y-82906190D01*
X128123809Y-82906190D01*
X126933333Y-82906190D02*
X126933333Y-83382380D01*
X127266666Y-82382380D02*
X126933333Y-82906190D01*
X126600000Y-82382380D01*
X125742857Y-83382380D02*
X126314285Y-83382380D01*
X126028571Y-83382380D02*
X126028571Y-82382380D01*
X126123809Y-82525238D01*
X126219047Y-82620476D01*
X126314285Y-82668095D01*
%TD*%
M02*
