%TF.GenerationSoftware,KiCad,Pcbnew,(5.1.10)-1*%
%TF.CreationDate,2021-07-02T09:23:45+02:00*%
%TF.ProjectId,clip,636c6970-2e6b-4696-9361-645f70636258,rev?*%
%TF.SameCoordinates,Original*%
%TF.FileFunction,Copper,L1,Top*%
%TF.FilePolarity,Positive*%
%FSLAX46Y46*%
G04 Gerber Fmt 4.6, Leading zero omitted, Abs format (unit mm)*
G04 Created by KiCad (PCBNEW (5.1.10)-1) date 2021-07-02 09:23:45*
%MOMM*%
%LPD*%
G01*
G04 APERTURE LIST*
%TA.AperFunction,ComponentPad*%
%ADD10C,3.800000*%
%TD*%
%TA.AperFunction,ComponentPad*%
%ADD11O,1.700000X1.700000*%
%TD*%
%TA.AperFunction,ComponentPad*%
%ADD12R,1.700000X1.700000*%
%TD*%
%TA.AperFunction,SMDPad,CuDef*%
%ADD13R,1.000000X1.000000*%
%TD*%
%TA.AperFunction,SMDPad,CuDef*%
%ADD14C,0.100000*%
%TD*%
%TA.AperFunction,SMDPad,CuDef*%
%ADD15R,1.560000X0.650000*%
%TD*%
%TA.AperFunction,SMDPad,CuDef*%
%ADD16R,5.000000X5.000000*%
%TD*%
%TA.AperFunction,SMDPad,CuDef*%
%ADD17R,2.800000X0.900000*%
%TD*%
%TA.AperFunction,SMDPad,CuDef*%
%ADD18R,0.900000X2.800000*%
%TD*%
%TA.AperFunction,ComponentPad*%
%ADD19O,1.800000X1.150000*%
%TD*%
%TA.AperFunction,ComponentPad*%
%ADD20O,2.000000X1.450000*%
%TD*%
%TA.AperFunction,SMDPad,CuDef*%
%ADD21R,1.700000X0.450000*%
%TD*%
%TA.AperFunction,SMDPad,CuDef*%
%ADD22R,1.700000X1.300000*%
%TD*%
%TA.AperFunction,ComponentPad*%
%ADD23O,1.200000X1.750000*%
%TD*%
%TA.AperFunction,SMDPad,CuDef*%
%ADD24R,0.800000X1.900000*%
%TD*%
%TA.AperFunction,ViaPad*%
%ADD25C,0.800000*%
%TD*%
%TA.AperFunction,ViaPad*%
%ADD26C,1.100000*%
%TD*%
%TA.AperFunction,Conductor*%
%ADD27C,0.250000*%
%TD*%
%TA.AperFunction,Conductor*%
%ADD28C,0.500000*%
%TD*%
%TA.AperFunction,Conductor*%
%ADD29C,0.400000*%
%TD*%
%TA.AperFunction,Conductor*%
%ADD30C,0.254000*%
%TD*%
%TA.AperFunction,Conductor*%
%ADD31C,0.100000*%
%TD*%
G04 APERTURE END LIST*
D10*
%TO.P,H4,1*%
%TO.N,N/C*%
X127688340Y-123154440D03*
%TD*%
%TO.P,H3,1*%
%TO.N,N/C*%
X169994580Y-123146820D03*
%TD*%
%TO.P,H2,1*%
%TO.N,N/C*%
X169981880Y-75420220D03*
%TD*%
%TO.P,H1,1*%
%TO.N,N/C*%
X127739140Y-75377040D03*
%TD*%
D11*
%TO.P,MOISTURE1,3*%
%TO.N,GND*%
X151439880Y-78953360D03*
%TO.P,MOISTURE1,2*%
%TO.N,+3V3*%
X148899880Y-78953360D03*
D12*
%TO.P,MOISTURE1,1*%
%TO.N,ADC1*%
X146359880Y-78953360D03*
%TD*%
D13*
%TO.P,D3,2*%
%TO.N,VBUS*%
X142640680Y-97332800D03*
%TO.P,D3,1*%
%TO.N,Net-(C4-Pad1)*%
X145140680Y-97332800D03*
%TD*%
%TO.P,D2,2*%
%TO.N,Net-(D2-Pad2)*%
%TA.AperFunction,SMDPad,CuDef*%
G36*
G01*
X165259999Y-81440000D02*
X166160001Y-81440000D01*
G75*
G02*
X166410000Y-81689999I0J-249999D01*
G01*
X166410000Y-82340001D01*
G75*
G02*
X166160001Y-82590000I-249999J0D01*
G01*
X165259999Y-82590000D01*
G75*
G02*
X165010000Y-82340001I0J249999D01*
G01*
X165010000Y-81689999D01*
G75*
G02*
X165259999Y-81440000I249999J0D01*
G01*
G37*
%TD.AperFunction*%
%TO.P,D2,1*%
%TO.N,Net-(D2-Pad1)*%
%TA.AperFunction,SMDPad,CuDef*%
G36*
G01*
X165259999Y-79390000D02*
X166160001Y-79390000D01*
G75*
G02*
X166410000Y-79639999I0J-249999D01*
G01*
X166410000Y-80290001D01*
G75*
G02*
X166160001Y-80540000I-249999J0D01*
G01*
X165259999Y-80540000D01*
G75*
G02*
X165010000Y-80290001I0J249999D01*
G01*
X165010000Y-79639999D01*
G75*
G02*
X165259999Y-79390000I249999J0D01*
G01*
G37*
%TD.AperFunction*%
%TD*%
%TA.AperFunction,SMDPad,CuDef*%
D14*
%TO.P,JP2,1*%
%TO.N,Net-(C3-Pad1)*%
G36*
X160552640Y-94886780D02*
G01*
X160052640Y-95636780D01*
X159052640Y-95636780D01*
X159052640Y-94136780D01*
X160052640Y-94136780D01*
X160552640Y-94886780D01*
G37*
%TD.AperFunction*%
%TA.AperFunction,SMDPad,CuDef*%
%TO.P,JP2,2*%
%TO.N,+3V3*%
G36*
X161502640Y-95636780D02*
G01*
X160352640Y-95636780D01*
X160852640Y-94886780D01*
X160352640Y-94136780D01*
X161502640Y-94136780D01*
X161502640Y-95636780D01*
G37*
%TD.AperFunction*%
%TD*%
%TO.P,D4,1*%
%TO.N,Net-(D4-Pad1)*%
%TA.AperFunction,SMDPad,CuDef*%
G36*
G01*
X129580219Y-79378900D02*
X130480221Y-79378900D01*
G75*
G02*
X130730220Y-79628899I0J-249999D01*
G01*
X130730220Y-80278901D01*
G75*
G02*
X130480221Y-80528900I-249999J0D01*
G01*
X129580219Y-80528900D01*
G75*
G02*
X129330220Y-80278901I0J249999D01*
G01*
X129330220Y-79628899D01*
G75*
G02*
X129580219Y-79378900I249999J0D01*
G01*
G37*
%TD.AperFunction*%
%TO.P,D4,2*%
%TO.N,Net-(D4-Pad2)*%
%TA.AperFunction,SMDPad,CuDef*%
G36*
G01*
X129580219Y-81428900D02*
X130480221Y-81428900D01*
G75*
G02*
X130730220Y-81678899I0J-249999D01*
G01*
X130730220Y-82328901D01*
G75*
G02*
X130480221Y-82578900I-249999J0D01*
G01*
X129580219Y-82578900D01*
G75*
G02*
X129330220Y-82328901I0J249999D01*
G01*
X129330220Y-81678899D01*
G75*
G02*
X129580219Y-81428900I249999J0D01*
G01*
G37*
%TD.AperFunction*%
%TD*%
D15*
%TO.P,U1,5*%
%TO.N,Net-(R6-Pad1)*%
X148903800Y-87247940D03*
%TO.P,U1,4*%
%TO.N,VBUS*%
X148903800Y-89147940D03*
%TO.P,U1,3*%
%TO.N,+BATT*%
X146203800Y-89147940D03*
%TO.P,U1,2*%
%TO.N,GND*%
X146203800Y-88197940D03*
%TO.P,U1,1*%
%TO.N,Net-(D4-Pad2)*%
X146203800Y-87247940D03*
%TD*%
D16*
%TO.P,U3,39*%
%TO.N,GND*%
X149830000Y-116355000D03*
D17*
%TO.P,U3,1*%
X157730000Y-123855000D03*
%TO.P,U3,2*%
%TO.N,+3V3*%
X157730000Y-122585000D03*
%TO.P,U3,3*%
%TO.N,EN*%
X157730000Y-121315000D03*
%TO.P,U3,4*%
%TO.N,Net-(U3-Pad4)*%
X157730000Y-120045000D03*
%TO.P,U3,5*%
%TO.N,Net-(U3-Pad5)*%
X157730000Y-118775000D03*
%TO.P,U3,6*%
%TO.N,ADC1*%
X157730000Y-117505000D03*
%TO.P,U3,7*%
%TO.N,Net-(U3-Pad7)*%
X157730000Y-116235000D03*
%TO.P,U3,8*%
%TO.N,Net-(U3-Pad8)*%
X157730000Y-114965000D03*
%TO.P,U3,9*%
%TO.N,INT*%
X157730000Y-113695000D03*
%TO.P,U3,10*%
%TO.N,Net-(U3-Pad10)*%
X157730000Y-112425000D03*
%TO.P,U3,11*%
%TO.N,Net-(U3-Pad11)*%
X157730000Y-111155000D03*
%TO.P,U3,12*%
%TO.N,Net-(U3-Pad12)*%
X157730000Y-109885000D03*
%TO.P,U3,13*%
%TO.N,Net-(U3-Pad13)*%
X157730000Y-108615000D03*
%TO.P,U3,14*%
%TO.N,Net-(U3-Pad14)*%
X157730000Y-107345000D03*
D18*
%TO.P,U3,15*%
%TO.N,GND*%
X154545000Y-105945000D03*
%TO.P,U3,16*%
%TO.N,Net-(U3-Pad16)*%
X153275000Y-105945000D03*
%TO.P,U3,17*%
%TO.N,Net-(U3-Pad17)*%
X152005000Y-105945000D03*
%TO.P,U3,18*%
%TO.N,Net-(U3-Pad18)*%
X150735000Y-105945000D03*
%TO.P,U3,19*%
%TO.N,Net-(U3-Pad19)*%
X149465000Y-105945000D03*
%TO.P,U3,20*%
%TO.N,Net-(U3-Pad20)*%
X148195000Y-105945000D03*
%TO.P,U3,21*%
%TO.N,Net-(U3-Pad21)*%
X146925000Y-105945000D03*
%TO.P,U3,22*%
%TO.N,Net-(U3-Pad22)*%
X145655000Y-105945000D03*
%TO.P,U3,23*%
%TO.N,Net-(U3-Pad23)*%
X144385000Y-105945000D03*
%TO.P,U3,24*%
%TO.N,IO2*%
X143115000Y-105945000D03*
D17*
%TO.P,U3,25*%
%TO.N,IO0*%
X139930000Y-107345000D03*
%TO.P,U3,26*%
%TO.N,Net-(U3-Pad26)*%
X139930000Y-108615000D03*
%TO.P,U3,27*%
%TO.N,Net-(U3-Pad27)*%
X139930000Y-109885000D03*
%TO.P,U3,28*%
%TO.N,Net-(U3-Pad28)*%
X139930000Y-111155000D03*
%TO.P,U3,29*%
%TO.N,Net-(U3-Pad29)*%
X139930000Y-112425000D03*
%TO.P,U3,30*%
%TO.N,Net-(U3-Pad30)*%
X139930000Y-113695000D03*
%TO.P,U3,31*%
%TO.N,Net-(U3-Pad31)*%
X139930000Y-114965000D03*
%TO.P,U3,32*%
%TO.N,Net-(U3-Pad32)*%
X139930000Y-116235000D03*
%TO.P,U3,33*%
%TO.N,SDA*%
X139930000Y-117505000D03*
%TO.P,U3,34*%
%TO.N,RX0*%
X139930000Y-118775000D03*
%TO.P,U3,35*%
%TO.N,TX0*%
X139930000Y-120045000D03*
%TO.P,U3,36*%
%TO.N,SCL*%
X139930000Y-121315000D03*
%TO.P,U3,37*%
%TO.N,Net-(U3-Pad37)*%
X139930000Y-122585000D03*
%TO.P,U3,38*%
%TO.N,GND*%
X139930000Y-123855000D03*
%TD*%
D19*
%TO.P,USB1,6*%
%TO.N,GND*%
X126780000Y-96545000D03*
X126780000Y-88795000D03*
D20*
X130580000Y-96395000D03*
X130580000Y-88945000D03*
D21*
%TO.P,USB1,5*%
X130830000Y-93970000D03*
%TO.P,USB1,4*%
%TO.N,Net-(USB1-Pad4)*%
X130830000Y-93320000D03*
%TO.P,USB1,3*%
%TO.N,Net-(USB1-Pad3)*%
X130830000Y-92670000D03*
%TO.P,USB1,2*%
%TO.N,Net-(USB1-Pad2)*%
X130830000Y-92020000D03*
%TO.P,USB1,1*%
%TO.N,VBUS*%
X130830000Y-91370000D03*
%TD*%
D22*
%TO.P,EN1,2*%
%TO.N,EN*%
X162500000Y-111660000D03*
%TO.P,EN1,1*%
%TO.N,GND*%
X162500000Y-107860000D03*
%TD*%
D12*
%TO.P,LIS1,1*%
%TO.N,+3V3*%
X127030000Y-101720000D03*
D11*
%TO.P,LIS1,2*%
%TO.N,Net-(LIS1-Pad2)*%
X129570000Y-101720000D03*
%TO.P,LIS1,3*%
%TO.N,GND*%
X132110000Y-101720000D03*
%TO.P,LIS1,4*%
%TO.N,SCL*%
X134650000Y-101720000D03*
%TO.P,LIS1,5*%
%TO.N,SDA*%
X137190000Y-101720000D03*
%TO.P,LIS1,6*%
%TO.N,Net-(LIS1-Pad6)*%
X139730000Y-101720000D03*
%TO.P,LIS1,7*%
%TO.N,Net-(LIS1-Pad7)*%
X142270000Y-101720000D03*
%TO.P,LIS1,8*%
%TO.N,INT*%
X144810000Y-101720000D03*
%TD*%
%TO.P,VIN1,2*%
%TO.N,GND*%
X132847080Y-77048360D03*
D12*
%TO.P,VIN1,1*%
%TO.N,VBUS*%
X135387080Y-77048360D03*
%TD*%
D11*
%TO.P,FLASH1,6*%
%TO.N,+3V3*%
X134940000Y-122910000D03*
%TO.P,FLASH1,5*%
%TO.N,TX0*%
X134940000Y-120370000D03*
%TO.P,FLASH1,4*%
%TO.N,RX0*%
X134940000Y-117830000D03*
%TO.P,FLASH1,3*%
%TO.N,EN*%
X134940000Y-115290000D03*
%TO.P,FLASH1,2*%
%TO.N,IO0*%
X134940000Y-112750000D03*
D12*
%TO.P,FLASH1,1*%
%TO.N,GND*%
X134940000Y-110210000D03*
%TD*%
D11*
%TO.P,BME1,7*%
%TO.N,Net-(BME1-Pad7)*%
X166650000Y-101727000D03*
%TO.P,BME1,6*%
%TO.N,SDA*%
X164110000Y-101727000D03*
%TO.P,BME1,5*%
%TO.N,Net-(BME1-Pad5)*%
X161570000Y-101727000D03*
%TO.P,BME1,4*%
%TO.N,SCL*%
X159030000Y-101727000D03*
%TO.P,BME1,3*%
%TO.N,GND*%
X156490000Y-101727000D03*
%TO.P,BME1,2*%
%TO.N,Net-(BME1-Pad2)*%
X153950000Y-101727000D03*
D12*
%TO.P,BME1,1*%
%TO.N,+3V3*%
X151410000Y-101727000D03*
%TD*%
D15*
%TO.P,U2,5*%
%TO.N,Net-(C3-Pad1)*%
X150031000Y-95032260D03*
%TO.P,U2,4*%
%TO.N,Net-(U2-Pad4)*%
X150031000Y-93132260D03*
%TO.P,U2,3*%
%TO.N,Net-(R5-Pad1)*%
X152731000Y-93132260D03*
%TO.P,U2,2*%
%TO.N,GND*%
X152731000Y-94082260D03*
%TO.P,U2,1*%
%TO.N,Net-(C4-Pad1)*%
X152731000Y-95032260D03*
%TD*%
%TO.P,R3,1*%
%TO.N,Net-(D2-Pad1)*%
%TA.AperFunction,SMDPad,CuDef*%
G36*
G01*
X163049999Y-79390000D02*
X163950001Y-79390000D01*
G75*
G02*
X164200000Y-79639999I0J-249999D01*
G01*
X164200000Y-80290001D01*
G75*
G02*
X163950001Y-80540000I-249999J0D01*
G01*
X163049999Y-80540000D01*
G75*
G02*
X162800000Y-80290001I0J249999D01*
G01*
X162800000Y-79639999D01*
G75*
G02*
X163049999Y-79390000I249999J0D01*
G01*
G37*
%TD.AperFunction*%
%TO.P,R3,2*%
%TO.N,GND*%
%TA.AperFunction,SMDPad,CuDef*%
G36*
G01*
X163049999Y-81440000D02*
X163950001Y-81440000D01*
G75*
G02*
X164200000Y-81689999I0J-249999D01*
G01*
X164200000Y-82340001D01*
G75*
G02*
X163950001Y-82590000I-249999J0D01*
G01*
X163049999Y-82590000D01*
G75*
G02*
X162800000Y-82340001I0J249999D01*
G01*
X162800000Y-81689999D01*
G75*
G02*
X163049999Y-81440000I249999J0D01*
G01*
G37*
%TD.AperFunction*%
%TD*%
%TA.AperFunction,SMDPad,CuDef*%
D14*
%TO.P,JP1,1*%
%TO.N,+3V3*%
G36*
X168090000Y-81190000D02*
G01*
X167340000Y-80690000D01*
X167340000Y-79690000D01*
X168840000Y-79690000D01*
X168840000Y-80690000D01*
X168090000Y-81190000D01*
G37*
%TD.AperFunction*%
%TA.AperFunction,SMDPad,CuDef*%
%TO.P,JP1,2*%
%TO.N,Net-(D2-Pad2)*%
G36*
X167340000Y-82140000D02*
G01*
X167340000Y-80990000D01*
X168090000Y-81490000D01*
X168840000Y-80990000D01*
X168840000Y-82140000D01*
X167340000Y-82140000D01*
G37*
%TD.AperFunction*%
%TD*%
%TO.P,D5,1*%
%TO.N,Net-(D5-Pad1)*%
%TA.AperFunction,SMDPad,CuDef*%
G36*
G01*
X134469719Y-104898280D02*
X135369721Y-104898280D01*
G75*
G02*
X135619720Y-105148279I0J-249999D01*
G01*
X135619720Y-105798281D01*
G75*
G02*
X135369721Y-106048280I-249999J0D01*
G01*
X134469719Y-106048280D01*
G75*
G02*
X134219720Y-105798281I0J249999D01*
G01*
X134219720Y-105148279D01*
G75*
G02*
X134469719Y-104898280I249999J0D01*
G01*
G37*
%TD.AperFunction*%
%TO.P,D5,2*%
%TO.N,IO2*%
%TA.AperFunction,SMDPad,CuDef*%
G36*
G01*
X134469719Y-106948280D02*
X135369721Y-106948280D01*
G75*
G02*
X135619720Y-107198279I0J-249999D01*
G01*
X135619720Y-107848281D01*
G75*
G02*
X135369721Y-108098280I-249999J0D01*
G01*
X134469719Y-108098280D01*
G75*
G02*
X134219720Y-107848281I0J249999D01*
G01*
X134219720Y-107198279D01*
G75*
G02*
X134469719Y-106948280I249999J0D01*
G01*
G37*
%TD.AperFunction*%
%TD*%
D23*
%TO.P,BATTERY1,2*%
%TO.N,GND*%
X130100000Y-85430000D03*
%TO.P,BATTERY1,1*%
%TO.N,+BATT*%
%TA.AperFunction,ComponentPad*%
G36*
G01*
X127500000Y-86055001D02*
X127500000Y-84804999D01*
G75*
G02*
X127749999Y-84555000I249999J0D01*
G01*
X128450001Y-84555000D01*
G75*
G02*
X128700000Y-84804999I0J-249999D01*
G01*
X128700000Y-86055001D01*
G75*
G02*
X128450001Y-86305000I-249999J0D01*
G01*
X127749999Y-86305000D01*
G75*
G02*
X127500000Y-86055001I0J249999D01*
G01*
G37*
%TD.AperFunction*%
%TD*%
%TO.P,R7,1*%
%TO.N,IO0*%
%TA.AperFunction,SMDPad,CuDef*%
G36*
G01*
X132585881Y-113329520D02*
X131685879Y-113329520D01*
G75*
G02*
X131435880Y-113079521I0J249999D01*
G01*
X131435880Y-112429519D01*
G75*
G02*
X131685879Y-112179520I249999J0D01*
G01*
X132585881Y-112179520D01*
G75*
G02*
X132835880Y-112429519I0J-249999D01*
G01*
X132835880Y-113079521D01*
G75*
G02*
X132585881Y-113329520I-249999J0D01*
G01*
G37*
%TD.AperFunction*%
%TO.P,R7,2*%
%TO.N,+3V3*%
%TA.AperFunction,SMDPad,CuDef*%
G36*
G01*
X132585881Y-111279520D02*
X131685879Y-111279520D01*
G75*
G02*
X131435880Y-111029521I0J249999D01*
G01*
X131435880Y-110379519D01*
G75*
G02*
X131685879Y-110129520I249999J0D01*
G01*
X132585881Y-110129520D01*
G75*
G02*
X132835880Y-110379519I0J-249999D01*
G01*
X132835880Y-111029521D01*
G75*
G02*
X132585881Y-111279520I-249999J0D01*
G01*
G37*
%TD.AperFunction*%
%TD*%
%TO.P,R9,2*%
%TO.N,EN*%
%TA.AperFunction,SMDPad,CuDef*%
G36*
G01*
X162920001Y-114130000D02*
X162019999Y-114130000D01*
G75*
G02*
X161770000Y-113880001I0J249999D01*
G01*
X161770000Y-113229999D01*
G75*
G02*
X162019999Y-112980000I249999J0D01*
G01*
X162920001Y-112980000D01*
G75*
G02*
X163170000Y-113229999I0J-249999D01*
G01*
X163170000Y-113880001D01*
G75*
G02*
X162920001Y-114130000I-249999J0D01*
G01*
G37*
%TD.AperFunction*%
%TO.P,R9,1*%
%TO.N,+3V3*%
%TA.AperFunction,SMDPad,CuDef*%
G36*
G01*
X162920001Y-116180000D02*
X162019999Y-116180000D01*
G75*
G02*
X161770000Y-115930001I0J249999D01*
G01*
X161770000Y-115279999D01*
G75*
G02*
X162019999Y-115030000I249999J0D01*
G01*
X162920001Y-115030000D01*
G75*
G02*
X163170000Y-115279999I0J-249999D01*
G01*
X163170000Y-115930001D01*
G75*
G02*
X162920001Y-116180000I-249999J0D01*
G01*
G37*
%TD.AperFunction*%
%TD*%
%TO.P,R8,1*%
%TO.N,Net-(D5-Pad1)*%
%TA.AperFunction,SMDPad,CuDef*%
G36*
G01*
X131696039Y-104904740D02*
X132596041Y-104904740D01*
G75*
G02*
X132846040Y-105154739I0J-249999D01*
G01*
X132846040Y-105804741D01*
G75*
G02*
X132596041Y-106054740I-249999J0D01*
G01*
X131696039Y-106054740D01*
G75*
G02*
X131446040Y-105804741I0J249999D01*
G01*
X131446040Y-105154739D01*
G75*
G02*
X131696039Y-104904740I249999J0D01*
G01*
G37*
%TD.AperFunction*%
%TO.P,R8,2*%
%TO.N,GND*%
%TA.AperFunction,SMDPad,CuDef*%
G36*
G01*
X131696039Y-106954740D02*
X132596041Y-106954740D01*
G75*
G02*
X132846040Y-107204739I0J-249999D01*
G01*
X132846040Y-107854741D01*
G75*
G02*
X132596041Y-108104740I-249999J0D01*
G01*
X131696039Y-108104740D01*
G75*
G02*
X131446040Y-107854741I0J249999D01*
G01*
X131446040Y-107204739D01*
G75*
G02*
X131696039Y-106954740I249999J0D01*
G01*
G37*
%TD.AperFunction*%
%TD*%
%TO.P,R6,1*%
%TO.N,Net-(R6-Pad1)*%
%TA.AperFunction,SMDPad,CuDef*%
G36*
G01*
X150520000Y-87570001D02*
X150520000Y-86669999D01*
G75*
G02*
X150769999Y-86420000I249999J0D01*
G01*
X151420001Y-86420000D01*
G75*
G02*
X151670000Y-86669999I0J-249999D01*
G01*
X151670000Y-87570001D01*
G75*
G02*
X151420001Y-87820000I-249999J0D01*
G01*
X150769999Y-87820000D01*
G75*
G02*
X150520000Y-87570001I0J249999D01*
G01*
G37*
%TD.AperFunction*%
%TO.P,R6,2*%
%TO.N,GND*%
%TA.AperFunction,SMDPad,CuDef*%
G36*
G01*
X152570000Y-87570001D02*
X152570000Y-86669999D01*
G75*
G02*
X152819999Y-86420000I249999J0D01*
G01*
X153470001Y-86420000D01*
G75*
G02*
X153720000Y-86669999I0J-249999D01*
G01*
X153720000Y-87570001D01*
G75*
G02*
X153470001Y-87820000I-249999J0D01*
G01*
X152819999Y-87820000D01*
G75*
G02*
X152570000Y-87570001I0J249999D01*
G01*
G37*
%TD.AperFunction*%
%TD*%
%TO.P,R4,1*%
%TO.N,GND*%
%TA.AperFunction,SMDPad,CuDef*%
G36*
G01*
X128405041Y-82578900D02*
X127505039Y-82578900D01*
G75*
G02*
X127255040Y-82328901I0J249999D01*
G01*
X127255040Y-81678899D01*
G75*
G02*
X127505039Y-81428900I249999J0D01*
G01*
X128405041Y-81428900D01*
G75*
G02*
X128655040Y-81678899I0J-249999D01*
G01*
X128655040Y-82328901D01*
G75*
G02*
X128405041Y-82578900I-249999J0D01*
G01*
G37*
%TD.AperFunction*%
%TO.P,R4,2*%
%TO.N,Net-(D4-Pad1)*%
%TA.AperFunction,SMDPad,CuDef*%
G36*
G01*
X128405041Y-80528900D02*
X127505039Y-80528900D01*
G75*
G02*
X127255040Y-80278901I0J249999D01*
G01*
X127255040Y-79628899D01*
G75*
G02*
X127505039Y-79378900I249999J0D01*
G01*
X128405041Y-79378900D01*
G75*
G02*
X128655040Y-79628899I0J-249999D01*
G01*
X128655040Y-80278901D01*
G75*
G02*
X128405041Y-80528900I-249999J0D01*
G01*
G37*
%TD.AperFunction*%
%TD*%
%TO.P,R5,2*%
%TO.N,Net-(C4-Pad1)*%
%TA.AperFunction,SMDPad,CuDef*%
G36*
G01*
X154698399Y-94480300D02*
X155598401Y-94480300D01*
G75*
G02*
X155848400Y-94730299I0J-249999D01*
G01*
X155848400Y-95380301D01*
G75*
G02*
X155598401Y-95630300I-249999J0D01*
G01*
X154698399Y-95630300D01*
G75*
G02*
X154448400Y-95380301I0J249999D01*
G01*
X154448400Y-94730299D01*
G75*
G02*
X154698399Y-94480300I249999J0D01*
G01*
G37*
%TD.AperFunction*%
%TO.P,R5,1*%
%TO.N,Net-(R5-Pad1)*%
%TA.AperFunction,SMDPad,CuDef*%
G36*
G01*
X154698399Y-92430300D02*
X155598401Y-92430300D01*
G75*
G02*
X155848400Y-92680299I0J-249999D01*
G01*
X155848400Y-93330301D01*
G75*
G02*
X155598401Y-93580300I-249999J0D01*
G01*
X154698399Y-93580300D01*
G75*
G02*
X154448400Y-93330301I0J249999D01*
G01*
X154448400Y-92680299D01*
G75*
G02*
X154698399Y-92430300I249999J0D01*
G01*
G37*
%TD.AperFunction*%
%TD*%
%TO.P,R2,2*%
%TO.N,Net-(D1-Pad1)*%
%TA.AperFunction,SMDPad,CuDef*%
G36*
G01*
X132641761Y-80521500D02*
X131741759Y-80521500D01*
G75*
G02*
X131491760Y-80271501I0J249999D01*
G01*
X131491760Y-79621499D01*
G75*
G02*
X131741759Y-79371500I249999J0D01*
G01*
X132641761Y-79371500D01*
G75*
G02*
X132891760Y-79621499I0J-249999D01*
G01*
X132891760Y-80271501D01*
G75*
G02*
X132641761Y-80521500I-249999J0D01*
G01*
G37*
%TD.AperFunction*%
%TO.P,R2,1*%
%TO.N,Net-(D4-Pad2)*%
%TA.AperFunction,SMDPad,CuDef*%
G36*
G01*
X132641761Y-82571500D02*
X131741759Y-82571500D01*
G75*
G02*
X131491760Y-82321501I0J249999D01*
G01*
X131491760Y-81671499D01*
G75*
G02*
X131741759Y-81421500I249999J0D01*
G01*
X132641761Y-81421500D01*
G75*
G02*
X132891760Y-81671499I0J-249999D01*
G01*
X132891760Y-82321501D01*
G75*
G02*
X132641761Y-82571500I-249999J0D01*
G01*
G37*
%TD.AperFunction*%
%TD*%
%TO.P,R1,2*%
%TO.N,VBUS*%
%TA.AperFunction,SMDPad,CuDef*%
G36*
G01*
X140169999Y-94485000D02*
X141070001Y-94485000D01*
G75*
G02*
X141320000Y-94734999I0J-249999D01*
G01*
X141320000Y-95385001D01*
G75*
G02*
X141070001Y-95635000I-249999J0D01*
G01*
X140169999Y-95635000D01*
G75*
G02*
X139920000Y-95385001I0J249999D01*
G01*
X139920000Y-94734999D01*
G75*
G02*
X140169999Y-94485000I249999J0D01*
G01*
G37*
%TD.AperFunction*%
%TO.P,R1,1*%
%TO.N,GND*%
%TA.AperFunction,SMDPad,CuDef*%
G36*
G01*
X140169999Y-92435000D02*
X141070001Y-92435000D01*
G75*
G02*
X141320000Y-92684999I0J-249999D01*
G01*
X141320000Y-93335001D01*
G75*
G02*
X141070001Y-93585000I-249999J0D01*
G01*
X140169999Y-93585000D01*
G75*
G02*
X139920000Y-93335001I0J249999D01*
G01*
X139920000Y-92684999D01*
G75*
G02*
X140169999Y-92435000I249999J0D01*
G01*
G37*
%TD.AperFunction*%
%TD*%
D24*
%TO.P,Q1,1*%
%TO.N,VBUS*%
X142950000Y-94700000D03*
%TO.P,Q1,2*%
%TO.N,Net-(C4-Pad1)*%
X144850000Y-94700000D03*
%TO.P,Q1,3*%
%TO.N,+BATT*%
X143900000Y-91700000D03*
%TD*%
%TO.P,D1,1*%
%TO.N,Net-(D1-Pad1)*%
%TA.AperFunction,SMDPad,CuDef*%
G36*
G01*
X133875359Y-79372700D02*
X134775361Y-79372700D01*
G75*
G02*
X135025360Y-79622699I0J-249999D01*
G01*
X135025360Y-80272701D01*
G75*
G02*
X134775361Y-80522700I-249999J0D01*
G01*
X133875359Y-80522700D01*
G75*
G02*
X133625360Y-80272701I0J249999D01*
G01*
X133625360Y-79622699D01*
G75*
G02*
X133875359Y-79372700I249999J0D01*
G01*
G37*
%TD.AperFunction*%
%TO.P,D1,2*%
%TO.N,VBUS*%
%TA.AperFunction,SMDPad,CuDef*%
G36*
G01*
X133875359Y-81422700D02*
X134775361Y-81422700D01*
G75*
G02*
X135025360Y-81672699I0J-249999D01*
G01*
X135025360Y-82322701D01*
G75*
G02*
X134775361Y-82572700I-249999J0D01*
G01*
X133875359Y-82572700D01*
G75*
G02*
X133625360Y-82322701I0J249999D01*
G01*
X133625360Y-81672699D01*
G75*
G02*
X133875359Y-81422700I249999J0D01*
G01*
G37*
%TD.AperFunction*%
%TD*%
%TO.P,C6,2*%
%TO.N,GND*%
%TA.AperFunction,SMDPad,CuDef*%
G36*
G01*
X162019999Y-123220000D02*
X162920001Y-123220000D01*
G75*
G02*
X163170000Y-123469999I0J-249999D01*
G01*
X163170000Y-124120001D01*
G75*
G02*
X162920001Y-124370000I-249999J0D01*
G01*
X162019999Y-124370000D01*
G75*
G02*
X161770000Y-124120001I0J249999D01*
G01*
X161770000Y-123469999D01*
G75*
G02*
X162019999Y-123220000I249999J0D01*
G01*
G37*
%TD.AperFunction*%
%TO.P,C6,1*%
%TO.N,+3V3*%
%TA.AperFunction,SMDPad,CuDef*%
G36*
G01*
X162019999Y-121170000D02*
X162920001Y-121170000D01*
G75*
G02*
X163170000Y-121419999I0J-249999D01*
G01*
X163170000Y-122070001D01*
G75*
G02*
X162920001Y-122320000I-249999J0D01*
G01*
X162019999Y-122320000D01*
G75*
G02*
X161770000Y-122070001I0J249999D01*
G01*
X161770000Y-121419999D01*
G75*
G02*
X162019999Y-121170000I249999J0D01*
G01*
G37*
%TD.AperFunction*%
%TD*%
%TO.P,C5,2*%
%TO.N,GND*%
%TA.AperFunction,SMDPad,CuDef*%
G36*
G01*
X162920001Y-118210000D02*
X162019999Y-118210000D01*
G75*
G02*
X161770000Y-117960001I0J249999D01*
G01*
X161770000Y-117309999D01*
G75*
G02*
X162019999Y-117060000I249999J0D01*
G01*
X162920001Y-117060000D01*
G75*
G02*
X163170000Y-117309999I0J-249999D01*
G01*
X163170000Y-117960001D01*
G75*
G02*
X162920001Y-118210000I-249999J0D01*
G01*
G37*
%TD.AperFunction*%
%TO.P,C5,1*%
%TO.N,+3V3*%
%TA.AperFunction,SMDPad,CuDef*%
G36*
G01*
X162920001Y-120260000D02*
X162019999Y-120260000D01*
G75*
G02*
X161770000Y-120010001I0J249999D01*
G01*
X161770000Y-119359999D01*
G75*
G02*
X162019999Y-119110000I249999J0D01*
G01*
X162920001Y-119110000D01*
G75*
G02*
X163170000Y-119359999I0J-249999D01*
G01*
X163170000Y-120010001D01*
G75*
G02*
X162920001Y-120260000I-249999J0D01*
G01*
G37*
%TD.AperFunction*%
%TD*%
%TO.P,C4,2*%
%TO.N,GND*%
%TA.AperFunction,SMDPad,CuDef*%
G36*
G01*
X148047221Y-93637940D02*
X147147219Y-93637940D01*
G75*
G02*
X146897220Y-93387941I0J249999D01*
G01*
X146897220Y-92737939D01*
G75*
G02*
X147147219Y-92487940I249999J0D01*
G01*
X148047221Y-92487940D01*
G75*
G02*
X148297220Y-92737939I0J-249999D01*
G01*
X148297220Y-93387941D01*
G75*
G02*
X148047221Y-93637940I-249999J0D01*
G01*
G37*
%TD.AperFunction*%
%TO.P,C4,1*%
%TO.N,Net-(C4-Pad1)*%
%TA.AperFunction,SMDPad,CuDef*%
G36*
G01*
X148047221Y-95687940D02*
X147147219Y-95687940D01*
G75*
G02*
X146897220Y-95437941I0J249999D01*
G01*
X146897220Y-94787939D01*
G75*
G02*
X147147219Y-94537940I249999J0D01*
G01*
X148047221Y-94537940D01*
G75*
G02*
X148297220Y-94787939I0J-249999D01*
G01*
X148297220Y-95437941D01*
G75*
G02*
X148047221Y-95687940I-249999J0D01*
G01*
G37*
%TD.AperFunction*%
%TD*%
%TO.P,C3,2*%
%TO.N,GND*%
%TA.AperFunction,SMDPad,CuDef*%
G36*
G01*
X157856461Y-93582840D02*
X156956459Y-93582840D01*
G75*
G02*
X156706460Y-93332841I0J249999D01*
G01*
X156706460Y-92682839D01*
G75*
G02*
X156956459Y-92432840I249999J0D01*
G01*
X157856461Y-92432840D01*
G75*
G02*
X158106460Y-92682839I0J-249999D01*
G01*
X158106460Y-93332841D01*
G75*
G02*
X157856461Y-93582840I-249999J0D01*
G01*
G37*
%TD.AperFunction*%
%TO.P,C3,1*%
%TO.N,Net-(C3-Pad1)*%
%TA.AperFunction,SMDPad,CuDef*%
G36*
G01*
X157856461Y-95632840D02*
X156956459Y-95632840D01*
G75*
G02*
X156706460Y-95382841I0J249999D01*
G01*
X156706460Y-94732839D01*
G75*
G02*
X156956459Y-94482840I249999J0D01*
G01*
X157856461Y-94482840D01*
G75*
G02*
X158106460Y-94732839I0J-249999D01*
G01*
X158106460Y-95382841D01*
G75*
G02*
X157856461Y-95632840I-249999J0D01*
G01*
G37*
%TD.AperFunction*%
%TD*%
%TO.P,C2,2*%
%TO.N,GND*%
%TA.AperFunction,SMDPad,CuDef*%
G36*
G01*
X152570000Y-89740001D02*
X152570000Y-88839999D01*
G75*
G02*
X152819999Y-88590000I249999J0D01*
G01*
X153470001Y-88590000D01*
G75*
G02*
X153720000Y-88839999I0J-249999D01*
G01*
X153720000Y-89740001D01*
G75*
G02*
X153470001Y-89990000I-249999J0D01*
G01*
X152819999Y-89990000D01*
G75*
G02*
X152570000Y-89740001I0J249999D01*
G01*
G37*
%TD.AperFunction*%
%TO.P,C2,1*%
%TO.N,VBUS*%
%TA.AperFunction,SMDPad,CuDef*%
G36*
G01*
X150520000Y-89740001D02*
X150520000Y-88839999D01*
G75*
G02*
X150769999Y-88590000I249999J0D01*
G01*
X151420001Y-88590000D01*
G75*
G02*
X151670000Y-88839999I0J-249999D01*
G01*
X151670000Y-89740001D01*
G75*
G02*
X151420001Y-89990000I-249999J0D01*
G01*
X150769999Y-89990000D01*
G75*
G02*
X150520000Y-89740001I0J249999D01*
G01*
G37*
%TD.AperFunction*%
%TD*%
%TO.P,C1,2*%
%TO.N,GND*%
%TA.AperFunction,SMDPad,CuDef*%
G36*
G01*
X144343981Y-87752840D02*
X143443979Y-87752840D01*
G75*
G02*
X143193980Y-87502841I0J249999D01*
G01*
X143193980Y-86852839D01*
G75*
G02*
X143443979Y-86602840I249999J0D01*
G01*
X144343981Y-86602840D01*
G75*
G02*
X144593980Y-86852839I0J-249999D01*
G01*
X144593980Y-87502841D01*
G75*
G02*
X144343981Y-87752840I-249999J0D01*
G01*
G37*
%TD.AperFunction*%
%TO.P,C1,1*%
%TO.N,+BATT*%
%TA.AperFunction,SMDPad,CuDef*%
G36*
G01*
X144343981Y-89802840D02*
X143443979Y-89802840D01*
G75*
G02*
X143193980Y-89552841I0J249999D01*
G01*
X143193980Y-88902839D01*
G75*
G02*
X143443979Y-88652840I249999J0D01*
G01*
X144343981Y-88652840D01*
G75*
G02*
X144593980Y-88902839I0J-249999D01*
G01*
X144593980Y-89552841D01*
G75*
G02*
X144343981Y-89802840I-249999J0D01*
G01*
G37*
%TD.AperFunction*%
%TD*%
D25*
%TO.N,GND*%
X165070000Y-120020000D03*
X165100002Y-113070000D03*
X165080000Y-123840000D03*
X165090000Y-116956680D03*
X138681180Y-93010000D03*
D26*
%TO.N,VBUS*%
X151100000Y-91290000D03*
X135970000Y-84504990D03*
X135960000Y-88630000D03*
X138676380Y-91274900D03*
D25*
%TO.N,EN*%
X153930000Y-121340000D03*
%TO.N,SDA*%
X143060000Y-115030000D03*
%TO.N,SCL*%
X142110000Y-119130000D03*
%TO.N,Net-(C3-Pad1)*%
X154767380Y-96391580D03*
X151404440Y-96412820D03*
%TO.N,ADC1*%
X162443280Y-105100000D03*
%TD*%
D27*
%TO.N,GND*%
X161842560Y-107364420D02*
X163088320Y-107364420D01*
D28*
X148408400Y-94082260D02*
X152634480Y-94082260D01*
X147464780Y-93138640D02*
X148408400Y-94082260D01*
D27*
X153443220Y-87184300D02*
X153130000Y-86871080D01*
X165050000Y-123810000D02*
X165080000Y-123840000D01*
X162410000Y-123810000D02*
X165050000Y-123810000D01*
X165100002Y-108870002D02*
X165100002Y-113070000D01*
X162690000Y-107870000D02*
X164100000Y-107870000D01*
X164100000Y-107870000D02*
X165100002Y-108870002D01*
X162500000Y-108060000D02*
X162690000Y-107870000D01*
X165100002Y-104840002D02*
X165100002Y-108870002D01*
X163452580Y-103192580D02*
X165100002Y-104840002D01*
X157982580Y-103192580D02*
X163452580Y-103192580D01*
D28*
X135023860Y-109941360D02*
X134962900Y-109880400D01*
D27*
X165070000Y-120020000D02*
X165070000Y-116976680D01*
X165070000Y-116976680D02*
X165090000Y-116956680D01*
X130830000Y-93950000D02*
X130830000Y-95965000D01*
X130850000Y-93930000D02*
X130830000Y-93950000D01*
D28*
X146136780Y-88203220D02*
X146190000Y-88150000D01*
X143997840Y-87177840D02*
X145023220Y-88203220D01*
X145023220Y-88203220D02*
X146136780Y-88203220D01*
X143893980Y-87177840D02*
X143997840Y-87177840D01*
D27*
X140650000Y-93010000D02*
X138681180Y-93010000D01*
D28*
X147540000Y-93005720D02*
X147597220Y-93062940D01*
X147540000Y-88580000D02*
X147540000Y-93005720D01*
X147157940Y-88197940D02*
X147540000Y-88580000D01*
X146203800Y-88197940D02*
X147157940Y-88197940D01*
X143180000Y-86500000D02*
X143890000Y-87210000D01*
X130563920Y-86500000D02*
X143180000Y-86500000D01*
X130100000Y-86036080D02*
X130563920Y-86500000D01*
X130100000Y-85430000D02*
X130100000Y-86036080D01*
X157533340Y-102743340D02*
X157533340Y-102745540D01*
X156490000Y-101700000D02*
X157533340Y-102743340D01*
D27*
X157533340Y-102743340D02*
X157982580Y-103192580D01*
D28*
%TO.N,+BATT*%
X146142160Y-89227840D02*
X146190000Y-89180000D01*
X143893980Y-89227840D02*
X146142160Y-89227840D01*
X143893980Y-89227840D02*
X143893980Y-91993980D01*
X143893980Y-91993980D02*
X144020000Y-92120000D01*
X142340000Y-89290000D02*
X143970000Y-89290000D01*
X140450000Y-87400000D02*
X142340000Y-89290000D01*
X128970000Y-87400000D02*
X140450000Y-87400000D01*
X128150000Y-86580000D02*
X128970000Y-87400000D01*
X128150000Y-85100000D02*
X128150000Y-86580000D01*
%TO.N,VBUS*%
X151257940Y-89147940D02*
X151320000Y-89210000D01*
X148903800Y-89147940D02*
X151257940Y-89147940D01*
X142640000Y-97450000D02*
X142640000Y-97300000D01*
X142790000Y-97320000D02*
X142770000Y-97340000D01*
X142890000Y-97320000D02*
X142790000Y-97320000D01*
X142930000Y-97280000D02*
X142890000Y-97320000D01*
X142930000Y-95130000D02*
X142930000Y-97280000D01*
X151130000Y-89450000D02*
X151100000Y-89480000D01*
X151100000Y-89480000D02*
X151100000Y-91290000D01*
X132140000Y-91350000D02*
X136120000Y-91350000D01*
X142920000Y-95200000D02*
X142920000Y-95530000D01*
X142790000Y-95070000D02*
X142920000Y-95200000D01*
X141120000Y-95070000D02*
X142790000Y-95070000D01*
X140930000Y-95260000D02*
X141120000Y-95070000D01*
X135960000Y-93730000D02*
X135960000Y-88630000D01*
X137307280Y-95077280D02*
X135960000Y-93730000D01*
X140157280Y-95077280D02*
X137307280Y-95077280D01*
X140390000Y-95310000D02*
X140157280Y-95077280D01*
X138611280Y-91340000D02*
X138676380Y-91274900D01*
X136000000Y-91340000D02*
X138611280Y-91340000D01*
X135970000Y-82083900D02*
X135970000Y-84504990D01*
X135970000Y-77141060D02*
X135970000Y-82083900D01*
X135504620Y-76720000D02*
X135526780Y-76697840D01*
X135526780Y-76697840D02*
X135970000Y-77141060D01*
X134980000Y-76720000D02*
X135504620Y-76720000D01*
X135883800Y-81997700D02*
X135970000Y-82083900D01*
X134325360Y-81997700D02*
X135883800Y-81997700D01*
D29*
X134327220Y-91371420D02*
X134338640Y-91360000D01*
X131441420Y-91371420D02*
X134327220Y-91371420D01*
X131430000Y-91360000D02*
X131441420Y-91371420D01*
D28*
%TO.N,+3V3*%
X159499780Y-122585000D02*
X160324780Y-121760000D01*
X160324780Y-121760000D02*
X162201720Y-121760000D01*
X157121720Y-122585000D02*
X159499780Y-122585000D01*
X162490000Y-121471720D02*
X162201720Y-121760000D01*
X162490000Y-119913280D02*
X162490000Y-121471720D01*
X162261720Y-119685000D02*
X162490000Y-119913280D01*
X166948520Y-99918520D02*
X166950000Y-99920000D01*
X150928520Y-99918520D02*
X151286540Y-99918520D01*
X150341480Y-99918520D02*
X150928520Y-99918520D01*
X151286540Y-99918520D02*
X131551480Y-99918520D01*
X153781480Y-99918520D02*
X154458520Y-99918520D01*
X154458520Y-99918520D02*
X166948520Y-99918520D01*
X151286540Y-99918520D02*
X154458520Y-99918520D01*
X127030000Y-101720000D02*
X127030000Y-101120000D01*
X128231480Y-99918520D02*
X131551480Y-99918520D01*
X127030000Y-101120000D02*
X128231480Y-99918520D01*
X152481480Y-99918520D02*
X152621480Y-99918520D01*
X151408520Y-100991480D02*
X152481480Y-99918520D01*
X162201720Y-121760000D02*
X167260000Y-121760000D01*
X130953400Y-110709600D02*
X132148580Y-110709600D01*
X129689860Y-109446060D02*
X130953400Y-110709600D01*
X129611120Y-109446060D02*
X129689860Y-109446060D01*
X169232160Y-119787840D02*
X169107360Y-119912640D01*
X167260000Y-121760000D02*
X169107360Y-119912640D01*
X127030000Y-101720000D02*
X127030000Y-103486740D01*
X127030000Y-103486740D02*
X129611120Y-106067860D01*
X129611120Y-106067860D02*
X129611120Y-120012460D01*
X129611120Y-120012460D02*
X132558660Y-122960000D01*
X132558660Y-122960000D02*
X135040000Y-122960000D01*
X169640000Y-119380000D02*
X169232160Y-119787840D01*
X169640000Y-97040000D02*
X169640000Y-119380000D01*
X169640000Y-87320000D02*
X169640000Y-97040000D01*
X169640000Y-102020000D02*
X169640000Y-102420000D01*
X167538520Y-99918520D02*
X169640000Y-102020000D01*
X166948520Y-99918520D02*
X167538520Y-99918520D01*
X169640000Y-113610000D02*
X169640000Y-113340000D01*
X167645000Y-115605000D02*
X169640000Y-113610000D01*
X162261720Y-115605000D02*
X167645000Y-115605000D01*
X169640000Y-80620000D02*
X169640000Y-87320000D01*
X169205000Y-80185000D02*
X169640000Y-80620000D01*
X168090000Y-80185000D02*
X169205000Y-80185000D01*
X169640000Y-86960000D02*
X169640000Y-87320000D01*
X167480000Y-84800000D02*
X169640000Y-86960000D01*
X150591080Y-84800000D02*
X167480000Y-84800000D01*
X148920200Y-83129120D02*
X150591080Y-84800000D01*
X148920200Y-78950820D02*
X148920200Y-83129120D01*
X161119820Y-94922340D02*
X161277300Y-95079820D01*
X161167740Y-95051880D02*
X167651880Y-95051880D01*
X167651880Y-95051880D02*
X169640000Y-97040000D01*
D27*
%TO.N,EN*%
X157330000Y-121315000D02*
X159375000Y-121315000D01*
X159375000Y-121315000D02*
X161070000Y-119620000D01*
X161070000Y-119620000D02*
X161070000Y-114860000D01*
X153930000Y-121340000D02*
X157610000Y-121340000D01*
X162342740Y-113580000D02*
X162400000Y-113580000D01*
X161070000Y-114852740D02*
X162342740Y-113580000D01*
X161070000Y-114860000D02*
X161070000Y-114852740D01*
X162468560Y-113368560D02*
X162500000Y-113400000D01*
X162468560Y-111491440D02*
X162468560Y-113368560D01*
X162500000Y-111460000D02*
X162468560Y-111491440D01*
%TO.N,Net-(D1-Pad1)*%
X131843520Y-79961740D02*
X134208520Y-79961740D01*
%TO.N,IO2*%
X137334980Y-106345000D02*
X143115000Y-106345000D01*
X136156700Y-107523280D02*
X137334980Y-106345000D01*
X134919720Y-107523280D02*
X136156700Y-107523280D01*
%TO.N,Net-(D5-Pad1)*%
X132384800Y-105509060D02*
X134519800Y-105509060D01*
%TO.N,SDA*%
X143060000Y-116911540D02*
X143060000Y-115030000D01*
X142471540Y-117500000D02*
X143060000Y-116911540D01*
X140050000Y-117500000D02*
X142471540Y-117500000D01*
X139890000Y-117340000D02*
X140050000Y-117500000D01*
%TO.N,SCL*%
X138975000Y-121315000D02*
X138930000Y-121360000D01*
X140330000Y-121315000D02*
X138975000Y-121315000D01*
X142110000Y-120740000D02*
X142110000Y-119130000D01*
X141510000Y-121340000D02*
X142110000Y-120740000D01*
X140130000Y-121340000D02*
X141510000Y-121340000D01*
%TO.N,TX0*%
X139670000Y-120290000D02*
X139900000Y-120060000D01*
X134750000Y-120290000D02*
X139670000Y-120290000D01*
X134730000Y-120310000D02*
X134750000Y-120290000D01*
%TO.N,RX0*%
X137070000Y-118810000D02*
X140000000Y-118810000D01*
X136050000Y-117790000D02*
X137070000Y-118810000D01*
X134830000Y-117790000D02*
X136050000Y-117790000D01*
%TO.N,IO0*%
X140188180Y-107358180D02*
X140290000Y-107460000D01*
X138122660Y-107358180D02*
X140188180Y-107358180D01*
X137281920Y-108198920D02*
X138122660Y-107358180D01*
X137281920Y-111836200D02*
X137281920Y-108198920D01*
X136358520Y-112759600D02*
X137281920Y-111836200D01*
X132148580Y-112759600D02*
X136358520Y-112759600D01*
%TO.N,Net-(R5-Pad1)*%
X152731000Y-93132260D02*
X155042900Y-93132260D01*
X155042900Y-93132260D02*
X155097220Y-93077940D01*
%TO.N,Net-(D4-Pad2)*%
X131584700Y-81981040D02*
X131894580Y-82290920D01*
X130004460Y-81981040D02*
X131584700Y-81981040D01*
X129694580Y-82290920D02*
X130004460Y-81981040D01*
X146070000Y-87120000D02*
X146080000Y-87130000D01*
X144590000Y-85640000D02*
X146070000Y-87120000D01*
X133155780Y-85640000D02*
X144590000Y-85640000D01*
X132191760Y-84675980D02*
X133155780Y-85640000D01*
X132191760Y-81996500D02*
X132191760Y-84675980D01*
D28*
%TO.N,Net-(C3-Pad1)*%
X157406460Y-95057840D02*
X159905170Y-95057840D01*
X157437220Y-95940100D02*
X157437220Y-95277940D01*
X156946220Y-96431100D02*
X157437220Y-95940100D01*
X154804060Y-96431100D02*
X156946220Y-96431100D01*
X150020840Y-95118620D02*
X150020840Y-95745500D01*
X150020840Y-95745500D02*
X150688160Y-96412820D01*
X150688160Y-96412820D02*
X151404440Y-96412820D01*
%TO.N,Net-(C4-Pad1)*%
X155084940Y-95005660D02*
X155227220Y-95147940D01*
X152757600Y-95005660D02*
X155084940Y-95005660D01*
X152731000Y-95032260D02*
X152757600Y-95005660D01*
X147554740Y-95100420D02*
X147637220Y-95017940D01*
X144984280Y-95072480D02*
X146937520Y-95072480D01*
X152731000Y-96754160D02*
X152731000Y-95032260D01*
X151858220Y-97626940D02*
X152731000Y-96754160D01*
X148526620Y-97626940D02*
X151858220Y-97626940D01*
X147567220Y-96667540D02*
X148526620Y-97626940D01*
X147567220Y-95337120D02*
X147567220Y-96667540D01*
X147332380Y-95102280D02*
X147567220Y-95337120D01*
X144848580Y-95161420D02*
X144848580Y-97218580D01*
X144848580Y-97218580D02*
X144930000Y-97300000D01*
X144880000Y-95130000D02*
X144848580Y-95161420D01*
D27*
%TO.N,Net-(D2-Pad2)*%
X165710000Y-82015000D02*
X168075000Y-82015000D01*
X168075000Y-82015000D02*
X168090000Y-82000000D01*
%TO.N,Net-(D2-Pad1)*%
X163421060Y-79918560D02*
X165696060Y-79918560D01*
X165745000Y-80265000D02*
X165750000Y-80270000D01*
%TO.N,Net-(R6-Pad1)*%
X148903800Y-87247940D02*
X151282060Y-87247940D01*
X151282060Y-87247940D02*
X151370000Y-87160000D01*
%TO.N,INT*%
X159580000Y-113680000D02*
X159900000Y-113360000D01*
X157960000Y-113680000D02*
X159580000Y-113680000D01*
X159900000Y-106670000D02*
X159900000Y-106363590D01*
X159900000Y-113360000D02*
X159900000Y-106670000D01*
X159900000Y-105520000D02*
X159900000Y-106670000D01*
X158310000Y-103930000D02*
X159900000Y-105520000D01*
X149900000Y-103930000D02*
X158310000Y-103930000D01*
X147690000Y-101720000D02*
X149900000Y-103930000D01*
X144810000Y-101720000D02*
X147690000Y-101720000D01*
%TO.N,ADC1*%
X161465380Y-105100000D02*
X162443280Y-105100000D01*
X160492440Y-106072940D02*
X161465380Y-105100000D01*
X160492440Y-116437560D02*
X160492440Y-106072940D01*
X159425000Y-117505000D02*
X160492440Y-116437560D01*
X157330000Y-117505000D02*
X159425000Y-117505000D01*
%TO.N,Net-(D4-Pad1)*%
X127955040Y-79953900D02*
X130030220Y-79953900D01*
%TD*%
D30*
%TO.N,GND*%
X126290590Y-103980799D02*
X126373468Y-104081786D01*
X126373471Y-104081789D01*
X126401184Y-104115557D01*
X126434951Y-104143269D01*
X128726120Y-106434439D01*
X128726120Y-109402581D01*
X128721838Y-109446060D01*
X128726120Y-109489539D01*
X128726121Y-119968981D01*
X128721839Y-120012460D01*
X128738925Y-120185950D01*
X128789532Y-120352773D01*
X128871710Y-120506519D01*
X128954588Y-120607506D01*
X128954591Y-120607509D01*
X128982304Y-120641277D01*
X129016071Y-120668989D01*
X131902130Y-123555049D01*
X131929843Y-123588817D01*
X131963611Y-123616530D01*
X131963613Y-123616532D01*
X132017568Y-123660812D01*
X132064601Y-123699411D01*
X132218347Y-123781589D01*
X132385170Y-123832195D01*
X132515183Y-123845000D01*
X132515193Y-123845000D01*
X132558659Y-123849281D01*
X132602126Y-123845000D01*
X133778753Y-123845000D01*
X133786525Y-123856632D01*
X133993368Y-124063475D01*
X134236589Y-124225990D01*
X134506842Y-124337932D01*
X134793740Y-124395000D01*
X135086260Y-124395000D01*
X135373158Y-124337932D01*
X135643411Y-124225990D01*
X135886632Y-124063475D01*
X136093475Y-123856632D01*
X136255990Y-123613411D01*
X136367932Y-123343158D01*
X136425000Y-123056260D01*
X136425000Y-122763740D01*
X136367932Y-122476842D01*
X136255990Y-122206589D01*
X136093475Y-121963368D01*
X135886632Y-121756525D01*
X135712240Y-121640000D01*
X135886632Y-121523475D01*
X136093475Y-121316632D01*
X136255990Y-121073411D01*
X136265687Y-121050000D01*
X137891928Y-121050000D01*
X137891928Y-121765000D01*
X137904188Y-121889482D01*
X137922546Y-121950000D01*
X137904188Y-122010518D01*
X137891928Y-122135000D01*
X137891928Y-123035000D01*
X137904188Y-123159482D01*
X137922546Y-123220000D01*
X137904188Y-123280518D01*
X137891928Y-123405000D01*
X137895000Y-123569250D01*
X138053750Y-123728000D01*
X139803000Y-123728000D01*
X139803000Y-123708000D01*
X140057000Y-123708000D01*
X140057000Y-123728000D01*
X141806250Y-123728000D01*
X141965000Y-123569250D01*
X141968072Y-123405000D01*
X141955812Y-123280518D01*
X141937454Y-123220000D01*
X141955812Y-123159482D01*
X141968072Y-123035000D01*
X141968072Y-122135000D01*
X141955812Y-122010518D01*
X141942886Y-121967908D01*
X142050001Y-121880001D01*
X142073803Y-121850998D01*
X142621004Y-121303798D01*
X142650001Y-121280001D01*
X142684420Y-121238061D01*
X142744974Y-121164277D01*
X142815546Y-121032247D01*
X142841652Y-120946185D01*
X142859003Y-120888986D01*
X142870000Y-120777333D01*
X142870000Y-120777324D01*
X142873676Y-120740001D01*
X142870000Y-120702678D01*
X142870000Y-119833711D01*
X142913937Y-119789774D01*
X143027205Y-119620256D01*
X143105226Y-119431898D01*
X143145000Y-119231939D01*
X143145000Y-119028061D01*
X143110577Y-118855000D01*
X146691928Y-118855000D01*
X146704188Y-118979482D01*
X146740498Y-119099180D01*
X146799463Y-119209494D01*
X146878815Y-119306185D01*
X146975506Y-119385537D01*
X147085820Y-119444502D01*
X147205518Y-119480812D01*
X147330000Y-119493072D01*
X149544250Y-119490000D01*
X149703000Y-119331250D01*
X149703000Y-116482000D01*
X149957000Y-116482000D01*
X149957000Y-119331250D01*
X150115750Y-119490000D01*
X152330000Y-119493072D01*
X152454482Y-119480812D01*
X152574180Y-119444502D01*
X152684494Y-119385537D01*
X152781185Y-119306185D01*
X152860537Y-119209494D01*
X152919502Y-119099180D01*
X152955812Y-118979482D01*
X152968072Y-118855000D01*
X152965000Y-116640750D01*
X152806250Y-116482000D01*
X149957000Y-116482000D01*
X149703000Y-116482000D01*
X146853750Y-116482000D01*
X146695000Y-116640750D01*
X146691928Y-118855000D01*
X143110577Y-118855000D01*
X143105226Y-118828102D01*
X143027205Y-118639744D01*
X142913937Y-118470226D01*
X142769774Y-118326063D01*
X142643854Y-118241927D01*
X142763787Y-118205546D01*
X142895816Y-118134974D01*
X143011541Y-118040001D01*
X143035343Y-118010998D01*
X143571004Y-117475338D01*
X143600001Y-117451541D01*
X143626332Y-117419457D01*
X143694974Y-117335817D01*
X143765546Y-117203787D01*
X143788963Y-117126589D01*
X143809003Y-117060526D01*
X143820000Y-116948873D01*
X143820000Y-116948864D01*
X143823676Y-116911541D01*
X143820000Y-116874218D01*
X143820000Y-115733711D01*
X143863937Y-115689774D01*
X143977205Y-115520256D01*
X144055226Y-115331898D01*
X144095000Y-115131939D01*
X144095000Y-114928061D01*
X144055226Y-114728102D01*
X143977205Y-114539744D01*
X143863937Y-114370226D01*
X143719774Y-114226063D01*
X143550256Y-114112795D01*
X143361898Y-114034774D01*
X143161939Y-113995000D01*
X142958061Y-113995000D01*
X142758102Y-114034774D01*
X142569744Y-114112795D01*
X142400226Y-114226063D01*
X142256063Y-114370226D01*
X142142795Y-114539744D01*
X142064774Y-114728102D01*
X142025000Y-114928061D01*
X142025000Y-115131939D01*
X142064774Y-115331898D01*
X142142795Y-115520256D01*
X142256063Y-115689774D01*
X142300001Y-115733712D01*
X142300000Y-116596738D01*
X142156739Y-116740000D01*
X141962655Y-116740000D01*
X141968072Y-116685000D01*
X141968072Y-115785000D01*
X141955812Y-115660518D01*
X141937454Y-115600000D01*
X141955812Y-115539482D01*
X141968072Y-115415000D01*
X141968072Y-114515000D01*
X141955812Y-114390518D01*
X141937454Y-114330000D01*
X141955812Y-114269482D01*
X141968072Y-114145000D01*
X141968072Y-113855000D01*
X146691928Y-113855000D01*
X146695000Y-116069250D01*
X146853750Y-116228000D01*
X149703000Y-116228000D01*
X149703000Y-113378750D01*
X149957000Y-113378750D01*
X149957000Y-116228000D01*
X152806250Y-116228000D01*
X152965000Y-116069250D01*
X152968072Y-113855000D01*
X152955812Y-113730518D01*
X152919502Y-113610820D01*
X152860537Y-113500506D01*
X152781185Y-113403815D01*
X152684494Y-113324463D01*
X152574180Y-113265498D01*
X152454482Y-113229188D01*
X152330000Y-113216928D01*
X150115750Y-113220000D01*
X149957000Y-113378750D01*
X149703000Y-113378750D01*
X149544250Y-113220000D01*
X147330000Y-113216928D01*
X147205518Y-113229188D01*
X147085820Y-113265498D01*
X146975506Y-113324463D01*
X146878815Y-113403815D01*
X146799463Y-113500506D01*
X146740498Y-113610820D01*
X146704188Y-113730518D01*
X146691928Y-113855000D01*
X141968072Y-113855000D01*
X141968072Y-113245000D01*
X141955812Y-113120518D01*
X141937454Y-113060000D01*
X141955812Y-112999482D01*
X141968072Y-112875000D01*
X141968072Y-111975000D01*
X141955812Y-111850518D01*
X141937454Y-111790000D01*
X141955812Y-111729482D01*
X141968072Y-111605000D01*
X141968072Y-110705000D01*
X141955812Y-110580518D01*
X141937454Y-110520000D01*
X141955812Y-110459482D01*
X141968072Y-110335000D01*
X141968072Y-109435000D01*
X141955812Y-109310518D01*
X141937454Y-109250000D01*
X141955812Y-109189482D01*
X141968072Y-109065000D01*
X141968072Y-108165000D01*
X141955812Y-108040518D01*
X141937454Y-107980000D01*
X141955812Y-107919482D01*
X141968072Y-107795000D01*
X141968072Y-107105000D01*
X142026928Y-107105000D01*
X142026928Y-107345000D01*
X142039188Y-107469482D01*
X142075498Y-107589180D01*
X142134463Y-107699494D01*
X142213815Y-107796185D01*
X142310506Y-107875537D01*
X142420820Y-107934502D01*
X142540518Y-107970812D01*
X142665000Y-107983072D01*
X143565000Y-107983072D01*
X143689482Y-107970812D01*
X143750000Y-107952454D01*
X143810518Y-107970812D01*
X143935000Y-107983072D01*
X144835000Y-107983072D01*
X144959482Y-107970812D01*
X145020000Y-107952454D01*
X145080518Y-107970812D01*
X145205000Y-107983072D01*
X146105000Y-107983072D01*
X146229482Y-107970812D01*
X146290000Y-107952454D01*
X146350518Y-107970812D01*
X146475000Y-107983072D01*
X147375000Y-107983072D01*
X147499482Y-107970812D01*
X147560000Y-107952454D01*
X147620518Y-107970812D01*
X147745000Y-107983072D01*
X148645000Y-107983072D01*
X148769482Y-107970812D01*
X148830000Y-107952454D01*
X148890518Y-107970812D01*
X149015000Y-107983072D01*
X149915000Y-107983072D01*
X150039482Y-107970812D01*
X150100000Y-107952454D01*
X150160518Y-107970812D01*
X150285000Y-107983072D01*
X151185000Y-107983072D01*
X151309482Y-107970812D01*
X151370000Y-107952454D01*
X151430518Y-107970812D01*
X151555000Y-107983072D01*
X152455000Y-107983072D01*
X152579482Y-107970812D01*
X152640000Y-107952454D01*
X152700518Y-107970812D01*
X152825000Y-107983072D01*
X153725000Y-107983072D01*
X153849482Y-107970812D01*
X153910000Y-107952454D01*
X153970518Y-107970812D01*
X154095000Y-107983072D01*
X154259250Y-107980000D01*
X154418000Y-107821250D01*
X154418000Y-106072000D01*
X154672000Y-106072000D01*
X154672000Y-107821250D01*
X154830750Y-107980000D01*
X154995000Y-107983072D01*
X155119482Y-107970812D01*
X155239180Y-107934502D01*
X155349494Y-107875537D01*
X155446185Y-107796185D01*
X155525537Y-107699494D01*
X155584502Y-107589180D01*
X155620812Y-107469482D01*
X155633072Y-107345000D01*
X155630000Y-106230750D01*
X155471250Y-106072000D01*
X154672000Y-106072000D01*
X154418000Y-106072000D01*
X154398000Y-106072000D01*
X154398000Y-105818000D01*
X154418000Y-105818000D01*
X154418000Y-105798000D01*
X154672000Y-105798000D01*
X154672000Y-105818000D01*
X155471250Y-105818000D01*
X155630000Y-105659250D01*
X155632672Y-104690000D01*
X157995199Y-104690000D01*
X159140000Y-105834802D01*
X159140001Y-106257913D01*
X159130000Y-106256928D01*
X156330000Y-106256928D01*
X156205518Y-106269188D01*
X156085820Y-106305498D01*
X155975506Y-106364463D01*
X155878815Y-106443815D01*
X155799463Y-106540506D01*
X155740498Y-106650820D01*
X155704188Y-106770518D01*
X155691928Y-106895000D01*
X155691928Y-107795000D01*
X155704188Y-107919482D01*
X155722546Y-107980000D01*
X155704188Y-108040518D01*
X155691928Y-108165000D01*
X155691928Y-109065000D01*
X155704188Y-109189482D01*
X155722546Y-109250000D01*
X155704188Y-109310518D01*
X155691928Y-109435000D01*
X155691928Y-110335000D01*
X155704188Y-110459482D01*
X155722546Y-110520000D01*
X155704188Y-110580518D01*
X155691928Y-110705000D01*
X155691928Y-111605000D01*
X155704188Y-111729482D01*
X155722546Y-111790000D01*
X155704188Y-111850518D01*
X155691928Y-111975000D01*
X155691928Y-112875000D01*
X155704188Y-112999482D01*
X155722546Y-113060000D01*
X155704188Y-113120518D01*
X155691928Y-113245000D01*
X155691928Y-114145000D01*
X155704188Y-114269482D01*
X155722546Y-114330000D01*
X155704188Y-114390518D01*
X155691928Y-114515000D01*
X155691928Y-115415000D01*
X155704188Y-115539482D01*
X155722546Y-115600000D01*
X155704188Y-115660518D01*
X155691928Y-115785000D01*
X155691928Y-116685000D01*
X155704188Y-116809482D01*
X155722546Y-116870000D01*
X155704188Y-116930518D01*
X155691928Y-117055000D01*
X155691928Y-117955000D01*
X155704188Y-118079482D01*
X155722546Y-118140000D01*
X155704188Y-118200518D01*
X155691928Y-118325000D01*
X155691928Y-119225000D01*
X155704188Y-119349482D01*
X155722546Y-119410000D01*
X155704188Y-119470518D01*
X155691928Y-119595000D01*
X155691928Y-120495000D01*
X155700299Y-120580000D01*
X154633711Y-120580000D01*
X154589774Y-120536063D01*
X154420256Y-120422795D01*
X154231898Y-120344774D01*
X154031939Y-120305000D01*
X153828061Y-120305000D01*
X153628102Y-120344774D01*
X153439744Y-120422795D01*
X153270226Y-120536063D01*
X153126063Y-120680226D01*
X153012795Y-120849744D01*
X152934774Y-121038102D01*
X152895000Y-121238061D01*
X152895000Y-121441939D01*
X152934774Y-121641898D01*
X153012795Y-121830256D01*
X153126063Y-121999774D01*
X153270226Y-122143937D01*
X153439744Y-122257205D01*
X153628102Y-122335226D01*
X153828061Y-122375000D01*
X154031939Y-122375000D01*
X154231898Y-122335226D01*
X154420256Y-122257205D01*
X154589774Y-122143937D01*
X154633711Y-122100000D01*
X155695375Y-122100000D01*
X155691928Y-122135000D01*
X155691928Y-123035000D01*
X155704188Y-123159482D01*
X155722546Y-123220000D01*
X155704188Y-123280518D01*
X155691928Y-123405000D01*
X155695000Y-123569250D01*
X155853750Y-123728000D01*
X157603000Y-123728000D01*
X157603000Y-123708000D01*
X157857000Y-123708000D01*
X157857000Y-123728000D01*
X159606250Y-123728000D01*
X159765000Y-123569250D01*
X159767631Y-123428570D01*
X159840093Y-123406589D01*
X159993839Y-123324411D01*
X160128597Y-123213817D01*
X160156314Y-123180044D01*
X160691359Y-122645000D01*
X161348573Y-122645000D01*
X161392038Y-122697962D01*
X161398594Y-122703342D01*
X161318815Y-122768815D01*
X161239463Y-122865506D01*
X161180498Y-122975820D01*
X161144188Y-123095518D01*
X161131928Y-123220000D01*
X161135000Y-123509250D01*
X161293750Y-123668000D01*
X162343000Y-123668000D01*
X162343000Y-123648000D01*
X162597000Y-123648000D01*
X162597000Y-123668000D01*
X163646250Y-123668000D01*
X163805000Y-123509250D01*
X163808072Y-123220000D01*
X163795812Y-123095518D01*
X163759502Y-122975820D01*
X163700537Y-122865506D01*
X163621185Y-122768815D01*
X163541406Y-122703342D01*
X163547962Y-122697962D01*
X163591427Y-122645000D01*
X167216531Y-122645000D01*
X167260000Y-122649281D01*
X167303469Y-122645000D01*
X167303477Y-122645000D01*
X167433490Y-122632195D01*
X167517341Y-122606759D01*
X167459580Y-122897144D01*
X167459580Y-123396496D01*
X167556998Y-123886252D01*
X167748092Y-124347593D01*
X167927976Y-124616808D01*
X163757141Y-124618597D01*
X163759502Y-124614180D01*
X163795812Y-124494482D01*
X163808072Y-124370000D01*
X163805000Y-124080750D01*
X163646250Y-123922000D01*
X162597000Y-123922000D01*
X162597000Y-123942000D01*
X162343000Y-123942000D01*
X162343000Y-123922000D01*
X161293750Y-123922000D01*
X161135000Y-124080750D01*
X161131928Y-124370000D01*
X161144188Y-124494482D01*
X161180498Y-124614180D01*
X161183449Y-124619702D01*
X159681462Y-124620346D01*
X159719502Y-124549180D01*
X159755812Y-124429482D01*
X159768072Y-124305000D01*
X159765000Y-124140750D01*
X159606250Y-123982000D01*
X157857000Y-123982000D01*
X157857000Y-124002000D01*
X157603000Y-124002000D01*
X157603000Y-123982000D01*
X155853750Y-123982000D01*
X155695000Y-124140750D01*
X155691928Y-124305000D01*
X155704188Y-124429482D01*
X155740498Y-124549180D01*
X155779433Y-124622021D01*
X141877379Y-124627986D01*
X141919502Y-124549180D01*
X141955812Y-124429482D01*
X141968072Y-124305000D01*
X141965000Y-124140750D01*
X141806250Y-123982000D01*
X140057000Y-123982000D01*
X140057000Y-124002000D01*
X139803000Y-124002000D01*
X139803000Y-123982000D01*
X138053750Y-123982000D01*
X137895000Y-124140750D01*
X137891928Y-124305000D01*
X137904188Y-124429482D01*
X137940498Y-124549180D01*
X137983514Y-124629657D01*
X129749089Y-124633190D01*
X129934828Y-124355213D01*
X130125922Y-123893872D01*
X130223340Y-123404116D01*
X130223340Y-122904764D01*
X130125922Y-122415008D01*
X129934828Y-121953667D01*
X129657403Y-121538472D01*
X129304308Y-121185377D01*
X128889113Y-120907952D01*
X128427772Y-120716858D01*
X127938016Y-120619440D01*
X127438664Y-120619440D01*
X126948908Y-120716858D01*
X126487567Y-120907952D01*
X126218923Y-121087455D01*
X126234875Y-103876562D01*
X126290590Y-103980799D01*
%TA.AperFunction,Conductor*%
D31*
G36*
X126290590Y-103980799D02*
G01*
X126373468Y-104081786D01*
X126373471Y-104081789D01*
X126401184Y-104115557D01*
X126434951Y-104143269D01*
X128726120Y-106434439D01*
X128726120Y-109402581D01*
X128721838Y-109446060D01*
X128726120Y-109489539D01*
X128726121Y-119968981D01*
X128721839Y-120012460D01*
X128738925Y-120185950D01*
X128789532Y-120352773D01*
X128871710Y-120506519D01*
X128954588Y-120607506D01*
X128954591Y-120607509D01*
X128982304Y-120641277D01*
X129016071Y-120668989D01*
X131902130Y-123555049D01*
X131929843Y-123588817D01*
X131963611Y-123616530D01*
X131963613Y-123616532D01*
X132017568Y-123660812D01*
X132064601Y-123699411D01*
X132218347Y-123781589D01*
X132385170Y-123832195D01*
X132515183Y-123845000D01*
X132515193Y-123845000D01*
X132558659Y-123849281D01*
X132602126Y-123845000D01*
X133778753Y-123845000D01*
X133786525Y-123856632D01*
X133993368Y-124063475D01*
X134236589Y-124225990D01*
X134506842Y-124337932D01*
X134793740Y-124395000D01*
X135086260Y-124395000D01*
X135373158Y-124337932D01*
X135643411Y-124225990D01*
X135886632Y-124063475D01*
X136093475Y-123856632D01*
X136255990Y-123613411D01*
X136367932Y-123343158D01*
X136425000Y-123056260D01*
X136425000Y-122763740D01*
X136367932Y-122476842D01*
X136255990Y-122206589D01*
X136093475Y-121963368D01*
X135886632Y-121756525D01*
X135712240Y-121640000D01*
X135886632Y-121523475D01*
X136093475Y-121316632D01*
X136255990Y-121073411D01*
X136265687Y-121050000D01*
X137891928Y-121050000D01*
X137891928Y-121765000D01*
X137904188Y-121889482D01*
X137922546Y-121950000D01*
X137904188Y-122010518D01*
X137891928Y-122135000D01*
X137891928Y-123035000D01*
X137904188Y-123159482D01*
X137922546Y-123220000D01*
X137904188Y-123280518D01*
X137891928Y-123405000D01*
X137895000Y-123569250D01*
X138053750Y-123728000D01*
X139803000Y-123728000D01*
X139803000Y-123708000D01*
X140057000Y-123708000D01*
X140057000Y-123728000D01*
X141806250Y-123728000D01*
X141965000Y-123569250D01*
X141968072Y-123405000D01*
X141955812Y-123280518D01*
X141937454Y-123220000D01*
X141955812Y-123159482D01*
X141968072Y-123035000D01*
X141968072Y-122135000D01*
X141955812Y-122010518D01*
X141942886Y-121967908D01*
X142050001Y-121880001D01*
X142073803Y-121850998D01*
X142621004Y-121303798D01*
X142650001Y-121280001D01*
X142684420Y-121238061D01*
X142744974Y-121164277D01*
X142815546Y-121032247D01*
X142841652Y-120946185D01*
X142859003Y-120888986D01*
X142870000Y-120777333D01*
X142870000Y-120777324D01*
X142873676Y-120740001D01*
X142870000Y-120702678D01*
X142870000Y-119833711D01*
X142913937Y-119789774D01*
X143027205Y-119620256D01*
X143105226Y-119431898D01*
X143145000Y-119231939D01*
X143145000Y-119028061D01*
X143110577Y-118855000D01*
X146691928Y-118855000D01*
X146704188Y-118979482D01*
X146740498Y-119099180D01*
X146799463Y-119209494D01*
X146878815Y-119306185D01*
X146975506Y-119385537D01*
X147085820Y-119444502D01*
X147205518Y-119480812D01*
X147330000Y-119493072D01*
X149544250Y-119490000D01*
X149703000Y-119331250D01*
X149703000Y-116482000D01*
X149957000Y-116482000D01*
X149957000Y-119331250D01*
X150115750Y-119490000D01*
X152330000Y-119493072D01*
X152454482Y-119480812D01*
X152574180Y-119444502D01*
X152684494Y-119385537D01*
X152781185Y-119306185D01*
X152860537Y-119209494D01*
X152919502Y-119099180D01*
X152955812Y-118979482D01*
X152968072Y-118855000D01*
X152965000Y-116640750D01*
X152806250Y-116482000D01*
X149957000Y-116482000D01*
X149703000Y-116482000D01*
X146853750Y-116482000D01*
X146695000Y-116640750D01*
X146691928Y-118855000D01*
X143110577Y-118855000D01*
X143105226Y-118828102D01*
X143027205Y-118639744D01*
X142913937Y-118470226D01*
X142769774Y-118326063D01*
X142643854Y-118241927D01*
X142763787Y-118205546D01*
X142895816Y-118134974D01*
X143011541Y-118040001D01*
X143035343Y-118010998D01*
X143571004Y-117475338D01*
X143600001Y-117451541D01*
X143626332Y-117419457D01*
X143694974Y-117335817D01*
X143765546Y-117203787D01*
X143788963Y-117126589D01*
X143809003Y-117060526D01*
X143820000Y-116948873D01*
X143820000Y-116948864D01*
X143823676Y-116911541D01*
X143820000Y-116874218D01*
X143820000Y-115733711D01*
X143863937Y-115689774D01*
X143977205Y-115520256D01*
X144055226Y-115331898D01*
X144095000Y-115131939D01*
X144095000Y-114928061D01*
X144055226Y-114728102D01*
X143977205Y-114539744D01*
X143863937Y-114370226D01*
X143719774Y-114226063D01*
X143550256Y-114112795D01*
X143361898Y-114034774D01*
X143161939Y-113995000D01*
X142958061Y-113995000D01*
X142758102Y-114034774D01*
X142569744Y-114112795D01*
X142400226Y-114226063D01*
X142256063Y-114370226D01*
X142142795Y-114539744D01*
X142064774Y-114728102D01*
X142025000Y-114928061D01*
X142025000Y-115131939D01*
X142064774Y-115331898D01*
X142142795Y-115520256D01*
X142256063Y-115689774D01*
X142300001Y-115733712D01*
X142300000Y-116596738D01*
X142156739Y-116740000D01*
X141962655Y-116740000D01*
X141968072Y-116685000D01*
X141968072Y-115785000D01*
X141955812Y-115660518D01*
X141937454Y-115600000D01*
X141955812Y-115539482D01*
X141968072Y-115415000D01*
X141968072Y-114515000D01*
X141955812Y-114390518D01*
X141937454Y-114330000D01*
X141955812Y-114269482D01*
X141968072Y-114145000D01*
X141968072Y-113855000D01*
X146691928Y-113855000D01*
X146695000Y-116069250D01*
X146853750Y-116228000D01*
X149703000Y-116228000D01*
X149703000Y-113378750D01*
X149957000Y-113378750D01*
X149957000Y-116228000D01*
X152806250Y-116228000D01*
X152965000Y-116069250D01*
X152968072Y-113855000D01*
X152955812Y-113730518D01*
X152919502Y-113610820D01*
X152860537Y-113500506D01*
X152781185Y-113403815D01*
X152684494Y-113324463D01*
X152574180Y-113265498D01*
X152454482Y-113229188D01*
X152330000Y-113216928D01*
X150115750Y-113220000D01*
X149957000Y-113378750D01*
X149703000Y-113378750D01*
X149544250Y-113220000D01*
X147330000Y-113216928D01*
X147205518Y-113229188D01*
X147085820Y-113265498D01*
X146975506Y-113324463D01*
X146878815Y-113403815D01*
X146799463Y-113500506D01*
X146740498Y-113610820D01*
X146704188Y-113730518D01*
X146691928Y-113855000D01*
X141968072Y-113855000D01*
X141968072Y-113245000D01*
X141955812Y-113120518D01*
X141937454Y-113060000D01*
X141955812Y-112999482D01*
X141968072Y-112875000D01*
X141968072Y-111975000D01*
X141955812Y-111850518D01*
X141937454Y-111790000D01*
X141955812Y-111729482D01*
X141968072Y-111605000D01*
X141968072Y-110705000D01*
X141955812Y-110580518D01*
X141937454Y-110520000D01*
X141955812Y-110459482D01*
X141968072Y-110335000D01*
X141968072Y-109435000D01*
X141955812Y-109310518D01*
X141937454Y-109250000D01*
X141955812Y-109189482D01*
X141968072Y-109065000D01*
X141968072Y-108165000D01*
X141955812Y-108040518D01*
X141937454Y-107980000D01*
X141955812Y-107919482D01*
X141968072Y-107795000D01*
X141968072Y-107105000D01*
X142026928Y-107105000D01*
X142026928Y-107345000D01*
X142039188Y-107469482D01*
X142075498Y-107589180D01*
X142134463Y-107699494D01*
X142213815Y-107796185D01*
X142310506Y-107875537D01*
X142420820Y-107934502D01*
X142540518Y-107970812D01*
X142665000Y-107983072D01*
X143565000Y-107983072D01*
X143689482Y-107970812D01*
X143750000Y-107952454D01*
X143810518Y-107970812D01*
X143935000Y-107983072D01*
X144835000Y-107983072D01*
X144959482Y-107970812D01*
X145020000Y-107952454D01*
X145080518Y-107970812D01*
X145205000Y-107983072D01*
X146105000Y-107983072D01*
X146229482Y-107970812D01*
X146290000Y-107952454D01*
X146350518Y-107970812D01*
X146475000Y-107983072D01*
X147375000Y-107983072D01*
X147499482Y-107970812D01*
X147560000Y-107952454D01*
X147620518Y-107970812D01*
X147745000Y-107983072D01*
X148645000Y-107983072D01*
X148769482Y-107970812D01*
X148830000Y-107952454D01*
X148890518Y-107970812D01*
X149015000Y-107983072D01*
X149915000Y-107983072D01*
X150039482Y-107970812D01*
X150100000Y-107952454D01*
X150160518Y-107970812D01*
X150285000Y-107983072D01*
X151185000Y-107983072D01*
X151309482Y-107970812D01*
X151370000Y-107952454D01*
X151430518Y-107970812D01*
X151555000Y-107983072D01*
X152455000Y-107983072D01*
X152579482Y-107970812D01*
X152640000Y-107952454D01*
X152700518Y-107970812D01*
X152825000Y-107983072D01*
X153725000Y-107983072D01*
X153849482Y-107970812D01*
X153910000Y-107952454D01*
X153970518Y-107970812D01*
X154095000Y-107983072D01*
X154259250Y-107980000D01*
X154418000Y-107821250D01*
X154418000Y-106072000D01*
X154672000Y-106072000D01*
X154672000Y-107821250D01*
X154830750Y-107980000D01*
X154995000Y-107983072D01*
X155119482Y-107970812D01*
X155239180Y-107934502D01*
X155349494Y-107875537D01*
X155446185Y-107796185D01*
X155525537Y-107699494D01*
X155584502Y-107589180D01*
X155620812Y-107469482D01*
X155633072Y-107345000D01*
X155630000Y-106230750D01*
X155471250Y-106072000D01*
X154672000Y-106072000D01*
X154418000Y-106072000D01*
X154398000Y-106072000D01*
X154398000Y-105818000D01*
X154418000Y-105818000D01*
X154418000Y-105798000D01*
X154672000Y-105798000D01*
X154672000Y-105818000D01*
X155471250Y-105818000D01*
X155630000Y-105659250D01*
X155632672Y-104690000D01*
X157995199Y-104690000D01*
X159140000Y-105834802D01*
X159140001Y-106257913D01*
X159130000Y-106256928D01*
X156330000Y-106256928D01*
X156205518Y-106269188D01*
X156085820Y-106305498D01*
X155975506Y-106364463D01*
X155878815Y-106443815D01*
X155799463Y-106540506D01*
X155740498Y-106650820D01*
X155704188Y-106770518D01*
X155691928Y-106895000D01*
X155691928Y-107795000D01*
X155704188Y-107919482D01*
X155722546Y-107980000D01*
X155704188Y-108040518D01*
X155691928Y-108165000D01*
X155691928Y-109065000D01*
X155704188Y-109189482D01*
X155722546Y-109250000D01*
X155704188Y-109310518D01*
X155691928Y-109435000D01*
X155691928Y-110335000D01*
X155704188Y-110459482D01*
X155722546Y-110520000D01*
X155704188Y-110580518D01*
X155691928Y-110705000D01*
X155691928Y-111605000D01*
X155704188Y-111729482D01*
X155722546Y-111790000D01*
X155704188Y-111850518D01*
X155691928Y-111975000D01*
X155691928Y-112875000D01*
X155704188Y-112999482D01*
X155722546Y-113060000D01*
X155704188Y-113120518D01*
X155691928Y-113245000D01*
X155691928Y-114145000D01*
X155704188Y-114269482D01*
X155722546Y-114330000D01*
X155704188Y-114390518D01*
X155691928Y-114515000D01*
X155691928Y-115415000D01*
X155704188Y-115539482D01*
X155722546Y-115600000D01*
X155704188Y-115660518D01*
X155691928Y-115785000D01*
X155691928Y-116685000D01*
X155704188Y-116809482D01*
X155722546Y-116870000D01*
X155704188Y-116930518D01*
X155691928Y-117055000D01*
X155691928Y-117955000D01*
X155704188Y-118079482D01*
X155722546Y-118140000D01*
X155704188Y-118200518D01*
X155691928Y-118325000D01*
X155691928Y-119225000D01*
X155704188Y-119349482D01*
X155722546Y-119410000D01*
X155704188Y-119470518D01*
X155691928Y-119595000D01*
X155691928Y-120495000D01*
X155700299Y-120580000D01*
X154633711Y-120580000D01*
X154589774Y-120536063D01*
X154420256Y-120422795D01*
X154231898Y-120344774D01*
X154031939Y-120305000D01*
X153828061Y-120305000D01*
X153628102Y-120344774D01*
X153439744Y-120422795D01*
X153270226Y-120536063D01*
X153126063Y-120680226D01*
X153012795Y-120849744D01*
X152934774Y-121038102D01*
X152895000Y-121238061D01*
X152895000Y-121441939D01*
X152934774Y-121641898D01*
X153012795Y-121830256D01*
X153126063Y-121999774D01*
X153270226Y-122143937D01*
X153439744Y-122257205D01*
X153628102Y-122335226D01*
X153828061Y-122375000D01*
X154031939Y-122375000D01*
X154231898Y-122335226D01*
X154420256Y-122257205D01*
X154589774Y-122143937D01*
X154633711Y-122100000D01*
X155695375Y-122100000D01*
X155691928Y-122135000D01*
X155691928Y-123035000D01*
X155704188Y-123159482D01*
X155722546Y-123220000D01*
X155704188Y-123280518D01*
X155691928Y-123405000D01*
X155695000Y-123569250D01*
X155853750Y-123728000D01*
X157603000Y-123728000D01*
X157603000Y-123708000D01*
X157857000Y-123708000D01*
X157857000Y-123728000D01*
X159606250Y-123728000D01*
X159765000Y-123569250D01*
X159767631Y-123428570D01*
X159840093Y-123406589D01*
X159993839Y-123324411D01*
X160128597Y-123213817D01*
X160156314Y-123180044D01*
X160691359Y-122645000D01*
X161348573Y-122645000D01*
X161392038Y-122697962D01*
X161398594Y-122703342D01*
X161318815Y-122768815D01*
X161239463Y-122865506D01*
X161180498Y-122975820D01*
X161144188Y-123095518D01*
X161131928Y-123220000D01*
X161135000Y-123509250D01*
X161293750Y-123668000D01*
X162343000Y-123668000D01*
X162343000Y-123648000D01*
X162597000Y-123648000D01*
X162597000Y-123668000D01*
X163646250Y-123668000D01*
X163805000Y-123509250D01*
X163808072Y-123220000D01*
X163795812Y-123095518D01*
X163759502Y-122975820D01*
X163700537Y-122865506D01*
X163621185Y-122768815D01*
X163541406Y-122703342D01*
X163547962Y-122697962D01*
X163591427Y-122645000D01*
X167216531Y-122645000D01*
X167260000Y-122649281D01*
X167303469Y-122645000D01*
X167303477Y-122645000D01*
X167433490Y-122632195D01*
X167517341Y-122606759D01*
X167459580Y-122897144D01*
X167459580Y-123396496D01*
X167556998Y-123886252D01*
X167748092Y-124347593D01*
X167927976Y-124616808D01*
X163757141Y-124618597D01*
X163759502Y-124614180D01*
X163795812Y-124494482D01*
X163808072Y-124370000D01*
X163805000Y-124080750D01*
X163646250Y-123922000D01*
X162597000Y-123922000D01*
X162597000Y-123942000D01*
X162343000Y-123942000D01*
X162343000Y-123922000D01*
X161293750Y-123922000D01*
X161135000Y-124080750D01*
X161131928Y-124370000D01*
X161144188Y-124494482D01*
X161180498Y-124614180D01*
X161183449Y-124619702D01*
X159681462Y-124620346D01*
X159719502Y-124549180D01*
X159755812Y-124429482D01*
X159768072Y-124305000D01*
X159765000Y-124140750D01*
X159606250Y-123982000D01*
X157857000Y-123982000D01*
X157857000Y-124002000D01*
X157603000Y-124002000D01*
X157603000Y-123982000D01*
X155853750Y-123982000D01*
X155695000Y-124140750D01*
X155691928Y-124305000D01*
X155704188Y-124429482D01*
X155740498Y-124549180D01*
X155779433Y-124622021D01*
X141877379Y-124627986D01*
X141919502Y-124549180D01*
X141955812Y-124429482D01*
X141968072Y-124305000D01*
X141965000Y-124140750D01*
X141806250Y-123982000D01*
X140057000Y-123982000D01*
X140057000Y-124002000D01*
X139803000Y-124002000D01*
X139803000Y-123982000D01*
X138053750Y-123982000D01*
X137895000Y-124140750D01*
X137891928Y-124305000D01*
X137904188Y-124429482D01*
X137940498Y-124549180D01*
X137983514Y-124629657D01*
X129749089Y-124633190D01*
X129934828Y-124355213D01*
X130125922Y-123893872D01*
X130223340Y-123404116D01*
X130223340Y-122904764D01*
X130125922Y-122415008D01*
X129934828Y-121953667D01*
X129657403Y-121538472D01*
X129304308Y-121185377D01*
X128889113Y-120907952D01*
X128427772Y-120716858D01*
X127938016Y-120619440D01*
X127438664Y-120619440D01*
X126948908Y-120716858D01*
X126487567Y-120907952D01*
X126218923Y-121087455D01*
X126234875Y-103876562D01*
X126290590Y-103980799D01*
G37*
%TD.AperFunction*%
D30*
X167915524Y-73949861D02*
X167735392Y-74219447D01*
X167544298Y-74680788D01*
X167446880Y-75170544D01*
X167446880Y-75669896D01*
X167544298Y-76159652D01*
X167735392Y-76620993D01*
X168012817Y-77036188D01*
X168365912Y-77389283D01*
X168781107Y-77666708D01*
X169242448Y-77857802D01*
X169732204Y-77955220D01*
X170231556Y-77955220D01*
X170721312Y-77857802D01*
X171182653Y-77666708D01*
X171455000Y-77484731D01*
X171455001Y-121073824D01*
X171195353Y-120900332D01*
X170734012Y-120709238D01*
X170244256Y-120611820D01*
X169744904Y-120611820D01*
X169638617Y-120632962D01*
X169763892Y-120507687D01*
X169763897Y-120507681D01*
X170235044Y-120036534D01*
X170268817Y-120008817D01*
X170379411Y-119874059D01*
X170461589Y-119720313D01*
X170512195Y-119553490D01*
X170525000Y-119423477D01*
X170525000Y-119423469D01*
X170529281Y-119380000D01*
X170525000Y-119336531D01*
X170525000Y-113653467D01*
X170529281Y-113610001D01*
X170525000Y-113566534D01*
X170525000Y-102063469D01*
X170529281Y-102020000D01*
X170525000Y-101976531D01*
X170525000Y-97083465D01*
X170529281Y-97039999D01*
X170525000Y-96996533D01*
X170525000Y-87003465D01*
X170529281Y-86959999D01*
X170525000Y-86916533D01*
X170525000Y-80663469D01*
X170529281Y-80620000D01*
X170525000Y-80576531D01*
X170525000Y-80576523D01*
X170512195Y-80446510D01*
X170461589Y-80279687D01*
X170379411Y-80125941D01*
X170268817Y-79991183D01*
X170235045Y-79963467D01*
X169861534Y-79589956D01*
X169833817Y-79556183D01*
X169699059Y-79445589D01*
X169545313Y-79363411D01*
X169378490Y-79312805D01*
X169349569Y-79309957D01*
X169291185Y-79238815D01*
X169194494Y-79159463D01*
X169084180Y-79100498D01*
X168964482Y-79064188D01*
X168840000Y-79051928D01*
X167340000Y-79051928D01*
X167215518Y-79064188D01*
X167095820Y-79100498D01*
X166985506Y-79159463D01*
X166929737Y-79205231D01*
X166898405Y-79146613D01*
X166787962Y-79012038D01*
X166653387Y-78901595D01*
X166499851Y-78819528D01*
X166333255Y-78768992D01*
X166160001Y-78751928D01*
X165259999Y-78751928D01*
X165086745Y-78768992D01*
X164920149Y-78819528D01*
X164766613Y-78901595D01*
X164632038Y-79012038D01*
X164605000Y-79044984D01*
X164577962Y-79012038D01*
X164443387Y-78901595D01*
X164289851Y-78819528D01*
X164123255Y-78768992D01*
X163950001Y-78751928D01*
X163049999Y-78751928D01*
X162876745Y-78768992D01*
X162710149Y-78819528D01*
X162556613Y-78901595D01*
X162422038Y-79012038D01*
X162311595Y-79146613D01*
X162229528Y-79300149D01*
X162178992Y-79466745D01*
X162161928Y-79639999D01*
X162161928Y-80290001D01*
X162178992Y-80463255D01*
X162229528Y-80629851D01*
X162311595Y-80783387D01*
X162422038Y-80917962D01*
X162428594Y-80923342D01*
X162348815Y-80988815D01*
X162269463Y-81085506D01*
X162210498Y-81195820D01*
X162174188Y-81315518D01*
X162161928Y-81440000D01*
X162165000Y-81729250D01*
X162323750Y-81888000D01*
X163373000Y-81888000D01*
X163373000Y-81868000D01*
X163627000Y-81868000D01*
X163627000Y-81888000D01*
X163647000Y-81888000D01*
X163647000Y-82142000D01*
X163627000Y-82142000D01*
X163627000Y-83066250D01*
X163785750Y-83225000D01*
X164200000Y-83228072D01*
X164324482Y-83215812D01*
X164444180Y-83179502D01*
X164554494Y-83120537D01*
X164651185Y-83041185D01*
X164679387Y-83006820D01*
X164766613Y-83078405D01*
X164920149Y-83160472D01*
X165086745Y-83211008D01*
X165259999Y-83228072D01*
X166160001Y-83228072D01*
X166333255Y-83211008D01*
X166499851Y-83160472D01*
X166653387Y-83078405D01*
X166787962Y-82967962D01*
X166898405Y-82833387D01*
X166929614Y-82775000D01*
X167308808Y-82775000D01*
X167340000Y-82778072D01*
X168068868Y-82778072D01*
X168075000Y-82778676D01*
X168081132Y-82778072D01*
X168755000Y-82778072D01*
X168755001Y-84823422D01*
X168136534Y-84204956D01*
X168108817Y-84171183D01*
X167974059Y-84060589D01*
X167820313Y-83978411D01*
X167653490Y-83927805D01*
X167523477Y-83915000D01*
X167523469Y-83915000D01*
X167480000Y-83910719D01*
X167436531Y-83915000D01*
X150957659Y-83915000D01*
X149805200Y-82762542D01*
X149805200Y-82590000D01*
X162161928Y-82590000D01*
X162174188Y-82714482D01*
X162210498Y-82834180D01*
X162269463Y-82944494D01*
X162348815Y-83041185D01*
X162445506Y-83120537D01*
X162555820Y-83179502D01*
X162675518Y-83215812D01*
X162800000Y-83228072D01*
X163214250Y-83225000D01*
X163373000Y-83066250D01*
X163373000Y-82142000D01*
X162323750Y-82142000D01*
X162165000Y-82300750D01*
X162161928Y-82590000D01*
X149805200Y-82590000D01*
X149805200Y-80134439D01*
X149846512Y-80106835D01*
X150053355Y-79899992D01*
X150175075Y-79717826D01*
X150244702Y-79834715D01*
X150439611Y-80050948D01*
X150672960Y-80225001D01*
X150935781Y-80350185D01*
X151082990Y-80394836D01*
X151312880Y-80273515D01*
X151312880Y-79080360D01*
X151566880Y-79080360D01*
X151566880Y-80273515D01*
X151796770Y-80394836D01*
X151943979Y-80350185D01*
X152206800Y-80225001D01*
X152440149Y-80050948D01*
X152635058Y-79834715D01*
X152784037Y-79584612D01*
X152881361Y-79310251D01*
X152760694Y-79080360D01*
X151566880Y-79080360D01*
X151312880Y-79080360D01*
X151292880Y-79080360D01*
X151292880Y-78826360D01*
X151312880Y-78826360D01*
X151312880Y-77633205D01*
X151566880Y-77633205D01*
X151566880Y-78826360D01*
X152760694Y-78826360D01*
X152881361Y-78596469D01*
X152784037Y-78322108D01*
X152635058Y-78072005D01*
X152440149Y-77855772D01*
X152206800Y-77681719D01*
X151943979Y-77556535D01*
X151796770Y-77511884D01*
X151566880Y-77633205D01*
X151312880Y-77633205D01*
X151082990Y-77511884D01*
X150935781Y-77556535D01*
X150672960Y-77681719D01*
X150439611Y-77855772D01*
X150244702Y-78072005D01*
X150175075Y-78188894D01*
X150053355Y-78006728D01*
X149846512Y-77799885D01*
X149603291Y-77637370D01*
X149333038Y-77525428D01*
X149046140Y-77468360D01*
X148753620Y-77468360D01*
X148466722Y-77525428D01*
X148196469Y-77637370D01*
X147953248Y-77799885D01*
X147821393Y-77931740D01*
X147799382Y-77859180D01*
X147740417Y-77748866D01*
X147661065Y-77652175D01*
X147564374Y-77572823D01*
X147454060Y-77513858D01*
X147334362Y-77477548D01*
X147209880Y-77465288D01*
X145509880Y-77465288D01*
X145385398Y-77477548D01*
X145265700Y-77513858D01*
X145155386Y-77572823D01*
X145058695Y-77652175D01*
X144979343Y-77748866D01*
X144920378Y-77859180D01*
X144884068Y-77978878D01*
X144871808Y-78103360D01*
X144871808Y-79803360D01*
X144884068Y-79927842D01*
X144920378Y-80047540D01*
X144979343Y-80157854D01*
X145058695Y-80254545D01*
X145155386Y-80333897D01*
X145265700Y-80392862D01*
X145385398Y-80429172D01*
X145509880Y-80441432D01*
X147209880Y-80441432D01*
X147334362Y-80429172D01*
X147454060Y-80392862D01*
X147564374Y-80333897D01*
X147661065Y-80254545D01*
X147740417Y-80157854D01*
X147799382Y-80047540D01*
X147821393Y-79974980D01*
X147953248Y-80106835D01*
X148035200Y-80161594D01*
X148035201Y-83085641D01*
X148030919Y-83129120D01*
X148048005Y-83302610D01*
X148098612Y-83469433D01*
X148180790Y-83623179D01*
X148263668Y-83724166D01*
X148263671Y-83724169D01*
X148291384Y-83757937D01*
X148325151Y-83785649D01*
X149934550Y-85395049D01*
X149962263Y-85428817D01*
X149996031Y-85456530D01*
X149996033Y-85456532D01*
X150038051Y-85491015D01*
X150097021Y-85539411D01*
X150250767Y-85621589D01*
X150417590Y-85672195D01*
X150547603Y-85685000D01*
X150547613Y-85685000D01*
X150591079Y-85689281D01*
X150634545Y-85685000D01*
X167113422Y-85685000D01*
X168755000Y-87326579D01*
X168755001Y-94903423D01*
X168308414Y-94456836D01*
X168280697Y-94423063D01*
X168145939Y-94312469D01*
X167992193Y-94230291D01*
X167825370Y-94179685D01*
X167695357Y-94166880D01*
X167695349Y-94166880D01*
X167651880Y-94162599D01*
X167608411Y-94166880D01*
X162140712Y-94166880D01*
X162140712Y-94136780D01*
X162128452Y-94012298D01*
X162092142Y-93892600D01*
X162033177Y-93782286D01*
X161953825Y-93685595D01*
X161857134Y-93606243D01*
X161746820Y-93547278D01*
X161627122Y-93510968D01*
X161502640Y-93498708D01*
X160352640Y-93498708D01*
X160228813Y-93510839D01*
X160202705Y-93518729D01*
X160177122Y-93510968D01*
X160052640Y-93498708D01*
X159052640Y-93498708D01*
X158928158Y-93510968D01*
X158808460Y-93547278D01*
X158744517Y-93581457D01*
X158741460Y-93293590D01*
X158582710Y-93134840D01*
X157533460Y-93134840D01*
X157533460Y-93154840D01*
X157279460Y-93154840D01*
X157279460Y-93134840D01*
X157259460Y-93134840D01*
X157259460Y-92880840D01*
X157279460Y-92880840D01*
X157279460Y-91956590D01*
X157533460Y-91956590D01*
X157533460Y-92880840D01*
X158582710Y-92880840D01*
X158741460Y-92722090D01*
X158744532Y-92432840D01*
X158732272Y-92308358D01*
X158695962Y-92188660D01*
X158636997Y-92078346D01*
X158557645Y-91981655D01*
X158460954Y-91902303D01*
X158350640Y-91843338D01*
X158230942Y-91807028D01*
X158106460Y-91794768D01*
X157692210Y-91797840D01*
X157533460Y-91956590D01*
X157279460Y-91956590D01*
X157120710Y-91797840D01*
X156706460Y-91794768D01*
X156581978Y-91807028D01*
X156462280Y-91843338D01*
X156351966Y-91902303D01*
X156255275Y-91981655D01*
X156208976Y-92038070D01*
X156091787Y-91941895D01*
X155938251Y-91859828D01*
X155771655Y-91809292D01*
X155598401Y-91792228D01*
X154698399Y-91792228D01*
X154525145Y-91809292D01*
X154358549Y-91859828D01*
X154205013Y-91941895D01*
X154070438Y-92052338D01*
X153959995Y-92186913D01*
X153897813Y-92303247D01*
X153865494Y-92276723D01*
X153755180Y-92217758D01*
X153635482Y-92181448D01*
X153511000Y-92169188D01*
X151951000Y-92169188D01*
X151890719Y-92175125D01*
X152020450Y-92045394D01*
X152150134Y-91851308D01*
X152239461Y-91635652D01*
X152285000Y-91406712D01*
X152285000Y-91173288D01*
X152239461Y-90944348D01*
X152150134Y-90728692D01*
X152020450Y-90534606D01*
X151985000Y-90499156D01*
X151985000Y-90419634D01*
X152047962Y-90367962D01*
X152053342Y-90361406D01*
X152118815Y-90441185D01*
X152215506Y-90520537D01*
X152325820Y-90579502D01*
X152445518Y-90615812D01*
X152570000Y-90628072D01*
X152859250Y-90625000D01*
X153018000Y-90466250D01*
X153018000Y-89417000D01*
X153272000Y-89417000D01*
X153272000Y-90466250D01*
X153430750Y-90625000D01*
X153720000Y-90628072D01*
X153844482Y-90615812D01*
X153964180Y-90579502D01*
X154074494Y-90520537D01*
X154171185Y-90441185D01*
X154250537Y-90344494D01*
X154309502Y-90234180D01*
X154345812Y-90114482D01*
X154358072Y-89990000D01*
X154355000Y-89575750D01*
X154196250Y-89417000D01*
X153272000Y-89417000D01*
X153018000Y-89417000D01*
X152998000Y-89417000D01*
X152998000Y-89163000D01*
X153018000Y-89163000D01*
X153018000Y-87247000D01*
X153272000Y-87247000D01*
X153272000Y-89163000D01*
X154196250Y-89163000D01*
X154355000Y-89004250D01*
X154358072Y-88590000D01*
X154345812Y-88465518D01*
X154309502Y-88345820D01*
X154250537Y-88235506D01*
X154225501Y-88205000D01*
X154250537Y-88174494D01*
X154309502Y-88064180D01*
X154345812Y-87944482D01*
X154358072Y-87820000D01*
X154355000Y-87405750D01*
X154196250Y-87247000D01*
X153272000Y-87247000D01*
X153018000Y-87247000D01*
X152998000Y-87247000D01*
X152998000Y-86993000D01*
X153018000Y-86993000D01*
X153018000Y-85943750D01*
X153272000Y-85943750D01*
X153272000Y-86993000D01*
X154196250Y-86993000D01*
X154355000Y-86834250D01*
X154358072Y-86420000D01*
X154345812Y-86295518D01*
X154309502Y-86175820D01*
X154250537Y-86065506D01*
X154171185Y-85968815D01*
X154074494Y-85889463D01*
X153964180Y-85830498D01*
X153844482Y-85794188D01*
X153720000Y-85781928D01*
X153430750Y-85785000D01*
X153272000Y-85943750D01*
X153018000Y-85943750D01*
X152859250Y-85785000D01*
X152570000Y-85781928D01*
X152445518Y-85794188D01*
X152325820Y-85830498D01*
X152215506Y-85889463D01*
X152118815Y-85968815D01*
X152053342Y-86048594D01*
X152047962Y-86042038D01*
X151913387Y-85931595D01*
X151759851Y-85849528D01*
X151593255Y-85798992D01*
X151420001Y-85781928D01*
X150769999Y-85781928D01*
X150596745Y-85798992D01*
X150430149Y-85849528D01*
X150276613Y-85931595D01*
X150142038Y-86042038D01*
X150031595Y-86176613D01*
X149949528Y-86330149D01*
X149945663Y-86342890D01*
X149927980Y-86333438D01*
X149808282Y-86297128D01*
X149683800Y-86284868D01*
X148123800Y-86284868D01*
X147999318Y-86297128D01*
X147879620Y-86333438D01*
X147769306Y-86392403D01*
X147672615Y-86471755D01*
X147593263Y-86568446D01*
X147553800Y-86642275D01*
X147514337Y-86568446D01*
X147434985Y-86471755D01*
X147338294Y-86392403D01*
X147227980Y-86333438D01*
X147108282Y-86297128D01*
X146983800Y-86284868D01*
X146309670Y-86284868D01*
X145153804Y-85129003D01*
X145130001Y-85099999D01*
X145014276Y-85005026D01*
X144882247Y-84934454D01*
X144738986Y-84890997D01*
X144627333Y-84880000D01*
X144627322Y-84880000D01*
X144590000Y-84876324D01*
X144552678Y-84880000D01*
X137097301Y-84880000D01*
X137109461Y-84850642D01*
X137155000Y-84621702D01*
X137155000Y-84388278D01*
X137109461Y-84159338D01*
X137020134Y-83943682D01*
X136890450Y-83749596D01*
X136855000Y-83714146D01*
X136855000Y-82127365D01*
X136859281Y-82083899D01*
X136855000Y-82040433D01*
X136855000Y-78048858D01*
X136862892Y-78022842D01*
X136875152Y-77898360D01*
X136875152Y-76198360D01*
X136862892Y-76073878D01*
X136826582Y-75954180D01*
X136767617Y-75843866D01*
X136688265Y-75747175D01*
X136591574Y-75667823D01*
X136481260Y-75608858D01*
X136361562Y-75572548D01*
X136237080Y-75560288D01*
X134537080Y-75560288D01*
X134412598Y-75572548D01*
X134292900Y-75608858D01*
X134182586Y-75667823D01*
X134085895Y-75747175D01*
X134006543Y-75843866D01*
X133947578Y-75954180D01*
X133923114Y-76034826D01*
X133847349Y-75950772D01*
X133614000Y-75776719D01*
X133351179Y-75651535D01*
X133203970Y-75606884D01*
X132974080Y-75728205D01*
X132974080Y-76921360D01*
X132994080Y-76921360D01*
X132994080Y-77175360D01*
X132974080Y-77175360D01*
X132974080Y-78368515D01*
X133203970Y-78489836D01*
X133351179Y-78445185D01*
X133614000Y-78320001D01*
X133847349Y-78145948D01*
X133923114Y-78061894D01*
X133947578Y-78142540D01*
X134006543Y-78252854D01*
X134085895Y-78349545D01*
X134182586Y-78428897D01*
X134292900Y-78487862D01*
X134412598Y-78524172D01*
X134537080Y-78536432D01*
X135085000Y-78536432D01*
X135085000Y-78793064D01*
X134948615Y-78751692D01*
X134775361Y-78734628D01*
X133875359Y-78734628D01*
X133702105Y-78751692D01*
X133535509Y-78802228D01*
X133381973Y-78884295D01*
X133259291Y-78984978D01*
X133135147Y-78883095D01*
X132981611Y-78801028D01*
X132815015Y-78750492D01*
X132641761Y-78733428D01*
X131741759Y-78733428D01*
X131568505Y-78750492D01*
X131401909Y-78801028D01*
X131248373Y-78883095D01*
X131113798Y-78993538D01*
X131107909Y-79000714D01*
X130973607Y-78890495D01*
X130820071Y-78808428D01*
X130653475Y-78757892D01*
X130480221Y-78740828D01*
X129580219Y-78740828D01*
X129406965Y-78757892D01*
X129240369Y-78808428D01*
X129086833Y-78890495D01*
X128992630Y-78967806D01*
X128898427Y-78890495D01*
X128744891Y-78808428D01*
X128578295Y-78757892D01*
X128405041Y-78740828D01*
X127505039Y-78740828D01*
X127331785Y-78757892D01*
X127165189Y-78808428D01*
X127011653Y-78890495D01*
X126877078Y-79000938D01*
X126766635Y-79135513D01*
X126684568Y-79289049D01*
X126634032Y-79455645D01*
X126616968Y-79628899D01*
X126616968Y-80278901D01*
X126634032Y-80452155D01*
X126684568Y-80618751D01*
X126766635Y-80772287D01*
X126877078Y-80906862D01*
X126883634Y-80912242D01*
X126803855Y-80977715D01*
X126724503Y-81074406D01*
X126665538Y-81184720D01*
X126629228Y-81304418D01*
X126616968Y-81428900D01*
X126620040Y-81718150D01*
X126778790Y-81876900D01*
X127828040Y-81876900D01*
X127828040Y-81856900D01*
X128082040Y-81856900D01*
X128082040Y-81876900D01*
X128102040Y-81876900D01*
X128102040Y-82130900D01*
X128082040Y-82130900D01*
X128082040Y-83055150D01*
X128240790Y-83213900D01*
X128655040Y-83216972D01*
X128779522Y-83204712D01*
X128899220Y-83168402D01*
X129009534Y-83109437D01*
X129073853Y-83056652D01*
X129086833Y-83067305D01*
X129240369Y-83149372D01*
X129406965Y-83199908D01*
X129580219Y-83216972D01*
X130480221Y-83216972D01*
X130653475Y-83199908D01*
X130820071Y-83149372D01*
X130973607Y-83067305D01*
X131108182Y-82956862D01*
X131114071Y-82949686D01*
X131248373Y-83059905D01*
X131401909Y-83141972D01*
X131431760Y-83151027D01*
X131431761Y-84638648D01*
X131428084Y-84675980D01*
X131431761Y-84713313D01*
X131436329Y-84759687D01*
X131442758Y-84824965D01*
X131486214Y-84968226D01*
X131556786Y-85100256D01*
X131627961Y-85186982D01*
X131651760Y-85215981D01*
X131680758Y-85239779D01*
X132591980Y-86151002D01*
X132615779Y-86180001D01*
X132731504Y-86274974D01*
X132863533Y-86345546D01*
X133006794Y-86389003D01*
X133118447Y-86400000D01*
X133118456Y-86400000D01*
X133155779Y-86403676D01*
X133193102Y-86400000D01*
X142591938Y-86400000D01*
X142568168Y-86478358D01*
X142555908Y-86602840D01*
X142558980Y-86892090D01*
X142717730Y-87050840D01*
X143766980Y-87050840D01*
X143766980Y-87030840D01*
X144020980Y-87030840D01*
X144020980Y-87050840D01*
X144040980Y-87050840D01*
X144040980Y-87304840D01*
X144020980Y-87304840D01*
X144020980Y-87324840D01*
X143766980Y-87324840D01*
X143766980Y-87304840D01*
X142717730Y-87304840D01*
X142558980Y-87463590D01*
X142555908Y-87752840D01*
X142568168Y-87877322D01*
X142604478Y-87997020D01*
X142663443Y-88107334D01*
X142742795Y-88204025D01*
X142822574Y-88269498D01*
X142816018Y-88274878D01*
X142709229Y-88405000D01*
X142706579Y-88405000D01*
X141106534Y-86804956D01*
X141078817Y-86771183D01*
X140944059Y-86660589D01*
X140790313Y-86578411D01*
X140623490Y-86527805D01*
X140493477Y-86515000D01*
X140493469Y-86515000D01*
X140450000Y-86510719D01*
X140406531Y-86515000D01*
X131037874Y-86515000D01*
X131056307Y-86496725D01*
X131192390Y-86294946D01*
X131286493Y-86070496D01*
X131335000Y-85832000D01*
X131335000Y-85557000D01*
X130227000Y-85557000D01*
X130227000Y-85577000D01*
X129973000Y-85577000D01*
X129973000Y-85557000D01*
X129953000Y-85557000D01*
X129953000Y-85303000D01*
X129973000Y-85303000D01*
X129973000Y-84086269D01*
X130227000Y-84086269D01*
X130227000Y-85303000D01*
X131335000Y-85303000D01*
X131335000Y-85028000D01*
X131286493Y-84789504D01*
X131192390Y-84565054D01*
X131056307Y-84363275D01*
X130883474Y-84191922D01*
X130680533Y-84057579D01*
X130455282Y-83965409D01*
X130417609Y-83961538D01*
X130227000Y-84086269D01*
X129973000Y-84086269D01*
X129782391Y-83961538D01*
X129744718Y-83965409D01*
X129519467Y-84057579D01*
X129316526Y-84191922D01*
X129190967Y-84316406D01*
X129188405Y-84311613D01*
X129077962Y-84177038D01*
X128943387Y-84066595D01*
X128789851Y-83984528D01*
X128623255Y-83933992D01*
X128450001Y-83916928D01*
X127749999Y-83916928D01*
X127576745Y-83933992D01*
X127410149Y-83984528D01*
X127256613Y-84066595D01*
X127122038Y-84177038D01*
X127011595Y-84311613D01*
X126929528Y-84465149D01*
X126878992Y-84631745D01*
X126861928Y-84804999D01*
X126861928Y-86055001D01*
X126878992Y-86228255D01*
X126929528Y-86394851D01*
X127011595Y-86548387D01*
X127122038Y-86682962D01*
X127256613Y-86793405D01*
X127296358Y-86814649D01*
X127328412Y-86920313D01*
X127410590Y-87074059D01*
X127493468Y-87175046D01*
X127493471Y-87175049D01*
X127521184Y-87208817D01*
X127554951Y-87236529D01*
X128313470Y-87995049D01*
X128341183Y-88028817D01*
X128374951Y-88056530D01*
X128374953Y-88056532D01*
X128429862Y-88101595D01*
X128475941Y-88139411D01*
X128629687Y-88221589D01*
X128796510Y-88272195D01*
X128926523Y-88285000D01*
X128926533Y-88285000D01*
X128969999Y-88289281D01*
X129013465Y-88285000D01*
X129110412Y-88285000D01*
X129103643Y-88295021D01*
X128999922Y-88541883D01*
X128987481Y-88607742D01*
X129110482Y-88818000D01*
X130453000Y-88818000D01*
X130453000Y-88798000D01*
X130707000Y-88798000D01*
X130707000Y-88818000D01*
X132049518Y-88818000D01*
X132172519Y-88607742D01*
X132160078Y-88541883D01*
X132056357Y-88295021D01*
X132049588Y-88285000D01*
X134820409Y-88285000D01*
X134775000Y-88513288D01*
X134775000Y-88746712D01*
X134820539Y-88975652D01*
X134909866Y-89191308D01*
X135039550Y-89385394D01*
X135075001Y-89420845D01*
X135075001Y-90465000D01*
X132096523Y-90465000D01*
X131966510Y-90477805D01*
X131817286Y-90523072D01*
X131804482Y-90519188D01*
X131680000Y-90506928D01*
X130510716Y-90506928D01*
X130525226Y-90471898D01*
X130565000Y-90271939D01*
X130565000Y-90068061D01*
X130525226Y-89868102D01*
X130453000Y-89693734D01*
X130453000Y-89072000D01*
X130707000Y-89072000D01*
X130707000Y-90305000D01*
X130982000Y-90305000D01*
X131244883Y-90254092D01*
X131492783Y-90152876D01*
X131716173Y-90005242D01*
X131906469Y-89816863D01*
X132056357Y-89594979D01*
X132160078Y-89348117D01*
X132172519Y-89282258D01*
X132049518Y-89072000D01*
X130707000Y-89072000D01*
X130453000Y-89072000D01*
X129110482Y-89072000D01*
X128987481Y-89282258D01*
X128988396Y-89287104D01*
X128870226Y-89366063D01*
X128726063Y-89510226D01*
X128612795Y-89679744D01*
X128534774Y-89868102D01*
X128495000Y-90068061D01*
X128495000Y-90271939D01*
X128534774Y-90471898D01*
X128612795Y-90660256D01*
X128726063Y-90829774D01*
X128870226Y-90973937D01*
X129039744Y-91087205D01*
X129228102Y-91165226D01*
X129341928Y-91187867D01*
X129341928Y-91595000D01*
X129351777Y-91695000D01*
X129341928Y-91795000D01*
X129341928Y-92245000D01*
X129351777Y-92345000D01*
X129341928Y-92445000D01*
X129341928Y-92895000D01*
X129351777Y-92995000D01*
X129341928Y-93095000D01*
X129341928Y-93545000D01*
X129352062Y-93647897D01*
X129345000Y-93713250D01*
X129377247Y-93745497D01*
X129390498Y-93789180D01*
X129449463Y-93899494D01*
X129528815Y-93996185D01*
X129616322Y-94068000D01*
X129503750Y-94068000D01*
X129436750Y-94135000D01*
X129428061Y-94135000D01*
X129228102Y-94174774D01*
X129039744Y-94252795D01*
X128870226Y-94366063D01*
X128726063Y-94510226D01*
X128612795Y-94679744D01*
X128534774Y-94868102D01*
X128495000Y-95068061D01*
X128495000Y-95271939D01*
X128534774Y-95471898D01*
X128612795Y-95660256D01*
X128726063Y-95829774D01*
X128870226Y-95973937D01*
X128988396Y-96052896D01*
X128987481Y-96057742D01*
X129110482Y-96268000D01*
X130453000Y-96268000D01*
X130453000Y-95646266D01*
X130525226Y-95471898D01*
X130565000Y-95271939D01*
X130565000Y-95068061D01*
X130558424Y-95035000D01*
X130707000Y-95035000D01*
X130707000Y-96268000D01*
X132049518Y-96268000D01*
X132172519Y-96057742D01*
X132160078Y-95991883D01*
X132056357Y-95745021D01*
X131906469Y-95523137D01*
X131716173Y-95334758D01*
X131492783Y-95187124D01*
X131244883Y-95085908D01*
X130982000Y-95035000D01*
X130707000Y-95035000D01*
X130558424Y-95035000D01*
X130525226Y-94868102D01*
X130509522Y-94830188D01*
X130544250Y-94830000D01*
X130703000Y-94671250D01*
X130703000Y-94183072D01*
X130957000Y-94183072D01*
X130957000Y-94671250D01*
X131115750Y-94830000D01*
X131671325Y-94833013D01*
X131795962Y-94822446D01*
X131916142Y-94787767D01*
X132027248Y-94730308D01*
X132125009Y-94652278D01*
X132205669Y-94556674D01*
X132266127Y-94447172D01*
X132304061Y-94327979D01*
X132315000Y-94226750D01*
X132156250Y-94068000D01*
X132043678Y-94068000D01*
X132131185Y-93996185D01*
X132210537Y-93899494D01*
X132269502Y-93789180D01*
X132282753Y-93745497D01*
X132315000Y-93713250D01*
X132307938Y-93647897D01*
X132318072Y-93545000D01*
X132318072Y-93095000D01*
X132308223Y-92995000D01*
X132318072Y-92895000D01*
X132318072Y-92445000D01*
X132308223Y-92345000D01*
X132318072Y-92245000D01*
X132318072Y-92235000D01*
X135075000Y-92235000D01*
X135075000Y-93686531D01*
X135070719Y-93730000D01*
X135075000Y-93773469D01*
X135075000Y-93773476D01*
X135083452Y-93859292D01*
X135087805Y-93903490D01*
X135091883Y-93916932D01*
X135138411Y-94070312D01*
X135220589Y-94224058D01*
X135331183Y-94358817D01*
X135364956Y-94386534D01*
X136650750Y-95672329D01*
X136678463Y-95706097D01*
X136712231Y-95733810D01*
X136712233Y-95733812D01*
X136813221Y-95816691D01*
X136966966Y-95898869D01*
X137092801Y-95937041D01*
X137133790Y-95949475D01*
X137263803Y-95962280D01*
X137263811Y-95962280D01*
X137307280Y-95966561D01*
X137350749Y-95962280D01*
X139500444Y-95962280D01*
X139542038Y-96012962D01*
X139676613Y-96123405D01*
X139830149Y-96205472D01*
X139996745Y-96256008D01*
X140169999Y-96273072D01*
X141070001Y-96273072D01*
X141243255Y-96256008D01*
X141409851Y-96205472D01*
X141563387Y-96123405D01*
X141697962Y-96012962D01*
X141745530Y-95955000D01*
X141993007Y-95955000D01*
X142019463Y-96004494D01*
X142045000Y-96035612D01*
X142045000Y-96204151D01*
X142016198Y-96206988D01*
X141896500Y-96243298D01*
X141786186Y-96302263D01*
X141689495Y-96381615D01*
X141610143Y-96478306D01*
X141551178Y-96588620D01*
X141514868Y-96708318D01*
X141502608Y-96832800D01*
X141502608Y-97832800D01*
X141514868Y-97957282D01*
X141551178Y-98076980D01*
X141610143Y-98187294D01*
X141689495Y-98283985D01*
X141786186Y-98363337D01*
X141896500Y-98422302D01*
X142016198Y-98458612D01*
X142140680Y-98470872D01*
X143140680Y-98470872D01*
X143265162Y-98458612D01*
X143384860Y-98422302D01*
X143495174Y-98363337D01*
X143591865Y-98283985D01*
X143671217Y-98187294D01*
X143730182Y-98076980D01*
X143766492Y-97957282D01*
X143778752Y-97832800D01*
X143778752Y-97530770D01*
X143802195Y-97453490D01*
X143815000Y-97323477D01*
X143815000Y-97323469D01*
X143819281Y-97280000D01*
X143815000Y-97236531D01*
X143815000Y-96084351D01*
X143880537Y-96004494D01*
X143900000Y-95968082D01*
X143919463Y-96004494D01*
X143963580Y-96058251D01*
X143963581Y-97175101D01*
X143959299Y-97218580D01*
X143976385Y-97392070D01*
X144002608Y-97478513D01*
X144002608Y-97832800D01*
X144014868Y-97957282D01*
X144051178Y-98076980D01*
X144110143Y-98187294D01*
X144189495Y-98283985D01*
X144286186Y-98363337D01*
X144396500Y-98422302D01*
X144516198Y-98458612D01*
X144640680Y-98470872D01*
X145640680Y-98470872D01*
X145765162Y-98458612D01*
X145884860Y-98422302D01*
X145995174Y-98363337D01*
X146091865Y-98283985D01*
X146171217Y-98187294D01*
X146230182Y-98076980D01*
X146266492Y-97957282D01*
X146278752Y-97832800D01*
X146278752Y-96832800D01*
X146266492Y-96708318D01*
X146230182Y-96588620D01*
X146171217Y-96478306D01*
X146091865Y-96381615D01*
X145995174Y-96302263D01*
X145884860Y-96243298D01*
X145765162Y-96206988D01*
X145733580Y-96203878D01*
X145733580Y-96061711D01*
X145780537Y-96004494D01*
X145805667Y-95957480D01*
X146430278Y-95957480D01*
X146519258Y-96065902D01*
X146653833Y-96176345D01*
X146682221Y-96191519D01*
X146682221Y-96624062D01*
X146677939Y-96667540D01*
X146695025Y-96841030D01*
X146745632Y-97007853D01*
X146827810Y-97161599D01*
X146910688Y-97262586D01*
X146910691Y-97262589D01*
X146938404Y-97296357D01*
X146972171Y-97324069D01*
X147870090Y-98221989D01*
X147897803Y-98255757D01*
X147931571Y-98283470D01*
X147931573Y-98283472D01*
X147978757Y-98322195D01*
X148032561Y-98366351D01*
X148186307Y-98448529D01*
X148353130Y-98499135D01*
X148483143Y-98511940D01*
X148483153Y-98511940D01*
X148526619Y-98516221D01*
X148570085Y-98511940D01*
X151814751Y-98511940D01*
X151858220Y-98516221D01*
X151901689Y-98511940D01*
X151901697Y-98511940D01*
X152031710Y-98499135D01*
X152198533Y-98448529D01*
X152352279Y-98366351D01*
X152487037Y-98255757D01*
X152514754Y-98221984D01*
X153326050Y-97410689D01*
X153359817Y-97382977D01*
X153411502Y-97320000D01*
X153463596Y-97256523D01*
X153470411Y-97248219D01*
X153552589Y-97094473D01*
X153603195Y-96927650D01*
X153616000Y-96797637D01*
X153616000Y-96797627D01*
X153620281Y-96754161D01*
X153616000Y-96710695D01*
X153616000Y-95984991D01*
X153635482Y-95983072D01*
X153755180Y-95946762D01*
X153855724Y-95893019D01*
X153850175Y-95901324D01*
X153772154Y-96089682D01*
X153732380Y-96289641D01*
X153732380Y-96493519D01*
X153772154Y-96693478D01*
X153850175Y-96881836D01*
X153963443Y-97051354D01*
X154107606Y-97195517D01*
X154277124Y-97308785D01*
X154465482Y-97386806D01*
X154665441Y-97426580D01*
X154869319Y-97426580D01*
X155069278Y-97386806D01*
X155239976Y-97316100D01*
X156902751Y-97316100D01*
X156946220Y-97320381D01*
X156989689Y-97316100D01*
X156989697Y-97316100D01*
X157119710Y-97303295D01*
X157286533Y-97252689D01*
X157440279Y-97170511D01*
X157575037Y-97059917D01*
X157602754Y-97026144D01*
X158032265Y-96596633D01*
X158066037Y-96568917D01*
X158176631Y-96434159D01*
X158258809Y-96280413D01*
X158298819Y-96148520D01*
X158349847Y-96121245D01*
X158484422Y-96010802D01*
X158513562Y-95975295D01*
X158522103Y-95991274D01*
X158601455Y-96087965D01*
X158698146Y-96167317D01*
X158808460Y-96226282D01*
X158928158Y-96262592D01*
X159052640Y-96274852D01*
X160052640Y-96274852D01*
X160177776Y-96262461D01*
X160202704Y-96254871D01*
X160228158Y-96262592D01*
X160352640Y-96274852D01*
X161502640Y-96274852D01*
X161627122Y-96262592D01*
X161746820Y-96226282D01*
X161857134Y-96167317D01*
X161953825Y-96087965D01*
X162033177Y-95991274D01*
X162062252Y-95936880D01*
X167285302Y-95936880D01*
X168755000Y-97406579D01*
X168755000Y-99883422D01*
X168195054Y-99323476D01*
X168167337Y-99289703D01*
X168032579Y-99179109D01*
X167878833Y-99096931D01*
X167712010Y-99046325D01*
X167581997Y-99033520D01*
X167581989Y-99033520D01*
X167538520Y-99029239D01*
X167495051Y-99033520D01*
X166991989Y-99033520D01*
X166948520Y-99029239D01*
X166905051Y-99033520D01*
X152524949Y-99033520D01*
X152481480Y-99029239D01*
X152438011Y-99033520D01*
X128274945Y-99033520D01*
X128231479Y-99029239D01*
X128188013Y-99033520D01*
X128188003Y-99033520D01*
X128057990Y-99046325D01*
X127891167Y-99096931D01*
X127737421Y-99179109D01*
X127737419Y-99179110D01*
X127737420Y-99179110D01*
X127636433Y-99261988D01*
X127636431Y-99261990D01*
X127602663Y-99289703D01*
X127574950Y-99323471D01*
X126666494Y-100231928D01*
X126238253Y-100231928D01*
X126240565Y-97737026D01*
X126328000Y-97755000D01*
X126653000Y-97755000D01*
X126653000Y-96672000D01*
X126907000Y-96672000D01*
X126907000Y-97755000D01*
X127232000Y-97755000D01*
X127465619Y-97706974D01*
X127685380Y-97614294D01*
X127882837Y-97480521D01*
X128050402Y-97310797D01*
X128181636Y-97111644D01*
X128271496Y-96890715D01*
X128273635Y-96858677D01*
X128188927Y-96732258D01*
X128987481Y-96732258D01*
X128999922Y-96798117D01*
X129103643Y-97044979D01*
X129253531Y-97266863D01*
X129443827Y-97455242D01*
X129667217Y-97602876D01*
X129915117Y-97704092D01*
X130178000Y-97755000D01*
X130453000Y-97755000D01*
X130453000Y-96522000D01*
X130707000Y-96522000D01*
X130707000Y-97755000D01*
X130982000Y-97755000D01*
X131244883Y-97704092D01*
X131492783Y-97602876D01*
X131716173Y-97455242D01*
X131906469Y-97266863D01*
X132056357Y-97044979D01*
X132160078Y-96798117D01*
X132172519Y-96732258D01*
X132049518Y-96522000D01*
X130707000Y-96522000D01*
X130453000Y-96522000D01*
X129110482Y-96522000D01*
X128987481Y-96732258D01*
X128188927Y-96732258D01*
X128148550Y-96672000D01*
X126907000Y-96672000D01*
X126653000Y-96672000D01*
X126633000Y-96672000D01*
X126633000Y-96418000D01*
X126653000Y-96418000D01*
X126653000Y-95335000D01*
X126907000Y-95335000D01*
X126907000Y-96418000D01*
X128148550Y-96418000D01*
X128273635Y-96231323D01*
X128271496Y-96199285D01*
X128181636Y-95978356D01*
X128050402Y-95779203D01*
X127882837Y-95609479D01*
X127685380Y-95475706D01*
X127465619Y-95383026D01*
X127232000Y-95335000D01*
X126907000Y-95335000D01*
X126653000Y-95335000D01*
X126328000Y-95335000D01*
X126242775Y-95352520D01*
X126247747Y-89988502D01*
X126328000Y-90005000D01*
X126653000Y-90005000D01*
X126653000Y-88922000D01*
X126907000Y-88922000D01*
X126907000Y-90005000D01*
X127232000Y-90005000D01*
X127465619Y-89956974D01*
X127685380Y-89864294D01*
X127882837Y-89730521D01*
X128050402Y-89560797D01*
X128181636Y-89361644D01*
X128271496Y-89140715D01*
X128273635Y-89108677D01*
X128148550Y-88922000D01*
X126907000Y-88922000D01*
X126653000Y-88922000D01*
X126633000Y-88922000D01*
X126633000Y-88668000D01*
X126653000Y-88668000D01*
X126653000Y-87585000D01*
X126907000Y-87585000D01*
X126907000Y-88668000D01*
X128148550Y-88668000D01*
X128273635Y-88481323D01*
X128271496Y-88449285D01*
X128181636Y-88228356D01*
X128050402Y-88029203D01*
X127882837Y-87859479D01*
X127685380Y-87725706D01*
X127465619Y-87633026D01*
X127232000Y-87585000D01*
X126907000Y-87585000D01*
X126653000Y-87585000D01*
X126328000Y-87585000D01*
X126249960Y-87601043D01*
X126254614Y-82578900D01*
X126616968Y-82578900D01*
X126629228Y-82703382D01*
X126665538Y-82823080D01*
X126724503Y-82933394D01*
X126803855Y-83030085D01*
X126900546Y-83109437D01*
X127010860Y-83168402D01*
X127130558Y-83204712D01*
X127255040Y-83216972D01*
X127669290Y-83213900D01*
X127828040Y-83055150D01*
X127828040Y-82130900D01*
X126778790Y-82130900D01*
X126620040Y-82289650D01*
X126616968Y-82578900D01*
X126254614Y-82578900D01*
X126259380Y-77437114D01*
X126538367Y-77623528D01*
X126999708Y-77814622D01*
X127489464Y-77912040D01*
X127988816Y-77912040D01*
X128478572Y-77814622D01*
X128939913Y-77623528D01*
X129266586Y-77405251D01*
X131405599Y-77405251D01*
X131502923Y-77679612D01*
X131651902Y-77929715D01*
X131846811Y-78145948D01*
X132080160Y-78320001D01*
X132342981Y-78445185D01*
X132490190Y-78489836D01*
X132720080Y-78368515D01*
X132720080Y-77175360D01*
X131526266Y-77175360D01*
X131405599Y-77405251D01*
X129266586Y-77405251D01*
X129355108Y-77346103D01*
X129708203Y-76993008D01*
X129909685Y-76691469D01*
X131405599Y-76691469D01*
X131526266Y-76921360D01*
X132720080Y-76921360D01*
X132720080Y-75728205D01*
X132490190Y-75606884D01*
X132342981Y-75651535D01*
X132080160Y-75776719D01*
X131846811Y-75950772D01*
X131651902Y-76167005D01*
X131502923Y-76417108D01*
X131405599Y-76691469D01*
X129909685Y-76691469D01*
X129985628Y-76577813D01*
X130176722Y-76116472D01*
X130274140Y-75626716D01*
X130274140Y-75127364D01*
X130176722Y-74637608D01*
X129985628Y-74176267D01*
X129808632Y-73911374D01*
X133603715Y-73908120D01*
X167915524Y-73949861D01*
%TA.AperFunction,Conductor*%
D31*
G36*
X167915524Y-73949861D02*
G01*
X167735392Y-74219447D01*
X167544298Y-74680788D01*
X167446880Y-75170544D01*
X167446880Y-75669896D01*
X167544298Y-76159652D01*
X167735392Y-76620993D01*
X168012817Y-77036188D01*
X168365912Y-77389283D01*
X168781107Y-77666708D01*
X169242448Y-77857802D01*
X169732204Y-77955220D01*
X170231556Y-77955220D01*
X170721312Y-77857802D01*
X171182653Y-77666708D01*
X171455000Y-77484731D01*
X171455001Y-121073824D01*
X171195353Y-120900332D01*
X170734012Y-120709238D01*
X170244256Y-120611820D01*
X169744904Y-120611820D01*
X169638617Y-120632962D01*
X169763892Y-120507687D01*
X169763897Y-120507681D01*
X170235044Y-120036534D01*
X170268817Y-120008817D01*
X170379411Y-119874059D01*
X170461589Y-119720313D01*
X170512195Y-119553490D01*
X170525000Y-119423477D01*
X170525000Y-119423469D01*
X170529281Y-119380000D01*
X170525000Y-119336531D01*
X170525000Y-113653467D01*
X170529281Y-113610001D01*
X170525000Y-113566534D01*
X170525000Y-102063469D01*
X170529281Y-102020000D01*
X170525000Y-101976531D01*
X170525000Y-97083465D01*
X170529281Y-97039999D01*
X170525000Y-96996533D01*
X170525000Y-87003465D01*
X170529281Y-86959999D01*
X170525000Y-86916533D01*
X170525000Y-80663469D01*
X170529281Y-80620000D01*
X170525000Y-80576531D01*
X170525000Y-80576523D01*
X170512195Y-80446510D01*
X170461589Y-80279687D01*
X170379411Y-80125941D01*
X170268817Y-79991183D01*
X170235045Y-79963467D01*
X169861534Y-79589956D01*
X169833817Y-79556183D01*
X169699059Y-79445589D01*
X169545313Y-79363411D01*
X169378490Y-79312805D01*
X169349569Y-79309957D01*
X169291185Y-79238815D01*
X169194494Y-79159463D01*
X169084180Y-79100498D01*
X168964482Y-79064188D01*
X168840000Y-79051928D01*
X167340000Y-79051928D01*
X167215518Y-79064188D01*
X167095820Y-79100498D01*
X166985506Y-79159463D01*
X166929737Y-79205231D01*
X166898405Y-79146613D01*
X166787962Y-79012038D01*
X166653387Y-78901595D01*
X166499851Y-78819528D01*
X166333255Y-78768992D01*
X166160001Y-78751928D01*
X165259999Y-78751928D01*
X165086745Y-78768992D01*
X164920149Y-78819528D01*
X164766613Y-78901595D01*
X164632038Y-79012038D01*
X164605000Y-79044984D01*
X164577962Y-79012038D01*
X164443387Y-78901595D01*
X164289851Y-78819528D01*
X164123255Y-78768992D01*
X163950001Y-78751928D01*
X163049999Y-78751928D01*
X162876745Y-78768992D01*
X162710149Y-78819528D01*
X162556613Y-78901595D01*
X162422038Y-79012038D01*
X162311595Y-79146613D01*
X162229528Y-79300149D01*
X162178992Y-79466745D01*
X162161928Y-79639999D01*
X162161928Y-80290001D01*
X162178992Y-80463255D01*
X162229528Y-80629851D01*
X162311595Y-80783387D01*
X162422038Y-80917962D01*
X162428594Y-80923342D01*
X162348815Y-80988815D01*
X162269463Y-81085506D01*
X162210498Y-81195820D01*
X162174188Y-81315518D01*
X162161928Y-81440000D01*
X162165000Y-81729250D01*
X162323750Y-81888000D01*
X163373000Y-81888000D01*
X163373000Y-81868000D01*
X163627000Y-81868000D01*
X163627000Y-81888000D01*
X163647000Y-81888000D01*
X163647000Y-82142000D01*
X163627000Y-82142000D01*
X163627000Y-83066250D01*
X163785750Y-83225000D01*
X164200000Y-83228072D01*
X164324482Y-83215812D01*
X164444180Y-83179502D01*
X164554494Y-83120537D01*
X164651185Y-83041185D01*
X164679387Y-83006820D01*
X164766613Y-83078405D01*
X164920149Y-83160472D01*
X165086745Y-83211008D01*
X165259999Y-83228072D01*
X166160001Y-83228072D01*
X166333255Y-83211008D01*
X166499851Y-83160472D01*
X166653387Y-83078405D01*
X166787962Y-82967962D01*
X166898405Y-82833387D01*
X166929614Y-82775000D01*
X167308808Y-82775000D01*
X167340000Y-82778072D01*
X168068868Y-82778072D01*
X168075000Y-82778676D01*
X168081132Y-82778072D01*
X168755000Y-82778072D01*
X168755001Y-84823422D01*
X168136534Y-84204956D01*
X168108817Y-84171183D01*
X167974059Y-84060589D01*
X167820313Y-83978411D01*
X167653490Y-83927805D01*
X167523477Y-83915000D01*
X167523469Y-83915000D01*
X167480000Y-83910719D01*
X167436531Y-83915000D01*
X150957659Y-83915000D01*
X149805200Y-82762542D01*
X149805200Y-82590000D01*
X162161928Y-82590000D01*
X162174188Y-82714482D01*
X162210498Y-82834180D01*
X162269463Y-82944494D01*
X162348815Y-83041185D01*
X162445506Y-83120537D01*
X162555820Y-83179502D01*
X162675518Y-83215812D01*
X162800000Y-83228072D01*
X163214250Y-83225000D01*
X163373000Y-83066250D01*
X163373000Y-82142000D01*
X162323750Y-82142000D01*
X162165000Y-82300750D01*
X162161928Y-82590000D01*
X149805200Y-82590000D01*
X149805200Y-80134439D01*
X149846512Y-80106835D01*
X150053355Y-79899992D01*
X150175075Y-79717826D01*
X150244702Y-79834715D01*
X150439611Y-80050948D01*
X150672960Y-80225001D01*
X150935781Y-80350185D01*
X151082990Y-80394836D01*
X151312880Y-80273515D01*
X151312880Y-79080360D01*
X151566880Y-79080360D01*
X151566880Y-80273515D01*
X151796770Y-80394836D01*
X151943979Y-80350185D01*
X152206800Y-80225001D01*
X152440149Y-80050948D01*
X152635058Y-79834715D01*
X152784037Y-79584612D01*
X152881361Y-79310251D01*
X152760694Y-79080360D01*
X151566880Y-79080360D01*
X151312880Y-79080360D01*
X151292880Y-79080360D01*
X151292880Y-78826360D01*
X151312880Y-78826360D01*
X151312880Y-77633205D01*
X151566880Y-77633205D01*
X151566880Y-78826360D01*
X152760694Y-78826360D01*
X152881361Y-78596469D01*
X152784037Y-78322108D01*
X152635058Y-78072005D01*
X152440149Y-77855772D01*
X152206800Y-77681719D01*
X151943979Y-77556535D01*
X151796770Y-77511884D01*
X151566880Y-77633205D01*
X151312880Y-77633205D01*
X151082990Y-77511884D01*
X150935781Y-77556535D01*
X150672960Y-77681719D01*
X150439611Y-77855772D01*
X150244702Y-78072005D01*
X150175075Y-78188894D01*
X150053355Y-78006728D01*
X149846512Y-77799885D01*
X149603291Y-77637370D01*
X149333038Y-77525428D01*
X149046140Y-77468360D01*
X148753620Y-77468360D01*
X148466722Y-77525428D01*
X148196469Y-77637370D01*
X147953248Y-77799885D01*
X147821393Y-77931740D01*
X147799382Y-77859180D01*
X147740417Y-77748866D01*
X147661065Y-77652175D01*
X147564374Y-77572823D01*
X147454060Y-77513858D01*
X147334362Y-77477548D01*
X147209880Y-77465288D01*
X145509880Y-77465288D01*
X145385398Y-77477548D01*
X145265700Y-77513858D01*
X145155386Y-77572823D01*
X145058695Y-77652175D01*
X144979343Y-77748866D01*
X144920378Y-77859180D01*
X144884068Y-77978878D01*
X144871808Y-78103360D01*
X144871808Y-79803360D01*
X144884068Y-79927842D01*
X144920378Y-80047540D01*
X144979343Y-80157854D01*
X145058695Y-80254545D01*
X145155386Y-80333897D01*
X145265700Y-80392862D01*
X145385398Y-80429172D01*
X145509880Y-80441432D01*
X147209880Y-80441432D01*
X147334362Y-80429172D01*
X147454060Y-80392862D01*
X147564374Y-80333897D01*
X147661065Y-80254545D01*
X147740417Y-80157854D01*
X147799382Y-80047540D01*
X147821393Y-79974980D01*
X147953248Y-80106835D01*
X148035200Y-80161594D01*
X148035201Y-83085641D01*
X148030919Y-83129120D01*
X148048005Y-83302610D01*
X148098612Y-83469433D01*
X148180790Y-83623179D01*
X148263668Y-83724166D01*
X148263671Y-83724169D01*
X148291384Y-83757937D01*
X148325151Y-83785649D01*
X149934550Y-85395049D01*
X149962263Y-85428817D01*
X149996031Y-85456530D01*
X149996033Y-85456532D01*
X150038051Y-85491015D01*
X150097021Y-85539411D01*
X150250767Y-85621589D01*
X150417590Y-85672195D01*
X150547603Y-85685000D01*
X150547613Y-85685000D01*
X150591079Y-85689281D01*
X150634545Y-85685000D01*
X167113422Y-85685000D01*
X168755000Y-87326579D01*
X168755001Y-94903423D01*
X168308414Y-94456836D01*
X168280697Y-94423063D01*
X168145939Y-94312469D01*
X167992193Y-94230291D01*
X167825370Y-94179685D01*
X167695357Y-94166880D01*
X167695349Y-94166880D01*
X167651880Y-94162599D01*
X167608411Y-94166880D01*
X162140712Y-94166880D01*
X162140712Y-94136780D01*
X162128452Y-94012298D01*
X162092142Y-93892600D01*
X162033177Y-93782286D01*
X161953825Y-93685595D01*
X161857134Y-93606243D01*
X161746820Y-93547278D01*
X161627122Y-93510968D01*
X161502640Y-93498708D01*
X160352640Y-93498708D01*
X160228813Y-93510839D01*
X160202705Y-93518729D01*
X160177122Y-93510968D01*
X160052640Y-93498708D01*
X159052640Y-93498708D01*
X158928158Y-93510968D01*
X158808460Y-93547278D01*
X158744517Y-93581457D01*
X158741460Y-93293590D01*
X158582710Y-93134840D01*
X157533460Y-93134840D01*
X157533460Y-93154840D01*
X157279460Y-93154840D01*
X157279460Y-93134840D01*
X157259460Y-93134840D01*
X157259460Y-92880840D01*
X157279460Y-92880840D01*
X157279460Y-91956590D01*
X157533460Y-91956590D01*
X157533460Y-92880840D01*
X158582710Y-92880840D01*
X158741460Y-92722090D01*
X158744532Y-92432840D01*
X158732272Y-92308358D01*
X158695962Y-92188660D01*
X158636997Y-92078346D01*
X158557645Y-91981655D01*
X158460954Y-91902303D01*
X158350640Y-91843338D01*
X158230942Y-91807028D01*
X158106460Y-91794768D01*
X157692210Y-91797840D01*
X157533460Y-91956590D01*
X157279460Y-91956590D01*
X157120710Y-91797840D01*
X156706460Y-91794768D01*
X156581978Y-91807028D01*
X156462280Y-91843338D01*
X156351966Y-91902303D01*
X156255275Y-91981655D01*
X156208976Y-92038070D01*
X156091787Y-91941895D01*
X155938251Y-91859828D01*
X155771655Y-91809292D01*
X155598401Y-91792228D01*
X154698399Y-91792228D01*
X154525145Y-91809292D01*
X154358549Y-91859828D01*
X154205013Y-91941895D01*
X154070438Y-92052338D01*
X153959995Y-92186913D01*
X153897813Y-92303247D01*
X153865494Y-92276723D01*
X153755180Y-92217758D01*
X153635482Y-92181448D01*
X153511000Y-92169188D01*
X151951000Y-92169188D01*
X151890719Y-92175125D01*
X152020450Y-92045394D01*
X152150134Y-91851308D01*
X152239461Y-91635652D01*
X152285000Y-91406712D01*
X152285000Y-91173288D01*
X152239461Y-90944348D01*
X152150134Y-90728692D01*
X152020450Y-90534606D01*
X151985000Y-90499156D01*
X151985000Y-90419634D01*
X152047962Y-90367962D01*
X152053342Y-90361406D01*
X152118815Y-90441185D01*
X152215506Y-90520537D01*
X152325820Y-90579502D01*
X152445518Y-90615812D01*
X152570000Y-90628072D01*
X152859250Y-90625000D01*
X153018000Y-90466250D01*
X153018000Y-89417000D01*
X153272000Y-89417000D01*
X153272000Y-90466250D01*
X153430750Y-90625000D01*
X153720000Y-90628072D01*
X153844482Y-90615812D01*
X153964180Y-90579502D01*
X154074494Y-90520537D01*
X154171185Y-90441185D01*
X154250537Y-90344494D01*
X154309502Y-90234180D01*
X154345812Y-90114482D01*
X154358072Y-89990000D01*
X154355000Y-89575750D01*
X154196250Y-89417000D01*
X153272000Y-89417000D01*
X153018000Y-89417000D01*
X152998000Y-89417000D01*
X152998000Y-89163000D01*
X153018000Y-89163000D01*
X153018000Y-87247000D01*
X153272000Y-87247000D01*
X153272000Y-89163000D01*
X154196250Y-89163000D01*
X154355000Y-89004250D01*
X154358072Y-88590000D01*
X154345812Y-88465518D01*
X154309502Y-88345820D01*
X154250537Y-88235506D01*
X154225501Y-88205000D01*
X154250537Y-88174494D01*
X154309502Y-88064180D01*
X154345812Y-87944482D01*
X154358072Y-87820000D01*
X154355000Y-87405750D01*
X154196250Y-87247000D01*
X153272000Y-87247000D01*
X153018000Y-87247000D01*
X152998000Y-87247000D01*
X152998000Y-86993000D01*
X153018000Y-86993000D01*
X153018000Y-85943750D01*
X153272000Y-85943750D01*
X153272000Y-86993000D01*
X154196250Y-86993000D01*
X154355000Y-86834250D01*
X154358072Y-86420000D01*
X154345812Y-86295518D01*
X154309502Y-86175820D01*
X154250537Y-86065506D01*
X154171185Y-85968815D01*
X154074494Y-85889463D01*
X153964180Y-85830498D01*
X153844482Y-85794188D01*
X153720000Y-85781928D01*
X153430750Y-85785000D01*
X153272000Y-85943750D01*
X153018000Y-85943750D01*
X152859250Y-85785000D01*
X152570000Y-85781928D01*
X152445518Y-85794188D01*
X152325820Y-85830498D01*
X152215506Y-85889463D01*
X152118815Y-85968815D01*
X152053342Y-86048594D01*
X152047962Y-86042038D01*
X151913387Y-85931595D01*
X151759851Y-85849528D01*
X151593255Y-85798992D01*
X151420001Y-85781928D01*
X150769999Y-85781928D01*
X150596745Y-85798992D01*
X150430149Y-85849528D01*
X150276613Y-85931595D01*
X150142038Y-86042038D01*
X150031595Y-86176613D01*
X149949528Y-86330149D01*
X149945663Y-86342890D01*
X149927980Y-86333438D01*
X149808282Y-86297128D01*
X149683800Y-86284868D01*
X148123800Y-86284868D01*
X147999318Y-86297128D01*
X147879620Y-86333438D01*
X147769306Y-86392403D01*
X147672615Y-86471755D01*
X147593263Y-86568446D01*
X147553800Y-86642275D01*
X147514337Y-86568446D01*
X147434985Y-86471755D01*
X147338294Y-86392403D01*
X147227980Y-86333438D01*
X147108282Y-86297128D01*
X146983800Y-86284868D01*
X146309670Y-86284868D01*
X145153804Y-85129003D01*
X145130001Y-85099999D01*
X145014276Y-85005026D01*
X144882247Y-84934454D01*
X144738986Y-84890997D01*
X144627333Y-84880000D01*
X144627322Y-84880000D01*
X144590000Y-84876324D01*
X144552678Y-84880000D01*
X137097301Y-84880000D01*
X137109461Y-84850642D01*
X137155000Y-84621702D01*
X137155000Y-84388278D01*
X137109461Y-84159338D01*
X137020134Y-83943682D01*
X136890450Y-83749596D01*
X136855000Y-83714146D01*
X136855000Y-82127365D01*
X136859281Y-82083899D01*
X136855000Y-82040433D01*
X136855000Y-78048858D01*
X136862892Y-78022842D01*
X136875152Y-77898360D01*
X136875152Y-76198360D01*
X136862892Y-76073878D01*
X136826582Y-75954180D01*
X136767617Y-75843866D01*
X136688265Y-75747175D01*
X136591574Y-75667823D01*
X136481260Y-75608858D01*
X136361562Y-75572548D01*
X136237080Y-75560288D01*
X134537080Y-75560288D01*
X134412598Y-75572548D01*
X134292900Y-75608858D01*
X134182586Y-75667823D01*
X134085895Y-75747175D01*
X134006543Y-75843866D01*
X133947578Y-75954180D01*
X133923114Y-76034826D01*
X133847349Y-75950772D01*
X133614000Y-75776719D01*
X133351179Y-75651535D01*
X133203970Y-75606884D01*
X132974080Y-75728205D01*
X132974080Y-76921360D01*
X132994080Y-76921360D01*
X132994080Y-77175360D01*
X132974080Y-77175360D01*
X132974080Y-78368515D01*
X133203970Y-78489836D01*
X133351179Y-78445185D01*
X133614000Y-78320001D01*
X133847349Y-78145948D01*
X133923114Y-78061894D01*
X133947578Y-78142540D01*
X134006543Y-78252854D01*
X134085895Y-78349545D01*
X134182586Y-78428897D01*
X134292900Y-78487862D01*
X134412598Y-78524172D01*
X134537080Y-78536432D01*
X135085000Y-78536432D01*
X135085000Y-78793064D01*
X134948615Y-78751692D01*
X134775361Y-78734628D01*
X133875359Y-78734628D01*
X133702105Y-78751692D01*
X133535509Y-78802228D01*
X133381973Y-78884295D01*
X133259291Y-78984978D01*
X133135147Y-78883095D01*
X132981611Y-78801028D01*
X132815015Y-78750492D01*
X132641761Y-78733428D01*
X131741759Y-78733428D01*
X131568505Y-78750492D01*
X131401909Y-78801028D01*
X131248373Y-78883095D01*
X131113798Y-78993538D01*
X131107909Y-79000714D01*
X130973607Y-78890495D01*
X130820071Y-78808428D01*
X130653475Y-78757892D01*
X130480221Y-78740828D01*
X129580219Y-78740828D01*
X129406965Y-78757892D01*
X129240369Y-78808428D01*
X129086833Y-78890495D01*
X128992630Y-78967806D01*
X128898427Y-78890495D01*
X128744891Y-78808428D01*
X128578295Y-78757892D01*
X128405041Y-78740828D01*
X127505039Y-78740828D01*
X127331785Y-78757892D01*
X127165189Y-78808428D01*
X127011653Y-78890495D01*
X126877078Y-79000938D01*
X126766635Y-79135513D01*
X126684568Y-79289049D01*
X126634032Y-79455645D01*
X126616968Y-79628899D01*
X126616968Y-80278901D01*
X126634032Y-80452155D01*
X126684568Y-80618751D01*
X126766635Y-80772287D01*
X126877078Y-80906862D01*
X126883634Y-80912242D01*
X126803855Y-80977715D01*
X126724503Y-81074406D01*
X126665538Y-81184720D01*
X126629228Y-81304418D01*
X126616968Y-81428900D01*
X126620040Y-81718150D01*
X126778790Y-81876900D01*
X127828040Y-81876900D01*
X127828040Y-81856900D01*
X128082040Y-81856900D01*
X128082040Y-81876900D01*
X128102040Y-81876900D01*
X128102040Y-82130900D01*
X128082040Y-82130900D01*
X128082040Y-83055150D01*
X128240790Y-83213900D01*
X128655040Y-83216972D01*
X128779522Y-83204712D01*
X128899220Y-83168402D01*
X129009534Y-83109437D01*
X129073853Y-83056652D01*
X129086833Y-83067305D01*
X129240369Y-83149372D01*
X129406965Y-83199908D01*
X129580219Y-83216972D01*
X130480221Y-83216972D01*
X130653475Y-83199908D01*
X130820071Y-83149372D01*
X130973607Y-83067305D01*
X131108182Y-82956862D01*
X131114071Y-82949686D01*
X131248373Y-83059905D01*
X131401909Y-83141972D01*
X131431760Y-83151027D01*
X131431761Y-84638648D01*
X131428084Y-84675980D01*
X131431761Y-84713313D01*
X131436329Y-84759687D01*
X131442758Y-84824965D01*
X131486214Y-84968226D01*
X131556786Y-85100256D01*
X131627961Y-85186982D01*
X131651760Y-85215981D01*
X131680758Y-85239779D01*
X132591980Y-86151002D01*
X132615779Y-86180001D01*
X132731504Y-86274974D01*
X132863533Y-86345546D01*
X133006794Y-86389003D01*
X133118447Y-86400000D01*
X133118456Y-86400000D01*
X133155779Y-86403676D01*
X133193102Y-86400000D01*
X142591938Y-86400000D01*
X142568168Y-86478358D01*
X142555908Y-86602840D01*
X142558980Y-86892090D01*
X142717730Y-87050840D01*
X143766980Y-87050840D01*
X143766980Y-87030840D01*
X144020980Y-87030840D01*
X144020980Y-87050840D01*
X144040980Y-87050840D01*
X144040980Y-87304840D01*
X144020980Y-87304840D01*
X144020980Y-87324840D01*
X143766980Y-87324840D01*
X143766980Y-87304840D01*
X142717730Y-87304840D01*
X142558980Y-87463590D01*
X142555908Y-87752840D01*
X142568168Y-87877322D01*
X142604478Y-87997020D01*
X142663443Y-88107334D01*
X142742795Y-88204025D01*
X142822574Y-88269498D01*
X142816018Y-88274878D01*
X142709229Y-88405000D01*
X142706579Y-88405000D01*
X141106534Y-86804956D01*
X141078817Y-86771183D01*
X140944059Y-86660589D01*
X140790313Y-86578411D01*
X140623490Y-86527805D01*
X140493477Y-86515000D01*
X140493469Y-86515000D01*
X140450000Y-86510719D01*
X140406531Y-86515000D01*
X131037874Y-86515000D01*
X131056307Y-86496725D01*
X131192390Y-86294946D01*
X131286493Y-86070496D01*
X131335000Y-85832000D01*
X131335000Y-85557000D01*
X130227000Y-85557000D01*
X130227000Y-85577000D01*
X129973000Y-85577000D01*
X129973000Y-85557000D01*
X129953000Y-85557000D01*
X129953000Y-85303000D01*
X129973000Y-85303000D01*
X129973000Y-84086269D01*
X130227000Y-84086269D01*
X130227000Y-85303000D01*
X131335000Y-85303000D01*
X131335000Y-85028000D01*
X131286493Y-84789504D01*
X131192390Y-84565054D01*
X131056307Y-84363275D01*
X130883474Y-84191922D01*
X130680533Y-84057579D01*
X130455282Y-83965409D01*
X130417609Y-83961538D01*
X130227000Y-84086269D01*
X129973000Y-84086269D01*
X129782391Y-83961538D01*
X129744718Y-83965409D01*
X129519467Y-84057579D01*
X129316526Y-84191922D01*
X129190967Y-84316406D01*
X129188405Y-84311613D01*
X129077962Y-84177038D01*
X128943387Y-84066595D01*
X128789851Y-83984528D01*
X128623255Y-83933992D01*
X128450001Y-83916928D01*
X127749999Y-83916928D01*
X127576745Y-83933992D01*
X127410149Y-83984528D01*
X127256613Y-84066595D01*
X127122038Y-84177038D01*
X127011595Y-84311613D01*
X126929528Y-84465149D01*
X126878992Y-84631745D01*
X126861928Y-84804999D01*
X126861928Y-86055001D01*
X126878992Y-86228255D01*
X126929528Y-86394851D01*
X127011595Y-86548387D01*
X127122038Y-86682962D01*
X127256613Y-86793405D01*
X127296358Y-86814649D01*
X127328412Y-86920313D01*
X127410590Y-87074059D01*
X127493468Y-87175046D01*
X127493471Y-87175049D01*
X127521184Y-87208817D01*
X127554951Y-87236529D01*
X128313470Y-87995049D01*
X128341183Y-88028817D01*
X128374951Y-88056530D01*
X128374953Y-88056532D01*
X128429862Y-88101595D01*
X128475941Y-88139411D01*
X128629687Y-88221589D01*
X128796510Y-88272195D01*
X128926523Y-88285000D01*
X128926533Y-88285000D01*
X128969999Y-88289281D01*
X129013465Y-88285000D01*
X129110412Y-88285000D01*
X129103643Y-88295021D01*
X128999922Y-88541883D01*
X128987481Y-88607742D01*
X129110482Y-88818000D01*
X130453000Y-88818000D01*
X130453000Y-88798000D01*
X130707000Y-88798000D01*
X130707000Y-88818000D01*
X132049518Y-88818000D01*
X132172519Y-88607742D01*
X132160078Y-88541883D01*
X132056357Y-88295021D01*
X132049588Y-88285000D01*
X134820409Y-88285000D01*
X134775000Y-88513288D01*
X134775000Y-88746712D01*
X134820539Y-88975652D01*
X134909866Y-89191308D01*
X135039550Y-89385394D01*
X135075001Y-89420845D01*
X135075001Y-90465000D01*
X132096523Y-90465000D01*
X131966510Y-90477805D01*
X131817286Y-90523072D01*
X131804482Y-90519188D01*
X131680000Y-90506928D01*
X130510716Y-90506928D01*
X130525226Y-90471898D01*
X130565000Y-90271939D01*
X130565000Y-90068061D01*
X130525226Y-89868102D01*
X130453000Y-89693734D01*
X130453000Y-89072000D01*
X130707000Y-89072000D01*
X130707000Y-90305000D01*
X130982000Y-90305000D01*
X131244883Y-90254092D01*
X131492783Y-90152876D01*
X131716173Y-90005242D01*
X131906469Y-89816863D01*
X132056357Y-89594979D01*
X132160078Y-89348117D01*
X132172519Y-89282258D01*
X132049518Y-89072000D01*
X130707000Y-89072000D01*
X130453000Y-89072000D01*
X129110482Y-89072000D01*
X128987481Y-89282258D01*
X128988396Y-89287104D01*
X128870226Y-89366063D01*
X128726063Y-89510226D01*
X128612795Y-89679744D01*
X128534774Y-89868102D01*
X128495000Y-90068061D01*
X128495000Y-90271939D01*
X128534774Y-90471898D01*
X128612795Y-90660256D01*
X128726063Y-90829774D01*
X128870226Y-90973937D01*
X129039744Y-91087205D01*
X129228102Y-91165226D01*
X129341928Y-91187867D01*
X129341928Y-91595000D01*
X129351777Y-91695000D01*
X129341928Y-91795000D01*
X129341928Y-92245000D01*
X129351777Y-92345000D01*
X129341928Y-92445000D01*
X129341928Y-92895000D01*
X129351777Y-92995000D01*
X129341928Y-93095000D01*
X129341928Y-93545000D01*
X129352062Y-93647897D01*
X129345000Y-93713250D01*
X129377247Y-93745497D01*
X129390498Y-93789180D01*
X129449463Y-93899494D01*
X129528815Y-93996185D01*
X129616322Y-94068000D01*
X129503750Y-94068000D01*
X129436750Y-94135000D01*
X129428061Y-94135000D01*
X129228102Y-94174774D01*
X129039744Y-94252795D01*
X128870226Y-94366063D01*
X128726063Y-94510226D01*
X128612795Y-94679744D01*
X128534774Y-94868102D01*
X128495000Y-95068061D01*
X128495000Y-95271939D01*
X128534774Y-95471898D01*
X128612795Y-95660256D01*
X128726063Y-95829774D01*
X128870226Y-95973937D01*
X128988396Y-96052896D01*
X128987481Y-96057742D01*
X129110482Y-96268000D01*
X130453000Y-96268000D01*
X130453000Y-95646266D01*
X130525226Y-95471898D01*
X130565000Y-95271939D01*
X130565000Y-95068061D01*
X130558424Y-95035000D01*
X130707000Y-95035000D01*
X130707000Y-96268000D01*
X132049518Y-96268000D01*
X132172519Y-96057742D01*
X132160078Y-95991883D01*
X132056357Y-95745021D01*
X131906469Y-95523137D01*
X131716173Y-95334758D01*
X131492783Y-95187124D01*
X131244883Y-95085908D01*
X130982000Y-95035000D01*
X130707000Y-95035000D01*
X130558424Y-95035000D01*
X130525226Y-94868102D01*
X130509522Y-94830188D01*
X130544250Y-94830000D01*
X130703000Y-94671250D01*
X130703000Y-94183072D01*
X130957000Y-94183072D01*
X130957000Y-94671250D01*
X131115750Y-94830000D01*
X131671325Y-94833013D01*
X131795962Y-94822446D01*
X131916142Y-94787767D01*
X132027248Y-94730308D01*
X132125009Y-94652278D01*
X132205669Y-94556674D01*
X132266127Y-94447172D01*
X132304061Y-94327979D01*
X132315000Y-94226750D01*
X132156250Y-94068000D01*
X132043678Y-94068000D01*
X132131185Y-93996185D01*
X132210537Y-93899494D01*
X132269502Y-93789180D01*
X132282753Y-93745497D01*
X132315000Y-93713250D01*
X132307938Y-93647897D01*
X132318072Y-93545000D01*
X132318072Y-93095000D01*
X132308223Y-92995000D01*
X132318072Y-92895000D01*
X132318072Y-92445000D01*
X132308223Y-92345000D01*
X132318072Y-92245000D01*
X132318072Y-92235000D01*
X135075000Y-92235000D01*
X135075000Y-93686531D01*
X135070719Y-93730000D01*
X135075000Y-93773469D01*
X135075000Y-93773476D01*
X135083452Y-93859292D01*
X135087805Y-93903490D01*
X135091883Y-93916932D01*
X135138411Y-94070312D01*
X135220589Y-94224058D01*
X135331183Y-94358817D01*
X135364956Y-94386534D01*
X136650750Y-95672329D01*
X136678463Y-95706097D01*
X136712231Y-95733810D01*
X136712233Y-95733812D01*
X136813221Y-95816691D01*
X136966966Y-95898869D01*
X137092801Y-95937041D01*
X137133790Y-95949475D01*
X137263803Y-95962280D01*
X137263811Y-95962280D01*
X137307280Y-95966561D01*
X137350749Y-95962280D01*
X139500444Y-95962280D01*
X139542038Y-96012962D01*
X139676613Y-96123405D01*
X139830149Y-96205472D01*
X139996745Y-96256008D01*
X140169999Y-96273072D01*
X141070001Y-96273072D01*
X141243255Y-96256008D01*
X141409851Y-96205472D01*
X141563387Y-96123405D01*
X141697962Y-96012962D01*
X141745530Y-95955000D01*
X141993007Y-95955000D01*
X142019463Y-96004494D01*
X142045000Y-96035612D01*
X142045000Y-96204151D01*
X142016198Y-96206988D01*
X141896500Y-96243298D01*
X141786186Y-96302263D01*
X141689495Y-96381615D01*
X141610143Y-96478306D01*
X141551178Y-96588620D01*
X141514868Y-96708318D01*
X141502608Y-96832800D01*
X141502608Y-97832800D01*
X141514868Y-97957282D01*
X141551178Y-98076980D01*
X141610143Y-98187294D01*
X141689495Y-98283985D01*
X141786186Y-98363337D01*
X141896500Y-98422302D01*
X142016198Y-98458612D01*
X142140680Y-98470872D01*
X143140680Y-98470872D01*
X143265162Y-98458612D01*
X143384860Y-98422302D01*
X143495174Y-98363337D01*
X143591865Y-98283985D01*
X143671217Y-98187294D01*
X143730182Y-98076980D01*
X143766492Y-97957282D01*
X143778752Y-97832800D01*
X143778752Y-97530770D01*
X143802195Y-97453490D01*
X143815000Y-97323477D01*
X143815000Y-97323469D01*
X143819281Y-97280000D01*
X143815000Y-97236531D01*
X143815000Y-96084351D01*
X143880537Y-96004494D01*
X143900000Y-95968082D01*
X143919463Y-96004494D01*
X143963580Y-96058251D01*
X143963581Y-97175101D01*
X143959299Y-97218580D01*
X143976385Y-97392070D01*
X144002608Y-97478513D01*
X144002608Y-97832800D01*
X144014868Y-97957282D01*
X144051178Y-98076980D01*
X144110143Y-98187294D01*
X144189495Y-98283985D01*
X144286186Y-98363337D01*
X144396500Y-98422302D01*
X144516198Y-98458612D01*
X144640680Y-98470872D01*
X145640680Y-98470872D01*
X145765162Y-98458612D01*
X145884860Y-98422302D01*
X145995174Y-98363337D01*
X146091865Y-98283985D01*
X146171217Y-98187294D01*
X146230182Y-98076980D01*
X146266492Y-97957282D01*
X146278752Y-97832800D01*
X146278752Y-96832800D01*
X146266492Y-96708318D01*
X146230182Y-96588620D01*
X146171217Y-96478306D01*
X146091865Y-96381615D01*
X145995174Y-96302263D01*
X145884860Y-96243298D01*
X145765162Y-96206988D01*
X145733580Y-96203878D01*
X145733580Y-96061711D01*
X145780537Y-96004494D01*
X145805667Y-95957480D01*
X146430278Y-95957480D01*
X146519258Y-96065902D01*
X146653833Y-96176345D01*
X146682221Y-96191519D01*
X146682221Y-96624062D01*
X146677939Y-96667540D01*
X146695025Y-96841030D01*
X146745632Y-97007853D01*
X146827810Y-97161599D01*
X146910688Y-97262586D01*
X146910691Y-97262589D01*
X146938404Y-97296357D01*
X146972171Y-97324069D01*
X147870090Y-98221989D01*
X147897803Y-98255757D01*
X147931571Y-98283470D01*
X147931573Y-98283472D01*
X147978757Y-98322195D01*
X148032561Y-98366351D01*
X148186307Y-98448529D01*
X148353130Y-98499135D01*
X148483143Y-98511940D01*
X148483153Y-98511940D01*
X148526619Y-98516221D01*
X148570085Y-98511940D01*
X151814751Y-98511940D01*
X151858220Y-98516221D01*
X151901689Y-98511940D01*
X151901697Y-98511940D01*
X152031710Y-98499135D01*
X152198533Y-98448529D01*
X152352279Y-98366351D01*
X152487037Y-98255757D01*
X152514754Y-98221984D01*
X153326050Y-97410689D01*
X153359817Y-97382977D01*
X153411502Y-97320000D01*
X153463596Y-97256523D01*
X153470411Y-97248219D01*
X153552589Y-97094473D01*
X153603195Y-96927650D01*
X153616000Y-96797637D01*
X153616000Y-96797627D01*
X153620281Y-96754161D01*
X153616000Y-96710695D01*
X153616000Y-95984991D01*
X153635482Y-95983072D01*
X153755180Y-95946762D01*
X153855724Y-95893019D01*
X153850175Y-95901324D01*
X153772154Y-96089682D01*
X153732380Y-96289641D01*
X153732380Y-96493519D01*
X153772154Y-96693478D01*
X153850175Y-96881836D01*
X153963443Y-97051354D01*
X154107606Y-97195517D01*
X154277124Y-97308785D01*
X154465482Y-97386806D01*
X154665441Y-97426580D01*
X154869319Y-97426580D01*
X155069278Y-97386806D01*
X155239976Y-97316100D01*
X156902751Y-97316100D01*
X156946220Y-97320381D01*
X156989689Y-97316100D01*
X156989697Y-97316100D01*
X157119710Y-97303295D01*
X157286533Y-97252689D01*
X157440279Y-97170511D01*
X157575037Y-97059917D01*
X157602754Y-97026144D01*
X158032265Y-96596633D01*
X158066037Y-96568917D01*
X158176631Y-96434159D01*
X158258809Y-96280413D01*
X158298819Y-96148520D01*
X158349847Y-96121245D01*
X158484422Y-96010802D01*
X158513562Y-95975295D01*
X158522103Y-95991274D01*
X158601455Y-96087965D01*
X158698146Y-96167317D01*
X158808460Y-96226282D01*
X158928158Y-96262592D01*
X159052640Y-96274852D01*
X160052640Y-96274852D01*
X160177776Y-96262461D01*
X160202704Y-96254871D01*
X160228158Y-96262592D01*
X160352640Y-96274852D01*
X161502640Y-96274852D01*
X161627122Y-96262592D01*
X161746820Y-96226282D01*
X161857134Y-96167317D01*
X161953825Y-96087965D01*
X162033177Y-95991274D01*
X162062252Y-95936880D01*
X167285302Y-95936880D01*
X168755000Y-97406579D01*
X168755000Y-99883422D01*
X168195054Y-99323476D01*
X168167337Y-99289703D01*
X168032579Y-99179109D01*
X167878833Y-99096931D01*
X167712010Y-99046325D01*
X167581997Y-99033520D01*
X167581989Y-99033520D01*
X167538520Y-99029239D01*
X167495051Y-99033520D01*
X166991989Y-99033520D01*
X166948520Y-99029239D01*
X166905051Y-99033520D01*
X152524949Y-99033520D01*
X152481480Y-99029239D01*
X152438011Y-99033520D01*
X128274945Y-99033520D01*
X128231479Y-99029239D01*
X128188013Y-99033520D01*
X128188003Y-99033520D01*
X128057990Y-99046325D01*
X127891167Y-99096931D01*
X127737421Y-99179109D01*
X127737419Y-99179110D01*
X127737420Y-99179110D01*
X127636433Y-99261988D01*
X127636431Y-99261990D01*
X127602663Y-99289703D01*
X127574950Y-99323471D01*
X126666494Y-100231928D01*
X126238253Y-100231928D01*
X126240565Y-97737026D01*
X126328000Y-97755000D01*
X126653000Y-97755000D01*
X126653000Y-96672000D01*
X126907000Y-96672000D01*
X126907000Y-97755000D01*
X127232000Y-97755000D01*
X127465619Y-97706974D01*
X127685380Y-97614294D01*
X127882837Y-97480521D01*
X128050402Y-97310797D01*
X128181636Y-97111644D01*
X128271496Y-96890715D01*
X128273635Y-96858677D01*
X128188927Y-96732258D01*
X128987481Y-96732258D01*
X128999922Y-96798117D01*
X129103643Y-97044979D01*
X129253531Y-97266863D01*
X129443827Y-97455242D01*
X129667217Y-97602876D01*
X129915117Y-97704092D01*
X130178000Y-97755000D01*
X130453000Y-97755000D01*
X130453000Y-96522000D01*
X130707000Y-96522000D01*
X130707000Y-97755000D01*
X130982000Y-97755000D01*
X131244883Y-97704092D01*
X131492783Y-97602876D01*
X131716173Y-97455242D01*
X131906469Y-97266863D01*
X132056357Y-97044979D01*
X132160078Y-96798117D01*
X132172519Y-96732258D01*
X132049518Y-96522000D01*
X130707000Y-96522000D01*
X130453000Y-96522000D01*
X129110482Y-96522000D01*
X128987481Y-96732258D01*
X128188927Y-96732258D01*
X128148550Y-96672000D01*
X126907000Y-96672000D01*
X126653000Y-96672000D01*
X126633000Y-96672000D01*
X126633000Y-96418000D01*
X126653000Y-96418000D01*
X126653000Y-95335000D01*
X126907000Y-95335000D01*
X126907000Y-96418000D01*
X128148550Y-96418000D01*
X128273635Y-96231323D01*
X128271496Y-96199285D01*
X128181636Y-95978356D01*
X128050402Y-95779203D01*
X127882837Y-95609479D01*
X127685380Y-95475706D01*
X127465619Y-95383026D01*
X127232000Y-95335000D01*
X126907000Y-95335000D01*
X126653000Y-95335000D01*
X126328000Y-95335000D01*
X126242775Y-95352520D01*
X126247747Y-89988502D01*
X126328000Y-90005000D01*
X126653000Y-90005000D01*
X126653000Y-88922000D01*
X126907000Y-88922000D01*
X126907000Y-90005000D01*
X127232000Y-90005000D01*
X127465619Y-89956974D01*
X127685380Y-89864294D01*
X127882837Y-89730521D01*
X128050402Y-89560797D01*
X128181636Y-89361644D01*
X128271496Y-89140715D01*
X128273635Y-89108677D01*
X128148550Y-88922000D01*
X126907000Y-88922000D01*
X126653000Y-88922000D01*
X126633000Y-88922000D01*
X126633000Y-88668000D01*
X126653000Y-88668000D01*
X126653000Y-87585000D01*
X126907000Y-87585000D01*
X126907000Y-88668000D01*
X128148550Y-88668000D01*
X128273635Y-88481323D01*
X128271496Y-88449285D01*
X128181636Y-88228356D01*
X128050402Y-88029203D01*
X127882837Y-87859479D01*
X127685380Y-87725706D01*
X127465619Y-87633026D01*
X127232000Y-87585000D01*
X126907000Y-87585000D01*
X126653000Y-87585000D01*
X126328000Y-87585000D01*
X126249960Y-87601043D01*
X126254614Y-82578900D01*
X126616968Y-82578900D01*
X126629228Y-82703382D01*
X126665538Y-82823080D01*
X126724503Y-82933394D01*
X126803855Y-83030085D01*
X126900546Y-83109437D01*
X127010860Y-83168402D01*
X127130558Y-83204712D01*
X127255040Y-83216972D01*
X127669290Y-83213900D01*
X127828040Y-83055150D01*
X127828040Y-82130900D01*
X126778790Y-82130900D01*
X126620040Y-82289650D01*
X126616968Y-82578900D01*
X126254614Y-82578900D01*
X126259380Y-77437114D01*
X126538367Y-77623528D01*
X126999708Y-77814622D01*
X127489464Y-77912040D01*
X127988816Y-77912040D01*
X128478572Y-77814622D01*
X128939913Y-77623528D01*
X129266586Y-77405251D01*
X131405599Y-77405251D01*
X131502923Y-77679612D01*
X131651902Y-77929715D01*
X131846811Y-78145948D01*
X132080160Y-78320001D01*
X132342981Y-78445185D01*
X132490190Y-78489836D01*
X132720080Y-78368515D01*
X132720080Y-77175360D01*
X131526266Y-77175360D01*
X131405599Y-77405251D01*
X129266586Y-77405251D01*
X129355108Y-77346103D01*
X129708203Y-76993008D01*
X129909685Y-76691469D01*
X131405599Y-76691469D01*
X131526266Y-76921360D01*
X132720080Y-76921360D01*
X132720080Y-75728205D01*
X132490190Y-75606884D01*
X132342981Y-75651535D01*
X132080160Y-75776719D01*
X131846811Y-75950772D01*
X131651902Y-76167005D01*
X131502923Y-76417108D01*
X131405599Y-76691469D01*
X129909685Y-76691469D01*
X129985628Y-76577813D01*
X130176722Y-76116472D01*
X130274140Y-75626716D01*
X130274140Y-75127364D01*
X130176722Y-74637608D01*
X129985628Y-74176267D01*
X129808632Y-73911374D01*
X133603715Y-73908120D01*
X167915524Y-73949861D01*
G37*
%TD.AperFunction*%
D30*
X168755001Y-119013421D02*
X168512319Y-119256103D01*
X168512313Y-119256108D01*
X166893422Y-120875000D01*
X163616047Y-120875000D01*
X163547962Y-120792038D01*
X163454091Y-120715000D01*
X163547962Y-120637962D01*
X163658405Y-120503387D01*
X163740472Y-120349851D01*
X163791008Y-120183255D01*
X163808072Y-120010001D01*
X163808072Y-119359999D01*
X163791008Y-119186745D01*
X163740472Y-119020149D01*
X163658405Y-118866613D01*
X163547962Y-118732038D01*
X163541406Y-118726658D01*
X163621185Y-118661185D01*
X163700537Y-118564494D01*
X163759502Y-118454180D01*
X163795812Y-118334482D01*
X163808072Y-118210000D01*
X163805000Y-117920750D01*
X163646250Y-117762000D01*
X162597000Y-117762000D01*
X162597000Y-117782000D01*
X162343000Y-117782000D01*
X162343000Y-117762000D01*
X162323000Y-117762000D01*
X162323000Y-117508000D01*
X162343000Y-117508000D01*
X162343000Y-117488000D01*
X162597000Y-117488000D01*
X162597000Y-117508000D01*
X163646250Y-117508000D01*
X163805000Y-117349250D01*
X163808072Y-117060000D01*
X163795812Y-116935518D01*
X163759502Y-116815820D01*
X163700537Y-116705506D01*
X163621185Y-116608815D01*
X163552493Y-116552441D01*
X163603737Y-116490000D01*
X167601531Y-116490000D01*
X167645000Y-116494281D01*
X167688469Y-116490000D01*
X167688477Y-116490000D01*
X167818490Y-116477195D01*
X167985313Y-116426589D01*
X168139059Y-116344411D01*
X168273817Y-116233817D01*
X168301534Y-116200044D01*
X168755001Y-115746577D01*
X168755001Y-119013421D01*
%TA.AperFunction,Conductor*%
D31*
G36*
X168755001Y-119013421D02*
G01*
X168512319Y-119256103D01*
X168512313Y-119256108D01*
X166893422Y-120875000D01*
X163616047Y-120875000D01*
X163547962Y-120792038D01*
X163454091Y-120715000D01*
X163547962Y-120637962D01*
X163658405Y-120503387D01*
X163740472Y-120349851D01*
X163791008Y-120183255D01*
X163808072Y-120010001D01*
X163808072Y-119359999D01*
X163791008Y-119186745D01*
X163740472Y-119020149D01*
X163658405Y-118866613D01*
X163547962Y-118732038D01*
X163541406Y-118726658D01*
X163621185Y-118661185D01*
X163700537Y-118564494D01*
X163759502Y-118454180D01*
X163795812Y-118334482D01*
X163808072Y-118210000D01*
X163805000Y-117920750D01*
X163646250Y-117762000D01*
X162597000Y-117762000D01*
X162597000Y-117782000D01*
X162343000Y-117782000D01*
X162343000Y-117762000D01*
X162323000Y-117762000D01*
X162323000Y-117508000D01*
X162343000Y-117508000D01*
X162343000Y-117488000D01*
X162597000Y-117488000D01*
X162597000Y-117508000D01*
X163646250Y-117508000D01*
X163805000Y-117349250D01*
X163808072Y-117060000D01*
X163795812Y-116935518D01*
X163759502Y-116815820D01*
X163700537Y-116705506D01*
X163621185Y-116608815D01*
X163552493Y-116552441D01*
X163603737Y-116490000D01*
X167601531Y-116490000D01*
X167645000Y-116494281D01*
X167688469Y-116490000D01*
X167688477Y-116490000D01*
X167818490Y-116477195D01*
X167985313Y-116426589D01*
X168139059Y-116344411D01*
X168273817Y-116233817D01*
X168301534Y-116200044D01*
X168755001Y-115746577D01*
X168755001Y-119013421D01*
G37*
%TD.AperFunction*%
D30*
X168755000Y-102386579D02*
X168755001Y-113243420D01*
X167278422Y-114720000D01*
X163603737Y-114720000D01*
X163547962Y-114652038D01*
X163460184Y-114580000D01*
X163547962Y-114507962D01*
X163658405Y-114373387D01*
X163740472Y-114219851D01*
X163791008Y-114053255D01*
X163808072Y-113880001D01*
X163808072Y-113229999D01*
X163791008Y-113056745D01*
X163740472Y-112890149D01*
X163711069Y-112835141D01*
X163801185Y-112761185D01*
X163880537Y-112664494D01*
X163939502Y-112554180D01*
X163975812Y-112434482D01*
X163988072Y-112310000D01*
X163988072Y-111010000D01*
X163975812Y-110885518D01*
X163939502Y-110765820D01*
X163880537Y-110655506D01*
X163801185Y-110558815D01*
X163704494Y-110479463D01*
X163594180Y-110420498D01*
X163474482Y-110384188D01*
X163350000Y-110371928D01*
X163335907Y-110371928D01*
X163417205Y-110250256D01*
X163495226Y-110061898D01*
X163535000Y-109861939D01*
X163535000Y-109658061D01*
X163495226Y-109458102D01*
X163417205Y-109269744D01*
X163335855Y-109147995D01*
X163350000Y-109148072D01*
X163474482Y-109135812D01*
X163594180Y-109099502D01*
X163704494Y-109040537D01*
X163801185Y-108961185D01*
X163880537Y-108864494D01*
X163939502Y-108754180D01*
X163975812Y-108634482D01*
X163988072Y-108510000D01*
X163985000Y-108145750D01*
X163826250Y-107987000D01*
X162627000Y-107987000D01*
X162627000Y-108007000D01*
X162373000Y-108007000D01*
X162373000Y-107987000D01*
X162353000Y-107987000D01*
X162353000Y-107733000D01*
X162373000Y-107733000D01*
X162373000Y-106733750D01*
X162627000Y-106733750D01*
X162627000Y-107733000D01*
X163826250Y-107733000D01*
X163985000Y-107574250D01*
X163988072Y-107210000D01*
X163975812Y-107085518D01*
X163939502Y-106965820D01*
X163880537Y-106855506D01*
X163801185Y-106758815D01*
X163704494Y-106679463D01*
X163594180Y-106620498D01*
X163474482Y-106584188D01*
X163350000Y-106571928D01*
X162785750Y-106575000D01*
X162627000Y-106733750D01*
X162373000Y-106733750D01*
X162214250Y-106575000D01*
X161650000Y-106571928D01*
X161525518Y-106584188D01*
X161405820Y-106620498D01*
X161295506Y-106679463D01*
X161252440Y-106714806D01*
X161252440Y-106387741D01*
X161759875Y-105880306D01*
X161783506Y-105903937D01*
X161953024Y-106017205D01*
X162141382Y-106095226D01*
X162341341Y-106135000D01*
X162545219Y-106135000D01*
X162745178Y-106095226D01*
X162933536Y-106017205D01*
X163103054Y-105903937D01*
X163247217Y-105759774D01*
X163360485Y-105590256D01*
X163438506Y-105401898D01*
X163478280Y-105201939D01*
X163478280Y-104998061D01*
X163438506Y-104798102D01*
X163360485Y-104609744D01*
X163247217Y-104440226D01*
X163103054Y-104296063D01*
X162933536Y-104182795D01*
X162745178Y-104104774D01*
X162545219Y-104065000D01*
X162341341Y-104065000D01*
X162141382Y-104104774D01*
X161953024Y-104182795D01*
X161783506Y-104296063D01*
X161739569Y-104340000D01*
X161502703Y-104340000D01*
X161465380Y-104336324D01*
X161428057Y-104340000D01*
X161428047Y-104340000D01*
X161316394Y-104350997D01*
X161173133Y-104394454D01*
X161041103Y-104465026D01*
X160973730Y-104520318D01*
X160925379Y-104559999D01*
X160901581Y-104588997D01*
X160471815Y-105018764D01*
X160463799Y-105008997D01*
X160440001Y-104979999D01*
X160411004Y-104956202D01*
X158873804Y-103419003D01*
X158850001Y-103389999D01*
X158734276Y-103295026D01*
X158602247Y-103224454D01*
X158458986Y-103180997D01*
X158347333Y-103170000D01*
X158347322Y-103170000D01*
X158310000Y-103166324D01*
X158272678Y-103170000D01*
X156617002Y-103170000D01*
X156617002Y-103047156D01*
X156846890Y-103168476D01*
X156994099Y-103123825D01*
X157256920Y-102998641D01*
X157490269Y-102824588D01*
X157685178Y-102608355D01*
X157754805Y-102491466D01*
X157876525Y-102673632D01*
X158083368Y-102880475D01*
X158326589Y-103042990D01*
X158596842Y-103154932D01*
X158883740Y-103212000D01*
X159176260Y-103212000D01*
X159463158Y-103154932D01*
X159733411Y-103042990D01*
X159976632Y-102880475D01*
X160183475Y-102673632D01*
X160300000Y-102499240D01*
X160416525Y-102673632D01*
X160623368Y-102880475D01*
X160866589Y-103042990D01*
X161136842Y-103154932D01*
X161423740Y-103212000D01*
X161716260Y-103212000D01*
X162003158Y-103154932D01*
X162273411Y-103042990D01*
X162516632Y-102880475D01*
X162723475Y-102673632D01*
X162840000Y-102499240D01*
X162956525Y-102673632D01*
X163163368Y-102880475D01*
X163406589Y-103042990D01*
X163676842Y-103154932D01*
X163963740Y-103212000D01*
X164256260Y-103212000D01*
X164543158Y-103154932D01*
X164813411Y-103042990D01*
X165056632Y-102880475D01*
X165263475Y-102673632D01*
X165380000Y-102499240D01*
X165496525Y-102673632D01*
X165703368Y-102880475D01*
X165946589Y-103042990D01*
X166216842Y-103154932D01*
X166503740Y-103212000D01*
X166796260Y-103212000D01*
X167083158Y-103154932D01*
X167353411Y-103042990D01*
X167596632Y-102880475D01*
X167803475Y-102673632D01*
X167965990Y-102430411D01*
X168077932Y-102160158D01*
X168135000Y-101873260D01*
X168135000Y-101766579D01*
X168755000Y-102386579D01*
%TA.AperFunction,Conductor*%
D31*
G36*
X168755000Y-102386579D02*
G01*
X168755001Y-113243420D01*
X167278422Y-114720000D01*
X163603737Y-114720000D01*
X163547962Y-114652038D01*
X163460184Y-114580000D01*
X163547962Y-114507962D01*
X163658405Y-114373387D01*
X163740472Y-114219851D01*
X163791008Y-114053255D01*
X163808072Y-113880001D01*
X163808072Y-113229999D01*
X163791008Y-113056745D01*
X163740472Y-112890149D01*
X163711069Y-112835141D01*
X163801185Y-112761185D01*
X163880537Y-112664494D01*
X163939502Y-112554180D01*
X163975812Y-112434482D01*
X163988072Y-112310000D01*
X163988072Y-111010000D01*
X163975812Y-110885518D01*
X163939502Y-110765820D01*
X163880537Y-110655506D01*
X163801185Y-110558815D01*
X163704494Y-110479463D01*
X163594180Y-110420498D01*
X163474482Y-110384188D01*
X163350000Y-110371928D01*
X163335907Y-110371928D01*
X163417205Y-110250256D01*
X163495226Y-110061898D01*
X163535000Y-109861939D01*
X163535000Y-109658061D01*
X163495226Y-109458102D01*
X163417205Y-109269744D01*
X163335855Y-109147995D01*
X163350000Y-109148072D01*
X163474482Y-109135812D01*
X163594180Y-109099502D01*
X163704494Y-109040537D01*
X163801185Y-108961185D01*
X163880537Y-108864494D01*
X163939502Y-108754180D01*
X163975812Y-108634482D01*
X163988072Y-108510000D01*
X163985000Y-108145750D01*
X163826250Y-107987000D01*
X162627000Y-107987000D01*
X162627000Y-108007000D01*
X162373000Y-108007000D01*
X162373000Y-107987000D01*
X162353000Y-107987000D01*
X162353000Y-107733000D01*
X162373000Y-107733000D01*
X162373000Y-106733750D01*
X162627000Y-106733750D01*
X162627000Y-107733000D01*
X163826250Y-107733000D01*
X163985000Y-107574250D01*
X163988072Y-107210000D01*
X163975812Y-107085518D01*
X163939502Y-106965820D01*
X163880537Y-106855506D01*
X163801185Y-106758815D01*
X163704494Y-106679463D01*
X163594180Y-106620498D01*
X163474482Y-106584188D01*
X163350000Y-106571928D01*
X162785750Y-106575000D01*
X162627000Y-106733750D01*
X162373000Y-106733750D01*
X162214250Y-106575000D01*
X161650000Y-106571928D01*
X161525518Y-106584188D01*
X161405820Y-106620498D01*
X161295506Y-106679463D01*
X161252440Y-106714806D01*
X161252440Y-106387741D01*
X161759875Y-105880306D01*
X161783506Y-105903937D01*
X161953024Y-106017205D01*
X162141382Y-106095226D01*
X162341341Y-106135000D01*
X162545219Y-106135000D01*
X162745178Y-106095226D01*
X162933536Y-106017205D01*
X163103054Y-105903937D01*
X163247217Y-105759774D01*
X163360485Y-105590256D01*
X163438506Y-105401898D01*
X163478280Y-105201939D01*
X163478280Y-104998061D01*
X163438506Y-104798102D01*
X163360485Y-104609744D01*
X163247217Y-104440226D01*
X163103054Y-104296063D01*
X162933536Y-104182795D01*
X162745178Y-104104774D01*
X162545219Y-104065000D01*
X162341341Y-104065000D01*
X162141382Y-104104774D01*
X161953024Y-104182795D01*
X161783506Y-104296063D01*
X161739569Y-104340000D01*
X161502703Y-104340000D01*
X161465380Y-104336324D01*
X161428057Y-104340000D01*
X161428047Y-104340000D01*
X161316394Y-104350997D01*
X161173133Y-104394454D01*
X161041103Y-104465026D01*
X160973730Y-104520318D01*
X160925379Y-104559999D01*
X160901581Y-104588997D01*
X160471815Y-105018764D01*
X160463799Y-105008997D01*
X160440001Y-104979999D01*
X160411004Y-104956202D01*
X158873804Y-103419003D01*
X158850001Y-103389999D01*
X158734276Y-103295026D01*
X158602247Y-103224454D01*
X158458986Y-103180997D01*
X158347333Y-103170000D01*
X158347322Y-103170000D01*
X158310000Y-103166324D01*
X158272678Y-103170000D01*
X156617002Y-103170000D01*
X156617002Y-103047156D01*
X156846890Y-103168476D01*
X156994099Y-103123825D01*
X157256920Y-102998641D01*
X157490269Y-102824588D01*
X157685178Y-102608355D01*
X157754805Y-102491466D01*
X157876525Y-102673632D01*
X158083368Y-102880475D01*
X158326589Y-103042990D01*
X158596842Y-103154932D01*
X158883740Y-103212000D01*
X159176260Y-103212000D01*
X159463158Y-103154932D01*
X159733411Y-103042990D01*
X159976632Y-102880475D01*
X160183475Y-102673632D01*
X160300000Y-102499240D01*
X160416525Y-102673632D01*
X160623368Y-102880475D01*
X160866589Y-103042990D01*
X161136842Y-103154932D01*
X161423740Y-103212000D01*
X161716260Y-103212000D01*
X162003158Y-103154932D01*
X162273411Y-103042990D01*
X162516632Y-102880475D01*
X162723475Y-102673632D01*
X162840000Y-102499240D01*
X162956525Y-102673632D01*
X163163368Y-102880475D01*
X163406589Y-103042990D01*
X163676842Y-103154932D01*
X163963740Y-103212000D01*
X164256260Y-103212000D01*
X164543158Y-103154932D01*
X164813411Y-103042990D01*
X165056632Y-102880475D01*
X165263475Y-102673632D01*
X165380000Y-102499240D01*
X165496525Y-102673632D01*
X165703368Y-102880475D01*
X165946589Y-103042990D01*
X166216842Y-103154932D01*
X166503740Y-103212000D01*
X166796260Y-103212000D01*
X167083158Y-103154932D01*
X167353411Y-103042990D01*
X167596632Y-102880475D01*
X167803475Y-102673632D01*
X167965990Y-102430411D01*
X168077932Y-102160158D01*
X168135000Y-101873260D01*
X168135000Y-101766579D01*
X168755000Y-102386579D01*
G37*
%TD.AperFunction*%
D30*
X136518244Y-108198920D02*
X136521921Y-108236252D01*
X136521920Y-111521398D01*
X136152145Y-111891174D01*
X136093475Y-111803368D01*
X135961620Y-111671513D01*
X136034180Y-111649502D01*
X136144494Y-111590537D01*
X136241185Y-111511185D01*
X136320537Y-111414494D01*
X136379502Y-111304180D01*
X136415812Y-111184482D01*
X136428072Y-111060000D01*
X136425000Y-110495750D01*
X136266250Y-110337000D01*
X135067000Y-110337000D01*
X135067000Y-110357000D01*
X134813000Y-110357000D01*
X134813000Y-110337000D01*
X134793000Y-110337000D01*
X134793000Y-110083000D01*
X134813000Y-110083000D01*
X134813000Y-110063000D01*
X135067000Y-110063000D01*
X135067000Y-110083000D01*
X136266250Y-110083000D01*
X136425000Y-109924250D01*
X136428072Y-109360000D01*
X136415812Y-109235518D01*
X136379502Y-109115820D01*
X136320537Y-109005506D01*
X136241185Y-108908815D01*
X136144494Y-108829463D01*
X136034180Y-108770498D01*
X135914482Y-108734188D01*
X135790000Y-108721928D01*
X135500148Y-108723506D01*
X135542975Y-108719288D01*
X135709571Y-108668752D01*
X135863107Y-108586685D01*
X135997682Y-108476242D01*
X136108125Y-108341667D01*
X136138336Y-108285147D01*
X136156700Y-108286956D01*
X136194022Y-108283280D01*
X136194033Y-108283280D01*
X136305686Y-108272283D01*
X136448947Y-108228826D01*
X136518986Y-108191389D01*
X136518244Y-108198920D01*
%TA.AperFunction,Conductor*%
D31*
G36*
X136518244Y-108198920D02*
G01*
X136521921Y-108236252D01*
X136521920Y-111521398D01*
X136152145Y-111891174D01*
X136093475Y-111803368D01*
X135961620Y-111671513D01*
X136034180Y-111649502D01*
X136144494Y-111590537D01*
X136241185Y-111511185D01*
X136320537Y-111414494D01*
X136379502Y-111304180D01*
X136415812Y-111184482D01*
X136428072Y-111060000D01*
X136425000Y-110495750D01*
X136266250Y-110337000D01*
X135067000Y-110337000D01*
X135067000Y-110357000D01*
X134813000Y-110357000D01*
X134813000Y-110337000D01*
X134793000Y-110337000D01*
X134793000Y-110083000D01*
X134813000Y-110083000D01*
X134813000Y-110063000D01*
X135067000Y-110063000D01*
X135067000Y-110083000D01*
X136266250Y-110083000D01*
X136425000Y-109924250D01*
X136428072Y-109360000D01*
X136415812Y-109235518D01*
X136379502Y-109115820D01*
X136320537Y-109005506D01*
X136241185Y-108908815D01*
X136144494Y-108829463D01*
X136034180Y-108770498D01*
X135914482Y-108734188D01*
X135790000Y-108721928D01*
X135500148Y-108723506D01*
X135542975Y-108719288D01*
X135709571Y-108668752D01*
X135863107Y-108586685D01*
X135997682Y-108476242D01*
X136108125Y-108341667D01*
X136138336Y-108285147D01*
X136156700Y-108286956D01*
X136194022Y-108283280D01*
X136194033Y-108283280D01*
X136305686Y-108272283D01*
X136448947Y-108228826D01*
X136518986Y-108191389D01*
X136518244Y-108198920D01*
G37*
%TD.AperFunction*%
D30*
X132237000Y-101593000D02*
X132257000Y-101593000D01*
X132257000Y-101847000D01*
X132237000Y-101847000D01*
X132237000Y-103040155D01*
X132466890Y-103161476D01*
X132614099Y-103116825D01*
X132876920Y-102991641D01*
X133110269Y-102817588D01*
X133305178Y-102601355D01*
X133374805Y-102484466D01*
X133496525Y-102666632D01*
X133703368Y-102873475D01*
X133946589Y-103035990D01*
X134216842Y-103147932D01*
X134503740Y-103205000D01*
X134796260Y-103205000D01*
X135083158Y-103147932D01*
X135353411Y-103035990D01*
X135596632Y-102873475D01*
X135803475Y-102666632D01*
X135920000Y-102492240D01*
X136036525Y-102666632D01*
X136243368Y-102873475D01*
X136486589Y-103035990D01*
X136756842Y-103147932D01*
X137043740Y-103205000D01*
X137336260Y-103205000D01*
X137623158Y-103147932D01*
X137893411Y-103035990D01*
X138136632Y-102873475D01*
X138343475Y-102666632D01*
X138460000Y-102492240D01*
X138576525Y-102666632D01*
X138783368Y-102873475D01*
X139026589Y-103035990D01*
X139296842Y-103147932D01*
X139583740Y-103205000D01*
X139876260Y-103205000D01*
X140163158Y-103147932D01*
X140433411Y-103035990D01*
X140676632Y-102873475D01*
X140883475Y-102666632D01*
X141000000Y-102492240D01*
X141116525Y-102666632D01*
X141323368Y-102873475D01*
X141566589Y-103035990D01*
X141836842Y-103147932D01*
X142123740Y-103205000D01*
X142416260Y-103205000D01*
X142703158Y-103147932D01*
X142973411Y-103035990D01*
X143216632Y-102873475D01*
X143423475Y-102666632D01*
X143540000Y-102492240D01*
X143656525Y-102666632D01*
X143863368Y-102873475D01*
X144106589Y-103035990D01*
X144376842Y-103147932D01*
X144663740Y-103205000D01*
X144956260Y-103205000D01*
X145243158Y-103147932D01*
X145513411Y-103035990D01*
X145756632Y-102873475D01*
X145963475Y-102666632D01*
X146088178Y-102480000D01*
X147375199Y-102480000D01*
X148832105Y-103936907D01*
X148830000Y-103937546D01*
X148769482Y-103919188D01*
X148645000Y-103906928D01*
X147745000Y-103906928D01*
X147620518Y-103919188D01*
X147560000Y-103937546D01*
X147499482Y-103919188D01*
X147375000Y-103906928D01*
X146475000Y-103906928D01*
X146350518Y-103919188D01*
X146290000Y-103937546D01*
X146229482Y-103919188D01*
X146105000Y-103906928D01*
X145205000Y-103906928D01*
X145080518Y-103919188D01*
X145020000Y-103937546D01*
X144959482Y-103919188D01*
X144835000Y-103906928D01*
X143935000Y-103906928D01*
X143810518Y-103919188D01*
X143750000Y-103937546D01*
X143689482Y-103919188D01*
X143565000Y-103906928D01*
X142665000Y-103906928D01*
X142540518Y-103919188D01*
X142420820Y-103955498D01*
X142310506Y-104014463D01*
X142213815Y-104093815D01*
X142134463Y-104190506D01*
X142075498Y-104300820D01*
X142039188Y-104420518D01*
X142026928Y-104545000D01*
X142026928Y-105585000D01*
X137372313Y-105585000D01*
X137334980Y-105581323D01*
X137297647Y-105585000D01*
X137185994Y-105595997D01*
X137042733Y-105639454D01*
X136910704Y-105710026D01*
X136794979Y-105804999D01*
X136771181Y-105833997D01*
X136014440Y-106590738D01*
X135997682Y-106570318D01*
X135909904Y-106498280D01*
X135997682Y-106426242D01*
X136108125Y-106291667D01*
X136190192Y-106138131D01*
X136240728Y-105971535D01*
X136257792Y-105798281D01*
X136257792Y-105148279D01*
X136240728Y-104975025D01*
X136190192Y-104808429D01*
X136108125Y-104654893D01*
X135997682Y-104520318D01*
X135863107Y-104409875D01*
X135709571Y-104327808D01*
X135542975Y-104277272D01*
X135369721Y-104260208D01*
X134469719Y-104260208D01*
X134296465Y-104277272D01*
X134129869Y-104327808D01*
X133976333Y-104409875D01*
X133841758Y-104520318D01*
X133731315Y-104654893D01*
X133680982Y-104749060D01*
X133381326Y-104749060D01*
X133334445Y-104661353D01*
X133224002Y-104526778D01*
X133089427Y-104416335D01*
X132935891Y-104334268D01*
X132769295Y-104283732D01*
X132596041Y-104266668D01*
X131696039Y-104266668D01*
X131522785Y-104283732D01*
X131356189Y-104334268D01*
X131202653Y-104416335D01*
X131068078Y-104526778D01*
X130957635Y-104661353D01*
X130875568Y-104814889D01*
X130825032Y-104981485D01*
X130807968Y-105154739D01*
X130807968Y-105804741D01*
X130825032Y-105977995D01*
X130875568Y-106144591D01*
X130957635Y-106298127D01*
X131068078Y-106432702D01*
X131074634Y-106438082D01*
X130994855Y-106503555D01*
X130915503Y-106600246D01*
X130856538Y-106710560D01*
X130820228Y-106830258D01*
X130807968Y-106954740D01*
X130811040Y-107243990D01*
X130969790Y-107402740D01*
X132019040Y-107402740D01*
X132019040Y-107382740D01*
X132273040Y-107382740D01*
X132273040Y-107402740D01*
X133322290Y-107402740D01*
X133481040Y-107243990D01*
X133484112Y-106954740D01*
X133471852Y-106830258D01*
X133435542Y-106710560D01*
X133376577Y-106600246D01*
X133297225Y-106503555D01*
X133217446Y-106438082D01*
X133224002Y-106432702D01*
X133334445Y-106298127D01*
X133349982Y-106269060D01*
X133719231Y-106269060D01*
X133731315Y-106291667D01*
X133841758Y-106426242D01*
X133929536Y-106498280D01*
X133841758Y-106570318D01*
X133731315Y-106704893D01*
X133649248Y-106858429D01*
X133598712Y-107025025D01*
X133581648Y-107198279D01*
X133581648Y-107848281D01*
X133598712Y-108021535D01*
X133649248Y-108188131D01*
X133731315Y-108341667D01*
X133841758Y-108476242D01*
X133976333Y-108586685D01*
X134129869Y-108668752D01*
X134296465Y-108719288D01*
X134336919Y-108723272D01*
X134090000Y-108721928D01*
X133965518Y-108734188D01*
X133845820Y-108770498D01*
X133735506Y-108829463D01*
X133638815Y-108908815D01*
X133559463Y-109005506D01*
X133500498Y-109115820D01*
X133464188Y-109235518D01*
X133451928Y-109360000D01*
X133455000Y-109924250D01*
X133613748Y-110082998D01*
X133455000Y-110082998D01*
X133455000Y-110200041D01*
X133406352Y-110039669D01*
X133324285Y-109886133D01*
X133213842Y-109751558D01*
X133079267Y-109641115D01*
X132925731Y-109559048D01*
X132759135Y-109508512D01*
X132585881Y-109491448D01*
X131685879Y-109491448D01*
X131512625Y-109508512D01*
X131346029Y-109559048D01*
X131192493Y-109641115D01*
X131161736Y-109666357D01*
X130496120Y-109000742D01*
X130496120Y-108104740D01*
X130807968Y-108104740D01*
X130820228Y-108229222D01*
X130856538Y-108348920D01*
X130915503Y-108459234D01*
X130994855Y-108555925D01*
X131091546Y-108635277D01*
X131201860Y-108694242D01*
X131321558Y-108730552D01*
X131446040Y-108742812D01*
X131860290Y-108739740D01*
X132019040Y-108580990D01*
X132019040Y-107656740D01*
X132273040Y-107656740D01*
X132273040Y-108580990D01*
X132431790Y-108739740D01*
X132846040Y-108742812D01*
X132970522Y-108730552D01*
X133090220Y-108694242D01*
X133200534Y-108635277D01*
X133297225Y-108555925D01*
X133376577Y-108459234D01*
X133435542Y-108348920D01*
X133471852Y-108229222D01*
X133484112Y-108104740D01*
X133481040Y-107815490D01*
X133322290Y-107656740D01*
X132273040Y-107656740D01*
X132019040Y-107656740D01*
X130969790Y-107656740D01*
X130811040Y-107815490D01*
X130807968Y-108104740D01*
X130496120Y-108104740D01*
X130496120Y-106111329D01*
X130500401Y-106067860D01*
X130496120Y-106024391D01*
X130496120Y-106024383D01*
X130483315Y-105894370D01*
X130432709Y-105727547D01*
X130350531Y-105573801D01*
X130316996Y-105532939D01*
X130267652Y-105472813D01*
X130267650Y-105472811D01*
X130239937Y-105439043D01*
X130206170Y-105411331D01*
X127991890Y-103197052D01*
X128004482Y-103195812D01*
X128124180Y-103159502D01*
X128234494Y-103100537D01*
X128331185Y-103021185D01*
X128410537Y-102924494D01*
X128469502Y-102814180D01*
X128491513Y-102741620D01*
X128623368Y-102873475D01*
X128866589Y-103035990D01*
X129136842Y-103147932D01*
X129423740Y-103205000D01*
X129716260Y-103205000D01*
X130003158Y-103147932D01*
X130273411Y-103035990D01*
X130516632Y-102873475D01*
X130723475Y-102666632D01*
X130845195Y-102484466D01*
X130914822Y-102601355D01*
X131109731Y-102817588D01*
X131343080Y-102991641D01*
X131605901Y-103116825D01*
X131753110Y-103161476D01*
X131983000Y-103040155D01*
X131983000Y-101847000D01*
X131963000Y-101847000D01*
X131963000Y-101593000D01*
X131983000Y-101593000D01*
X131983000Y-101573000D01*
X132237000Y-101573000D01*
X132237000Y-101593000D01*
%TA.AperFunction,Conductor*%
D31*
G36*
X132237000Y-101593000D02*
G01*
X132257000Y-101593000D01*
X132257000Y-101847000D01*
X132237000Y-101847000D01*
X132237000Y-103040155D01*
X132466890Y-103161476D01*
X132614099Y-103116825D01*
X132876920Y-102991641D01*
X133110269Y-102817588D01*
X133305178Y-102601355D01*
X133374805Y-102484466D01*
X133496525Y-102666632D01*
X133703368Y-102873475D01*
X133946589Y-103035990D01*
X134216842Y-103147932D01*
X134503740Y-103205000D01*
X134796260Y-103205000D01*
X135083158Y-103147932D01*
X135353411Y-103035990D01*
X135596632Y-102873475D01*
X135803475Y-102666632D01*
X135920000Y-102492240D01*
X136036525Y-102666632D01*
X136243368Y-102873475D01*
X136486589Y-103035990D01*
X136756842Y-103147932D01*
X137043740Y-103205000D01*
X137336260Y-103205000D01*
X137623158Y-103147932D01*
X137893411Y-103035990D01*
X138136632Y-102873475D01*
X138343475Y-102666632D01*
X138460000Y-102492240D01*
X138576525Y-102666632D01*
X138783368Y-102873475D01*
X139026589Y-103035990D01*
X139296842Y-103147932D01*
X139583740Y-103205000D01*
X139876260Y-103205000D01*
X140163158Y-103147932D01*
X140433411Y-103035990D01*
X140676632Y-102873475D01*
X140883475Y-102666632D01*
X141000000Y-102492240D01*
X141116525Y-102666632D01*
X141323368Y-102873475D01*
X141566589Y-103035990D01*
X141836842Y-103147932D01*
X142123740Y-103205000D01*
X142416260Y-103205000D01*
X142703158Y-103147932D01*
X142973411Y-103035990D01*
X143216632Y-102873475D01*
X143423475Y-102666632D01*
X143540000Y-102492240D01*
X143656525Y-102666632D01*
X143863368Y-102873475D01*
X144106589Y-103035990D01*
X144376842Y-103147932D01*
X144663740Y-103205000D01*
X144956260Y-103205000D01*
X145243158Y-103147932D01*
X145513411Y-103035990D01*
X145756632Y-102873475D01*
X145963475Y-102666632D01*
X146088178Y-102480000D01*
X147375199Y-102480000D01*
X148832105Y-103936907D01*
X148830000Y-103937546D01*
X148769482Y-103919188D01*
X148645000Y-103906928D01*
X147745000Y-103906928D01*
X147620518Y-103919188D01*
X147560000Y-103937546D01*
X147499482Y-103919188D01*
X147375000Y-103906928D01*
X146475000Y-103906928D01*
X146350518Y-103919188D01*
X146290000Y-103937546D01*
X146229482Y-103919188D01*
X146105000Y-103906928D01*
X145205000Y-103906928D01*
X145080518Y-103919188D01*
X145020000Y-103937546D01*
X144959482Y-103919188D01*
X144835000Y-103906928D01*
X143935000Y-103906928D01*
X143810518Y-103919188D01*
X143750000Y-103937546D01*
X143689482Y-103919188D01*
X143565000Y-103906928D01*
X142665000Y-103906928D01*
X142540518Y-103919188D01*
X142420820Y-103955498D01*
X142310506Y-104014463D01*
X142213815Y-104093815D01*
X142134463Y-104190506D01*
X142075498Y-104300820D01*
X142039188Y-104420518D01*
X142026928Y-104545000D01*
X142026928Y-105585000D01*
X137372313Y-105585000D01*
X137334980Y-105581323D01*
X137297647Y-105585000D01*
X137185994Y-105595997D01*
X137042733Y-105639454D01*
X136910704Y-105710026D01*
X136794979Y-105804999D01*
X136771181Y-105833997D01*
X136014440Y-106590738D01*
X135997682Y-106570318D01*
X135909904Y-106498280D01*
X135997682Y-106426242D01*
X136108125Y-106291667D01*
X136190192Y-106138131D01*
X136240728Y-105971535D01*
X136257792Y-105798281D01*
X136257792Y-105148279D01*
X136240728Y-104975025D01*
X136190192Y-104808429D01*
X136108125Y-104654893D01*
X135997682Y-104520318D01*
X135863107Y-104409875D01*
X135709571Y-104327808D01*
X135542975Y-104277272D01*
X135369721Y-104260208D01*
X134469719Y-104260208D01*
X134296465Y-104277272D01*
X134129869Y-104327808D01*
X133976333Y-104409875D01*
X133841758Y-104520318D01*
X133731315Y-104654893D01*
X133680982Y-104749060D01*
X133381326Y-104749060D01*
X133334445Y-104661353D01*
X133224002Y-104526778D01*
X133089427Y-104416335D01*
X132935891Y-104334268D01*
X132769295Y-104283732D01*
X132596041Y-104266668D01*
X131696039Y-104266668D01*
X131522785Y-104283732D01*
X131356189Y-104334268D01*
X131202653Y-104416335D01*
X131068078Y-104526778D01*
X130957635Y-104661353D01*
X130875568Y-104814889D01*
X130825032Y-104981485D01*
X130807968Y-105154739D01*
X130807968Y-105804741D01*
X130825032Y-105977995D01*
X130875568Y-106144591D01*
X130957635Y-106298127D01*
X131068078Y-106432702D01*
X131074634Y-106438082D01*
X130994855Y-106503555D01*
X130915503Y-106600246D01*
X130856538Y-106710560D01*
X130820228Y-106830258D01*
X130807968Y-106954740D01*
X130811040Y-107243990D01*
X130969790Y-107402740D01*
X132019040Y-107402740D01*
X132019040Y-107382740D01*
X132273040Y-107382740D01*
X132273040Y-107402740D01*
X133322290Y-107402740D01*
X133481040Y-107243990D01*
X133484112Y-106954740D01*
X133471852Y-106830258D01*
X133435542Y-106710560D01*
X133376577Y-106600246D01*
X133297225Y-106503555D01*
X133217446Y-106438082D01*
X133224002Y-106432702D01*
X133334445Y-106298127D01*
X133349982Y-106269060D01*
X133719231Y-106269060D01*
X133731315Y-106291667D01*
X133841758Y-106426242D01*
X133929536Y-106498280D01*
X133841758Y-106570318D01*
X133731315Y-106704893D01*
X133649248Y-106858429D01*
X133598712Y-107025025D01*
X133581648Y-107198279D01*
X133581648Y-107848281D01*
X133598712Y-108021535D01*
X133649248Y-108188131D01*
X133731315Y-108341667D01*
X133841758Y-108476242D01*
X133976333Y-108586685D01*
X134129869Y-108668752D01*
X134296465Y-108719288D01*
X134336919Y-108723272D01*
X134090000Y-108721928D01*
X133965518Y-108734188D01*
X133845820Y-108770498D01*
X133735506Y-108829463D01*
X133638815Y-108908815D01*
X133559463Y-109005506D01*
X133500498Y-109115820D01*
X133464188Y-109235518D01*
X133451928Y-109360000D01*
X133455000Y-109924250D01*
X133613748Y-110082998D01*
X133455000Y-110082998D01*
X133455000Y-110200041D01*
X133406352Y-110039669D01*
X133324285Y-109886133D01*
X133213842Y-109751558D01*
X133079267Y-109641115D01*
X132925731Y-109559048D01*
X132759135Y-109508512D01*
X132585881Y-109491448D01*
X131685879Y-109491448D01*
X131512625Y-109508512D01*
X131346029Y-109559048D01*
X131192493Y-109641115D01*
X131161736Y-109666357D01*
X130496120Y-109000742D01*
X130496120Y-108104740D01*
X130807968Y-108104740D01*
X130820228Y-108229222D01*
X130856538Y-108348920D01*
X130915503Y-108459234D01*
X130994855Y-108555925D01*
X131091546Y-108635277D01*
X131201860Y-108694242D01*
X131321558Y-108730552D01*
X131446040Y-108742812D01*
X131860290Y-108739740D01*
X132019040Y-108580990D01*
X132019040Y-107656740D01*
X132273040Y-107656740D01*
X132273040Y-108580990D01*
X132431790Y-108739740D01*
X132846040Y-108742812D01*
X132970522Y-108730552D01*
X133090220Y-108694242D01*
X133200534Y-108635277D01*
X133297225Y-108555925D01*
X133376577Y-108459234D01*
X133435542Y-108348920D01*
X133471852Y-108229222D01*
X133484112Y-108104740D01*
X133481040Y-107815490D01*
X133322290Y-107656740D01*
X132273040Y-107656740D01*
X132019040Y-107656740D01*
X130969790Y-107656740D01*
X130811040Y-107815490D01*
X130807968Y-108104740D01*
X130496120Y-108104740D01*
X130496120Y-106111329D01*
X130500401Y-106067860D01*
X130496120Y-106024391D01*
X130496120Y-106024383D01*
X130483315Y-105894370D01*
X130432709Y-105727547D01*
X130350531Y-105573801D01*
X130316996Y-105532939D01*
X130267652Y-105472813D01*
X130267650Y-105472811D01*
X130239937Y-105439043D01*
X130206170Y-105411331D01*
X127991890Y-103197052D01*
X128004482Y-103195812D01*
X128124180Y-103159502D01*
X128234494Y-103100537D01*
X128331185Y-103021185D01*
X128410537Y-102924494D01*
X128469502Y-102814180D01*
X128491513Y-102741620D01*
X128623368Y-102873475D01*
X128866589Y-103035990D01*
X129136842Y-103147932D01*
X129423740Y-103205000D01*
X129716260Y-103205000D01*
X130003158Y-103147932D01*
X130273411Y-103035990D01*
X130516632Y-102873475D01*
X130723475Y-102666632D01*
X130845195Y-102484466D01*
X130914822Y-102601355D01*
X131109731Y-102817588D01*
X131343080Y-102991641D01*
X131605901Y-103116825D01*
X131753110Y-103161476D01*
X131983000Y-103040155D01*
X131983000Y-101847000D01*
X131963000Y-101847000D01*
X131963000Y-101593000D01*
X131983000Y-101593000D01*
X131983000Y-101573000D01*
X132237000Y-101573000D01*
X132237000Y-101593000D01*
G37*
%TD.AperFunction*%
D30*
X156617000Y-101600000D02*
X156637000Y-101600000D01*
X156637000Y-101854000D01*
X156617000Y-101854000D01*
X156617000Y-101874000D01*
X156363000Y-101874000D01*
X156363000Y-101854000D01*
X156343000Y-101854000D01*
X156343000Y-101600000D01*
X156363000Y-101600000D01*
X156363000Y-101580000D01*
X156617000Y-101580000D01*
X156617000Y-101600000D01*
%TA.AperFunction,Conductor*%
D31*
G36*
X156617000Y-101600000D02*
G01*
X156637000Y-101600000D01*
X156637000Y-101854000D01*
X156617000Y-101854000D01*
X156617000Y-101874000D01*
X156363000Y-101874000D01*
X156363000Y-101854000D01*
X156343000Y-101854000D01*
X156343000Y-101600000D01*
X156363000Y-101600000D01*
X156363000Y-101580000D01*
X156617000Y-101580000D01*
X156617000Y-101600000D01*
G37*
%TD.AperFunction*%
D30*
X141683470Y-89885049D02*
X141711183Y-89918817D01*
X141744951Y-89946530D01*
X141744953Y-89946532D01*
X141845941Y-90029411D01*
X141999686Y-90111589D01*
X142128086Y-90150539D01*
X142166510Y-90162195D01*
X142296523Y-90175000D01*
X142296531Y-90175000D01*
X142340000Y-90179281D01*
X142383469Y-90175000D01*
X142811256Y-90175000D01*
X142816018Y-90180802D01*
X142950593Y-90291245D01*
X143008980Y-90322454D01*
X143008980Y-90347354D01*
X142969463Y-90395506D01*
X142910498Y-90505820D01*
X142874188Y-90625518D01*
X142861928Y-90750000D01*
X142861928Y-92650000D01*
X142874188Y-92774482D01*
X142910498Y-92894180D01*
X142969463Y-93004494D01*
X143048815Y-93101185D01*
X143061905Y-93111928D01*
X142550000Y-93111928D01*
X142425518Y-93124188D01*
X142305820Y-93160498D01*
X142195506Y-93219463D01*
X142098815Y-93298815D01*
X142019463Y-93395506D01*
X141960498Y-93505820D01*
X141957342Y-93516225D01*
X141955000Y-93295750D01*
X141796250Y-93137000D01*
X140747000Y-93137000D01*
X140747000Y-93157000D01*
X140493000Y-93157000D01*
X140493000Y-93137000D01*
X139443750Y-93137000D01*
X139285000Y-93295750D01*
X139281928Y-93585000D01*
X139294188Y-93709482D01*
X139330498Y-93829180D01*
X139389463Y-93939494D01*
X139468815Y-94036185D01*
X139548594Y-94101658D01*
X139542038Y-94107038D01*
X139472082Y-94192280D01*
X137673859Y-94192280D01*
X136845000Y-93363422D01*
X136845000Y-92225000D01*
X137965360Y-92225000D01*
X138115072Y-92325034D01*
X138330728Y-92414361D01*
X138559668Y-92459900D01*
X138793092Y-92459900D01*
X139022032Y-92414361D01*
X139237688Y-92325034D01*
X139303028Y-92281375D01*
X139294188Y-92310518D01*
X139281928Y-92435000D01*
X139285000Y-92724250D01*
X139443750Y-92883000D01*
X140493000Y-92883000D01*
X140493000Y-91958750D01*
X140747000Y-91958750D01*
X140747000Y-92883000D01*
X141796250Y-92883000D01*
X141955000Y-92724250D01*
X141958072Y-92435000D01*
X141945812Y-92310518D01*
X141909502Y-92190820D01*
X141850537Y-92080506D01*
X141771185Y-91983815D01*
X141674494Y-91904463D01*
X141564180Y-91845498D01*
X141444482Y-91809188D01*
X141320000Y-91796928D01*
X140905750Y-91800000D01*
X140747000Y-91958750D01*
X140493000Y-91958750D01*
X140334250Y-91800000D01*
X139920000Y-91796928D01*
X139795518Y-91809188D01*
X139729398Y-91829245D01*
X139815841Y-91620552D01*
X139861380Y-91391612D01*
X139861380Y-91158188D01*
X139815841Y-90929248D01*
X139726514Y-90713592D01*
X139596830Y-90519506D01*
X139431774Y-90354450D01*
X139237688Y-90224766D01*
X139022032Y-90135439D01*
X138793092Y-90089900D01*
X138559668Y-90089900D01*
X138330728Y-90135439D01*
X138115072Y-90224766D01*
X137920986Y-90354450D01*
X137820436Y-90455000D01*
X136845000Y-90455000D01*
X136845000Y-89420844D01*
X136880450Y-89385394D01*
X137010134Y-89191308D01*
X137099461Y-88975652D01*
X137145000Y-88746712D01*
X137145000Y-88513288D01*
X137099591Y-88285000D01*
X140083422Y-88285000D01*
X141683470Y-89885049D01*
%TA.AperFunction,Conductor*%
D31*
G36*
X141683470Y-89885049D02*
G01*
X141711183Y-89918817D01*
X141744951Y-89946530D01*
X141744953Y-89946532D01*
X141845941Y-90029411D01*
X141999686Y-90111589D01*
X142128086Y-90150539D01*
X142166510Y-90162195D01*
X142296523Y-90175000D01*
X142296531Y-90175000D01*
X142340000Y-90179281D01*
X142383469Y-90175000D01*
X142811256Y-90175000D01*
X142816018Y-90180802D01*
X142950593Y-90291245D01*
X143008980Y-90322454D01*
X143008980Y-90347354D01*
X142969463Y-90395506D01*
X142910498Y-90505820D01*
X142874188Y-90625518D01*
X142861928Y-90750000D01*
X142861928Y-92650000D01*
X142874188Y-92774482D01*
X142910498Y-92894180D01*
X142969463Y-93004494D01*
X143048815Y-93101185D01*
X143061905Y-93111928D01*
X142550000Y-93111928D01*
X142425518Y-93124188D01*
X142305820Y-93160498D01*
X142195506Y-93219463D01*
X142098815Y-93298815D01*
X142019463Y-93395506D01*
X141960498Y-93505820D01*
X141957342Y-93516225D01*
X141955000Y-93295750D01*
X141796250Y-93137000D01*
X140747000Y-93137000D01*
X140747000Y-93157000D01*
X140493000Y-93157000D01*
X140493000Y-93137000D01*
X139443750Y-93137000D01*
X139285000Y-93295750D01*
X139281928Y-93585000D01*
X139294188Y-93709482D01*
X139330498Y-93829180D01*
X139389463Y-93939494D01*
X139468815Y-94036185D01*
X139548594Y-94101658D01*
X139542038Y-94107038D01*
X139472082Y-94192280D01*
X137673859Y-94192280D01*
X136845000Y-93363422D01*
X136845000Y-92225000D01*
X137965360Y-92225000D01*
X138115072Y-92325034D01*
X138330728Y-92414361D01*
X138559668Y-92459900D01*
X138793092Y-92459900D01*
X139022032Y-92414361D01*
X139237688Y-92325034D01*
X139303028Y-92281375D01*
X139294188Y-92310518D01*
X139281928Y-92435000D01*
X139285000Y-92724250D01*
X139443750Y-92883000D01*
X140493000Y-92883000D01*
X140493000Y-91958750D01*
X140747000Y-91958750D01*
X140747000Y-92883000D01*
X141796250Y-92883000D01*
X141955000Y-92724250D01*
X141958072Y-92435000D01*
X141945812Y-92310518D01*
X141909502Y-92190820D01*
X141850537Y-92080506D01*
X141771185Y-91983815D01*
X141674494Y-91904463D01*
X141564180Y-91845498D01*
X141444482Y-91809188D01*
X141320000Y-91796928D01*
X140905750Y-91800000D01*
X140747000Y-91958750D01*
X140493000Y-91958750D01*
X140334250Y-91800000D01*
X139920000Y-91796928D01*
X139795518Y-91809188D01*
X139729398Y-91829245D01*
X139815841Y-91620552D01*
X139861380Y-91391612D01*
X139861380Y-91158188D01*
X139815841Y-90929248D01*
X139726514Y-90713592D01*
X139596830Y-90519506D01*
X139431774Y-90354450D01*
X139237688Y-90224766D01*
X139022032Y-90135439D01*
X138793092Y-90089900D01*
X138559668Y-90089900D01*
X138330728Y-90135439D01*
X138115072Y-90224766D01*
X137920986Y-90354450D01*
X137820436Y-90455000D01*
X136845000Y-90455000D01*
X136845000Y-89420844D01*
X136880450Y-89385394D01*
X137010134Y-89191308D01*
X137099461Y-88975652D01*
X137145000Y-88746712D01*
X137145000Y-88513288D01*
X137099591Y-88285000D01*
X140083422Y-88285000D01*
X141683470Y-89885049D01*
G37*
%TD.AperFunction*%
D30*
X147593263Y-89827434D02*
X147672615Y-89924125D01*
X147769306Y-90003477D01*
X147879620Y-90062442D01*
X147999318Y-90098752D01*
X148123800Y-90111012D01*
X149683800Y-90111012D01*
X149808282Y-90098752D01*
X149927980Y-90062442D01*
X149941977Y-90054960D01*
X149949528Y-90079851D01*
X150031595Y-90233387D01*
X150142038Y-90367962D01*
X150215001Y-90427841D01*
X150215001Y-90499155D01*
X150179550Y-90534606D01*
X150049866Y-90728692D01*
X149960539Y-90944348D01*
X149915000Y-91173288D01*
X149915000Y-91406712D01*
X149960539Y-91635652D01*
X150049866Y-91851308D01*
X150179550Y-92045394D01*
X150303344Y-92169188D01*
X149251000Y-92169188D01*
X149126518Y-92181448D01*
X149006820Y-92217758D01*
X148896691Y-92276624D01*
X148886722Y-92243760D01*
X148827757Y-92133446D01*
X148748405Y-92036755D01*
X148651714Y-91957403D01*
X148541400Y-91898438D01*
X148421702Y-91862128D01*
X148297220Y-91849868D01*
X147882970Y-91852940D01*
X147724220Y-92011690D01*
X147724220Y-92935940D01*
X147744220Y-92935940D01*
X147744220Y-93189940D01*
X147724220Y-93189940D01*
X147724220Y-93209940D01*
X147470220Y-93209940D01*
X147470220Y-93189940D01*
X146420970Y-93189940D01*
X146262220Y-93348690D01*
X146259148Y-93637940D01*
X146271408Y-93762422D01*
X146307718Y-93882120D01*
X146366683Y-93992434D01*
X146446035Y-94089125D01*
X146525814Y-94154598D01*
X146519258Y-94159978D01*
X146496688Y-94187480D01*
X145888072Y-94187480D01*
X145888072Y-93750000D01*
X145875812Y-93625518D01*
X145839502Y-93505820D01*
X145780537Y-93395506D01*
X145701185Y-93298815D01*
X145604494Y-93219463D01*
X145494180Y-93160498D01*
X145374482Y-93124188D01*
X145250000Y-93111928D01*
X144738095Y-93111928D01*
X144751185Y-93101185D01*
X144830537Y-93004494D01*
X144889502Y-92894180D01*
X144925812Y-92774482D01*
X144938072Y-92650000D01*
X144938072Y-92487940D01*
X146259148Y-92487940D01*
X146262220Y-92777190D01*
X146420970Y-92935940D01*
X147470220Y-92935940D01*
X147470220Y-92011690D01*
X147311470Y-91852940D01*
X146897220Y-91849868D01*
X146772738Y-91862128D01*
X146653040Y-91898438D01*
X146542726Y-91957403D01*
X146446035Y-92036755D01*
X146366683Y-92133446D01*
X146307718Y-92243760D01*
X146271408Y-92363458D01*
X146259148Y-92487940D01*
X144938072Y-92487940D01*
X144938072Y-90750000D01*
X144925812Y-90625518D01*
X144889502Y-90505820D01*
X144830537Y-90395506D01*
X144778980Y-90332683D01*
X144778980Y-90322454D01*
X144837367Y-90291245D01*
X144971942Y-90180802D01*
X145027717Y-90112840D01*
X146098691Y-90112840D01*
X146142160Y-90117121D01*
X146185629Y-90112840D01*
X146185637Y-90112840D01*
X146204197Y-90111012D01*
X146983800Y-90111012D01*
X147108282Y-90098752D01*
X147227980Y-90062442D01*
X147338294Y-90003477D01*
X147434985Y-89924125D01*
X147514337Y-89827434D01*
X147553800Y-89753605D01*
X147593263Y-89827434D01*
%TA.AperFunction,Conductor*%
D31*
G36*
X147593263Y-89827434D02*
G01*
X147672615Y-89924125D01*
X147769306Y-90003477D01*
X147879620Y-90062442D01*
X147999318Y-90098752D01*
X148123800Y-90111012D01*
X149683800Y-90111012D01*
X149808282Y-90098752D01*
X149927980Y-90062442D01*
X149941977Y-90054960D01*
X149949528Y-90079851D01*
X150031595Y-90233387D01*
X150142038Y-90367962D01*
X150215001Y-90427841D01*
X150215001Y-90499155D01*
X150179550Y-90534606D01*
X150049866Y-90728692D01*
X149960539Y-90944348D01*
X149915000Y-91173288D01*
X149915000Y-91406712D01*
X149960539Y-91635652D01*
X150049866Y-91851308D01*
X150179550Y-92045394D01*
X150303344Y-92169188D01*
X149251000Y-92169188D01*
X149126518Y-92181448D01*
X149006820Y-92217758D01*
X148896691Y-92276624D01*
X148886722Y-92243760D01*
X148827757Y-92133446D01*
X148748405Y-92036755D01*
X148651714Y-91957403D01*
X148541400Y-91898438D01*
X148421702Y-91862128D01*
X148297220Y-91849868D01*
X147882970Y-91852940D01*
X147724220Y-92011690D01*
X147724220Y-92935940D01*
X147744220Y-92935940D01*
X147744220Y-93189940D01*
X147724220Y-93189940D01*
X147724220Y-93209940D01*
X147470220Y-93209940D01*
X147470220Y-93189940D01*
X146420970Y-93189940D01*
X146262220Y-93348690D01*
X146259148Y-93637940D01*
X146271408Y-93762422D01*
X146307718Y-93882120D01*
X146366683Y-93992434D01*
X146446035Y-94089125D01*
X146525814Y-94154598D01*
X146519258Y-94159978D01*
X146496688Y-94187480D01*
X145888072Y-94187480D01*
X145888072Y-93750000D01*
X145875812Y-93625518D01*
X145839502Y-93505820D01*
X145780537Y-93395506D01*
X145701185Y-93298815D01*
X145604494Y-93219463D01*
X145494180Y-93160498D01*
X145374482Y-93124188D01*
X145250000Y-93111928D01*
X144738095Y-93111928D01*
X144751185Y-93101185D01*
X144830537Y-93004494D01*
X144889502Y-92894180D01*
X144925812Y-92774482D01*
X144938072Y-92650000D01*
X144938072Y-92487940D01*
X146259148Y-92487940D01*
X146262220Y-92777190D01*
X146420970Y-92935940D01*
X147470220Y-92935940D01*
X147470220Y-92011690D01*
X147311470Y-91852940D01*
X146897220Y-91849868D01*
X146772738Y-91862128D01*
X146653040Y-91898438D01*
X146542726Y-91957403D01*
X146446035Y-92036755D01*
X146366683Y-92133446D01*
X146307718Y-92243760D01*
X146271408Y-92363458D01*
X146259148Y-92487940D01*
X144938072Y-92487940D01*
X144938072Y-90750000D01*
X144925812Y-90625518D01*
X144889502Y-90505820D01*
X144830537Y-90395506D01*
X144778980Y-90332683D01*
X144778980Y-90322454D01*
X144837367Y-90291245D01*
X144971942Y-90180802D01*
X145027717Y-90112840D01*
X146098691Y-90112840D01*
X146142160Y-90117121D01*
X146185629Y-90112840D01*
X146185637Y-90112840D01*
X146204197Y-90111012D01*
X146983800Y-90111012D01*
X147108282Y-90098752D01*
X147227980Y-90062442D01*
X147338294Y-90003477D01*
X147434985Y-89924125D01*
X147514337Y-89827434D01*
X147553800Y-89753605D01*
X147593263Y-89827434D01*
G37*
%TD.AperFunction*%
D30*
X147672615Y-88024125D02*
X147769306Y-88103477D01*
X147879620Y-88162442D01*
X147996641Y-88197940D01*
X147879620Y-88233438D01*
X147769306Y-88292403D01*
X147672615Y-88371755D01*
X147597903Y-88462793D01*
X147460050Y-88324940D01*
X147377941Y-88324940D01*
X147338294Y-88292403D01*
X147227980Y-88233438D01*
X147110959Y-88197940D01*
X147227980Y-88162442D01*
X147338294Y-88103477D01*
X147377941Y-88070940D01*
X147460050Y-88070940D01*
X147597903Y-87933087D01*
X147672615Y-88024125D01*
%TA.AperFunction,Conductor*%
D31*
G36*
X147672615Y-88024125D02*
G01*
X147769306Y-88103477D01*
X147879620Y-88162442D01*
X147996641Y-88197940D01*
X147879620Y-88233438D01*
X147769306Y-88292403D01*
X147672615Y-88371755D01*
X147597903Y-88462793D01*
X147460050Y-88324940D01*
X147377941Y-88324940D01*
X147338294Y-88292403D01*
X147227980Y-88233438D01*
X147110959Y-88197940D01*
X147227980Y-88162442D01*
X147338294Y-88103477D01*
X147377941Y-88070940D01*
X147460050Y-88070940D01*
X147597903Y-87933087D01*
X147672615Y-88024125D01*
G37*
%TD.AperFunction*%
%TD*%
M02*
