M48
; DRILL file {KiCad (5.1.10)-1} date 07/02/21 09:23:46
; FORMAT={-:-/ absolute / inch / decimal}
; #@! TF.CreationDate,2021-07-02T09:23:46+02:00
; #@! TF.GenerationSoftware,Kicad,Pcbnew,(5.1.10)-1
; #@! TF.FileFunction,Plated,1,2,PTH
FMAT,2
INCH
T1C0.0157
T2C0.0217
T3C0.0276
T4C0.0295
T5C0.0335
T6C0.0394
T7C0.1181
%
G90
G05
T1
X5.4599Y-3.6618
X5.5949Y-4.6902
X5.6323Y-4.5287
X5.9608Y-3.7958
X6.0602Y-4.7772
X6.0932Y-3.7949
X6.3954Y-4.1378
X6.4988Y-4.7252
X6.4992Y-4.8756
X6.4996Y-4.6046
X6.5Y-4.4516
T3
X5.3528Y-3.4894
X5.3531Y-3.327
X5.4597Y-3.5935
X5.9488Y-3.5941
T4
X5.0433Y-3.3634
X5.122Y-3.3634
T6
X5.0012Y-4.0047
X5.1012Y-4.0047
X5.2012Y-4.0047
X5.2302Y-3.0334
X5.3012Y-4.0047
X5.3126Y-4.339
X5.3126Y-4.439
X5.3126Y-4.539
X5.3126Y-4.639
X5.3126Y-4.739
X5.3126Y-4.839
X5.3302Y-3.0334
X5.4012Y-4.0047
X5.5012Y-4.0047
X5.6012Y-4.0047
X5.7012Y-4.0047
X5.7622Y-3.1084
X5.8622Y-3.1084
X5.961Y-4.005
X5.9622Y-3.1084
X6.061Y-4.005
X6.161Y-4.005
X6.261Y-4.005
X6.361Y-4.005
X6.461Y-4.005
X6.561Y-4.005
T7
X5.0271Y-4.8486
X5.0291Y-2.9676
X6.6922Y-2.9693
X6.6927Y-4.8483
T2
G00X5.0041Y-3.4959
M15
G01X4.9785Y-3.4959
M16
G05
G00X5.0041Y-3.801
M15
G01X4.9785Y-3.801
M16
G05
T5
G00X5.1518Y-3.5018
M15
G01X5.1301Y-3.5018
M16
G05
G00X5.1518Y-3.7951
M15
G01X5.1301Y-3.7951
M16
G05
T0
M30
