%TF.GenerationSoftware,KiCad,Pcbnew,(5.1.9)-1*%
%TF.CreationDate,2021-04-07T14:29:20+02:00*%
%TF.ProjectId,clip,636c6970-2e6b-4696-9361-645f70636258,rev?*%
%TF.SameCoordinates,Original*%
%TF.FileFunction,Legend,Top*%
%TF.FilePolarity,Positive*%
%FSLAX46Y46*%
G04 Gerber Fmt 4.6, Leading zero omitted, Abs format (unit mm)*
G04 Created by KiCad (PCBNEW (5.1.9)-1) date 2021-04-07 14:29:20*
%MOMM*%
%LPD*%
G01*
G04 APERTURE LIST*
%ADD10C,0.120000*%
%ADD11C,0.150000*%
%ADD12C,0.100000*%
%ADD13O,1.700000X1.700000*%
%ADD14R,1.700000X1.700000*%
%ADD15O,0.800000X0.800000*%
%ADD16O,1.800000X1.150000*%
%ADD17O,2.000000X1.450000*%
%ADD18R,1.300000X0.450000*%
%ADD19O,1.200000X1.750000*%
%ADD20R,2.000000X0.900000*%
%ADD21R,0.900000X2.000000*%
%ADD22R,5.000000X5.000000*%
%ADD23R,1.200000X0.400000*%
%ADD24R,1.560000X0.650000*%
%ADD25C,0.800000*%
%ADD26R,1.700000X0.900000*%
%ADD27R,0.800000X0.900000*%
%ADD28R,1.900000X0.800000*%
%ADD29R,1.000000X1.000000*%
G04 APERTURE END LIST*
D10*
%TO.C,JP1*%
X157175000Y-60490000D02*
X157175000Y-62490000D01*
X154375000Y-60490000D02*
X157175000Y-60490000D01*
X154375000Y-62490000D02*
X154375000Y-60490000D01*
X157175000Y-62490000D02*
X154375000Y-62490000D01*
%TO.C,J5*%
X144980000Y-62780000D02*
X144980000Y-61510000D01*
X146250000Y-62780000D02*
X144980000Y-62780000D01*
X151710000Y-60467071D02*
X151710000Y-60070000D01*
X150950000Y-60467071D02*
X150950000Y-60070000D01*
X151710000Y-51410000D02*
X151710000Y-57410000D01*
X150950000Y-51410000D02*
X151710000Y-51410000D01*
X150950000Y-57410000D02*
X150950000Y-51410000D01*
X150060000Y-60070000D02*
X150060000Y-57410000D01*
X149170000Y-60467071D02*
X149170000Y-60070000D01*
X148410000Y-60467071D02*
X148410000Y-60070000D01*
X149170000Y-51410000D02*
X149170000Y-57410000D01*
X148410000Y-51410000D02*
X149170000Y-51410000D01*
X148410000Y-57410000D02*
X148410000Y-51410000D01*
X147520000Y-60070000D02*
X147520000Y-57410000D01*
X146630000Y-60400000D02*
X146630000Y-60070000D01*
X145870000Y-60400000D02*
X145870000Y-60070000D01*
X146530000Y-57410000D02*
X146530000Y-51410000D01*
X146410000Y-57410000D02*
X146410000Y-51410000D01*
X146290000Y-57410000D02*
X146290000Y-51410000D01*
X146170000Y-57410000D02*
X146170000Y-51410000D01*
X146050000Y-57410000D02*
X146050000Y-51410000D01*
X145930000Y-57410000D02*
X145930000Y-51410000D01*
X146630000Y-51410000D02*
X146630000Y-57410000D01*
X145870000Y-51410000D02*
X146630000Y-51410000D01*
X145870000Y-57410000D02*
X145870000Y-51410000D01*
X144920000Y-57410000D02*
X144920000Y-60070000D01*
X152660000Y-57410000D02*
X144920000Y-57410000D01*
X152660000Y-60070000D02*
X152660000Y-57410000D01*
X144920000Y-60070000D02*
X152660000Y-60070000D01*
%TO.C,D5*%
X143280000Y-104710000D02*
X146140000Y-104710000D01*
X146140000Y-104710000D02*
X146140000Y-102790000D01*
X146140000Y-102790000D02*
X143280000Y-102790000D01*
D11*
%TO.C,J2*%
X130670000Y-86830000D02*
X130670000Y-87830000D01*
X130670000Y-83230000D02*
X130670000Y-82230000D01*
X131095000Y-83230000D02*
X130670000Y-83230000D01*
X131095000Y-83955000D02*
X131095000Y-83230000D01*
X127520000Y-89180000D02*
X128920000Y-89180000D01*
X124970000Y-89180000D02*
X125120000Y-89180000D01*
X124970000Y-88880000D02*
X124970000Y-89180000D01*
X124520000Y-88880000D02*
X124970000Y-88880000D01*
X124970000Y-81180000D02*
X124520000Y-81180000D01*
X124970000Y-80880000D02*
X124970000Y-81180000D01*
X125120000Y-80880000D02*
X124970000Y-80880000D01*
X128920000Y-80880000D02*
X127520000Y-80880000D01*
D10*
%TO.C,J1*%
X128660000Y-72230000D02*
X128940000Y-72230000D01*
X128940000Y-72230000D02*
X128940000Y-73830000D01*
X128940000Y-73830000D02*
X129860000Y-73830000D01*
X129860000Y-73830000D02*
X129860000Y-66010000D01*
X129860000Y-66010000D02*
X123740000Y-66010000D01*
X123740000Y-66010000D02*
X123740000Y-73830000D01*
X123740000Y-73830000D02*
X124660000Y-73830000D01*
X124660000Y-73830000D02*
X124660000Y-72230000D01*
X124660000Y-72230000D02*
X124940000Y-72230000D01*
X127300000Y-66010000D02*
X127300000Y-70370000D01*
X127300000Y-70370000D02*
X126300000Y-70370000D01*
X126300000Y-70370000D02*
X126300000Y-66010000D01*
X129860000Y-72230000D02*
X128940000Y-72230000D01*
X123740000Y-72230000D02*
X124660000Y-72230000D01*
X129100000Y-69870000D02*
X129100000Y-68270000D01*
X129100000Y-68270000D02*
X128100000Y-68270000D01*
X128100000Y-68270000D02*
X128100000Y-69870000D01*
X128100000Y-69870000D02*
X129100000Y-69870000D01*
X124500000Y-69870000D02*
X124500000Y-68270000D01*
X124500000Y-68270000D02*
X125500000Y-68270000D01*
X125500000Y-68270000D02*
X125500000Y-69870000D01*
X125500000Y-69870000D02*
X124500000Y-69870000D01*
X128100000Y-68270000D02*
X128100000Y-66010000D01*
X128600000Y-68270000D02*
X128600000Y-66010000D01*
X128660000Y-72230000D02*
X128660000Y-73445000D01*
%TO.C,U4*%
X157950000Y-106500000D02*
X157950000Y-105720000D01*
X157950000Y-105720000D02*
X156950000Y-105720000D01*
X139710000Y-106500000D02*
X139710000Y-105720000D01*
X139710000Y-105720000D02*
X140710000Y-105720000D01*
X157950000Y-131465000D02*
X139710000Y-131465000D01*
X139710000Y-131465000D02*
X139710000Y-125045000D01*
X157950000Y-131465000D02*
X157950000Y-125045000D01*
X157950000Y-125045000D02*
X158330000Y-125045000D01*
%TO.C,R13*%
X158010000Y-84941252D02*
X158010000Y-84418748D01*
X159430000Y-84941252D02*
X159430000Y-84418748D01*
%TO.C,C6*%
X135320000Y-87008748D02*
X135320000Y-87531252D01*
X133900000Y-87008748D02*
X133900000Y-87531252D01*
D11*
%TO.C,U3*%
X150575000Y-89119000D02*
X150575000Y-90229000D01*
X146425000Y-90229000D02*
X146425000Y-89119000D01*
X146425000Y-81279000D02*
X146425000Y-82389000D01*
X150575000Y-81279000D02*
X150575000Y-82389000D01*
X150575000Y-90229000D02*
X146425000Y-90229000D01*
X150575000Y-81279000D02*
X146425000Y-81279000D01*
X150575000Y-89119000D02*
X151700000Y-89119000D01*
D10*
%TO.C,U2*%
X153888000Y-74877000D02*
X156338000Y-74877000D01*
X155688000Y-71657000D02*
X153888000Y-71657000D01*
%TO.C,U1*%
X138820000Y-67480000D02*
X140620000Y-67480000D01*
X140620000Y-64260000D02*
X138170000Y-64260000D01*
%TO.C,SW2*%
X165250000Y-107270000D02*
X164950000Y-107270000D01*
X164950000Y-107270000D02*
X164950000Y-110570000D01*
X164950000Y-110570000D02*
X165250000Y-110570000D01*
X167450000Y-107270000D02*
X167750000Y-107270000D01*
X167750000Y-107270000D02*
X167750000Y-110570000D01*
X167750000Y-110570000D02*
X167450000Y-110570000D01*
%TO.C,SW1*%
X132430000Y-110565000D02*
X132730000Y-110565000D01*
X132730000Y-110565000D02*
X132730000Y-107265000D01*
X132730000Y-107265000D02*
X132430000Y-107265000D01*
X130230000Y-110565000D02*
X129930000Y-110565000D01*
X129930000Y-110565000D02*
X129930000Y-107265000D01*
X129930000Y-107265000D02*
X130230000Y-107265000D01*
%TO.C,R12*%
X161510000Y-84941252D02*
X161510000Y-84418748D01*
X162930000Y-84941252D02*
X162930000Y-84418748D01*
%TO.C,R11*%
X135230000Y-108063748D02*
X135230000Y-108586252D01*
X133810000Y-108063748D02*
X133810000Y-108586252D01*
%TO.C,R10*%
X164591252Y-113070000D02*
X164068748Y-113070000D01*
X164591252Y-111650000D02*
X164068748Y-111650000D01*
%TO.C,R9*%
X153263748Y-103030000D02*
X153786252Y-103030000D01*
X153263748Y-104450000D02*
X153786252Y-104450000D01*
%TO.C,R8*%
X160226252Y-62200000D02*
X159703748Y-62200000D01*
X160226252Y-60780000D02*
X159703748Y-60780000D01*
%TO.C,R7*%
X137650000Y-86938748D02*
X137650000Y-87461252D01*
X136230000Y-86938748D02*
X136230000Y-87461252D01*
%TO.C,R6*%
X145988748Y-64220000D02*
X146511252Y-64220000D01*
X145988748Y-65640000D02*
X146511252Y-65640000D01*
%TO.C,R5*%
X158910000Y-72878748D02*
X158910000Y-73401252D01*
X160330000Y-72878748D02*
X160330000Y-73401252D01*
%TO.C,R4*%
X136250000Y-83401252D02*
X136250000Y-82878748D01*
X137670000Y-83401252D02*
X137670000Y-82878748D01*
%TO.C,R2*%
X140078748Y-76070000D02*
X140601252Y-76070000D01*
X140078748Y-77490000D02*
X140601252Y-77490000D01*
%TO.C,R1*%
X150408748Y-69240000D02*
X150931252Y-69240000D01*
X150408748Y-70660000D02*
X150931252Y-70660000D01*
%TO.C,Q3*%
X158802000Y-89290000D02*
X159732000Y-89290000D01*
X161962000Y-89290000D02*
X161032000Y-89290000D01*
X161962000Y-89290000D02*
X161962000Y-87130000D01*
X158802000Y-89290000D02*
X158802000Y-87830000D01*
%TO.C,Q2*%
X162050000Y-79920000D02*
X161120000Y-79920000D01*
X158890000Y-79920000D02*
X159820000Y-79920000D01*
X158890000Y-79920000D02*
X158890000Y-82080000D01*
X162050000Y-79920000D02*
X162050000Y-81380000D01*
%TO.C,Q1*%
X139120000Y-71750000D02*
X139120000Y-72680000D01*
X139120000Y-74910000D02*
X139120000Y-73980000D01*
X139120000Y-74910000D02*
X142280000Y-74910000D01*
X139120000Y-71750000D02*
X140580000Y-71750000D01*
%TO.C,J4*%
X169550000Y-99500000D02*
X169550000Y-96840000D01*
X151710000Y-99500000D02*
X169550000Y-99500000D01*
X151710000Y-96840000D02*
X169550000Y-96840000D01*
X151710000Y-99500000D02*
X151710000Y-96840000D01*
X150440000Y-99500000D02*
X149110000Y-99500000D01*
X149110000Y-99500000D02*
X149110000Y-98170000D01*
%TO.C,J3*%
X145530000Y-99430000D02*
X145530000Y-96770000D01*
X130230000Y-99430000D02*
X145530000Y-99430000D01*
X130230000Y-96770000D02*
X145530000Y-96770000D01*
X130230000Y-99430000D02*
X130230000Y-96770000D01*
X128960000Y-99430000D02*
X127630000Y-99430000D01*
X127630000Y-99430000D02*
X127630000Y-98100000D01*
%TO.C,D3*%
X156900000Y-55600000D02*
X159760000Y-55600000D01*
X159760000Y-55600000D02*
X159760000Y-53680000D01*
X159760000Y-53680000D02*
X156900000Y-53680000D01*
%TO.C,D2*%
X148360000Y-75180000D02*
X148360000Y-73480000D01*
X148360000Y-73480000D02*
X145210000Y-73480000D01*
X148360000Y-75180000D02*
X145210000Y-75180000D01*
%TO.C,D1*%
X149630000Y-66020000D02*
X152490000Y-66020000D01*
X152490000Y-66020000D02*
X152490000Y-64100000D01*
X152490000Y-64100000D02*
X149630000Y-64100000D01*
%TO.C,C12*%
X162580000Y-108701252D02*
X162580000Y-108178748D01*
X164000000Y-108701252D02*
X164000000Y-108178748D01*
%TO.C,C11*%
X160890000Y-122538748D02*
X160890000Y-123061252D01*
X159470000Y-122538748D02*
X159470000Y-123061252D01*
%TO.C,C10*%
X163100000Y-122528748D02*
X163100000Y-123051252D01*
X161680000Y-122528748D02*
X161680000Y-123051252D01*
%TO.C,C9*%
X141830000Y-85443748D02*
X141830000Y-85966252D01*
X140410000Y-85443748D02*
X140410000Y-85966252D01*
%TO.C,C8*%
X144030000Y-85473748D02*
X144030000Y-85996252D01*
X142610000Y-85473748D02*
X142610000Y-85996252D01*
%TO.C,C7*%
X152800000Y-86226252D02*
X152800000Y-85703748D01*
X154220000Y-86226252D02*
X154220000Y-85703748D01*
%TO.C,C5*%
X133940000Y-83391252D02*
X133940000Y-82868748D01*
X135360000Y-83391252D02*
X135360000Y-82868748D01*
%TO.C,C4*%
X158910000Y-76588748D02*
X158910000Y-77111252D01*
X160330000Y-76588748D02*
X160330000Y-77111252D01*
%TO.C,C3*%
X151400000Y-73591252D02*
X151400000Y-73068748D01*
X149980000Y-73591252D02*
X149980000Y-73068748D01*
%TO.C,C2*%
X145988748Y-66320000D02*
X146511252Y-66320000D01*
X145988748Y-67740000D02*
X146511252Y-67740000D01*
%TO.C,C1*%
X135320000Y-75558748D02*
X135320000Y-76081252D01*
X133900000Y-75558748D02*
X133900000Y-76081252D01*
%TO.C,JP1*%
D11*
X154976666Y-58762380D02*
X154976666Y-59476666D01*
X154929047Y-59619523D01*
X154833809Y-59714761D01*
X154690952Y-59762380D01*
X154595714Y-59762380D01*
X155452857Y-59762380D02*
X155452857Y-58762380D01*
X155833809Y-58762380D01*
X155929047Y-58810000D01*
X155976666Y-58857619D01*
X156024285Y-58952857D01*
X156024285Y-59095714D01*
X155976666Y-59190952D01*
X155929047Y-59238571D01*
X155833809Y-59286190D01*
X155452857Y-59286190D01*
X156976666Y-59762380D02*
X156405238Y-59762380D01*
X156690952Y-59762380D02*
X156690952Y-58762380D01*
X156595714Y-58905238D01*
X156500476Y-59000476D01*
X156405238Y-59048095D01*
%TO.C,J5*%
X143236666Y-56192380D02*
X143236666Y-56906666D01*
X143189047Y-57049523D01*
X143093809Y-57144761D01*
X142950952Y-57192380D01*
X142855714Y-57192380D01*
X144189047Y-56192380D02*
X143712857Y-56192380D01*
X143665238Y-56668571D01*
X143712857Y-56620952D01*
X143808095Y-56573333D01*
X144046190Y-56573333D01*
X144141428Y-56620952D01*
X144189047Y-56668571D01*
X144236666Y-56763809D01*
X144236666Y-57001904D01*
X144189047Y-57097142D01*
X144141428Y-57144761D01*
X144046190Y-57192380D01*
X143808095Y-57192380D01*
X143712857Y-57144761D01*
X143665238Y-57097142D01*
%TO.C,D5*%
X143681904Y-102472380D02*
X143681904Y-101472380D01*
X143920000Y-101472380D01*
X144062857Y-101520000D01*
X144158095Y-101615238D01*
X144205714Y-101710476D01*
X144253333Y-101900952D01*
X144253333Y-102043809D01*
X144205714Y-102234285D01*
X144158095Y-102329523D01*
X144062857Y-102424761D01*
X143920000Y-102472380D01*
X143681904Y-102472380D01*
X145158095Y-101472380D02*
X144681904Y-101472380D01*
X144634285Y-101948571D01*
X144681904Y-101900952D01*
X144777142Y-101853333D01*
X145015238Y-101853333D01*
X145110476Y-101900952D01*
X145158095Y-101948571D01*
X145205714Y-102043809D01*
X145205714Y-102281904D01*
X145158095Y-102377142D01*
X145110476Y-102424761D01*
X145015238Y-102472380D01*
X144777142Y-102472380D01*
X144681904Y-102424761D01*
X144634285Y-102377142D01*
%TO.C,J2*%
X127886666Y-78612380D02*
X127886666Y-79326666D01*
X127839047Y-79469523D01*
X127743809Y-79564761D01*
X127600952Y-79612380D01*
X127505714Y-79612380D01*
X128315238Y-78707619D02*
X128362857Y-78660000D01*
X128458095Y-78612380D01*
X128696190Y-78612380D01*
X128791428Y-78660000D01*
X128839047Y-78707619D01*
X128886666Y-78802857D01*
X128886666Y-78898095D01*
X128839047Y-79040952D01*
X128267619Y-79612380D01*
X128886666Y-79612380D01*
%TO.C,J1*%
X130876666Y-65812380D02*
X130876666Y-66526666D01*
X130829047Y-66669523D01*
X130733809Y-66764761D01*
X130590952Y-66812380D01*
X130495714Y-66812380D01*
X131876666Y-66812380D02*
X131305238Y-66812380D01*
X131590952Y-66812380D02*
X131590952Y-65812380D01*
X131495714Y-65955238D01*
X131400476Y-66050476D01*
X131305238Y-66098095D01*
%TO.C,U4*%
X157488095Y-103912380D02*
X157488095Y-104721904D01*
X157535714Y-104817142D01*
X157583333Y-104864761D01*
X157678571Y-104912380D01*
X157869047Y-104912380D01*
X157964285Y-104864761D01*
X158011904Y-104817142D01*
X158059523Y-104721904D01*
X158059523Y-103912380D01*
X158964285Y-104245714D02*
X158964285Y-104912380D01*
X158726190Y-103864761D02*
X158488095Y-104579047D01*
X159107142Y-104579047D01*
%TO.C,R13*%
X156193302Y-82835940D02*
X155859969Y-82359750D01*
X155621874Y-82835940D02*
X155621874Y-81835940D01*
X156002826Y-81835940D01*
X156098064Y-81883560D01*
X156145683Y-81931179D01*
X156193302Y-82026417D01*
X156193302Y-82169274D01*
X156145683Y-82264512D01*
X156098064Y-82312131D01*
X156002826Y-82359750D01*
X155621874Y-82359750D01*
X157145683Y-82835940D02*
X156574255Y-82835940D01*
X156859969Y-82835940D02*
X156859969Y-81835940D01*
X156764731Y-81978798D01*
X156669493Y-82074036D01*
X156574255Y-82121655D01*
X157479017Y-81835940D02*
X158098064Y-81835940D01*
X157764731Y-82216893D01*
X157907588Y-82216893D01*
X158002826Y-82264512D01*
X158050445Y-82312131D01*
X158098064Y-82407369D01*
X158098064Y-82645464D01*
X158050445Y-82740702D01*
X158002826Y-82788321D01*
X157907588Y-82835940D01*
X157621874Y-82835940D01*
X157526636Y-82788321D01*
X157479017Y-82740702D01*
%TO.C,C6*%
X134363333Y-90307142D02*
X134315714Y-90354761D01*
X134172857Y-90402380D01*
X134077619Y-90402380D01*
X133934761Y-90354761D01*
X133839523Y-90259523D01*
X133791904Y-90164285D01*
X133744285Y-89973809D01*
X133744285Y-89830952D01*
X133791904Y-89640476D01*
X133839523Y-89545238D01*
X133934761Y-89450000D01*
X134077619Y-89402380D01*
X134172857Y-89402380D01*
X134315714Y-89450000D01*
X134363333Y-89497619D01*
X135220476Y-89402380D02*
X135030000Y-89402380D01*
X134934761Y-89450000D01*
X134887142Y-89497619D01*
X134791904Y-89640476D01*
X134744285Y-89830952D01*
X134744285Y-90211904D01*
X134791904Y-90307142D01*
X134839523Y-90354761D01*
X134934761Y-90402380D01*
X135125238Y-90402380D01*
X135220476Y-90354761D01*
X135268095Y-90307142D01*
X135315714Y-90211904D01*
X135315714Y-89973809D01*
X135268095Y-89878571D01*
X135220476Y-89830952D01*
X135125238Y-89783333D01*
X134934761Y-89783333D01*
X134839523Y-89830952D01*
X134791904Y-89878571D01*
X134744285Y-89973809D01*
%TO.C,U3*%
X151328095Y-81242380D02*
X151328095Y-82051904D01*
X151375714Y-82147142D01*
X151423333Y-82194761D01*
X151518571Y-82242380D01*
X151709047Y-82242380D01*
X151804285Y-82194761D01*
X151851904Y-82147142D01*
X151899523Y-82051904D01*
X151899523Y-81242380D01*
X152280476Y-81242380D02*
X152899523Y-81242380D01*
X152566190Y-81623333D01*
X152709047Y-81623333D01*
X152804285Y-81670952D01*
X152851904Y-81718571D01*
X152899523Y-81813809D01*
X152899523Y-82051904D01*
X152851904Y-82147142D01*
X152804285Y-82194761D01*
X152709047Y-82242380D01*
X152423333Y-82242380D01*
X152328095Y-82194761D01*
X152280476Y-82147142D01*
%TO.C,U2*%
X154068095Y-69892380D02*
X154068095Y-70701904D01*
X154115714Y-70797142D01*
X154163333Y-70844761D01*
X154258571Y-70892380D01*
X154449047Y-70892380D01*
X154544285Y-70844761D01*
X154591904Y-70797142D01*
X154639523Y-70701904D01*
X154639523Y-69892380D01*
X155068095Y-69987619D02*
X155115714Y-69940000D01*
X155210952Y-69892380D01*
X155449047Y-69892380D01*
X155544285Y-69940000D01*
X155591904Y-69987619D01*
X155639523Y-70082857D01*
X155639523Y-70178095D01*
X155591904Y-70320952D01*
X155020476Y-70892380D01*
X155639523Y-70892380D01*
%TO.C,U1*%
X139058095Y-68072380D02*
X139058095Y-68881904D01*
X139105714Y-68977142D01*
X139153333Y-69024761D01*
X139248571Y-69072380D01*
X139439047Y-69072380D01*
X139534285Y-69024761D01*
X139581904Y-68977142D01*
X139629523Y-68881904D01*
X139629523Y-68072380D01*
X140629523Y-69072380D02*
X140058095Y-69072380D01*
X140343809Y-69072380D02*
X140343809Y-68072380D01*
X140248571Y-68215238D01*
X140153333Y-68310476D01*
X140058095Y-68358095D01*
%TO.C,SW2*%
X165051466Y-106051761D02*
X165194323Y-106099380D01*
X165432419Y-106099380D01*
X165527657Y-106051761D01*
X165575276Y-106004142D01*
X165622895Y-105908904D01*
X165622895Y-105813666D01*
X165575276Y-105718428D01*
X165527657Y-105670809D01*
X165432419Y-105623190D01*
X165241942Y-105575571D01*
X165146704Y-105527952D01*
X165099085Y-105480333D01*
X165051466Y-105385095D01*
X165051466Y-105289857D01*
X165099085Y-105194619D01*
X165146704Y-105147000D01*
X165241942Y-105099380D01*
X165480038Y-105099380D01*
X165622895Y-105147000D01*
X165956228Y-105099380D02*
X166194323Y-106099380D01*
X166384800Y-105385095D01*
X166575276Y-106099380D01*
X166813371Y-105099380D01*
X167146704Y-105194619D02*
X167194323Y-105147000D01*
X167289561Y-105099380D01*
X167527657Y-105099380D01*
X167622895Y-105147000D01*
X167670514Y-105194619D01*
X167718133Y-105289857D01*
X167718133Y-105385095D01*
X167670514Y-105527952D01*
X167099085Y-106099380D01*
X167718133Y-106099380D01*
%TO.C,SW1*%
X130127266Y-106007601D02*
X130270123Y-106055220D01*
X130508219Y-106055220D01*
X130603457Y-106007601D01*
X130651076Y-105959982D01*
X130698695Y-105864744D01*
X130698695Y-105769506D01*
X130651076Y-105674268D01*
X130603457Y-105626649D01*
X130508219Y-105579030D01*
X130317742Y-105531411D01*
X130222504Y-105483792D01*
X130174885Y-105436173D01*
X130127266Y-105340935D01*
X130127266Y-105245697D01*
X130174885Y-105150459D01*
X130222504Y-105102840D01*
X130317742Y-105055220D01*
X130555838Y-105055220D01*
X130698695Y-105102840D01*
X131032028Y-105055220D02*
X131270123Y-106055220D01*
X131460600Y-105340935D01*
X131651076Y-106055220D01*
X131889171Y-105055220D01*
X132793933Y-106055220D02*
X132222504Y-106055220D01*
X132508219Y-106055220D02*
X132508219Y-105055220D01*
X132412980Y-105198078D01*
X132317742Y-105293316D01*
X132222504Y-105340935D01*
%TO.C,R12*%
X163630422Y-82886740D02*
X163297089Y-82410550D01*
X163058994Y-82886740D02*
X163058994Y-81886740D01*
X163439946Y-81886740D01*
X163535184Y-81934360D01*
X163582803Y-81981979D01*
X163630422Y-82077217D01*
X163630422Y-82220074D01*
X163582803Y-82315312D01*
X163535184Y-82362931D01*
X163439946Y-82410550D01*
X163058994Y-82410550D01*
X164582803Y-82886740D02*
X164011375Y-82886740D01*
X164297089Y-82886740D02*
X164297089Y-81886740D01*
X164201851Y-82029598D01*
X164106613Y-82124836D01*
X164011375Y-82172455D01*
X164963756Y-81981979D02*
X165011375Y-81934360D01*
X165106613Y-81886740D01*
X165344708Y-81886740D01*
X165439946Y-81934360D01*
X165487565Y-81981979D01*
X165535184Y-82077217D01*
X165535184Y-82172455D01*
X165487565Y-82315312D01*
X164916137Y-82886740D01*
X165535184Y-82886740D01*
%TO.C,R11*%
X136547142Y-108842380D02*
X136213809Y-108366190D01*
X135975714Y-108842380D02*
X135975714Y-107842380D01*
X136356666Y-107842380D01*
X136451904Y-107890000D01*
X136499523Y-107937619D01*
X136547142Y-108032857D01*
X136547142Y-108175714D01*
X136499523Y-108270952D01*
X136451904Y-108318571D01*
X136356666Y-108366190D01*
X135975714Y-108366190D01*
X137499523Y-108842380D02*
X136928095Y-108842380D01*
X137213809Y-108842380D02*
X137213809Y-107842380D01*
X137118571Y-107985238D01*
X137023333Y-108080476D01*
X136928095Y-108128095D01*
X138451904Y-108842380D02*
X137880476Y-108842380D01*
X138166190Y-108842380D02*
X138166190Y-107842380D01*
X138070952Y-107985238D01*
X137975714Y-108080476D01*
X137880476Y-108128095D01*
%TO.C,R10*%
X167077142Y-112812380D02*
X166743809Y-112336190D01*
X166505714Y-112812380D02*
X166505714Y-111812380D01*
X166886666Y-111812380D01*
X166981904Y-111860000D01*
X167029523Y-111907619D01*
X167077142Y-112002857D01*
X167077142Y-112145714D01*
X167029523Y-112240952D01*
X166981904Y-112288571D01*
X166886666Y-112336190D01*
X166505714Y-112336190D01*
X168029523Y-112812380D02*
X167458095Y-112812380D01*
X167743809Y-112812380D02*
X167743809Y-111812380D01*
X167648571Y-111955238D01*
X167553333Y-112050476D01*
X167458095Y-112098095D01*
X168648571Y-111812380D02*
X168743809Y-111812380D01*
X168839047Y-111860000D01*
X168886666Y-111907619D01*
X168934285Y-112002857D01*
X168981904Y-112193333D01*
X168981904Y-112431428D01*
X168934285Y-112621904D01*
X168886666Y-112717142D01*
X168839047Y-112764761D01*
X168743809Y-112812380D01*
X168648571Y-112812380D01*
X168553333Y-112764761D01*
X168505714Y-112717142D01*
X168458095Y-112621904D01*
X168410476Y-112431428D01*
X168410476Y-112193333D01*
X168458095Y-112002857D01*
X168505714Y-111907619D01*
X168553333Y-111860000D01*
X168648571Y-111812380D01*
%TO.C,R9*%
X153408093Y-102378700D02*
X153074760Y-101902510D01*
X152836664Y-102378700D02*
X152836664Y-101378700D01*
X153217617Y-101378700D01*
X153312855Y-101426320D01*
X153360474Y-101473939D01*
X153408093Y-101569177D01*
X153408093Y-101712034D01*
X153360474Y-101807272D01*
X153312855Y-101854891D01*
X153217617Y-101902510D01*
X152836664Y-101902510D01*
X153884283Y-102378700D02*
X154074760Y-102378700D01*
X154169998Y-102331081D01*
X154217617Y-102283462D01*
X154312855Y-102140605D01*
X154360474Y-101950129D01*
X154360474Y-101569177D01*
X154312855Y-101473939D01*
X154265236Y-101426320D01*
X154169998Y-101378700D01*
X153979521Y-101378700D01*
X153884283Y-101426320D01*
X153836664Y-101473939D01*
X153789045Y-101569177D01*
X153789045Y-101807272D01*
X153836664Y-101902510D01*
X153884283Y-101950129D01*
X153979521Y-101997748D01*
X154169998Y-101997748D01*
X154265236Y-101950129D01*
X154312855Y-101902510D01*
X154360474Y-101807272D01*
%TO.C,R8*%
X159803333Y-59822380D02*
X159470000Y-59346190D01*
X159231904Y-59822380D02*
X159231904Y-58822380D01*
X159612857Y-58822380D01*
X159708095Y-58870000D01*
X159755714Y-58917619D01*
X159803333Y-59012857D01*
X159803333Y-59155714D01*
X159755714Y-59250952D01*
X159708095Y-59298571D01*
X159612857Y-59346190D01*
X159231904Y-59346190D01*
X160374761Y-59250952D02*
X160279523Y-59203333D01*
X160231904Y-59155714D01*
X160184285Y-59060476D01*
X160184285Y-59012857D01*
X160231904Y-58917619D01*
X160279523Y-58870000D01*
X160374761Y-58822380D01*
X160565238Y-58822380D01*
X160660476Y-58870000D01*
X160708095Y-58917619D01*
X160755714Y-59012857D01*
X160755714Y-59060476D01*
X160708095Y-59155714D01*
X160660476Y-59203333D01*
X160565238Y-59250952D01*
X160374761Y-59250952D01*
X160279523Y-59298571D01*
X160231904Y-59346190D01*
X160184285Y-59441428D01*
X160184285Y-59631904D01*
X160231904Y-59727142D01*
X160279523Y-59774761D01*
X160374761Y-59822380D01*
X160565238Y-59822380D01*
X160660476Y-59774761D01*
X160708095Y-59727142D01*
X160755714Y-59631904D01*
X160755714Y-59441428D01*
X160708095Y-59346190D01*
X160660476Y-59298571D01*
X160565238Y-59250952D01*
%TO.C,R7*%
X136823333Y-90382380D02*
X136490000Y-89906190D01*
X136251904Y-90382380D02*
X136251904Y-89382380D01*
X136632857Y-89382380D01*
X136728095Y-89430000D01*
X136775714Y-89477619D01*
X136823333Y-89572857D01*
X136823333Y-89715714D01*
X136775714Y-89810952D01*
X136728095Y-89858571D01*
X136632857Y-89906190D01*
X136251904Y-89906190D01*
X137156666Y-89382380D02*
X137823333Y-89382380D01*
X137394761Y-90382380D01*
%TO.C,R6*%
X143123333Y-65542380D02*
X142790000Y-65066190D01*
X142551904Y-65542380D02*
X142551904Y-64542380D01*
X142932857Y-64542380D01*
X143028095Y-64590000D01*
X143075714Y-64637619D01*
X143123333Y-64732857D01*
X143123333Y-64875714D01*
X143075714Y-64970952D01*
X143028095Y-65018571D01*
X142932857Y-65066190D01*
X142551904Y-65066190D01*
X143980476Y-64542380D02*
X143790000Y-64542380D01*
X143694761Y-64590000D01*
X143647142Y-64637619D01*
X143551904Y-64780476D01*
X143504285Y-64970952D01*
X143504285Y-65351904D01*
X143551904Y-65447142D01*
X143599523Y-65494761D01*
X143694761Y-65542380D01*
X143885238Y-65542380D01*
X143980476Y-65494761D01*
X144028095Y-65447142D01*
X144075714Y-65351904D01*
X144075714Y-65113809D01*
X144028095Y-65018571D01*
X143980476Y-64970952D01*
X143885238Y-64923333D01*
X143694761Y-64923333D01*
X143599523Y-64970952D01*
X143551904Y-65018571D01*
X143504285Y-65113809D01*
%TO.C,R5*%
X159495333Y-70962380D02*
X159162000Y-70486190D01*
X158923904Y-70962380D02*
X158923904Y-69962380D01*
X159304857Y-69962380D01*
X159400095Y-70010000D01*
X159447714Y-70057619D01*
X159495333Y-70152857D01*
X159495333Y-70295714D01*
X159447714Y-70390952D01*
X159400095Y-70438571D01*
X159304857Y-70486190D01*
X158923904Y-70486190D01*
X160400095Y-69962380D02*
X159923904Y-69962380D01*
X159876285Y-70438571D01*
X159923904Y-70390952D01*
X160019142Y-70343333D01*
X160257238Y-70343333D01*
X160352476Y-70390952D01*
X160400095Y-70438571D01*
X160447714Y-70533809D01*
X160447714Y-70771904D01*
X160400095Y-70867142D01*
X160352476Y-70914761D01*
X160257238Y-70962380D01*
X160019142Y-70962380D01*
X159923904Y-70914761D01*
X159876285Y-70867142D01*
%TO.C,R4*%
X136803333Y-81102380D02*
X136470000Y-80626190D01*
X136231904Y-81102380D02*
X136231904Y-80102380D01*
X136612857Y-80102380D01*
X136708095Y-80150000D01*
X136755714Y-80197619D01*
X136803333Y-80292857D01*
X136803333Y-80435714D01*
X136755714Y-80530952D01*
X136708095Y-80578571D01*
X136612857Y-80626190D01*
X136231904Y-80626190D01*
X137660476Y-80435714D02*
X137660476Y-81102380D01*
X137422380Y-80054761D02*
X137184285Y-80769047D01*
X137803333Y-80769047D01*
%TO.C,R2*%
X143233333Y-77312380D02*
X142900000Y-76836190D01*
X142661904Y-77312380D02*
X142661904Y-76312380D01*
X143042857Y-76312380D01*
X143138095Y-76360000D01*
X143185714Y-76407619D01*
X143233333Y-76502857D01*
X143233333Y-76645714D01*
X143185714Y-76740952D01*
X143138095Y-76788571D01*
X143042857Y-76836190D01*
X142661904Y-76836190D01*
X143614285Y-76407619D02*
X143661904Y-76360000D01*
X143757142Y-76312380D01*
X143995238Y-76312380D01*
X144090476Y-76360000D01*
X144138095Y-76407619D01*
X144185714Y-76502857D01*
X144185714Y-76598095D01*
X144138095Y-76740952D01*
X143566666Y-77312380D01*
X144185714Y-77312380D01*
%TO.C,R1*%
X150308333Y-68622380D02*
X149975000Y-68146190D01*
X149736904Y-68622380D02*
X149736904Y-67622380D01*
X150117857Y-67622380D01*
X150213095Y-67670000D01*
X150260714Y-67717619D01*
X150308333Y-67812857D01*
X150308333Y-67955714D01*
X150260714Y-68050952D01*
X150213095Y-68098571D01*
X150117857Y-68146190D01*
X149736904Y-68146190D01*
X151260714Y-68622380D02*
X150689285Y-68622380D01*
X150975000Y-68622380D02*
X150975000Y-67622380D01*
X150879761Y-67765238D01*
X150784523Y-67860476D01*
X150689285Y-67908095D01*
%TO.C,Q3*%
X162633721Y-90652779D02*
X162538483Y-90605160D01*
X162443245Y-90509921D01*
X162300388Y-90367064D01*
X162205150Y-90319445D01*
X162109912Y-90319445D01*
X162157531Y-90557540D02*
X162062293Y-90509921D01*
X161967055Y-90414683D01*
X161919436Y-90224207D01*
X161919436Y-89890874D01*
X161967055Y-89700398D01*
X162062293Y-89605160D01*
X162157531Y-89557540D01*
X162348007Y-89557540D01*
X162443245Y-89605160D01*
X162538483Y-89700398D01*
X162586102Y-89890874D01*
X162586102Y-90224207D01*
X162538483Y-90414683D01*
X162443245Y-90509921D01*
X162348007Y-90557540D01*
X162157531Y-90557540D01*
X162919436Y-89557540D02*
X163538483Y-89557540D01*
X163205150Y-89938493D01*
X163348007Y-89938493D01*
X163443245Y-89986112D01*
X163490864Y-90033731D01*
X163538483Y-90128969D01*
X163538483Y-90367064D01*
X163490864Y-90462302D01*
X163443245Y-90509921D01*
X163348007Y-90557540D01*
X163062293Y-90557540D01*
X162967055Y-90509921D01*
X162919436Y-90462302D01*
%TO.C,Q2*%
X163212841Y-80121939D02*
X163117603Y-80074320D01*
X163022365Y-79979081D01*
X162879508Y-79836224D01*
X162784270Y-79788605D01*
X162689032Y-79788605D01*
X162736651Y-80026700D02*
X162641413Y-79979081D01*
X162546175Y-79883843D01*
X162498556Y-79693367D01*
X162498556Y-79360034D01*
X162546175Y-79169558D01*
X162641413Y-79074320D01*
X162736651Y-79026700D01*
X162927127Y-79026700D01*
X163022365Y-79074320D01*
X163117603Y-79169558D01*
X163165222Y-79360034D01*
X163165222Y-79693367D01*
X163117603Y-79883843D01*
X163022365Y-79979081D01*
X162927127Y-80026700D01*
X162736651Y-80026700D01*
X163546175Y-79121939D02*
X163593794Y-79074320D01*
X163689032Y-79026700D01*
X163927127Y-79026700D01*
X164022365Y-79074320D01*
X164069984Y-79121939D01*
X164117603Y-79217177D01*
X164117603Y-79312415D01*
X164069984Y-79455272D01*
X163498556Y-80026700D01*
X164117603Y-80026700D01*
%TO.C,Q1*%
X139744761Y-71377619D02*
X139649523Y-71330000D01*
X139554285Y-71234761D01*
X139411428Y-71091904D01*
X139316190Y-71044285D01*
X139220952Y-71044285D01*
X139268571Y-71282380D02*
X139173333Y-71234761D01*
X139078095Y-71139523D01*
X139030476Y-70949047D01*
X139030476Y-70615714D01*
X139078095Y-70425238D01*
X139173333Y-70330000D01*
X139268571Y-70282380D01*
X139459047Y-70282380D01*
X139554285Y-70330000D01*
X139649523Y-70425238D01*
X139697142Y-70615714D01*
X139697142Y-70949047D01*
X139649523Y-71139523D01*
X139554285Y-71234761D01*
X139459047Y-71282380D01*
X139268571Y-71282380D01*
X140649523Y-71282380D02*
X140078095Y-71282380D01*
X140363809Y-71282380D02*
X140363809Y-70282380D01*
X140268571Y-70425238D01*
X140173333Y-70520476D01*
X140078095Y-70568095D01*
%TO.C,J4*%
X168700666Y-95184780D02*
X168700666Y-95899066D01*
X168653047Y-96041923D01*
X168557809Y-96137161D01*
X168414952Y-96184780D01*
X168319714Y-96184780D01*
X169605428Y-95518114D02*
X169605428Y-96184780D01*
X169367333Y-95137161D02*
X169129238Y-95851447D01*
X169748285Y-95851447D01*
%TO.C,J3*%
X127526666Y-95372380D02*
X127526666Y-96086666D01*
X127479047Y-96229523D01*
X127383809Y-96324761D01*
X127240952Y-96372380D01*
X127145714Y-96372380D01*
X127907619Y-95372380D02*
X128526666Y-95372380D01*
X128193333Y-95753333D01*
X128336190Y-95753333D01*
X128431428Y-95800952D01*
X128479047Y-95848571D01*
X128526666Y-95943809D01*
X128526666Y-96181904D01*
X128479047Y-96277142D01*
X128431428Y-96324761D01*
X128336190Y-96372380D01*
X128050476Y-96372380D01*
X127955238Y-96324761D01*
X127907619Y-96277142D01*
%TO.C,D3*%
X157451904Y-56802380D02*
X157451904Y-55802380D01*
X157690000Y-55802380D01*
X157832857Y-55850000D01*
X157928095Y-55945238D01*
X157975714Y-56040476D01*
X158023333Y-56230952D01*
X158023333Y-56373809D01*
X157975714Y-56564285D01*
X157928095Y-56659523D01*
X157832857Y-56754761D01*
X157690000Y-56802380D01*
X157451904Y-56802380D01*
X158356666Y-55802380D02*
X158975714Y-55802380D01*
X158642380Y-56183333D01*
X158785238Y-56183333D01*
X158880476Y-56230952D01*
X158928095Y-56278571D01*
X158975714Y-56373809D01*
X158975714Y-56611904D01*
X158928095Y-56707142D01*
X158880476Y-56754761D01*
X158785238Y-56802380D01*
X158499523Y-56802380D01*
X158404285Y-56754761D01*
X158356666Y-56707142D01*
%TO.C,D2*%
X145721904Y-73132380D02*
X145721904Y-72132380D01*
X145960000Y-72132380D01*
X146102857Y-72180000D01*
X146198095Y-72275238D01*
X146245714Y-72370476D01*
X146293333Y-72560952D01*
X146293333Y-72703809D01*
X146245714Y-72894285D01*
X146198095Y-72989523D01*
X146102857Y-73084761D01*
X145960000Y-73132380D01*
X145721904Y-73132380D01*
X146674285Y-72227619D02*
X146721904Y-72180000D01*
X146817142Y-72132380D01*
X147055238Y-72132380D01*
X147150476Y-72180000D01*
X147198095Y-72227619D01*
X147245714Y-72322857D01*
X147245714Y-72418095D01*
X147198095Y-72560952D01*
X146626666Y-73132380D01*
X147245714Y-73132380D01*
%TO.C,D1*%
X153081904Y-65542380D02*
X153081904Y-64542380D01*
X153320000Y-64542380D01*
X153462857Y-64590000D01*
X153558095Y-64685238D01*
X153605714Y-64780476D01*
X153653333Y-64970952D01*
X153653333Y-65113809D01*
X153605714Y-65304285D01*
X153558095Y-65399523D01*
X153462857Y-65494761D01*
X153320000Y-65542380D01*
X153081904Y-65542380D01*
X154605714Y-65542380D02*
X154034285Y-65542380D01*
X154320000Y-65542380D02*
X154320000Y-64542380D01*
X154224761Y-64685238D01*
X154129523Y-64780476D01*
X154034285Y-64828095D01*
%TO.C,C12*%
X159937142Y-108867142D02*
X159889523Y-108914761D01*
X159746666Y-108962380D01*
X159651428Y-108962380D01*
X159508571Y-108914761D01*
X159413333Y-108819523D01*
X159365714Y-108724285D01*
X159318095Y-108533809D01*
X159318095Y-108390952D01*
X159365714Y-108200476D01*
X159413333Y-108105238D01*
X159508571Y-108010000D01*
X159651428Y-107962380D01*
X159746666Y-107962380D01*
X159889523Y-108010000D01*
X159937142Y-108057619D01*
X160889523Y-108962380D02*
X160318095Y-108962380D01*
X160603809Y-108962380D02*
X160603809Y-107962380D01*
X160508571Y-108105238D01*
X160413333Y-108200476D01*
X160318095Y-108248095D01*
X161270476Y-108057619D02*
X161318095Y-108010000D01*
X161413333Y-107962380D01*
X161651428Y-107962380D01*
X161746666Y-108010000D01*
X161794285Y-108057619D01*
X161841904Y-108152857D01*
X161841904Y-108248095D01*
X161794285Y-108390952D01*
X161222857Y-108962380D01*
X161841904Y-108962380D01*
%TO.C,C11*%
X159377142Y-120297142D02*
X159329523Y-120344761D01*
X159186666Y-120392380D01*
X159091428Y-120392380D01*
X158948571Y-120344761D01*
X158853333Y-120249523D01*
X158805714Y-120154285D01*
X158758095Y-119963809D01*
X158758095Y-119820952D01*
X158805714Y-119630476D01*
X158853333Y-119535238D01*
X158948571Y-119440000D01*
X159091428Y-119392380D01*
X159186666Y-119392380D01*
X159329523Y-119440000D01*
X159377142Y-119487619D01*
X160329523Y-120392380D02*
X159758095Y-120392380D01*
X160043809Y-120392380D02*
X160043809Y-119392380D01*
X159948571Y-119535238D01*
X159853333Y-119630476D01*
X159758095Y-119678095D01*
X161281904Y-120392380D02*
X160710476Y-120392380D01*
X160996190Y-120392380D02*
X160996190Y-119392380D01*
X160900952Y-119535238D01*
X160805714Y-119630476D01*
X160710476Y-119678095D01*
%TO.C,C10*%
X162287142Y-120277142D02*
X162239523Y-120324761D01*
X162096666Y-120372380D01*
X162001428Y-120372380D01*
X161858571Y-120324761D01*
X161763333Y-120229523D01*
X161715714Y-120134285D01*
X161668095Y-119943809D01*
X161668095Y-119800952D01*
X161715714Y-119610476D01*
X161763333Y-119515238D01*
X161858571Y-119420000D01*
X162001428Y-119372380D01*
X162096666Y-119372380D01*
X162239523Y-119420000D01*
X162287142Y-119467619D01*
X163239523Y-120372380D02*
X162668095Y-120372380D01*
X162953809Y-120372380D02*
X162953809Y-119372380D01*
X162858571Y-119515238D01*
X162763333Y-119610476D01*
X162668095Y-119658095D01*
X163858571Y-119372380D02*
X163953809Y-119372380D01*
X164049047Y-119420000D01*
X164096666Y-119467619D01*
X164144285Y-119562857D01*
X164191904Y-119753333D01*
X164191904Y-119991428D01*
X164144285Y-120181904D01*
X164096666Y-120277142D01*
X164049047Y-120324761D01*
X163953809Y-120372380D01*
X163858571Y-120372380D01*
X163763333Y-120324761D01*
X163715714Y-120277142D01*
X163668095Y-120181904D01*
X163620476Y-119991428D01*
X163620476Y-119753333D01*
X163668095Y-119562857D01*
X163715714Y-119467619D01*
X163763333Y-119420000D01*
X163858571Y-119372380D01*
%TO.C,C9*%
X140963333Y-88977142D02*
X140915714Y-89024761D01*
X140772857Y-89072380D01*
X140677619Y-89072380D01*
X140534761Y-89024761D01*
X140439523Y-88929523D01*
X140391904Y-88834285D01*
X140344285Y-88643809D01*
X140344285Y-88500952D01*
X140391904Y-88310476D01*
X140439523Y-88215238D01*
X140534761Y-88120000D01*
X140677619Y-88072380D01*
X140772857Y-88072380D01*
X140915714Y-88120000D01*
X140963333Y-88167619D01*
X141439523Y-89072380D02*
X141630000Y-89072380D01*
X141725238Y-89024761D01*
X141772857Y-88977142D01*
X141868095Y-88834285D01*
X141915714Y-88643809D01*
X141915714Y-88262857D01*
X141868095Y-88167619D01*
X141820476Y-88120000D01*
X141725238Y-88072380D01*
X141534761Y-88072380D01*
X141439523Y-88120000D01*
X141391904Y-88167619D01*
X141344285Y-88262857D01*
X141344285Y-88500952D01*
X141391904Y-88596190D01*
X141439523Y-88643809D01*
X141534761Y-88691428D01*
X141725238Y-88691428D01*
X141820476Y-88643809D01*
X141868095Y-88596190D01*
X141915714Y-88500952D01*
%TO.C,C8*%
X143183333Y-88977142D02*
X143135714Y-89024761D01*
X142992857Y-89072380D01*
X142897619Y-89072380D01*
X142754761Y-89024761D01*
X142659523Y-88929523D01*
X142611904Y-88834285D01*
X142564285Y-88643809D01*
X142564285Y-88500952D01*
X142611904Y-88310476D01*
X142659523Y-88215238D01*
X142754761Y-88120000D01*
X142897619Y-88072380D01*
X142992857Y-88072380D01*
X143135714Y-88120000D01*
X143183333Y-88167619D01*
X143754761Y-88500952D02*
X143659523Y-88453333D01*
X143611904Y-88405714D01*
X143564285Y-88310476D01*
X143564285Y-88262857D01*
X143611904Y-88167619D01*
X143659523Y-88120000D01*
X143754761Y-88072380D01*
X143945238Y-88072380D01*
X144040476Y-88120000D01*
X144088095Y-88167619D01*
X144135714Y-88262857D01*
X144135714Y-88310476D01*
X144088095Y-88405714D01*
X144040476Y-88453333D01*
X143945238Y-88500952D01*
X143754761Y-88500952D01*
X143659523Y-88548571D01*
X143611904Y-88596190D01*
X143564285Y-88691428D01*
X143564285Y-88881904D01*
X143611904Y-88977142D01*
X143659523Y-89024761D01*
X143754761Y-89072380D01*
X143945238Y-89072380D01*
X144040476Y-89024761D01*
X144088095Y-88977142D01*
X144135714Y-88881904D01*
X144135714Y-88691428D01*
X144088095Y-88596190D01*
X144040476Y-88548571D01*
X143945238Y-88500952D01*
%TO.C,C7*%
X153343333Y-89172142D02*
X153295714Y-89219761D01*
X153152857Y-89267380D01*
X153057619Y-89267380D01*
X152914761Y-89219761D01*
X152819523Y-89124523D01*
X152771904Y-89029285D01*
X152724285Y-88838809D01*
X152724285Y-88695952D01*
X152771904Y-88505476D01*
X152819523Y-88410238D01*
X152914761Y-88315000D01*
X153057619Y-88267380D01*
X153152857Y-88267380D01*
X153295714Y-88315000D01*
X153343333Y-88362619D01*
X153676666Y-88267380D02*
X154343333Y-88267380D01*
X153914761Y-89267380D01*
%TO.C,C5*%
X134473333Y-80987142D02*
X134425714Y-81034761D01*
X134282857Y-81082380D01*
X134187619Y-81082380D01*
X134044761Y-81034761D01*
X133949523Y-80939523D01*
X133901904Y-80844285D01*
X133854285Y-80653809D01*
X133854285Y-80510952D01*
X133901904Y-80320476D01*
X133949523Y-80225238D01*
X134044761Y-80130000D01*
X134187619Y-80082380D01*
X134282857Y-80082380D01*
X134425714Y-80130000D01*
X134473333Y-80177619D01*
X135378095Y-80082380D02*
X134901904Y-80082380D01*
X134854285Y-80558571D01*
X134901904Y-80510952D01*
X134997142Y-80463333D01*
X135235238Y-80463333D01*
X135330476Y-80510952D01*
X135378095Y-80558571D01*
X135425714Y-80653809D01*
X135425714Y-80891904D01*
X135378095Y-80987142D01*
X135330476Y-81034761D01*
X135235238Y-81082380D01*
X134997142Y-81082380D01*
X134901904Y-81034761D01*
X134854285Y-80987142D01*
%TO.C,C4*%
X161603333Y-77587142D02*
X161555714Y-77634761D01*
X161412857Y-77682380D01*
X161317619Y-77682380D01*
X161174761Y-77634761D01*
X161079523Y-77539523D01*
X161031904Y-77444285D01*
X160984285Y-77253809D01*
X160984285Y-77110952D01*
X161031904Y-76920476D01*
X161079523Y-76825238D01*
X161174761Y-76730000D01*
X161317619Y-76682380D01*
X161412857Y-76682380D01*
X161555714Y-76730000D01*
X161603333Y-76777619D01*
X162460476Y-77015714D02*
X162460476Y-77682380D01*
X162222380Y-76634761D02*
X161984285Y-77349047D01*
X162603333Y-77349047D01*
%TO.C,C3*%
X150423333Y-76537142D02*
X150375714Y-76584761D01*
X150232857Y-76632380D01*
X150137619Y-76632380D01*
X149994761Y-76584761D01*
X149899523Y-76489523D01*
X149851904Y-76394285D01*
X149804285Y-76203809D01*
X149804285Y-76060952D01*
X149851904Y-75870476D01*
X149899523Y-75775238D01*
X149994761Y-75680000D01*
X150137619Y-75632380D01*
X150232857Y-75632380D01*
X150375714Y-75680000D01*
X150423333Y-75727619D01*
X150756666Y-75632380D02*
X151375714Y-75632380D01*
X151042380Y-76013333D01*
X151185238Y-76013333D01*
X151280476Y-76060952D01*
X151328095Y-76108571D01*
X151375714Y-76203809D01*
X151375714Y-76441904D01*
X151328095Y-76537142D01*
X151280476Y-76584761D01*
X151185238Y-76632380D01*
X150899523Y-76632380D01*
X150804285Y-76584761D01*
X150756666Y-76537142D01*
%TO.C,C2*%
X146148333Y-69127142D02*
X146100714Y-69174761D01*
X145957857Y-69222380D01*
X145862619Y-69222380D01*
X145719761Y-69174761D01*
X145624523Y-69079523D01*
X145576904Y-68984285D01*
X145529285Y-68793809D01*
X145529285Y-68650952D01*
X145576904Y-68460476D01*
X145624523Y-68365238D01*
X145719761Y-68270000D01*
X145862619Y-68222380D01*
X145957857Y-68222380D01*
X146100714Y-68270000D01*
X146148333Y-68317619D01*
X146529285Y-68317619D02*
X146576904Y-68270000D01*
X146672142Y-68222380D01*
X146910238Y-68222380D01*
X147005476Y-68270000D01*
X147053095Y-68317619D01*
X147100714Y-68412857D01*
X147100714Y-68508095D01*
X147053095Y-68650952D01*
X146481666Y-69222380D01*
X147100714Y-69222380D01*
%TO.C,C1*%
X134413333Y-73647142D02*
X134365714Y-73694761D01*
X134222857Y-73742380D01*
X134127619Y-73742380D01*
X133984761Y-73694761D01*
X133889523Y-73599523D01*
X133841904Y-73504285D01*
X133794285Y-73313809D01*
X133794285Y-73170952D01*
X133841904Y-72980476D01*
X133889523Y-72885238D01*
X133984761Y-72790000D01*
X134127619Y-72742380D01*
X134222857Y-72742380D01*
X134365714Y-72790000D01*
X134413333Y-72837619D01*
X135365714Y-73742380D02*
X134794285Y-73742380D01*
X135080000Y-73742380D02*
X135080000Y-72742380D01*
X134984761Y-72885238D01*
X134889523Y-72980476D01*
X134794285Y-73028095D01*
%TD*%
%LPC*%
D12*
%TO.C,JP1*%
G36*
X155500000Y-61490000D02*
G01*
X156000000Y-60740000D01*
X157000000Y-60740000D01*
X157000000Y-62240000D01*
X156000000Y-62240000D01*
X155500000Y-61490000D01*
G37*
G36*
X154550000Y-60740000D02*
G01*
X155700000Y-60740000D01*
X155200000Y-61490000D01*
X155700000Y-62240000D01*
X154550000Y-62240000D01*
X154550000Y-60740000D01*
G37*
%TD*%
D13*
%TO.C,J5*%
X151330000Y-61510000D03*
X148790000Y-61510000D03*
D14*
X146250000Y-61510000D03*
%TD*%
%TO.C,D5*%
G36*
G01*
X143830000Y-103299999D02*
X143830000Y-104200001D01*
G75*
G02*
X143580001Y-104450000I-249999J0D01*
G01*
X142929999Y-104450000D01*
G75*
G02*
X142680000Y-104200001I0J249999D01*
G01*
X142680000Y-103299999D01*
G75*
G02*
X142929999Y-103050000I249999J0D01*
G01*
X143580001Y-103050000D01*
G75*
G02*
X143830000Y-103299999I0J-249999D01*
G01*
G37*
G36*
G01*
X145880000Y-103299999D02*
X145880000Y-104200001D01*
G75*
G02*
X145630001Y-104450000I-249999J0D01*
G01*
X144979999Y-104450000D01*
G75*
G02*
X144730000Y-104200001I0J249999D01*
G01*
X144730000Y-103299999D01*
G75*
G02*
X144979999Y-103050000I249999J0D01*
G01*
X145630001Y-103050000D01*
G75*
G02*
X145880000Y-103299999I0J-249999D01*
G01*
G37*
%TD*%
D15*
%TO.C,J2*%
X129070000Y-87530000D03*
X129070000Y-82530000D03*
D16*
X126320000Y-88905000D03*
X126320000Y-81155000D03*
D17*
X130120000Y-88755000D03*
X130120000Y-81305000D03*
D18*
X130170000Y-86330000D03*
X130170000Y-85680000D03*
X130170000Y-85030000D03*
X130170000Y-84380000D03*
X130170000Y-83730000D03*
%TD*%
D19*
%TO.C,J1*%
X125800000Y-72370000D03*
G36*
G01*
X128400000Y-71744999D02*
X128400000Y-72995001D01*
G75*
G02*
X128150001Y-73245000I-249999J0D01*
G01*
X127449999Y-73245000D01*
G75*
G02*
X127200000Y-72995001I0J249999D01*
G01*
X127200000Y-71744999D01*
G75*
G02*
X127449999Y-71495000I249999J0D01*
G01*
X128150001Y-71495000D01*
G75*
G02*
X128400000Y-71744999I0J-249999D01*
G01*
G37*
%TD*%
D20*
%TO.C,U4*%
X140330000Y-123855000D03*
X140330000Y-122585000D03*
X140330000Y-121315000D03*
X140330000Y-120045000D03*
X140330000Y-118775000D03*
X140330000Y-117505000D03*
X140330000Y-116235000D03*
X140330000Y-114965000D03*
X140330000Y-113695000D03*
X140330000Y-112425000D03*
X140330000Y-111155000D03*
X140330000Y-109885000D03*
X140330000Y-108615000D03*
X140330000Y-107345000D03*
D21*
X143115000Y-106345000D03*
X144385000Y-106345000D03*
X145655000Y-106345000D03*
X146925000Y-106345000D03*
X148195000Y-106345000D03*
X149465000Y-106345000D03*
X150735000Y-106345000D03*
X152005000Y-106345000D03*
X153275000Y-106345000D03*
X154545000Y-106345000D03*
D20*
X157330000Y-107345000D03*
X157330000Y-108615000D03*
X157330000Y-109885000D03*
X157330000Y-111155000D03*
X157330000Y-112425000D03*
X157330000Y-113695000D03*
X157330000Y-114965000D03*
X157330000Y-116235000D03*
X157330000Y-117505000D03*
X157330000Y-118775000D03*
X157330000Y-120045000D03*
X157330000Y-121315000D03*
X157330000Y-122585000D03*
X157330000Y-123855000D03*
D22*
X149830000Y-116355000D03*
%TD*%
%TO.C,R13*%
G36*
G01*
X159170001Y-84230000D02*
X158269999Y-84230000D01*
G75*
G02*
X158020000Y-83980001I0J249999D01*
G01*
X158020000Y-83329999D01*
G75*
G02*
X158269999Y-83080000I249999J0D01*
G01*
X159170001Y-83080000D01*
G75*
G02*
X159420000Y-83329999I0J-249999D01*
G01*
X159420000Y-83980001D01*
G75*
G02*
X159170001Y-84230000I-249999J0D01*
G01*
G37*
G36*
G01*
X159170001Y-86280000D02*
X158269999Y-86280000D01*
G75*
G02*
X158020000Y-86030001I0J249999D01*
G01*
X158020000Y-85379999D01*
G75*
G02*
X158269999Y-85130000I249999J0D01*
G01*
X159170001Y-85130000D01*
G75*
G02*
X159420000Y-85379999I0J-249999D01*
G01*
X159420000Y-86030001D01*
G75*
G02*
X159170001Y-86280000I-249999J0D01*
G01*
G37*
%TD*%
%TO.C,C6*%
G36*
G01*
X134159999Y-87720000D02*
X135060001Y-87720000D01*
G75*
G02*
X135310000Y-87969999I0J-249999D01*
G01*
X135310000Y-88620001D01*
G75*
G02*
X135060001Y-88870000I-249999J0D01*
G01*
X134159999Y-88870000D01*
G75*
G02*
X133910000Y-88620001I0J249999D01*
G01*
X133910000Y-87969999D01*
G75*
G02*
X134159999Y-87720000I249999J0D01*
G01*
G37*
G36*
G01*
X134159999Y-85670000D02*
X135060001Y-85670000D01*
G75*
G02*
X135310000Y-85919999I0J-249999D01*
G01*
X135310000Y-86570001D01*
G75*
G02*
X135060001Y-86820000I-249999J0D01*
G01*
X134159999Y-86820000D01*
G75*
G02*
X133910000Y-86570001I0J249999D01*
G01*
X133910000Y-85919999D01*
G75*
G02*
X134159999Y-85670000I249999J0D01*
G01*
G37*
%TD*%
D23*
%TO.C,U3*%
X145900000Y-88611500D03*
X145900000Y-87976500D03*
X145900000Y-87341500D03*
X145900000Y-86706500D03*
X145900000Y-86071500D03*
X145900000Y-85436500D03*
X145900000Y-84801500D03*
X145900000Y-84166500D03*
X145900000Y-83531500D03*
X145900000Y-82896500D03*
X151100000Y-82896500D03*
X151100000Y-83531500D03*
X151100000Y-84166500D03*
X151100000Y-84801500D03*
X151100000Y-85436500D03*
X151100000Y-86071500D03*
X151100000Y-86706500D03*
X151100000Y-87341500D03*
X151100000Y-87976500D03*
X151100000Y-88611500D03*
%TD*%
D24*
%TO.C,U2*%
X156138000Y-74217000D03*
X156138000Y-73267000D03*
X156138000Y-72317000D03*
X153438000Y-72317000D03*
X153438000Y-74217000D03*
%TD*%
%TO.C,U1*%
X141070000Y-64920000D03*
X141070000Y-66820000D03*
X138370000Y-66820000D03*
X138370000Y-65870000D03*
X138370000Y-64920000D03*
%TD*%
D25*
%TO.C,SW2*%
X166350000Y-108920000D03*
D26*
X166350000Y-110620000D03*
X166350000Y-107220000D03*
%TD*%
D25*
%TO.C,SW1*%
X131330000Y-108915000D03*
D26*
X131330000Y-107215000D03*
X131330000Y-110615000D03*
%TD*%
%TO.C,R12*%
G36*
G01*
X162670001Y-84230000D02*
X161769999Y-84230000D01*
G75*
G02*
X161520000Y-83980001I0J249999D01*
G01*
X161520000Y-83329999D01*
G75*
G02*
X161769999Y-83080000I249999J0D01*
G01*
X162670001Y-83080000D01*
G75*
G02*
X162920000Y-83329999I0J-249999D01*
G01*
X162920000Y-83980001D01*
G75*
G02*
X162670001Y-84230000I-249999J0D01*
G01*
G37*
G36*
G01*
X162670001Y-86280000D02*
X161769999Y-86280000D01*
G75*
G02*
X161520000Y-86030001I0J249999D01*
G01*
X161520000Y-85379999D01*
G75*
G02*
X161769999Y-85130000I249999J0D01*
G01*
X162670001Y-85130000D01*
G75*
G02*
X162920000Y-85379999I0J-249999D01*
G01*
X162920000Y-86030001D01*
G75*
G02*
X162670001Y-86280000I-249999J0D01*
G01*
G37*
%TD*%
%TO.C,R11*%
G36*
G01*
X134069999Y-108775000D02*
X134970001Y-108775000D01*
G75*
G02*
X135220000Y-109024999I0J-249999D01*
G01*
X135220000Y-109675001D01*
G75*
G02*
X134970001Y-109925000I-249999J0D01*
G01*
X134069999Y-109925000D01*
G75*
G02*
X133820000Y-109675001I0J249999D01*
G01*
X133820000Y-109024999D01*
G75*
G02*
X134069999Y-108775000I249999J0D01*
G01*
G37*
G36*
G01*
X134069999Y-106725000D02*
X134970001Y-106725000D01*
G75*
G02*
X135220000Y-106974999I0J-249999D01*
G01*
X135220000Y-107625001D01*
G75*
G02*
X134970001Y-107875000I-249999J0D01*
G01*
X134069999Y-107875000D01*
G75*
G02*
X133820000Y-107625001I0J249999D01*
G01*
X133820000Y-106974999D01*
G75*
G02*
X134069999Y-106725000I249999J0D01*
G01*
G37*
%TD*%
%TO.C,R10*%
G36*
G01*
X163880000Y-111909999D02*
X163880000Y-112810001D01*
G75*
G02*
X163630001Y-113060000I-249999J0D01*
G01*
X162979999Y-113060000D01*
G75*
G02*
X162730000Y-112810001I0J249999D01*
G01*
X162730000Y-111909999D01*
G75*
G02*
X162979999Y-111660000I249999J0D01*
G01*
X163630001Y-111660000D01*
G75*
G02*
X163880000Y-111909999I0J-249999D01*
G01*
G37*
G36*
G01*
X165930000Y-111909999D02*
X165930000Y-112810001D01*
G75*
G02*
X165680001Y-113060000I-249999J0D01*
G01*
X165029999Y-113060000D01*
G75*
G02*
X164780000Y-112810001I0J249999D01*
G01*
X164780000Y-111909999D01*
G75*
G02*
X165029999Y-111660000I249999J0D01*
G01*
X165680001Y-111660000D01*
G75*
G02*
X165930000Y-111909999I0J-249999D01*
G01*
G37*
%TD*%
%TO.C,R9*%
G36*
G01*
X153975000Y-104190001D02*
X153975000Y-103289999D01*
G75*
G02*
X154224999Y-103040000I249999J0D01*
G01*
X154875001Y-103040000D01*
G75*
G02*
X155125000Y-103289999I0J-249999D01*
G01*
X155125000Y-104190001D01*
G75*
G02*
X154875001Y-104440000I-249999J0D01*
G01*
X154224999Y-104440000D01*
G75*
G02*
X153975000Y-104190001I0J249999D01*
G01*
G37*
G36*
G01*
X151925000Y-104190001D02*
X151925000Y-103289999D01*
G75*
G02*
X152174999Y-103040000I249999J0D01*
G01*
X152825001Y-103040000D01*
G75*
G02*
X153075000Y-103289999I0J-249999D01*
G01*
X153075000Y-104190001D01*
G75*
G02*
X152825001Y-104440000I-249999J0D01*
G01*
X152174999Y-104440000D01*
G75*
G02*
X151925000Y-104190001I0J249999D01*
G01*
G37*
%TD*%
%TO.C,R8*%
G36*
G01*
X159515000Y-61039999D02*
X159515000Y-61940001D01*
G75*
G02*
X159265001Y-62190000I-249999J0D01*
G01*
X158614999Y-62190000D01*
G75*
G02*
X158365000Y-61940001I0J249999D01*
G01*
X158365000Y-61039999D01*
G75*
G02*
X158614999Y-60790000I249999J0D01*
G01*
X159265001Y-60790000D01*
G75*
G02*
X159515000Y-61039999I0J-249999D01*
G01*
G37*
G36*
G01*
X161565000Y-61039999D02*
X161565000Y-61940001D01*
G75*
G02*
X161315001Y-62190000I-249999J0D01*
G01*
X160664999Y-62190000D01*
G75*
G02*
X160415000Y-61940001I0J249999D01*
G01*
X160415000Y-61039999D01*
G75*
G02*
X160664999Y-60790000I249999J0D01*
G01*
X161315001Y-60790000D01*
G75*
G02*
X161565000Y-61039999I0J-249999D01*
G01*
G37*
%TD*%
%TO.C,R7*%
G36*
G01*
X136489999Y-87650000D02*
X137390001Y-87650000D01*
G75*
G02*
X137640000Y-87899999I0J-249999D01*
G01*
X137640000Y-88550001D01*
G75*
G02*
X137390001Y-88800000I-249999J0D01*
G01*
X136489999Y-88800000D01*
G75*
G02*
X136240000Y-88550001I0J249999D01*
G01*
X136240000Y-87899999D01*
G75*
G02*
X136489999Y-87650000I249999J0D01*
G01*
G37*
G36*
G01*
X136489999Y-85600000D02*
X137390001Y-85600000D01*
G75*
G02*
X137640000Y-85849999I0J-249999D01*
G01*
X137640000Y-86500001D01*
G75*
G02*
X137390001Y-86750000I-249999J0D01*
G01*
X136489999Y-86750000D01*
G75*
G02*
X136240000Y-86500001I0J249999D01*
G01*
X136240000Y-85849999D01*
G75*
G02*
X136489999Y-85600000I249999J0D01*
G01*
G37*
%TD*%
%TO.C,R6*%
G36*
G01*
X146700000Y-65380001D02*
X146700000Y-64479999D01*
G75*
G02*
X146949999Y-64230000I249999J0D01*
G01*
X147600001Y-64230000D01*
G75*
G02*
X147850000Y-64479999I0J-249999D01*
G01*
X147850000Y-65380001D01*
G75*
G02*
X147600001Y-65630000I-249999J0D01*
G01*
X146949999Y-65630000D01*
G75*
G02*
X146700000Y-65380001I0J249999D01*
G01*
G37*
G36*
G01*
X144650000Y-65380001D02*
X144650000Y-64479999D01*
G75*
G02*
X144899999Y-64230000I249999J0D01*
G01*
X145550001Y-64230000D01*
G75*
G02*
X145800000Y-64479999I0J-249999D01*
G01*
X145800000Y-65380001D01*
G75*
G02*
X145550001Y-65630000I-249999J0D01*
G01*
X144899999Y-65630000D01*
G75*
G02*
X144650000Y-65380001I0J249999D01*
G01*
G37*
%TD*%
%TO.C,R5*%
G36*
G01*
X159169999Y-71540000D02*
X160070001Y-71540000D01*
G75*
G02*
X160320000Y-71789999I0J-249999D01*
G01*
X160320000Y-72440001D01*
G75*
G02*
X160070001Y-72690000I-249999J0D01*
G01*
X159169999Y-72690000D01*
G75*
G02*
X158920000Y-72440001I0J249999D01*
G01*
X158920000Y-71789999D01*
G75*
G02*
X159169999Y-71540000I249999J0D01*
G01*
G37*
G36*
G01*
X159169999Y-73590000D02*
X160070001Y-73590000D01*
G75*
G02*
X160320000Y-73839999I0J-249999D01*
G01*
X160320000Y-74490001D01*
G75*
G02*
X160070001Y-74740000I-249999J0D01*
G01*
X159169999Y-74740000D01*
G75*
G02*
X158920000Y-74490001I0J249999D01*
G01*
X158920000Y-73839999D01*
G75*
G02*
X159169999Y-73590000I249999J0D01*
G01*
G37*
%TD*%
%TO.C,R4*%
G36*
G01*
X137410001Y-82690000D02*
X136509999Y-82690000D01*
G75*
G02*
X136260000Y-82440001I0J249999D01*
G01*
X136260000Y-81789999D01*
G75*
G02*
X136509999Y-81540000I249999J0D01*
G01*
X137410001Y-81540000D01*
G75*
G02*
X137660000Y-81789999I0J-249999D01*
G01*
X137660000Y-82440001D01*
G75*
G02*
X137410001Y-82690000I-249999J0D01*
G01*
G37*
G36*
G01*
X137410001Y-84740000D02*
X136509999Y-84740000D01*
G75*
G02*
X136260000Y-84490001I0J249999D01*
G01*
X136260000Y-83839999D01*
G75*
G02*
X136509999Y-83590000I249999J0D01*
G01*
X137410001Y-83590000D01*
G75*
G02*
X137660000Y-83839999I0J-249999D01*
G01*
X137660000Y-84490001D01*
G75*
G02*
X137410001Y-84740000I-249999J0D01*
G01*
G37*
%TD*%
%TO.C,R2*%
G36*
G01*
X140790000Y-77230001D02*
X140790000Y-76329999D01*
G75*
G02*
X141039999Y-76080000I249999J0D01*
G01*
X141690001Y-76080000D01*
G75*
G02*
X141940000Y-76329999I0J-249999D01*
G01*
X141940000Y-77230001D01*
G75*
G02*
X141690001Y-77480000I-249999J0D01*
G01*
X141039999Y-77480000D01*
G75*
G02*
X140790000Y-77230001I0J249999D01*
G01*
G37*
G36*
G01*
X138740000Y-77230001D02*
X138740000Y-76329999D01*
G75*
G02*
X138989999Y-76080000I249999J0D01*
G01*
X139640001Y-76080000D01*
G75*
G02*
X139890000Y-76329999I0J-249999D01*
G01*
X139890000Y-77230001D01*
G75*
G02*
X139640001Y-77480000I-249999J0D01*
G01*
X138989999Y-77480000D01*
G75*
G02*
X138740000Y-77230001I0J249999D01*
G01*
G37*
%TD*%
%TO.C,R1*%
G36*
G01*
X151120000Y-70400001D02*
X151120000Y-69499999D01*
G75*
G02*
X151369999Y-69250000I249999J0D01*
G01*
X152020001Y-69250000D01*
G75*
G02*
X152270000Y-69499999I0J-249999D01*
G01*
X152270000Y-70400001D01*
G75*
G02*
X152020001Y-70650000I-249999J0D01*
G01*
X151369999Y-70650000D01*
G75*
G02*
X151120000Y-70400001I0J249999D01*
G01*
G37*
G36*
G01*
X149070000Y-70400001D02*
X149070000Y-69499999D01*
G75*
G02*
X149319999Y-69250000I249999J0D01*
G01*
X149970001Y-69250000D01*
G75*
G02*
X150220000Y-69499999I0J-249999D01*
G01*
X150220000Y-70400001D01*
G75*
G02*
X149970001Y-70650000I-249999J0D01*
G01*
X149319999Y-70650000D01*
G75*
G02*
X149070000Y-70400001I0J249999D01*
G01*
G37*
%TD*%
D27*
%TO.C,Q3*%
X160382000Y-89530000D03*
X159432000Y-87530000D03*
X161332000Y-87530000D03*
%TD*%
%TO.C,Q2*%
X160470000Y-79680000D03*
X161420000Y-81680000D03*
X159520000Y-81680000D03*
%TD*%
D28*
%TO.C,Q1*%
X138380000Y-73330000D03*
X141380000Y-72380000D03*
X141380000Y-74280000D03*
%TD*%
D13*
%TO.C,J4*%
X168220000Y-98170000D03*
X165680000Y-98170000D03*
X163140000Y-98170000D03*
X160600000Y-98170000D03*
X158060000Y-98170000D03*
X155520000Y-98170000D03*
X152980000Y-98170000D03*
D14*
X150440000Y-98170000D03*
%TD*%
D13*
%TO.C,J3*%
X144200000Y-98100000D03*
X141660000Y-98100000D03*
X139120000Y-98100000D03*
X136580000Y-98100000D03*
X134040000Y-98100000D03*
X131500000Y-98100000D03*
D14*
X128960000Y-98100000D03*
%TD*%
%TO.C,D3*%
G36*
G01*
X157450000Y-54189999D02*
X157450000Y-55090001D01*
G75*
G02*
X157200001Y-55340000I-249999J0D01*
G01*
X156549999Y-55340000D01*
G75*
G02*
X156300000Y-55090001I0J249999D01*
G01*
X156300000Y-54189999D01*
G75*
G02*
X156549999Y-53940000I249999J0D01*
G01*
X157200001Y-53940000D01*
G75*
G02*
X157450000Y-54189999I0J-249999D01*
G01*
G37*
G36*
G01*
X159500000Y-54189999D02*
X159500000Y-55090001D01*
G75*
G02*
X159250001Y-55340000I-249999J0D01*
G01*
X158599999Y-55340000D01*
G75*
G02*
X158350000Y-55090001I0J249999D01*
G01*
X158350000Y-54189999D01*
G75*
G02*
X158599999Y-53940000I249999J0D01*
G01*
X159250001Y-53940000D01*
G75*
G02*
X159500000Y-54189999I0J-249999D01*
G01*
G37*
%TD*%
D29*
%TO.C,D2*%
X145210000Y-74330000D03*
X147710000Y-74330000D03*
%TD*%
%TO.C,D1*%
G36*
G01*
X150180000Y-64609999D02*
X150180000Y-65510001D01*
G75*
G02*
X149930001Y-65760000I-249999J0D01*
G01*
X149279999Y-65760000D01*
G75*
G02*
X149030000Y-65510001I0J249999D01*
G01*
X149030000Y-64609999D01*
G75*
G02*
X149279999Y-64360000I249999J0D01*
G01*
X149930001Y-64360000D01*
G75*
G02*
X150180000Y-64609999I0J-249999D01*
G01*
G37*
G36*
G01*
X152230000Y-64609999D02*
X152230000Y-65510001D01*
G75*
G02*
X151980001Y-65760000I-249999J0D01*
G01*
X151329999Y-65760000D01*
G75*
G02*
X151080000Y-65510001I0J249999D01*
G01*
X151080000Y-64609999D01*
G75*
G02*
X151329999Y-64360000I249999J0D01*
G01*
X151980001Y-64360000D01*
G75*
G02*
X152230000Y-64609999I0J-249999D01*
G01*
G37*
%TD*%
%TO.C,C12*%
G36*
G01*
X163740001Y-107990000D02*
X162839999Y-107990000D01*
G75*
G02*
X162590000Y-107740001I0J249999D01*
G01*
X162590000Y-107089999D01*
G75*
G02*
X162839999Y-106840000I249999J0D01*
G01*
X163740001Y-106840000D01*
G75*
G02*
X163990000Y-107089999I0J-249999D01*
G01*
X163990000Y-107740001D01*
G75*
G02*
X163740001Y-107990000I-249999J0D01*
G01*
G37*
G36*
G01*
X163740001Y-110040000D02*
X162839999Y-110040000D01*
G75*
G02*
X162590000Y-109790001I0J249999D01*
G01*
X162590000Y-109139999D01*
G75*
G02*
X162839999Y-108890000I249999J0D01*
G01*
X163740001Y-108890000D01*
G75*
G02*
X163990000Y-109139999I0J-249999D01*
G01*
X163990000Y-109790001D01*
G75*
G02*
X163740001Y-110040000I-249999J0D01*
G01*
G37*
%TD*%
%TO.C,C11*%
G36*
G01*
X159729999Y-123250000D02*
X160630001Y-123250000D01*
G75*
G02*
X160880000Y-123499999I0J-249999D01*
G01*
X160880000Y-124150001D01*
G75*
G02*
X160630001Y-124400000I-249999J0D01*
G01*
X159729999Y-124400000D01*
G75*
G02*
X159480000Y-124150001I0J249999D01*
G01*
X159480000Y-123499999D01*
G75*
G02*
X159729999Y-123250000I249999J0D01*
G01*
G37*
G36*
G01*
X159729999Y-121200000D02*
X160630001Y-121200000D01*
G75*
G02*
X160880000Y-121449999I0J-249999D01*
G01*
X160880000Y-122100001D01*
G75*
G02*
X160630001Y-122350000I-249999J0D01*
G01*
X159729999Y-122350000D01*
G75*
G02*
X159480000Y-122100001I0J249999D01*
G01*
X159480000Y-121449999D01*
G75*
G02*
X159729999Y-121200000I249999J0D01*
G01*
G37*
%TD*%
%TO.C,C10*%
G36*
G01*
X161939999Y-123240000D02*
X162840001Y-123240000D01*
G75*
G02*
X163090000Y-123489999I0J-249999D01*
G01*
X163090000Y-124140001D01*
G75*
G02*
X162840001Y-124390000I-249999J0D01*
G01*
X161939999Y-124390000D01*
G75*
G02*
X161690000Y-124140001I0J249999D01*
G01*
X161690000Y-123489999D01*
G75*
G02*
X161939999Y-123240000I249999J0D01*
G01*
G37*
G36*
G01*
X161939999Y-121190000D02*
X162840001Y-121190000D01*
G75*
G02*
X163090000Y-121439999I0J-249999D01*
G01*
X163090000Y-122090001D01*
G75*
G02*
X162840001Y-122340000I-249999J0D01*
G01*
X161939999Y-122340000D01*
G75*
G02*
X161690000Y-122090001I0J249999D01*
G01*
X161690000Y-121439999D01*
G75*
G02*
X161939999Y-121190000I249999J0D01*
G01*
G37*
%TD*%
%TO.C,C9*%
G36*
G01*
X140669999Y-86155000D02*
X141570001Y-86155000D01*
G75*
G02*
X141820000Y-86404999I0J-249999D01*
G01*
X141820000Y-87055001D01*
G75*
G02*
X141570001Y-87305000I-249999J0D01*
G01*
X140669999Y-87305000D01*
G75*
G02*
X140420000Y-87055001I0J249999D01*
G01*
X140420000Y-86404999D01*
G75*
G02*
X140669999Y-86155000I249999J0D01*
G01*
G37*
G36*
G01*
X140669999Y-84105000D02*
X141570001Y-84105000D01*
G75*
G02*
X141820000Y-84354999I0J-249999D01*
G01*
X141820000Y-85005001D01*
G75*
G02*
X141570001Y-85255000I-249999J0D01*
G01*
X140669999Y-85255000D01*
G75*
G02*
X140420000Y-85005001I0J249999D01*
G01*
X140420000Y-84354999D01*
G75*
G02*
X140669999Y-84105000I249999J0D01*
G01*
G37*
%TD*%
%TO.C,C8*%
G36*
G01*
X142869999Y-86185000D02*
X143770001Y-86185000D01*
G75*
G02*
X144020000Y-86434999I0J-249999D01*
G01*
X144020000Y-87085001D01*
G75*
G02*
X143770001Y-87335000I-249999J0D01*
G01*
X142869999Y-87335000D01*
G75*
G02*
X142620000Y-87085001I0J249999D01*
G01*
X142620000Y-86434999D01*
G75*
G02*
X142869999Y-86185000I249999J0D01*
G01*
G37*
G36*
G01*
X142869999Y-84135000D02*
X143770001Y-84135000D01*
G75*
G02*
X144020000Y-84384999I0J-249999D01*
G01*
X144020000Y-85035001D01*
G75*
G02*
X143770001Y-85285000I-249999J0D01*
G01*
X142869999Y-85285000D01*
G75*
G02*
X142620000Y-85035001I0J249999D01*
G01*
X142620000Y-84384999D01*
G75*
G02*
X142869999Y-84135000I249999J0D01*
G01*
G37*
%TD*%
%TO.C,C7*%
G36*
G01*
X153960001Y-85515000D02*
X153059999Y-85515000D01*
G75*
G02*
X152810000Y-85265001I0J249999D01*
G01*
X152810000Y-84614999D01*
G75*
G02*
X153059999Y-84365000I249999J0D01*
G01*
X153960001Y-84365000D01*
G75*
G02*
X154210000Y-84614999I0J-249999D01*
G01*
X154210000Y-85265001D01*
G75*
G02*
X153960001Y-85515000I-249999J0D01*
G01*
G37*
G36*
G01*
X153960001Y-87565000D02*
X153059999Y-87565000D01*
G75*
G02*
X152810000Y-87315001I0J249999D01*
G01*
X152810000Y-86664999D01*
G75*
G02*
X153059999Y-86415000I249999J0D01*
G01*
X153960001Y-86415000D01*
G75*
G02*
X154210000Y-86664999I0J-249999D01*
G01*
X154210000Y-87315001D01*
G75*
G02*
X153960001Y-87565000I-249999J0D01*
G01*
G37*
%TD*%
%TO.C,C5*%
G36*
G01*
X135100001Y-82680000D02*
X134199999Y-82680000D01*
G75*
G02*
X133950000Y-82430001I0J249999D01*
G01*
X133950000Y-81779999D01*
G75*
G02*
X134199999Y-81530000I249999J0D01*
G01*
X135100001Y-81530000D01*
G75*
G02*
X135350000Y-81779999I0J-249999D01*
G01*
X135350000Y-82430001D01*
G75*
G02*
X135100001Y-82680000I-249999J0D01*
G01*
G37*
G36*
G01*
X135100001Y-84730000D02*
X134199999Y-84730000D01*
G75*
G02*
X133950000Y-84480001I0J249999D01*
G01*
X133950000Y-83829999D01*
G75*
G02*
X134199999Y-83580000I249999J0D01*
G01*
X135100001Y-83580000D01*
G75*
G02*
X135350000Y-83829999I0J-249999D01*
G01*
X135350000Y-84480001D01*
G75*
G02*
X135100001Y-84730000I-249999J0D01*
G01*
G37*
%TD*%
%TO.C,C4*%
G36*
G01*
X159169999Y-75250000D02*
X160070001Y-75250000D01*
G75*
G02*
X160320000Y-75499999I0J-249999D01*
G01*
X160320000Y-76150001D01*
G75*
G02*
X160070001Y-76400000I-249999J0D01*
G01*
X159169999Y-76400000D01*
G75*
G02*
X158920000Y-76150001I0J249999D01*
G01*
X158920000Y-75499999D01*
G75*
G02*
X159169999Y-75250000I249999J0D01*
G01*
G37*
G36*
G01*
X159169999Y-77300000D02*
X160070001Y-77300000D01*
G75*
G02*
X160320000Y-77549999I0J-249999D01*
G01*
X160320000Y-78200001D01*
G75*
G02*
X160070001Y-78450000I-249999J0D01*
G01*
X159169999Y-78450000D01*
G75*
G02*
X158920000Y-78200001I0J249999D01*
G01*
X158920000Y-77549999D01*
G75*
G02*
X159169999Y-77300000I249999J0D01*
G01*
G37*
%TD*%
%TO.C,C3*%
G36*
G01*
X151140001Y-74930000D02*
X150239999Y-74930000D01*
G75*
G02*
X149990000Y-74680001I0J249999D01*
G01*
X149990000Y-74029999D01*
G75*
G02*
X150239999Y-73780000I249999J0D01*
G01*
X151140001Y-73780000D01*
G75*
G02*
X151390000Y-74029999I0J-249999D01*
G01*
X151390000Y-74680001D01*
G75*
G02*
X151140001Y-74930000I-249999J0D01*
G01*
G37*
G36*
G01*
X151140001Y-72880000D02*
X150239999Y-72880000D01*
G75*
G02*
X149990000Y-72630001I0J249999D01*
G01*
X149990000Y-71979999D01*
G75*
G02*
X150239999Y-71730000I249999J0D01*
G01*
X151140001Y-71730000D01*
G75*
G02*
X151390000Y-71979999I0J-249999D01*
G01*
X151390000Y-72630001D01*
G75*
G02*
X151140001Y-72880000I-249999J0D01*
G01*
G37*
%TD*%
%TO.C,C2*%
G36*
G01*
X146700000Y-67480001D02*
X146700000Y-66579999D01*
G75*
G02*
X146949999Y-66330000I249999J0D01*
G01*
X147600001Y-66330000D01*
G75*
G02*
X147850000Y-66579999I0J-249999D01*
G01*
X147850000Y-67480001D01*
G75*
G02*
X147600001Y-67730000I-249999J0D01*
G01*
X146949999Y-67730000D01*
G75*
G02*
X146700000Y-67480001I0J249999D01*
G01*
G37*
G36*
G01*
X144650000Y-67480001D02*
X144650000Y-66579999D01*
G75*
G02*
X144899999Y-66330000I249999J0D01*
G01*
X145550001Y-66330000D01*
G75*
G02*
X145800000Y-66579999I0J-249999D01*
G01*
X145800000Y-67480001D01*
G75*
G02*
X145550001Y-67730000I-249999J0D01*
G01*
X144899999Y-67730000D01*
G75*
G02*
X144650000Y-67480001I0J249999D01*
G01*
G37*
%TD*%
%TO.C,C1*%
G36*
G01*
X134159999Y-76270000D02*
X135060001Y-76270000D01*
G75*
G02*
X135310000Y-76519999I0J-249999D01*
G01*
X135310000Y-77170001D01*
G75*
G02*
X135060001Y-77420000I-249999J0D01*
G01*
X134159999Y-77420000D01*
G75*
G02*
X133910000Y-77170001I0J249999D01*
G01*
X133910000Y-76519999D01*
G75*
G02*
X134159999Y-76270000I249999J0D01*
G01*
G37*
G36*
G01*
X134159999Y-74220000D02*
X135060001Y-74220000D01*
G75*
G02*
X135310000Y-74469999I0J-249999D01*
G01*
X135310000Y-75120001D01*
G75*
G02*
X135060001Y-75370000I-249999J0D01*
G01*
X134159999Y-75370000D01*
G75*
G02*
X133910000Y-75120001I0J249999D01*
G01*
X133910000Y-74469999D01*
G75*
G02*
X134159999Y-74220000I249999J0D01*
G01*
G37*
%TD*%
M02*
