%TF.GenerationSoftware,KiCad,Pcbnew,(5.1.10)-1*%
%TF.CreationDate,2021-06-27T19:43:52+02:00*%
%TF.ProjectId,clip,636c6970-2e6b-4696-9361-645f70636258,rev?*%
%TF.SameCoordinates,Original*%
%TF.FileFunction,Copper,L2,Bot*%
%TF.FilePolarity,Positive*%
%FSLAX46Y46*%
G04 Gerber Fmt 4.6, Leading zero omitted, Abs format (unit mm)*
G04 Created by KiCad (PCBNEW (5.1.10)-1) date 2021-06-27 19:43:52*
%MOMM*%
%LPD*%
G01*
G04 APERTURE LIST*
%TA.AperFunction,ComponentPad*%
%ADD10C,3.800000*%
%TD*%
%TA.AperFunction,ComponentPad*%
%ADD11O,1.700000X1.700000*%
%TD*%
%TA.AperFunction,ComponentPad*%
%ADD12R,1.700000X1.700000*%
%TD*%
%TA.AperFunction,ComponentPad*%
%ADD13O,1.800000X1.150000*%
%TD*%
%TA.AperFunction,ComponentPad*%
%ADD14O,2.000000X1.450000*%
%TD*%
%TA.AperFunction,ComponentPad*%
%ADD15O,1.200000X1.750000*%
%TD*%
%TA.AperFunction,ViaPad*%
%ADD16C,0.800000*%
%TD*%
%TA.AperFunction,ViaPad*%
%ADD17C,1.100000*%
%TD*%
%TA.AperFunction,Conductor*%
%ADD18C,0.250000*%
%TD*%
%TA.AperFunction,Conductor*%
%ADD19C,0.500000*%
%TD*%
%TA.AperFunction,Conductor*%
%ADD20C,0.254000*%
%TD*%
%TA.AperFunction,Conductor*%
%ADD21C,0.100000*%
%TD*%
G04 APERTURE END LIST*
D10*
%TO.P,H4,1*%
%TO.N,N/C*%
X129644140Y-123050300D03*
%TD*%
%TO.P,H3,1*%
%TO.N,N/C*%
X168125140Y-123083320D03*
%TD*%
%TO.P,H2,1*%
%TO.N,N/C*%
X168104820Y-75491340D03*
%TD*%
%TO.P,H1,1*%
%TO.N,N/C*%
X129689860Y-75453240D03*
%TD*%
D11*
%TO.P,MOISTURE1,3*%
%TO.N,GND*%
X151439880Y-78953360D03*
%TO.P,MOISTURE1,2*%
%TO.N,+3V3*%
X148899880Y-78953360D03*
D12*
%TO.P,MOISTURE1,1*%
%TO.N,ADC1*%
X146359880Y-78953360D03*
%TD*%
D13*
%TO.P,USB1,6*%
%TO.N,GND*%
X128677120Y-96071920D03*
X128677120Y-88321920D03*
D14*
X132477120Y-95921920D03*
X132477120Y-88471920D03*
%TD*%
D11*
%TO.P,LIS1,8*%
%TO.N,INT*%
X167380000Y-101800000D03*
%TO.P,LIS1,7*%
%TO.N,Net-(LIS1-Pad7)*%
X164840000Y-101800000D03*
%TO.P,LIS1,6*%
%TO.N,Net-(LIS1-Pad6)*%
X162300000Y-101800000D03*
%TO.P,LIS1,5*%
%TO.N,SDA*%
X159760000Y-101800000D03*
%TO.P,LIS1,4*%
%TO.N,SCL*%
X157220000Y-101800000D03*
%TO.P,LIS1,3*%
%TO.N,GND*%
X154680000Y-101800000D03*
%TO.P,LIS1,2*%
%TO.N,Net-(LIS1-Pad2)*%
X152140000Y-101800000D03*
D12*
%TO.P,LIS1,1*%
%TO.N,+3V3*%
X149600000Y-101800000D03*
%TD*%
D11*
%TO.P,VIN1,2*%
%TO.N,GND*%
X135460000Y-78955000D03*
D12*
%TO.P,VIN1,1*%
%TO.N,VBUS*%
X135460000Y-81495000D03*
%TD*%
D11*
%TO.P,FLASH1,6*%
%TO.N,+3V3*%
X134940000Y-122910000D03*
%TO.P,FLASH1,5*%
%TO.N,TX0*%
X134940000Y-120370000D03*
%TO.P,FLASH1,4*%
%TO.N,RX0*%
X134940000Y-117830000D03*
%TO.P,FLASH1,3*%
%TO.N,EN*%
X134940000Y-115290000D03*
%TO.P,FLASH1,2*%
%TO.N,IO0*%
X134940000Y-112750000D03*
D12*
%TO.P,FLASH1,1*%
%TO.N,GND*%
X134940000Y-110210000D03*
%TD*%
D11*
%TO.P,BME1,7*%
%TO.N,Net-(BME1-Pad7)*%
X145943320Y-101800660D03*
%TO.P,BME1,6*%
%TO.N,SDA*%
X143403320Y-101800660D03*
%TO.P,BME1,5*%
%TO.N,Net-(BME1-Pad5)*%
X140863320Y-101800660D03*
%TO.P,BME1,4*%
%TO.N,SCL*%
X138323320Y-101800660D03*
%TO.P,BME1,3*%
%TO.N,GND*%
X135783320Y-101800660D03*
%TO.P,BME1,2*%
%TO.N,Net-(BME1-Pad2)*%
X133243320Y-101800660D03*
D12*
%TO.P,BME1,1*%
%TO.N,+3V3*%
X130703320Y-101800660D03*
%TD*%
D15*
%TO.P,BATTERY1,2*%
%TO.N,GND*%
X131650000Y-85025000D03*
%TO.P,BATTERY1,1*%
%TO.N,+BATT*%
%TA.AperFunction,ComponentPad*%
G36*
G01*
X129050000Y-85650001D02*
X129050000Y-84399999D01*
G75*
G02*
X129299999Y-84150000I249999J0D01*
G01*
X130000001Y-84150000D01*
G75*
G02*
X130250000Y-84399999I0J-249999D01*
G01*
X130250000Y-85650001D01*
G75*
G02*
X130000001Y-85900000I-249999J0D01*
G01*
X129299999Y-85900000D01*
G75*
G02*
X129050000Y-85650001I0J249999D01*
G01*
G37*
%TD.AperFunction*%
%TD*%
D16*
%TO.N,GND*%
X149990460Y-86489540D03*
X165090000Y-116780000D03*
X165070000Y-120020000D03*
X165100002Y-113070000D03*
X150000000Y-92183920D03*
X155559760Y-92196920D03*
X165080000Y-123840000D03*
D17*
%TO.N,+BATT*%
X138917682Y-89529920D03*
X138904980Y-93898718D03*
%TO.N,VBUS*%
X135480000Y-90891360D03*
X135439988Y-85110012D03*
D16*
%TO.N,EN*%
X153930000Y-121340000D03*
%TO.N,SDA*%
X143360000Y-115130000D03*
%TO.N,SCL*%
X142560000Y-119050000D03*
%TO.N,Net-(C3-Pad1)*%
X158920160Y-89823640D03*
X155557220Y-89844880D03*
%TO.N,ADC1*%
X163169998Y-105100000D03*
%TD*%
D18*
%TO.N,GND*%
X165090000Y-116780000D02*
X165090000Y-113080002D01*
X165090000Y-113080002D02*
X165100002Y-113070000D01*
X149990460Y-92174380D02*
X150000000Y-92183920D01*
X149990460Y-86489540D02*
X149990460Y-92174380D01*
X155546760Y-92183920D02*
X155559760Y-92196920D01*
X150000000Y-92183920D02*
X155546760Y-92183920D01*
X165070000Y-123830000D02*
X165080000Y-123840000D01*
X165070000Y-120020000D02*
X165070000Y-123830000D01*
D19*
%TO.N,+BATT*%
X138917682Y-93886016D02*
X138904980Y-93898718D01*
X138917682Y-89529920D02*
X138917682Y-93886016D01*
%TO.N,VBUS*%
X135450000Y-90923840D02*
X135450000Y-85120024D01*
X135450000Y-85120024D02*
X135439988Y-85110012D01*
D18*
%TO.N,EN*%
X153900000Y-121310000D02*
X153930000Y-121340000D01*
X138020000Y-121340000D02*
X153930000Y-121340000D01*
X136890000Y-120210000D02*
X138020000Y-121340000D01*
X136890000Y-116050000D02*
X136890000Y-120210000D01*
X136100000Y-115260000D02*
X136890000Y-116050000D01*
X134870000Y-115260000D02*
X136100000Y-115260000D01*
%TO.N,SDA*%
X157770000Y-103790000D02*
X159630000Y-101930000D01*
X145290000Y-103790000D02*
X157770000Y-103790000D01*
X143370000Y-101870000D02*
X145290000Y-103790000D01*
X143370000Y-115120000D02*
X143370000Y-101870000D01*
X143360000Y-115130000D02*
X143370000Y-115120000D01*
%TO.N,SCL*%
X157140000Y-101880000D02*
X157240000Y-101880000D01*
X154647660Y-99387660D02*
X157140000Y-101880000D01*
X138290000Y-101870000D02*
X140772340Y-99387660D01*
X140772340Y-99387660D02*
X154647660Y-99387660D01*
X142560000Y-106140000D02*
X138290000Y-101870000D01*
X142560000Y-119050000D02*
X142560000Y-106140000D01*
D19*
%TO.N,Net-(C3-Pad1)*%
X158920160Y-89823640D02*
X155578460Y-89823640D01*
X155578460Y-89823640D02*
X155557220Y-89844880D01*
D18*
%TO.N,ADC1*%
X167581700Y-105100000D02*
X163169998Y-105100000D01*
X169438320Y-103243380D02*
X167581700Y-105100000D01*
X166646860Y-83484720D02*
X169438320Y-86276180D01*
X147975320Y-83484720D02*
X166646860Y-83484720D01*
X169438320Y-86276180D02*
X169438320Y-103243380D01*
X146410680Y-81920080D02*
X147975320Y-83484720D01*
X146410680Y-78981300D02*
X146410680Y-81920080D01*
%TD*%
D20*
%TO.N,GND*%
X166086171Y-73949583D02*
X165858332Y-74290567D01*
X165667238Y-74751908D01*
X165569820Y-75241664D01*
X165569820Y-75741016D01*
X165667238Y-76230772D01*
X165858332Y-76692113D01*
X166135757Y-77107308D01*
X166488852Y-77460403D01*
X166904047Y-77737828D01*
X167365388Y-77928922D01*
X167855144Y-78026340D01*
X168354496Y-78026340D01*
X168844252Y-77928922D01*
X169305593Y-77737828D01*
X169645000Y-77511043D01*
X169645000Y-85408058D01*
X167210664Y-82973723D01*
X167186861Y-82944719D01*
X167071136Y-82849746D01*
X166939107Y-82779174D01*
X166795846Y-82735717D01*
X166684193Y-82724720D01*
X166684182Y-82724720D01*
X166646860Y-82721044D01*
X166609538Y-82724720D01*
X148290122Y-82724720D01*
X147170680Y-81605279D01*
X147170680Y-80441432D01*
X147209880Y-80441432D01*
X147334362Y-80429172D01*
X147454060Y-80392862D01*
X147564374Y-80333897D01*
X147661065Y-80254545D01*
X147740417Y-80157854D01*
X147799382Y-80047540D01*
X147821393Y-79974980D01*
X147953248Y-80106835D01*
X148196469Y-80269350D01*
X148466722Y-80381292D01*
X148753620Y-80438360D01*
X149046140Y-80438360D01*
X149333038Y-80381292D01*
X149603291Y-80269350D01*
X149846512Y-80106835D01*
X150053355Y-79899992D01*
X150175075Y-79717826D01*
X150244702Y-79834715D01*
X150439611Y-80050948D01*
X150672960Y-80225001D01*
X150935781Y-80350185D01*
X151082990Y-80394836D01*
X151312880Y-80273515D01*
X151312880Y-79080360D01*
X151566880Y-79080360D01*
X151566880Y-80273515D01*
X151796770Y-80394836D01*
X151943979Y-80350185D01*
X152206800Y-80225001D01*
X152440149Y-80050948D01*
X152635058Y-79834715D01*
X152784037Y-79584612D01*
X152881361Y-79310251D01*
X152760694Y-79080360D01*
X151566880Y-79080360D01*
X151312880Y-79080360D01*
X151292880Y-79080360D01*
X151292880Y-78826360D01*
X151312880Y-78826360D01*
X151312880Y-77633205D01*
X151566880Y-77633205D01*
X151566880Y-78826360D01*
X152760694Y-78826360D01*
X152881361Y-78596469D01*
X152784037Y-78322108D01*
X152635058Y-78072005D01*
X152440149Y-77855772D01*
X152206800Y-77681719D01*
X151943979Y-77556535D01*
X151796770Y-77511884D01*
X151566880Y-77633205D01*
X151312880Y-77633205D01*
X151082990Y-77511884D01*
X150935781Y-77556535D01*
X150672960Y-77681719D01*
X150439611Y-77855772D01*
X150244702Y-78072005D01*
X150175075Y-78188894D01*
X150053355Y-78006728D01*
X149846512Y-77799885D01*
X149603291Y-77637370D01*
X149333038Y-77525428D01*
X149046140Y-77468360D01*
X148753620Y-77468360D01*
X148466722Y-77525428D01*
X148196469Y-77637370D01*
X147953248Y-77799885D01*
X147821393Y-77931740D01*
X147799382Y-77859180D01*
X147740417Y-77748866D01*
X147661065Y-77652175D01*
X147564374Y-77572823D01*
X147454060Y-77513858D01*
X147334362Y-77477548D01*
X147209880Y-77465288D01*
X145509880Y-77465288D01*
X145385398Y-77477548D01*
X145265700Y-77513858D01*
X145155386Y-77572823D01*
X145058695Y-77652175D01*
X144979343Y-77748866D01*
X144920378Y-77859180D01*
X144884068Y-77978878D01*
X144871808Y-78103360D01*
X144871808Y-79803360D01*
X144884068Y-79927842D01*
X144920378Y-80047540D01*
X144979343Y-80157854D01*
X145058695Y-80254545D01*
X145155386Y-80333897D01*
X145265700Y-80392862D01*
X145385398Y-80429172D01*
X145509880Y-80441432D01*
X145650680Y-80441432D01*
X145650681Y-81882748D01*
X145647004Y-81920080D01*
X145661678Y-82069065D01*
X145705134Y-82212326D01*
X145775706Y-82344356D01*
X145846881Y-82431082D01*
X145870680Y-82460081D01*
X145899678Y-82483879D01*
X147411520Y-83995722D01*
X147435319Y-84024721D01*
X147464317Y-84048519D01*
X147551043Y-84119694D01*
X147626551Y-84160054D01*
X147683073Y-84190266D01*
X147826334Y-84233723D01*
X147937987Y-84244720D01*
X147937996Y-84244720D01*
X147975319Y-84248396D01*
X148012642Y-84244720D01*
X166332059Y-84244720D01*
X168678320Y-86590982D01*
X168678321Y-101070145D01*
X168533475Y-100853368D01*
X168326632Y-100646525D01*
X168083411Y-100484010D01*
X167813158Y-100372068D01*
X167526260Y-100315000D01*
X167233740Y-100315000D01*
X166946842Y-100372068D01*
X166676589Y-100484010D01*
X166433368Y-100646525D01*
X166226525Y-100853368D01*
X166110000Y-101027760D01*
X165993475Y-100853368D01*
X165786632Y-100646525D01*
X165543411Y-100484010D01*
X165273158Y-100372068D01*
X164986260Y-100315000D01*
X164693740Y-100315000D01*
X164406842Y-100372068D01*
X164136589Y-100484010D01*
X163893368Y-100646525D01*
X163686525Y-100853368D01*
X163570000Y-101027760D01*
X163453475Y-100853368D01*
X163246632Y-100646525D01*
X163003411Y-100484010D01*
X162733158Y-100372068D01*
X162446260Y-100315000D01*
X162153740Y-100315000D01*
X161866842Y-100372068D01*
X161596589Y-100484010D01*
X161353368Y-100646525D01*
X161146525Y-100853368D01*
X161030000Y-101027760D01*
X160913475Y-100853368D01*
X160706632Y-100646525D01*
X160463411Y-100484010D01*
X160193158Y-100372068D01*
X159906260Y-100315000D01*
X159613740Y-100315000D01*
X159326842Y-100372068D01*
X159056589Y-100484010D01*
X158813368Y-100646525D01*
X158606525Y-100853368D01*
X158490000Y-101027760D01*
X158373475Y-100853368D01*
X158166632Y-100646525D01*
X157923411Y-100484010D01*
X157653158Y-100372068D01*
X157366260Y-100315000D01*
X157073740Y-100315000D01*
X156786842Y-100372068D01*
X156730293Y-100395491D01*
X155211464Y-98876663D01*
X155187661Y-98847659D01*
X155071936Y-98752686D01*
X154939907Y-98682114D01*
X154796646Y-98638657D01*
X154684993Y-98627660D01*
X154684982Y-98627660D01*
X154647660Y-98623984D01*
X154610338Y-98627660D01*
X140809663Y-98627660D01*
X140772340Y-98623984D01*
X140735017Y-98627660D01*
X140735007Y-98627660D01*
X140623354Y-98638657D01*
X140480093Y-98682114D01*
X140348063Y-98752686D01*
X140264423Y-98821328D01*
X140232339Y-98847659D01*
X140208541Y-98876657D01*
X138719772Y-100365427D01*
X138469580Y-100315660D01*
X138177060Y-100315660D01*
X137890162Y-100372728D01*
X137619909Y-100484670D01*
X137376688Y-100647185D01*
X137169845Y-100854028D01*
X137048125Y-101036194D01*
X136978498Y-100919305D01*
X136783589Y-100703072D01*
X136550240Y-100529019D01*
X136287419Y-100403835D01*
X136140210Y-100359184D01*
X135910320Y-100480505D01*
X135910320Y-101673660D01*
X135930320Y-101673660D01*
X135930320Y-101927660D01*
X135910320Y-101927660D01*
X135910320Y-103120815D01*
X136140210Y-103242136D01*
X136287419Y-103197485D01*
X136550240Y-103072301D01*
X136783589Y-102898248D01*
X136978498Y-102682015D01*
X137048125Y-102565126D01*
X137169845Y-102747292D01*
X137376688Y-102954135D01*
X137619909Y-103116650D01*
X137890162Y-103228592D01*
X138177060Y-103285660D01*
X138469580Y-103285660D01*
X138604101Y-103258902D01*
X141800001Y-106454803D01*
X141800000Y-118346289D01*
X141756063Y-118390226D01*
X141642795Y-118559744D01*
X141564774Y-118748102D01*
X141525000Y-118948061D01*
X141525000Y-119151939D01*
X141564774Y-119351898D01*
X141642795Y-119540256D01*
X141756063Y-119709774D01*
X141900226Y-119853937D01*
X142069744Y-119967205D01*
X142258102Y-120045226D01*
X142458061Y-120085000D01*
X142661939Y-120085000D01*
X142861898Y-120045226D01*
X143050256Y-119967205D01*
X143219774Y-119853937D01*
X143363937Y-119709774D01*
X143477205Y-119540256D01*
X143555226Y-119351898D01*
X143595000Y-119151939D01*
X143595000Y-118948061D01*
X143555226Y-118748102D01*
X143477205Y-118559744D01*
X143363937Y-118390226D01*
X143320000Y-118346289D01*
X143320000Y-116165000D01*
X143461939Y-116165000D01*
X143661898Y-116125226D01*
X143850256Y-116047205D01*
X144019774Y-115933937D01*
X144163937Y-115789774D01*
X144277205Y-115620256D01*
X144355226Y-115431898D01*
X144395000Y-115231939D01*
X144395000Y-115028061D01*
X144355226Y-114828102D01*
X144277205Y-114639744D01*
X144163937Y-114470226D01*
X144130000Y-114436289D01*
X144130000Y-109658061D01*
X161465000Y-109658061D01*
X161465000Y-109861939D01*
X161504774Y-110061898D01*
X161582795Y-110250256D01*
X161696063Y-110419774D01*
X161840226Y-110563937D01*
X162009744Y-110677205D01*
X162198102Y-110755226D01*
X162398061Y-110795000D01*
X162601939Y-110795000D01*
X162801898Y-110755226D01*
X162990256Y-110677205D01*
X163159774Y-110563937D01*
X163303937Y-110419774D01*
X163417205Y-110250256D01*
X163495226Y-110061898D01*
X163535000Y-109861939D01*
X163535000Y-109658061D01*
X163495226Y-109458102D01*
X163417205Y-109269744D01*
X163303937Y-109100226D01*
X163159774Y-108956063D01*
X162990256Y-108842795D01*
X162801898Y-108764774D01*
X162601939Y-108725000D01*
X162398061Y-108725000D01*
X162198102Y-108764774D01*
X162009744Y-108842795D01*
X161840226Y-108956063D01*
X161696063Y-109100226D01*
X161582795Y-109269744D01*
X161504774Y-109458102D01*
X161465000Y-109658061D01*
X144130000Y-109658061D01*
X144130000Y-103704802D01*
X144726201Y-104301003D01*
X144749999Y-104330001D01*
X144778997Y-104353799D01*
X144865723Y-104424974D01*
X144997753Y-104495546D01*
X145141014Y-104539003D01*
X145252667Y-104550000D01*
X145252676Y-104550000D01*
X145289999Y-104553676D01*
X145327322Y-104550000D01*
X157732678Y-104550000D01*
X157770000Y-104553676D01*
X157807322Y-104550000D01*
X157807333Y-104550000D01*
X157918986Y-104539003D01*
X158062247Y-104495546D01*
X158194276Y-104424974D01*
X158310001Y-104330001D01*
X158333804Y-104300997D01*
X159393592Y-103241210D01*
X159613740Y-103285000D01*
X159906260Y-103285000D01*
X160193158Y-103227932D01*
X160463411Y-103115990D01*
X160706632Y-102953475D01*
X160913475Y-102746632D01*
X161030000Y-102572240D01*
X161146525Y-102746632D01*
X161353368Y-102953475D01*
X161596589Y-103115990D01*
X161866842Y-103227932D01*
X162153740Y-103285000D01*
X162446260Y-103285000D01*
X162733158Y-103227932D01*
X163003411Y-103115990D01*
X163246632Y-102953475D01*
X163453475Y-102746632D01*
X163570000Y-102572240D01*
X163686525Y-102746632D01*
X163893368Y-102953475D01*
X164136589Y-103115990D01*
X164406842Y-103227932D01*
X164693740Y-103285000D01*
X164986260Y-103285000D01*
X165273158Y-103227932D01*
X165543411Y-103115990D01*
X165786632Y-102953475D01*
X165993475Y-102746632D01*
X166110000Y-102572240D01*
X166226525Y-102746632D01*
X166433368Y-102953475D01*
X166676589Y-103115990D01*
X166946842Y-103227932D01*
X167233740Y-103285000D01*
X167526260Y-103285000D01*
X167813158Y-103227932D01*
X168083411Y-103115990D01*
X168326632Y-102953475D01*
X168533475Y-102746632D01*
X168678321Y-102529855D01*
X168678321Y-102928577D01*
X167266899Y-104340000D01*
X163873709Y-104340000D01*
X163829772Y-104296063D01*
X163660254Y-104182795D01*
X163471896Y-104104774D01*
X163271937Y-104065000D01*
X163068059Y-104065000D01*
X162868100Y-104104774D01*
X162679742Y-104182795D01*
X162510224Y-104296063D01*
X162366061Y-104440226D01*
X162252793Y-104609744D01*
X162174772Y-104798102D01*
X162134998Y-104998061D01*
X162134998Y-105201939D01*
X162174772Y-105401898D01*
X162252793Y-105590256D01*
X162366061Y-105759774D01*
X162510224Y-105903937D01*
X162679742Y-106017205D01*
X162868100Y-106095226D01*
X163068059Y-106135000D01*
X163271937Y-106135000D01*
X163471896Y-106095226D01*
X163660254Y-106017205D01*
X163829772Y-105903937D01*
X163873709Y-105860000D01*
X167544378Y-105860000D01*
X167581700Y-105863676D01*
X167619022Y-105860000D01*
X167619033Y-105860000D01*
X167730686Y-105849003D01*
X167873947Y-105805546D01*
X168005976Y-105734974D01*
X168121701Y-105640001D01*
X168145504Y-105610997D01*
X169645001Y-104111501D01*
X169645001Y-121050040D01*
X169325913Y-120836832D01*
X168864572Y-120645738D01*
X168374816Y-120548320D01*
X167875464Y-120548320D01*
X167385708Y-120645738D01*
X166924367Y-120836832D01*
X166509172Y-121114257D01*
X166156077Y-121467352D01*
X165878652Y-121882547D01*
X165687558Y-122343888D01*
X165590140Y-122833644D01*
X165590140Y-123332996D01*
X165687558Y-123822752D01*
X165878652Y-124284093D01*
X166098440Y-124613028D01*
X131659499Y-124596981D01*
X131890628Y-124251073D01*
X132081722Y-123789732D01*
X132179140Y-123299976D01*
X132179140Y-122800624D01*
X132081722Y-122310868D01*
X131890628Y-121849527D01*
X131613203Y-121434332D01*
X131260108Y-121081237D01*
X130844913Y-120803812D01*
X130383572Y-120612718D01*
X129893816Y-120515300D01*
X129394464Y-120515300D01*
X128904708Y-120612718D01*
X128443367Y-120803812D01*
X128098681Y-121034124D01*
X128107985Y-111060000D01*
X133451928Y-111060000D01*
X133464188Y-111184482D01*
X133500498Y-111304180D01*
X133559463Y-111414494D01*
X133638815Y-111511185D01*
X133735506Y-111590537D01*
X133845820Y-111649502D01*
X133918380Y-111671513D01*
X133786525Y-111803368D01*
X133624010Y-112046589D01*
X133512068Y-112316842D01*
X133455000Y-112603740D01*
X133455000Y-112896260D01*
X133512068Y-113183158D01*
X133624010Y-113453411D01*
X133786525Y-113696632D01*
X133993368Y-113903475D01*
X134167760Y-114020000D01*
X133993368Y-114136525D01*
X133786525Y-114343368D01*
X133624010Y-114586589D01*
X133512068Y-114856842D01*
X133455000Y-115143740D01*
X133455000Y-115436260D01*
X133512068Y-115723158D01*
X133624010Y-115993411D01*
X133786525Y-116236632D01*
X133993368Y-116443475D01*
X134167760Y-116560000D01*
X133993368Y-116676525D01*
X133786525Y-116883368D01*
X133624010Y-117126589D01*
X133512068Y-117396842D01*
X133455000Y-117683740D01*
X133455000Y-117976260D01*
X133512068Y-118263158D01*
X133624010Y-118533411D01*
X133786525Y-118776632D01*
X133993368Y-118983475D01*
X134167760Y-119100000D01*
X133993368Y-119216525D01*
X133786525Y-119423368D01*
X133624010Y-119666589D01*
X133512068Y-119936842D01*
X133455000Y-120223740D01*
X133455000Y-120516260D01*
X133512068Y-120803158D01*
X133624010Y-121073411D01*
X133786525Y-121316632D01*
X133993368Y-121523475D01*
X134167760Y-121640000D01*
X133993368Y-121756525D01*
X133786525Y-121963368D01*
X133624010Y-122206589D01*
X133512068Y-122476842D01*
X133455000Y-122763740D01*
X133455000Y-123056260D01*
X133512068Y-123343158D01*
X133624010Y-123613411D01*
X133786525Y-123856632D01*
X133993368Y-124063475D01*
X134236589Y-124225990D01*
X134506842Y-124337932D01*
X134793740Y-124395000D01*
X135086260Y-124395000D01*
X135373158Y-124337932D01*
X135643411Y-124225990D01*
X135886632Y-124063475D01*
X136093475Y-123856632D01*
X136255990Y-123613411D01*
X136367932Y-123343158D01*
X136425000Y-123056260D01*
X136425000Y-122763740D01*
X136367932Y-122476842D01*
X136255990Y-122206589D01*
X136093475Y-121963368D01*
X135886632Y-121756525D01*
X135712240Y-121640000D01*
X135886632Y-121523475D01*
X136093475Y-121316632D01*
X136255990Y-121073411D01*
X136367932Y-120803158D01*
X136374505Y-120770112D01*
X136378998Y-120773799D01*
X137456201Y-121851003D01*
X137479999Y-121880001D01*
X137595724Y-121974974D01*
X137727753Y-122045546D01*
X137871014Y-122089003D01*
X137982667Y-122100000D01*
X137982676Y-122100000D01*
X138019999Y-122103676D01*
X138057322Y-122100000D01*
X153226289Y-122100000D01*
X153270226Y-122143937D01*
X153439744Y-122257205D01*
X153628102Y-122335226D01*
X153828061Y-122375000D01*
X154031939Y-122375000D01*
X154231898Y-122335226D01*
X154420256Y-122257205D01*
X154589774Y-122143937D01*
X154733937Y-121999774D01*
X154847205Y-121830256D01*
X154925226Y-121641898D01*
X154965000Y-121441939D01*
X154965000Y-121238061D01*
X154925226Y-121038102D01*
X154847205Y-120849744D01*
X154733937Y-120680226D01*
X154589774Y-120536063D01*
X154420256Y-120422795D01*
X154231898Y-120344774D01*
X154031939Y-120305000D01*
X153828061Y-120305000D01*
X153628102Y-120344774D01*
X153439744Y-120422795D01*
X153270226Y-120536063D01*
X153226289Y-120580000D01*
X138334802Y-120580000D01*
X137650000Y-119895199D01*
X137650000Y-116087325D01*
X137653676Y-116050000D01*
X137650000Y-116012675D01*
X137650000Y-116012667D01*
X137639003Y-115901014D01*
X137595546Y-115757753D01*
X137524974Y-115625724D01*
X137430001Y-115509999D01*
X137401004Y-115486202D01*
X136663803Y-114749002D01*
X136640001Y-114719999D01*
X136524276Y-114625026D01*
X136392247Y-114554454D01*
X136248986Y-114510997D01*
X136202416Y-114506410D01*
X136093475Y-114343368D01*
X135886632Y-114136525D01*
X135712240Y-114020000D01*
X135886632Y-113903475D01*
X136093475Y-113696632D01*
X136255990Y-113453411D01*
X136367932Y-113183158D01*
X136425000Y-112896260D01*
X136425000Y-112603740D01*
X136367932Y-112316842D01*
X136255990Y-112046589D01*
X136093475Y-111803368D01*
X135961620Y-111671513D01*
X136034180Y-111649502D01*
X136144494Y-111590537D01*
X136241185Y-111511185D01*
X136320537Y-111414494D01*
X136379502Y-111304180D01*
X136415812Y-111184482D01*
X136428072Y-111060000D01*
X136425000Y-110495750D01*
X136266250Y-110337000D01*
X135067000Y-110337000D01*
X135067000Y-110357000D01*
X134813000Y-110357000D01*
X134813000Y-110337000D01*
X133613750Y-110337000D01*
X133455000Y-110495750D01*
X133451928Y-111060000D01*
X128107985Y-111060000D01*
X128109571Y-109360000D01*
X133451928Y-109360000D01*
X133455000Y-109924250D01*
X133613750Y-110083000D01*
X134813000Y-110083000D01*
X134813000Y-108883750D01*
X135067000Y-108883750D01*
X135067000Y-110083000D01*
X136266250Y-110083000D01*
X136425000Y-109924250D01*
X136428072Y-109360000D01*
X136415812Y-109235518D01*
X136379502Y-109115820D01*
X136320537Y-109005506D01*
X136241185Y-108908815D01*
X136144494Y-108829463D01*
X136034180Y-108770498D01*
X135914482Y-108734188D01*
X135790000Y-108721928D01*
X135225750Y-108725000D01*
X135067000Y-108883750D01*
X134813000Y-108883750D01*
X134654250Y-108725000D01*
X134090000Y-108721928D01*
X133965518Y-108734188D01*
X133845820Y-108770498D01*
X133735506Y-108829463D01*
X133638815Y-108908815D01*
X133559463Y-109005506D01*
X133500498Y-109115820D01*
X133464188Y-109235518D01*
X133451928Y-109360000D01*
X128109571Y-109360000D01*
X128117417Y-100950660D01*
X129215248Y-100950660D01*
X129215248Y-102650660D01*
X129227508Y-102775142D01*
X129263818Y-102894840D01*
X129322783Y-103005154D01*
X129402135Y-103101845D01*
X129498826Y-103181197D01*
X129609140Y-103240162D01*
X129728838Y-103276472D01*
X129853320Y-103288732D01*
X131553320Y-103288732D01*
X131677802Y-103276472D01*
X131797500Y-103240162D01*
X131907814Y-103181197D01*
X132004505Y-103101845D01*
X132083857Y-103005154D01*
X132142822Y-102894840D01*
X132164833Y-102822280D01*
X132296688Y-102954135D01*
X132539909Y-103116650D01*
X132810162Y-103228592D01*
X133097060Y-103285660D01*
X133389580Y-103285660D01*
X133676478Y-103228592D01*
X133946731Y-103116650D01*
X134189952Y-102954135D01*
X134396795Y-102747292D01*
X134518515Y-102565126D01*
X134588142Y-102682015D01*
X134783051Y-102898248D01*
X135016400Y-103072301D01*
X135279221Y-103197485D01*
X135426430Y-103242136D01*
X135656320Y-103120815D01*
X135656320Y-101927660D01*
X135636320Y-101927660D01*
X135636320Y-101673660D01*
X135656320Y-101673660D01*
X135656320Y-100480505D01*
X135426430Y-100359184D01*
X135279221Y-100403835D01*
X135016400Y-100529019D01*
X134783051Y-100703072D01*
X134588142Y-100919305D01*
X134518515Y-101036194D01*
X134396795Y-100854028D01*
X134189952Y-100647185D01*
X133946731Y-100484670D01*
X133676478Y-100372728D01*
X133389580Y-100315660D01*
X133097060Y-100315660D01*
X132810162Y-100372728D01*
X132539909Y-100484670D01*
X132296688Y-100647185D01*
X132164833Y-100779040D01*
X132142822Y-100706480D01*
X132083857Y-100596166D01*
X132004505Y-100499475D01*
X131907814Y-100420123D01*
X131797500Y-100361158D01*
X131677802Y-100324848D01*
X131553320Y-100312588D01*
X129853320Y-100312588D01*
X129728838Y-100324848D01*
X129609140Y-100361158D01*
X129498826Y-100420123D01*
X129402135Y-100499475D01*
X129322783Y-100596166D01*
X129263818Y-100706480D01*
X129227508Y-100826178D01*
X129215248Y-100950660D01*
X128117417Y-100950660D01*
X128120860Y-97260487D01*
X128225120Y-97281920D01*
X128550120Y-97281920D01*
X128550120Y-96198920D01*
X128804120Y-96198920D01*
X128804120Y-97281920D01*
X129129120Y-97281920D01*
X129362739Y-97233894D01*
X129582500Y-97141214D01*
X129779957Y-97007441D01*
X129947522Y-96837717D01*
X130078756Y-96638564D01*
X130168616Y-96417635D01*
X130170755Y-96385597D01*
X130086047Y-96259178D01*
X130884601Y-96259178D01*
X130897042Y-96325037D01*
X131000763Y-96571899D01*
X131150651Y-96793783D01*
X131340947Y-96982162D01*
X131564337Y-97129796D01*
X131812237Y-97231012D01*
X132075120Y-97281920D01*
X132350120Y-97281920D01*
X132350120Y-96048920D01*
X132604120Y-96048920D01*
X132604120Y-97281920D01*
X132879120Y-97281920D01*
X133142003Y-97231012D01*
X133389903Y-97129796D01*
X133613293Y-96982162D01*
X133803589Y-96793783D01*
X133953477Y-96571899D01*
X134057198Y-96325037D01*
X134069639Y-96259178D01*
X133946638Y-96048920D01*
X132604120Y-96048920D01*
X132350120Y-96048920D01*
X131007602Y-96048920D01*
X130884601Y-96259178D01*
X130086047Y-96259178D01*
X130045670Y-96198920D01*
X128804120Y-96198920D01*
X128550120Y-96198920D01*
X128530120Y-96198920D01*
X128530120Y-95944920D01*
X128550120Y-95944920D01*
X128550120Y-94861920D01*
X128804120Y-94861920D01*
X128804120Y-95944920D01*
X130045670Y-95944920D01*
X130170755Y-95758243D01*
X130168616Y-95726205D01*
X130078756Y-95505276D01*
X129947522Y-95306123D01*
X129779957Y-95136399D01*
X129582500Y-95002626D01*
X129362739Y-94909946D01*
X129129120Y-94861920D01*
X128804120Y-94861920D01*
X128550120Y-94861920D01*
X128225120Y-94861920D01*
X128123078Y-94882897D01*
X128123346Y-94594981D01*
X130392120Y-94594981D01*
X130392120Y-94798859D01*
X130431894Y-94998818D01*
X130509915Y-95187176D01*
X130623183Y-95356694D01*
X130767346Y-95500857D01*
X130885516Y-95579816D01*
X130884601Y-95584662D01*
X131007602Y-95794920D01*
X132350120Y-95794920D01*
X132350120Y-95173186D01*
X132422346Y-94998818D01*
X132462120Y-94798859D01*
X132462120Y-94594981D01*
X132455544Y-94561920D01*
X132604120Y-94561920D01*
X132604120Y-95794920D01*
X133946638Y-95794920D01*
X134069639Y-95584662D01*
X134057198Y-95518803D01*
X133953477Y-95271941D01*
X133803589Y-95050057D01*
X133613293Y-94861678D01*
X133389903Y-94714044D01*
X133142003Y-94612828D01*
X132879120Y-94561920D01*
X132604120Y-94561920D01*
X132455544Y-94561920D01*
X132422346Y-94395022D01*
X132344325Y-94206664D01*
X132231057Y-94037146D01*
X132086894Y-93892983D01*
X131920805Y-93782006D01*
X137719980Y-93782006D01*
X137719980Y-94015430D01*
X137765519Y-94244370D01*
X137854846Y-94460026D01*
X137984530Y-94654112D01*
X138149586Y-94819168D01*
X138343672Y-94948852D01*
X138559328Y-95038179D01*
X138788268Y-95083718D01*
X139021692Y-95083718D01*
X139250632Y-95038179D01*
X139466288Y-94948852D01*
X139660374Y-94819168D01*
X139825430Y-94654112D01*
X139955114Y-94460026D01*
X140044441Y-94244370D01*
X140089980Y-94015430D01*
X140089980Y-93782006D01*
X140044441Y-93553066D01*
X139955114Y-93337410D01*
X139825430Y-93143324D01*
X139802682Y-93120576D01*
X139802682Y-90320764D01*
X139838132Y-90285314D01*
X139967816Y-90091228D01*
X140057143Y-89875572D01*
X140083524Y-89742941D01*
X154522220Y-89742941D01*
X154522220Y-89946819D01*
X154561994Y-90146778D01*
X154640015Y-90335136D01*
X154753283Y-90504654D01*
X154897446Y-90648817D01*
X155066964Y-90762085D01*
X155255322Y-90840106D01*
X155455281Y-90879880D01*
X155659159Y-90879880D01*
X155859118Y-90840106D01*
X156047476Y-90762085D01*
X156127462Y-90708640D01*
X158381706Y-90708640D01*
X158429904Y-90740845D01*
X158618262Y-90818866D01*
X158818221Y-90858640D01*
X159022099Y-90858640D01*
X159222058Y-90818866D01*
X159410416Y-90740845D01*
X159579934Y-90627577D01*
X159724097Y-90483414D01*
X159837365Y-90313896D01*
X159915386Y-90125538D01*
X159955160Y-89925579D01*
X159955160Y-89721701D01*
X159915386Y-89521742D01*
X159837365Y-89333384D01*
X159724097Y-89163866D01*
X159579934Y-89019703D01*
X159410416Y-88906435D01*
X159222058Y-88828414D01*
X159022099Y-88788640D01*
X158818221Y-88788640D01*
X158618262Y-88828414D01*
X158429904Y-88906435D01*
X158381706Y-88938640D01*
X156063886Y-88938640D01*
X156047476Y-88927675D01*
X155859118Y-88849654D01*
X155659159Y-88809880D01*
X155455281Y-88809880D01*
X155255322Y-88849654D01*
X155066964Y-88927675D01*
X154897446Y-89040943D01*
X154753283Y-89185106D01*
X154640015Y-89354624D01*
X154561994Y-89542982D01*
X154522220Y-89742941D01*
X140083524Y-89742941D01*
X140102682Y-89646632D01*
X140102682Y-89413208D01*
X140057143Y-89184268D01*
X139967816Y-88968612D01*
X139838132Y-88774526D01*
X139673076Y-88609470D01*
X139478990Y-88479786D01*
X139263334Y-88390459D01*
X139034394Y-88344920D01*
X138800970Y-88344920D01*
X138572030Y-88390459D01*
X138356374Y-88479786D01*
X138162288Y-88609470D01*
X137997232Y-88774526D01*
X137867548Y-88968612D01*
X137778221Y-89184268D01*
X137732682Y-89413208D01*
X137732682Y-89646632D01*
X137778221Y-89875572D01*
X137867548Y-90091228D01*
X137997232Y-90285314D01*
X138032682Y-90320764D01*
X138032683Y-93095171D01*
X137984530Y-93143324D01*
X137854846Y-93337410D01*
X137765519Y-93553066D01*
X137719980Y-93782006D01*
X131920805Y-93782006D01*
X131917376Y-93779715D01*
X131729018Y-93701694D01*
X131529059Y-93661920D01*
X131325181Y-93661920D01*
X131125222Y-93701694D01*
X130936864Y-93779715D01*
X130767346Y-93892983D01*
X130623183Y-94037146D01*
X130509915Y-94206664D01*
X130431894Y-94395022D01*
X130392120Y-94594981D01*
X128123346Y-94594981D01*
X128128010Y-89594981D01*
X130392120Y-89594981D01*
X130392120Y-89798859D01*
X130431894Y-89998818D01*
X130509915Y-90187176D01*
X130623183Y-90356694D01*
X130767346Y-90500857D01*
X130936864Y-90614125D01*
X131125222Y-90692146D01*
X131325181Y-90731920D01*
X131529059Y-90731920D01*
X131729018Y-90692146D01*
X131917376Y-90614125D01*
X132086894Y-90500857D01*
X132231057Y-90356694D01*
X132344325Y-90187176D01*
X132422346Y-89998818D01*
X132462120Y-89798859D01*
X132462120Y-89594981D01*
X132422346Y-89395022D01*
X132350120Y-89220654D01*
X132350120Y-88598920D01*
X132604120Y-88598920D01*
X132604120Y-89831920D01*
X132879120Y-89831920D01*
X133142003Y-89781012D01*
X133389903Y-89679796D01*
X133613293Y-89532162D01*
X133803589Y-89343783D01*
X133953477Y-89121899D01*
X134057198Y-88875037D01*
X134069639Y-88809178D01*
X133946638Y-88598920D01*
X132604120Y-88598920D01*
X132350120Y-88598920D01*
X131007602Y-88598920D01*
X130884601Y-88809178D01*
X130885516Y-88814024D01*
X130767346Y-88892983D01*
X130623183Y-89037146D01*
X130509915Y-89206664D01*
X130431894Y-89395022D01*
X130392120Y-89594981D01*
X128128010Y-89594981D01*
X128128088Y-89511973D01*
X128225120Y-89531920D01*
X128550120Y-89531920D01*
X128550120Y-88448920D01*
X128804120Y-88448920D01*
X128804120Y-89531920D01*
X129129120Y-89531920D01*
X129362739Y-89483894D01*
X129582500Y-89391214D01*
X129779957Y-89257441D01*
X129947522Y-89087717D01*
X130078756Y-88888564D01*
X130168616Y-88667635D01*
X130170755Y-88635597D01*
X130045670Y-88448920D01*
X128804120Y-88448920D01*
X128550120Y-88448920D01*
X128530120Y-88448920D01*
X128530120Y-88194920D01*
X128550120Y-88194920D01*
X128550120Y-87111920D01*
X128804120Y-87111920D01*
X128804120Y-88194920D01*
X130045670Y-88194920D01*
X130086046Y-88134662D01*
X130884601Y-88134662D01*
X131007602Y-88344920D01*
X132350120Y-88344920D01*
X132350120Y-87111920D01*
X132604120Y-87111920D01*
X132604120Y-88344920D01*
X133946638Y-88344920D01*
X134069639Y-88134662D01*
X134057198Y-88068803D01*
X133953477Y-87821941D01*
X133803589Y-87600057D01*
X133613293Y-87411678D01*
X133389903Y-87264044D01*
X133142003Y-87162828D01*
X132879120Y-87111920D01*
X132604120Y-87111920D01*
X132350120Y-87111920D01*
X132075120Y-87111920D01*
X131812237Y-87162828D01*
X131564337Y-87264044D01*
X131340947Y-87411678D01*
X131150651Y-87600057D01*
X131000763Y-87821941D01*
X130897042Y-88068803D01*
X130884601Y-88134662D01*
X130086046Y-88134662D01*
X130170755Y-88008243D01*
X130168616Y-87976205D01*
X130078756Y-87755276D01*
X129947522Y-87556123D01*
X129779957Y-87386399D01*
X129582500Y-87252626D01*
X129362739Y-87159946D01*
X129129120Y-87111920D01*
X128804120Y-87111920D01*
X128550120Y-87111920D01*
X128225120Y-87111920D01*
X128130309Y-87131411D01*
X128132857Y-84399999D01*
X128411928Y-84399999D01*
X128411928Y-85650001D01*
X128428992Y-85823255D01*
X128479528Y-85989851D01*
X128561595Y-86143387D01*
X128672038Y-86277962D01*
X128806613Y-86388405D01*
X128960149Y-86470472D01*
X129126745Y-86521008D01*
X129299999Y-86538072D01*
X130000001Y-86538072D01*
X130173255Y-86521008D01*
X130339851Y-86470472D01*
X130493387Y-86388405D01*
X130627962Y-86277962D01*
X130738405Y-86143387D01*
X130740967Y-86138594D01*
X130866526Y-86263078D01*
X131069467Y-86397421D01*
X131294718Y-86489591D01*
X131332391Y-86493462D01*
X131523000Y-86368731D01*
X131523000Y-85152000D01*
X131777000Y-85152000D01*
X131777000Y-86368731D01*
X131967609Y-86493462D01*
X132005282Y-86489591D01*
X132230533Y-86397421D01*
X132433474Y-86263078D01*
X132606307Y-86091725D01*
X132742390Y-85889946D01*
X132836493Y-85665496D01*
X132885000Y-85427000D01*
X132885000Y-85152000D01*
X131777000Y-85152000D01*
X131523000Y-85152000D01*
X131503000Y-85152000D01*
X131503000Y-84993300D01*
X134254988Y-84993300D01*
X134254988Y-85226724D01*
X134300527Y-85455664D01*
X134389854Y-85671320D01*
X134519538Y-85865406D01*
X134565001Y-85910869D01*
X134565000Y-90130516D01*
X134559550Y-90135966D01*
X134429866Y-90330052D01*
X134340539Y-90545708D01*
X134295000Y-90774648D01*
X134295000Y-91008072D01*
X134340539Y-91237012D01*
X134429866Y-91452668D01*
X134559550Y-91646754D01*
X134724606Y-91811810D01*
X134918692Y-91941494D01*
X135134348Y-92030821D01*
X135363288Y-92076360D01*
X135596712Y-92076360D01*
X135825652Y-92030821D01*
X136041308Y-91941494D01*
X136235394Y-91811810D01*
X136400450Y-91646754D01*
X136530134Y-91452668D01*
X136619461Y-91237012D01*
X136665000Y-91008072D01*
X136665000Y-90774648D01*
X136619461Y-90545708D01*
X136530134Y-90330052D01*
X136400450Y-90135966D01*
X136335000Y-90070516D01*
X136335000Y-85890844D01*
X136360438Y-85865406D01*
X136490122Y-85671320D01*
X136579449Y-85455664D01*
X136624988Y-85226724D01*
X136624988Y-84993300D01*
X136579449Y-84764360D01*
X136490122Y-84548704D01*
X136360438Y-84354618D01*
X136195382Y-84189562D01*
X136001296Y-84059878D01*
X135785640Y-83970551D01*
X135556700Y-83925012D01*
X135323276Y-83925012D01*
X135094336Y-83970551D01*
X134878680Y-84059878D01*
X134684594Y-84189562D01*
X134519538Y-84354618D01*
X134389854Y-84548704D01*
X134300527Y-84764360D01*
X134254988Y-84993300D01*
X131503000Y-84993300D01*
X131503000Y-84898000D01*
X131523000Y-84898000D01*
X131523000Y-83681269D01*
X131777000Y-83681269D01*
X131777000Y-84898000D01*
X132885000Y-84898000D01*
X132885000Y-84623000D01*
X132836493Y-84384504D01*
X132742390Y-84160054D01*
X132606307Y-83958275D01*
X132433474Y-83786922D01*
X132230533Y-83652579D01*
X132005282Y-83560409D01*
X131967609Y-83556538D01*
X131777000Y-83681269D01*
X131523000Y-83681269D01*
X131332391Y-83556538D01*
X131294718Y-83560409D01*
X131069467Y-83652579D01*
X130866526Y-83786922D01*
X130740967Y-83911406D01*
X130738405Y-83906613D01*
X130627962Y-83772038D01*
X130493387Y-83661595D01*
X130339851Y-83579528D01*
X130173255Y-83528992D01*
X130000001Y-83511928D01*
X129299999Y-83511928D01*
X129126745Y-83528992D01*
X128960149Y-83579528D01*
X128806613Y-83661595D01*
X128672038Y-83772038D01*
X128561595Y-83906613D01*
X128479528Y-84060149D01*
X128428992Y-84226745D01*
X128411928Y-84399999D01*
X128132857Y-84399999D01*
X128136360Y-80645000D01*
X133971928Y-80645000D01*
X133971928Y-82345000D01*
X133984188Y-82469482D01*
X134020498Y-82589180D01*
X134079463Y-82699494D01*
X134158815Y-82796185D01*
X134255506Y-82875537D01*
X134365820Y-82934502D01*
X134485518Y-82970812D01*
X134610000Y-82983072D01*
X136310000Y-82983072D01*
X136434482Y-82970812D01*
X136554180Y-82934502D01*
X136664494Y-82875537D01*
X136761185Y-82796185D01*
X136840537Y-82699494D01*
X136899502Y-82589180D01*
X136935812Y-82469482D01*
X136948072Y-82345000D01*
X136948072Y-80645000D01*
X136935812Y-80520518D01*
X136899502Y-80400820D01*
X136840537Y-80290506D01*
X136761185Y-80193815D01*
X136664494Y-80114463D01*
X136554180Y-80055498D01*
X136473534Y-80031034D01*
X136557588Y-79955269D01*
X136731641Y-79721920D01*
X136856825Y-79459099D01*
X136901476Y-79311890D01*
X136780155Y-79082000D01*
X135587000Y-79082000D01*
X135587000Y-79102000D01*
X135333000Y-79102000D01*
X135333000Y-79082000D01*
X134139845Y-79082000D01*
X134018524Y-79311890D01*
X134063175Y-79459099D01*
X134188359Y-79721920D01*
X134362412Y-79955269D01*
X134446466Y-80031034D01*
X134365820Y-80055498D01*
X134255506Y-80114463D01*
X134158815Y-80193815D01*
X134079463Y-80290506D01*
X134020498Y-80400820D01*
X133984188Y-80520518D01*
X133971928Y-80645000D01*
X128136360Y-80645000D01*
X128138269Y-78598110D01*
X134018524Y-78598110D01*
X134139845Y-78828000D01*
X135333000Y-78828000D01*
X135333000Y-77634186D01*
X135587000Y-77634186D01*
X135587000Y-78828000D01*
X136780155Y-78828000D01*
X136901476Y-78598110D01*
X136856825Y-78450901D01*
X136731641Y-78188080D01*
X136557588Y-77954731D01*
X136341355Y-77759822D01*
X136091252Y-77610843D01*
X135816891Y-77513519D01*
X135587000Y-77634186D01*
X135333000Y-77634186D01*
X135103109Y-77513519D01*
X134828748Y-77610843D01*
X134578645Y-77759822D01*
X134362412Y-77954731D01*
X134188359Y-78188080D01*
X134063175Y-78450901D01*
X134018524Y-78598110D01*
X128138269Y-78598110D01*
X128139326Y-77466025D01*
X128489087Y-77699728D01*
X128950428Y-77890822D01*
X129440184Y-77988240D01*
X129939536Y-77988240D01*
X130429292Y-77890822D01*
X130890633Y-77699728D01*
X131305828Y-77422303D01*
X131658923Y-77069208D01*
X131936348Y-76654013D01*
X132127442Y-76192672D01*
X132224860Y-75702916D01*
X132224860Y-75203564D01*
X132127442Y-74713808D01*
X131936348Y-74252467D01*
X131707190Y-73909509D01*
X133603969Y-73908120D01*
X166086171Y-73949583D01*
%TA.AperFunction,Conductor*%
D21*
G36*
X166086171Y-73949583D02*
G01*
X165858332Y-74290567D01*
X165667238Y-74751908D01*
X165569820Y-75241664D01*
X165569820Y-75741016D01*
X165667238Y-76230772D01*
X165858332Y-76692113D01*
X166135757Y-77107308D01*
X166488852Y-77460403D01*
X166904047Y-77737828D01*
X167365388Y-77928922D01*
X167855144Y-78026340D01*
X168354496Y-78026340D01*
X168844252Y-77928922D01*
X169305593Y-77737828D01*
X169645000Y-77511043D01*
X169645000Y-85408058D01*
X167210664Y-82973723D01*
X167186861Y-82944719D01*
X167071136Y-82849746D01*
X166939107Y-82779174D01*
X166795846Y-82735717D01*
X166684193Y-82724720D01*
X166684182Y-82724720D01*
X166646860Y-82721044D01*
X166609538Y-82724720D01*
X148290122Y-82724720D01*
X147170680Y-81605279D01*
X147170680Y-80441432D01*
X147209880Y-80441432D01*
X147334362Y-80429172D01*
X147454060Y-80392862D01*
X147564374Y-80333897D01*
X147661065Y-80254545D01*
X147740417Y-80157854D01*
X147799382Y-80047540D01*
X147821393Y-79974980D01*
X147953248Y-80106835D01*
X148196469Y-80269350D01*
X148466722Y-80381292D01*
X148753620Y-80438360D01*
X149046140Y-80438360D01*
X149333038Y-80381292D01*
X149603291Y-80269350D01*
X149846512Y-80106835D01*
X150053355Y-79899992D01*
X150175075Y-79717826D01*
X150244702Y-79834715D01*
X150439611Y-80050948D01*
X150672960Y-80225001D01*
X150935781Y-80350185D01*
X151082990Y-80394836D01*
X151312880Y-80273515D01*
X151312880Y-79080360D01*
X151566880Y-79080360D01*
X151566880Y-80273515D01*
X151796770Y-80394836D01*
X151943979Y-80350185D01*
X152206800Y-80225001D01*
X152440149Y-80050948D01*
X152635058Y-79834715D01*
X152784037Y-79584612D01*
X152881361Y-79310251D01*
X152760694Y-79080360D01*
X151566880Y-79080360D01*
X151312880Y-79080360D01*
X151292880Y-79080360D01*
X151292880Y-78826360D01*
X151312880Y-78826360D01*
X151312880Y-77633205D01*
X151566880Y-77633205D01*
X151566880Y-78826360D01*
X152760694Y-78826360D01*
X152881361Y-78596469D01*
X152784037Y-78322108D01*
X152635058Y-78072005D01*
X152440149Y-77855772D01*
X152206800Y-77681719D01*
X151943979Y-77556535D01*
X151796770Y-77511884D01*
X151566880Y-77633205D01*
X151312880Y-77633205D01*
X151082990Y-77511884D01*
X150935781Y-77556535D01*
X150672960Y-77681719D01*
X150439611Y-77855772D01*
X150244702Y-78072005D01*
X150175075Y-78188894D01*
X150053355Y-78006728D01*
X149846512Y-77799885D01*
X149603291Y-77637370D01*
X149333038Y-77525428D01*
X149046140Y-77468360D01*
X148753620Y-77468360D01*
X148466722Y-77525428D01*
X148196469Y-77637370D01*
X147953248Y-77799885D01*
X147821393Y-77931740D01*
X147799382Y-77859180D01*
X147740417Y-77748866D01*
X147661065Y-77652175D01*
X147564374Y-77572823D01*
X147454060Y-77513858D01*
X147334362Y-77477548D01*
X147209880Y-77465288D01*
X145509880Y-77465288D01*
X145385398Y-77477548D01*
X145265700Y-77513858D01*
X145155386Y-77572823D01*
X145058695Y-77652175D01*
X144979343Y-77748866D01*
X144920378Y-77859180D01*
X144884068Y-77978878D01*
X144871808Y-78103360D01*
X144871808Y-79803360D01*
X144884068Y-79927842D01*
X144920378Y-80047540D01*
X144979343Y-80157854D01*
X145058695Y-80254545D01*
X145155386Y-80333897D01*
X145265700Y-80392862D01*
X145385398Y-80429172D01*
X145509880Y-80441432D01*
X145650680Y-80441432D01*
X145650681Y-81882748D01*
X145647004Y-81920080D01*
X145661678Y-82069065D01*
X145705134Y-82212326D01*
X145775706Y-82344356D01*
X145846881Y-82431082D01*
X145870680Y-82460081D01*
X145899678Y-82483879D01*
X147411520Y-83995722D01*
X147435319Y-84024721D01*
X147464317Y-84048519D01*
X147551043Y-84119694D01*
X147626551Y-84160054D01*
X147683073Y-84190266D01*
X147826334Y-84233723D01*
X147937987Y-84244720D01*
X147937996Y-84244720D01*
X147975319Y-84248396D01*
X148012642Y-84244720D01*
X166332059Y-84244720D01*
X168678320Y-86590982D01*
X168678321Y-101070145D01*
X168533475Y-100853368D01*
X168326632Y-100646525D01*
X168083411Y-100484010D01*
X167813158Y-100372068D01*
X167526260Y-100315000D01*
X167233740Y-100315000D01*
X166946842Y-100372068D01*
X166676589Y-100484010D01*
X166433368Y-100646525D01*
X166226525Y-100853368D01*
X166110000Y-101027760D01*
X165993475Y-100853368D01*
X165786632Y-100646525D01*
X165543411Y-100484010D01*
X165273158Y-100372068D01*
X164986260Y-100315000D01*
X164693740Y-100315000D01*
X164406842Y-100372068D01*
X164136589Y-100484010D01*
X163893368Y-100646525D01*
X163686525Y-100853368D01*
X163570000Y-101027760D01*
X163453475Y-100853368D01*
X163246632Y-100646525D01*
X163003411Y-100484010D01*
X162733158Y-100372068D01*
X162446260Y-100315000D01*
X162153740Y-100315000D01*
X161866842Y-100372068D01*
X161596589Y-100484010D01*
X161353368Y-100646525D01*
X161146525Y-100853368D01*
X161030000Y-101027760D01*
X160913475Y-100853368D01*
X160706632Y-100646525D01*
X160463411Y-100484010D01*
X160193158Y-100372068D01*
X159906260Y-100315000D01*
X159613740Y-100315000D01*
X159326842Y-100372068D01*
X159056589Y-100484010D01*
X158813368Y-100646525D01*
X158606525Y-100853368D01*
X158490000Y-101027760D01*
X158373475Y-100853368D01*
X158166632Y-100646525D01*
X157923411Y-100484010D01*
X157653158Y-100372068D01*
X157366260Y-100315000D01*
X157073740Y-100315000D01*
X156786842Y-100372068D01*
X156730293Y-100395491D01*
X155211464Y-98876663D01*
X155187661Y-98847659D01*
X155071936Y-98752686D01*
X154939907Y-98682114D01*
X154796646Y-98638657D01*
X154684993Y-98627660D01*
X154684982Y-98627660D01*
X154647660Y-98623984D01*
X154610338Y-98627660D01*
X140809663Y-98627660D01*
X140772340Y-98623984D01*
X140735017Y-98627660D01*
X140735007Y-98627660D01*
X140623354Y-98638657D01*
X140480093Y-98682114D01*
X140348063Y-98752686D01*
X140264423Y-98821328D01*
X140232339Y-98847659D01*
X140208541Y-98876657D01*
X138719772Y-100365427D01*
X138469580Y-100315660D01*
X138177060Y-100315660D01*
X137890162Y-100372728D01*
X137619909Y-100484670D01*
X137376688Y-100647185D01*
X137169845Y-100854028D01*
X137048125Y-101036194D01*
X136978498Y-100919305D01*
X136783589Y-100703072D01*
X136550240Y-100529019D01*
X136287419Y-100403835D01*
X136140210Y-100359184D01*
X135910320Y-100480505D01*
X135910320Y-101673660D01*
X135930320Y-101673660D01*
X135930320Y-101927660D01*
X135910320Y-101927660D01*
X135910320Y-103120815D01*
X136140210Y-103242136D01*
X136287419Y-103197485D01*
X136550240Y-103072301D01*
X136783589Y-102898248D01*
X136978498Y-102682015D01*
X137048125Y-102565126D01*
X137169845Y-102747292D01*
X137376688Y-102954135D01*
X137619909Y-103116650D01*
X137890162Y-103228592D01*
X138177060Y-103285660D01*
X138469580Y-103285660D01*
X138604101Y-103258902D01*
X141800001Y-106454803D01*
X141800000Y-118346289D01*
X141756063Y-118390226D01*
X141642795Y-118559744D01*
X141564774Y-118748102D01*
X141525000Y-118948061D01*
X141525000Y-119151939D01*
X141564774Y-119351898D01*
X141642795Y-119540256D01*
X141756063Y-119709774D01*
X141900226Y-119853937D01*
X142069744Y-119967205D01*
X142258102Y-120045226D01*
X142458061Y-120085000D01*
X142661939Y-120085000D01*
X142861898Y-120045226D01*
X143050256Y-119967205D01*
X143219774Y-119853937D01*
X143363937Y-119709774D01*
X143477205Y-119540256D01*
X143555226Y-119351898D01*
X143595000Y-119151939D01*
X143595000Y-118948061D01*
X143555226Y-118748102D01*
X143477205Y-118559744D01*
X143363937Y-118390226D01*
X143320000Y-118346289D01*
X143320000Y-116165000D01*
X143461939Y-116165000D01*
X143661898Y-116125226D01*
X143850256Y-116047205D01*
X144019774Y-115933937D01*
X144163937Y-115789774D01*
X144277205Y-115620256D01*
X144355226Y-115431898D01*
X144395000Y-115231939D01*
X144395000Y-115028061D01*
X144355226Y-114828102D01*
X144277205Y-114639744D01*
X144163937Y-114470226D01*
X144130000Y-114436289D01*
X144130000Y-109658061D01*
X161465000Y-109658061D01*
X161465000Y-109861939D01*
X161504774Y-110061898D01*
X161582795Y-110250256D01*
X161696063Y-110419774D01*
X161840226Y-110563937D01*
X162009744Y-110677205D01*
X162198102Y-110755226D01*
X162398061Y-110795000D01*
X162601939Y-110795000D01*
X162801898Y-110755226D01*
X162990256Y-110677205D01*
X163159774Y-110563937D01*
X163303937Y-110419774D01*
X163417205Y-110250256D01*
X163495226Y-110061898D01*
X163535000Y-109861939D01*
X163535000Y-109658061D01*
X163495226Y-109458102D01*
X163417205Y-109269744D01*
X163303937Y-109100226D01*
X163159774Y-108956063D01*
X162990256Y-108842795D01*
X162801898Y-108764774D01*
X162601939Y-108725000D01*
X162398061Y-108725000D01*
X162198102Y-108764774D01*
X162009744Y-108842795D01*
X161840226Y-108956063D01*
X161696063Y-109100226D01*
X161582795Y-109269744D01*
X161504774Y-109458102D01*
X161465000Y-109658061D01*
X144130000Y-109658061D01*
X144130000Y-103704802D01*
X144726201Y-104301003D01*
X144749999Y-104330001D01*
X144778997Y-104353799D01*
X144865723Y-104424974D01*
X144997753Y-104495546D01*
X145141014Y-104539003D01*
X145252667Y-104550000D01*
X145252676Y-104550000D01*
X145289999Y-104553676D01*
X145327322Y-104550000D01*
X157732678Y-104550000D01*
X157770000Y-104553676D01*
X157807322Y-104550000D01*
X157807333Y-104550000D01*
X157918986Y-104539003D01*
X158062247Y-104495546D01*
X158194276Y-104424974D01*
X158310001Y-104330001D01*
X158333804Y-104300997D01*
X159393592Y-103241210D01*
X159613740Y-103285000D01*
X159906260Y-103285000D01*
X160193158Y-103227932D01*
X160463411Y-103115990D01*
X160706632Y-102953475D01*
X160913475Y-102746632D01*
X161030000Y-102572240D01*
X161146525Y-102746632D01*
X161353368Y-102953475D01*
X161596589Y-103115990D01*
X161866842Y-103227932D01*
X162153740Y-103285000D01*
X162446260Y-103285000D01*
X162733158Y-103227932D01*
X163003411Y-103115990D01*
X163246632Y-102953475D01*
X163453475Y-102746632D01*
X163570000Y-102572240D01*
X163686525Y-102746632D01*
X163893368Y-102953475D01*
X164136589Y-103115990D01*
X164406842Y-103227932D01*
X164693740Y-103285000D01*
X164986260Y-103285000D01*
X165273158Y-103227932D01*
X165543411Y-103115990D01*
X165786632Y-102953475D01*
X165993475Y-102746632D01*
X166110000Y-102572240D01*
X166226525Y-102746632D01*
X166433368Y-102953475D01*
X166676589Y-103115990D01*
X166946842Y-103227932D01*
X167233740Y-103285000D01*
X167526260Y-103285000D01*
X167813158Y-103227932D01*
X168083411Y-103115990D01*
X168326632Y-102953475D01*
X168533475Y-102746632D01*
X168678321Y-102529855D01*
X168678321Y-102928577D01*
X167266899Y-104340000D01*
X163873709Y-104340000D01*
X163829772Y-104296063D01*
X163660254Y-104182795D01*
X163471896Y-104104774D01*
X163271937Y-104065000D01*
X163068059Y-104065000D01*
X162868100Y-104104774D01*
X162679742Y-104182795D01*
X162510224Y-104296063D01*
X162366061Y-104440226D01*
X162252793Y-104609744D01*
X162174772Y-104798102D01*
X162134998Y-104998061D01*
X162134998Y-105201939D01*
X162174772Y-105401898D01*
X162252793Y-105590256D01*
X162366061Y-105759774D01*
X162510224Y-105903937D01*
X162679742Y-106017205D01*
X162868100Y-106095226D01*
X163068059Y-106135000D01*
X163271937Y-106135000D01*
X163471896Y-106095226D01*
X163660254Y-106017205D01*
X163829772Y-105903937D01*
X163873709Y-105860000D01*
X167544378Y-105860000D01*
X167581700Y-105863676D01*
X167619022Y-105860000D01*
X167619033Y-105860000D01*
X167730686Y-105849003D01*
X167873947Y-105805546D01*
X168005976Y-105734974D01*
X168121701Y-105640001D01*
X168145504Y-105610997D01*
X169645001Y-104111501D01*
X169645001Y-121050040D01*
X169325913Y-120836832D01*
X168864572Y-120645738D01*
X168374816Y-120548320D01*
X167875464Y-120548320D01*
X167385708Y-120645738D01*
X166924367Y-120836832D01*
X166509172Y-121114257D01*
X166156077Y-121467352D01*
X165878652Y-121882547D01*
X165687558Y-122343888D01*
X165590140Y-122833644D01*
X165590140Y-123332996D01*
X165687558Y-123822752D01*
X165878652Y-124284093D01*
X166098440Y-124613028D01*
X131659499Y-124596981D01*
X131890628Y-124251073D01*
X132081722Y-123789732D01*
X132179140Y-123299976D01*
X132179140Y-122800624D01*
X132081722Y-122310868D01*
X131890628Y-121849527D01*
X131613203Y-121434332D01*
X131260108Y-121081237D01*
X130844913Y-120803812D01*
X130383572Y-120612718D01*
X129893816Y-120515300D01*
X129394464Y-120515300D01*
X128904708Y-120612718D01*
X128443367Y-120803812D01*
X128098681Y-121034124D01*
X128107985Y-111060000D01*
X133451928Y-111060000D01*
X133464188Y-111184482D01*
X133500498Y-111304180D01*
X133559463Y-111414494D01*
X133638815Y-111511185D01*
X133735506Y-111590537D01*
X133845820Y-111649502D01*
X133918380Y-111671513D01*
X133786525Y-111803368D01*
X133624010Y-112046589D01*
X133512068Y-112316842D01*
X133455000Y-112603740D01*
X133455000Y-112896260D01*
X133512068Y-113183158D01*
X133624010Y-113453411D01*
X133786525Y-113696632D01*
X133993368Y-113903475D01*
X134167760Y-114020000D01*
X133993368Y-114136525D01*
X133786525Y-114343368D01*
X133624010Y-114586589D01*
X133512068Y-114856842D01*
X133455000Y-115143740D01*
X133455000Y-115436260D01*
X133512068Y-115723158D01*
X133624010Y-115993411D01*
X133786525Y-116236632D01*
X133993368Y-116443475D01*
X134167760Y-116560000D01*
X133993368Y-116676525D01*
X133786525Y-116883368D01*
X133624010Y-117126589D01*
X133512068Y-117396842D01*
X133455000Y-117683740D01*
X133455000Y-117976260D01*
X133512068Y-118263158D01*
X133624010Y-118533411D01*
X133786525Y-118776632D01*
X133993368Y-118983475D01*
X134167760Y-119100000D01*
X133993368Y-119216525D01*
X133786525Y-119423368D01*
X133624010Y-119666589D01*
X133512068Y-119936842D01*
X133455000Y-120223740D01*
X133455000Y-120516260D01*
X133512068Y-120803158D01*
X133624010Y-121073411D01*
X133786525Y-121316632D01*
X133993368Y-121523475D01*
X134167760Y-121640000D01*
X133993368Y-121756525D01*
X133786525Y-121963368D01*
X133624010Y-122206589D01*
X133512068Y-122476842D01*
X133455000Y-122763740D01*
X133455000Y-123056260D01*
X133512068Y-123343158D01*
X133624010Y-123613411D01*
X133786525Y-123856632D01*
X133993368Y-124063475D01*
X134236589Y-124225990D01*
X134506842Y-124337932D01*
X134793740Y-124395000D01*
X135086260Y-124395000D01*
X135373158Y-124337932D01*
X135643411Y-124225990D01*
X135886632Y-124063475D01*
X136093475Y-123856632D01*
X136255990Y-123613411D01*
X136367932Y-123343158D01*
X136425000Y-123056260D01*
X136425000Y-122763740D01*
X136367932Y-122476842D01*
X136255990Y-122206589D01*
X136093475Y-121963368D01*
X135886632Y-121756525D01*
X135712240Y-121640000D01*
X135886632Y-121523475D01*
X136093475Y-121316632D01*
X136255990Y-121073411D01*
X136367932Y-120803158D01*
X136374505Y-120770112D01*
X136378998Y-120773799D01*
X137456201Y-121851003D01*
X137479999Y-121880001D01*
X137595724Y-121974974D01*
X137727753Y-122045546D01*
X137871014Y-122089003D01*
X137982667Y-122100000D01*
X137982676Y-122100000D01*
X138019999Y-122103676D01*
X138057322Y-122100000D01*
X153226289Y-122100000D01*
X153270226Y-122143937D01*
X153439744Y-122257205D01*
X153628102Y-122335226D01*
X153828061Y-122375000D01*
X154031939Y-122375000D01*
X154231898Y-122335226D01*
X154420256Y-122257205D01*
X154589774Y-122143937D01*
X154733937Y-121999774D01*
X154847205Y-121830256D01*
X154925226Y-121641898D01*
X154965000Y-121441939D01*
X154965000Y-121238061D01*
X154925226Y-121038102D01*
X154847205Y-120849744D01*
X154733937Y-120680226D01*
X154589774Y-120536063D01*
X154420256Y-120422795D01*
X154231898Y-120344774D01*
X154031939Y-120305000D01*
X153828061Y-120305000D01*
X153628102Y-120344774D01*
X153439744Y-120422795D01*
X153270226Y-120536063D01*
X153226289Y-120580000D01*
X138334802Y-120580000D01*
X137650000Y-119895199D01*
X137650000Y-116087325D01*
X137653676Y-116050000D01*
X137650000Y-116012675D01*
X137650000Y-116012667D01*
X137639003Y-115901014D01*
X137595546Y-115757753D01*
X137524974Y-115625724D01*
X137430001Y-115509999D01*
X137401004Y-115486202D01*
X136663803Y-114749002D01*
X136640001Y-114719999D01*
X136524276Y-114625026D01*
X136392247Y-114554454D01*
X136248986Y-114510997D01*
X136202416Y-114506410D01*
X136093475Y-114343368D01*
X135886632Y-114136525D01*
X135712240Y-114020000D01*
X135886632Y-113903475D01*
X136093475Y-113696632D01*
X136255990Y-113453411D01*
X136367932Y-113183158D01*
X136425000Y-112896260D01*
X136425000Y-112603740D01*
X136367932Y-112316842D01*
X136255990Y-112046589D01*
X136093475Y-111803368D01*
X135961620Y-111671513D01*
X136034180Y-111649502D01*
X136144494Y-111590537D01*
X136241185Y-111511185D01*
X136320537Y-111414494D01*
X136379502Y-111304180D01*
X136415812Y-111184482D01*
X136428072Y-111060000D01*
X136425000Y-110495750D01*
X136266250Y-110337000D01*
X135067000Y-110337000D01*
X135067000Y-110357000D01*
X134813000Y-110357000D01*
X134813000Y-110337000D01*
X133613750Y-110337000D01*
X133455000Y-110495750D01*
X133451928Y-111060000D01*
X128107985Y-111060000D01*
X128109571Y-109360000D01*
X133451928Y-109360000D01*
X133455000Y-109924250D01*
X133613750Y-110083000D01*
X134813000Y-110083000D01*
X134813000Y-108883750D01*
X135067000Y-108883750D01*
X135067000Y-110083000D01*
X136266250Y-110083000D01*
X136425000Y-109924250D01*
X136428072Y-109360000D01*
X136415812Y-109235518D01*
X136379502Y-109115820D01*
X136320537Y-109005506D01*
X136241185Y-108908815D01*
X136144494Y-108829463D01*
X136034180Y-108770498D01*
X135914482Y-108734188D01*
X135790000Y-108721928D01*
X135225750Y-108725000D01*
X135067000Y-108883750D01*
X134813000Y-108883750D01*
X134654250Y-108725000D01*
X134090000Y-108721928D01*
X133965518Y-108734188D01*
X133845820Y-108770498D01*
X133735506Y-108829463D01*
X133638815Y-108908815D01*
X133559463Y-109005506D01*
X133500498Y-109115820D01*
X133464188Y-109235518D01*
X133451928Y-109360000D01*
X128109571Y-109360000D01*
X128117417Y-100950660D01*
X129215248Y-100950660D01*
X129215248Y-102650660D01*
X129227508Y-102775142D01*
X129263818Y-102894840D01*
X129322783Y-103005154D01*
X129402135Y-103101845D01*
X129498826Y-103181197D01*
X129609140Y-103240162D01*
X129728838Y-103276472D01*
X129853320Y-103288732D01*
X131553320Y-103288732D01*
X131677802Y-103276472D01*
X131797500Y-103240162D01*
X131907814Y-103181197D01*
X132004505Y-103101845D01*
X132083857Y-103005154D01*
X132142822Y-102894840D01*
X132164833Y-102822280D01*
X132296688Y-102954135D01*
X132539909Y-103116650D01*
X132810162Y-103228592D01*
X133097060Y-103285660D01*
X133389580Y-103285660D01*
X133676478Y-103228592D01*
X133946731Y-103116650D01*
X134189952Y-102954135D01*
X134396795Y-102747292D01*
X134518515Y-102565126D01*
X134588142Y-102682015D01*
X134783051Y-102898248D01*
X135016400Y-103072301D01*
X135279221Y-103197485D01*
X135426430Y-103242136D01*
X135656320Y-103120815D01*
X135656320Y-101927660D01*
X135636320Y-101927660D01*
X135636320Y-101673660D01*
X135656320Y-101673660D01*
X135656320Y-100480505D01*
X135426430Y-100359184D01*
X135279221Y-100403835D01*
X135016400Y-100529019D01*
X134783051Y-100703072D01*
X134588142Y-100919305D01*
X134518515Y-101036194D01*
X134396795Y-100854028D01*
X134189952Y-100647185D01*
X133946731Y-100484670D01*
X133676478Y-100372728D01*
X133389580Y-100315660D01*
X133097060Y-100315660D01*
X132810162Y-100372728D01*
X132539909Y-100484670D01*
X132296688Y-100647185D01*
X132164833Y-100779040D01*
X132142822Y-100706480D01*
X132083857Y-100596166D01*
X132004505Y-100499475D01*
X131907814Y-100420123D01*
X131797500Y-100361158D01*
X131677802Y-100324848D01*
X131553320Y-100312588D01*
X129853320Y-100312588D01*
X129728838Y-100324848D01*
X129609140Y-100361158D01*
X129498826Y-100420123D01*
X129402135Y-100499475D01*
X129322783Y-100596166D01*
X129263818Y-100706480D01*
X129227508Y-100826178D01*
X129215248Y-100950660D01*
X128117417Y-100950660D01*
X128120860Y-97260487D01*
X128225120Y-97281920D01*
X128550120Y-97281920D01*
X128550120Y-96198920D01*
X128804120Y-96198920D01*
X128804120Y-97281920D01*
X129129120Y-97281920D01*
X129362739Y-97233894D01*
X129582500Y-97141214D01*
X129779957Y-97007441D01*
X129947522Y-96837717D01*
X130078756Y-96638564D01*
X130168616Y-96417635D01*
X130170755Y-96385597D01*
X130086047Y-96259178D01*
X130884601Y-96259178D01*
X130897042Y-96325037D01*
X131000763Y-96571899D01*
X131150651Y-96793783D01*
X131340947Y-96982162D01*
X131564337Y-97129796D01*
X131812237Y-97231012D01*
X132075120Y-97281920D01*
X132350120Y-97281920D01*
X132350120Y-96048920D01*
X132604120Y-96048920D01*
X132604120Y-97281920D01*
X132879120Y-97281920D01*
X133142003Y-97231012D01*
X133389903Y-97129796D01*
X133613293Y-96982162D01*
X133803589Y-96793783D01*
X133953477Y-96571899D01*
X134057198Y-96325037D01*
X134069639Y-96259178D01*
X133946638Y-96048920D01*
X132604120Y-96048920D01*
X132350120Y-96048920D01*
X131007602Y-96048920D01*
X130884601Y-96259178D01*
X130086047Y-96259178D01*
X130045670Y-96198920D01*
X128804120Y-96198920D01*
X128550120Y-96198920D01*
X128530120Y-96198920D01*
X128530120Y-95944920D01*
X128550120Y-95944920D01*
X128550120Y-94861920D01*
X128804120Y-94861920D01*
X128804120Y-95944920D01*
X130045670Y-95944920D01*
X130170755Y-95758243D01*
X130168616Y-95726205D01*
X130078756Y-95505276D01*
X129947522Y-95306123D01*
X129779957Y-95136399D01*
X129582500Y-95002626D01*
X129362739Y-94909946D01*
X129129120Y-94861920D01*
X128804120Y-94861920D01*
X128550120Y-94861920D01*
X128225120Y-94861920D01*
X128123078Y-94882897D01*
X128123346Y-94594981D01*
X130392120Y-94594981D01*
X130392120Y-94798859D01*
X130431894Y-94998818D01*
X130509915Y-95187176D01*
X130623183Y-95356694D01*
X130767346Y-95500857D01*
X130885516Y-95579816D01*
X130884601Y-95584662D01*
X131007602Y-95794920D01*
X132350120Y-95794920D01*
X132350120Y-95173186D01*
X132422346Y-94998818D01*
X132462120Y-94798859D01*
X132462120Y-94594981D01*
X132455544Y-94561920D01*
X132604120Y-94561920D01*
X132604120Y-95794920D01*
X133946638Y-95794920D01*
X134069639Y-95584662D01*
X134057198Y-95518803D01*
X133953477Y-95271941D01*
X133803589Y-95050057D01*
X133613293Y-94861678D01*
X133389903Y-94714044D01*
X133142003Y-94612828D01*
X132879120Y-94561920D01*
X132604120Y-94561920D01*
X132455544Y-94561920D01*
X132422346Y-94395022D01*
X132344325Y-94206664D01*
X132231057Y-94037146D01*
X132086894Y-93892983D01*
X131920805Y-93782006D01*
X137719980Y-93782006D01*
X137719980Y-94015430D01*
X137765519Y-94244370D01*
X137854846Y-94460026D01*
X137984530Y-94654112D01*
X138149586Y-94819168D01*
X138343672Y-94948852D01*
X138559328Y-95038179D01*
X138788268Y-95083718D01*
X139021692Y-95083718D01*
X139250632Y-95038179D01*
X139466288Y-94948852D01*
X139660374Y-94819168D01*
X139825430Y-94654112D01*
X139955114Y-94460026D01*
X140044441Y-94244370D01*
X140089980Y-94015430D01*
X140089980Y-93782006D01*
X140044441Y-93553066D01*
X139955114Y-93337410D01*
X139825430Y-93143324D01*
X139802682Y-93120576D01*
X139802682Y-90320764D01*
X139838132Y-90285314D01*
X139967816Y-90091228D01*
X140057143Y-89875572D01*
X140083524Y-89742941D01*
X154522220Y-89742941D01*
X154522220Y-89946819D01*
X154561994Y-90146778D01*
X154640015Y-90335136D01*
X154753283Y-90504654D01*
X154897446Y-90648817D01*
X155066964Y-90762085D01*
X155255322Y-90840106D01*
X155455281Y-90879880D01*
X155659159Y-90879880D01*
X155859118Y-90840106D01*
X156047476Y-90762085D01*
X156127462Y-90708640D01*
X158381706Y-90708640D01*
X158429904Y-90740845D01*
X158618262Y-90818866D01*
X158818221Y-90858640D01*
X159022099Y-90858640D01*
X159222058Y-90818866D01*
X159410416Y-90740845D01*
X159579934Y-90627577D01*
X159724097Y-90483414D01*
X159837365Y-90313896D01*
X159915386Y-90125538D01*
X159955160Y-89925579D01*
X159955160Y-89721701D01*
X159915386Y-89521742D01*
X159837365Y-89333384D01*
X159724097Y-89163866D01*
X159579934Y-89019703D01*
X159410416Y-88906435D01*
X159222058Y-88828414D01*
X159022099Y-88788640D01*
X158818221Y-88788640D01*
X158618262Y-88828414D01*
X158429904Y-88906435D01*
X158381706Y-88938640D01*
X156063886Y-88938640D01*
X156047476Y-88927675D01*
X155859118Y-88849654D01*
X155659159Y-88809880D01*
X155455281Y-88809880D01*
X155255322Y-88849654D01*
X155066964Y-88927675D01*
X154897446Y-89040943D01*
X154753283Y-89185106D01*
X154640015Y-89354624D01*
X154561994Y-89542982D01*
X154522220Y-89742941D01*
X140083524Y-89742941D01*
X140102682Y-89646632D01*
X140102682Y-89413208D01*
X140057143Y-89184268D01*
X139967816Y-88968612D01*
X139838132Y-88774526D01*
X139673076Y-88609470D01*
X139478990Y-88479786D01*
X139263334Y-88390459D01*
X139034394Y-88344920D01*
X138800970Y-88344920D01*
X138572030Y-88390459D01*
X138356374Y-88479786D01*
X138162288Y-88609470D01*
X137997232Y-88774526D01*
X137867548Y-88968612D01*
X137778221Y-89184268D01*
X137732682Y-89413208D01*
X137732682Y-89646632D01*
X137778221Y-89875572D01*
X137867548Y-90091228D01*
X137997232Y-90285314D01*
X138032682Y-90320764D01*
X138032683Y-93095171D01*
X137984530Y-93143324D01*
X137854846Y-93337410D01*
X137765519Y-93553066D01*
X137719980Y-93782006D01*
X131920805Y-93782006D01*
X131917376Y-93779715D01*
X131729018Y-93701694D01*
X131529059Y-93661920D01*
X131325181Y-93661920D01*
X131125222Y-93701694D01*
X130936864Y-93779715D01*
X130767346Y-93892983D01*
X130623183Y-94037146D01*
X130509915Y-94206664D01*
X130431894Y-94395022D01*
X130392120Y-94594981D01*
X128123346Y-94594981D01*
X128128010Y-89594981D01*
X130392120Y-89594981D01*
X130392120Y-89798859D01*
X130431894Y-89998818D01*
X130509915Y-90187176D01*
X130623183Y-90356694D01*
X130767346Y-90500857D01*
X130936864Y-90614125D01*
X131125222Y-90692146D01*
X131325181Y-90731920D01*
X131529059Y-90731920D01*
X131729018Y-90692146D01*
X131917376Y-90614125D01*
X132086894Y-90500857D01*
X132231057Y-90356694D01*
X132344325Y-90187176D01*
X132422346Y-89998818D01*
X132462120Y-89798859D01*
X132462120Y-89594981D01*
X132422346Y-89395022D01*
X132350120Y-89220654D01*
X132350120Y-88598920D01*
X132604120Y-88598920D01*
X132604120Y-89831920D01*
X132879120Y-89831920D01*
X133142003Y-89781012D01*
X133389903Y-89679796D01*
X133613293Y-89532162D01*
X133803589Y-89343783D01*
X133953477Y-89121899D01*
X134057198Y-88875037D01*
X134069639Y-88809178D01*
X133946638Y-88598920D01*
X132604120Y-88598920D01*
X132350120Y-88598920D01*
X131007602Y-88598920D01*
X130884601Y-88809178D01*
X130885516Y-88814024D01*
X130767346Y-88892983D01*
X130623183Y-89037146D01*
X130509915Y-89206664D01*
X130431894Y-89395022D01*
X130392120Y-89594981D01*
X128128010Y-89594981D01*
X128128088Y-89511973D01*
X128225120Y-89531920D01*
X128550120Y-89531920D01*
X128550120Y-88448920D01*
X128804120Y-88448920D01*
X128804120Y-89531920D01*
X129129120Y-89531920D01*
X129362739Y-89483894D01*
X129582500Y-89391214D01*
X129779957Y-89257441D01*
X129947522Y-89087717D01*
X130078756Y-88888564D01*
X130168616Y-88667635D01*
X130170755Y-88635597D01*
X130045670Y-88448920D01*
X128804120Y-88448920D01*
X128550120Y-88448920D01*
X128530120Y-88448920D01*
X128530120Y-88194920D01*
X128550120Y-88194920D01*
X128550120Y-87111920D01*
X128804120Y-87111920D01*
X128804120Y-88194920D01*
X130045670Y-88194920D01*
X130086046Y-88134662D01*
X130884601Y-88134662D01*
X131007602Y-88344920D01*
X132350120Y-88344920D01*
X132350120Y-87111920D01*
X132604120Y-87111920D01*
X132604120Y-88344920D01*
X133946638Y-88344920D01*
X134069639Y-88134662D01*
X134057198Y-88068803D01*
X133953477Y-87821941D01*
X133803589Y-87600057D01*
X133613293Y-87411678D01*
X133389903Y-87264044D01*
X133142003Y-87162828D01*
X132879120Y-87111920D01*
X132604120Y-87111920D01*
X132350120Y-87111920D01*
X132075120Y-87111920D01*
X131812237Y-87162828D01*
X131564337Y-87264044D01*
X131340947Y-87411678D01*
X131150651Y-87600057D01*
X131000763Y-87821941D01*
X130897042Y-88068803D01*
X130884601Y-88134662D01*
X130086046Y-88134662D01*
X130170755Y-88008243D01*
X130168616Y-87976205D01*
X130078756Y-87755276D01*
X129947522Y-87556123D01*
X129779957Y-87386399D01*
X129582500Y-87252626D01*
X129362739Y-87159946D01*
X129129120Y-87111920D01*
X128804120Y-87111920D01*
X128550120Y-87111920D01*
X128225120Y-87111920D01*
X128130309Y-87131411D01*
X128132857Y-84399999D01*
X128411928Y-84399999D01*
X128411928Y-85650001D01*
X128428992Y-85823255D01*
X128479528Y-85989851D01*
X128561595Y-86143387D01*
X128672038Y-86277962D01*
X128806613Y-86388405D01*
X128960149Y-86470472D01*
X129126745Y-86521008D01*
X129299999Y-86538072D01*
X130000001Y-86538072D01*
X130173255Y-86521008D01*
X130339851Y-86470472D01*
X130493387Y-86388405D01*
X130627962Y-86277962D01*
X130738405Y-86143387D01*
X130740967Y-86138594D01*
X130866526Y-86263078D01*
X131069467Y-86397421D01*
X131294718Y-86489591D01*
X131332391Y-86493462D01*
X131523000Y-86368731D01*
X131523000Y-85152000D01*
X131777000Y-85152000D01*
X131777000Y-86368731D01*
X131967609Y-86493462D01*
X132005282Y-86489591D01*
X132230533Y-86397421D01*
X132433474Y-86263078D01*
X132606307Y-86091725D01*
X132742390Y-85889946D01*
X132836493Y-85665496D01*
X132885000Y-85427000D01*
X132885000Y-85152000D01*
X131777000Y-85152000D01*
X131523000Y-85152000D01*
X131503000Y-85152000D01*
X131503000Y-84993300D01*
X134254988Y-84993300D01*
X134254988Y-85226724D01*
X134300527Y-85455664D01*
X134389854Y-85671320D01*
X134519538Y-85865406D01*
X134565001Y-85910869D01*
X134565000Y-90130516D01*
X134559550Y-90135966D01*
X134429866Y-90330052D01*
X134340539Y-90545708D01*
X134295000Y-90774648D01*
X134295000Y-91008072D01*
X134340539Y-91237012D01*
X134429866Y-91452668D01*
X134559550Y-91646754D01*
X134724606Y-91811810D01*
X134918692Y-91941494D01*
X135134348Y-92030821D01*
X135363288Y-92076360D01*
X135596712Y-92076360D01*
X135825652Y-92030821D01*
X136041308Y-91941494D01*
X136235394Y-91811810D01*
X136400450Y-91646754D01*
X136530134Y-91452668D01*
X136619461Y-91237012D01*
X136665000Y-91008072D01*
X136665000Y-90774648D01*
X136619461Y-90545708D01*
X136530134Y-90330052D01*
X136400450Y-90135966D01*
X136335000Y-90070516D01*
X136335000Y-85890844D01*
X136360438Y-85865406D01*
X136490122Y-85671320D01*
X136579449Y-85455664D01*
X136624988Y-85226724D01*
X136624988Y-84993300D01*
X136579449Y-84764360D01*
X136490122Y-84548704D01*
X136360438Y-84354618D01*
X136195382Y-84189562D01*
X136001296Y-84059878D01*
X135785640Y-83970551D01*
X135556700Y-83925012D01*
X135323276Y-83925012D01*
X135094336Y-83970551D01*
X134878680Y-84059878D01*
X134684594Y-84189562D01*
X134519538Y-84354618D01*
X134389854Y-84548704D01*
X134300527Y-84764360D01*
X134254988Y-84993300D01*
X131503000Y-84993300D01*
X131503000Y-84898000D01*
X131523000Y-84898000D01*
X131523000Y-83681269D01*
X131777000Y-83681269D01*
X131777000Y-84898000D01*
X132885000Y-84898000D01*
X132885000Y-84623000D01*
X132836493Y-84384504D01*
X132742390Y-84160054D01*
X132606307Y-83958275D01*
X132433474Y-83786922D01*
X132230533Y-83652579D01*
X132005282Y-83560409D01*
X131967609Y-83556538D01*
X131777000Y-83681269D01*
X131523000Y-83681269D01*
X131332391Y-83556538D01*
X131294718Y-83560409D01*
X131069467Y-83652579D01*
X130866526Y-83786922D01*
X130740967Y-83911406D01*
X130738405Y-83906613D01*
X130627962Y-83772038D01*
X130493387Y-83661595D01*
X130339851Y-83579528D01*
X130173255Y-83528992D01*
X130000001Y-83511928D01*
X129299999Y-83511928D01*
X129126745Y-83528992D01*
X128960149Y-83579528D01*
X128806613Y-83661595D01*
X128672038Y-83772038D01*
X128561595Y-83906613D01*
X128479528Y-84060149D01*
X128428992Y-84226745D01*
X128411928Y-84399999D01*
X128132857Y-84399999D01*
X128136360Y-80645000D01*
X133971928Y-80645000D01*
X133971928Y-82345000D01*
X133984188Y-82469482D01*
X134020498Y-82589180D01*
X134079463Y-82699494D01*
X134158815Y-82796185D01*
X134255506Y-82875537D01*
X134365820Y-82934502D01*
X134485518Y-82970812D01*
X134610000Y-82983072D01*
X136310000Y-82983072D01*
X136434482Y-82970812D01*
X136554180Y-82934502D01*
X136664494Y-82875537D01*
X136761185Y-82796185D01*
X136840537Y-82699494D01*
X136899502Y-82589180D01*
X136935812Y-82469482D01*
X136948072Y-82345000D01*
X136948072Y-80645000D01*
X136935812Y-80520518D01*
X136899502Y-80400820D01*
X136840537Y-80290506D01*
X136761185Y-80193815D01*
X136664494Y-80114463D01*
X136554180Y-80055498D01*
X136473534Y-80031034D01*
X136557588Y-79955269D01*
X136731641Y-79721920D01*
X136856825Y-79459099D01*
X136901476Y-79311890D01*
X136780155Y-79082000D01*
X135587000Y-79082000D01*
X135587000Y-79102000D01*
X135333000Y-79102000D01*
X135333000Y-79082000D01*
X134139845Y-79082000D01*
X134018524Y-79311890D01*
X134063175Y-79459099D01*
X134188359Y-79721920D01*
X134362412Y-79955269D01*
X134446466Y-80031034D01*
X134365820Y-80055498D01*
X134255506Y-80114463D01*
X134158815Y-80193815D01*
X134079463Y-80290506D01*
X134020498Y-80400820D01*
X133984188Y-80520518D01*
X133971928Y-80645000D01*
X128136360Y-80645000D01*
X128138269Y-78598110D01*
X134018524Y-78598110D01*
X134139845Y-78828000D01*
X135333000Y-78828000D01*
X135333000Y-77634186D01*
X135587000Y-77634186D01*
X135587000Y-78828000D01*
X136780155Y-78828000D01*
X136901476Y-78598110D01*
X136856825Y-78450901D01*
X136731641Y-78188080D01*
X136557588Y-77954731D01*
X136341355Y-77759822D01*
X136091252Y-77610843D01*
X135816891Y-77513519D01*
X135587000Y-77634186D01*
X135333000Y-77634186D01*
X135103109Y-77513519D01*
X134828748Y-77610843D01*
X134578645Y-77759822D01*
X134362412Y-77954731D01*
X134188359Y-78188080D01*
X134063175Y-78450901D01*
X134018524Y-78598110D01*
X128138269Y-78598110D01*
X128139326Y-77466025D01*
X128489087Y-77699728D01*
X128950428Y-77890822D01*
X129440184Y-77988240D01*
X129939536Y-77988240D01*
X130429292Y-77890822D01*
X130890633Y-77699728D01*
X131305828Y-77422303D01*
X131658923Y-77069208D01*
X131936348Y-76654013D01*
X132127442Y-76192672D01*
X132224860Y-75702916D01*
X132224860Y-75203564D01*
X132127442Y-74713808D01*
X131936348Y-74252467D01*
X131707190Y-73909509D01*
X133603969Y-73908120D01*
X166086171Y-73949583D01*
G37*
%TD.AperFunction*%
D20*
X154807000Y-101673000D02*
X154827000Y-101673000D01*
X154827000Y-101927000D01*
X154807000Y-101927000D01*
X154807000Y-101947000D01*
X154553000Y-101947000D01*
X154553000Y-101927000D01*
X154533000Y-101927000D01*
X154533000Y-101673000D01*
X154553000Y-101673000D01*
X154553000Y-101653000D01*
X154807000Y-101653000D01*
X154807000Y-101673000D01*
%TA.AperFunction,Conductor*%
D21*
G36*
X154807000Y-101673000D02*
G01*
X154827000Y-101673000D01*
X154827000Y-101927000D01*
X154807000Y-101927000D01*
X154807000Y-101947000D01*
X154553000Y-101947000D01*
X154553000Y-101927000D01*
X154533000Y-101927000D01*
X154533000Y-101673000D01*
X154553000Y-101673000D01*
X154553000Y-101653000D01*
X154807000Y-101653000D01*
X154807000Y-101673000D01*
G37*
%TD.AperFunction*%
%TD*%
M02*
