%TF.GenerationSoftware,KiCad,Pcbnew,(5.1.9)-1*%
%TF.CreationDate,2021-05-12T18:30:48+02:00*%
%TF.ProjectId,clip,636c6970-2e6b-4696-9361-645f70636258,rev?*%
%TF.SameCoordinates,Original*%
%TF.FileFunction,Copper,L2,Bot*%
%TF.FilePolarity,Positive*%
%FSLAX46Y46*%
G04 Gerber Fmt 4.6, Leading zero omitted, Abs format (unit mm)*
G04 Created by KiCad (PCBNEW (5.1.9)-1) date 2021-05-12 18:30:48*
%MOMM*%
%LPD*%
G01*
G04 APERTURE LIST*
%TA.AperFunction,ComponentPad*%
%ADD10O,1.700000X1.700000*%
%TD*%
%TA.AperFunction,ComponentPad*%
%ADD11R,1.700000X1.700000*%
%TD*%
%TA.AperFunction,ComponentPad*%
%ADD12O,0.850000X1.850000*%
%TD*%
%TA.AperFunction,ComponentPad*%
%ADD13C,0.840000*%
%TD*%
%TA.AperFunction,ComponentPad*%
%ADD14R,0.840000X0.840000*%
%TD*%
%TA.AperFunction,ComponentPad*%
%ADD15O,1.200000X1.750000*%
%TD*%
%TA.AperFunction,ViaPad*%
%ADD16C,3.520000*%
%TD*%
%TA.AperFunction,ViaPad*%
%ADD17C,0.800000*%
%TD*%
%TA.AperFunction,ViaPad*%
%ADD18C,1.100000*%
%TD*%
%TA.AperFunction,Conductor*%
%ADD19C,0.250000*%
%TD*%
%TA.AperFunction,Conductor*%
%ADD20C,0.500000*%
%TD*%
%TA.AperFunction,Conductor*%
%ADD21C,0.254000*%
%TD*%
%TA.AperFunction,Conductor*%
%ADD22C,0.100000*%
%TD*%
G04 APERTURE END LIST*
D10*
%TO.P,DL,2*%
%TO.N,IO0*%
X126490000Y-117670000D03*
D11*
%TO.P,DL,1*%
%TO.N,GND*%
X126490000Y-120210000D03*
%TD*%
D10*
%TO.P,PW,2*%
%TO.N,+3V3*%
X171450000Y-117665500D03*
D11*
%TO.P,PW,1*%
%TO.N,Net-(C5-Pad1)*%
X171450000Y-120205500D03*
%TD*%
D10*
%TO.P,LIS3DH,8*%
%TO.N,Net-(J4-Pad8)*%
X168670000Y-91870000D03*
%TO.P,LIS3DH,7*%
%TO.N,Net-(J4-Pad7)*%
X166130000Y-91870000D03*
%TO.P,LIS3DH,6*%
%TO.N,Net-(J4-Pad6)*%
X163590000Y-91870000D03*
%TO.P,LIS3DH,5*%
%TO.N,SDA*%
X161050000Y-91870000D03*
%TO.P,LIS3DH,4*%
%TO.N,SCL*%
X158510000Y-91870000D03*
%TO.P,LIS3DH,3*%
%TO.N,GND*%
X155970000Y-91870000D03*
%TO.P,LIS3DH,2*%
%TO.N,Net-(J4-Pad2)*%
X153430000Y-91870000D03*
D11*
%TO.P,LIS3DH,1*%
%TO.N,+3V3*%
X150890000Y-91870000D03*
%TD*%
D10*
%TO.P,VIN,2*%
%TO.N,GND*%
X137470000Y-61130000D03*
D11*
%TO.P,VIN,1*%
%TO.N,VBUS*%
X140010000Y-61130000D03*
%TD*%
D10*
%TO.P,FW,6*%
%TO.N,+3V3*%
X155300000Y-97650000D03*
%TO.P,FW,5*%
%TO.N,TX0*%
X152760000Y-97650000D03*
%TO.P,FW,4*%
%TO.N,RX0*%
X150220000Y-97650000D03*
%TO.P,FW,3*%
%TO.N,EN*%
X147680000Y-97650000D03*
%TO.P,FW,2*%
%TO.N,IO0*%
X145140000Y-97650000D03*
D11*
%TO.P,FW,1*%
%TO.N,GND*%
X142600000Y-97650000D03*
%TD*%
D10*
%TO.P,BME680,7*%
%TO.N,Net-(J3-Pad7)*%
X144208500Y-91821000D03*
%TO.P,BME680,6*%
%TO.N,SDA*%
X141668500Y-91821000D03*
%TO.P,BME680,5*%
%TO.N,Net-(J3-Pad5)*%
X139128500Y-91821000D03*
%TO.P,BME680,4*%
%TO.N,SCL*%
X136588500Y-91821000D03*
%TO.P,BME680,3*%
%TO.N,GND*%
X134048500Y-91821000D03*
%TO.P,BME680,2*%
%TO.N,Net-(J3-Pad2)*%
X131508500Y-91821000D03*
D11*
%TO.P,BME680,1*%
%TO.N,+3V3*%
X128968500Y-91821000D03*
%TD*%
D10*
%TO.P,MOISTURE,3*%
%TO.N,GND*%
X151380000Y-61150000D03*
%TO.P,MOISTURE,2*%
%TO.N,+3V3*%
X148840000Y-61150000D03*
D11*
%TO.P,MOISTURE,1*%
%TO.N,IO34*%
X146300000Y-61150000D03*
%TD*%
D12*
%TO.P,USB,6*%
%TO.N,GND*%
X135175000Y-55080000D03*
X142325000Y-55080000D03*
D13*
%TO.P,USB,5*%
X137450000Y-55300000D03*
%TO.P,USB,4*%
%TO.N,Net-(J2-Pad4)*%
X138100000Y-54300000D03*
%TO.P,USB,3*%
%TO.N,Net-(J2-Pad3)*%
X138750000Y-55300000D03*
%TO.P,USB,2*%
%TO.N,Net-(J2-Pad2)*%
X139400000Y-54300000D03*
D14*
%TO.P,USB,1*%
%TO.N,VBUS*%
X140050000Y-55300000D03*
%TD*%
D15*
%TO.P,BATTERY,2*%
%TO.N,GND*%
X125800000Y-72370000D03*
%TO.P,BATTERY,1*%
%TO.N,+BATT*%
%TA.AperFunction,ComponentPad*%
G36*
G01*
X128400000Y-71744999D02*
X128400000Y-72995001D01*
G75*
G02*
X128150001Y-73245000I-249999J0D01*
G01*
X127449999Y-73245000D01*
G75*
G02*
X127200000Y-72995001I0J249999D01*
G01*
X127200000Y-71744999D01*
G75*
G02*
X127449999Y-71495000I249999J0D01*
G01*
X128150001Y-71495000D01*
G75*
G02*
X128400000Y-71744999I0J-249999D01*
G01*
G37*
%TD.AperFunction*%
%TD*%
D16*
%TO.N,*%
X163610000Y-116460000D03*
X134130000Y-116510000D03*
X163640000Y-66598000D03*
X134130000Y-66150000D03*
D17*
%TO.N,GND*%
X136271000Y-71907400D03*
X136994549Y-76898852D03*
X145288000Y-73748900D03*
X157861000Y-58826400D03*
D18*
%TO.N,VIN*%
X143637000Y-68478400D03*
X147574000Y-68478400D03*
%TO.N,+3V3*%
X153932000Y-71874400D03*
X157562000Y-71904400D03*
X171460000Y-97546000D03*
D17*
%TO.N,SDA*%
X137430000Y-113630000D03*
%TO.N,SCL*%
X136590000Y-118030000D03*
%TO.N,TX0*%
X142637500Y-119217500D03*
%TO.N,RX0*%
X142611316Y-117829478D03*
%TO.N,IO34*%
X166360000Y-103220000D03*
%TD*%
D19*
%TO.N,GND*%
X136271000Y-71907400D02*
X136271000Y-76175303D01*
X136271000Y-76175303D02*
X136994549Y-76898852D01*
X136271000Y-72415400D02*
X136271000Y-71907400D01*
X136271000Y-71907400D02*
X143446500Y-71907400D01*
X143446500Y-71907400D02*
X145288000Y-73748900D01*
X152349200Y-58801000D02*
X157886400Y-58801000D01*
X157886400Y-58801000D02*
X157861000Y-58826400D01*
X151380000Y-59770200D02*
X152349200Y-58801000D01*
X151380000Y-61290000D02*
X151380000Y-59770200D01*
D20*
%TO.N,VIN*%
X143637000Y-68478400D02*
X147574000Y-68478400D01*
%TO.N,+3V3*%
X171356000Y-97650000D02*
X171460000Y-97546000D01*
X155300000Y-97650000D02*
X171356000Y-97650000D01*
X157388240Y-71890000D02*
X157452080Y-71826160D01*
X153929440Y-71890000D02*
X157388240Y-71890000D01*
X153880840Y-71841400D02*
X153929440Y-71890000D01*
D19*
%TO.N,SDA*%
X161050000Y-92380000D02*
X161050000Y-91870000D01*
X158900000Y-94530000D02*
X161050000Y-92380000D01*
X148420000Y-94530000D02*
X158900000Y-94530000D01*
X148353243Y-94537521D02*
X148420000Y-94530000D01*
X148289834Y-94559709D02*
X148353243Y-94537521D01*
X148232953Y-94595450D02*
X148289834Y-94559709D01*
X146927521Y-93929795D02*
X146949709Y-93866386D01*
X146920000Y-93996551D02*
X146927521Y-93929795D01*
X146890290Y-95193614D02*
X146912478Y-95130205D01*
X146920000Y-95063449D02*
X146920000Y-93996551D01*
X146807046Y-95297998D02*
X146854549Y-95250495D01*
X146686756Y-95355927D02*
X146750165Y-95333739D01*
X146620000Y-95363449D02*
X146686756Y-95355927D01*
X146750165Y-95333739D02*
X146807046Y-95297998D01*
X146553243Y-95355927D02*
X146620000Y-95363449D01*
X146432953Y-95297998D02*
X146489834Y-95333739D01*
X146489834Y-95333739D02*
X146553243Y-95355927D01*
X146385450Y-95250495D02*
X146432953Y-95297998D01*
X146985450Y-93809505D02*
X147032953Y-93762002D01*
X141760000Y-92070000D02*
X144220000Y-94530000D01*
X146150165Y-94559709D02*
X146207046Y-94595450D01*
X146912478Y-95130205D02*
X146920000Y-95063449D01*
X146020000Y-94530000D02*
X146086756Y-94537521D01*
X146086756Y-94537521D02*
X146150165Y-94559709D01*
X144220000Y-94530000D02*
X146020000Y-94530000D01*
X147490290Y-93866386D02*
X147512478Y-93929795D01*
X146207046Y-94595450D02*
X146254549Y-94642953D01*
X146349709Y-95193614D02*
X146385450Y-95250495D01*
X146949709Y-93866386D02*
X146985450Y-93809505D01*
X146254549Y-94642953D02*
X146290290Y-94699834D01*
X146327521Y-95130205D02*
X146349709Y-95193614D01*
X146854549Y-95250495D02*
X146890290Y-95193614D01*
X146290290Y-94699834D02*
X146312478Y-94763243D01*
X146312478Y-94763243D02*
X146320000Y-94830000D01*
X146320000Y-94830000D02*
X146320000Y-95063449D01*
X146320000Y-95063449D02*
X146327521Y-95130205D01*
X147032953Y-93762002D02*
X147089834Y-93726261D01*
X147089834Y-93726261D02*
X147153243Y-93704073D01*
X147950165Y-95333739D02*
X148007046Y-95297998D01*
X147153243Y-93704073D02*
X147220000Y-93696551D01*
X147220000Y-93696551D02*
X147286756Y-93704073D01*
X147286756Y-93704073D02*
X147350165Y-93726261D01*
X147350165Y-93726261D02*
X147407046Y-93762002D01*
X147407046Y-93762002D02*
X147454549Y-93809505D01*
X147454549Y-93809505D02*
X147490290Y-93866386D01*
X147512478Y-93929795D02*
X147520000Y-93996551D01*
X147520000Y-93996551D02*
X147520000Y-95063449D01*
X147520000Y-95063449D02*
X147527521Y-95130205D01*
X147527521Y-95130205D02*
X147549709Y-95193614D01*
X147549709Y-95193614D02*
X147585450Y-95250495D01*
X147585450Y-95250495D02*
X147632953Y-95297998D01*
X147632953Y-95297998D02*
X147689834Y-95333739D01*
X147689834Y-95333739D02*
X147753243Y-95355927D01*
X147753243Y-95355927D02*
X147820000Y-95363449D01*
X147820000Y-95363449D02*
X147886756Y-95355927D01*
X147886756Y-95355927D02*
X147950165Y-95333739D01*
X148007046Y-95297998D02*
X148054549Y-95250495D01*
X148054549Y-95250495D02*
X148090290Y-95193614D01*
X148090290Y-95193614D02*
X148112478Y-95130205D01*
X148112478Y-95130205D02*
X148120000Y-95063449D01*
X148120000Y-95063449D02*
X148120000Y-94830000D01*
X148120000Y-94830000D02*
X148127521Y-94763243D01*
X148127521Y-94763243D02*
X148149709Y-94699834D01*
X148149709Y-94699834D02*
X148185450Y-94642953D01*
X148185450Y-94642953D02*
X148232953Y-94595450D01*
X137430000Y-96200000D02*
X137430000Y-113630000D01*
X138177943Y-95452055D02*
X137430000Y-96200000D01*
X138248976Y-95339006D02*
X138219828Y-95399532D01*
X139701987Y-94896792D02*
X139716935Y-94962286D01*
X138804368Y-93946524D02*
X138846254Y-93999047D01*
X137955841Y-94795052D02*
X137997727Y-94847575D01*
X138775221Y-93885998D02*
X138804368Y-93946524D01*
X138219828Y-95399532D02*
X138177943Y-95452055D01*
X139716935Y-94962286D02*
X139716934Y-95029466D01*
X138760272Y-93820504D02*
X138775221Y-93885998D01*
X138263924Y-95206333D02*
X138263924Y-95273512D01*
X138760272Y-93753325D02*
X138760272Y-93820504D01*
X138248976Y-95140839D02*
X138263924Y-95206333D01*
X138775221Y-93687831D02*
X138760272Y-93753325D01*
X138804368Y-93627305D02*
X138775221Y-93687831D01*
X138846254Y-93574783D02*
X138804368Y-93627305D01*
X138898777Y-93532898D02*
X138846254Y-93574783D01*
X139259213Y-95249894D02*
X139206689Y-95208009D01*
X137911745Y-94669032D02*
X137926694Y-94734526D01*
X139630953Y-94783745D02*
X139672839Y-94836266D01*
X141730000Y-91900000D02*
X139875000Y-93755000D01*
X139630953Y-95208009D02*
X139578431Y-95249895D01*
X139761951Y-93826032D02*
X139696457Y-93840981D01*
X139024797Y-93488802D02*
X138959303Y-93503750D01*
X137955841Y-94475833D02*
X137926694Y-94536359D01*
X139696457Y-93840981D02*
X139629278Y-93840981D01*
X139875000Y-93755000D02*
X139822477Y-93796885D01*
X139450735Y-93755000D02*
X139270518Y-93574783D01*
X139091976Y-93488802D02*
X139024797Y-93488802D01*
X139716934Y-95029466D02*
X139701986Y-95094960D01*
X138243449Y-94337330D02*
X138176270Y-94337330D01*
X138959303Y-93503750D02*
X138898777Y-93532898D01*
X138846254Y-93999047D02*
X139630953Y-94783745D01*
X137997727Y-94423311D02*
X137955841Y-94475833D01*
X139503258Y-93796885D02*
X139450735Y-93755000D01*
X139517906Y-95279041D02*
X139452411Y-95293991D01*
X139217996Y-93532898D02*
X139157470Y-93503750D01*
X139270518Y-93574783D02*
X139217996Y-93532898D01*
X138176270Y-94337330D02*
X138110776Y-94352278D01*
X139629278Y-93840981D02*
X139563784Y-93826032D01*
X139157470Y-93503750D02*
X139091976Y-93488802D01*
X139701986Y-95094960D02*
X139672838Y-95155486D01*
X137926694Y-94536359D02*
X137911745Y-94601853D01*
X139672838Y-95155486D02*
X139630953Y-95208009D01*
X139578431Y-95249895D02*
X139517906Y-95279041D01*
X139822477Y-93796885D02*
X139761951Y-93826032D01*
X139452411Y-95293991D02*
X139385233Y-95293990D01*
X139563784Y-93826032D02*
X139503258Y-93796885D01*
X139385233Y-95293990D02*
X139319738Y-95279042D01*
X139319738Y-95279042D02*
X139259213Y-95249894D01*
X139206689Y-95208009D02*
X138421991Y-94423311D01*
X138421991Y-94423311D02*
X138369469Y-94381426D01*
X138369469Y-94381426D02*
X138308943Y-94352278D01*
X138308943Y-94352278D02*
X138243449Y-94337330D01*
X138110776Y-94352278D02*
X138050250Y-94381426D01*
X138050250Y-94381426D02*
X137997727Y-94423311D01*
X137911745Y-94601853D02*
X137911745Y-94669032D01*
X137926694Y-94734526D02*
X137955841Y-94795052D01*
X137997727Y-94847575D02*
X138177943Y-95027791D01*
X139672839Y-94836266D02*
X139701987Y-94896792D01*
X138177943Y-95027791D02*
X138219828Y-95080313D01*
X138219828Y-95080313D02*
X138248976Y-95140839D01*
X138263924Y-95273512D02*
X138248976Y-95339006D01*
%TO.N,SCL*%
X136590000Y-91160000D02*
X136590000Y-118030000D01*
X138880000Y-88870000D02*
X136590000Y-91160000D01*
X156440000Y-88870000D02*
X138880000Y-88870000D01*
X158510000Y-90940000D02*
X156440000Y-88870000D01*
X158510000Y-91870000D02*
X158510000Y-90940000D01*
%TO.N,TX0*%
X151060000Y-99350000D02*
X152760000Y-97650000D01*
X151040000Y-99350000D02*
X151060000Y-99350000D01*
X149980000Y-100410000D02*
X151040000Y-99350000D01*
X149980000Y-111875000D02*
X149980000Y-100410000D01*
X142637500Y-119217500D02*
X149980000Y-111875000D01*
%TO.N,RX0*%
X146950000Y-113490794D02*
X142611316Y-117829478D01*
X148290000Y-112150794D02*
X146950000Y-113490794D01*
X148290000Y-110140000D02*
X148290000Y-112150794D01*
X148297522Y-110073243D02*
X148290000Y-110140000D01*
X148523244Y-109847521D02*
X148459835Y-109869709D01*
X148881141Y-109832478D02*
X148814384Y-109840000D01*
X148944550Y-109810290D02*
X148881141Y-109832478D01*
X149048934Y-109727046D02*
X149001431Y-109774549D01*
X149084675Y-109670165D02*
X149048934Y-109727046D01*
X149106863Y-109606756D02*
X149084675Y-109670165D01*
X149114384Y-109540000D02*
X149106863Y-109606756D01*
X149084675Y-109409834D02*
X149106863Y-109473243D01*
X147635450Y-108669709D02*
X147578569Y-108705450D01*
X147698859Y-108647521D02*
X147635450Y-108669709D01*
X147495325Y-109070165D02*
X147531066Y-109127046D01*
X148120165Y-108610290D02*
X148056756Y-108632478D01*
X148056756Y-108632478D02*
X147990000Y-108640000D01*
X148282478Y-108406756D02*
X148260290Y-108470165D01*
X148260290Y-108470165D02*
X148224549Y-108527046D01*
X148355451Y-109952953D02*
X148319710Y-110009834D01*
X147765616Y-108640000D02*
X147698859Y-108647521D01*
X148944550Y-109269709D02*
X149001431Y-109305450D01*
X148290000Y-108340000D02*
X148282478Y-108406756D01*
X148319710Y-110009834D02*
X148297522Y-110073243D01*
X148177046Y-108574549D02*
X148120165Y-108610290D01*
X148290000Y-99580000D02*
X148290000Y-108340000D01*
X148402954Y-109905450D02*
X148355451Y-109952953D01*
X147990000Y-108640000D02*
X147765616Y-108640000D01*
X148224549Y-108527046D02*
X148177046Y-108574549D01*
X147698859Y-109232478D02*
X147765616Y-109240000D01*
X148590000Y-109840000D02*
X148523244Y-109847521D01*
X150220000Y-97650000D02*
X148290000Y-99580000D01*
X147578569Y-108705450D02*
X147531066Y-108752953D01*
X149001431Y-109774549D02*
X148944550Y-109810290D01*
X147531066Y-108752953D02*
X147495325Y-108809834D01*
X148459835Y-109869709D02*
X148402954Y-109905450D01*
X147531066Y-109127046D02*
X147578569Y-109174549D01*
X148814384Y-109840000D02*
X148590000Y-109840000D01*
X147495325Y-108809834D02*
X147473137Y-108873243D01*
X147465616Y-108940000D02*
X147473137Y-109006756D01*
X147473137Y-109006756D02*
X147495325Y-109070165D01*
X149106863Y-109473243D02*
X149114384Y-109540000D01*
X147578569Y-109174549D02*
X147635450Y-109210290D01*
X147473137Y-108873243D02*
X147465616Y-108940000D01*
X148881141Y-109247521D02*
X148944550Y-109269709D01*
X149048934Y-109352953D02*
X149084675Y-109409834D01*
X147635450Y-109210290D02*
X147698859Y-109232478D01*
X147765616Y-109240000D02*
X148814384Y-109240000D01*
X148814384Y-109240000D02*
X148881141Y-109247521D01*
X149001431Y-109305450D02*
X149048934Y-109352953D01*
%TO.N,IO34*%
X169131500Y-103220000D02*
X166360000Y-103220000D01*
X172720000Y-68834000D02*
X172720000Y-99631500D01*
X161666000Y-57780000D02*
X172720000Y-68834000D01*
X148290000Y-57780000D02*
X161666000Y-57780000D01*
X172720000Y-99631500D02*
X169131500Y-103220000D01*
X146300000Y-59770000D02*
X148290000Y-57780000D01*
X146300000Y-61150000D02*
X146300000Y-59770000D01*
D20*
%TO.N,Net-(J4-Pad8)*%
X168809998Y-91310002D02*
X168830000Y-91290000D01*
%TD*%
D21*
%TO.N,GND*%
X165484920Y-58938489D02*
X165481691Y-58972587D01*
X165488547Y-59039614D01*
X165495250Y-59105968D01*
X165495378Y-59106385D01*
X165495422Y-59106819D01*
X165515097Y-59170812D01*
X165534741Y-59234993D01*
X165534948Y-59235378D01*
X165535076Y-59235794D01*
X165566841Y-59294689D01*
X165598645Y-59353834D01*
X165598923Y-59354171D01*
X165599130Y-59354555D01*
X165641811Y-59406165D01*
X165684506Y-59457924D01*
X165684845Y-59458201D01*
X165685123Y-59458537D01*
X165736972Y-59500763D01*
X165789024Y-59543265D01*
X165789411Y-59543471D01*
X165789748Y-59543745D01*
X165848803Y-59575025D01*
X165908183Y-59606574D01*
X165908602Y-59606700D01*
X165908987Y-59606904D01*
X165973318Y-59626155D01*
X166037404Y-59645421D01*
X166037837Y-59645463D01*
X166038256Y-59645588D01*
X166105032Y-59651911D01*
X166171718Y-59658311D01*
X166205786Y-59654870D01*
X173464895Y-59627580D01*
X173463498Y-68666865D01*
X173425546Y-68541753D01*
X173354974Y-68409724D01*
X173260001Y-68293999D01*
X173231004Y-68270202D01*
X162229804Y-57269003D01*
X162206001Y-57239999D01*
X162090276Y-57145026D01*
X161958247Y-57074454D01*
X161814986Y-57030997D01*
X161703333Y-57020000D01*
X161703322Y-57020000D01*
X161666000Y-57016324D01*
X161628678Y-57020000D01*
X148327322Y-57020000D01*
X148290000Y-57016324D01*
X148252677Y-57020000D01*
X148252667Y-57020000D01*
X148141014Y-57030997D01*
X147997753Y-57074454D01*
X147865723Y-57145026D01*
X147782083Y-57213668D01*
X147749999Y-57239999D01*
X147726201Y-57268997D01*
X145788998Y-59206201D01*
X145760000Y-59229999D01*
X145736202Y-59258997D01*
X145736201Y-59258998D01*
X145665026Y-59345724D01*
X145594454Y-59477754D01*
X145574582Y-59543265D01*
X145550998Y-59621014D01*
X145546968Y-59661928D01*
X145450000Y-59661928D01*
X145325518Y-59674188D01*
X145205820Y-59710498D01*
X145095506Y-59769463D01*
X144998815Y-59848815D01*
X144919463Y-59945506D01*
X144860498Y-60055820D01*
X144824188Y-60175518D01*
X144811928Y-60300000D01*
X144811928Y-62000000D01*
X144824188Y-62124482D01*
X144860498Y-62244180D01*
X144919463Y-62354494D01*
X144998815Y-62451185D01*
X145095506Y-62530537D01*
X145205820Y-62589502D01*
X145325518Y-62625812D01*
X145450000Y-62638072D01*
X147150000Y-62638072D01*
X147274482Y-62625812D01*
X147394180Y-62589502D01*
X147504494Y-62530537D01*
X147601185Y-62451185D01*
X147680537Y-62354494D01*
X147739502Y-62244180D01*
X147761513Y-62171620D01*
X147893368Y-62303475D01*
X148136589Y-62465990D01*
X148406842Y-62577932D01*
X148693740Y-62635000D01*
X148986260Y-62635000D01*
X149273158Y-62577932D01*
X149543411Y-62465990D01*
X149786632Y-62303475D01*
X149993475Y-62096632D01*
X150115195Y-61914466D01*
X150184822Y-62031355D01*
X150379731Y-62247588D01*
X150613080Y-62421641D01*
X150875901Y-62546825D01*
X151023110Y-62591476D01*
X151253000Y-62470155D01*
X151253000Y-61277000D01*
X151507000Y-61277000D01*
X151507000Y-62470155D01*
X151736890Y-62591476D01*
X151884099Y-62546825D01*
X152146920Y-62421641D01*
X152380269Y-62247588D01*
X152575178Y-62031355D01*
X152724157Y-61781252D01*
X152821481Y-61506891D01*
X152700814Y-61277000D01*
X151507000Y-61277000D01*
X151253000Y-61277000D01*
X151233000Y-61277000D01*
X151233000Y-61023000D01*
X151253000Y-61023000D01*
X151253000Y-59829845D01*
X151507000Y-59829845D01*
X151507000Y-61023000D01*
X152700814Y-61023000D01*
X152821481Y-60793109D01*
X152724157Y-60518748D01*
X152575178Y-60268645D01*
X152380269Y-60052412D01*
X152146920Y-59878359D01*
X151884099Y-59753175D01*
X151736890Y-59708524D01*
X151507000Y-59829845D01*
X151253000Y-59829845D01*
X151023110Y-59708524D01*
X150875901Y-59753175D01*
X150613080Y-59878359D01*
X150379731Y-60052412D01*
X150184822Y-60268645D01*
X150115195Y-60385534D01*
X149993475Y-60203368D01*
X149786632Y-59996525D01*
X149543411Y-59834010D01*
X149273158Y-59722068D01*
X148986260Y-59665000D01*
X148693740Y-59665000D01*
X148406842Y-59722068D01*
X148136589Y-59834010D01*
X147893368Y-59996525D01*
X147761513Y-60128380D01*
X147739502Y-60055820D01*
X147680537Y-59945506D01*
X147601185Y-59848815D01*
X147504494Y-59769463D01*
X147420327Y-59724474D01*
X148604802Y-58540000D01*
X161351199Y-58540000D01*
X171960000Y-69148802D01*
X171960001Y-96470472D01*
X171805652Y-96406539D01*
X171576712Y-96361000D01*
X171343288Y-96361000D01*
X171114348Y-96406539D01*
X170898692Y-96495866D01*
X170704606Y-96625550D01*
X170565156Y-96765000D01*
X156494656Y-96765000D01*
X156453475Y-96703368D01*
X156246632Y-96496525D01*
X156003411Y-96334010D01*
X155733158Y-96222068D01*
X155446260Y-96165000D01*
X155153740Y-96165000D01*
X154866842Y-96222068D01*
X154596589Y-96334010D01*
X154353368Y-96496525D01*
X154146525Y-96703368D01*
X154030000Y-96877760D01*
X153913475Y-96703368D01*
X153706632Y-96496525D01*
X153463411Y-96334010D01*
X153193158Y-96222068D01*
X152906260Y-96165000D01*
X152613740Y-96165000D01*
X152326842Y-96222068D01*
X152056589Y-96334010D01*
X151813368Y-96496525D01*
X151606525Y-96703368D01*
X151490000Y-96877760D01*
X151373475Y-96703368D01*
X151166632Y-96496525D01*
X150923411Y-96334010D01*
X150653158Y-96222068D01*
X150366260Y-96165000D01*
X150073740Y-96165000D01*
X149786842Y-96222068D01*
X149516589Y-96334010D01*
X149273368Y-96496525D01*
X149066525Y-96703368D01*
X148950000Y-96877760D01*
X148833475Y-96703368D01*
X148626632Y-96496525D01*
X148383411Y-96334010D01*
X148113158Y-96222068D01*
X147826260Y-96165000D01*
X147533740Y-96165000D01*
X147246842Y-96222068D01*
X146976589Y-96334010D01*
X146733368Y-96496525D01*
X146526525Y-96703368D01*
X146410000Y-96877760D01*
X146293475Y-96703368D01*
X146086632Y-96496525D01*
X145843411Y-96334010D01*
X145573158Y-96222068D01*
X145286260Y-96165000D01*
X144993740Y-96165000D01*
X144706842Y-96222068D01*
X144436589Y-96334010D01*
X144193368Y-96496525D01*
X144061513Y-96628380D01*
X144039502Y-96555820D01*
X143980537Y-96445506D01*
X143901185Y-96348815D01*
X143804494Y-96269463D01*
X143694180Y-96210498D01*
X143574482Y-96174188D01*
X143450000Y-96161928D01*
X142885750Y-96165000D01*
X142727000Y-96323750D01*
X142727000Y-97523000D01*
X142747000Y-97523000D01*
X142747000Y-97777000D01*
X142727000Y-97777000D01*
X142727000Y-98976250D01*
X142885750Y-99135000D01*
X143450000Y-99138072D01*
X143574482Y-99125812D01*
X143694180Y-99089502D01*
X143804494Y-99030537D01*
X143901185Y-98951185D01*
X143980537Y-98854494D01*
X144039502Y-98744180D01*
X144061513Y-98671620D01*
X144193368Y-98803475D01*
X144436589Y-98965990D01*
X144706842Y-99077932D01*
X144993740Y-99135000D01*
X145286260Y-99135000D01*
X145573158Y-99077932D01*
X145843411Y-98965990D01*
X146086632Y-98803475D01*
X146293475Y-98596632D01*
X146410000Y-98422240D01*
X146526525Y-98596632D01*
X146733368Y-98803475D01*
X146976589Y-98965990D01*
X147246842Y-99077932D01*
X147533740Y-99135000D01*
X147672034Y-99135000D01*
X147655026Y-99155724D01*
X147627498Y-99207225D01*
X147584454Y-99287754D01*
X147540997Y-99431015D01*
X147530000Y-99542668D01*
X147530000Y-99542678D01*
X147526324Y-99580000D01*
X147530000Y-99617322D01*
X147530001Y-107906437D01*
X147529730Y-107906503D01*
X147466956Y-107919907D01*
X147422691Y-107938973D01*
X147409599Y-107943554D01*
X147363104Y-107956246D01*
X147305665Y-107984907D01*
X147247443Y-108011946D01*
X147208536Y-108040381D01*
X147196785Y-108047764D01*
X147154293Y-108070477D01*
X147104664Y-108111206D01*
X147053924Y-108150519D01*
X147022323Y-108186894D01*
X147012511Y-108196707D01*
X146976135Y-108228308D01*
X146936822Y-108279048D01*
X146896092Y-108328677D01*
X146873373Y-108371180D01*
X146865998Y-108382918D01*
X146837562Y-108421827D01*
X146810523Y-108480049D01*
X146781862Y-108537488D01*
X146769170Y-108583983D01*
X146764588Y-108597078D01*
X146745523Y-108641341D01*
X146732121Y-108704107D01*
X146716959Y-108766486D01*
X146714931Y-108814649D01*
X146713381Y-108828411D01*
X146704642Y-108875806D01*
X146705542Y-108940016D01*
X146704643Y-109004195D01*
X146713379Y-109051577D01*
X146714931Y-109065353D01*
X146716959Y-109113513D01*
X146732118Y-109175882D01*
X146745523Y-109238660D01*
X146764589Y-109282926D01*
X146769170Y-109296016D01*
X146781862Y-109342511D01*
X146810523Y-109399950D01*
X146837562Y-109458172D01*
X146865998Y-109497081D01*
X146873373Y-109508819D01*
X146896092Y-109551322D01*
X146936822Y-109600951D01*
X146976135Y-109651691D01*
X147012511Y-109683292D01*
X147022323Y-109693105D01*
X147053924Y-109729480D01*
X147104664Y-109768793D01*
X147154293Y-109809522D01*
X147196785Y-109832235D01*
X147208536Y-109839618D01*
X147247443Y-109868053D01*
X147305665Y-109895092D01*
X147363104Y-109923753D01*
X147409599Y-109936445D01*
X147422683Y-109941023D01*
X147466945Y-109960089D01*
X147529727Y-109973495D01*
X147540934Y-109976219D01*
X147539799Y-110003178D01*
X147534184Y-110060183D01*
X147530599Y-110092002D01*
X147530524Y-110097347D01*
X147530000Y-110102668D01*
X147530000Y-110134720D01*
X147529026Y-110204184D01*
X147530000Y-110209467D01*
X147530001Y-111835991D01*
X146439002Y-112926991D01*
X146438997Y-112926995D01*
X142571515Y-116794478D01*
X142509377Y-116794478D01*
X142309418Y-116834252D01*
X142121060Y-116912273D01*
X141951542Y-117025541D01*
X141807379Y-117169704D01*
X141694111Y-117339222D01*
X141616090Y-117527580D01*
X141576316Y-117727539D01*
X141576316Y-117931417D01*
X141616090Y-118131376D01*
X141694111Y-118319734D01*
X141807379Y-118489252D01*
X141854708Y-118536581D01*
X141833563Y-118557726D01*
X141720295Y-118727244D01*
X141642274Y-118915602D01*
X141602500Y-119115561D01*
X141602500Y-119319439D01*
X141642274Y-119519398D01*
X141720295Y-119707756D01*
X141833563Y-119877274D01*
X141977726Y-120021437D01*
X142147244Y-120134705D01*
X142335602Y-120212726D01*
X142535561Y-120252500D01*
X142739439Y-120252500D01*
X142939398Y-120212726D01*
X143127756Y-120134705D01*
X143297274Y-120021437D01*
X143441437Y-119877274D01*
X143554705Y-119707756D01*
X143632726Y-119519398D01*
X143665327Y-119355500D01*
X169961928Y-119355500D01*
X169961928Y-121055500D01*
X169974188Y-121179982D01*
X170010498Y-121299680D01*
X170069463Y-121409994D01*
X170148815Y-121506685D01*
X170245506Y-121586037D01*
X170355820Y-121645002D01*
X170475518Y-121681312D01*
X170600000Y-121693572D01*
X172300000Y-121693572D01*
X172424482Y-121681312D01*
X172544180Y-121645002D01*
X172654494Y-121586037D01*
X172751185Y-121506685D01*
X172830537Y-121409994D01*
X172889502Y-121299680D01*
X172925812Y-121179982D01*
X172938072Y-121055500D01*
X172938072Y-119355500D01*
X172925812Y-119231018D01*
X172889502Y-119111320D01*
X172830537Y-119001006D01*
X172751185Y-118904315D01*
X172654494Y-118824963D01*
X172544180Y-118765998D01*
X172471620Y-118743987D01*
X172603475Y-118612132D01*
X172765990Y-118368911D01*
X172877932Y-118098658D01*
X172935000Y-117811760D01*
X172935000Y-117519240D01*
X172877932Y-117232342D01*
X172765990Y-116962089D01*
X172603475Y-116718868D01*
X172396632Y-116512025D01*
X172153411Y-116349510D01*
X171883158Y-116237568D01*
X171596260Y-116180500D01*
X171303740Y-116180500D01*
X171016842Y-116237568D01*
X170746589Y-116349510D01*
X170503368Y-116512025D01*
X170296525Y-116718868D01*
X170134010Y-116962089D01*
X170022068Y-117232342D01*
X169965000Y-117519240D01*
X169965000Y-117811760D01*
X170022068Y-118098658D01*
X170134010Y-118368911D01*
X170296525Y-118612132D01*
X170428380Y-118743987D01*
X170355820Y-118765998D01*
X170245506Y-118824963D01*
X170148815Y-118904315D01*
X170069463Y-119001006D01*
X170010498Y-119111320D01*
X169974188Y-119231018D01*
X169961928Y-119355500D01*
X143665327Y-119355500D01*
X143672500Y-119319439D01*
X143672500Y-119257301D01*
X146705688Y-116224113D01*
X161215000Y-116224113D01*
X161215000Y-116695887D01*
X161307039Y-117158596D01*
X161487579Y-117594458D01*
X161749682Y-117986723D01*
X162083277Y-118320318D01*
X162475542Y-118582421D01*
X162911404Y-118762961D01*
X163374113Y-118855000D01*
X163845887Y-118855000D01*
X164308596Y-118762961D01*
X164744458Y-118582421D01*
X165136723Y-118320318D01*
X165470318Y-117986723D01*
X165732421Y-117594458D01*
X165912961Y-117158596D01*
X166005000Y-116695887D01*
X166005000Y-116224113D01*
X165912961Y-115761404D01*
X165732421Y-115325542D01*
X165470318Y-114933277D01*
X165136723Y-114599682D01*
X164744458Y-114337579D01*
X164308596Y-114157039D01*
X163845887Y-114065000D01*
X163374113Y-114065000D01*
X162911404Y-114157039D01*
X162475542Y-114337579D01*
X162083277Y-114599682D01*
X161749682Y-114933277D01*
X161487579Y-115325542D01*
X161307039Y-115761404D01*
X161215000Y-116224113D01*
X146705688Y-116224113D01*
X150491004Y-112438798D01*
X150520001Y-112415001D01*
X150614560Y-112299781D01*
X150614974Y-112299277D01*
X150685546Y-112167247D01*
X150685546Y-112167246D01*
X150729003Y-112023986D01*
X150740000Y-111912333D01*
X150740000Y-111912324D01*
X150743676Y-111875001D01*
X150740000Y-111837678D01*
X150740000Y-108818061D01*
X165315000Y-108818061D01*
X165315000Y-109021939D01*
X165354774Y-109221898D01*
X165432795Y-109410256D01*
X165546063Y-109579774D01*
X165690226Y-109723937D01*
X165859744Y-109837205D01*
X166048102Y-109915226D01*
X166248061Y-109955000D01*
X166451939Y-109955000D01*
X166651898Y-109915226D01*
X166840256Y-109837205D01*
X167009774Y-109723937D01*
X167153937Y-109579774D01*
X167267205Y-109410256D01*
X167345226Y-109221898D01*
X167385000Y-109021939D01*
X167385000Y-108818061D01*
X167345226Y-108618102D01*
X167267205Y-108429744D01*
X167153937Y-108260226D01*
X167009774Y-108116063D01*
X166840256Y-108002795D01*
X166651898Y-107924774D01*
X166451939Y-107885000D01*
X166248061Y-107885000D01*
X166048102Y-107924774D01*
X165859744Y-108002795D01*
X165690226Y-108116063D01*
X165546063Y-108260226D01*
X165432795Y-108429744D01*
X165354774Y-108618102D01*
X165315000Y-108818061D01*
X150740000Y-108818061D01*
X150740000Y-100724801D01*
X151474722Y-99990081D01*
X151484276Y-99984974D01*
X151600001Y-99890001D01*
X151623804Y-99860997D01*
X152393592Y-99091209D01*
X152613740Y-99135000D01*
X152906260Y-99135000D01*
X153193158Y-99077932D01*
X153463411Y-98965990D01*
X153706632Y-98803475D01*
X153913475Y-98596632D01*
X154030000Y-98422240D01*
X154146525Y-98596632D01*
X154353368Y-98803475D01*
X154596589Y-98965990D01*
X154866842Y-99077932D01*
X155153740Y-99135000D01*
X155446260Y-99135000D01*
X155733158Y-99077932D01*
X156003411Y-98965990D01*
X156246632Y-98803475D01*
X156453475Y-98596632D01*
X156494656Y-98535000D01*
X170807198Y-98535000D01*
X170898692Y-98596134D01*
X171114348Y-98685461D01*
X171343288Y-98731000D01*
X171576712Y-98731000D01*
X171805652Y-98685461D01*
X171960001Y-98621528D01*
X171960001Y-99316697D01*
X168816699Y-102460000D01*
X167063711Y-102460000D01*
X167019774Y-102416063D01*
X166850256Y-102302795D01*
X166661898Y-102224774D01*
X166461939Y-102185000D01*
X166258061Y-102185000D01*
X166058102Y-102224774D01*
X165869744Y-102302795D01*
X165700226Y-102416063D01*
X165556063Y-102560226D01*
X165442795Y-102729744D01*
X165364774Y-102918102D01*
X165325000Y-103118061D01*
X165325000Y-103321939D01*
X165364774Y-103521898D01*
X165442795Y-103710256D01*
X165556063Y-103879774D01*
X165700226Y-104023937D01*
X165869744Y-104137205D01*
X166058102Y-104215226D01*
X166258061Y-104255000D01*
X166461939Y-104255000D01*
X166661898Y-104215226D01*
X166850256Y-104137205D01*
X167019774Y-104023937D01*
X167063711Y-103980000D01*
X169094178Y-103980000D01*
X169131500Y-103983676D01*
X169168822Y-103980000D01*
X169168833Y-103980000D01*
X169280486Y-103969003D01*
X169423747Y-103925546D01*
X169555776Y-103854974D01*
X169671501Y-103760001D01*
X169695304Y-103730997D01*
X173231003Y-100195299D01*
X173260001Y-100171501D01*
X173354974Y-100055776D01*
X173425546Y-99923747D01*
X173458685Y-99814501D01*
X173455106Y-122975000D01*
X166163214Y-122975000D01*
X166129140Y-122971687D01*
X166062909Y-122978294D01*
X165995717Y-122984912D01*
X165995300Y-122985039D01*
X165994874Y-122985081D01*
X165931226Y-123004475D01*
X165866594Y-123024081D01*
X165866211Y-123024286D01*
X165865800Y-123024411D01*
X165807094Y-123055884D01*
X165747593Y-123087688D01*
X165747257Y-123087964D01*
X165746878Y-123088167D01*
X165695313Y-123130594D01*
X165643289Y-123173289D01*
X165643014Y-123173624D01*
X165642681Y-123173898D01*
X165600417Y-123225528D01*
X165557688Y-123277593D01*
X165557483Y-123277977D01*
X165557211Y-123278309D01*
X165526008Y-123336863D01*
X165494081Y-123396594D01*
X165493954Y-123397013D01*
X165493753Y-123397390D01*
X165474525Y-123461060D01*
X165454912Y-123525717D01*
X165454869Y-123526149D01*
X165454745Y-123526561D01*
X165448296Y-123592889D01*
X165441686Y-123660000D01*
X165445043Y-123694079D01*
X165446279Y-124682799D01*
X132331303Y-124673198D01*
X132334868Y-123726216D01*
X132338308Y-123692577D01*
X132330662Y-123611848D01*
X132325588Y-123558260D01*
X132325587Y-123558256D01*
X132325586Y-123558247D01*
X132303423Y-123484188D01*
X132286905Y-123428990D01*
X132286902Y-123428984D01*
X132286900Y-123428978D01*
X132253041Y-123365057D01*
X132223747Y-123309751D01*
X132223744Y-123309747D01*
X132223740Y-123309740D01*
X132177752Y-123253275D01*
X132138539Y-123205125D01*
X132138534Y-123205121D01*
X132138530Y-123205116D01*
X132094224Y-123168476D01*
X132034558Y-123119132D01*
X132034551Y-123119128D01*
X132034547Y-123119125D01*
X131952218Y-123074721D01*
X131915797Y-123055078D01*
X131915785Y-123055072D01*
X131825690Y-123027373D01*
X131786823Y-123015423D01*
X131786818Y-123015423D01*
X131786810Y-123015420D01*
X131686212Y-123005131D01*
X131686209Y-123005131D01*
X131652590Y-123001692D01*
X131618933Y-123004879D01*
X124324763Y-122977560D01*
X124324100Y-121060000D01*
X125001928Y-121060000D01*
X125014188Y-121184482D01*
X125050498Y-121304180D01*
X125109463Y-121414494D01*
X125188815Y-121511185D01*
X125285506Y-121590537D01*
X125395820Y-121649502D01*
X125515518Y-121685812D01*
X125640000Y-121698072D01*
X126204250Y-121695000D01*
X126363000Y-121536250D01*
X126363000Y-120337000D01*
X126617000Y-120337000D01*
X126617000Y-121536250D01*
X126775750Y-121695000D01*
X127340000Y-121698072D01*
X127464482Y-121685812D01*
X127584180Y-121649502D01*
X127694494Y-121590537D01*
X127791185Y-121511185D01*
X127870537Y-121414494D01*
X127929502Y-121304180D01*
X127965812Y-121184482D01*
X127978072Y-121060000D01*
X127975000Y-120495750D01*
X127816250Y-120337000D01*
X126617000Y-120337000D01*
X126363000Y-120337000D01*
X125163750Y-120337000D01*
X125005000Y-120495750D01*
X125001928Y-121060000D01*
X124324100Y-121060000D01*
X124323512Y-119360000D01*
X125001928Y-119360000D01*
X125005000Y-119924250D01*
X125163750Y-120083000D01*
X126363000Y-120083000D01*
X126363000Y-120063000D01*
X126617000Y-120063000D01*
X126617000Y-120083000D01*
X127816250Y-120083000D01*
X127975000Y-119924250D01*
X127978072Y-119360000D01*
X127965812Y-119235518D01*
X127929502Y-119115820D01*
X127870537Y-119005506D01*
X127791185Y-118908815D01*
X127694494Y-118829463D01*
X127584180Y-118770498D01*
X127511620Y-118748487D01*
X127643475Y-118616632D01*
X127805990Y-118373411D01*
X127917932Y-118103158D01*
X127975000Y-117816260D01*
X127975000Y-117523740D01*
X127917932Y-117236842D01*
X127805990Y-116966589D01*
X127643475Y-116723368D01*
X127436632Y-116516525D01*
X127193411Y-116354010D01*
X127000522Y-116274113D01*
X131735000Y-116274113D01*
X131735000Y-116745887D01*
X131827039Y-117208596D01*
X132007579Y-117644458D01*
X132269682Y-118036723D01*
X132603277Y-118370318D01*
X132995542Y-118632421D01*
X133431404Y-118812961D01*
X133894113Y-118905000D01*
X134365887Y-118905000D01*
X134828596Y-118812961D01*
X135264458Y-118632421D01*
X135620667Y-118394410D01*
X135672795Y-118520256D01*
X135786063Y-118689774D01*
X135930226Y-118833937D01*
X136099744Y-118947205D01*
X136288102Y-119025226D01*
X136488061Y-119065000D01*
X136691939Y-119065000D01*
X136891898Y-119025226D01*
X137080256Y-118947205D01*
X137249774Y-118833937D01*
X137393937Y-118689774D01*
X137507205Y-118520256D01*
X137585226Y-118331898D01*
X137625000Y-118131939D01*
X137625000Y-117928061D01*
X137585226Y-117728102D01*
X137507205Y-117539744D01*
X137393937Y-117370226D01*
X137350000Y-117326289D01*
X137350000Y-114665000D01*
X137531939Y-114665000D01*
X137731898Y-114625226D01*
X137920256Y-114547205D01*
X138089774Y-114433937D01*
X138233937Y-114289774D01*
X138347205Y-114120256D01*
X138425226Y-113931898D01*
X138465000Y-113731939D01*
X138465000Y-113528061D01*
X138425226Y-113328102D01*
X138347205Y-113139744D01*
X138233937Y-112970226D01*
X138190000Y-112926289D01*
X138190000Y-98500000D01*
X141111928Y-98500000D01*
X141124188Y-98624482D01*
X141160498Y-98744180D01*
X141219463Y-98854494D01*
X141298815Y-98951185D01*
X141395506Y-99030537D01*
X141505820Y-99089502D01*
X141625518Y-99125812D01*
X141750000Y-99138072D01*
X142314250Y-99135000D01*
X142473000Y-98976250D01*
X142473000Y-97777000D01*
X141273750Y-97777000D01*
X141115000Y-97935750D01*
X141111928Y-98500000D01*
X138190000Y-98500000D01*
X138190000Y-96800000D01*
X141111928Y-96800000D01*
X141115000Y-97364250D01*
X141273750Y-97523000D01*
X142473000Y-97523000D01*
X142473000Y-96323750D01*
X142314250Y-96165000D01*
X141750000Y-96161928D01*
X141625518Y-96174188D01*
X141505820Y-96210498D01*
X141395506Y-96269463D01*
X141298815Y-96348815D01*
X141219463Y-96445506D01*
X141160498Y-96555820D01*
X141124188Y-96675518D01*
X141111928Y-96800000D01*
X138190000Y-96800000D01*
X138190000Y-96514801D01*
X138666224Y-96038576D01*
X138670650Y-96035528D01*
X138719066Y-95985734D01*
X138741743Y-95963057D01*
X138745139Y-95958919D01*
X138748862Y-95955090D01*
X138768822Y-95930061D01*
X138805163Y-95885778D01*
X138818456Y-95871317D01*
X138854826Y-95893464D01*
X138908712Y-95928385D01*
X138953480Y-95946196D01*
X138965965Y-95952209D01*
X139007827Y-95976117D01*
X139068714Y-95996468D01*
X139128983Y-96018511D01*
X139176607Y-96025918D01*
X139190137Y-96029005D01*
X139236236Y-96042990D01*
X139300121Y-96049283D01*
X139363823Y-96057366D01*
X139411886Y-96053990D01*
X139425754Y-96053990D01*
X139473842Y-96057367D01*
X139537520Y-96049285D01*
X139601385Y-96042996D01*
X139647514Y-96029004D01*
X139661037Y-96025917D01*
X139708641Y-96018515D01*
X139768944Y-95996461D01*
X139829837Y-95976106D01*
X139871670Y-95952213D01*
X139884165Y-95946196D01*
X139928953Y-95928375D01*
X139982811Y-95893470D01*
X140037632Y-95860088D01*
X140073122Y-95827467D01*
X140083971Y-95818815D01*
X140123660Y-95791482D01*
X140168409Y-95745459D01*
X140214437Y-95700704D01*
X140241770Y-95661013D01*
X140250415Y-95650173D01*
X140283022Y-95614699D01*
X140316408Y-95559874D01*
X140351326Y-95505994D01*
X140369140Y-95461220D01*
X140375155Y-95448729D01*
X140399060Y-95406873D01*
X140419412Y-95345981D01*
X140441456Y-95285710D01*
X140448863Y-95238081D01*
X140451947Y-95224571D01*
X140465934Y-95178463D01*
X140472228Y-95114567D01*
X140480310Y-95050878D01*
X140476934Y-95002815D01*
X140476934Y-94988949D01*
X140480311Y-94940874D01*
X140472231Y-94877201D01*
X140465940Y-94813312D01*
X140451949Y-94767188D01*
X140448864Y-94753671D01*
X140441457Y-94706042D01*
X140419411Y-94645766D01*
X140399061Y-94584879D01*
X140375156Y-94543023D01*
X140369135Y-94530520D01*
X140351316Y-94485738D01*
X140316417Y-94431891D01*
X140294263Y-94395511D01*
X140308708Y-94382233D01*
X140352993Y-94345889D01*
X140378035Y-94325919D01*
X140381870Y-94322190D01*
X140386002Y-94318799D01*
X140408642Y-94296159D01*
X140458473Y-94247707D01*
X140461523Y-94243278D01*
X141419281Y-93285520D01*
X141522240Y-93306000D01*
X141814760Y-93306000D01*
X141903539Y-93288341D01*
X143656201Y-95041003D01*
X143679999Y-95070001D01*
X143795724Y-95164974D01*
X143927753Y-95235546D01*
X144071014Y-95279003D01*
X144182667Y-95290000D01*
X144182676Y-95290000D01*
X144219999Y-95293676D01*
X144257322Y-95290000D01*
X145584234Y-95290000D01*
X145586502Y-95299331D01*
X145599907Y-95362109D01*
X145618973Y-95406375D01*
X145623554Y-95419465D01*
X145636246Y-95465960D01*
X145664907Y-95523399D01*
X145691946Y-95581621D01*
X145720382Y-95620530D01*
X145727757Y-95632268D01*
X145750476Y-95674771D01*
X145791206Y-95724400D01*
X145830519Y-95775140D01*
X145866895Y-95806741D01*
X145876707Y-95816554D01*
X145908308Y-95852929D01*
X145959048Y-95892242D01*
X146008677Y-95932971D01*
X146051169Y-95955684D01*
X146062920Y-95963067D01*
X146101827Y-95991502D01*
X146160049Y-96018541D01*
X146217488Y-96047202D01*
X146263983Y-96059894D01*
X146277067Y-96064472D01*
X146321329Y-96083538D01*
X146384111Y-96096944D01*
X146446487Y-96112105D01*
X146494645Y-96114133D01*
X146508420Y-96115685D01*
X146555818Y-96124423D01*
X146620000Y-96123522D01*
X146684183Y-96124423D01*
X146731578Y-96115685D01*
X146745355Y-96114133D01*
X146793513Y-96112105D01*
X146855902Y-96096941D01*
X146918670Y-96083537D01*
X146962926Y-96064475D01*
X146976016Y-96059894D01*
X147022511Y-96047202D01*
X147079950Y-96018541D01*
X147138172Y-95991502D01*
X147177081Y-95963066D01*
X147188819Y-95955691D01*
X147220000Y-95939024D01*
X147251169Y-95955684D01*
X147262920Y-95963067D01*
X147301827Y-95991502D01*
X147360049Y-96018541D01*
X147417488Y-96047202D01*
X147463983Y-96059894D01*
X147477067Y-96064472D01*
X147521329Y-96083538D01*
X147584111Y-96096944D01*
X147646487Y-96112105D01*
X147694645Y-96114133D01*
X147708420Y-96115685D01*
X147755818Y-96124423D01*
X147820000Y-96123522D01*
X147884183Y-96124423D01*
X147931578Y-96115685D01*
X147945355Y-96114133D01*
X147993513Y-96112105D01*
X148055902Y-96096941D01*
X148118670Y-96083537D01*
X148162926Y-96064475D01*
X148176016Y-96059894D01*
X148222511Y-96047202D01*
X148279950Y-96018541D01*
X148338172Y-95991502D01*
X148377081Y-95963066D01*
X148388819Y-95955691D01*
X148431322Y-95932972D01*
X148480951Y-95892242D01*
X148531691Y-95852929D01*
X148563292Y-95816553D01*
X148573105Y-95806741D01*
X148609480Y-95775140D01*
X148648793Y-95724400D01*
X148689522Y-95674771D01*
X148712235Y-95632279D01*
X148719618Y-95620528D01*
X148748053Y-95581621D01*
X148775092Y-95523399D01*
X148803753Y-95465960D01*
X148816445Y-95419465D01*
X148821024Y-95406378D01*
X148840088Y-95362120D01*
X148853493Y-95299344D01*
X148855765Y-95290000D01*
X158862678Y-95290000D01*
X158900000Y-95293676D01*
X158937322Y-95290000D01*
X158937333Y-95290000D01*
X159048986Y-95279003D01*
X159192247Y-95235546D01*
X159324276Y-95164974D01*
X159440001Y-95070001D01*
X159463804Y-95040997D01*
X161149802Y-93355000D01*
X161196260Y-93355000D01*
X161483158Y-93297932D01*
X161753411Y-93185990D01*
X161996632Y-93023475D01*
X162203475Y-92816632D01*
X162320000Y-92642240D01*
X162436525Y-92816632D01*
X162643368Y-93023475D01*
X162886589Y-93185990D01*
X163156842Y-93297932D01*
X163443740Y-93355000D01*
X163736260Y-93355000D01*
X164023158Y-93297932D01*
X164293411Y-93185990D01*
X164536632Y-93023475D01*
X164743475Y-92816632D01*
X164860000Y-92642240D01*
X164976525Y-92816632D01*
X165183368Y-93023475D01*
X165426589Y-93185990D01*
X165696842Y-93297932D01*
X165983740Y-93355000D01*
X166276260Y-93355000D01*
X166563158Y-93297932D01*
X166833411Y-93185990D01*
X167076632Y-93023475D01*
X167283475Y-92816632D01*
X167400000Y-92642240D01*
X167516525Y-92816632D01*
X167723368Y-93023475D01*
X167966589Y-93185990D01*
X168236842Y-93297932D01*
X168523740Y-93355000D01*
X168816260Y-93355000D01*
X169103158Y-93297932D01*
X169373411Y-93185990D01*
X169616632Y-93023475D01*
X169823475Y-92816632D01*
X169985990Y-92573411D01*
X170097932Y-92303158D01*
X170155000Y-92016260D01*
X170155000Y-91723740D01*
X170097932Y-91436842D01*
X169985990Y-91166589D01*
X169823475Y-90923368D01*
X169616632Y-90716525D01*
X169373411Y-90554010D01*
X169182553Y-90474954D01*
X169170313Y-90468412D01*
X169157032Y-90464383D01*
X169103158Y-90442068D01*
X169045969Y-90430692D01*
X169003489Y-90417806D01*
X168959312Y-90413455D01*
X168816260Y-90385000D01*
X168523740Y-90385000D01*
X168236842Y-90442068D01*
X167966589Y-90554010D01*
X167723368Y-90716525D01*
X167516525Y-90923368D01*
X167400000Y-91097760D01*
X167283475Y-90923368D01*
X167076632Y-90716525D01*
X166833411Y-90554010D01*
X166563158Y-90442068D01*
X166276260Y-90385000D01*
X165983740Y-90385000D01*
X165696842Y-90442068D01*
X165426589Y-90554010D01*
X165183368Y-90716525D01*
X164976525Y-90923368D01*
X164860000Y-91097760D01*
X164743475Y-90923368D01*
X164536632Y-90716525D01*
X164293411Y-90554010D01*
X164023158Y-90442068D01*
X163736260Y-90385000D01*
X163443740Y-90385000D01*
X163156842Y-90442068D01*
X162886589Y-90554010D01*
X162643368Y-90716525D01*
X162436525Y-90923368D01*
X162320000Y-91097760D01*
X162203475Y-90923368D01*
X161996632Y-90716525D01*
X161753411Y-90554010D01*
X161483158Y-90442068D01*
X161196260Y-90385000D01*
X160903740Y-90385000D01*
X160616842Y-90442068D01*
X160346589Y-90554010D01*
X160103368Y-90716525D01*
X159896525Y-90923368D01*
X159780000Y-91097760D01*
X159663475Y-90923368D01*
X159456632Y-90716525D01*
X159213411Y-90554010D01*
X159151798Y-90528489D01*
X159144974Y-90515723D01*
X159073799Y-90428997D01*
X159050001Y-90399999D01*
X159021003Y-90376201D01*
X157003804Y-88359003D01*
X156980001Y-88329999D01*
X156864276Y-88235026D01*
X156732247Y-88164454D01*
X156588986Y-88120997D01*
X156477333Y-88110000D01*
X156477322Y-88110000D01*
X156440000Y-88106324D01*
X156402678Y-88110000D01*
X138917322Y-88110000D01*
X138879999Y-88106324D01*
X138842676Y-88110000D01*
X138842667Y-88110000D01*
X138731014Y-88120997D01*
X138587753Y-88164454D01*
X138455723Y-88235026D01*
X138372083Y-88303668D01*
X138339999Y-88329999D01*
X138316201Y-88358997D01*
X136313613Y-90361586D01*
X136155342Y-90393068D01*
X135885089Y-90505010D01*
X135641868Y-90667525D01*
X135435025Y-90874368D01*
X135313305Y-91056534D01*
X135243678Y-90939645D01*
X135048769Y-90723412D01*
X134815420Y-90549359D01*
X134552599Y-90424175D01*
X134405390Y-90379524D01*
X134175500Y-90500845D01*
X134175500Y-91694000D01*
X134195500Y-91694000D01*
X134195500Y-91948000D01*
X134175500Y-91948000D01*
X134175500Y-93141155D01*
X134405390Y-93262476D01*
X134552599Y-93217825D01*
X134815420Y-93092641D01*
X135048769Y-92918588D01*
X135243678Y-92702355D01*
X135313305Y-92585466D01*
X135435025Y-92767632D01*
X135641868Y-92974475D01*
X135830000Y-93100181D01*
X135830001Y-114822960D01*
X135656723Y-114649682D01*
X135264458Y-114387579D01*
X134828596Y-114207039D01*
X134365887Y-114115000D01*
X133894113Y-114115000D01*
X133431404Y-114207039D01*
X132995542Y-114387579D01*
X132603277Y-114649682D01*
X132269682Y-114983277D01*
X132007579Y-115375542D01*
X131827039Y-115811404D01*
X131735000Y-116274113D01*
X127000522Y-116274113D01*
X126923158Y-116242068D01*
X126636260Y-116185000D01*
X126343740Y-116185000D01*
X126056842Y-116242068D01*
X125786589Y-116354010D01*
X125543368Y-116516525D01*
X125336525Y-116723368D01*
X125174010Y-116966589D01*
X125062068Y-117236842D01*
X125005000Y-117523740D01*
X125005000Y-117816260D01*
X125062068Y-118103158D01*
X125174010Y-118373411D01*
X125336525Y-118616632D01*
X125468380Y-118748487D01*
X125395820Y-118770498D01*
X125285506Y-118829463D01*
X125188815Y-118908815D01*
X125109463Y-119005506D01*
X125050498Y-119115820D01*
X125014188Y-119235518D01*
X125001928Y-119360000D01*
X124323512Y-119360000D01*
X124319861Y-108813061D01*
X130295000Y-108813061D01*
X130295000Y-109016939D01*
X130334774Y-109216898D01*
X130412795Y-109405256D01*
X130526063Y-109574774D01*
X130670226Y-109718937D01*
X130839744Y-109832205D01*
X131028102Y-109910226D01*
X131228061Y-109950000D01*
X131431939Y-109950000D01*
X131631898Y-109910226D01*
X131820256Y-109832205D01*
X131989774Y-109718937D01*
X132133937Y-109574774D01*
X132247205Y-109405256D01*
X132325226Y-109216898D01*
X132365000Y-109016939D01*
X132365000Y-108813061D01*
X132325226Y-108613102D01*
X132247205Y-108424744D01*
X132133937Y-108255226D01*
X131989774Y-108111063D01*
X131820256Y-107997795D01*
X131631898Y-107919774D01*
X131431939Y-107880000D01*
X131228061Y-107880000D01*
X131028102Y-107919774D01*
X130839744Y-107997795D01*
X130670226Y-108111063D01*
X130526063Y-108255226D01*
X130412795Y-108424744D01*
X130334774Y-108613102D01*
X130295000Y-108813061D01*
X124319861Y-108813061D01*
X124313684Y-90971000D01*
X127480428Y-90971000D01*
X127480428Y-92671000D01*
X127492688Y-92795482D01*
X127528998Y-92915180D01*
X127587963Y-93025494D01*
X127667315Y-93122185D01*
X127764006Y-93201537D01*
X127874320Y-93260502D01*
X127994018Y-93296812D01*
X128118500Y-93309072D01*
X129818500Y-93309072D01*
X129942982Y-93296812D01*
X130062680Y-93260502D01*
X130172994Y-93201537D01*
X130269685Y-93122185D01*
X130349037Y-93025494D01*
X130408002Y-92915180D01*
X130430013Y-92842620D01*
X130561868Y-92974475D01*
X130805089Y-93136990D01*
X131075342Y-93248932D01*
X131362240Y-93306000D01*
X131654760Y-93306000D01*
X131941658Y-93248932D01*
X132211911Y-93136990D01*
X132455132Y-92974475D01*
X132661975Y-92767632D01*
X132783695Y-92585466D01*
X132853322Y-92702355D01*
X133048231Y-92918588D01*
X133281580Y-93092641D01*
X133544401Y-93217825D01*
X133691610Y-93262476D01*
X133921500Y-93141155D01*
X133921500Y-91948000D01*
X133901500Y-91948000D01*
X133901500Y-91694000D01*
X133921500Y-91694000D01*
X133921500Y-90500845D01*
X133691610Y-90379524D01*
X133544401Y-90424175D01*
X133281580Y-90549359D01*
X133048231Y-90723412D01*
X132853322Y-90939645D01*
X132783695Y-91056534D01*
X132661975Y-90874368D01*
X132455132Y-90667525D01*
X132211911Y-90505010D01*
X131941658Y-90393068D01*
X131654760Y-90336000D01*
X131362240Y-90336000D01*
X131075342Y-90393068D01*
X130805089Y-90505010D01*
X130561868Y-90667525D01*
X130430013Y-90799380D01*
X130408002Y-90726820D01*
X130349037Y-90616506D01*
X130269685Y-90519815D01*
X130172994Y-90440463D01*
X130062680Y-90381498D01*
X129942982Y-90345188D01*
X129818500Y-90332928D01*
X128118500Y-90332928D01*
X127994018Y-90345188D01*
X127874320Y-90381498D01*
X127764006Y-90440463D01*
X127667315Y-90519815D01*
X127587963Y-90616506D01*
X127528998Y-90726820D01*
X127492688Y-90846518D01*
X127480428Y-90971000D01*
X124313684Y-90971000D01*
X124307288Y-72497000D01*
X124565000Y-72497000D01*
X124565000Y-72772000D01*
X124613507Y-73010496D01*
X124707610Y-73234946D01*
X124843693Y-73436725D01*
X125016526Y-73608078D01*
X125219467Y-73742421D01*
X125444718Y-73834591D01*
X125482391Y-73838462D01*
X125673000Y-73713731D01*
X125673000Y-72497000D01*
X124565000Y-72497000D01*
X124307288Y-72497000D01*
X124307105Y-71968000D01*
X124565000Y-71968000D01*
X124565000Y-72243000D01*
X125673000Y-72243000D01*
X125673000Y-71026269D01*
X125927000Y-71026269D01*
X125927000Y-72243000D01*
X125947000Y-72243000D01*
X125947000Y-72497000D01*
X125927000Y-72497000D01*
X125927000Y-73713731D01*
X126117609Y-73838462D01*
X126155282Y-73834591D01*
X126380533Y-73742421D01*
X126583474Y-73608078D01*
X126709033Y-73483594D01*
X126711595Y-73488387D01*
X126822038Y-73622962D01*
X126956613Y-73733405D01*
X127110149Y-73815472D01*
X127276745Y-73866008D01*
X127449999Y-73883072D01*
X128150001Y-73883072D01*
X128323255Y-73866008D01*
X128489851Y-73815472D01*
X128643387Y-73733405D01*
X128777962Y-73622962D01*
X128888405Y-73488387D01*
X128970472Y-73334851D01*
X129021008Y-73168255D01*
X129038072Y-72995001D01*
X129038072Y-71757688D01*
X152747000Y-71757688D01*
X152747000Y-71991112D01*
X152792539Y-72220052D01*
X152881866Y-72435708D01*
X153011550Y-72629794D01*
X153176606Y-72794850D01*
X153370692Y-72924534D01*
X153586348Y-73013861D01*
X153815288Y-73059400D01*
X154048712Y-73059400D01*
X154277652Y-73013861D01*
X154493308Y-72924534D01*
X154687394Y-72794850D01*
X154707244Y-72775000D01*
X156756756Y-72775000D01*
X156806606Y-72824850D01*
X157000692Y-72954534D01*
X157216348Y-73043861D01*
X157445288Y-73089400D01*
X157678712Y-73089400D01*
X157907652Y-73043861D01*
X158123308Y-72954534D01*
X158317394Y-72824850D01*
X158482450Y-72659794D01*
X158612134Y-72465708D01*
X158701461Y-72250052D01*
X158747000Y-72021112D01*
X158747000Y-71787688D01*
X158701461Y-71558748D01*
X158612134Y-71343092D01*
X158482450Y-71149006D01*
X158317394Y-70983950D01*
X158123308Y-70854266D01*
X157907652Y-70764939D01*
X157678712Y-70719400D01*
X157445288Y-70719400D01*
X157216348Y-70764939D01*
X157000692Y-70854266D01*
X156806606Y-70983950D01*
X156785556Y-71005000D01*
X154738444Y-71005000D01*
X154687394Y-70953950D01*
X154493308Y-70824266D01*
X154277652Y-70734939D01*
X154048712Y-70689400D01*
X153815288Y-70689400D01*
X153586348Y-70734939D01*
X153370692Y-70824266D01*
X153176606Y-70953950D01*
X153011550Y-71119006D01*
X152881866Y-71313092D01*
X152792539Y-71528748D01*
X152747000Y-71757688D01*
X129038072Y-71757688D01*
X129038072Y-71744999D01*
X129021008Y-71571745D01*
X128970472Y-71405149D01*
X128888405Y-71251613D01*
X128777962Y-71117038D01*
X128643387Y-71006595D01*
X128489851Y-70924528D01*
X128323255Y-70873992D01*
X128150001Y-70856928D01*
X127449999Y-70856928D01*
X127276745Y-70873992D01*
X127110149Y-70924528D01*
X126956613Y-71006595D01*
X126822038Y-71117038D01*
X126711595Y-71251613D01*
X126709033Y-71256406D01*
X126583474Y-71131922D01*
X126380533Y-70997579D01*
X126155282Y-70905409D01*
X126117609Y-70901538D01*
X125927000Y-71026269D01*
X125673000Y-71026269D01*
X125482391Y-70901538D01*
X125444718Y-70905409D01*
X125219467Y-70997579D01*
X125016526Y-71131922D01*
X124843693Y-71303275D01*
X124707610Y-71505054D01*
X124613507Y-71729504D01*
X124565000Y-71968000D01*
X124307105Y-71968000D01*
X124305237Y-66575000D01*
X129896353Y-66575000D01*
X129930000Y-66578314D01*
X130064283Y-66565088D01*
X130193406Y-66525919D01*
X130312407Y-66462312D01*
X130416711Y-66376711D01*
X130502312Y-66272407D01*
X130565919Y-66153406D01*
X130605088Y-66024283D01*
X130615000Y-65923647D01*
X130615939Y-65914113D01*
X131735000Y-65914113D01*
X131735000Y-66385887D01*
X131827039Y-66848596D01*
X132007579Y-67284458D01*
X132269682Y-67676723D01*
X132603277Y-68010318D01*
X132995542Y-68272421D01*
X133431404Y-68452961D01*
X133894113Y-68545000D01*
X134365887Y-68545000D01*
X134828596Y-68452961D01*
X135048948Y-68361688D01*
X142452000Y-68361688D01*
X142452000Y-68595112D01*
X142497539Y-68824052D01*
X142586866Y-69039708D01*
X142716550Y-69233794D01*
X142881606Y-69398850D01*
X143075692Y-69528534D01*
X143291348Y-69617861D01*
X143520288Y-69663400D01*
X143753712Y-69663400D01*
X143982652Y-69617861D01*
X144198308Y-69528534D01*
X144392394Y-69398850D01*
X144427844Y-69363400D01*
X146783156Y-69363400D01*
X146818606Y-69398850D01*
X147012692Y-69528534D01*
X147228348Y-69617861D01*
X147457288Y-69663400D01*
X147690712Y-69663400D01*
X147919652Y-69617861D01*
X148135308Y-69528534D01*
X148329394Y-69398850D01*
X148494450Y-69233794D01*
X148624134Y-69039708D01*
X148713461Y-68824052D01*
X148759000Y-68595112D01*
X148759000Y-68361688D01*
X148713461Y-68132748D01*
X148624134Y-67917092D01*
X148494450Y-67723006D01*
X148329394Y-67557950D01*
X148135308Y-67428266D01*
X147919652Y-67338939D01*
X147690712Y-67293400D01*
X147457288Y-67293400D01*
X147228348Y-67338939D01*
X147012692Y-67428266D01*
X146818606Y-67557950D01*
X146783156Y-67593400D01*
X144427844Y-67593400D01*
X144392394Y-67557950D01*
X144198308Y-67428266D01*
X143982652Y-67338939D01*
X143753712Y-67293400D01*
X143520288Y-67293400D01*
X143291348Y-67338939D01*
X143075692Y-67428266D01*
X142881606Y-67557950D01*
X142716550Y-67723006D01*
X142586866Y-67917092D01*
X142497539Y-68132748D01*
X142452000Y-68361688D01*
X135048948Y-68361688D01*
X135264458Y-68272421D01*
X135656723Y-68010318D01*
X135990318Y-67676723D01*
X136252421Y-67284458D01*
X136432961Y-66848596D01*
X136525000Y-66385887D01*
X136525000Y-66362113D01*
X161245000Y-66362113D01*
X161245000Y-66833887D01*
X161337039Y-67296596D01*
X161517579Y-67732458D01*
X161779682Y-68124723D01*
X162113277Y-68458318D01*
X162505542Y-68720421D01*
X162941404Y-68900961D01*
X163404113Y-68993000D01*
X163875887Y-68993000D01*
X164338596Y-68900961D01*
X164774458Y-68720421D01*
X165166723Y-68458318D01*
X165500318Y-68124723D01*
X165762421Y-67732458D01*
X165942961Y-67296596D01*
X166035000Y-66833887D01*
X166035000Y-66362113D01*
X165942961Y-65899404D01*
X165762421Y-65463542D01*
X165500318Y-65071277D01*
X165166723Y-64737682D01*
X164774458Y-64475579D01*
X164338596Y-64295039D01*
X163875887Y-64203000D01*
X163404113Y-64203000D01*
X162941404Y-64295039D01*
X162505542Y-64475579D01*
X162113277Y-64737682D01*
X161779682Y-65071277D01*
X161517579Y-65463542D01*
X161337039Y-65899404D01*
X161245000Y-66362113D01*
X136525000Y-66362113D01*
X136525000Y-65914113D01*
X136432961Y-65451404D01*
X136252421Y-65015542D01*
X135990318Y-64623277D01*
X135656723Y-64289682D01*
X135264458Y-64027579D01*
X134828596Y-63847039D01*
X134365887Y-63755000D01*
X133894113Y-63755000D01*
X133431404Y-63847039D01*
X132995542Y-64027579D01*
X132603277Y-64289682D01*
X132269682Y-64623277D01*
X132007579Y-65015542D01*
X131827039Y-65451404D01*
X131735000Y-65914113D01*
X130615939Y-65914113D01*
X130618314Y-65890000D01*
X130615000Y-65856353D01*
X130615000Y-61486891D01*
X136028519Y-61486891D01*
X136125843Y-61761252D01*
X136274822Y-62011355D01*
X136469731Y-62227588D01*
X136703080Y-62401641D01*
X136965901Y-62526825D01*
X137113110Y-62571476D01*
X137343000Y-62450155D01*
X137343000Y-61257000D01*
X136149186Y-61257000D01*
X136028519Y-61486891D01*
X130615000Y-61486891D01*
X130615000Y-60773109D01*
X136028519Y-60773109D01*
X136149186Y-61003000D01*
X137343000Y-61003000D01*
X137343000Y-59809845D01*
X137597000Y-59809845D01*
X137597000Y-61003000D01*
X137617000Y-61003000D01*
X137617000Y-61257000D01*
X137597000Y-61257000D01*
X137597000Y-62450155D01*
X137826890Y-62571476D01*
X137974099Y-62526825D01*
X138236920Y-62401641D01*
X138470269Y-62227588D01*
X138546034Y-62143534D01*
X138570498Y-62224180D01*
X138629463Y-62334494D01*
X138708815Y-62431185D01*
X138805506Y-62510537D01*
X138915820Y-62569502D01*
X139035518Y-62605812D01*
X139160000Y-62618072D01*
X140860000Y-62618072D01*
X140984482Y-62605812D01*
X141104180Y-62569502D01*
X141214494Y-62510537D01*
X141311185Y-62431185D01*
X141390537Y-62334494D01*
X141449502Y-62224180D01*
X141485812Y-62104482D01*
X141498072Y-61980000D01*
X141498072Y-60280000D01*
X141485812Y-60155518D01*
X141449502Y-60035820D01*
X141390537Y-59925506D01*
X141311185Y-59828815D01*
X141214494Y-59749463D01*
X141104180Y-59690498D01*
X140984482Y-59654188D01*
X140860000Y-59641928D01*
X139160000Y-59641928D01*
X139035518Y-59654188D01*
X138915820Y-59690498D01*
X138805506Y-59749463D01*
X138708815Y-59828815D01*
X138629463Y-59925506D01*
X138570498Y-60035820D01*
X138546034Y-60116466D01*
X138470269Y-60032412D01*
X138236920Y-59858359D01*
X137974099Y-59733175D01*
X137826890Y-59688524D01*
X137597000Y-59809845D01*
X137343000Y-59809845D01*
X137113110Y-59688524D01*
X136965901Y-59733175D01*
X136703080Y-59858359D01*
X136469731Y-60032412D01*
X136274822Y-60248645D01*
X136125843Y-60498748D01*
X136028519Y-60773109D01*
X130615000Y-60773109D01*
X130615000Y-59655000D01*
X131617217Y-59655000D01*
X131651718Y-59658311D01*
X131717684Y-59651648D01*
X131784283Y-59645088D01*
X131785112Y-59644836D01*
X131785968Y-59644750D01*
X131849426Y-59625327D01*
X131913406Y-59605919D01*
X131914170Y-59605511D01*
X131914992Y-59605259D01*
X131973398Y-59573853D01*
X132032407Y-59542312D01*
X132033077Y-59541762D01*
X132033834Y-59541355D01*
X132084997Y-59499152D01*
X132136711Y-59456711D01*
X132137261Y-59456041D01*
X132137924Y-59455494D01*
X132179891Y-59404096D01*
X132222312Y-59352407D01*
X132222720Y-59351643D01*
X132223265Y-59350976D01*
X132254405Y-59292365D01*
X132285919Y-59233406D01*
X132286171Y-59232576D01*
X132286574Y-59231817D01*
X132305696Y-59168211D01*
X132325088Y-59104283D01*
X132325173Y-59103423D01*
X132325421Y-59102597D01*
X132331759Y-59036556D01*
X132338314Y-58970000D01*
X132334915Y-58935491D01*
X132325606Y-55207000D01*
X134115000Y-55207000D01*
X134115000Y-55707000D01*
X134160144Y-55911355D01*
X134244288Y-56102977D01*
X134364199Y-56274501D01*
X134515269Y-56419336D01*
X134691692Y-56531916D01*
X134884938Y-56599540D01*
X135048000Y-56472257D01*
X135048000Y-55207000D01*
X135302000Y-55207000D01*
X135302000Y-56472257D01*
X135465062Y-56599540D01*
X135658308Y-56531916D01*
X135834731Y-56419336D01*
X135985801Y-56274501D01*
X136105712Y-56102977D01*
X136189856Y-55911355D01*
X136235000Y-55707000D01*
X136235000Y-55385582D01*
X136393355Y-55385582D01*
X136430354Y-55590079D01*
X136506538Y-55783428D01*
X136523885Y-55815881D01*
X136729202Y-55841193D01*
X137270395Y-55300000D01*
X136729202Y-54758807D01*
X136523885Y-54784119D01*
X136441037Y-54974708D01*
X136396962Y-55177796D01*
X136393355Y-55385582D01*
X136235000Y-55385582D01*
X136235000Y-55207000D01*
X135302000Y-55207000D01*
X135048000Y-55207000D01*
X134115000Y-55207000D01*
X132325606Y-55207000D01*
X132323724Y-54453000D01*
X134115000Y-54453000D01*
X134115000Y-54953000D01*
X135048000Y-54953000D01*
X135048000Y-53687743D01*
X135302000Y-53687743D01*
X135302000Y-54953000D01*
X136235000Y-54953000D01*
X136235000Y-54579202D01*
X136908807Y-54579202D01*
X137237032Y-54907427D01*
X137280528Y-54972523D01*
X137427477Y-55119472D01*
X137577815Y-55219925D01*
X137643748Y-55285858D01*
X137629605Y-55300000D01*
X137643748Y-55314143D01*
X137464143Y-55493748D01*
X137450000Y-55479605D01*
X136908807Y-56020798D01*
X136934119Y-56226115D01*
X137124708Y-56308963D01*
X137327796Y-56353038D01*
X137535582Y-56356645D01*
X137740079Y-56319646D01*
X137933428Y-56243462D01*
X137965881Y-56226115D01*
X137989833Y-56031828D01*
X138077477Y-56119472D01*
X138250270Y-56234929D01*
X138442268Y-56314457D01*
X138646092Y-56355000D01*
X138853908Y-56355000D01*
X139057732Y-56314457D01*
X139249730Y-56234929D01*
X139253455Y-56232440D01*
X139275506Y-56250537D01*
X139385820Y-56309502D01*
X139505518Y-56345812D01*
X139630000Y-56358072D01*
X140470000Y-56358072D01*
X140594482Y-56345812D01*
X140714180Y-56309502D01*
X140824494Y-56250537D01*
X140921185Y-56171185D01*
X141000537Y-56074494D01*
X141059502Y-55964180D01*
X141095812Y-55844482D01*
X141108072Y-55720000D01*
X141108072Y-55207000D01*
X141265000Y-55207000D01*
X141265000Y-55707000D01*
X141310144Y-55911355D01*
X141394288Y-56102977D01*
X141514199Y-56274501D01*
X141665269Y-56419336D01*
X141841692Y-56531916D01*
X142034938Y-56599540D01*
X142198000Y-56472257D01*
X142198000Y-55207000D01*
X142452000Y-55207000D01*
X142452000Y-56472257D01*
X142615062Y-56599540D01*
X142808308Y-56531916D01*
X142984731Y-56419336D01*
X143135801Y-56274501D01*
X143255712Y-56102977D01*
X143339856Y-55911355D01*
X143385000Y-55707000D01*
X143385000Y-55207000D01*
X142452000Y-55207000D01*
X142198000Y-55207000D01*
X141265000Y-55207000D01*
X141108072Y-55207000D01*
X141108072Y-54880000D01*
X141095812Y-54755518D01*
X141059502Y-54635820D01*
X141000537Y-54525506D01*
X140941034Y-54453000D01*
X141265000Y-54453000D01*
X141265000Y-54953000D01*
X142198000Y-54953000D01*
X142198000Y-53687743D01*
X142452000Y-53687743D01*
X142452000Y-54953000D01*
X143385000Y-54953000D01*
X143385000Y-54453000D01*
X143339856Y-54248645D01*
X143255712Y-54057023D01*
X143135801Y-53885499D01*
X142984731Y-53740664D01*
X142808308Y-53628084D01*
X142615062Y-53560460D01*
X142452000Y-53687743D01*
X142198000Y-53687743D01*
X142034938Y-53560460D01*
X141841692Y-53628084D01*
X141665269Y-53740664D01*
X141514199Y-53885499D01*
X141394288Y-54057023D01*
X141310144Y-54248645D01*
X141265000Y-54453000D01*
X140941034Y-54453000D01*
X140921185Y-54428815D01*
X140824494Y-54349463D01*
X140714180Y-54290498D01*
X140594482Y-54254188D01*
X140470000Y-54241928D01*
X140455000Y-54241928D01*
X140455000Y-54196092D01*
X140414457Y-53992268D01*
X140334929Y-53800270D01*
X140219472Y-53627477D01*
X140072523Y-53480528D01*
X139899730Y-53365071D01*
X139707732Y-53285543D01*
X139503908Y-53245000D01*
X139296092Y-53245000D01*
X139092268Y-53285543D01*
X138900270Y-53365071D01*
X138750000Y-53465479D01*
X138599730Y-53365071D01*
X138407732Y-53285543D01*
X138203908Y-53245000D01*
X137996092Y-53245000D01*
X137792268Y-53285543D01*
X137600270Y-53365071D01*
X137427477Y-53480528D01*
X137280528Y-53627477D01*
X137165071Y-53800270D01*
X137085543Y-53992268D01*
X137045000Y-54196092D01*
X137045000Y-54325636D01*
X136966572Y-54356538D01*
X136934119Y-54373885D01*
X136908807Y-54579202D01*
X136235000Y-54579202D01*
X136235000Y-54453000D01*
X136189856Y-54248645D01*
X136105712Y-54057023D01*
X135985801Y-53885499D01*
X135834731Y-53740664D01*
X135658308Y-53628084D01*
X135465062Y-53560460D01*
X135302000Y-53687743D01*
X135048000Y-53687743D01*
X134884938Y-53560460D01*
X134691692Y-53628084D01*
X134515269Y-53740664D01*
X134364199Y-53885499D01*
X134244288Y-54057023D01*
X134160144Y-54248645D01*
X134115000Y-54453000D01*
X132323724Y-54453000D01*
X132316712Y-51645000D01*
X165466709Y-51645000D01*
X165484920Y-58938489D01*
%TA.AperFunction,Conductor*%
D22*
G36*
X165484920Y-58938489D02*
G01*
X165481691Y-58972587D01*
X165488547Y-59039614D01*
X165495250Y-59105968D01*
X165495378Y-59106385D01*
X165495422Y-59106819D01*
X165515097Y-59170812D01*
X165534741Y-59234993D01*
X165534948Y-59235378D01*
X165535076Y-59235794D01*
X165566841Y-59294689D01*
X165598645Y-59353834D01*
X165598923Y-59354171D01*
X165599130Y-59354555D01*
X165641811Y-59406165D01*
X165684506Y-59457924D01*
X165684845Y-59458201D01*
X165685123Y-59458537D01*
X165736972Y-59500763D01*
X165789024Y-59543265D01*
X165789411Y-59543471D01*
X165789748Y-59543745D01*
X165848803Y-59575025D01*
X165908183Y-59606574D01*
X165908602Y-59606700D01*
X165908987Y-59606904D01*
X165973318Y-59626155D01*
X166037404Y-59645421D01*
X166037837Y-59645463D01*
X166038256Y-59645588D01*
X166105032Y-59651911D01*
X166171718Y-59658311D01*
X166205786Y-59654870D01*
X173464895Y-59627580D01*
X173463498Y-68666865D01*
X173425546Y-68541753D01*
X173354974Y-68409724D01*
X173260001Y-68293999D01*
X173231004Y-68270202D01*
X162229804Y-57269003D01*
X162206001Y-57239999D01*
X162090276Y-57145026D01*
X161958247Y-57074454D01*
X161814986Y-57030997D01*
X161703333Y-57020000D01*
X161703322Y-57020000D01*
X161666000Y-57016324D01*
X161628678Y-57020000D01*
X148327322Y-57020000D01*
X148290000Y-57016324D01*
X148252677Y-57020000D01*
X148252667Y-57020000D01*
X148141014Y-57030997D01*
X147997753Y-57074454D01*
X147865723Y-57145026D01*
X147782083Y-57213668D01*
X147749999Y-57239999D01*
X147726201Y-57268997D01*
X145788998Y-59206201D01*
X145760000Y-59229999D01*
X145736202Y-59258997D01*
X145736201Y-59258998D01*
X145665026Y-59345724D01*
X145594454Y-59477754D01*
X145574582Y-59543265D01*
X145550998Y-59621014D01*
X145546968Y-59661928D01*
X145450000Y-59661928D01*
X145325518Y-59674188D01*
X145205820Y-59710498D01*
X145095506Y-59769463D01*
X144998815Y-59848815D01*
X144919463Y-59945506D01*
X144860498Y-60055820D01*
X144824188Y-60175518D01*
X144811928Y-60300000D01*
X144811928Y-62000000D01*
X144824188Y-62124482D01*
X144860498Y-62244180D01*
X144919463Y-62354494D01*
X144998815Y-62451185D01*
X145095506Y-62530537D01*
X145205820Y-62589502D01*
X145325518Y-62625812D01*
X145450000Y-62638072D01*
X147150000Y-62638072D01*
X147274482Y-62625812D01*
X147394180Y-62589502D01*
X147504494Y-62530537D01*
X147601185Y-62451185D01*
X147680537Y-62354494D01*
X147739502Y-62244180D01*
X147761513Y-62171620D01*
X147893368Y-62303475D01*
X148136589Y-62465990D01*
X148406842Y-62577932D01*
X148693740Y-62635000D01*
X148986260Y-62635000D01*
X149273158Y-62577932D01*
X149543411Y-62465990D01*
X149786632Y-62303475D01*
X149993475Y-62096632D01*
X150115195Y-61914466D01*
X150184822Y-62031355D01*
X150379731Y-62247588D01*
X150613080Y-62421641D01*
X150875901Y-62546825D01*
X151023110Y-62591476D01*
X151253000Y-62470155D01*
X151253000Y-61277000D01*
X151507000Y-61277000D01*
X151507000Y-62470155D01*
X151736890Y-62591476D01*
X151884099Y-62546825D01*
X152146920Y-62421641D01*
X152380269Y-62247588D01*
X152575178Y-62031355D01*
X152724157Y-61781252D01*
X152821481Y-61506891D01*
X152700814Y-61277000D01*
X151507000Y-61277000D01*
X151253000Y-61277000D01*
X151233000Y-61277000D01*
X151233000Y-61023000D01*
X151253000Y-61023000D01*
X151253000Y-59829845D01*
X151507000Y-59829845D01*
X151507000Y-61023000D01*
X152700814Y-61023000D01*
X152821481Y-60793109D01*
X152724157Y-60518748D01*
X152575178Y-60268645D01*
X152380269Y-60052412D01*
X152146920Y-59878359D01*
X151884099Y-59753175D01*
X151736890Y-59708524D01*
X151507000Y-59829845D01*
X151253000Y-59829845D01*
X151023110Y-59708524D01*
X150875901Y-59753175D01*
X150613080Y-59878359D01*
X150379731Y-60052412D01*
X150184822Y-60268645D01*
X150115195Y-60385534D01*
X149993475Y-60203368D01*
X149786632Y-59996525D01*
X149543411Y-59834010D01*
X149273158Y-59722068D01*
X148986260Y-59665000D01*
X148693740Y-59665000D01*
X148406842Y-59722068D01*
X148136589Y-59834010D01*
X147893368Y-59996525D01*
X147761513Y-60128380D01*
X147739502Y-60055820D01*
X147680537Y-59945506D01*
X147601185Y-59848815D01*
X147504494Y-59769463D01*
X147420327Y-59724474D01*
X148604802Y-58540000D01*
X161351199Y-58540000D01*
X171960000Y-69148802D01*
X171960001Y-96470472D01*
X171805652Y-96406539D01*
X171576712Y-96361000D01*
X171343288Y-96361000D01*
X171114348Y-96406539D01*
X170898692Y-96495866D01*
X170704606Y-96625550D01*
X170565156Y-96765000D01*
X156494656Y-96765000D01*
X156453475Y-96703368D01*
X156246632Y-96496525D01*
X156003411Y-96334010D01*
X155733158Y-96222068D01*
X155446260Y-96165000D01*
X155153740Y-96165000D01*
X154866842Y-96222068D01*
X154596589Y-96334010D01*
X154353368Y-96496525D01*
X154146525Y-96703368D01*
X154030000Y-96877760D01*
X153913475Y-96703368D01*
X153706632Y-96496525D01*
X153463411Y-96334010D01*
X153193158Y-96222068D01*
X152906260Y-96165000D01*
X152613740Y-96165000D01*
X152326842Y-96222068D01*
X152056589Y-96334010D01*
X151813368Y-96496525D01*
X151606525Y-96703368D01*
X151490000Y-96877760D01*
X151373475Y-96703368D01*
X151166632Y-96496525D01*
X150923411Y-96334010D01*
X150653158Y-96222068D01*
X150366260Y-96165000D01*
X150073740Y-96165000D01*
X149786842Y-96222068D01*
X149516589Y-96334010D01*
X149273368Y-96496525D01*
X149066525Y-96703368D01*
X148950000Y-96877760D01*
X148833475Y-96703368D01*
X148626632Y-96496525D01*
X148383411Y-96334010D01*
X148113158Y-96222068D01*
X147826260Y-96165000D01*
X147533740Y-96165000D01*
X147246842Y-96222068D01*
X146976589Y-96334010D01*
X146733368Y-96496525D01*
X146526525Y-96703368D01*
X146410000Y-96877760D01*
X146293475Y-96703368D01*
X146086632Y-96496525D01*
X145843411Y-96334010D01*
X145573158Y-96222068D01*
X145286260Y-96165000D01*
X144993740Y-96165000D01*
X144706842Y-96222068D01*
X144436589Y-96334010D01*
X144193368Y-96496525D01*
X144061513Y-96628380D01*
X144039502Y-96555820D01*
X143980537Y-96445506D01*
X143901185Y-96348815D01*
X143804494Y-96269463D01*
X143694180Y-96210498D01*
X143574482Y-96174188D01*
X143450000Y-96161928D01*
X142885750Y-96165000D01*
X142727000Y-96323750D01*
X142727000Y-97523000D01*
X142747000Y-97523000D01*
X142747000Y-97777000D01*
X142727000Y-97777000D01*
X142727000Y-98976250D01*
X142885750Y-99135000D01*
X143450000Y-99138072D01*
X143574482Y-99125812D01*
X143694180Y-99089502D01*
X143804494Y-99030537D01*
X143901185Y-98951185D01*
X143980537Y-98854494D01*
X144039502Y-98744180D01*
X144061513Y-98671620D01*
X144193368Y-98803475D01*
X144436589Y-98965990D01*
X144706842Y-99077932D01*
X144993740Y-99135000D01*
X145286260Y-99135000D01*
X145573158Y-99077932D01*
X145843411Y-98965990D01*
X146086632Y-98803475D01*
X146293475Y-98596632D01*
X146410000Y-98422240D01*
X146526525Y-98596632D01*
X146733368Y-98803475D01*
X146976589Y-98965990D01*
X147246842Y-99077932D01*
X147533740Y-99135000D01*
X147672034Y-99135000D01*
X147655026Y-99155724D01*
X147627498Y-99207225D01*
X147584454Y-99287754D01*
X147540997Y-99431015D01*
X147530000Y-99542668D01*
X147530000Y-99542678D01*
X147526324Y-99580000D01*
X147530000Y-99617322D01*
X147530001Y-107906437D01*
X147529730Y-107906503D01*
X147466956Y-107919907D01*
X147422691Y-107938973D01*
X147409599Y-107943554D01*
X147363104Y-107956246D01*
X147305665Y-107984907D01*
X147247443Y-108011946D01*
X147208536Y-108040381D01*
X147196785Y-108047764D01*
X147154293Y-108070477D01*
X147104664Y-108111206D01*
X147053924Y-108150519D01*
X147022323Y-108186894D01*
X147012511Y-108196707D01*
X146976135Y-108228308D01*
X146936822Y-108279048D01*
X146896092Y-108328677D01*
X146873373Y-108371180D01*
X146865998Y-108382918D01*
X146837562Y-108421827D01*
X146810523Y-108480049D01*
X146781862Y-108537488D01*
X146769170Y-108583983D01*
X146764588Y-108597078D01*
X146745523Y-108641341D01*
X146732121Y-108704107D01*
X146716959Y-108766486D01*
X146714931Y-108814649D01*
X146713381Y-108828411D01*
X146704642Y-108875806D01*
X146705542Y-108940016D01*
X146704643Y-109004195D01*
X146713379Y-109051577D01*
X146714931Y-109065353D01*
X146716959Y-109113513D01*
X146732118Y-109175882D01*
X146745523Y-109238660D01*
X146764589Y-109282926D01*
X146769170Y-109296016D01*
X146781862Y-109342511D01*
X146810523Y-109399950D01*
X146837562Y-109458172D01*
X146865998Y-109497081D01*
X146873373Y-109508819D01*
X146896092Y-109551322D01*
X146936822Y-109600951D01*
X146976135Y-109651691D01*
X147012511Y-109683292D01*
X147022323Y-109693105D01*
X147053924Y-109729480D01*
X147104664Y-109768793D01*
X147154293Y-109809522D01*
X147196785Y-109832235D01*
X147208536Y-109839618D01*
X147247443Y-109868053D01*
X147305665Y-109895092D01*
X147363104Y-109923753D01*
X147409599Y-109936445D01*
X147422683Y-109941023D01*
X147466945Y-109960089D01*
X147529727Y-109973495D01*
X147540934Y-109976219D01*
X147539799Y-110003178D01*
X147534184Y-110060183D01*
X147530599Y-110092002D01*
X147530524Y-110097347D01*
X147530000Y-110102668D01*
X147530000Y-110134720D01*
X147529026Y-110204184D01*
X147530000Y-110209467D01*
X147530001Y-111835991D01*
X146439002Y-112926991D01*
X146438997Y-112926995D01*
X142571515Y-116794478D01*
X142509377Y-116794478D01*
X142309418Y-116834252D01*
X142121060Y-116912273D01*
X141951542Y-117025541D01*
X141807379Y-117169704D01*
X141694111Y-117339222D01*
X141616090Y-117527580D01*
X141576316Y-117727539D01*
X141576316Y-117931417D01*
X141616090Y-118131376D01*
X141694111Y-118319734D01*
X141807379Y-118489252D01*
X141854708Y-118536581D01*
X141833563Y-118557726D01*
X141720295Y-118727244D01*
X141642274Y-118915602D01*
X141602500Y-119115561D01*
X141602500Y-119319439D01*
X141642274Y-119519398D01*
X141720295Y-119707756D01*
X141833563Y-119877274D01*
X141977726Y-120021437D01*
X142147244Y-120134705D01*
X142335602Y-120212726D01*
X142535561Y-120252500D01*
X142739439Y-120252500D01*
X142939398Y-120212726D01*
X143127756Y-120134705D01*
X143297274Y-120021437D01*
X143441437Y-119877274D01*
X143554705Y-119707756D01*
X143632726Y-119519398D01*
X143665327Y-119355500D01*
X169961928Y-119355500D01*
X169961928Y-121055500D01*
X169974188Y-121179982D01*
X170010498Y-121299680D01*
X170069463Y-121409994D01*
X170148815Y-121506685D01*
X170245506Y-121586037D01*
X170355820Y-121645002D01*
X170475518Y-121681312D01*
X170600000Y-121693572D01*
X172300000Y-121693572D01*
X172424482Y-121681312D01*
X172544180Y-121645002D01*
X172654494Y-121586037D01*
X172751185Y-121506685D01*
X172830537Y-121409994D01*
X172889502Y-121299680D01*
X172925812Y-121179982D01*
X172938072Y-121055500D01*
X172938072Y-119355500D01*
X172925812Y-119231018D01*
X172889502Y-119111320D01*
X172830537Y-119001006D01*
X172751185Y-118904315D01*
X172654494Y-118824963D01*
X172544180Y-118765998D01*
X172471620Y-118743987D01*
X172603475Y-118612132D01*
X172765990Y-118368911D01*
X172877932Y-118098658D01*
X172935000Y-117811760D01*
X172935000Y-117519240D01*
X172877932Y-117232342D01*
X172765990Y-116962089D01*
X172603475Y-116718868D01*
X172396632Y-116512025D01*
X172153411Y-116349510D01*
X171883158Y-116237568D01*
X171596260Y-116180500D01*
X171303740Y-116180500D01*
X171016842Y-116237568D01*
X170746589Y-116349510D01*
X170503368Y-116512025D01*
X170296525Y-116718868D01*
X170134010Y-116962089D01*
X170022068Y-117232342D01*
X169965000Y-117519240D01*
X169965000Y-117811760D01*
X170022068Y-118098658D01*
X170134010Y-118368911D01*
X170296525Y-118612132D01*
X170428380Y-118743987D01*
X170355820Y-118765998D01*
X170245506Y-118824963D01*
X170148815Y-118904315D01*
X170069463Y-119001006D01*
X170010498Y-119111320D01*
X169974188Y-119231018D01*
X169961928Y-119355500D01*
X143665327Y-119355500D01*
X143672500Y-119319439D01*
X143672500Y-119257301D01*
X146705688Y-116224113D01*
X161215000Y-116224113D01*
X161215000Y-116695887D01*
X161307039Y-117158596D01*
X161487579Y-117594458D01*
X161749682Y-117986723D01*
X162083277Y-118320318D01*
X162475542Y-118582421D01*
X162911404Y-118762961D01*
X163374113Y-118855000D01*
X163845887Y-118855000D01*
X164308596Y-118762961D01*
X164744458Y-118582421D01*
X165136723Y-118320318D01*
X165470318Y-117986723D01*
X165732421Y-117594458D01*
X165912961Y-117158596D01*
X166005000Y-116695887D01*
X166005000Y-116224113D01*
X165912961Y-115761404D01*
X165732421Y-115325542D01*
X165470318Y-114933277D01*
X165136723Y-114599682D01*
X164744458Y-114337579D01*
X164308596Y-114157039D01*
X163845887Y-114065000D01*
X163374113Y-114065000D01*
X162911404Y-114157039D01*
X162475542Y-114337579D01*
X162083277Y-114599682D01*
X161749682Y-114933277D01*
X161487579Y-115325542D01*
X161307039Y-115761404D01*
X161215000Y-116224113D01*
X146705688Y-116224113D01*
X150491004Y-112438798D01*
X150520001Y-112415001D01*
X150614560Y-112299781D01*
X150614974Y-112299277D01*
X150685546Y-112167247D01*
X150685546Y-112167246D01*
X150729003Y-112023986D01*
X150740000Y-111912333D01*
X150740000Y-111912324D01*
X150743676Y-111875001D01*
X150740000Y-111837678D01*
X150740000Y-108818061D01*
X165315000Y-108818061D01*
X165315000Y-109021939D01*
X165354774Y-109221898D01*
X165432795Y-109410256D01*
X165546063Y-109579774D01*
X165690226Y-109723937D01*
X165859744Y-109837205D01*
X166048102Y-109915226D01*
X166248061Y-109955000D01*
X166451939Y-109955000D01*
X166651898Y-109915226D01*
X166840256Y-109837205D01*
X167009774Y-109723937D01*
X167153937Y-109579774D01*
X167267205Y-109410256D01*
X167345226Y-109221898D01*
X167385000Y-109021939D01*
X167385000Y-108818061D01*
X167345226Y-108618102D01*
X167267205Y-108429744D01*
X167153937Y-108260226D01*
X167009774Y-108116063D01*
X166840256Y-108002795D01*
X166651898Y-107924774D01*
X166451939Y-107885000D01*
X166248061Y-107885000D01*
X166048102Y-107924774D01*
X165859744Y-108002795D01*
X165690226Y-108116063D01*
X165546063Y-108260226D01*
X165432795Y-108429744D01*
X165354774Y-108618102D01*
X165315000Y-108818061D01*
X150740000Y-108818061D01*
X150740000Y-100724801D01*
X151474722Y-99990081D01*
X151484276Y-99984974D01*
X151600001Y-99890001D01*
X151623804Y-99860997D01*
X152393592Y-99091209D01*
X152613740Y-99135000D01*
X152906260Y-99135000D01*
X153193158Y-99077932D01*
X153463411Y-98965990D01*
X153706632Y-98803475D01*
X153913475Y-98596632D01*
X154030000Y-98422240D01*
X154146525Y-98596632D01*
X154353368Y-98803475D01*
X154596589Y-98965990D01*
X154866842Y-99077932D01*
X155153740Y-99135000D01*
X155446260Y-99135000D01*
X155733158Y-99077932D01*
X156003411Y-98965990D01*
X156246632Y-98803475D01*
X156453475Y-98596632D01*
X156494656Y-98535000D01*
X170807198Y-98535000D01*
X170898692Y-98596134D01*
X171114348Y-98685461D01*
X171343288Y-98731000D01*
X171576712Y-98731000D01*
X171805652Y-98685461D01*
X171960001Y-98621528D01*
X171960001Y-99316697D01*
X168816699Y-102460000D01*
X167063711Y-102460000D01*
X167019774Y-102416063D01*
X166850256Y-102302795D01*
X166661898Y-102224774D01*
X166461939Y-102185000D01*
X166258061Y-102185000D01*
X166058102Y-102224774D01*
X165869744Y-102302795D01*
X165700226Y-102416063D01*
X165556063Y-102560226D01*
X165442795Y-102729744D01*
X165364774Y-102918102D01*
X165325000Y-103118061D01*
X165325000Y-103321939D01*
X165364774Y-103521898D01*
X165442795Y-103710256D01*
X165556063Y-103879774D01*
X165700226Y-104023937D01*
X165869744Y-104137205D01*
X166058102Y-104215226D01*
X166258061Y-104255000D01*
X166461939Y-104255000D01*
X166661898Y-104215226D01*
X166850256Y-104137205D01*
X167019774Y-104023937D01*
X167063711Y-103980000D01*
X169094178Y-103980000D01*
X169131500Y-103983676D01*
X169168822Y-103980000D01*
X169168833Y-103980000D01*
X169280486Y-103969003D01*
X169423747Y-103925546D01*
X169555776Y-103854974D01*
X169671501Y-103760001D01*
X169695304Y-103730997D01*
X173231003Y-100195299D01*
X173260001Y-100171501D01*
X173354974Y-100055776D01*
X173425546Y-99923747D01*
X173458685Y-99814501D01*
X173455106Y-122975000D01*
X166163214Y-122975000D01*
X166129140Y-122971687D01*
X166062909Y-122978294D01*
X165995717Y-122984912D01*
X165995300Y-122985039D01*
X165994874Y-122985081D01*
X165931226Y-123004475D01*
X165866594Y-123024081D01*
X165866211Y-123024286D01*
X165865800Y-123024411D01*
X165807094Y-123055884D01*
X165747593Y-123087688D01*
X165747257Y-123087964D01*
X165746878Y-123088167D01*
X165695313Y-123130594D01*
X165643289Y-123173289D01*
X165643014Y-123173624D01*
X165642681Y-123173898D01*
X165600417Y-123225528D01*
X165557688Y-123277593D01*
X165557483Y-123277977D01*
X165557211Y-123278309D01*
X165526008Y-123336863D01*
X165494081Y-123396594D01*
X165493954Y-123397013D01*
X165493753Y-123397390D01*
X165474525Y-123461060D01*
X165454912Y-123525717D01*
X165454869Y-123526149D01*
X165454745Y-123526561D01*
X165448296Y-123592889D01*
X165441686Y-123660000D01*
X165445043Y-123694079D01*
X165446279Y-124682799D01*
X132331303Y-124673198D01*
X132334868Y-123726216D01*
X132338308Y-123692577D01*
X132330662Y-123611848D01*
X132325588Y-123558260D01*
X132325587Y-123558256D01*
X132325586Y-123558247D01*
X132303423Y-123484188D01*
X132286905Y-123428990D01*
X132286902Y-123428984D01*
X132286900Y-123428978D01*
X132253041Y-123365057D01*
X132223747Y-123309751D01*
X132223744Y-123309747D01*
X132223740Y-123309740D01*
X132177752Y-123253275D01*
X132138539Y-123205125D01*
X132138534Y-123205121D01*
X132138530Y-123205116D01*
X132094224Y-123168476D01*
X132034558Y-123119132D01*
X132034551Y-123119128D01*
X132034547Y-123119125D01*
X131952218Y-123074721D01*
X131915797Y-123055078D01*
X131915785Y-123055072D01*
X131825690Y-123027373D01*
X131786823Y-123015423D01*
X131786818Y-123015423D01*
X131786810Y-123015420D01*
X131686212Y-123005131D01*
X131686209Y-123005131D01*
X131652590Y-123001692D01*
X131618933Y-123004879D01*
X124324763Y-122977560D01*
X124324100Y-121060000D01*
X125001928Y-121060000D01*
X125014188Y-121184482D01*
X125050498Y-121304180D01*
X125109463Y-121414494D01*
X125188815Y-121511185D01*
X125285506Y-121590537D01*
X125395820Y-121649502D01*
X125515518Y-121685812D01*
X125640000Y-121698072D01*
X126204250Y-121695000D01*
X126363000Y-121536250D01*
X126363000Y-120337000D01*
X126617000Y-120337000D01*
X126617000Y-121536250D01*
X126775750Y-121695000D01*
X127340000Y-121698072D01*
X127464482Y-121685812D01*
X127584180Y-121649502D01*
X127694494Y-121590537D01*
X127791185Y-121511185D01*
X127870537Y-121414494D01*
X127929502Y-121304180D01*
X127965812Y-121184482D01*
X127978072Y-121060000D01*
X127975000Y-120495750D01*
X127816250Y-120337000D01*
X126617000Y-120337000D01*
X126363000Y-120337000D01*
X125163750Y-120337000D01*
X125005000Y-120495750D01*
X125001928Y-121060000D01*
X124324100Y-121060000D01*
X124323512Y-119360000D01*
X125001928Y-119360000D01*
X125005000Y-119924250D01*
X125163750Y-120083000D01*
X126363000Y-120083000D01*
X126363000Y-120063000D01*
X126617000Y-120063000D01*
X126617000Y-120083000D01*
X127816250Y-120083000D01*
X127975000Y-119924250D01*
X127978072Y-119360000D01*
X127965812Y-119235518D01*
X127929502Y-119115820D01*
X127870537Y-119005506D01*
X127791185Y-118908815D01*
X127694494Y-118829463D01*
X127584180Y-118770498D01*
X127511620Y-118748487D01*
X127643475Y-118616632D01*
X127805990Y-118373411D01*
X127917932Y-118103158D01*
X127975000Y-117816260D01*
X127975000Y-117523740D01*
X127917932Y-117236842D01*
X127805990Y-116966589D01*
X127643475Y-116723368D01*
X127436632Y-116516525D01*
X127193411Y-116354010D01*
X127000522Y-116274113D01*
X131735000Y-116274113D01*
X131735000Y-116745887D01*
X131827039Y-117208596D01*
X132007579Y-117644458D01*
X132269682Y-118036723D01*
X132603277Y-118370318D01*
X132995542Y-118632421D01*
X133431404Y-118812961D01*
X133894113Y-118905000D01*
X134365887Y-118905000D01*
X134828596Y-118812961D01*
X135264458Y-118632421D01*
X135620667Y-118394410D01*
X135672795Y-118520256D01*
X135786063Y-118689774D01*
X135930226Y-118833937D01*
X136099744Y-118947205D01*
X136288102Y-119025226D01*
X136488061Y-119065000D01*
X136691939Y-119065000D01*
X136891898Y-119025226D01*
X137080256Y-118947205D01*
X137249774Y-118833937D01*
X137393937Y-118689774D01*
X137507205Y-118520256D01*
X137585226Y-118331898D01*
X137625000Y-118131939D01*
X137625000Y-117928061D01*
X137585226Y-117728102D01*
X137507205Y-117539744D01*
X137393937Y-117370226D01*
X137350000Y-117326289D01*
X137350000Y-114665000D01*
X137531939Y-114665000D01*
X137731898Y-114625226D01*
X137920256Y-114547205D01*
X138089774Y-114433937D01*
X138233937Y-114289774D01*
X138347205Y-114120256D01*
X138425226Y-113931898D01*
X138465000Y-113731939D01*
X138465000Y-113528061D01*
X138425226Y-113328102D01*
X138347205Y-113139744D01*
X138233937Y-112970226D01*
X138190000Y-112926289D01*
X138190000Y-98500000D01*
X141111928Y-98500000D01*
X141124188Y-98624482D01*
X141160498Y-98744180D01*
X141219463Y-98854494D01*
X141298815Y-98951185D01*
X141395506Y-99030537D01*
X141505820Y-99089502D01*
X141625518Y-99125812D01*
X141750000Y-99138072D01*
X142314250Y-99135000D01*
X142473000Y-98976250D01*
X142473000Y-97777000D01*
X141273750Y-97777000D01*
X141115000Y-97935750D01*
X141111928Y-98500000D01*
X138190000Y-98500000D01*
X138190000Y-96800000D01*
X141111928Y-96800000D01*
X141115000Y-97364250D01*
X141273750Y-97523000D01*
X142473000Y-97523000D01*
X142473000Y-96323750D01*
X142314250Y-96165000D01*
X141750000Y-96161928D01*
X141625518Y-96174188D01*
X141505820Y-96210498D01*
X141395506Y-96269463D01*
X141298815Y-96348815D01*
X141219463Y-96445506D01*
X141160498Y-96555820D01*
X141124188Y-96675518D01*
X141111928Y-96800000D01*
X138190000Y-96800000D01*
X138190000Y-96514801D01*
X138666224Y-96038576D01*
X138670650Y-96035528D01*
X138719066Y-95985734D01*
X138741743Y-95963057D01*
X138745139Y-95958919D01*
X138748862Y-95955090D01*
X138768822Y-95930061D01*
X138805163Y-95885778D01*
X138818456Y-95871317D01*
X138854826Y-95893464D01*
X138908712Y-95928385D01*
X138953480Y-95946196D01*
X138965965Y-95952209D01*
X139007827Y-95976117D01*
X139068714Y-95996468D01*
X139128983Y-96018511D01*
X139176607Y-96025918D01*
X139190137Y-96029005D01*
X139236236Y-96042990D01*
X139300121Y-96049283D01*
X139363823Y-96057366D01*
X139411886Y-96053990D01*
X139425754Y-96053990D01*
X139473842Y-96057367D01*
X139537520Y-96049285D01*
X139601385Y-96042996D01*
X139647514Y-96029004D01*
X139661037Y-96025917D01*
X139708641Y-96018515D01*
X139768944Y-95996461D01*
X139829837Y-95976106D01*
X139871670Y-95952213D01*
X139884165Y-95946196D01*
X139928953Y-95928375D01*
X139982811Y-95893470D01*
X140037632Y-95860088D01*
X140073122Y-95827467D01*
X140083971Y-95818815D01*
X140123660Y-95791482D01*
X140168409Y-95745459D01*
X140214437Y-95700704D01*
X140241770Y-95661013D01*
X140250415Y-95650173D01*
X140283022Y-95614699D01*
X140316408Y-95559874D01*
X140351326Y-95505994D01*
X140369140Y-95461220D01*
X140375155Y-95448729D01*
X140399060Y-95406873D01*
X140419412Y-95345981D01*
X140441456Y-95285710D01*
X140448863Y-95238081D01*
X140451947Y-95224571D01*
X140465934Y-95178463D01*
X140472228Y-95114567D01*
X140480310Y-95050878D01*
X140476934Y-95002815D01*
X140476934Y-94988949D01*
X140480311Y-94940874D01*
X140472231Y-94877201D01*
X140465940Y-94813312D01*
X140451949Y-94767188D01*
X140448864Y-94753671D01*
X140441457Y-94706042D01*
X140419411Y-94645766D01*
X140399061Y-94584879D01*
X140375156Y-94543023D01*
X140369135Y-94530520D01*
X140351316Y-94485738D01*
X140316417Y-94431891D01*
X140294263Y-94395511D01*
X140308708Y-94382233D01*
X140352993Y-94345889D01*
X140378035Y-94325919D01*
X140381870Y-94322190D01*
X140386002Y-94318799D01*
X140408642Y-94296159D01*
X140458473Y-94247707D01*
X140461523Y-94243278D01*
X141419281Y-93285520D01*
X141522240Y-93306000D01*
X141814760Y-93306000D01*
X141903539Y-93288341D01*
X143656201Y-95041003D01*
X143679999Y-95070001D01*
X143795724Y-95164974D01*
X143927753Y-95235546D01*
X144071014Y-95279003D01*
X144182667Y-95290000D01*
X144182676Y-95290000D01*
X144219999Y-95293676D01*
X144257322Y-95290000D01*
X145584234Y-95290000D01*
X145586502Y-95299331D01*
X145599907Y-95362109D01*
X145618973Y-95406375D01*
X145623554Y-95419465D01*
X145636246Y-95465960D01*
X145664907Y-95523399D01*
X145691946Y-95581621D01*
X145720382Y-95620530D01*
X145727757Y-95632268D01*
X145750476Y-95674771D01*
X145791206Y-95724400D01*
X145830519Y-95775140D01*
X145866895Y-95806741D01*
X145876707Y-95816554D01*
X145908308Y-95852929D01*
X145959048Y-95892242D01*
X146008677Y-95932971D01*
X146051169Y-95955684D01*
X146062920Y-95963067D01*
X146101827Y-95991502D01*
X146160049Y-96018541D01*
X146217488Y-96047202D01*
X146263983Y-96059894D01*
X146277067Y-96064472D01*
X146321329Y-96083538D01*
X146384111Y-96096944D01*
X146446487Y-96112105D01*
X146494645Y-96114133D01*
X146508420Y-96115685D01*
X146555818Y-96124423D01*
X146620000Y-96123522D01*
X146684183Y-96124423D01*
X146731578Y-96115685D01*
X146745355Y-96114133D01*
X146793513Y-96112105D01*
X146855902Y-96096941D01*
X146918670Y-96083537D01*
X146962926Y-96064475D01*
X146976016Y-96059894D01*
X147022511Y-96047202D01*
X147079950Y-96018541D01*
X147138172Y-95991502D01*
X147177081Y-95963066D01*
X147188819Y-95955691D01*
X147220000Y-95939024D01*
X147251169Y-95955684D01*
X147262920Y-95963067D01*
X147301827Y-95991502D01*
X147360049Y-96018541D01*
X147417488Y-96047202D01*
X147463983Y-96059894D01*
X147477067Y-96064472D01*
X147521329Y-96083538D01*
X147584111Y-96096944D01*
X147646487Y-96112105D01*
X147694645Y-96114133D01*
X147708420Y-96115685D01*
X147755818Y-96124423D01*
X147820000Y-96123522D01*
X147884183Y-96124423D01*
X147931578Y-96115685D01*
X147945355Y-96114133D01*
X147993513Y-96112105D01*
X148055902Y-96096941D01*
X148118670Y-96083537D01*
X148162926Y-96064475D01*
X148176016Y-96059894D01*
X148222511Y-96047202D01*
X148279950Y-96018541D01*
X148338172Y-95991502D01*
X148377081Y-95963066D01*
X148388819Y-95955691D01*
X148431322Y-95932972D01*
X148480951Y-95892242D01*
X148531691Y-95852929D01*
X148563292Y-95816553D01*
X148573105Y-95806741D01*
X148609480Y-95775140D01*
X148648793Y-95724400D01*
X148689522Y-95674771D01*
X148712235Y-95632279D01*
X148719618Y-95620528D01*
X148748053Y-95581621D01*
X148775092Y-95523399D01*
X148803753Y-95465960D01*
X148816445Y-95419465D01*
X148821024Y-95406378D01*
X148840088Y-95362120D01*
X148853493Y-95299344D01*
X148855765Y-95290000D01*
X158862678Y-95290000D01*
X158900000Y-95293676D01*
X158937322Y-95290000D01*
X158937333Y-95290000D01*
X159048986Y-95279003D01*
X159192247Y-95235546D01*
X159324276Y-95164974D01*
X159440001Y-95070001D01*
X159463804Y-95040997D01*
X161149802Y-93355000D01*
X161196260Y-93355000D01*
X161483158Y-93297932D01*
X161753411Y-93185990D01*
X161996632Y-93023475D01*
X162203475Y-92816632D01*
X162320000Y-92642240D01*
X162436525Y-92816632D01*
X162643368Y-93023475D01*
X162886589Y-93185990D01*
X163156842Y-93297932D01*
X163443740Y-93355000D01*
X163736260Y-93355000D01*
X164023158Y-93297932D01*
X164293411Y-93185990D01*
X164536632Y-93023475D01*
X164743475Y-92816632D01*
X164860000Y-92642240D01*
X164976525Y-92816632D01*
X165183368Y-93023475D01*
X165426589Y-93185990D01*
X165696842Y-93297932D01*
X165983740Y-93355000D01*
X166276260Y-93355000D01*
X166563158Y-93297932D01*
X166833411Y-93185990D01*
X167076632Y-93023475D01*
X167283475Y-92816632D01*
X167400000Y-92642240D01*
X167516525Y-92816632D01*
X167723368Y-93023475D01*
X167966589Y-93185990D01*
X168236842Y-93297932D01*
X168523740Y-93355000D01*
X168816260Y-93355000D01*
X169103158Y-93297932D01*
X169373411Y-93185990D01*
X169616632Y-93023475D01*
X169823475Y-92816632D01*
X169985990Y-92573411D01*
X170097932Y-92303158D01*
X170155000Y-92016260D01*
X170155000Y-91723740D01*
X170097932Y-91436842D01*
X169985990Y-91166589D01*
X169823475Y-90923368D01*
X169616632Y-90716525D01*
X169373411Y-90554010D01*
X169182553Y-90474954D01*
X169170313Y-90468412D01*
X169157032Y-90464383D01*
X169103158Y-90442068D01*
X169045969Y-90430692D01*
X169003489Y-90417806D01*
X168959312Y-90413455D01*
X168816260Y-90385000D01*
X168523740Y-90385000D01*
X168236842Y-90442068D01*
X167966589Y-90554010D01*
X167723368Y-90716525D01*
X167516525Y-90923368D01*
X167400000Y-91097760D01*
X167283475Y-90923368D01*
X167076632Y-90716525D01*
X166833411Y-90554010D01*
X166563158Y-90442068D01*
X166276260Y-90385000D01*
X165983740Y-90385000D01*
X165696842Y-90442068D01*
X165426589Y-90554010D01*
X165183368Y-90716525D01*
X164976525Y-90923368D01*
X164860000Y-91097760D01*
X164743475Y-90923368D01*
X164536632Y-90716525D01*
X164293411Y-90554010D01*
X164023158Y-90442068D01*
X163736260Y-90385000D01*
X163443740Y-90385000D01*
X163156842Y-90442068D01*
X162886589Y-90554010D01*
X162643368Y-90716525D01*
X162436525Y-90923368D01*
X162320000Y-91097760D01*
X162203475Y-90923368D01*
X161996632Y-90716525D01*
X161753411Y-90554010D01*
X161483158Y-90442068D01*
X161196260Y-90385000D01*
X160903740Y-90385000D01*
X160616842Y-90442068D01*
X160346589Y-90554010D01*
X160103368Y-90716525D01*
X159896525Y-90923368D01*
X159780000Y-91097760D01*
X159663475Y-90923368D01*
X159456632Y-90716525D01*
X159213411Y-90554010D01*
X159151798Y-90528489D01*
X159144974Y-90515723D01*
X159073799Y-90428997D01*
X159050001Y-90399999D01*
X159021003Y-90376201D01*
X157003804Y-88359003D01*
X156980001Y-88329999D01*
X156864276Y-88235026D01*
X156732247Y-88164454D01*
X156588986Y-88120997D01*
X156477333Y-88110000D01*
X156477322Y-88110000D01*
X156440000Y-88106324D01*
X156402678Y-88110000D01*
X138917322Y-88110000D01*
X138879999Y-88106324D01*
X138842676Y-88110000D01*
X138842667Y-88110000D01*
X138731014Y-88120997D01*
X138587753Y-88164454D01*
X138455723Y-88235026D01*
X138372083Y-88303668D01*
X138339999Y-88329999D01*
X138316201Y-88358997D01*
X136313613Y-90361586D01*
X136155342Y-90393068D01*
X135885089Y-90505010D01*
X135641868Y-90667525D01*
X135435025Y-90874368D01*
X135313305Y-91056534D01*
X135243678Y-90939645D01*
X135048769Y-90723412D01*
X134815420Y-90549359D01*
X134552599Y-90424175D01*
X134405390Y-90379524D01*
X134175500Y-90500845D01*
X134175500Y-91694000D01*
X134195500Y-91694000D01*
X134195500Y-91948000D01*
X134175500Y-91948000D01*
X134175500Y-93141155D01*
X134405390Y-93262476D01*
X134552599Y-93217825D01*
X134815420Y-93092641D01*
X135048769Y-92918588D01*
X135243678Y-92702355D01*
X135313305Y-92585466D01*
X135435025Y-92767632D01*
X135641868Y-92974475D01*
X135830000Y-93100181D01*
X135830001Y-114822960D01*
X135656723Y-114649682D01*
X135264458Y-114387579D01*
X134828596Y-114207039D01*
X134365887Y-114115000D01*
X133894113Y-114115000D01*
X133431404Y-114207039D01*
X132995542Y-114387579D01*
X132603277Y-114649682D01*
X132269682Y-114983277D01*
X132007579Y-115375542D01*
X131827039Y-115811404D01*
X131735000Y-116274113D01*
X127000522Y-116274113D01*
X126923158Y-116242068D01*
X126636260Y-116185000D01*
X126343740Y-116185000D01*
X126056842Y-116242068D01*
X125786589Y-116354010D01*
X125543368Y-116516525D01*
X125336525Y-116723368D01*
X125174010Y-116966589D01*
X125062068Y-117236842D01*
X125005000Y-117523740D01*
X125005000Y-117816260D01*
X125062068Y-118103158D01*
X125174010Y-118373411D01*
X125336525Y-118616632D01*
X125468380Y-118748487D01*
X125395820Y-118770498D01*
X125285506Y-118829463D01*
X125188815Y-118908815D01*
X125109463Y-119005506D01*
X125050498Y-119115820D01*
X125014188Y-119235518D01*
X125001928Y-119360000D01*
X124323512Y-119360000D01*
X124319861Y-108813061D01*
X130295000Y-108813061D01*
X130295000Y-109016939D01*
X130334774Y-109216898D01*
X130412795Y-109405256D01*
X130526063Y-109574774D01*
X130670226Y-109718937D01*
X130839744Y-109832205D01*
X131028102Y-109910226D01*
X131228061Y-109950000D01*
X131431939Y-109950000D01*
X131631898Y-109910226D01*
X131820256Y-109832205D01*
X131989774Y-109718937D01*
X132133937Y-109574774D01*
X132247205Y-109405256D01*
X132325226Y-109216898D01*
X132365000Y-109016939D01*
X132365000Y-108813061D01*
X132325226Y-108613102D01*
X132247205Y-108424744D01*
X132133937Y-108255226D01*
X131989774Y-108111063D01*
X131820256Y-107997795D01*
X131631898Y-107919774D01*
X131431939Y-107880000D01*
X131228061Y-107880000D01*
X131028102Y-107919774D01*
X130839744Y-107997795D01*
X130670226Y-108111063D01*
X130526063Y-108255226D01*
X130412795Y-108424744D01*
X130334774Y-108613102D01*
X130295000Y-108813061D01*
X124319861Y-108813061D01*
X124313684Y-90971000D01*
X127480428Y-90971000D01*
X127480428Y-92671000D01*
X127492688Y-92795482D01*
X127528998Y-92915180D01*
X127587963Y-93025494D01*
X127667315Y-93122185D01*
X127764006Y-93201537D01*
X127874320Y-93260502D01*
X127994018Y-93296812D01*
X128118500Y-93309072D01*
X129818500Y-93309072D01*
X129942982Y-93296812D01*
X130062680Y-93260502D01*
X130172994Y-93201537D01*
X130269685Y-93122185D01*
X130349037Y-93025494D01*
X130408002Y-92915180D01*
X130430013Y-92842620D01*
X130561868Y-92974475D01*
X130805089Y-93136990D01*
X131075342Y-93248932D01*
X131362240Y-93306000D01*
X131654760Y-93306000D01*
X131941658Y-93248932D01*
X132211911Y-93136990D01*
X132455132Y-92974475D01*
X132661975Y-92767632D01*
X132783695Y-92585466D01*
X132853322Y-92702355D01*
X133048231Y-92918588D01*
X133281580Y-93092641D01*
X133544401Y-93217825D01*
X133691610Y-93262476D01*
X133921500Y-93141155D01*
X133921500Y-91948000D01*
X133901500Y-91948000D01*
X133901500Y-91694000D01*
X133921500Y-91694000D01*
X133921500Y-90500845D01*
X133691610Y-90379524D01*
X133544401Y-90424175D01*
X133281580Y-90549359D01*
X133048231Y-90723412D01*
X132853322Y-90939645D01*
X132783695Y-91056534D01*
X132661975Y-90874368D01*
X132455132Y-90667525D01*
X132211911Y-90505010D01*
X131941658Y-90393068D01*
X131654760Y-90336000D01*
X131362240Y-90336000D01*
X131075342Y-90393068D01*
X130805089Y-90505010D01*
X130561868Y-90667525D01*
X130430013Y-90799380D01*
X130408002Y-90726820D01*
X130349037Y-90616506D01*
X130269685Y-90519815D01*
X130172994Y-90440463D01*
X130062680Y-90381498D01*
X129942982Y-90345188D01*
X129818500Y-90332928D01*
X128118500Y-90332928D01*
X127994018Y-90345188D01*
X127874320Y-90381498D01*
X127764006Y-90440463D01*
X127667315Y-90519815D01*
X127587963Y-90616506D01*
X127528998Y-90726820D01*
X127492688Y-90846518D01*
X127480428Y-90971000D01*
X124313684Y-90971000D01*
X124307288Y-72497000D01*
X124565000Y-72497000D01*
X124565000Y-72772000D01*
X124613507Y-73010496D01*
X124707610Y-73234946D01*
X124843693Y-73436725D01*
X125016526Y-73608078D01*
X125219467Y-73742421D01*
X125444718Y-73834591D01*
X125482391Y-73838462D01*
X125673000Y-73713731D01*
X125673000Y-72497000D01*
X124565000Y-72497000D01*
X124307288Y-72497000D01*
X124307105Y-71968000D01*
X124565000Y-71968000D01*
X124565000Y-72243000D01*
X125673000Y-72243000D01*
X125673000Y-71026269D01*
X125927000Y-71026269D01*
X125927000Y-72243000D01*
X125947000Y-72243000D01*
X125947000Y-72497000D01*
X125927000Y-72497000D01*
X125927000Y-73713731D01*
X126117609Y-73838462D01*
X126155282Y-73834591D01*
X126380533Y-73742421D01*
X126583474Y-73608078D01*
X126709033Y-73483594D01*
X126711595Y-73488387D01*
X126822038Y-73622962D01*
X126956613Y-73733405D01*
X127110149Y-73815472D01*
X127276745Y-73866008D01*
X127449999Y-73883072D01*
X128150001Y-73883072D01*
X128323255Y-73866008D01*
X128489851Y-73815472D01*
X128643387Y-73733405D01*
X128777962Y-73622962D01*
X128888405Y-73488387D01*
X128970472Y-73334851D01*
X129021008Y-73168255D01*
X129038072Y-72995001D01*
X129038072Y-71757688D01*
X152747000Y-71757688D01*
X152747000Y-71991112D01*
X152792539Y-72220052D01*
X152881866Y-72435708D01*
X153011550Y-72629794D01*
X153176606Y-72794850D01*
X153370692Y-72924534D01*
X153586348Y-73013861D01*
X153815288Y-73059400D01*
X154048712Y-73059400D01*
X154277652Y-73013861D01*
X154493308Y-72924534D01*
X154687394Y-72794850D01*
X154707244Y-72775000D01*
X156756756Y-72775000D01*
X156806606Y-72824850D01*
X157000692Y-72954534D01*
X157216348Y-73043861D01*
X157445288Y-73089400D01*
X157678712Y-73089400D01*
X157907652Y-73043861D01*
X158123308Y-72954534D01*
X158317394Y-72824850D01*
X158482450Y-72659794D01*
X158612134Y-72465708D01*
X158701461Y-72250052D01*
X158747000Y-72021112D01*
X158747000Y-71787688D01*
X158701461Y-71558748D01*
X158612134Y-71343092D01*
X158482450Y-71149006D01*
X158317394Y-70983950D01*
X158123308Y-70854266D01*
X157907652Y-70764939D01*
X157678712Y-70719400D01*
X157445288Y-70719400D01*
X157216348Y-70764939D01*
X157000692Y-70854266D01*
X156806606Y-70983950D01*
X156785556Y-71005000D01*
X154738444Y-71005000D01*
X154687394Y-70953950D01*
X154493308Y-70824266D01*
X154277652Y-70734939D01*
X154048712Y-70689400D01*
X153815288Y-70689400D01*
X153586348Y-70734939D01*
X153370692Y-70824266D01*
X153176606Y-70953950D01*
X153011550Y-71119006D01*
X152881866Y-71313092D01*
X152792539Y-71528748D01*
X152747000Y-71757688D01*
X129038072Y-71757688D01*
X129038072Y-71744999D01*
X129021008Y-71571745D01*
X128970472Y-71405149D01*
X128888405Y-71251613D01*
X128777962Y-71117038D01*
X128643387Y-71006595D01*
X128489851Y-70924528D01*
X128323255Y-70873992D01*
X128150001Y-70856928D01*
X127449999Y-70856928D01*
X127276745Y-70873992D01*
X127110149Y-70924528D01*
X126956613Y-71006595D01*
X126822038Y-71117038D01*
X126711595Y-71251613D01*
X126709033Y-71256406D01*
X126583474Y-71131922D01*
X126380533Y-70997579D01*
X126155282Y-70905409D01*
X126117609Y-70901538D01*
X125927000Y-71026269D01*
X125673000Y-71026269D01*
X125482391Y-70901538D01*
X125444718Y-70905409D01*
X125219467Y-70997579D01*
X125016526Y-71131922D01*
X124843693Y-71303275D01*
X124707610Y-71505054D01*
X124613507Y-71729504D01*
X124565000Y-71968000D01*
X124307105Y-71968000D01*
X124305237Y-66575000D01*
X129896353Y-66575000D01*
X129930000Y-66578314D01*
X130064283Y-66565088D01*
X130193406Y-66525919D01*
X130312407Y-66462312D01*
X130416711Y-66376711D01*
X130502312Y-66272407D01*
X130565919Y-66153406D01*
X130605088Y-66024283D01*
X130615000Y-65923647D01*
X130615939Y-65914113D01*
X131735000Y-65914113D01*
X131735000Y-66385887D01*
X131827039Y-66848596D01*
X132007579Y-67284458D01*
X132269682Y-67676723D01*
X132603277Y-68010318D01*
X132995542Y-68272421D01*
X133431404Y-68452961D01*
X133894113Y-68545000D01*
X134365887Y-68545000D01*
X134828596Y-68452961D01*
X135048948Y-68361688D01*
X142452000Y-68361688D01*
X142452000Y-68595112D01*
X142497539Y-68824052D01*
X142586866Y-69039708D01*
X142716550Y-69233794D01*
X142881606Y-69398850D01*
X143075692Y-69528534D01*
X143291348Y-69617861D01*
X143520288Y-69663400D01*
X143753712Y-69663400D01*
X143982652Y-69617861D01*
X144198308Y-69528534D01*
X144392394Y-69398850D01*
X144427844Y-69363400D01*
X146783156Y-69363400D01*
X146818606Y-69398850D01*
X147012692Y-69528534D01*
X147228348Y-69617861D01*
X147457288Y-69663400D01*
X147690712Y-69663400D01*
X147919652Y-69617861D01*
X148135308Y-69528534D01*
X148329394Y-69398850D01*
X148494450Y-69233794D01*
X148624134Y-69039708D01*
X148713461Y-68824052D01*
X148759000Y-68595112D01*
X148759000Y-68361688D01*
X148713461Y-68132748D01*
X148624134Y-67917092D01*
X148494450Y-67723006D01*
X148329394Y-67557950D01*
X148135308Y-67428266D01*
X147919652Y-67338939D01*
X147690712Y-67293400D01*
X147457288Y-67293400D01*
X147228348Y-67338939D01*
X147012692Y-67428266D01*
X146818606Y-67557950D01*
X146783156Y-67593400D01*
X144427844Y-67593400D01*
X144392394Y-67557950D01*
X144198308Y-67428266D01*
X143982652Y-67338939D01*
X143753712Y-67293400D01*
X143520288Y-67293400D01*
X143291348Y-67338939D01*
X143075692Y-67428266D01*
X142881606Y-67557950D01*
X142716550Y-67723006D01*
X142586866Y-67917092D01*
X142497539Y-68132748D01*
X142452000Y-68361688D01*
X135048948Y-68361688D01*
X135264458Y-68272421D01*
X135656723Y-68010318D01*
X135990318Y-67676723D01*
X136252421Y-67284458D01*
X136432961Y-66848596D01*
X136525000Y-66385887D01*
X136525000Y-66362113D01*
X161245000Y-66362113D01*
X161245000Y-66833887D01*
X161337039Y-67296596D01*
X161517579Y-67732458D01*
X161779682Y-68124723D01*
X162113277Y-68458318D01*
X162505542Y-68720421D01*
X162941404Y-68900961D01*
X163404113Y-68993000D01*
X163875887Y-68993000D01*
X164338596Y-68900961D01*
X164774458Y-68720421D01*
X165166723Y-68458318D01*
X165500318Y-68124723D01*
X165762421Y-67732458D01*
X165942961Y-67296596D01*
X166035000Y-66833887D01*
X166035000Y-66362113D01*
X165942961Y-65899404D01*
X165762421Y-65463542D01*
X165500318Y-65071277D01*
X165166723Y-64737682D01*
X164774458Y-64475579D01*
X164338596Y-64295039D01*
X163875887Y-64203000D01*
X163404113Y-64203000D01*
X162941404Y-64295039D01*
X162505542Y-64475579D01*
X162113277Y-64737682D01*
X161779682Y-65071277D01*
X161517579Y-65463542D01*
X161337039Y-65899404D01*
X161245000Y-66362113D01*
X136525000Y-66362113D01*
X136525000Y-65914113D01*
X136432961Y-65451404D01*
X136252421Y-65015542D01*
X135990318Y-64623277D01*
X135656723Y-64289682D01*
X135264458Y-64027579D01*
X134828596Y-63847039D01*
X134365887Y-63755000D01*
X133894113Y-63755000D01*
X133431404Y-63847039D01*
X132995542Y-64027579D01*
X132603277Y-64289682D01*
X132269682Y-64623277D01*
X132007579Y-65015542D01*
X131827039Y-65451404D01*
X131735000Y-65914113D01*
X130615939Y-65914113D01*
X130618314Y-65890000D01*
X130615000Y-65856353D01*
X130615000Y-61486891D01*
X136028519Y-61486891D01*
X136125843Y-61761252D01*
X136274822Y-62011355D01*
X136469731Y-62227588D01*
X136703080Y-62401641D01*
X136965901Y-62526825D01*
X137113110Y-62571476D01*
X137343000Y-62450155D01*
X137343000Y-61257000D01*
X136149186Y-61257000D01*
X136028519Y-61486891D01*
X130615000Y-61486891D01*
X130615000Y-60773109D01*
X136028519Y-60773109D01*
X136149186Y-61003000D01*
X137343000Y-61003000D01*
X137343000Y-59809845D01*
X137597000Y-59809845D01*
X137597000Y-61003000D01*
X137617000Y-61003000D01*
X137617000Y-61257000D01*
X137597000Y-61257000D01*
X137597000Y-62450155D01*
X137826890Y-62571476D01*
X137974099Y-62526825D01*
X138236920Y-62401641D01*
X138470269Y-62227588D01*
X138546034Y-62143534D01*
X138570498Y-62224180D01*
X138629463Y-62334494D01*
X138708815Y-62431185D01*
X138805506Y-62510537D01*
X138915820Y-62569502D01*
X139035518Y-62605812D01*
X139160000Y-62618072D01*
X140860000Y-62618072D01*
X140984482Y-62605812D01*
X141104180Y-62569502D01*
X141214494Y-62510537D01*
X141311185Y-62431185D01*
X141390537Y-62334494D01*
X141449502Y-62224180D01*
X141485812Y-62104482D01*
X141498072Y-61980000D01*
X141498072Y-60280000D01*
X141485812Y-60155518D01*
X141449502Y-60035820D01*
X141390537Y-59925506D01*
X141311185Y-59828815D01*
X141214494Y-59749463D01*
X141104180Y-59690498D01*
X140984482Y-59654188D01*
X140860000Y-59641928D01*
X139160000Y-59641928D01*
X139035518Y-59654188D01*
X138915820Y-59690498D01*
X138805506Y-59749463D01*
X138708815Y-59828815D01*
X138629463Y-59925506D01*
X138570498Y-60035820D01*
X138546034Y-60116466D01*
X138470269Y-60032412D01*
X138236920Y-59858359D01*
X137974099Y-59733175D01*
X137826890Y-59688524D01*
X137597000Y-59809845D01*
X137343000Y-59809845D01*
X137113110Y-59688524D01*
X136965901Y-59733175D01*
X136703080Y-59858359D01*
X136469731Y-60032412D01*
X136274822Y-60248645D01*
X136125843Y-60498748D01*
X136028519Y-60773109D01*
X130615000Y-60773109D01*
X130615000Y-59655000D01*
X131617217Y-59655000D01*
X131651718Y-59658311D01*
X131717684Y-59651648D01*
X131784283Y-59645088D01*
X131785112Y-59644836D01*
X131785968Y-59644750D01*
X131849426Y-59625327D01*
X131913406Y-59605919D01*
X131914170Y-59605511D01*
X131914992Y-59605259D01*
X131973398Y-59573853D01*
X132032407Y-59542312D01*
X132033077Y-59541762D01*
X132033834Y-59541355D01*
X132084997Y-59499152D01*
X132136711Y-59456711D01*
X132137261Y-59456041D01*
X132137924Y-59455494D01*
X132179891Y-59404096D01*
X132222312Y-59352407D01*
X132222720Y-59351643D01*
X132223265Y-59350976D01*
X132254405Y-59292365D01*
X132285919Y-59233406D01*
X132286171Y-59232576D01*
X132286574Y-59231817D01*
X132305696Y-59168211D01*
X132325088Y-59104283D01*
X132325173Y-59103423D01*
X132325421Y-59102597D01*
X132331759Y-59036556D01*
X132338314Y-58970000D01*
X132334915Y-58935491D01*
X132325606Y-55207000D01*
X134115000Y-55207000D01*
X134115000Y-55707000D01*
X134160144Y-55911355D01*
X134244288Y-56102977D01*
X134364199Y-56274501D01*
X134515269Y-56419336D01*
X134691692Y-56531916D01*
X134884938Y-56599540D01*
X135048000Y-56472257D01*
X135048000Y-55207000D01*
X135302000Y-55207000D01*
X135302000Y-56472257D01*
X135465062Y-56599540D01*
X135658308Y-56531916D01*
X135834731Y-56419336D01*
X135985801Y-56274501D01*
X136105712Y-56102977D01*
X136189856Y-55911355D01*
X136235000Y-55707000D01*
X136235000Y-55385582D01*
X136393355Y-55385582D01*
X136430354Y-55590079D01*
X136506538Y-55783428D01*
X136523885Y-55815881D01*
X136729202Y-55841193D01*
X137270395Y-55300000D01*
X136729202Y-54758807D01*
X136523885Y-54784119D01*
X136441037Y-54974708D01*
X136396962Y-55177796D01*
X136393355Y-55385582D01*
X136235000Y-55385582D01*
X136235000Y-55207000D01*
X135302000Y-55207000D01*
X135048000Y-55207000D01*
X134115000Y-55207000D01*
X132325606Y-55207000D01*
X132323724Y-54453000D01*
X134115000Y-54453000D01*
X134115000Y-54953000D01*
X135048000Y-54953000D01*
X135048000Y-53687743D01*
X135302000Y-53687743D01*
X135302000Y-54953000D01*
X136235000Y-54953000D01*
X136235000Y-54579202D01*
X136908807Y-54579202D01*
X137237032Y-54907427D01*
X137280528Y-54972523D01*
X137427477Y-55119472D01*
X137577815Y-55219925D01*
X137643748Y-55285858D01*
X137629605Y-55300000D01*
X137643748Y-55314143D01*
X137464143Y-55493748D01*
X137450000Y-55479605D01*
X136908807Y-56020798D01*
X136934119Y-56226115D01*
X137124708Y-56308963D01*
X137327796Y-56353038D01*
X137535582Y-56356645D01*
X137740079Y-56319646D01*
X137933428Y-56243462D01*
X137965881Y-56226115D01*
X137989833Y-56031828D01*
X138077477Y-56119472D01*
X138250270Y-56234929D01*
X138442268Y-56314457D01*
X138646092Y-56355000D01*
X138853908Y-56355000D01*
X139057732Y-56314457D01*
X139249730Y-56234929D01*
X139253455Y-56232440D01*
X139275506Y-56250537D01*
X139385820Y-56309502D01*
X139505518Y-56345812D01*
X139630000Y-56358072D01*
X140470000Y-56358072D01*
X140594482Y-56345812D01*
X140714180Y-56309502D01*
X140824494Y-56250537D01*
X140921185Y-56171185D01*
X141000537Y-56074494D01*
X141059502Y-55964180D01*
X141095812Y-55844482D01*
X141108072Y-55720000D01*
X141108072Y-55207000D01*
X141265000Y-55207000D01*
X141265000Y-55707000D01*
X141310144Y-55911355D01*
X141394288Y-56102977D01*
X141514199Y-56274501D01*
X141665269Y-56419336D01*
X141841692Y-56531916D01*
X142034938Y-56599540D01*
X142198000Y-56472257D01*
X142198000Y-55207000D01*
X142452000Y-55207000D01*
X142452000Y-56472257D01*
X142615062Y-56599540D01*
X142808308Y-56531916D01*
X142984731Y-56419336D01*
X143135801Y-56274501D01*
X143255712Y-56102977D01*
X143339856Y-55911355D01*
X143385000Y-55707000D01*
X143385000Y-55207000D01*
X142452000Y-55207000D01*
X142198000Y-55207000D01*
X141265000Y-55207000D01*
X141108072Y-55207000D01*
X141108072Y-54880000D01*
X141095812Y-54755518D01*
X141059502Y-54635820D01*
X141000537Y-54525506D01*
X140941034Y-54453000D01*
X141265000Y-54453000D01*
X141265000Y-54953000D01*
X142198000Y-54953000D01*
X142198000Y-53687743D01*
X142452000Y-53687743D01*
X142452000Y-54953000D01*
X143385000Y-54953000D01*
X143385000Y-54453000D01*
X143339856Y-54248645D01*
X143255712Y-54057023D01*
X143135801Y-53885499D01*
X142984731Y-53740664D01*
X142808308Y-53628084D01*
X142615062Y-53560460D01*
X142452000Y-53687743D01*
X142198000Y-53687743D01*
X142034938Y-53560460D01*
X141841692Y-53628084D01*
X141665269Y-53740664D01*
X141514199Y-53885499D01*
X141394288Y-54057023D01*
X141310144Y-54248645D01*
X141265000Y-54453000D01*
X140941034Y-54453000D01*
X140921185Y-54428815D01*
X140824494Y-54349463D01*
X140714180Y-54290498D01*
X140594482Y-54254188D01*
X140470000Y-54241928D01*
X140455000Y-54241928D01*
X140455000Y-54196092D01*
X140414457Y-53992268D01*
X140334929Y-53800270D01*
X140219472Y-53627477D01*
X140072523Y-53480528D01*
X139899730Y-53365071D01*
X139707732Y-53285543D01*
X139503908Y-53245000D01*
X139296092Y-53245000D01*
X139092268Y-53285543D01*
X138900270Y-53365071D01*
X138750000Y-53465479D01*
X138599730Y-53365071D01*
X138407732Y-53285543D01*
X138203908Y-53245000D01*
X137996092Y-53245000D01*
X137792268Y-53285543D01*
X137600270Y-53365071D01*
X137427477Y-53480528D01*
X137280528Y-53627477D01*
X137165071Y-53800270D01*
X137085543Y-53992268D01*
X137045000Y-54196092D01*
X137045000Y-54325636D01*
X136966572Y-54356538D01*
X136934119Y-54373885D01*
X136908807Y-54579202D01*
X136235000Y-54579202D01*
X136235000Y-54453000D01*
X136189856Y-54248645D01*
X136105712Y-54057023D01*
X135985801Y-53885499D01*
X135834731Y-53740664D01*
X135658308Y-53628084D01*
X135465062Y-53560460D01*
X135302000Y-53687743D01*
X135048000Y-53687743D01*
X134884938Y-53560460D01*
X134691692Y-53628084D01*
X134515269Y-53740664D01*
X134364199Y-53885499D01*
X134244288Y-54057023D01*
X134160144Y-54248645D01*
X134115000Y-54453000D01*
X132323724Y-54453000D01*
X132316712Y-51645000D01*
X165466709Y-51645000D01*
X165484920Y-58938489D01*
G37*
%TD.AperFunction*%
D21*
X157387546Y-90892347D02*
X157356525Y-90923368D01*
X157234805Y-91105534D01*
X157165178Y-90988645D01*
X156970269Y-90772412D01*
X156736920Y-90598359D01*
X156474099Y-90473175D01*
X156326890Y-90428524D01*
X156097000Y-90549845D01*
X156097000Y-91743000D01*
X156117000Y-91743000D01*
X156117000Y-91997000D01*
X156097000Y-91997000D01*
X156097000Y-93190155D01*
X156326890Y-93311476D01*
X156474099Y-93266825D01*
X156736920Y-93141641D01*
X156970269Y-92967588D01*
X157165178Y-92751355D01*
X157234805Y-92634466D01*
X157356525Y-92816632D01*
X157563368Y-93023475D01*
X157806589Y-93185990D01*
X158076842Y-93297932D01*
X158363740Y-93355000D01*
X158656260Y-93355000D01*
X158943158Y-93297932D01*
X159137953Y-93217246D01*
X158585199Y-93770000D01*
X148489472Y-93770000D01*
X148484195Y-93769027D01*
X148414759Y-93770000D01*
X148382667Y-93770000D01*
X148377344Y-93770524D01*
X148372012Y-93770599D01*
X148340223Y-93774180D01*
X148283193Y-93779797D01*
X148258400Y-93780841D01*
X148253493Y-93760656D01*
X148240088Y-93697880D01*
X148221024Y-93653622D01*
X148216445Y-93640535D01*
X148203753Y-93594040D01*
X148175092Y-93536601D01*
X148148053Y-93478379D01*
X148119618Y-93439472D01*
X148112235Y-93427721D01*
X148089522Y-93385229D01*
X148048793Y-93335600D01*
X148009480Y-93284860D01*
X147973105Y-93253259D01*
X147963292Y-93243447D01*
X147931691Y-93207071D01*
X147880951Y-93167758D01*
X147831322Y-93127028D01*
X147788819Y-93104309D01*
X147777081Y-93096934D01*
X147738172Y-93068498D01*
X147679950Y-93041459D01*
X147622511Y-93012798D01*
X147576016Y-93000106D01*
X147562926Y-92995525D01*
X147518670Y-92976463D01*
X147455902Y-92963059D01*
X147393513Y-92947895D01*
X147345355Y-92945867D01*
X147331578Y-92944315D01*
X147284183Y-92935577D01*
X147220000Y-92936478D01*
X147155818Y-92935577D01*
X147108420Y-92944315D01*
X147094645Y-92945867D01*
X147046487Y-92947895D01*
X146984111Y-92963056D01*
X146921329Y-92976462D01*
X146877067Y-92995528D01*
X146863983Y-93000106D01*
X146817488Y-93012798D01*
X146760049Y-93041459D01*
X146701827Y-93068498D01*
X146662920Y-93096933D01*
X146651169Y-93104316D01*
X146608677Y-93127029D01*
X146559048Y-93167758D01*
X146508308Y-93207071D01*
X146476707Y-93243446D01*
X146466895Y-93253259D01*
X146430519Y-93284860D01*
X146391206Y-93335600D01*
X146350476Y-93385229D01*
X146327757Y-93427732D01*
X146320382Y-93439470D01*
X146291946Y-93478379D01*
X146264907Y-93536601D01*
X146236246Y-93594040D01*
X146223554Y-93640535D01*
X146218973Y-93653625D01*
X146199907Y-93697891D01*
X146186502Y-93760669D01*
X146181599Y-93780841D01*
X146156807Y-93779797D01*
X146099777Y-93774180D01*
X146067988Y-93770599D01*
X146062656Y-93770524D01*
X146057333Y-93770000D01*
X146025269Y-93770000D01*
X145955806Y-93769026D01*
X145950523Y-93770000D01*
X144534802Y-93770000D01*
X144070802Y-93306000D01*
X144354760Y-93306000D01*
X144641658Y-93248932D01*
X144911911Y-93136990D01*
X145155132Y-92974475D01*
X145361975Y-92767632D01*
X145524490Y-92524411D01*
X145636432Y-92254158D01*
X145693500Y-91967260D01*
X145693500Y-91674740D01*
X145636432Y-91387842D01*
X145524490Y-91117589D01*
X145459284Y-91020000D01*
X149401928Y-91020000D01*
X149401928Y-92720000D01*
X149414188Y-92844482D01*
X149450498Y-92964180D01*
X149509463Y-93074494D01*
X149588815Y-93171185D01*
X149685506Y-93250537D01*
X149795820Y-93309502D01*
X149915518Y-93345812D01*
X150040000Y-93358072D01*
X151740000Y-93358072D01*
X151864482Y-93345812D01*
X151984180Y-93309502D01*
X152094494Y-93250537D01*
X152191185Y-93171185D01*
X152270537Y-93074494D01*
X152329502Y-92964180D01*
X152351513Y-92891620D01*
X152483368Y-93023475D01*
X152726589Y-93185990D01*
X152996842Y-93297932D01*
X153283740Y-93355000D01*
X153576260Y-93355000D01*
X153863158Y-93297932D01*
X154133411Y-93185990D01*
X154376632Y-93023475D01*
X154583475Y-92816632D01*
X154705195Y-92634466D01*
X154774822Y-92751355D01*
X154969731Y-92967588D01*
X155203080Y-93141641D01*
X155465901Y-93266825D01*
X155613110Y-93311476D01*
X155843000Y-93190155D01*
X155843000Y-91997000D01*
X155823000Y-91997000D01*
X155823000Y-91743000D01*
X155843000Y-91743000D01*
X155843000Y-90549845D01*
X155613110Y-90428524D01*
X155465901Y-90473175D01*
X155203080Y-90598359D01*
X154969731Y-90772412D01*
X154774822Y-90988645D01*
X154705195Y-91105534D01*
X154583475Y-90923368D01*
X154376632Y-90716525D01*
X154133411Y-90554010D01*
X153863158Y-90442068D01*
X153576260Y-90385000D01*
X153283740Y-90385000D01*
X152996842Y-90442068D01*
X152726589Y-90554010D01*
X152483368Y-90716525D01*
X152351513Y-90848380D01*
X152329502Y-90775820D01*
X152270537Y-90665506D01*
X152191185Y-90568815D01*
X152094494Y-90489463D01*
X151984180Y-90430498D01*
X151864482Y-90394188D01*
X151740000Y-90381928D01*
X150040000Y-90381928D01*
X149915518Y-90394188D01*
X149795820Y-90430498D01*
X149685506Y-90489463D01*
X149588815Y-90568815D01*
X149509463Y-90665506D01*
X149450498Y-90775820D01*
X149414188Y-90895518D01*
X149401928Y-91020000D01*
X145459284Y-91020000D01*
X145361975Y-90874368D01*
X145155132Y-90667525D01*
X144911911Y-90505010D01*
X144641658Y-90393068D01*
X144354760Y-90336000D01*
X144062240Y-90336000D01*
X143775342Y-90393068D01*
X143505089Y-90505010D01*
X143261868Y-90667525D01*
X143055025Y-90874368D01*
X142938500Y-91048760D01*
X142821975Y-90874368D01*
X142615132Y-90667525D01*
X142371911Y-90505010D01*
X142101658Y-90393068D01*
X141814760Y-90336000D01*
X141522240Y-90336000D01*
X141235342Y-90393068D01*
X140965089Y-90505010D01*
X140721868Y-90667525D01*
X140515025Y-90874368D01*
X140398500Y-91048760D01*
X140281975Y-90874368D01*
X140075132Y-90667525D01*
X139831911Y-90505010D01*
X139561658Y-90393068D01*
X139274760Y-90336000D01*
X138982240Y-90336000D01*
X138695342Y-90393068D01*
X138425089Y-90505010D01*
X138181868Y-90667525D01*
X137975025Y-90874368D01*
X137858500Y-91048760D01*
X137825472Y-90999330D01*
X139194802Y-89630000D01*
X156125199Y-89630000D01*
X157387546Y-90892347D01*
%TA.AperFunction,Conductor*%
D22*
G36*
X157387546Y-90892347D02*
G01*
X157356525Y-90923368D01*
X157234805Y-91105534D01*
X157165178Y-90988645D01*
X156970269Y-90772412D01*
X156736920Y-90598359D01*
X156474099Y-90473175D01*
X156326890Y-90428524D01*
X156097000Y-90549845D01*
X156097000Y-91743000D01*
X156117000Y-91743000D01*
X156117000Y-91997000D01*
X156097000Y-91997000D01*
X156097000Y-93190155D01*
X156326890Y-93311476D01*
X156474099Y-93266825D01*
X156736920Y-93141641D01*
X156970269Y-92967588D01*
X157165178Y-92751355D01*
X157234805Y-92634466D01*
X157356525Y-92816632D01*
X157563368Y-93023475D01*
X157806589Y-93185990D01*
X158076842Y-93297932D01*
X158363740Y-93355000D01*
X158656260Y-93355000D01*
X158943158Y-93297932D01*
X159137953Y-93217246D01*
X158585199Y-93770000D01*
X148489472Y-93770000D01*
X148484195Y-93769027D01*
X148414759Y-93770000D01*
X148382667Y-93770000D01*
X148377344Y-93770524D01*
X148372012Y-93770599D01*
X148340223Y-93774180D01*
X148283193Y-93779797D01*
X148258400Y-93780841D01*
X148253493Y-93760656D01*
X148240088Y-93697880D01*
X148221024Y-93653622D01*
X148216445Y-93640535D01*
X148203753Y-93594040D01*
X148175092Y-93536601D01*
X148148053Y-93478379D01*
X148119618Y-93439472D01*
X148112235Y-93427721D01*
X148089522Y-93385229D01*
X148048793Y-93335600D01*
X148009480Y-93284860D01*
X147973105Y-93253259D01*
X147963292Y-93243447D01*
X147931691Y-93207071D01*
X147880951Y-93167758D01*
X147831322Y-93127028D01*
X147788819Y-93104309D01*
X147777081Y-93096934D01*
X147738172Y-93068498D01*
X147679950Y-93041459D01*
X147622511Y-93012798D01*
X147576016Y-93000106D01*
X147562926Y-92995525D01*
X147518670Y-92976463D01*
X147455902Y-92963059D01*
X147393513Y-92947895D01*
X147345355Y-92945867D01*
X147331578Y-92944315D01*
X147284183Y-92935577D01*
X147220000Y-92936478D01*
X147155818Y-92935577D01*
X147108420Y-92944315D01*
X147094645Y-92945867D01*
X147046487Y-92947895D01*
X146984111Y-92963056D01*
X146921329Y-92976462D01*
X146877067Y-92995528D01*
X146863983Y-93000106D01*
X146817488Y-93012798D01*
X146760049Y-93041459D01*
X146701827Y-93068498D01*
X146662920Y-93096933D01*
X146651169Y-93104316D01*
X146608677Y-93127029D01*
X146559048Y-93167758D01*
X146508308Y-93207071D01*
X146476707Y-93243446D01*
X146466895Y-93253259D01*
X146430519Y-93284860D01*
X146391206Y-93335600D01*
X146350476Y-93385229D01*
X146327757Y-93427732D01*
X146320382Y-93439470D01*
X146291946Y-93478379D01*
X146264907Y-93536601D01*
X146236246Y-93594040D01*
X146223554Y-93640535D01*
X146218973Y-93653625D01*
X146199907Y-93697891D01*
X146186502Y-93760669D01*
X146181599Y-93780841D01*
X146156807Y-93779797D01*
X146099777Y-93774180D01*
X146067988Y-93770599D01*
X146062656Y-93770524D01*
X146057333Y-93770000D01*
X146025269Y-93770000D01*
X145955806Y-93769026D01*
X145950523Y-93770000D01*
X144534802Y-93770000D01*
X144070802Y-93306000D01*
X144354760Y-93306000D01*
X144641658Y-93248932D01*
X144911911Y-93136990D01*
X145155132Y-92974475D01*
X145361975Y-92767632D01*
X145524490Y-92524411D01*
X145636432Y-92254158D01*
X145693500Y-91967260D01*
X145693500Y-91674740D01*
X145636432Y-91387842D01*
X145524490Y-91117589D01*
X145459284Y-91020000D01*
X149401928Y-91020000D01*
X149401928Y-92720000D01*
X149414188Y-92844482D01*
X149450498Y-92964180D01*
X149509463Y-93074494D01*
X149588815Y-93171185D01*
X149685506Y-93250537D01*
X149795820Y-93309502D01*
X149915518Y-93345812D01*
X150040000Y-93358072D01*
X151740000Y-93358072D01*
X151864482Y-93345812D01*
X151984180Y-93309502D01*
X152094494Y-93250537D01*
X152191185Y-93171185D01*
X152270537Y-93074494D01*
X152329502Y-92964180D01*
X152351513Y-92891620D01*
X152483368Y-93023475D01*
X152726589Y-93185990D01*
X152996842Y-93297932D01*
X153283740Y-93355000D01*
X153576260Y-93355000D01*
X153863158Y-93297932D01*
X154133411Y-93185990D01*
X154376632Y-93023475D01*
X154583475Y-92816632D01*
X154705195Y-92634466D01*
X154774822Y-92751355D01*
X154969731Y-92967588D01*
X155203080Y-93141641D01*
X155465901Y-93266825D01*
X155613110Y-93311476D01*
X155843000Y-93190155D01*
X155843000Y-91997000D01*
X155823000Y-91997000D01*
X155823000Y-91743000D01*
X155843000Y-91743000D01*
X155843000Y-90549845D01*
X155613110Y-90428524D01*
X155465901Y-90473175D01*
X155203080Y-90598359D01*
X154969731Y-90772412D01*
X154774822Y-90988645D01*
X154705195Y-91105534D01*
X154583475Y-90923368D01*
X154376632Y-90716525D01*
X154133411Y-90554010D01*
X153863158Y-90442068D01*
X153576260Y-90385000D01*
X153283740Y-90385000D01*
X152996842Y-90442068D01*
X152726589Y-90554010D01*
X152483368Y-90716525D01*
X152351513Y-90848380D01*
X152329502Y-90775820D01*
X152270537Y-90665506D01*
X152191185Y-90568815D01*
X152094494Y-90489463D01*
X151984180Y-90430498D01*
X151864482Y-90394188D01*
X151740000Y-90381928D01*
X150040000Y-90381928D01*
X149915518Y-90394188D01*
X149795820Y-90430498D01*
X149685506Y-90489463D01*
X149588815Y-90568815D01*
X149509463Y-90665506D01*
X149450498Y-90775820D01*
X149414188Y-90895518D01*
X149401928Y-91020000D01*
X145459284Y-91020000D01*
X145361975Y-90874368D01*
X145155132Y-90667525D01*
X144911911Y-90505010D01*
X144641658Y-90393068D01*
X144354760Y-90336000D01*
X144062240Y-90336000D01*
X143775342Y-90393068D01*
X143505089Y-90505010D01*
X143261868Y-90667525D01*
X143055025Y-90874368D01*
X142938500Y-91048760D01*
X142821975Y-90874368D01*
X142615132Y-90667525D01*
X142371911Y-90505010D01*
X142101658Y-90393068D01*
X141814760Y-90336000D01*
X141522240Y-90336000D01*
X141235342Y-90393068D01*
X140965089Y-90505010D01*
X140721868Y-90667525D01*
X140515025Y-90874368D01*
X140398500Y-91048760D01*
X140281975Y-90874368D01*
X140075132Y-90667525D01*
X139831911Y-90505010D01*
X139561658Y-90393068D01*
X139274760Y-90336000D01*
X138982240Y-90336000D01*
X138695342Y-90393068D01*
X138425089Y-90505010D01*
X138181868Y-90667525D01*
X137975025Y-90874368D01*
X137858500Y-91048760D01*
X137825472Y-90999330D01*
X139194802Y-89630000D01*
X156125199Y-89630000D01*
X157387546Y-90892347D01*
G37*
%TD.AperFunction*%
%TD*%
M02*
