%TF.GenerationSoftware,KiCad,Pcbnew,(5.1.10)-1*%
%TF.CreationDate,2021-07-02T09:23:45+02:00*%
%TF.ProjectId,clip,636c6970-2e6b-4696-9361-645f70636258,rev?*%
%TF.SameCoordinates,Original*%
%TF.FileFunction,Other,Fab,Top*%
%FSLAX46Y46*%
G04 Gerber Fmt 4.6, Leading zero omitted, Abs format (unit mm)*
G04 Created by KiCad (PCBNEW (5.1.10)-1) date 2021-07-02 09:23:45*
%MOMM*%
%LPD*%
G01*
G04 APERTURE LIST*
%ADD10C,0.100000*%
%ADD11C,0.150000*%
%ADD12C,0.080000*%
%ADD13C,0.075000*%
G04 APERTURE END LIST*
D10*
%TO.C,MOISTURE1*%
X145089880Y-79588360D02*
X145089880Y-77683360D01*
X145089880Y-77683360D02*
X152709880Y-77683360D01*
X152709880Y-77683360D02*
X152709880Y-80223360D01*
X152709880Y-80223360D02*
X145724880Y-80223360D01*
X145724880Y-80223360D02*
X145089880Y-79588360D01*
%TO.C,D3*%
X144790680Y-98032800D02*
X142990680Y-98032800D01*
X142990680Y-98032800D02*
X142990680Y-96632800D01*
X142990680Y-96632800D02*
X144790680Y-96632800D01*
X144790680Y-96632800D02*
X144790680Y-98032800D01*
X144190680Y-97682800D02*
X144190680Y-96982800D01*
X144190680Y-97332800D02*
X144390680Y-97332800D01*
X144190680Y-97332800D02*
X143690680Y-97682800D01*
X143690680Y-97682800D02*
X143690680Y-96982800D01*
X143690680Y-96982800D02*
X144190680Y-97332800D01*
X143690680Y-97332800D02*
X143440680Y-97332800D01*
%TO.C,D2*%
X165110000Y-81990000D02*
X166310000Y-81990000D01*
X165110000Y-79990000D02*
X165110000Y-81990000D01*
X166010000Y-79990000D02*
X165110000Y-79990000D01*
X166310000Y-80290000D02*
X166010000Y-79990000D01*
X166310000Y-81990000D02*
X166310000Y-80290000D01*
%TO.C,D4*%
X129430220Y-81978900D02*
X130630220Y-81978900D01*
X129430220Y-79978900D02*
X129430220Y-81978900D01*
X130330220Y-79978900D02*
X129430220Y-79978900D01*
X130630220Y-80278900D02*
X130330220Y-79978900D01*
X130630220Y-81978900D02*
X130630220Y-80278900D01*
%TO.C,U1*%
X146653800Y-87297940D02*
X147303800Y-86647940D01*
X148453800Y-86647940D02*
X147303800Y-86647940D01*
X146653800Y-87297940D02*
X146653800Y-89747940D01*
X148453800Y-89747940D02*
X146653800Y-89747940D01*
X148453800Y-86647940D02*
X148453800Y-89747940D01*
%TO.C,U3*%
X157830000Y-124620000D02*
X157330000Y-125120000D01*
X157330000Y-125120000D02*
X157830000Y-125620000D01*
X157830000Y-124620000D02*
X157830000Y-105840000D01*
X157830000Y-131345000D02*
X139830000Y-131345000D01*
X157830000Y-131345000D02*
X157830000Y-125620000D01*
X157830000Y-105840000D02*
X139830000Y-105840000D01*
X139830000Y-105840000D02*
X139830000Y-131345000D01*
D11*
%TO.C,USB1*%
X131680000Y-91595000D02*
X131455000Y-91595000D01*
X131680000Y-91145000D02*
X131680000Y-91595000D01*
X131455000Y-91145000D02*
X131680000Y-91145000D01*
X131280000Y-91370000D02*
X131455000Y-91145000D01*
X131455000Y-91595000D02*
X131280000Y-91370000D01*
X124980000Y-89970000D02*
X124980000Y-95370000D01*
X130980000Y-96670000D02*
X130980000Y-88670000D01*
X125580000Y-96670000D02*
X130980000Y-96670000D01*
X125580000Y-96370000D02*
X125580000Y-96670000D01*
X124380000Y-96370000D02*
X125580000Y-96370000D01*
X124380000Y-88970000D02*
X124380000Y-96370000D01*
X125580000Y-88970000D02*
X124380000Y-88970000D01*
X125580000Y-88670000D02*
X125580000Y-88970000D01*
X130980000Y-88670000D02*
X125580000Y-88670000D01*
D10*
%TO.C,EN1*%
X163750000Y-108260000D02*
X163750000Y-111260000D01*
X163750000Y-111260000D02*
X161250000Y-111260000D01*
X161250000Y-111260000D02*
X161250000Y-108260000D01*
X161250000Y-108260000D02*
X163750000Y-108260000D01*
X163250000Y-109760000D02*
G75*
G03*
X163250000Y-109760000I-750000J0D01*
G01*
%TO.C,LIS1*%
X126395000Y-102990000D02*
X125760000Y-102355000D01*
X146080000Y-102990000D02*
X126395000Y-102990000D01*
X146080000Y-100450000D02*
X146080000Y-102990000D01*
X125760000Y-100450000D02*
X146080000Y-100450000D01*
X125760000Y-102355000D02*
X125760000Y-100450000D01*
%TO.C,VIN1*%
X136022080Y-75778360D02*
X136657080Y-76413360D01*
X131577080Y-75778360D02*
X136022080Y-75778360D01*
X131577080Y-78318360D02*
X131577080Y-75778360D01*
X136657080Y-78318360D02*
X131577080Y-78318360D01*
X136657080Y-76413360D02*
X136657080Y-78318360D01*
%TO.C,FLASH1*%
X133670000Y-109575000D02*
X134305000Y-108940000D01*
X133670000Y-124180000D02*
X133670000Y-109575000D01*
X136210000Y-124180000D02*
X133670000Y-124180000D01*
X136210000Y-108940000D02*
X136210000Y-124180000D01*
X134305000Y-108940000D02*
X136210000Y-108940000D01*
%TO.C,BME1*%
X150140000Y-102362000D02*
X150140000Y-100457000D01*
X150140000Y-100457000D02*
X167920000Y-100457000D01*
X167920000Y-100457000D02*
X167920000Y-102997000D01*
X167920000Y-102997000D02*
X150775000Y-102997000D01*
X150775000Y-102997000D02*
X150140000Y-102362000D01*
%TO.C,U2*%
X152281000Y-94982260D02*
X151631000Y-95632260D01*
X150481000Y-95632260D02*
X151631000Y-95632260D01*
X152281000Y-94982260D02*
X152281000Y-92532260D01*
X150481000Y-92532260D02*
X152281000Y-92532260D01*
X150481000Y-95632260D02*
X150481000Y-92532260D01*
%TO.C,R3*%
X162900000Y-81990000D02*
X162900000Y-79990000D01*
X164100000Y-81990000D02*
X162900000Y-81990000D01*
X164100000Y-79990000D02*
X164100000Y-81990000D01*
X162900000Y-79990000D02*
X164100000Y-79990000D01*
%TO.C,D5*%
X134319720Y-107498280D02*
X135519720Y-107498280D01*
X134319720Y-105498280D02*
X134319720Y-107498280D01*
X135219720Y-105498280D02*
X134319720Y-105498280D01*
X135519720Y-105798280D02*
X135219720Y-105498280D01*
X135519720Y-107498280D02*
X135519720Y-105798280D01*
%TO.C,R7*%
X132735880Y-110729520D02*
X132735880Y-112729520D01*
X131535880Y-110729520D02*
X132735880Y-110729520D01*
X131535880Y-112729520D02*
X131535880Y-110729520D01*
X132735880Y-112729520D02*
X131535880Y-112729520D01*
%TO.C,R9*%
X163070000Y-115580000D02*
X161870000Y-115580000D01*
X161870000Y-115580000D02*
X161870000Y-113580000D01*
X161870000Y-113580000D02*
X163070000Y-113580000D01*
X163070000Y-113580000D02*
X163070000Y-115580000D01*
%TO.C,R8*%
X131546040Y-107504740D02*
X131546040Y-105504740D01*
X132746040Y-107504740D02*
X131546040Y-107504740D01*
X132746040Y-105504740D02*
X132746040Y-107504740D01*
X131546040Y-105504740D02*
X132746040Y-105504740D01*
%TO.C,R6*%
X153120000Y-87720000D02*
X151120000Y-87720000D01*
X153120000Y-86520000D02*
X153120000Y-87720000D01*
X151120000Y-86520000D02*
X153120000Y-86520000D01*
X151120000Y-87720000D02*
X151120000Y-86520000D01*
%TO.C,R4*%
X128555040Y-79978900D02*
X128555040Y-81978900D01*
X127355040Y-79978900D02*
X128555040Y-79978900D01*
X127355040Y-81978900D02*
X127355040Y-79978900D01*
X128555040Y-81978900D02*
X127355040Y-81978900D01*
%TO.C,R5*%
X154548400Y-93030300D02*
X155748400Y-93030300D01*
X155748400Y-93030300D02*
X155748400Y-95030300D01*
X155748400Y-95030300D02*
X154548400Y-95030300D01*
X154548400Y-95030300D02*
X154548400Y-93030300D01*
%TO.C,R2*%
X132791760Y-81971500D02*
X131591760Y-81971500D01*
X131591760Y-81971500D02*
X131591760Y-79971500D01*
X131591760Y-79971500D02*
X132791760Y-79971500D01*
X132791760Y-79971500D02*
X132791760Y-81971500D01*
%TO.C,R1*%
X140020000Y-93035000D02*
X141220000Y-93035000D01*
X141220000Y-93035000D02*
X141220000Y-95035000D01*
X141220000Y-95035000D02*
X140020000Y-95035000D01*
X140020000Y-95035000D02*
X140020000Y-93035000D01*
%TO.C,Q1*%
X145420000Y-93900000D02*
X145420000Y-92500000D01*
X142380000Y-92500000D02*
X145420000Y-92500000D01*
X142950000Y-93900000D02*
X142380000Y-93350000D01*
X142380000Y-93350000D02*
X142380000Y-92500000D01*
X142950000Y-93900000D02*
X145400000Y-93900000D01*
%TO.C,D1*%
X133725360Y-81972700D02*
X134925360Y-81972700D01*
X133725360Y-79972700D02*
X133725360Y-81972700D01*
X134625360Y-79972700D02*
X133725360Y-79972700D01*
X134925360Y-80272700D02*
X134625360Y-79972700D01*
X134925360Y-81972700D02*
X134925360Y-80272700D01*
%TO.C,C6*%
X161870000Y-121770000D02*
X163070000Y-121770000D01*
X163070000Y-121770000D02*
X163070000Y-123770000D01*
X163070000Y-123770000D02*
X161870000Y-123770000D01*
X161870000Y-123770000D02*
X161870000Y-121770000D01*
%TO.C,C5*%
X163070000Y-119660000D02*
X161870000Y-119660000D01*
X161870000Y-119660000D02*
X161870000Y-117660000D01*
X161870000Y-117660000D02*
X163070000Y-117660000D01*
X163070000Y-117660000D02*
X163070000Y-119660000D01*
%TO.C,C4*%
X148197220Y-95087940D02*
X146997220Y-95087940D01*
X146997220Y-95087940D02*
X146997220Y-93087940D01*
X146997220Y-93087940D02*
X148197220Y-93087940D01*
X148197220Y-93087940D02*
X148197220Y-95087940D01*
%TO.C,C3*%
X158006460Y-95032840D02*
X156806460Y-95032840D01*
X156806460Y-95032840D02*
X156806460Y-93032840D01*
X156806460Y-93032840D02*
X158006460Y-93032840D01*
X158006460Y-93032840D02*
X158006460Y-95032840D01*
%TO.C,C2*%
X151120000Y-89890000D02*
X151120000Y-88690000D01*
X151120000Y-88690000D02*
X153120000Y-88690000D01*
X153120000Y-88690000D02*
X153120000Y-89890000D01*
X153120000Y-89890000D02*
X151120000Y-89890000D01*
%TO.C,C1*%
X144493980Y-89202840D02*
X143293980Y-89202840D01*
X143293980Y-89202840D02*
X143293980Y-87202840D01*
X143293980Y-87202840D02*
X144493980Y-87202840D01*
X144493980Y-87202840D02*
X144493980Y-89202840D01*
%TD*%
%TO.C,H4*%
D11*
X122902625Y-126506820D02*
X122902625Y-125506820D01*
X123235959Y-126221106D01*
X123569292Y-125506820D01*
X123569292Y-126506820D01*
X124188340Y-126506820D02*
X124093101Y-126459201D01*
X124045482Y-126411582D01*
X123997863Y-126316344D01*
X123997863Y-126030630D01*
X124045482Y-125935392D01*
X124093101Y-125887773D01*
X124188340Y-125840154D01*
X124331197Y-125840154D01*
X124426435Y-125887773D01*
X124474054Y-125935392D01*
X124521673Y-126030630D01*
X124521673Y-126316344D01*
X124474054Y-126411582D01*
X124426435Y-126459201D01*
X124331197Y-126506820D01*
X124188340Y-126506820D01*
X125378816Y-125840154D02*
X125378816Y-126506820D01*
X124950244Y-125840154D02*
X124950244Y-126363963D01*
X124997863Y-126459201D01*
X125093101Y-126506820D01*
X125235959Y-126506820D01*
X125331197Y-126459201D01*
X125378816Y-126411582D01*
X125855006Y-125840154D02*
X125855006Y-126506820D01*
X125855006Y-125935392D02*
X125902625Y-125887773D01*
X125997863Y-125840154D01*
X126140720Y-125840154D01*
X126235959Y-125887773D01*
X126283578Y-125983011D01*
X126283578Y-126506820D01*
X126616911Y-125840154D02*
X126997863Y-125840154D01*
X126759768Y-125506820D02*
X126759768Y-126363963D01*
X126807387Y-126459201D01*
X126902625Y-126506820D01*
X126997863Y-126506820D01*
X127331197Y-126506820D02*
X127331197Y-125840154D01*
X127331197Y-125506820D02*
X127283578Y-125554440D01*
X127331197Y-125602059D01*
X127378816Y-125554440D01*
X127331197Y-125506820D01*
X127331197Y-125602059D01*
X127807387Y-125840154D02*
X127807387Y-126506820D01*
X127807387Y-125935392D02*
X127855006Y-125887773D01*
X127950244Y-125840154D01*
X128093101Y-125840154D01*
X128188340Y-125887773D01*
X128235959Y-125983011D01*
X128235959Y-126506820D01*
X129140720Y-125840154D02*
X129140720Y-126649678D01*
X129093101Y-126744916D01*
X129045482Y-126792535D01*
X128950244Y-126840154D01*
X128807387Y-126840154D01*
X128712149Y-126792535D01*
X129140720Y-126459201D02*
X129045482Y-126506820D01*
X128855006Y-126506820D01*
X128759768Y-126459201D01*
X128712149Y-126411582D01*
X128664530Y-126316344D01*
X128664530Y-126030630D01*
X128712149Y-125935392D01*
X128759768Y-125887773D01*
X128855006Y-125840154D01*
X129045482Y-125840154D01*
X129140720Y-125887773D01*
X129616911Y-126506820D02*
X129616911Y-125506820D01*
X129616911Y-125983011D02*
X130188340Y-125983011D01*
X130188340Y-126506820D02*
X130188340Y-125506820D01*
X130807387Y-126506820D02*
X130712149Y-126459201D01*
X130664530Y-126411582D01*
X130616911Y-126316344D01*
X130616911Y-126030630D01*
X130664530Y-125935392D01*
X130712149Y-125887773D01*
X130807387Y-125840154D01*
X130950244Y-125840154D01*
X131045482Y-125887773D01*
X131093101Y-125935392D01*
X131140720Y-126030630D01*
X131140720Y-126316344D01*
X131093101Y-126411582D01*
X131045482Y-126459201D01*
X130950244Y-126506820D01*
X130807387Y-126506820D01*
X131712149Y-126506820D02*
X131616911Y-126459201D01*
X131569292Y-126363963D01*
X131569292Y-125506820D01*
X132474054Y-126459201D02*
X132378816Y-126506820D01*
X132188340Y-126506820D01*
X132093101Y-126459201D01*
X132045482Y-126363963D01*
X132045482Y-125983011D01*
X132093101Y-125887773D01*
X132188340Y-125840154D01*
X132378816Y-125840154D01*
X132474054Y-125887773D01*
X132521673Y-125983011D01*
X132521673Y-126078249D01*
X132045482Y-126173487D01*
X127226435Y-123606820D02*
X127226435Y-122606820D01*
X127226435Y-123083011D02*
X127797863Y-123083011D01*
X127797863Y-123606820D02*
X127797863Y-122606820D01*
X128702625Y-122940154D02*
X128702625Y-123606820D01*
X128464530Y-122559201D02*
X128226435Y-123273487D01*
X128845482Y-123273487D01*
%TO.C,H3*%
X165208865Y-126499200D02*
X165208865Y-125499200D01*
X165542199Y-126213486D01*
X165875532Y-125499200D01*
X165875532Y-126499200D01*
X166494580Y-126499200D02*
X166399341Y-126451581D01*
X166351722Y-126403962D01*
X166304103Y-126308724D01*
X166304103Y-126023010D01*
X166351722Y-125927772D01*
X166399341Y-125880153D01*
X166494580Y-125832534D01*
X166637437Y-125832534D01*
X166732675Y-125880153D01*
X166780294Y-125927772D01*
X166827913Y-126023010D01*
X166827913Y-126308724D01*
X166780294Y-126403962D01*
X166732675Y-126451581D01*
X166637437Y-126499200D01*
X166494580Y-126499200D01*
X167685056Y-125832534D02*
X167685056Y-126499200D01*
X167256484Y-125832534D02*
X167256484Y-126356343D01*
X167304103Y-126451581D01*
X167399341Y-126499200D01*
X167542199Y-126499200D01*
X167637437Y-126451581D01*
X167685056Y-126403962D01*
X168161246Y-125832534D02*
X168161246Y-126499200D01*
X168161246Y-125927772D02*
X168208865Y-125880153D01*
X168304103Y-125832534D01*
X168446960Y-125832534D01*
X168542199Y-125880153D01*
X168589818Y-125975391D01*
X168589818Y-126499200D01*
X168923151Y-125832534D02*
X169304103Y-125832534D01*
X169066008Y-125499200D02*
X169066008Y-126356343D01*
X169113627Y-126451581D01*
X169208865Y-126499200D01*
X169304103Y-126499200D01*
X169637437Y-126499200D02*
X169637437Y-125832534D01*
X169637437Y-125499200D02*
X169589818Y-125546820D01*
X169637437Y-125594439D01*
X169685056Y-125546820D01*
X169637437Y-125499200D01*
X169637437Y-125594439D01*
X170113627Y-125832534D02*
X170113627Y-126499200D01*
X170113627Y-125927772D02*
X170161246Y-125880153D01*
X170256484Y-125832534D01*
X170399341Y-125832534D01*
X170494580Y-125880153D01*
X170542199Y-125975391D01*
X170542199Y-126499200D01*
X171446960Y-125832534D02*
X171446960Y-126642058D01*
X171399341Y-126737296D01*
X171351722Y-126784915D01*
X171256484Y-126832534D01*
X171113627Y-126832534D01*
X171018389Y-126784915D01*
X171446960Y-126451581D02*
X171351722Y-126499200D01*
X171161246Y-126499200D01*
X171066008Y-126451581D01*
X171018389Y-126403962D01*
X170970770Y-126308724D01*
X170970770Y-126023010D01*
X171018389Y-125927772D01*
X171066008Y-125880153D01*
X171161246Y-125832534D01*
X171351722Y-125832534D01*
X171446960Y-125880153D01*
X171923151Y-126499200D02*
X171923151Y-125499200D01*
X171923151Y-125975391D02*
X172494580Y-125975391D01*
X172494580Y-126499200D02*
X172494580Y-125499200D01*
X173113627Y-126499200D02*
X173018389Y-126451581D01*
X172970770Y-126403962D01*
X172923151Y-126308724D01*
X172923151Y-126023010D01*
X172970770Y-125927772D01*
X173018389Y-125880153D01*
X173113627Y-125832534D01*
X173256484Y-125832534D01*
X173351722Y-125880153D01*
X173399341Y-125927772D01*
X173446960Y-126023010D01*
X173446960Y-126308724D01*
X173399341Y-126403962D01*
X173351722Y-126451581D01*
X173256484Y-126499200D01*
X173113627Y-126499200D01*
X174018389Y-126499200D02*
X173923151Y-126451581D01*
X173875532Y-126356343D01*
X173875532Y-125499200D01*
X174780294Y-126451581D02*
X174685056Y-126499200D01*
X174494580Y-126499200D01*
X174399341Y-126451581D01*
X174351722Y-126356343D01*
X174351722Y-125975391D01*
X174399341Y-125880153D01*
X174494580Y-125832534D01*
X174685056Y-125832534D01*
X174780294Y-125880153D01*
X174827913Y-125975391D01*
X174827913Y-126070629D01*
X174351722Y-126165867D01*
X169532675Y-123599200D02*
X169532675Y-122599200D01*
X169532675Y-123075391D02*
X170104103Y-123075391D01*
X170104103Y-123599200D02*
X170104103Y-122599200D01*
X170485056Y-122599200D02*
X171104103Y-122599200D01*
X170770770Y-122980153D01*
X170913627Y-122980153D01*
X171008865Y-123027772D01*
X171056484Y-123075391D01*
X171104103Y-123170629D01*
X171104103Y-123408724D01*
X171056484Y-123503962D01*
X171008865Y-123551581D01*
X170913627Y-123599200D01*
X170627913Y-123599200D01*
X170532675Y-123551581D01*
X170485056Y-123503962D01*
%TO.C,H2*%
X165196165Y-78772600D02*
X165196165Y-77772600D01*
X165529499Y-78486886D01*
X165862832Y-77772600D01*
X165862832Y-78772600D01*
X166481880Y-78772600D02*
X166386641Y-78724981D01*
X166339022Y-78677362D01*
X166291403Y-78582124D01*
X166291403Y-78296410D01*
X166339022Y-78201172D01*
X166386641Y-78153553D01*
X166481880Y-78105934D01*
X166624737Y-78105934D01*
X166719975Y-78153553D01*
X166767594Y-78201172D01*
X166815213Y-78296410D01*
X166815213Y-78582124D01*
X166767594Y-78677362D01*
X166719975Y-78724981D01*
X166624737Y-78772600D01*
X166481880Y-78772600D01*
X167672356Y-78105934D02*
X167672356Y-78772600D01*
X167243784Y-78105934D02*
X167243784Y-78629743D01*
X167291403Y-78724981D01*
X167386641Y-78772600D01*
X167529499Y-78772600D01*
X167624737Y-78724981D01*
X167672356Y-78677362D01*
X168148546Y-78105934D02*
X168148546Y-78772600D01*
X168148546Y-78201172D02*
X168196165Y-78153553D01*
X168291403Y-78105934D01*
X168434260Y-78105934D01*
X168529499Y-78153553D01*
X168577118Y-78248791D01*
X168577118Y-78772600D01*
X168910451Y-78105934D02*
X169291403Y-78105934D01*
X169053308Y-77772600D02*
X169053308Y-78629743D01*
X169100927Y-78724981D01*
X169196165Y-78772600D01*
X169291403Y-78772600D01*
X169624737Y-78772600D02*
X169624737Y-78105934D01*
X169624737Y-77772600D02*
X169577118Y-77820220D01*
X169624737Y-77867839D01*
X169672356Y-77820220D01*
X169624737Y-77772600D01*
X169624737Y-77867839D01*
X170100927Y-78105934D02*
X170100927Y-78772600D01*
X170100927Y-78201172D02*
X170148546Y-78153553D01*
X170243784Y-78105934D01*
X170386641Y-78105934D01*
X170481880Y-78153553D01*
X170529499Y-78248791D01*
X170529499Y-78772600D01*
X171434260Y-78105934D02*
X171434260Y-78915458D01*
X171386641Y-79010696D01*
X171339022Y-79058315D01*
X171243784Y-79105934D01*
X171100927Y-79105934D01*
X171005689Y-79058315D01*
X171434260Y-78724981D02*
X171339022Y-78772600D01*
X171148546Y-78772600D01*
X171053308Y-78724981D01*
X171005689Y-78677362D01*
X170958070Y-78582124D01*
X170958070Y-78296410D01*
X171005689Y-78201172D01*
X171053308Y-78153553D01*
X171148546Y-78105934D01*
X171339022Y-78105934D01*
X171434260Y-78153553D01*
X171910451Y-78772600D02*
X171910451Y-77772600D01*
X171910451Y-78248791D02*
X172481880Y-78248791D01*
X172481880Y-78772600D02*
X172481880Y-77772600D01*
X173100927Y-78772600D02*
X173005689Y-78724981D01*
X172958070Y-78677362D01*
X172910451Y-78582124D01*
X172910451Y-78296410D01*
X172958070Y-78201172D01*
X173005689Y-78153553D01*
X173100927Y-78105934D01*
X173243784Y-78105934D01*
X173339022Y-78153553D01*
X173386641Y-78201172D01*
X173434260Y-78296410D01*
X173434260Y-78582124D01*
X173386641Y-78677362D01*
X173339022Y-78724981D01*
X173243784Y-78772600D01*
X173100927Y-78772600D01*
X174005689Y-78772600D02*
X173910451Y-78724981D01*
X173862832Y-78629743D01*
X173862832Y-77772600D01*
X174767594Y-78724981D02*
X174672356Y-78772600D01*
X174481880Y-78772600D01*
X174386641Y-78724981D01*
X174339022Y-78629743D01*
X174339022Y-78248791D01*
X174386641Y-78153553D01*
X174481880Y-78105934D01*
X174672356Y-78105934D01*
X174767594Y-78153553D01*
X174815213Y-78248791D01*
X174815213Y-78344029D01*
X174339022Y-78439267D01*
X169519975Y-75872600D02*
X169519975Y-74872600D01*
X169519975Y-75348791D02*
X170091403Y-75348791D01*
X170091403Y-75872600D02*
X170091403Y-74872600D01*
X170519975Y-74967839D02*
X170567594Y-74920220D01*
X170662832Y-74872600D01*
X170900927Y-74872600D01*
X170996165Y-74920220D01*
X171043784Y-74967839D01*
X171091403Y-75063077D01*
X171091403Y-75158315D01*
X171043784Y-75301172D01*
X170472356Y-75872600D01*
X171091403Y-75872600D01*
%TO.C,H1*%
X122953425Y-78729420D02*
X122953425Y-77729420D01*
X123286759Y-78443706D01*
X123620092Y-77729420D01*
X123620092Y-78729420D01*
X124239140Y-78729420D02*
X124143901Y-78681801D01*
X124096282Y-78634182D01*
X124048663Y-78538944D01*
X124048663Y-78253230D01*
X124096282Y-78157992D01*
X124143901Y-78110373D01*
X124239140Y-78062754D01*
X124381997Y-78062754D01*
X124477235Y-78110373D01*
X124524854Y-78157992D01*
X124572473Y-78253230D01*
X124572473Y-78538944D01*
X124524854Y-78634182D01*
X124477235Y-78681801D01*
X124381997Y-78729420D01*
X124239140Y-78729420D01*
X125429616Y-78062754D02*
X125429616Y-78729420D01*
X125001044Y-78062754D02*
X125001044Y-78586563D01*
X125048663Y-78681801D01*
X125143901Y-78729420D01*
X125286759Y-78729420D01*
X125381997Y-78681801D01*
X125429616Y-78634182D01*
X125905806Y-78062754D02*
X125905806Y-78729420D01*
X125905806Y-78157992D02*
X125953425Y-78110373D01*
X126048663Y-78062754D01*
X126191520Y-78062754D01*
X126286759Y-78110373D01*
X126334378Y-78205611D01*
X126334378Y-78729420D01*
X126667711Y-78062754D02*
X127048663Y-78062754D01*
X126810568Y-77729420D02*
X126810568Y-78586563D01*
X126858187Y-78681801D01*
X126953425Y-78729420D01*
X127048663Y-78729420D01*
X127381997Y-78729420D02*
X127381997Y-78062754D01*
X127381997Y-77729420D02*
X127334378Y-77777040D01*
X127381997Y-77824659D01*
X127429616Y-77777040D01*
X127381997Y-77729420D01*
X127381997Y-77824659D01*
X127858187Y-78062754D02*
X127858187Y-78729420D01*
X127858187Y-78157992D02*
X127905806Y-78110373D01*
X128001044Y-78062754D01*
X128143901Y-78062754D01*
X128239140Y-78110373D01*
X128286759Y-78205611D01*
X128286759Y-78729420D01*
X129191520Y-78062754D02*
X129191520Y-78872278D01*
X129143901Y-78967516D01*
X129096282Y-79015135D01*
X129001044Y-79062754D01*
X128858187Y-79062754D01*
X128762949Y-79015135D01*
X129191520Y-78681801D02*
X129096282Y-78729420D01*
X128905806Y-78729420D01*
X128810568Y-78681801D01*
X128762949Y-78634182D01*
X128715330Y-78538944D01*
X128715330Y-78253230D01*
X128762949Y-78157992D01*
X128810568Y-78110373D01*
X128905806Y-78062754D01*
X129096282Y-78062754D01*
X129191520Y-78110373D01*
X129667711Y-78729420D02*
X129667711Y-77729420D01*
X129667711Y-78205611D02*
X130239140Y-78205611D01*
X130239140Y-78729420D02*
X130239140Y-77729420D01*
X130858187Y-78729420D02*
X130762949Y-78681801D01*
X130715330Y-78634182D01*
X130667711Y-78538944D01*
X130667711Y-78253230D01*
X130715330Y-78157992D01*
X130762949Y-78110373D01*
X130858187Y-78062754D01*
X131001044Y-78062754D01*
X131096282Y-78110373D01*
X131143901Y-78157992D01*
X131191520Y-78253230D01*
X131191520Y-78538944D01*
X131143901Y-78634182D01*
X131096282Y-78681801D01*
X131001044Y-78729420D01*
X130858187Y-78729420D01*
X131762949Y-78729420D02*
X131667711Y-78681801D01*
X131620092Y-78586563D01*
X131620092Y-77729420D01*
X132524854Y-78681801D02*
X132429616Y-78729420D01*
X132239140Y-78729420D01*
X132143901Y-78681801D01*
X132096282Y-78586563D01*
X132096282Y-78205611D01*
X132143901Y-78110373D01*
X132239140Y-78062754D01*
X132429616Y-78062754D01*
X132524854Y-78110373D01*
X132572473Y-78205611D01*
X132572473Y-78300849D01*
X132096282Y-78396087D01*
X127277235Y-75829420D02*
X127277235Y-74829420D01*
X127277235Y-75305611D02*
X127848663Y-75305611D01*
X127848663Y-75829420D02*
X127848663Y-74829420D01*
X128848663Y-75829420D02*
X128277235Y-75829420D01*
X128562949Y-75829420D02*
X128562949Y-74829420D01*
X128467711Y-74972278D01*
X128372473Y-75067516D01*
X128277235Y-75115135D01*
%TO.C,MOISTURE1*%
X154222260Y-82381931D02*
X153222260Y-82381931D01*
X153936546Y-82048598D01*
X153222260Y-81715264D01*
X154222260Y-81715264D01*
X153222260Y-81048598D02*
X153222260Y-80858121D01*
X153269880Y-80762883D01*
X153365118Y-80667645D01*
X153555594Y-80620026D01*
X153888927Y-80620026D01*
X154079403Y-80667645D01*
X154174641Y-80762883D01*
X154222260Y-80858121D01*
X154222260Y-81048598D01*
X154174641Y-81143836D01*
X154079403Y-81239074D01*
X153888927Y-81286693D01*
X153555594Y-81286693D01*
X153365118Y-81239074D01*
X153269880Y-81143836D01*
X153222260Y-81048598D01*
X154222260Y-80191455D02*
X153222260Y-80191455D01*
X154174641Y-79762883D02*
X154222260Y-79620026D01*
X154222260Y-79381931D01*
X154174641Y-79286693D01*
X154127022Y-79239074D01*
X154031784Y-79191455D01*
X153936546Y-79191455D01*
X153841308Y-79239074D01*
X153793689Y-79286693D01*
X153746070Y-79381931D01*
X153698451Y-79572407D01*
X153650832Y-79667645D01*
X153603213Y-79715264D01*
X153507975Y-79762883D01*
X153412737Y-79762883D01*
X153317499Y-79715264D01*
X153269880Y-79667645D01*
X153222260Y-79572407D01*
X153222260Y-79334312D01*
X153269880Y-79191455D01*
X153222260Y-78905740D02*
X153222260Y-78334312D01*
X154222260Y-78620026D02*
X153222260Y-78620026D01*
X153222260Y-78000979D02*
X154031784Y-78000979D01*
X154127022Y-77953360D01*
X154174641Y-77905740D01*
X154222260Y-77810502D01*
X154222260Y-77620026D01*
X154174641Y-77524788D01*
X154127022Y-77477169D01*
X154031784Y-77429550D01*
X153222260Y-77429550D01*
X154222260Y-76381931D02*
X153746070Y-76715264D01*
X154222260Y-76953360D02*
X153222260Y-76953360D01*
X153222260Y-76572407D01*
X153269880Y-76477169D01*
X153317499Y-76429550D01*
X153412737Y-76381931D01*
X153555594Y-76381931D01*
X153650832Y-76429550D01*
X153698451Y-76477169D01*
X153746070Y-76572407D01*
X153746070Y-76953360D01*
X153698451Y-75953360D02*
X153698451Y-75620026D01*
X154222260Y-75477169D02*
X154222260Y-75953360D01*
X153222260Y-75953360D01*
X153222260Y-75477169D01*
X144995118Y-79405740D02*
X144995118Y-78405740D01*
X145328451Y-79120026D01*
X145661784Y-78405740D01*
X145661784Y-79405740D01*
X146328451Y-78405740D02*
X146518927Y-78405740D01*
X146614165Y-78453360D01*
X146709403Y-78548598D01*
X146757022Y-78739074D01*
X146757022Y-79072407D01*
X146709403Y-79262883D01*
X146614165Y-79358121D01*
X146518927Y-79405740D01*
X146328451Y-79405740D01*
X146233213Y-79358121D01*
X146137975Y-79262883D01*
X146090356Y-79072407D01*
X146090356Y-78739074D01*
X146137975Y-78548598D01*
X146233213Y-78453360D01*
X146328451Y-78405740D01*
X147185594Y-79405740D02*
X147185594Y-78405740D01*
X147614165Y-79358121D02*
X147757022Y-79405740D01*
X147995118Y-79405740D01*
X148090356Y-79358121D01*
X148137975Y-79310502D01*
X148185594Y-79215264D01*
X148185594Y-79120026D01*
X148137975Y-79024788D01*
X148090356Y-78977169D01*
X147995118Y-78929550D01*
X147804641Y-78881931D01*
X147709403Y-78834312D01*
X147661784Y-78786693D01*
X147614165Y-78691455D01*
X147614165Y-78596217D01*
X147661784Y-78500979D01*
X147709403Y-78453360D01*
X147804641Y-78405740D01*
X148042737Y-78405740D01*
X148185594Y-78453360D01*
X148471308Y-78405740D02*
X149042737Y-78405740D01*
X148757022Y-79405740D02*
X148757022Y-78405740D01*
X149376070Y-78405740D02*
X149376070Y-79215264D01*
X149423689Y-79310502D01*
X149471308Y-79358121D01*
X149566546Y-79405740D01*
X149757022Y-79405740D01*
X149852260Y-79358121D01*
X149899880Y-79310502D01*
X149947499Y-79215264D01*
X149947499Y-78405740D01*
X150995118Y-79405740D02*
X150661784Y-78929550D01*
X150423689Y-79405740D02*
X150423689Y-78405740D01*
X150804641Y-78405740D01*
X150899880Y-78453360D01*
X150947499Y-78500979D01*
X150995118Y-78596217D01*
X150995118Y-78739074D01*
X150947499Y-78834312D01*
X150899880Y-78881931D01*
X150804641Y-78929550D01*
X150423689Y-78929550D01*
X151423689Y-78881931D02*
X151757022Y-78881931D01*
X151899880Y-79405740D02*
X151423689Y-79405740D01*
X151423689Y-78405740D01*
X151899880Y-78405740D01*
X152852260Y-79405740D02*
X152280832Y-79405740D01*
X152566546Y-79405740D02*
X152566546Y-78405740D01*
X152471308Y-78548598D01*
X152376070Y-78643836D01*
X152280832Y-78691455D01*
%TO.C,D3*%
X138695441Y-95885180D02*
X138124013Y-95885180D01*
X138409727Y-95885180D02*
X138409727Y-94885180D01*
X138314489Y-95028038D01*
X138219251Y-95123276D01*
X138124013Y-95170895D01*
X139076394Y-95599466D02*
X139552584Y-95599466D01*
X138981156Y-95885180D02*
X139314489Y-94885180D01*
X139647822Y-95885180D01*
X140695441Y-94837561D02*
X139838299Y-96123276D01*
X140981156Y-94980419D02*
X141028775Y-94932800D01*
X141124013Y-94885180D01*
X141362108Y-94885180D01*
X141457346Y-94932800D01*
X141504965Y-94980419D01*
X141552584Y-95075657D01*
X141552584Y-95170895D01*
X141504965Y-95313752D01*
X140933537Y-95885180D01*
X141552584Y-95885180D01*
X141885918Y-94885180D02*
X142504965Y-94885180D01*
X142171632Y-95266133D01*
X142314489Y-95266133D01*
X142409727Y-95313752D01*
X142457346Y-95361371D01*
X142504965Y-95456609D01*
X142504965Y-95694704D01*
X142457346Y-95789942D01*
X142409727Y-95837561D01*
X142314489Y-95885180D01*
X142028775Y-95885180D01*
X141933537Y-95837561D01*
X141885918Y-95789942D01*
X142790680Y-94885180D02*
X143124013Y-95885180D01*
X143457346Y-94885180D01*
X144504965Y-94837561D02*
X143647822Y-96123276D01*
X145266870Y-94885180D02*
X145076394Y-94885180D01*
X144981156Y-94932800D01*
X144933537Y-94980419D01*
X144838299Y-95123276D01*
X144790680Y-95313752D01*
X144790680Y-95694704D01*
X144838299Y-95789942D01*
X144885918Y-95837561D01*
X144981156Y-95885180D01*
X145171632Y-95885180D01*
X145266870Y-95837561D01*
X145314489Y-95789942D01*
X145362108Y-95694704D01*
X145362108Y-95456609D01*
X145314489Y-95361371D01*
X145266870Y-95313752D01*
X145171632Y-95266133D01*
X144981156Y-95266133D01*
X144885918Y-95313752D01*
X144838299Y-95361371D01*
X144790680Y-95456609D01*
X145743060Y-94980419D02*
X145790680Y-94932800D01*
X145885918Y-94885180D01*
X146124013Y-94885180D01*
X146219251Y-94932800D01*
X146266870Y-94980419D01*
X146314489Y-95075657D01*
X146314489Y-95170895D01*
X146266870Y-95313752D01*
X145695441Y-95885180D01*
X146314489Y-95885180D01*
X146933537Y-94885180D02*
X147028775Y-94885180D01*
X147124013Y-94932800D01*
X147171632Y-94980419D01*
X147219251Y-95075657D01*
X147266870Y-95266133D01*
X147266870Y-95504228D01*
X147219251Y-95694704D01*
X147171632Y-95789942D01*
X147124013Y-95837561D01*
X147028775Y-95885180D01*
X146933537Y-95885180D01*
X146838299Y-95837561D01*
X146790680Y-95789942D01*
X146743060Y-95694704D01*
X146695441Y-95504228D01*
X146695441Y-95266133D01*
X146743060Y-95075657D01*
X146790680Y-94980419D01*
X146838299Y-94932800D01*
X146933537Y-94885180D01*
X147695441Y-95885180D02*
X147695441Y-95218514D01*
X147695441Y-95313752D02*
X147743060Y-95266133D01*
X147838299Y-95218514D01*
X147981156Y-95218514D01*
X148076394Y-95266133D01*
X148124013Y-95361371D01*
X148124013Y-95885180D01*
X148124013Y-95361371D02*
X148171632Y-95266133D01*
X148266870Y-95218514D01*
X148409727Y-95218514D01*
X148504965Y-95266133D01*
X148552584Y-95361371D01*
X148552584Y-95885180D01*
X148885918Y-94885180D02*
X149219251Y-95885180D01*
X149552584Y-94885180D01*
X143152584Y-99635180D02*
X143152584Y-98635180D01*
X143390680Y-98635180D01*
X143533537Y-98682800D01*
X143628775Y-98778038D01*
X143676394Y-98873276D01*
X143724013Y-99063752D01*
X143724013Y-99206609D01*
X143676394Y-99397085D01*
X143628775Y-99492323D01*
X143533537Y-99587561D01*
X143390680Y-99635180D01*
X143152584Y-99635180D01*
X144057346Y-98635180D02*
X144676394Y-98635180D01*
X144343060Y-99016133D01*
X144485918Y-99016133D01*
X144581156Y-99063752D01*
X144628775Y-99111371D01*
X144676394Y-99206609D01*
X144676394Y-99444704D01*
X144628775Y-99539942D01*
X144581156Y-99587561D01*
X144485918Y-99635180D01*
X144200203Y-99635180D01*
X144104965Y-99587561D01*
X144057346Y-99539942D01*
%TO.C,D2*%
X164512380Y-81561428D02*
X164036190Y-81894761D01*
X164512380Y-82132857D02*
X163512380Y-82132857D01*
X163512380Y-81751904D01*
X163560000Y-81656666D01*
X163607619Y-81609047D01*
X163702857Y-81561428D01*
X163845714Y-81561428D01*
X163940952Y-81609047D01*
X163988571Y-81656666D01*
X164036190Y-81751904D01*
X164036190Y-82132857D01*
X164464761Y-80751904D02*
X164512380Y-80847142D01*
X164512380Y-81037619D01*
X164464761Y-81132857D01*
X164369523Y-81180476D01*
X163988571Y-81180476D01*
X163893333Y-81132857D01*
X163845714Y-81037619D01*
X163845714Y-80847142D01*
X163893333Y-80751904D01*
X163988571Y-80704285D01*
X164083809Y-80704285D01*
X164179047Y-81180476D01*
X164512380Y-79847142D02*
X163512380Y-79847142D01*
X164464761Y-79847142D02*
X164512380Y-79942380D01*
X164512380Y-80132857D01*
X164464761Y-80228095D01*
X164417142Y-80275714D01*
X164321904Y-80323333D01*
X164036190Y-80323333D01*
X163940952Y-80275714D01*
X163893333Y-80228095D01*
X163845714Y-80132857D01*
X163845714Y-79942380D01*
X163893333Y-79847142D01*
D12*
X165936190Y-81359047D02*
X165436190Y-81359047D01*
X165436190Y-81240000D01*
X165460000Y-81168571D01*
X165507619Y-81120952D01*
X165555238Y-81097142D01*
X165650476Y-81073333D01*
X165721904Y-81073333D01*
X165817142Y-81097142D01*
X165864761Y-81120952D01*
X165912380Y-81168571D01*
X165936190Y-81240000D01*
X165936190Y-81359047D01*
X165483809Y-80882857D02*
X165460000Y-80859047D01*
X165436190Y-80811428D01*
X165436190Y-80692380D01*
X165460000Y-80644761D01*
X165483809Y-80620952D01*
X165531428Y-80597142D01*
X165579047Y-80597142D01*
X165650476Y-80620952D01*
X165936190Y-80906666D01*
X165936190Y-80597142D01*
%TO.C,JP2*%
D11*
X159610973Y-97191541D02*
X159753830Y-97239160D01*
X159991925Y-97239160D01*
X160087163Y-97191541D01*
X160134782Y-97143922D01*
X160182401Y-97048684D01*
X160182401Y-96953446D01*
X160134782Y-96858208D01*
X160087163Y-96810589D01*
X159991925Y-96762970D01*
X159801449Y-96715351D01*
X159706211Y-96667732D01*
X159658592Y-96620113D01*
X159610973Y-96524875D01*
X159610973Y-96429637D01*
X159658592Y-96334399D01*
X159706211Y-96286780D01*
X159801449Y-96239160D01*
X160039544Y-96239160D01*
X160182401Y-96286780D01*
X160896687Y-96239160D02*
X160896687Y-96953446D01*
X160849068Y-97096303D01*
X160753830Y-97191541D01*
X160610973Y-97239160D01*
X160515735Y-97239160D01*
%TO.C,D4*%
X127880220Y-82336042D02*
X127832600Y-82431280D01*
X127832600Y-82574138D01*
X127880220Y-82716995D01*
X127975458Y-82812233D01*
X128070696Y-82859852D01*
X128261172Y-82907471D01*
X128404029Y-82907471D01*
X128594505Y-82859852D01*
X128689743Y-82812233D01*
X128784981Y-82716995D01*
X128832600Y-82574138D01*
X128832600Y-82478900D01*
X128784981Y-82336042D01*
X128737362Y-82288423D01*
X128404029Y-82288423D01*
X128404029Y-82478900D01*
X128832600Y-81859852D02*
X128165934Y-81859852D01*
X128356410Y-81859852D02*
X128261172Y-81812233D01*
X128213553Y-81764614D01*
X128165934Y-81669376D01*
X128165934Y-81574138D01*
X128784981Y-80859852D02*
X128832600Y-80955090D01*
X128832600Y-81145566D01*
X128784981Y-81240804D01*
X128689743Y-81288423D01*
X128308791Y-81288423D01*
X128213553Y-81240804D01*
X128165934Y-81145566D01*
X128165934Y-80955090D01*
X128213553Y-80859852D01*
X128308791Y-80812233D01*
X128404029Y-80812233D01*
X128499267Y-81288423D01*
X128784981Y-80002709D02*
X128832600Y-80097947D01*
X128832600Y-80288423D01*
X128784981Y-80383661D01*
X128689743Y-80431280D01*
X128308791Y-80431280D01*
X128213553Y-80383661D01*
X128165934Y-80288423D01*
X128165934Y-80097947D01*
X128213553Y-80002709D01*
X128308791Y-79955090D01*
X128404029Y-79955090D01*
X128499267Y-80431280D01*
X128165934Y-79526519D02*
X128832600Y-79526519D01*
X128261172Y-79526519D02*
X128213553Y-79478900D01*
X128165934Y-79383661D01*
X128165934Y-79240804D01*
X128213553Y-79145566D01*
X128308791Y-79097947D01*
X128832600Y-79097947D01*
D12*
X130256410Y-81347947D02*
X129756410Y-81347947D01*
X129756410Y-81228900D01*
X129780220Y-81157471D01*
X129827839Y-81109852D01*
X129875458Y-81086042D01*
X129970696Y-81062233D01*
X130042124Y-81062233D01*
X130137362Y-81086042D01*
X130184981Y-81109852D01*
X130232600Y-81157471D01*
X130256410Y-81228900D01*
X130256410Y-81347947D01*
X129923077Y-80633661D02*
X130256410Y-80633661D01*
X129732600Y-80752709D02*
X130089743Y-80871757D01*
X130089743Y-80562233D01*
%TO.C,U1*%
D11*
X143839514Y-91550320D02*
X143839514Y-90550320D01*
X144172847Y-91264606D01*
X144506180Y-90550320D01*
X144506180Y-91550320D01*
X145553800Y-91455082D02*
X145506180Y-91502701D01*
X145363323Y-91550320D01*
X145268085Y-91550320D01*
X145125228Y-91502701D01*
X145029990Y-91407463D01*
X144982371Y-91312225D01*
X144934752Y-91121749D01*
X144934752Y-90978892D01*
X144982371Y-90788416D01*
X145029990Y-90693178D01*
X145125228Y-90597940D01*
X145268085Y-90550320D01*
X145363323Y-90550320D01*
X145506180Y-90597940D01*
X145553800Y-90645559D01*
X145982371Y-91550320D02*
X145982371Y-90550320D01*
X146363323Y-90550320D01*
X146458561Y-90597940D01*
X146506180Y-90645559D01*
X146553800Y-90740797D01*
X146553800Y-90883654D01*
X146506180Y-90978892D01*
X146458561Y-91026511D01*
X146363323Y-91074130D01*
X145982371Y-91074130D01*
X146887133Y-90550320D02*
X147553800Y-90550320D01*
X147125228Y-91550320D01*
X147839514Y-90550320D02*
X148458561Y-90550320D01*
X148125228Y-90931273D01*
X148268085Y-90931273D01*
X148363323Y-90978892D01*
X148410942Y-91026511D01*
X148458561Y-91121749D01*
X148458561Y-91359844D01*
X148410942Y-91455082D01*
X148363323Y-91502701D01*
X148268085Y-91550320D01*
X147982371Y-91550320D01*
X147887133Y-91502701D01*
X147839514Y-91455082D01*
X149029990Y-90978892D02*
X148934752Y-90931273D01*
X148887133Y-90883654D01*
X148839514Y-90788416D01*
X148839514Y-90740797D01*
X148887133Y-90645559D01*
X148934752Y-90597940D01*
X149029990Y-90550320D01*
X149220466Y-90550320D01*
X149315704Y-90597940D01*
X149363323Y-90645559D01*
X149410942Y-90740797D01*
X149410942Y-90788416D01*
X149363323Y-90883654D01*
X149315704Y-90931273D01*
X149220466Y-90978892D01*
X149029990Y-90978892D01*
X148934752Y-91026511D01*
X148887133Y-91074130D01*
X148839514Y-91169368D01*
X148839514Y-91359844D01*
X148887133Y-91455082D01*
X148934752Y-91502701D01*
X149029990Y-91550320D01*
X149220466Y-91550320D01*
X149315704Y-91502701D01*
X149363323Y-91455082D01*
X149410942Y-91359844D01*
X149410942Y-91169368D01*
X149363323Y-91074130D01*
X149315704Y-91026511D01*
X149220466Y-90978892D01*
X149744276Y-90550320D02*
X150363323Y-90550320D01*
X150029990Y-90931273D01*
X150172847Y-90931273D01*
X150268085Y-90978892D01*
X150315704Y-91026511D01*
X150363323Y-91121749D01*
X150363323Y-91359844D01*
X150315704Y-91455082D01*
X150268085Y-91502701D01*
X150172847Y-91550320D01*
X149887133Y-91550320D01*
X149791895Y-91502701D01*
X149744276Y-91455082D01*
X151315704Y-91550320D02*
X150744276Y-91550320D01*
X151029990Y-91550320D02*
X151029990Y-90550320D01*
X150934752Y-90693178D01*
X150839514Y-90788416D01*
X150744276Y-90836035D01*
D13*
X147279990Y-88578892D02*
X147684752Y-88578892D01*
X147732371Y-88555082D01*
X147756180Y-88531273D01*
X147779990Y-88483654D01*
X147779990Y-88388416D01*
X147756180Y-88340797D01*
X147732371Y-88316987D01*
X147684752Y-88293178D01*
X147279990Y-88293178D01*
X147779990Y-87793178D02*
X147779990Y-88078892D01*
X147779990Y-87936035D02*
X147279990Y-87936035D01*
X147351419Y-87983654D01*
X147399038Y-88031273D01*
X147422847Y-88078892D01*
%TO.C,U3*%
D11*
X141806190Y-104028571D02*
X142139523Y-104028571D01*
X142282380Y-104552380D02*
X141806190Y-104552380D01*
X141806190Y-103552380D01*
X142282380Y-103552380D01*
X142663333Y-104504761D02*
X142806190Y-104552380D01*
X143044285Y-104552380D01*
X143139523Y-104504761D01*
X143187142Y-104457142D01*
X143234761Y-104361904D01*
X143234761Y-104266666D01*
X143187142Y-104171428D01*
X143139523Y-104123809D01*
X143044285Y-104076190D01*
X142853809Y-104028571D01*
X142758571Y-103980952D01*
X142710952Y-103933333D01*
X142663333Y-103838095D01*
X142663333Y-103742857D01*
X142710952Y-103647619D01*
X142758571Y-103600000D01*
X142853809Y-103552380D01*
X143091904Y-103552380D01*
X143234761Y-103600000D01*
X143663333Y-104552380D02*
X143663333Y-103552380D01*
X144044285Y-103552380D01*
X144139523Y-103600000D01*
X144187142Y-103647619D01*
X144234761Y-103742857D01*
X144234761Y-103885714D01*
X144187142Y-103980952D01*
X144139523Y-104028571D01*
X144044285Y-104076190D01*
X143663333Y-104076190D01*
X144568095Y-103552380D02*
X145187142Y-103552380D01*
X144853809Y-103933333D01*
X144996666Y-103933333D01*
X145091904Y-103980952D01*
X145139523Y-104028571D01*
X145187142Y-104123809D01*
X145187142Y-104361904D01*
X145139523Y-104457142D01*
X145091904Y-104504761D01*
X144996666Y-104552380D01*
X144710952Y-104552380D01*
X144615714Y-104504761D01*
X144568095Y-104457142D01*
X145568095Y-103647619D02*
X145615714Y-103600000D01*
X145710952Y-103552380D01*
X145949047Y-103552380D01*
X146044285Y-103600000D01*
X146091904Y-103647619D01*
X146139523Y-103742857D01*
X146139523Y-103838095D01*
X146091904Y-103980952D01*
X145520476Y-104552380D01*
X146139523Y-104552380D01*
X146568095Y-104171428D02*
X147330000Y-104171428D01*
X147710952Y-103552380D02*
X147949047Y-104552380D01*
X148139523Y-103838095D01*
X148330000Y-104552380D01*
X148568095Y-103552380D01*
X149520476Y-104552380D02*
X149187142Y-104076190D01*
X148949047Y-104552380D02*
X148949047Y-103552380D01*
X149330000Y-103552380D01*
X149425238Y-103600000D01*
X149472857Y-103647619D01*
X149520476Y-103742857D01*
X149520476Y-103885714D01*
X149472857Y-103980952D01*
X149425238Y-104028571D01*
X149330000Y-104076190D01*
X148949047Y-104076190D01*
X150139523Y-103552380D02*
X150330000Y-103552380D01*
X150425238Y-103600000D01*
X150520476Y-103695238D01*
X150568095Y-103885714D01*
X150568095Y-104219047D01*
X150520476Y-104409523D01*
X150425238Y-104504761D01*
X150330000Y-104552380D01*
X150139523Y-104552380D01*
X150044285Y-104504761D01*
X149949047Y-104409523D01*
X149901428Y-104219047D01*
X149901428Y-103885714D01*
X149949047Y-103695238D01*
X150044285Y-103600000D01*
X150139523Y-103552380D01*
X151187142Y-103552380D02*
X151377619Y-103552380D01*
X151472857Y-103600000D01*
X151568095Y-103695238D01*
X151615714Y-103885714D01*
X151615714Y-104219047D01*
X151568095Y-104409523D01*
X151472857Y-104504761D01*
X151377619Y-104552380D01*
X151187142Y-104552380D01*
X151091904Y-104504761D01*
X150996666Y-104409523D01*
X150949047Y-104219047D01*
X150949047Y-103885714D01*
X150996666Y-103695238D01*
X151091904Y-103600000D01*
X151187142Y-103552380D01*
X152044285Y-104552380D02*
X152044285Y-103552380D01*
X152377619Y-104266666D01*
X152710952Y-103552380D01*
X152710952Y-104552380D01*
X153187142Y-104171428D02*
X153949047Y-104171428D01*
X154329999Y-103552380D02*
X154949047Y-103552380D01*
X154615714Y-103933333D01*
X154758571Y-103933333D01*
X154853809Y-103980952D01*
X154901428Y-104028571D01*
X154949047Y-104123809D01*
X154949047Y-104361904D01*
X154901428Y-104457142D01*
X154853809Y-104504761D01*
X154758571Y-104552380D01*
X154472857Y-104552380D01*
X154377619Y-104504761D01*
X154329999Y-104457142D01*
X155329999Y-103647619D02*
X155377619Y-103600000D01*
X155472857Y-103552380D01*
X155710952Y-103552380D01*
X155806190Y-103600000D01*
X155853809Y-103647619D01*
X155901428Y-103742857D01*
X155901428Y-103838095D01*
X155853809Y-103980952D01*
X155282380Y-104552380D01*
X155901428Y-104552380D01*
X148068095Y-115052380D02*
X148068095Y-115861904D01*
X148115714Y-115957142D01*
X148163333Y-116004761D01*
X148258571Y-116052380D01*
X148449047Y-116052380D01*
X148544285Y-116004761D01*
X148591904Y-115957142D01*
X148639523Y-115861904D01*
X148639523Y-115052380D01*
X149020476Y-115052380D02*
X149639523Y-115052380D01*
X149306190Y-115433333D01*
X149449047Y-115433333D01*
X149544285Y-115480952D01*
X149591904Y-115528571D01*
X149639523Y-115623809D01*
X149639523Y-115861904D01*
X149591904Y-115957142D01*
X149544285Y-116004761D01*
X149449047Y-116052380D01*
X149163333Y-116052380D01*
X149068095Y-116004761D01*
X149020476Y-115957142D01*
%TO.C,USB1*%
X122582380Y-97193809D02*
X123391904Y-97193809D01*
X123487142Y-97146190D01*
X123534761Y-97098571D01*
X123582380Y-97003333D01*
X123582380Y-96812857D01*
X123534761Y-96717619D01*
X123487142Y-96670000D01*
X123391904Y-96622380D01*
X122582380Y-96622380D01*
X123534761Y-96193809D02*
X123582380Y-96050952D01*
X123582380Y-95812857D01*
X123534761Y-95717619D01*
X123487142Y-95670000D01*
X123391904Y-95622380D01*
X123296666Y-95622380D01*
X123201428Y-95670000D01*
X123153809Y-95717619D01*
X123106190Y-95812857D01*
X123058571Y-96003333D01*
X123010952Y-96098571D01*
X122963333Y-96146190D01*
X122868095Y-96193809D01*
X122772857Y-96193809D01*
X122677619Y-96146190D01*
X122630000Y-96098571D01*
X122582380Y-96003333D01*
X122582380Y-95765238D01*
X122630000Y-95622380D01*
X123058571Y-94860476D02*
X123106190Y-94717619D01*
X123153809Y-94670000D01*
X123249047Y-94622380D01*
X123391904Y-94622380D01*
X123487142Y-94670000D01*
X123534761Y-94717619D01*
X123582380Y-94812857D01*
X123582380Y-95193809D01*
X122582380Y-95193809D01*
X122582380Y-94860476D01*
X122630000Y-94765238D01*
X122677619Y-94717619D01*
X122772857Y-94670000D01*
X122868095Y-94670000D01*
X122963333Y-94717619D01*
X123010952Y-94765238D01*
X123058571Y-94860476D01*
X123058571Y-95193809D01*
X123677619Y-94431904D02*
X123677619Y-93670000D01*
X123058571Y-93098571D02*
X123106190Y-92955714D01*
X123153809Y-92908095D01*
X123249047Y-92860476D01*
X123391904Y-92860476D01*
X123487142Y-92908095D01*
X123534761Y-92955714D01*
X123582380Y-93050952D01*
X123582380Y-93431904D01*
X122582380Y-93431904D01*
X122582380Y-93098571D01*
X122630000Y-93003333D01*
X122677619Y-92955714D01*
X122772857Y-92908095D01*
X122868095Y-92908095D01*
X122963333Y-92955714D01*
X123010952Y-93003333D01*
X123058571Y-93098571D01*
X123058571Y-93431904D01*
X123677619Y-92670000D02*
X123677619Y-91908095D01*
X123582380Y-91670000D02*
X122582380Y-91670000D01*
X123296666Y-91336666D01*
X122582380Y-91003333D01*
X123582380Y-91003333D01*
X123582380Y-90527142D02*
X122915714Y-90527142D01*
X122582380Y-90527142D02*
X122630000Y-90574761D01*
X122677619Y-90527142D01*
X122630000Y-90479523D01*
X122582380Y-90527142D01*
X122677619Y-90527142D01*
X123534761Y-89622380D02*
X123582380Y-89717619D01*
X123582380Y-89908095D01*
X123534761Y-90003333D01*
X123487142Y-90050952D01*
X123391904Y-90098571D01*
X123106190Y-90098571D01*
X123010952Y-90050952D01*
X122963333Y-90003333D01*
X122915714Y-89908095D01*
X122915714Y-89717619D01*
X122963333Y-89622380D01*
X123582380Y-89193809D02*
X122915714Y-89193809D01*
X123106190Y-89193809D02*
X123010952Y-89146190D01*
X122963333Y-89098571D01*
X122915714Y-89003333D01*
X122915714Y-88908095D01*
X123582380Y-88431904D02*
X123534761Y-88527142D01*
X123487142Y-88574761D01*
X123391904Y-88622380D01*
X123106190Y-88622380D01*
X123010952Y-88574761D01*
X122963333Y-88527142D01*
X122915714Y-88431904D01*
X122915714Y-88289047D01*
X122963333Y-88193809D01*
X123010952Y-88146190D01*
X123106190Y-88098571D01*
X123391904Y-88098571D01*
X123487142Y-88146190D01*
X123534761Y-88193809D01*
X123582380Y-88289047D01*
X123582380Y-88431904D01*
X127132380Y-94408095D02*
X127941904Y-94408095D01*
X128037142Y-94360476D01*
X128084761Y-94312857D01*
X128132380Y-94217619D01*
X128132380Y-94027142D01*
X128084761Y-93931904D01*
X128037142Y-93884285D01*
X127941904Y-93836666D01*
X127132380Y-93836666D01*
X128084761Y-93408095D02*
X128132380Y-93265238D01*
X128132380Y-93027142D01*
X128084761Y-92931904D01*
X128037142Y-92884285D01*
X127941904Y-92836666D01*
X127846666Y-92836666D01*
X127751428Y-92884285D01*
X127703809Y-92931904D01*
X127656190Y-93027142D01*
X127608571Y-93217619D01*
X127560952Y-93312857D01*
X127513333Y-93360476D01*
X127418095Y-93408095D01*
X127322857Y-93408095D01*
X127227619Y-93360476D01*
X127180000Y-93312857D01*
X127132380Y-93217619D01*
X127132380Y-92979523D01*
X127180000Y-92836666D01*
X127608571Y-92074761D02*
X127656190Y-91931904D01*
X127703809Y-91884285D01*
X127799047Y-91836666D01*
X127941904Y-91836666D01*
X128037142Y-91884285D01*
X128084761Y-91931904D01*
X128132380Y-92027142D01*
X128132380Y-92408095D01*
X127132380Y-92408095D01*
X127132380Y-92074761D01*
X127180000Y-91979523D01*
X127227619Y-91931904D01*
X127322857Y-91884285D01*
X127418095Y-91884285D01*
X127513333Y-91931904D01*
X127560952Y-91979523D01*
X127608571Y-92074761D01*
X127608571Y-92408095D01*
X128132380Y-90884285D02*
X128132380Y-91455714D01*
X128132380Y-91170000D02*
X127132380Y-91170000D01*
X127275238Y-91265238D01*
X127370476Y-91360476D01*
X127418095Y-91455714D01*
%TO.C,EN1*%
X160404761Y-111974285D02*
X160452380Y-111831428D01*
X160452380Y-111593333D01*
X160404761Y-111498095D01*
X160357142Y-111450476D01*
X160261904Y-111402857D01*
X160166666Y-111402857D01*
X160071428Y-111450476D01*
X160023809Y-111498095D01*
X159976190Y-111593333D01*
X159928571Y-111783809D01*
X159880952Y-111879047D01*
X159833333Y-111926666D01*
X159738095Y-111974285D01*
X159642857Y-111974285D01*
X159547619Y-111926666D01*
X159500000Y-111879047D01*
X159452380Y-111783809D01*
X159452380Y-111545714D01*
X159500000Y-111402857D01*
X159785714Y-111069523D02*
X160452380Y-110879047D01*
X159976190Y-110688571D01*
X160452380Y-110498095D01*
X159785714Y-110307619D01*
X160452380Y-109926666D02*
X159785714Y-109926666D01*
X159452380Y-109926666D02*
X159500000Y-109974285D01*
X159547619Y-109926666D01*
X159500000Y-109879047D01*
X159452380Y-109926666D01*
X159547619Y-109926666D01*
X159785714Y-109593333D02*
X159785714Y-109212380D01*
X159452380Y-109450476D02*
X160309523Y-109450476D01*
X160404761Y-109402857D01*
X160452380Y-109307619D01*
X160452380Y-109212380D01*
X160404761Y-108450476D02*
X160452380Y-108545714D01*
X160452380Y-108736190D01*
X160404761Y-108831428D01*
X160357142Y-108879047D01*
X160261904Y-108926666D01*
X159976190Y-108926666D01*
X159880952Y-108879047D01*
X159833333Y-108831428D01*
X159785714Y-108736190D01*
X159785714Y-108545714D01*
X159833333Y-108450476D01*
X160452380Y-108021904D02*
X159452380Y-108021904D01*
X160452380Y-107593333D02*
X159928571Y-107593333D01*
X159833333Y-107640952D01*
X159785714Y-107736190D01*
X159785714Y-107879047D01*
X159833333Y-107974285D01*
X159880952Y-108021904D01*
X164928571Y-110974285D02*
X164928571Y-110640952D01*
X165452380Y-110498095D02*
X165452380Y-110974285D01*
X164452380Y-110974285D01*
X164452380Y-110498095D01*
X165452380Y-110069523D02*
X164452380Y-110069523D01*
X165452380Y-109498095D01*
X164452380Y-109498095D01*
X165452380Y-108498095D02*
X165452380Y-109069523D01*
X165452380Y-108783809D02*
X164452380Y-108783809D01*
X164595238Y-108879047D01*
X164690476Y-108974285D01*
X164738095Y-109069523D01*
%TO.C,LIS1*%
X147592380Y-103624761D02*
X147592380Y-104100952D01*
X146592380Y-104100952D01*
X147592380Y-103291428D02*
X146592380Y-103291428D01*
X147544761Y-102862857D02*
X147592380Y-102720000D01*
X147592380Y-102481904D01*
X147544761Y-102386666D01*
X147497142Y-102339047D01*
X147401904Y-102291428D01*
X147306666Y-102291428D01*
X147211428Y-102339047D01*
X147163809Y-102386666D01*
X147116190Y-102481904D01*
X147068571Y-102672380D01*
X147020952Y-102767619D01*
X146973333Y-102815238D01*
X146878095Y-102862857D01*
X146782857Y-102862857D01*
X146687619Y-102815238D01*
X146640000Y-102767619D01*
X146592380Y-102672380D01*
X146592380Y-102434285D01*
X146640000Y-102291428D01*
X146592380Y-101958095D02*
X146592380Y-101339047D01*
X146973333Y-101672380D01*
X146973333Y-101529523D01*
X147020952Y-101434285D01*
X147068571Y-101386666D01*
X147163809Y-101339047D01*
X147401904Y-101339047D01*
X147497142Y-101386666D01*
X147544761Y-101434285D01*
X147592380Y-101529523D01*
X147592380Y-101815238D01*
X147544761Y-101910476D01*
X147497142Y-101958095D01*
X147592380Y-100910476D02*
X146592380Y-100910476D01*
X146592380Y-100672380D01*
X146640000Y-100529523D01*
X146735238Y-100434285D01*
X146830476Y-100386666D01*
X147020952Y-100339047D01*
X147163809Y-100339047D01*
X147354285Y-100386666D01*
X147449523Y-100434285D01*
X147544761Y-100529523D01*
X147592380Y-100672380D01*
X147592380Y-100910476D01*
X147592380Y-99910476D02*
X146592380Y-99910476D01*
X147068571Y-99910476D02*
X147068571Y-99339047D01*
X147592380Y-99339047D02*
X146592380Y-99339047D01*
X135039047Y-102172380D02*
X134562857Y-102172380D01*
X134562857Y-101172380D01*
X135372380Y-102172380D02*
X135372380Y-101172380D01*
X135800952Y-102124761D02*
X135943809Y-102172380D01*
X136181904Y-102172380D01*
X136277142Y-102124761D01*
X136324761Y-102077142D01*
X136372380Y-101981904D01*
X136372380Y-101886666D01*
X136324761Y-101791428D01*
X136277142Y-101743809D01*
X136181904Y-101696190D01*
X135991428Y-101648571D01*
X135896190Y-101600952D01*
X135848571Y-101553333D01*
X135800952Y-101458095D01*
X135800952Y-101362857D01*
X135848571Y-101267619D01*
X135896190Y-101220000D01*
X135991428Y-101172380D01*
X136229523Y-101172380D01*
X136372380Y-101220000D01*
X137324761Y-102172380D02*
X136753333Y-102172380D01*
X137039047Y-102172380D02*
X137039047Y-101172380D01*
X136943809Y-101315238D01*
X136848571Y-101410476D01*
X136753333Y-101458095D01*
%TO.C,VIN1*%
X130874222Y-80786455D02*
X130921841Y-80834074D01*
X130969460Y-80976931D01*
X130969460Y-81072169D01*
X130921841Y-81215026D01*
X130826603Y-81310264D01*
X130731365Y-81357883D01*
X130540889Y-81405502D01*
X130398032Y-81405502D01*
X130207556Y-81357883D01*
X130112318Y-81310264D01*
X130017080Y-81215026D01*
X129969460Y-81072169D01*
X129969460Y-80976931D01*
X130017080Y-80834074D01*
X130064699Y-80786455D01*
X130969460Y-80215026D02*
X130921841Y-80310264D01*
X130874222Y-80357883D01*
X130778984Y-80405502D01*
X130493270Y-80405502D01*
X130398032Y-80357883D01*
X130350413Y-80310264D01*
X130302794Y-80215026D01*
X130302794Y-80072169D01*
X130350413Y-79976931D01*
X130398032Y-79929312D01*
X130493270Y-79881693D01*
X130778984Y-79881693D01*
X130874222Y-79929312D01*
X130921841Y-79976931D01*
X130969460Y-80072169D01*
X130969460Y-80215026D01*
X130302794Y-79453121D02*
X130969460Y-79453121D01*
X130398032Y-79453121D02*
X130350413Y-79405502D01*
X130302794Y-79310264D01*
X130302794Y-79167407D01*
X130350413Y-79072169D01*
X130445651Y-79024550D01*
X130969460Y-79024550D01*
X130302794Y-78548360D02*
X130969460Y-78548360D01*
X130398032Y-78548360D02*
X130350413Y-78500740D01*
X130302794Y-78405502D01*
X130302794Y-78262645D01*
X130350413Y-78167407D01*
X130445651Y-78119788D01*
X130969460Y-78119788D01*
X131064699Y-77881693D02*
X131064699Y-77119788D01*
X129969460Y-76691217D02*
X129969460Y-76595979D01*
X130017080Y-76500740D01*
X130064699Y-76453121D01*
X130159937Y-76405502D01*
X130350413Y-76357883D01*
X130588508Y-76357883D01*
X130778984Y-76405502D01*
X130874222Y-76453121D01*
X130921841Y-76500740D01*
X130969460Y-76595979D01*
X130969460Y-76691217D01*
X130921841Y-76786455D01*
X130874222Y-76834074D01*
X130778984Y-76881693D01*
X130588508Y-76929312D01*
X130350413Y-76929312D01*
X130159937Y-76881693D01*
X130064699Y-76834074D01*
X130017080Y-76786455D01*
X129969460Y-76691217D01*
X130969460Y-75405502D02*
X130969460Y-75976931D01*
X130969460Y-75691217D02*
X129969460Y-75691217D01*
X130112318Y-75786455D01*
X130207556Y-75881693D01*
X130255175Y-75976931D01*
X130969460Y-75072169D02*
X130302794Y-74548360D01*
X130302794Y-75072169D02*
X130969460Y-74548360D01*
X129969460Y-73976931D02*
X129969460Y-73881693D01*
X130017080Y-73786455D01*
X130064699Y-73738836D01*
X130159937Y-73691217D01*
X130350413Y-73643598D01*
X130588508Y-73643598D01*
X130778984Y-73691217D01*
X130874222Y-73738836D01*
X130921841Y-73786455D01*
X130969460Y-73881693D01*
X130969460Y-73976931D01*
X130921841Y-74072169D01*
X130874222Y-74119788D01*
X130778984Y-74167407D01*
X130588508Y-74215026D01*
X130350413Y-74215026D01*
X130159937Y-74167407D01*
X130064699Y-74119788D01*
X130017080Y-74072169D01*
X129969460Y-73976931D01*
X129969460Y-73310264D02*
X129969460Y-72643598D01*
X130969460Y-73072169D01*
X132545651Y-76500740D02*
X132878984Y-77500740D01*
X133212318Y-76500740D01*
X133545651Y-77500740D02*
X133545651Y-76500740D01*
X134021841Y-77500740D02*
X134021841Y-76500740D01*
X134593270Y-77500740D01*
X134593270Y-76500740D01*
X135593270Y-77500740D02*
X135021841Y-77500740D01*
X135307556Y-77500740D02*
X135307556Y-76500740D01*
X135212318Y-76643598D01*
X135117080Y-76738836D01*
X135021841Y-76786455D01*
%TO.C,FLASH1*%
X131201904Y-125597142D02*
X131154285Y-125644761D01*
X131011428Y-125692380D01*
X130916190Y-125692380D01*
X130773333Y-125644761D01*
X130678095Y-125549523D01*
X130630476Y-125454285D01*
X130582857Y-125263809D01*
X130582857Y-125120952D01*
X130630476Y-124930476D01*
X130678095Y-124835238D01*
X130773333Y-124740000D01*
X130916190Y-124692380D01*
X131011428Y-124692380D01*
X131154285Y-124740000D01*
X131201904Y-124787619D01*
X131773333Y-125692380D02*
X131678095Y-125644761D01*
X131630476Y-125597142D01*
X131582857Y-125501904D01*
X131582857Y-125216190D01*
X131630476Y-125120952D01*
X131678095Y-125073333D01*
X131773333Y-125025714D01*
X131916190Y-125025714D01*
X132011428Y-125073333D01*
X132059047Y-125120952D01*
X132106666Y-125216190D01*
X132106666Y-125501904D01*
X132059047Y-125597142D01*
X132011428Y-125644761D01*
X131916190Y-125692380D01*
X131773333Y-125692380D01*
X132535238Y-125025714D02*
X132535238Y-125692380D01*
X132535238Y-125120952D02*
X132582857Y-125073333D01*
X132678095Y-125025714D01*
X132820952Y-125025714D01*
X132916190Y-125073333D01*
X132963809Y-125168571D01*
X132963809Y-125692380D01*
X133440000Y-125025714D02*
X133440000Y-125692380D01*
X133440000Y-125120952D02*
X133487619Y-125073333D01*
X133582857Y-125025714D01*
X133725714Y-125025714D01*
X133820952Y-125073333D01*
X133868571Y-125168571D01*
X133868571Y-125692380D01*
X134106666Y-125787619D02*
X134868571Y-125787619D01*
X135297142Y-124692380D02*
X135392380Y-124692380D01*
X135487619Y-124740000D01*
X135535238Y-124787619D01*
X135582857Y-124882857D01*
X135630476Y-125073333D01*
X135630476Y-125311428D01*
X135582857Y-125501904D01*
X135535238Y-125597142D01*
X135487619Y-125644761D01*
X135392380Y-125692380D01*
X135297142Y-125692380D01*
X135201904Y-125644761D01*
X135154285Y-125597142D01*
X135106666Y-125501904D01*
X135059047Y-125311428D01*
X135059047Y-125073333D01*
X135106666Y-124882857D01*
X135154285Y-124787619D01*
X135201904Y-124740000D01*
X135297142Y-124692380D01*
X136582857Y-125692380D02*
X136011428Y-125692380D01*
X136297142Y-125692380D02*
X136297142Y-124692380D01*
X136201904Y-124835238D01*
X136106666Y-124930476D01*
X136011428Y-124978095D01*
X136916190Y-125692380D02*
X137440000Y-125025714D01*
X136916190Y-125025714D02*
X137440000Y-125692380D01*
X138011428Y-124692380D02*
X138106666Y-124692380D01*
X138201904Y-124740000D01*
X138249523Y-124787619D01*
X138297142Y-124882857D01*
X138344761Y-125073333D01*
X138344761Y-125311428D01*
X138297142Y-125501904D01*
X138249523Y-125597142D01*
X138201904Y-125644761D01*
X138106666Y-125692380D01*
X138011428Y-125692380D01*
X137916190Y-125644761D01*
X137868571Y-125597142D01*
X137820952Y-125501904D01*
X137773333Y-125311428D01*
X137773333Y-125073333D01*
X137820952Y-124882857D01*
X137868571Y-124787619D01*
X137916190Y-124740000D01*
X138011428Y-124692380D01*
X138678095Y-124692380D02*
X139344761Y-124692380D01*
X138916190Y-125692380D01*
X134868571Y-118726666D02*
X134868571Y-119060000D01*
X135392380Y-119060000D02*
X134392380Y-119060000D01*
X134392380Y-118583809D01*
X135392380Y-117726666D02*
X135392380Y-118202857D01*
X134392380Y-118202857D01*
X135106666Y-117440952D02*
X135106666Y-116964761D01*
X135392380Y-117536190D02*
X134392380Y-117202857D01*
X135392380Y-116869523D01*
X135344761Y-116583809D02*
X135392380Y-116440952D01*
X135392380Y-116202857D01*
X135344761Y-116107619D01*
X135297142Y-116060000D01*
X135201904Y-116012380D01*
X135106666Y-116012380D01*
X135011428Y-116060000D01*
X134963809Y-116107619D01*
X134916190Y-116202857D01*
X134868571Y-116393333D01*
X134820952Y-116488571D01*
X134773333Y-116536190D01*
X134678095Y-116583809D01*
X134582857Y-116583809D01*
X134487619Y-116536190D01*
X134440000Y-116488571D01*
X134392380Y-116393333D01*
X134392380Y-116155238D01*
X134440000Y-116012380D01*
X135392380Y-115583809D02*
X134392380Y-115583809D01*
X134868571Y-115583809D02*
X134868571Y-115012380D01*
X135392380Y-115012380D02*
X134392380Y-115012380D01*
X135392380Y-114012380D02*
X135392380Y-114583809D01*
X135392380Y-114298095D02*
X134392380Y-114298095D01*
X134535238Y-114393333D01*
X134630476Y-114488571D01*
X134678095Y-114583809D01*
%TO.C,BME1*%
X168908571Y-104107952D02*
X168956190Y-103965095D01*
X169003809Y-103917476D01*
X169099047Y-103869857D01*
X169241904Y-103869857D01*
X169337142Y-103917476D01*
X169384761Y-103965095D01*
X169432380Y-104060333D01*
X169432380Y-104441285D01*
X168432380Y-104441285D01*
X168432380Y-104107952D01*
X168480000Y-104012714D01*
X168527619Y-103965095D01*
X168622857Y-103917476D01*
X168718095Y-103917476D01*
X168813333Y-103965095D01*
X168860952Y-104012714D01*
X168908571Y-104107952D01*
X168908571Y-104441285D01*
X169432380Y-103441285D02*
X168432380Y-103441285D01*
X169146666Y-103107952D01*
X168432380Y-102774619D01*
X169432380Y-102774619D01*
X168908571Y-102298428D02*
X168908571Y-101965095D01*
X169432380Y-101822238D02*
X169432380Y-102298428D01*
X168432380Y-102298428D01*
X168432380Y-101822238D01*
X168432380Y-100965095D02*
X168432380Y-101155571D01*
X168480000Y-101250809D01*
X168527619Y-101298428D01*
X168670476Y-101393666D01*
X168860952Y-101441285D01*
X169241904Y-101441285D01*
X169337142Y-101393666D01*
X169384761Y-101346047D01*
X169432380Y-101250809D01*
X169432380Y-101060333D01*
X169384761Y-100965095D01*
X169337142Y-100917476D01*
X169241904Y-100869857D01*
X169003809Y-100869857D01*
X168908571Y-100917476D01*
X168860952Y-100965095D01*
X168813333Y-101060333D01*
X168813333Y-101250809D01*
X168860952Y-101346047D01*
X168908571Y-101393666D01*
X169003809Y-101441285D01*
X168860952Y-100298428D02*
X168813333Y-100393666D01*
X168765714Y-100441285D01*
X168670476Y-100488904D01*
X168622857Y-100488904D01*
X168527619Y-100441285D01*
X168480000Y-100393666D01*
X168432380Y-100298428D01*
X168432380Y-100107952D01*
X168480000Y-100012714D01*
X168527619Y-99965095D01*
X168622857Y-99917476D01*
X168670476Y-99917476D01*
X168765714Y-99965095D01*
X168813333Y-100012714D01*
X168860952Y-100107952D01*
X168860952Y-100298428D01*
X168908571Y-100393666D01*
X168956190Y-100441285D01*
X169051428Y-100488904D01*
X169241904Y-100488904D01*
X169337142Y-100441285D01*
X169384761Y-100393666D01*
X169432380Y-100298428D01*
X169432380Y-100107952D01*
X169384761Y-100012714D01*
X169337142Y-99965095D01*
X169241904Y-99917476D01*
X169051428Y-99917476D01*
X168956190Y-99965095D01*
X168908571Y-100012714D01*
X168860952Y-100107952D01*
X168432380Y-99298428D02*
X168432380Y-99203190D01*
X168480000Y-99107952D01*
X168527619Y-99060333D01*
X168622857Y-99012714D01*
X168813333Y-98965095D01*
X169051428Y-98965095D01*
X169241904Y-99012714D01*
X169337142Y-99060333D01*
X169384761Y-99107952D01*
X169432380Y-99203190D01*
X169432380Y-99298428D01*
X169384761Y-99393666D01*
X169337142Y-99441285D01*
X169241904Y-99488904D01*
X169051428Y-99536523D01*
X168813333Y-99536523D01*
X168622857Y-99488904D01*
X168527619Y-99441285D01*
X168480000Y-99393666D01*
X168432380Y-99298428D01*
X157601428Y-101655571D02*
X157744285Y-101703190D01*
X157791904Y-101750809D01*
X157839523Y-101846047D01*
X157839523Y-101988904D01*
X157791904Y-102084142D01*
X157744285Y-102131761D01*
X157649047Y-102179380D01*
X157268095Y-102179380D01*
X157268095Y-101179380D01*
X157601428Y-101179380D01*
X157696666Y-101227000D01*
X157744285Y-101274619D01*
X157791904Y-101369857D01*
X157791904Y-101465095D01*
X157744285Y-101560333D01*
X157696666Y-101607952D01*
X157601428Y-101655571D01*
X157268095Y-101655571D01*
X158268095Y-102179380D02*
X158268095Y-101179380D01*
X158601428Y-101893666D01*
X158934761Y-101179380D01*
X158934761Y-102179380D01*
X159410952Y-101655571D02*
X159744285Y-101655571D01*
X159887142Y-102179380D02*
X159410952Y-102179380D01*
X159410952Y-101179380D01*
X159887142Y-101179380D01*
X160839523Y-102179380D02*
X160268095Y-102179380D01*
X160553809Y-102179380D02*
X160553809Y-101179380D01*
X160458571Y-101322238D01*
X160363333Y-101417476D01*
X160268095Y-101465095D01*
%TO.C,U2*%
X146428619Y-91348926D02*
X146904809Y-91348926D01*
X146333380Y-91634640D02*
X146666714Y-90634640D01*
X147000047Y-91634640D01*
X147333380Y-91634640D02*
X147333380Y-90634640D01*
X147714333Y-90634640D01*
X147809571Y-90682260D01*
X147857190Y-90729879D01*
X147904809Y-90825117D01*
X147904809Y-90967974D01*
X147857190Y-91063212D01*
X147809571Y-91110831D01*
X147714333Y-91158450D01*
X147333380Y-91158450D01*
X148285761Y-90729879D02*
X148333380Y-90682260D01*
X148428619Y-90634640D01*
X148666714Y-90634640D01*
X148761952Y-90682260D01*
X148809571Y-90729879D01*
X148857190Y-90825117D01*
X148857190Y-90920355D01*
X148809571Y-91063212D01*
X148238142Y-91634640D01*
X148857190Y-91634640D01*
X149809571Y-91634640D02*
X149238142Y-91634640D01*
X149523857Y-91634640D02*
X149523857Y-90634640D01*
X149428619Y-90777498D01*
X149333380Y-90872736D01*
X149238142Y-90920355D01*
X150761952Y-91634640D02*
X150190523Y-91634640D01*
X150476238Y-91634640D02*
X150476238Y-90634640D01*
X150381000Y-90777498D01*
X150285761Y-90872736D01*
X150190523Y-90920355D01*
X151142904Y-90729879D02*
X151190523Y-90682260D01*
X151285761Y-90634640D01*
X151523857Y-90634640D01*
X151619095Y-90682260D01*
X151666714Y-90729879D01*
X151714333Y-90825117D01*
X151714333Y-90920355D01*
X151666714Y-91063212D01*
X151095285Y-91634640D01*
X151714333Y-91634640D01*
X152142904Y-91634640D02*
X152142904Y-90634640D01*
X152714333Y-91634640D02*
X152285761Y-91063212D01*
X152714333Y-90634640D02*
X152142904Y-91206069D01*
X153142904Y-91253688D02*
X153904809Y-91253688D01*
X154285761Y-90634640D02*
X154904809Y-90634640D01*
X154571476Y-91015593D01*
X154714333Y-91015593D01*
X154809571Y-91063212D01*
X154857190Y-91110831D01*
X154904809Y-91206069D01*
X154904809Y-91444164D01*
X154857190Y-91539402D01*
X154809571Y-91587021D01*
X154714333Y-91634640D01*
X154428619Y-91634640D01*
X154333380Y-91587021D01*
X154285761Y-91539402D01*
X155333380Y-91539402D02*
X155381000Y-91587021D01*
X155333380Y-91634640D01*
X155285761Y-91587021D01*
X155333380Y-91539402D01*
X155333380Y-91634640D01*
X155714333Y-90634640D02*
X156333380Y-90634640D01*
X156000047Y-91015593D01*
X156142904Y-91015593D01*
X156238142Y-91063212D01*
X156285761Y-91110831D01*
X156333380Y-91206069D01*
X156333380Y-91444164D01*
X156285761Y-91539402D01*
X156238142Y-91587021D01*
X156142904Y-91634640D01*
X155857190Y-91634640D01*
X155761952Y-91587021D01*
X155714333Y-91539402D01*
D13*
X151107190Y-94463212D02*
X151511952Y-94463212D01*
X151559571Y-94439402D01*
X151583380Y-94415593D01*
X151607190Y-94367974D01*
X151607190Y-94272736D01*
X151583380Y-94225117D01*
X151559571Y-94201307D01*
X151511952Y-94177498D01*
X151107190Y-94177498D01*
X151154809Y-93963212D02*
X151131000Y-93939402D01*
X151107190Y-93891783D01*
X151107190Y-93772736D01*
X151131000Y-93725117D01*
X151154809Y-93701307D01*
X151202428Y-93677498D01*
X151250047Y-93677498D01*
X151321476Y-93701307D01*
X151607190Y-93987021D01*
X151607190Y-93677498D01*
%TO.C,R3*%
D11*
X162302380Y-81204285D02*
X162302380Y-81775714D01*
X162302380Y-81490000D02*
X161302380Y-81490000D01*
X161445238Y-81585238D01*
X161540476Y-81680476D01*
X161588095Y-81775714D01*
X162302380Y-80775714D02*
X161302380Y-80775714D01*
X162302380Y-80204285D02*
X161730952Y-80632857D01*
X161302380Y-80204285D02*
X161873809Y-80775714D01*
D12*
X163726190Y-81073333D02*
X163488095Y-81240000D01*
X163726190Y-81359047D02*
X163226190Y-81359047D01*
X163226190Y-81168571D01*
X163250000Y-81120952D01*
X163273809Y-81097142D01*
X163321428Y-81073333D01*
X163392857Y-81073333D01*
X163440476Y-81097142D01*
X163464285Y-81120952D01*
X163488095Y-81168571D01*
X163488095Y-81359047D01*
X163226190Y-80906666D02*
X163226190Y-80597142D01*
X163416666Y-80763809D01*
X163416666Y-80692380D01*
X163440476Y-80644761D01*
X163464285Y-80620952D01*
X163511904Y-80597142D01*
X163630952Y-80597142D01*
X163678571Y-80620952D01*
X163702380Y-80644761D01*
X163726190Y-80692380D01*
X163726190Y-80835238D01*
X163702380Y-80882857D01*
X163678571Y-80906666D01*
%TO.C,JP1*%
D11*
X166594761Y-81581666D02*
X166642380Y-81438809D01*
X166642380Y-81200714D01*
X166594761Y-81105476D01*
X166547142Y-81057857D01*
X166451904Y-81010238D01*
X166356666Y-81010238D01*
X166261428Y-81057857D01*
X166213809Y-81105476D01*
X166166190Y-81200714D01*
X166118571Y-81391190D01*
X166070952Y-81486428D01*
X166023333Y-81534047D01*
X165928095Y-81581666D01*
X165832857Y-81581666D01*
X165737619Y-81534047D01*
X165690000Y-81486428D01*
X165642380Y-81391190D01*
X165642380Y-81153095D01*
X165690000Y-81010238D01*
X165642380Y-80295952D02*
X166356666Y-80295952D01*
X166499523Y-80343571D01*
X166594761Y-80438809D01*
X166642380Y-80581666D01*
X166642380Y-80676904D01*
%TO.C,D5*%
X133198291Y-107569708D02*
X133245910Y-107426851D01*
X133293529Y-107379232D01*
X133388767Y-107331613D01*
X133531624Y-107331613D01*
X133626862Y-107379232D01*
X133674481Y-107426851D01*
X133722100Y-107522089D01*
X133722100Y-107903041D01*
X132722100Y-107903041D01*
X132722100Y-107569708D01*
X132769720Y-107474470D01*
X132817339Y-107426851D01*
X132912577Y-107379232D01*
X133007815Y-107379232D01*
X133103053Y-107426851D01*
X133150672Y-107474470D01*
X133198291Y-107569708D01*
X133198291Y-107903041D01*
X133722100Y-106760184D02*
X133674481Y-106855422D01*
X133579243Y-106903041D01*
X132722100Y-106903041D01*
X133055434Y-105950660D02*
X133722100Y-105950660D01*
X133055434Y-106379232D02*
X133579243Y-106379232D01*
X133674481Y-106331613D01*
X133722100Y-106236375D01*
X133722100Y-106093518D01*
X133674481Y-105998280D01*
X133626862Y-105950660D01*
X133674481Y-105093518D02*
X133722100Y-105188756D01*
X133722100Y-105379232D01*
X133674481Y-105474470D01*
X133579243Y-105522089D01*
X133198291Y-105522089D01*
X133103053Y-105474470D01*
X133055434Y-105379232D01*
X133055434Y-105188756D01*
X133103053Y-105093518D01*
X133198291Y-105045899D01*
X133293529Y-105045899D01*
X133388767Y-105522089D01*
D12*
X135145910Y-106867327D02*
X134645910Y-106867327D01*
X134645910Y-106748280D01*
X134669720Y-106676851D01*
X134717339Y-106629232D01*
X134764958Y-106605422D01*
X134860196Y-106581613D01*
X134931624Y-106581613D01*
X135026862Y-106605422D01*
X135074481Y-106629232D01*
X135122100Y-106676851D01*
X135145910Y-106748280D01*
X135145910Y-106867327D01*
X134645910Y-106129232D02*
X134645910Y-106367327D01*
X134884005Y-106391137D01*
X134860196Y-106367327D01*
X134836386Y-106319708D01*
X134836386Y-106200660D01*
X134860196Y-106153041D01*
X134884005Y-106129232D01*
X134931624Y-106105422D01*
X135050672Y-106105422D01*
X135098291Y-106129232D01*
X135122100Y-106153041D01*
X135145910Y-106200660D01*
X135145910Y-106319708D01*
X135122100Y-106367327D01*
X135098291Y-106391137D01*
%TO.C,R7*%
D11*
X134238260Y-112419996D02*
X134238260Y-112991424D01*
X134238260Y-112705710D02*
X133238260Y-112705710D01*
X133381118Y-112800948D01*
X133476356Y-112896186D01*
X133523975Y-112991424D01*
X133238260Y-111800948D02*
X133238260Y-111705710D01*
X133285880Y-111610472D01*
X133333499Y-111562853D01*
X133428737Y-111515234D01*
X133619213Y-111467615D01*
X133857308Y-111467615D01*
X134047784Y-111515234D01*
X134143022Y-111562853D01*
X134190641Y-111610472D01*
X134238260Y-111705710D01*
X134238260Y-111800948D01*
X134190641Y-111896186D01*
X134143022Y-111943805D01*
X134047784Y-111991424D01*
X133857308Y-112039043D01*
X133619213Y-112039043D01*
X133428737Y-111991424D01*
X133333499Y-111943805D01*
X133285880Y-111896186D01*
X133238260Y-111800948D01*
X134238260Y-111039043D02*
X133238260Y-111039043D01*
X134238260Y-110467615D02*
X133666832Y-110896186D01*
X133238260Y-110467615D02*
X133809689Y-111039043D01*
D12*
X132362070Y-111812853D02*
X132123975Y-111979520D01*
X132362070Y-112098567D02*
X131862070Y-112098567D01*
X131862070Y-111908091D01*
X131885880Y-111860472D01*
X131909689Y-111836662D01*
X131957308Y-111812853D01*
X132028737Y-111812853D01*
X132076356Y-111836662D01*
X132100165Y-111860472D01*
X132123975Y-111908091D01*
X132123975Y-112098567D01*
X131862070Y-111646186D02*
X131862070Y-111312853D01*
X132362070Y-111527139D01*
%TO.C,R9*%
D11*
X164572380Y-115270476D02*
X164572380Y-115841904D01*
X164572380Y-115556190D02*
X163572380Y-115556190D01*
X163715238Y-115651428D01*
X163810476Y-115746666D01*
X163858095Y-115841904D01*
X163572380Y-114651428D02*
X163572380Y-114556190D01*
X163620000Y-114460952D01*
X163667619Y-114413333D01*
X163762857Y-114365714D01*
X163953333Y-114318095D01*
X164191428Y-114318095D01*
X164381904Y-114365714D01*
X164477142Y-114413333D01*
X164524761Y-114460952D01*
X164572380Y-114556190D01*
X164572380Y-114651428D01*
X164524761Y-114746666D01*
X164477142Y-114794285D01*
X164381904Y-114841904D01*
X164191428Y-114889523D01*
X163953333Y-114889523D01*
X163762857Y-114841904D01*
X163667619Y-114794285D01*
X163620000Y-114746666D01*
X163572380Y-114651428D01*
X164572380Y-113889523D02*
X163572380Y-113889523D01*
X164572380Y-113318095D02*
X164000952Y-113746666D01*
X163572380Y-113318095D02*
X164143809Y-113889523D01*
D12*
X162696190Y-114663333D02*
X162458095Y-114830000D01*
X162696190Y-114949047D02*
X162196190Y-114949047D01*
X162196190Y-114758571D01*
X162220000Y-114710952D01*
X162243809Y-114687142D01*
X162291428Y-114663333D01*
X162362857Y-114663333D01*
X162410476Y-114687142D01*
X162434285Y-114710952D01*
X162458095Y-114758571D01*
X162458095Y-114949047D01*
X162696190Y-114425238D02*
X162696190Y-114330000D01*
X162672380Y-114282380D01*
X162648571Y-114258571D01*
X162577142Y-114210952D01*
X162481904Y-114187142D01*
X162291428Y-114187142D01*
X162243809Y-114210952D01*
X162220000Y-114234761D01*
X162196190Y-114282380D01*
X162196190Y-114377619D01*
X162220000Y-114425238D01*
X162243809Y-114449047D01*
X162291428Y-114472857D01*
X162410476Y-114472857D01*
X162458095Y-114449047D01*
X162481904Y-114425238D01*
X162505714Y-114377619D01*
X162505714Y-114282380D01*
X162481904Y-114234761D01*
X162458095Y-114210952D01*
X162410476Y-114187142D01*
%TO.C,R8*%
D11*
X130948420Y-106719025D02*
X130948420Y-107290454D01*
X130948420Y-107004740D02*
X129948420Y-107004740D01*
X130091278Y-107099978D01*
X130186516Y-107195216D01*
X130234135Y-107290454D01*
X130948420Y-106290454D02*
X129948420Y-106290454D01*
X130948420Y-105719025D02*
X130376992Y-106147597D01*
X129948420Y-105719025D02*
X130519849Y-106290454D01*
D12*
X132372230Y-106588073D02*
X132134135Y-106754740D01*
X132372230Y-106873787D02*
X131872230Y-106873787D01*
X131872230Y-106683311D01*
X131896040Y-106635692D01*
X131919849Y-106611882D01*
X131967468Y-106588073D01*
X132038897Y-106588073D01*
X132086516Y-106611882D01*
X132110325Y-106635692D01*
X132134135Y-106683311D01*
X132134135Y-106873787D01*
X132086516Y-106302359D02*
X132062706Y-106349978D01*
X132038897Y-106373787D01*
X131991278Y-106397597D01*
X131967468Y-106397597D01*
X131919849Y-106373787D01*
X131896040Y-106349978D01*
X131872230Y-106302359D01*
X131872230Y-106207120D01*
X131896040Y-106159501D01*
X131919849Y-106135692D01*
X131967468Y-106111882D01*
X131991278Y-106111882D01*
X132038897Y-106135692D01*
X132062706Y-106159501D01*
X132086516Y-106207120D01*
X132086516Y-106302359D01*
X132110325Y-106349978D01*
X132134135Y-106373787D01*
X132181754Y-106397597D01*
X132276992Y-106397597D01*
X132324611Y-106373787D01*
X132348420Y-106349978D01*
X132372230Y-106302359D01*
X132372230Y-106207120D01*
X132348420Y-106159501D01*
X132324611Y-106135692D01*
X132276992Y-106111882D01*
X132181754Y-106111882D01*
X132134135Y-106135692D01*
X132110325Y-106159501D01*
X132086516Y-106207120D01*
%TO.C,R6*%
D11*
X151191428Y-89222380D02*
X150620000Y-89222380D01*
X150905714Y-89222380D02*
X150905714Y-88222380D01*
X150810476Y-88365238D01*
X150715238Y-88460476D01*
X150620000Y-88508095D01*
X151620000Y-89127142D02*
X151667619Y-89174761D01*
X151620000Y-89222380D01*
X151572380Y-89174761D01*
X151620000Y-89127142D01*
X151620000Y-89222380D01*
X152286666Y-88222380D02*
X152381904Y-88222380D01*
X152477142Y-88270000D01*
X152524761Y-88317619D01*
X152572380Y-88412857D01*
X152620000Y-88603333D01*
X152620000Y-88841428D01*
X152572380Y-89031904D01*
X152524761Y-89127142D01*
X152477142Y-89174761D01*
X152381904Y-89222380D01*
X152286666Y-89222380D01*
X152191428Y-89174761D01*
X152143809Y-89127142D01*
X152096190Y-89031904D01*
X152048571Y-88841428D01*
X152048571Y-88603333D01*
X152096190Y-88412857D01*
X152143809Y-88317619D01*
X152191428Y-88270000D01*
X152286666Y-88222380D01*
X153048571Y-89222380D02*
X153048571Y-88222380D01*
X153620000Y-89222380D02*
X153191428Y-88650952D01*
X153620000Y-88222380D02*
X153048571Y-88793809D01*
D12*
X152036666Y-87346190D02*
X151870000Y-87108095D01*
X151750952Y-87346190D02*
X151750952Y-86846190D01*
X151941428Y-86846190D01*
X151989047Y-86870000D01*
X152012857Y-86893809D01*
X152036666Y-86941428D01*
X152036666Y-87012857D01*
X152012857Y-87060476D01*
X151989047Y-87084285D01*
X151941428Y-87108095D01*
X151750952Y-87108095D01*
X152465238Y-86846190D02*
X152370000Y-86846190D01*
X152322380Y-86870000D01*
X152298571Y-86893809D01*
X152250952Y-86965238D01*
X152227142Y-87060476D01*
X152227142Y-87250952D01*
X152250952Y-87298571D01*
X152274761Y-87322380D01*
X152322380Y-87346190D01*
X152417619Y-87346190D01*
X152465238Y-87322380D01*
X152489047Y-87298571D01*
X152512857Y-87250952D01*
X152512857Y-87131904D01*
X152489047Y-87084285D01*
X152465238Y-87060476D01*
X152417619Y-87036666D01*
X152322380Y-87036666D01*
X152274761Y-87060476D01*
X152250952Y-87084285D01*
X152227142Y-87131904D01*
%TO.C,R4*%
D11*
X130057420Y-81193185D02*
X130057420Y-81764614D01*
X130057420Y-81478900D02*
X129057420Y-81478900D01*
X129200278Y-81574138D01*
X129295516Y-81669376D01*
X129343135Y-81764614D01*
X130057420Y-80764614D02*
X129057420Y-80764614D01*
X130057420Y-80193185D02*
X129485992Y-80621757D01*
X129057420Y-80193185D02*
X129628849Y-80764614D01*
D12*
X128181230Y-81062233D02*
X127943135Y-81228900D01*
X128181230Y-81347947D02*
X127681230Y-81347947D01*
X127681230Y-81157471D01*
X127705040Y-81109852D01*
X127728849Y-81086042D01*
X127776468Y-81062233D01*
X127847897Y-81062233D01*
X127895516Y-81086042D01*
X127919325Y-81109852D01*
X127943135Y-81157471D01*
X127943135Y-81347947D01*
X127847897Y-80633661D02*
X128181230Y-80633661D01*
X127657420Y-80752709D02*
X128014563Y-80871757D01*
X128014563Y-80562233D01*
%TO.C,R5*%
D11*
X153950780Y-95196966D02*
X153950780Y-95768395D01*
X153950780Y-95482680D02*
X152950780Y-95482680D01*
X153093638Y-95577919D01*
X153188876Y-95673157D01*
X153236495Y-95768395D01*
X152950780Y-94577919D02*
X152950780Y-94482680D01*
X152998400Y-94387442D01*
X153046019Y-94339823D01*
X153141257Y-94292204D01*
X153331733Y-94244585D01*
X153569828Y-94244585D01*
X153760304Y-94292204D01*
X153855542Y-94339823D01*
X153903161Y-94387442D01*
X153950780Y-94482680D01*
X153950780Y-94577919D01*
X153903161Y-94673157D01*
X153855542Y-94720776D01*
X153760304Y-94768395D01*
X153569828Y-94816014D01*
X153331733Y-94816014D01*
X153141257Y-94768395D01*
X153046019Y-94720776D01*
X152998400Y-94673157D01*
X152950780Y-94577919D01*
X152950780Y-93625538D02*
X152950780Y-93530300D01*
X152998400Y-93435061D01*
X153046019Y-93387442D01*
X153141257Y-93339823D01*
X153331733Y-93292204D01*
X153569828Y-93292204D01*
X153760304Y-93339823D01*
X153855542Y-93387442D01*
X153903161Y-93435061D01*
X153950780Y-93530300D01*
X153950780Y-93625538D01*
X153903161Y-93720776D01*
X153855542Y-93768395D01*
X153760304Y-93816014D01*
X153569828Y-93863633D01*
X153331733Y-93863633D01*
X153141257Y-93816014D01*
X153046019Y-93768395D01*
X152998400Y-93720776D01*
X152950780Y-93625538D01*
X153950780Y-92863633D02*
X152950780Y-92863633D01*
X153950780Y-92292204D02*
X153379352Y-92720776D01*
X152950780Y-92292204D02*
X153522209Y-92863633D01*
D12*
X155374590Y-94113633D02*
X155136495Y-94280300D01*
X155374590Y-94399347D02*
X154874590Y-94399347D01*
X154874590Y-94208871D01*
X154898400Y-94161252D01*
X154922209Y-94137442D01*
X154969828Y-94113633D01*
X155041257Y-94113633D01*
X155088876Y-94137442D01*
X155112685Y-94161252D01*
X155136495Y-94208871D01*
X155136495Y-94399347D01*
X154874590Y-93661252D02*
X154874590Y-93899347D01*
X155112685Y-93923157D01*
X155088876Y-93899347D01*
X155065066Y-93851728D01*
X155065066Y-93732680D01*
X155088876Y-93685061D01*
X155112685Y-93661252D01*
X155160304Y-93637442D01*
X155279352Y-93637442D01*
X155326971Y-93661252D01*
X155350780Y-93685061D01*
X155374590Y-93732680D01*
X155374590Y-93851728D01*
X155350780Y-93899347D01*
X155326971Y-93923157D01*
%TO.C,R2*%
D11*
X134294140Y-81185785D02*
X134294140Y-81757214D01*
X134294140Y-81471500D02*
X133294140Y-81471500D01*
X133436998Y-81566738D01*
X133532236Y-81661976D01*
X133579855Y-81757214D01*
X134294140Y-80757214D02*
X133294140Y-80757214D01*
X134294140Y-80185785D02*
X133722712Y-80614357D01*
X133294140Y-80185785D02*
X133865569Y-80757214D01*
D12*
X132417950Y-81054833D02*
X132179855Y-81221500D01*
X132417950Y-81340547D02*
X131917950Y-81340547D01*
X131917950Y-81150071D01*
X131941760Y-81102452D01*
X131965569Y-81078642D01*
X132013188Y-81054833D01*
X132084617Y-81054833D01*
X132132236Y-81078642D01*
X132156045Y-81102452D01*
X132179855Y-81150071D01*
X132179855Y-81340547D01*
X131965569Y-80864357D02*
X131941760Y-80840547D01*
X131917950Y-80792928D01*
X131917950Y-80673880D01*
X131941760Y-80626261D01*
X131965569Y-80602452D01*
X132013188Y-80578642D01*
X132060807Y-80578642D01*
X132132236Y-80602452D01*
X132417950Y-80888166D01*
X132417950Y-80578642D01*
%TO.C,R1*%
D11*
X139422380Y-94725476D02*
X139422380Y-95296904D01*
X139422380Y-95011190D02*
X138422380Y-95011190D01*
X138565238Y-95106428D01*
X138660476Y-95201666D01*
X138708095Y-95296904D01*
X138422380Y-94106428D02*
X138422380Y-94011190D01*
X138470000Y-93915952D01*
X138517619Y-93868333D01*
X138612857Y-93820714D01*
X138803333Y-93773095D01*
X139041428Y-93773095D01*
X139231904Y-93820714D01*
X139327142Y-93868333D01*
X139374761Y-93915952D01*
X139422380Y-94011190D01*
X139422380Y-94106428D01*
X139374761Y-94201666D01*
X139327142Y-94249285D01*
X139231904Y-94296904D01*
X139041428Y-94344523D01*
X138803333Y-94344523D01*
X138612857Y-94296904D01*
X138517619Y-94249285D01*
X138470000Y-94201666D01*
X138422380Y-94106428D01*
X139422380Y-93344523D02*
X138422380Y-93344523D01*
X139422380Y-92773095D02*
X138850952Y-93201666D01*
X138422380Y-92773095D02*
X138993809Y-93344523D01*
D12*
X140846190Y-94118333D02*
X140608095Y-94285000D01*
X140846190Y-94404047D02*
X140346190Y-94404047D01*
X140346190Y-94213571D01*
X140370000Y-94165952D01*
X140393809Y-94142142D01*
X140441428Y-94118333D01*
X140512857Y-94118333D01*
X140560476Y-94142142D01*
X140584285Y-94165952D01*
X140608095Y-94213571D01*
X140608095Y-94404047D01*
X140846190Y-93642142D02*
X140846190Y-93927857D01*
X140846190Y-93785000D02*
X140346190Y-93785000D01*
X140417619Y-93832619D01*
X140465238Y-93880238D01*
X140489047Y-93927857D01*
%TO.C,Q1*%
D11*
X145947619Y-96533333D02*
X145900000Y-96485714D01*
X145852380Y-96390476D01*
X145852380Y-96152380D01*
X145900000Y-96057142D01*
X145947619Y-96009523D01*
X146042857Y-95961904D01*
X146138095Y-95961904D01*
X146280952Y-96009523D01*
X146852380Y-96580952D01*
X146852380Y-95961904D01*
X146757142Y-95533333D02*
X146804761Y-95485714D01*
X146852380Y-95533333D01*
X146804761Y-95580952D01*
X146757142Y-95533333D01*
X146852380Y-95533333D01*
X145852380Y-94580952D02*
X145852380Y-95057142D01*
X146328571Y-95104761D01*
X146280952Y-95057142D01*
X146233333Y-94961904D01*
X146233333Y-94723809D01*
X146280952Y-94628571D01*
X146328571Y-94580952D01*
X146423809Y-94533333D01*
X146661904Y-94533333D01*
X146757142Y-94580952D01*
X146804761Y-94628571D01*
X146852380Y-94723809D01*
X146852380Y-94961904D01*
X146804761Y-95057142D01*
X146757142Y-95104761D01*
X146566666Y-94152380D02*
X146566666Y-93676190D01*
X146852380Y-94247619D02*
X145852380Y-93914285D01*
X146852380Y-93580952D01*
X145804761Y-92533333D02*
X147090476Y-93390476D01*
X145852380Y-92295238D02*
X145852380Y-91676190D01*
X146233333Y-92009523D01*
X146233333Y-91866666D01*
X146280952Y-91771428D01*
X146328571Y-91723809D01*
X146423809Y-91676190D01*
X146661904Y-91676190D01*
X146757142Y-91723809D01*
X146804761Y-91771428D01*
X146852380Y-91866666D01*
X146852380Y-92152380D01*
X146804761Y-92247619D01*
X146757142Y-92295238D01*
X145852380Y-91057142D02*
X145852380Y-90961904D01*
X145900000Y-90866666D01*
X145947619Y-90819047D01*
X146042857Y-90771428D01*
X146233333Y-90723809D01*
X146471428Y-90723809D01*
X146661904Y-90771428D01*
X146757142Y-90819047D01*
X146804761Y-90866666D01*
X146852380Y-90961904D01*
X146852380Y-91057142D01*
X146804761Y-91152380D01*
X146757142Y-91200000D01*
X146661904Y-91247619D01*
X146471428Y-91295238D01*
X146233333Y-91295238D01*
X146042857Y-91247619D01*
X145947619Y-91200000D01*
X145900000Y-91152380D01*
X145852380Y-91057142D01*
X145852380Y-90438095D02*
X146852380Y-90104761D01*
X145852380Y-89771428D01*
D13*
X143852380Y-93473809D02*
X143804761Y-93450000D01*
X143757142Y-93402380D01*
X143685714Y-93330952D01*
X143638095Y-93307142D01*
X143590476Y-93307142D01*
X143614285Y-93426190D02*
X143566666Y-93402380D01*
X143519047Y-93354761D01*
X143495238Y-93259523D01*
X143495238Y-93092857D01*
X143519047Y-92997619D01*
X143566666Y-92950000D01*
X143614285Y-92926190D01*
X143709523Y-92926190D01*
X143757142Y-92950000D01*
X143804761Y-92997619D01*
X143828571Y-93092857D01*
X143828571Y-93259523D01*
X143804761Y-93354761D01*
X143757142Y-93402380D01*
X143709523Y-93426190D01*
X143614285Y-93426190D01*
X144304761Y-93426190D02*
X144019047Y-93426190D01*
X144161904Y-93426190D02*
X144161904Y-92926190D01*
X144114285Y-92997619D01*
X144066666Y-93045238D01*
X144019047Y-93069047D01*
%TO.C,D1*%
D11*
X133127740Y-81544128D02*
X132651550Y-81877461D01*
X133127740Y-82115557D02*
X132127740Y-82115557D01*
X132127740Y-81734604D01*
X132175360Y-81639366D01*
X132222979Y-81591747D01*
X132318217Y-81544128D01*
X132461074Y-81544128D01*
X132556312Y-81591747D01*
X132603931Y-81639366D01*
X132651550Y-81734604D01*
X132651550Y-82115557D01*
X133080121Y-80734604D02*
X133127740Y-80829842D01*
X133127740Y-81020319D01*
X133080121Y-81115557D01*
X132984883Y-81163176D01*
X132603931Y-81163176D01*
X132508693Y-81115557D01*
X132461074Y-81020319D01*
X132461074Y-80829842D01*
X132508693Y-80734604D01*
X132603931Y-80686985D01*
X132699169Y-80686985D01*
X132794407Y-81163176D01*
X133127740Y-79829842D02*
X132127740Y-79829842D01*
X133080121Y-79829842D02*
X133127740Y-79925080D01*
X133127740Y-80115557D01*
X133080121Y-80210795D01*
X133032502Y-80258414D01*
X132937264Y-80306033D01*
X132651550Y-80306033D01*
X132556312Y-80258414D01*
X132508693Y-80210795D01*
X132461074Y-80115557D01*
X132461074Y-79925080D01*
X132508693Y-79829842D01*
D12*
X134551550Y-81341747D02*
X134051550Y-81341747D01*
X134051550Y-81222700D01*
X134075360Y-81151271D01*
X134122979Y-81103652D01*
X134170598Y-81079842D01*
X134265836Y-81056033D01*
X134337264Y-81056033D01*
X134432502Y-81079842D01*
X134480121Y-81103652D01*
X134527740Y-81151271D01*
X134551550Y-81222700D01*
X134551550Y-81341747D01*
X134551550Y-80579842D02*
X134551550Y-80865557D01*
X134551550Y-80722700D02*
X134051550Y-80722700D01*
X134122979Y-80770319D01*
X134170598Y-80817938D01*
X134194407Y-80865557D01*
%TO.C,C6*%
D11*
X161272380Y-125746190D02*
X161272380Y-126317619D01*
X161272380Y-126031904D02*
X160272380Y-126031904D01*
X160415238Y-126127142D01*
X160510476Y-126222380D01*
X160558095Y-126317619D01*
X160272380Y-125127142D02*
X160272380Y-125031904D01*
X160320000Y-124936666D01*
X160367619Y-124889047D01*
X160462857Y-124841428D01*
X160653333Y-124793809D01*
X160891428Y-124793809D01*
X161081904Y-124841428D01*
X161177142Y-124889047D01*
X161224761Y-124936666D01*
X161272380Y-125031904D01*
X161272380Y-125127142D01*
X161224761Y-125222380D01*
X161177142Y-125270000D01*
X161081904Y-125317619D01*
X160891428Y-125365238D01*
X160653333Y-125365238D01*
X160462857Y-125317619D01*
X160367619Y-125270000D01*
X160320000Y-125222380D01*
X160272380Y-125127142D01*
X160605714Y-123936666D02*
X161272380Y-123936666D01*
X160605714Y-124365238D02*
X161129523Y-124365238D01*
X161224761Y-124317619D01*
X161272380Y-124222380D01*
X161272380Y-124079523D01*
X161224761Y-123984285D01*
X161177142Y-123936666D01*
X160748571Y-123127142D02*
X160748571Y-123460476D01*
X161272380Y-123460476D02*
X160272380Y-123460476D01*
X160272380Y-122984285D01*
X160224761Y-121889047D02*
X161510476Y-122746190D01*
X161272380Y-121031904D02*
X161272380Y-121603333D01*
X161272380Y-121317619D02*
X160272380Y-121317619D01*
X160415238Y-121412857D01*
X160510476Y-121508095D01*
X160558095Y-121603333D01*
X160272380Y-120412857D02*
X160272380Y-120317619D01*
X160320000Y-120222380D01*
X160367619Y-120174761D01*
X160462857Y-120127142D01*
X160653333Y-120079523D01*
X160891428Y-120079523D01*
X161081904Y-120127142D01*
X161177142Y-120174761D01*
X161224761Y-120222380D01*
X161272380Y-120317619D01*
X161272380Y-120412857D01*
X161224761Y-120508095D01*
X161177142Y-120555714D01*
X161081904Y-120603333D01*
X160891428Y-120650952D01*
X160653333Y-120650952D01*
X160462857Y-120603333D01*
X160367619Y-120555714D01*
X160320000Y-120508095D01*
X160272380Y-120412857D01*
X160272380Y-119793809D02*
X161272380Y-119460476D01*
X160272380Y-119127142D01*
D12*
X162648571Y-122853333D02*
X162672380Y-122877142D01*
X162696190Y-122948571D01*
X162696190Y-122996190D01*
X162672380Y-123067619D01*
X162624761Y-123115238D01*
X162577142Y-123139047D01*
X162481904Y-123162857D01*
X162410476Y-123162857D01*
X162315238Y-123139047D01*
X162267619Y-123115238D01*
X162220000Y-123067619D01*
X162196190Y-122996190D01*
X162196190Y-122948571D01*
X162220000Y-122877142D01*
X162243809Y-122853333D01*
X162196190Y-122424761D02*
X162196190Y-122520000D01*
X162220000Y-122567619D01*
X162243809Y-122591428D01*
X162315238Y-122639047D01*
X162410476Y-122662857D01*
X162600952Y-122662857D01*
X162648571Y-122639047D01*
X162672380Y-122615238D01*
X162696190Y-122567619D01*
X162696190Y-122472380D01*
X162672380Y-122424761D01*
X162648571Y-122400952D01*
X162600952Y-122377142D01*
X162481904Y-122377142D01*
X162434285Y-122400952D01*
X162410476Y-122424761D01*
X162386666Y-122472380D01*
X162386666Y-122567619D01*
X162410476Y-122615238D01*
X162434285Y-122639047D01*
X162481904Y-122662857D01*
%TO.C,C5*%
D11*
X163572380Y-122207619D02*
X163572380Y-122112380D01*
X163620000Y-122017142D01*
X163667619Y-121969523D01*
X163762857Y-121921904D01*
X163953333Y-121874285D01*
X164191428Y-121874285D01*
X164381904Y-121921904D01*
X164477142Y-121969523D01*
X164524761Y-122017142D01*
X164572380Y-122112380D01*
X164572380Y-122207619D01*
X164524761Y-122302857D01*
X164477142Y-122350476D01*
X164381904Y-122398095D01*
X164191428Y-122445714D01*
X163953333Y-122445714D01*
X163762857Y-122398095D01*
X163667619Y-122350476D01*
X163620000Y-122302857D01*
X163572380Y-122207619D01*
X164477142Y-121445714D02*
X164524761Y-121398095D01*
X164572380Y-121445714D01*
X164524761Y-121493333D01*
X164477142Y-121445714D01*
X164572380Y-121445714D01*
X164572380Y-120445714D02*
X164572380Y-121017142D01*
X164572380Y-120731428D02*
X163572380Y-120731428D01*
X163715238Y-120826666D01*
X163810476Y-120921904D01*
X163858095Y-121017142D01*
X163905714Y-119588571D02*
X164572380Y-119588571D01*
X163905714Y-120017142D02*
X164429523Y-120017142D01*
X164524761Y-119969523D01*
X164572380Y-119874285D01*
X164572380Y-119731428D01*
X164524761Y-119636190D01*
X164477142Y-119588571D01*
X164048571Y-118779047D02*
X164048571Y-119112380D01*
X164572380Y-119112380D02*
X163572380Y-119112380D01*
X163572380Y-118636190D01*
X163524761Y-117540952D02*
X164810476Y-118398095D01*
X163572380Y-116731428D02*
X163572380Y-117207619D01*
X164048571Y-117255238D01*
X164000952Y-117207619D01*
X163953333Y-117112380D01*
X163953333Y-116874285D01*
X164000952Y-116779047D01*
X164048571Y-116731428D01*
X164143809Y-116683809D01*
X164381904Y-116683809D01*
X164477142Y-116731428D01*
X164524761Y-116779047D01*
X164572380Y-116874285D01*
X164572380Y-117112380D01*
X164524761Y-117207619D01*
X164477142Y-117255238D01*
X163572380Y-116064761D02*
X163572380Y-115969523D01*
X163620000Y-115874285D01*
X163667619Y-115826666D01*
X163762857Y-115779047D01*
X163953333Y-115731428D01*
X164191428Y-115731428D01*
X164381904Y-115779047D01*
X164477142Y-115826666D01*
X164524761Y-115874285D01*
X164572380Y-115969523D01*
X164572380Y-116064761D01*
X164524761Y-116160000D01*
X164477142Y-116207619D01*
X164381904Y-116255238D01*
X164191428Y-116302857D01*
X163953333Y-116302857D01*
X163762857Y-116255238D01*
X163667619Y-116207619D01*
X163620000Y-116160000D01*
X163572380Y-116064761D01*
X163572380Y-115445714D02*
X164572380Y-115112380D01*
X163572380Y-114779047D01*
D12*
X162648571Y-118743333D02*
X162672380Y-118767142D01*
X162696190Y-118838571D01*
X162696190Y-118886190D01*
X162672380Y-118957619D01*
X162624761Y-119005238D01*
X162577142Y-119029047D01*
X162481904Y-119052857D01*
X162410476Y-119052857D01*
X162315238Y-119029047D01*
X162267619Y-119005238D01*
X162220000Y-118957619D01*
X162196190Y-118886190D01*
X162196190Y-118838571D01*
X162220000Y-118767142D01*
X162243809Y-118743333D01*
X162196190Y-118290952D02*
X162196190Y-118529047D01*
X162434285Y-118552857D01*
X162410476Y-118529047D01*
X162386666Y-118481428D01*
X162386666Y-118362380D01*
X162410476Y-118314761D01*
X162434285Y-118290952D01*
X162481904Y-118267142D01*
X162600952Y-118267142D01*
X162648571Y-118290952D01*
X162672380Y-118314761D01*
X162696190Y-118362380D01*
X162696190Y-118481428D01*
X162672380Y-118529047D01*
X162648571Y-118552857D01*
%TO.C,C4*%
D11*
X149699600Y-97540320D02*
X149699600Y-98111749D01*
X149699600Y-97826035D02*
X148699600Y-97826035D01*
X148842458Y-97921273D01*
X148937696Y-98016511D01*
X148985315Y-98111749D01*
X149604362Y-97111749D02*
X149651981Y-97064130D01*
X149699600Y-97111749D01*
X149651981Y-97159368D01*
X149604362Y-97111749D01*
X149699600Y-97111749D01*
X148699600Y-96445082D02*
X148699600Y-96349844D01*
X148747220Y-96254606D01*
X148794839Y-96206987D01*
X148890077Y-96159368D01*
X149080553Y-96111749D01*
X149318648Y-96111749D01*
X149509124Y-96159368D01*
X149604362Y-96206987D01*
X149651981Y-96254606D01*
X149699600Y-96349844D01*
X149699600Y-96445082D01*
X149651981Y-96540320D01*
X149604362Y-96587940D01*
X149509124Y-96635559D01*
X149318648Y-96683178D01*
X149080553Y-96683178D01*
X148890077Y-96635559D01*
X148794839Y-96587940D01*
X148747220Y-96540320D01*
X148699600Y-96445082D01*
X149032934Y-95254606D02*
X149699600Y-95254606D01*
X149032934Y-95683178D02*
X149556743Y-95683178D01*
X149651981Y-95635559D01*
X149699600Y-95540320D01*
X149699600Y-95397463D01*
X149651981Y-95302225D01*
X149604362Y-95254606D01*
X149175791Y-94445082D02*
X149175791Y-94778416D01*
X149699600Y-94778416D02*
X148699600Y-94778416D01*
X148699600Y-94302225D01*
X148651981Y-93206987D02*
X149937696Y-94064130D01*
X148699600Y-92445082D02*
X148699600Y-92635559D01*
X148747220Y-92730797D01*
X148794839Y-92778416D01*
X148937696Y-92873654D01*
X149128172Y-92921273D01*
X149509124Y-92921273D01*
X149604362Y-92873654D01*
X149651981Y-92826035D01*
X149699600Y-92730797D01*
X149699600Y-92540320D01*
X149651981Y-92445082D01*
X149604362Y-92397463D01*
X149509124Y-92349844D01*
X149271029Y-92349844D01*
X149175791Y-92397463D01*
X149128172Y-92445082D01*
X149080553Y-92540320D01*
X149080553Y-92730797D01*
X149128172Y-92826035D01*
X149175791Y-92873654D01*
X149271029Y-92921273D01*
X149604362Y-91921273D02*
X149651981Y-91873654D01*
X149699600Y-91921273D01*
X149651981Y-91968892D01*
X149604362Y-91921273D01*
X149699600Y-91921273D01*
X148699600Y-91540320D02*
X148699600Y-90921273D01*
X149080553Y-91254606D01*
X149080553Y-91111749D01*
X149128172Y-91016511D01*
X149175791Y-90968892D01*
X149271029Y-90921273D01*
X149509124Y-90921273D01*
X149604362Y-90968892D01*
X149651981Y-91016511D01*
X149699600Y-91111749D01*
X149699600Y-91397463D01*
X149651981Y-91492701D01*
X149604362Y-91540320D01*
X148699600Y-90635559D02*
X149699600Y-90302225D01*
X148699600Y-89968892D01*
D12*
X147775791Y-94171273D02*
X147799600Y-94195082D01*
X147823410Y-94266511D01*
X147823410Y-94314130D01*
X147799600Y-94385559D01*
X147751981Y-94433178D01*
X147704362Y-94456987D01*
X147609124Y-94480797D01*
X147537696Y-94480797D01*
X147442458Y-94456987D01*
X147394839Y-94433178D01*
X147347220Y-94385559D01*
X147323410Y-94314130D01*
X147323410Y-94266511D01*
X147347220Y-94195082D01*
X147371029Y-94171273D01*
X147490077Y-93742701D02*
X147823410Y-93742701D01*
X147299600Y-93861749D02*
X147656743Y-93980797D01*
X147656743Y-93671273D01*
%TO.C,C3*%
D11*
X159508840Y-97485220D02*
X159508840Y-98056649D01*
X159508840Y-97770935D02*
X158508840Y-97770935D01*
X158651698Y-97866173D01*
X158746936Y-97961411D01*
X158794555Y-98056649D01*
X159413602Y-97056649D02*
X159461221Y-97009030D01*
X159508840Y-97056649D01*
X159461221Y-97104268D01*
X159413602Y-97056649D01*
X159508840Y-97056649D01*
X158508840Y-96389982D02*
X158508840Y-96294744D01*
X158556460Y-96199506D01*
X158604079Y-96151887D01*
X158699317Y-96104268D01*
X158889793Y-96056649D01*
X159127888Y-96056649D01*
X159318364Y-96104268D01*
X159413602Y-96151887D01*
X159461221Y-96199506D01*
X159508840Y-96294744D01*
X159508840Y-96389982D01*
X159461221Y-96485220D01*
X159413602Y-96532840D01*
X159318364Y-96580459D01*
X159127888Y-96628078D01*
X158889793Y-96628078D01*
X158699317Y-96580459D01*
X158604079Y-96532840D01*
X158556460Y-96485220D01*
X158508840Y-96389982D01*
X158842174Y-95199506D02*
X159508840Y-95199506D01*
X158842174Y-95628078D02*
X159365983Y-95628078D01*
X159461221Y-95580459D01*
X159508840Y-95485220D01*
X159508840Y-95342363D01*
X159461221Y-95247125D01*
X159413602Y-95199506D01*
X158985031Y-94389982D02*
X158985031Y-94723316D01*
X159508840Y-94723316D02*
X158508840Y-94723316D01*
X158508840Y-94247125D01*
X158461221Y-93151887D02*
X159746936Y-94009030D01*
X158508840Y-92389982D02*
X158508840Y-92580459D01*
X158556460Y-92675697D01*
X158604079Y-92723316D01*
X158746936Y-92818554D01*
X158937412Y-92866173D01*
X159318364Y-92866173D01*
X159413602Y-92818554D01*
X159461221Y-92770935D01*
X159508840Y-92675697D01*
X159508840Y-92485220D01*
X159461221Y-92389982D01*
X159413602Y-92342363D01*
X159318364Y-92294744D01*
X159080269Y-92294744D01*
X158985031Y-92342363D01*
X158937412Y-92389982D01*
X158889793Y-92485220D01*
X158889793Y-92675697D01*
X158937412Y-92770935D01*
X158985031Y-92818554D01*
X159080269Y-92866173D01*
X159413602Y-91866173D02*
X159461221Y-91818554D01*
X159508840Y-91866173D01*
X159461221Y-91913792D01*
X159413602Y-91866173D01*
X159508840Y-91866173D01*
X158508840Y-91485220D02*
X158508840Y-90866173D01*
X158889793Y-91199506D01*
X158889793Y-91056649D01*
X158937412Y-90961411D01*
X158985031Y-90913792D01*
X159080269Y-90866173D01*
X159318364Y-90866173D01*
X159413602Y-90913792D01*
X159461221Y-90961411D01*
X159508840Y-91056649D01*
X159508840Y-91342363D01*
X159461221Y-91437601D01*
X159413602Y-91485220D01*
X158508840Y-90580459D02*
X159508840Y-90247125D01*
X158508840Y-89913792D01*
D12*
X157585031Y-94116173D02*
X157608840Y-94139982D01*
X157632650Y-94211411D01*
X157632650Y-94259030D01*
X157608840Y-94330459D01*
X157561221Y-94378078D01*
X157513602Y-94401887D01*
X157418364Y-94425697D01*
X157346936Y-94425697D01*
X157251698Y-94401887D01*
X157204079Y-94378078D01*
X157156460Y-94330459D01*
X157132650Y-94259030D01*
X157132650Y-94211411D01*
X157156460Y-94139982D01*
X157180269Y-94116173D01*
X157132650Y-93949506D02*
X157132650Y-93639982D01*
X157323126Y-93806649D01*
X157323126Y-93735220D01*
X157346936Y-93687601D01*
X157370745Y-93663792D01*
X157418364Y-93639982D01*
X157537412Y-93639982D01*
X157585031Y-93663792D01*
X157608840Y-93687601D01*
X157632650Y-93735220D01*
X157632650Y-93878078D01*
X157608840Y-93925697D01*
X157585031Y-93949506D01*
%TO.C,C2*%
D11*
X148572380Y-90725714D02*
X148572380Y-91392380D01*
X148334285Y-90344761D02*
X148096190Y-91059047D01*
X148715238Y-91059047D01*
X149096190Y-91297142D02*
X149143809Y-91344761D01*
X149096190Y-91392380D01*
X149048571Y-91344761D01*
X149096190Y-91297142D01*
X149096190Y-91392380D01*
X149477142Y-90392380D02*
X150143809Y-90392380D01*
X149715238Y-91392380D01*
X150953333Y-90725714D02*
X150953333Y-91392380D01*
X150524761Y-90725714D02*
X150524761Y-91249523D01*
X150572380Y-91344761D01*
X150667619Y-91392380D01*
X150810476Y-91392380D01*
X150905714Y-91344761D01*
X150953333Y-91297142D01*
X151762857Y-90868571D02*
X151429523Y-90868571D01*
X151429523Y-91392380D02*
X151429523Y-90392380D01*
X151905714Y-90392380D01*
X153000952Y-90344761D02*
X152143809Y-91630476D01*
X153762857Y-90392380D02*
X153572380Y-90392380D01*
X153477142Y-90440000D01*
X153429523Y-90487619D01*
X153334285Y-90630476D01*
X153286666Y-90820952D01*
X153286666Y-91201904D01*
X153334285Y-91297142D01*
X153381904Y-91344761D01*
X153477142Y-91392380D01*
X153667619Y-91392380D01*
X153762857Y-91344761D01*
X153810476Y-91297142D01*
X153858095Y-91201904D01*
X153858095Y-90963809D01*
X153810476Y-90868571D01*
X153762857Y-90820952D01*
X153667619Y-90773333D01*
X153477142Y-90773333D01*
X153381904Y-90820952D01*
X153334285Y-90868571D01*
X153286666Y-90963809D01*
X154286666Y-91297142D02*
X154334285Y-91344761D01*
X154286666Y-91392380D01*
X154239047Y-91344761D01*
X154286666Y-91297142D01*
X154286666Y-91392380D01*
X154667619Y-90392380D02*
X155286666Y-90392380D01*
X154953333Y-90773333D01*
X155096190Y-90773333D01*
X155191428Y-90820952D01*
X155239047Y-90868571D01*
X155286666Y-90963809D01*
X155286666Y-91201904D01*
X155239047Y-91297142D01*
X155191428Y-91344761D01*
X155096190Y-91392380D01*
X154810476Y-91392380D01*
X154715238Y-91344761D01*
X154667619Y-91297142D01*
X155572380Y-90392380D02*
X155905714Y-91392380D01*
X156239047Y-90392380D01*
D12*
X152036666Y-89468571D02*
X152012857Y-89492380D01*
X151941428Y-89516190D01*
X151893809Y-89516190D01*
X151822380Y-89492380D01*
X151774761Y-89444761D01*
X151750952Y-89397142D01*
X151727142Y-89301904D01*
X151727142Y-89230476D01*
X151750952Y-89135238D01*
X151774761Y-89087619D01*
X151822380Y-89040000D01*
X151893809Y-89016190D01*
X151941428Y-89016190D01*
X152012857Y-89040000D01*
X152036666Y-89063809D01*
X152227142Y-89063809D02*
X152250952Y-89040000D01*
X152298571Y-89016190D01*
X152417619Y-89016190D01*
X152465238Y-89040000D01*
X152489047Y-89063809D01*
X152512857Y-89111428D01*
X152512857Y-89159047D01*
X152489047Y-89230476D01*
X152203333Y-89516190D01*
X152512857Y-89516190D01*
%TO.C,C1*%
D11*
X145329694Y-91750459D02*
X145996360Y-91750459D01*
X144948741Y-91988554D02*
X145663027Y-92226649D01*
X145663027Y-91607601D01*
X145901122Y-91226649D02*
X145948741Y-91179030D01*
X145996360Y-91226649D01*
X145948741Y-91274268D01*
X145901122Y-91226649D01*
X145996360Y-91226649D01*
X144996360Y-90845697D02*
X144996360Y-90179030D01*
X145996360Y-90607601D01*
X145329694Y-89369506D02*
X145996360Y-89369506D01*
X145329694Y-89798078D02*
X145853503Y-89798078D01*
X145948741Y-89750459D01*
X145996360Y-89655220D01*
X145996360Y-89512363D01*
X145948741Y-89417125D01*
X145901122Y-89369506D01*
X145472551Y-88559982D02*
X145472551Y-88893316D01*
X145996360Y-88893316D02*
X144996360Y-88893316D01*
X144996360Y-88417125D01*
X144948741Y-87321887D02*
X146234456Y-88179030D01*
X144996360Y-86559982D02*
X144996360Y-86750459D01*
X145043980Y-86845697D01*
X145091599Y-86893316D01*
X145234456Y-86988554D01*
X145424932Y-87036173D01*
X145805884Y-87036173D01*
X145901122Y-86988554D01*
X145948741Y-86940935D01*
X145996360Y-86845697D01*
X145996360Y-86655220D01*
X145948741Y-86559982D01*
X145901122Y-86512363D01*
X145805884Y-86464744D01*
X145567789Y-86464744D01*
X145472551Y-86512363D01*
X145424932Y-86559982D01*
X145377313Y-86655220D01*
X145377313Y-86845697D01*
X145424932Y-86940935D01*
X145472551Y-86988554D01*
X145567789Y-87036173D01*
X145901122Y-86036173D02*
X145948741Y-85988554D01*
X145996360Y-86036173D01*
X145948741Y-86083792D01*
X145901122Y-86036173D01*
X145996360Y-86036173D01*
X144996360Y-85655220D02*
X144996360Y-85036173D01*
X145377313Y-85369506D01*
X145377313Y-85226649D01*
X145424932Y-85131411D01*
X145472551Y-85083792D01*
X145567789Y-85036173D01*
X145805884Y-85036173D01*
X145901122Y-85083792D01*
X145948741Y-85131411D01*
X145996360Y-85226649D01*
X145996360Y-85512363D01*
X145948741Y-85607601D01*
X145901122Y-85655220D01*
X144996360Y-84750459D02*
X145996360Y-84417125D01*
X144996360Y-84083792D01*
D12*
X144072551Y-88286173D02*
X144096360Y-88309982D01*
X144120170Y-88381411D01*
X144120170Y-88429030D01*
X144096360Y-88500459D01*
X144048741Y-88548078D01*
X144001122Y-88571887D01*
X143905884Y-88595697D01*
X143834456Y-88595697D01*
X143739218Y-88571887D01*
X143691599Y-88548078D01*
X143643980Y-88500459D01*
X143620170Y-88429030D01*
X143620170Y-88381411D01*
X143643980Y-88309982D01*
X143667789Y-88286173D01*
X144120170Y-87809982D02*
X144120170Y-88095697D01*
X144120170Y-87952840D02*
X143620170Y-87952840D01*
X143691599Y-88000459D01*
X143739218Y-88048078D01*
X143763027Y-88095697D01*
%TD*%
M02*
