%FSLAX45Y45*%
G04 Gerber Fmt 4.5, Leading zero omitted, Abs format (unit mm)*
G04 Created by KiCad (PCBNEW (5.1.10)-1) date 2021-07-02 09:23:47*
%MOMM*%
%LPD*%
G01*
G04 APERTURE LIST*
%TA.AperFunction,Profile*%
%ADD10C,0.100000*%
%TD*%
%ADD11C,0.200000*%
%ADD12C,0.300000*%
G04 APERTURE END LIST*
D10*
X12558000Y-7323000D02*
X13360400Y-7322312D01*
X12553000Y-12532000D02*
X12557828Y-7323000D01*
X17214000Y-12530000D02*
X12553000Y-12532000D01*
X17214000Y-7327000D02*
X17214000Y-12530000D01*
X13360400Y-7322312D02*
X17214000Y-7327000D01*
D11*
X13848118Y-9281000D02*
X13888118Y-9321000D01*
X13888118Y-9281000D02*
X13848118Y-9321000D01*
X14191000Y-11893000D02*
X14231000Y-11933000D01*
X14231000Y-11893000D02*
X14191000Y-11933000D01*
X14286000Y-11483000D02*
X14326000Y-11523000D01*
X14326000Y-11483000D02*
X14286000Y-11523000D01*
X15120444Y-9621282D02*
X15160444Y-9661282D01*
X15160444Y-9621282D02*
X15120444Y-9661282D01*
X15373000Y-12114000D02*
X15413000Y-12154000D01*
X15413000Y-12114000D02*
X15373000Y-12154000D01*
X15456738Y-9619158D02*
X15496738Y-9659158D01*
X15496738Y-9619158D02*
X15456738Y-9659158D01*
X16224328Y-10490000D02*
X16264328Y-10530000D01*
X16264328Y-10490000D02*
X16224328Y-10530000D01*
X16487000Y-11982000D02*
X16527000Y-12022000D01*
X16527000Y-11982000D02*
X16487000Y-12022000D01*
X16488000Y-12364000D02*
X16528000Y-12404000D01*
X16528000Y-12364000D02*
X16488000Y-12404000D01*
X16489000Y-11675668D02*
X16529000Y-11715668D01*
X16529000Y-11675668D02*
X16489000Y-11715668D01*
X16490000Y-11287000D02*
X16530000Y-11327000D01*
X16530000Y-11287000D02*
X16490000Y-11327000D01*
X12705500Y-8879500D02*
G75*
G03*
X12705500Y-8879500I-27500J0D01*
G01*
X12710500Y-8862000D02*
X12645500Y-8862000D01*
X12710500Y-8897000D02*
X12645500Y-8897000D01*
X12645500Y-8862000D02*
G75*
G03*
X12645500Y-8897000I0J-17500D01*
G01*
X12710500Y-8897000D02*
G75*
G03*
X12710500Y-8862000I0J17500D01*
G01*
X12705500Y-9654500D02*
G75*
G03*
X12705500Y-9654500I-27500J0D01*
G01*
X12710500Y-9637000D02*
X12645500Y-9637000D01*
X12710500Y-9672000D02*
X12645500Y-9672000D01*
X12645500Y-9637000D02*
G75*
G03*
X12645500Y-9672000I0J-17500D01*
G01*
X12710500Y-9672000D02*
G75*
G03*
X12710500Y-9637000I0J17500D01*
G01*
X13596000Y-8828000D02*
X13596000Y-8898000D01*
X13561000Y-8863000D02*
X13631000Y-8863000D01*
X13597000Y-8415499D02*
X13597000Y-8485499D01*
X13562000Y-8450499D02*
X13632000Y-8450499D01*
X13867638Y-9092490D02*
X13867638Y-9162490D01*
X13832638Y-9127490D02*
X13902638Y-9127490D01*
X15110000Y-9094000D02*
X15110000Y-9164000D01*
X15075000Y-9129000D02*
X15145000Y-9129000D01*
X12836517Y-8569517D02*
X12836517Y-8516483D01*
X12783483Y-8516483D01*
X12783483Y-8569517D01*
X12836517Y-8569517D01*
X13036517Y-8569517D02*
X13036517Y-8516483D01*
X12983483Y-8516483D01*
X12983483Y-8569517D01*
X13036517Y-8569517D01*
X13058000Y-8937000D02*
X13100500Y-8894500D01*
X13058000Y-8852000D01*
X13015500Y-8894500D01*
X13058000Y-8937000D01*
X13085500Y-8862000D02*
X13030500Y-8862000D01*
X13085500Y-8927000D02*
X13030500Y-8927000D01*
X13030500Y-8862000D02*
G75*
G03*
X13030500Y-8927000I0J-32500D01*
G01*
X13085500Y-8927000D02*
G75*
G03*
X13085500Y-8862000I0J32500D01*
G01*
X13058000Y-9682000D02*
X13100500Y-9639500D01*
X13058000Y-9597000D01*
X13015500Y-9639500D01*
X13058000Y-9682000D01*
X13085500Y-9607000D02*
X13030500Y-9607000D01*
X13085500Y-9672000D02*
X13030500Y-9672000D01*
X13030500Y-9607000D02*
G75*
G03*
X13030500Y-9672000I0J-32500D01*
G01*
X13085500Y-9672000D02*
G75*
G03*
X13085500Y-9607000I0J32500D01*
G01*
X12653000Y-10122000D02*
X12753000Y-10222000D01*
X12753000Y-10122000D02*
X12653000Y-10222000D01*
X12753000Y-10172000D02*
G75*
G03*
X12753000Y-10172000I-50000J0D01*
G01*
X12907000Y-10122000D02*
X13007000Y-10222000D01*
X13007000Y-10122000D02*
X12907000Y-10222000D01*
X13007000Y-10172000D02*
G75*
G03*
X13007000Y-10172000I-50000J0D01*
G01*
X13161000Y-10122000D02*
X13261000Y-10222000D01*
X13261000Y-10122000D02*
X13161000Y-10222000D01*
X13261000Y-10172000D02*
G75*
G03*
X13261000Y-10172000I-50000J0D01*
G01*
X13234708Y-7654836D02*
X13334708Y-7754836D01*
X13334708Y-7654836D02*
X13234708Y-7754836D01*
X13334708Y-7704836D02*
G75*
G03*
X13334708Y-7704836I-50000J0D01*
G01*
X13415000Y-10122000D02*
X13515000Y-10222000D01*
X13515000Y-10122000D02*
X13415000Y-10222000D01*
X13515000Y-10172000D02*
G75*
G03*
X13515000Y-10172000I-50000J0D01*
G01*
X13444000Y-10971000D02*
X13544000Y-11071000D01*
X13544000Y-10971000D02*
X13444000Y-11071000D01*
X13544000Y-11021000D02*
G75*
G03*
X13544000Y-11021000I-50000J0D01*
G01*
X13444000Y-11225000D02*
X13544000Y-11325000D01*
X13544000Y-11225000D02*
X13444000Y-11325000D01*
X13544000Y-11275000D02*
G75*
G03*
X13544000Y-11275000I-50000J0D01*
G01*
X13444000Y-11479000D02*
X13544000Y-11579000D01*
X13544000Y-11479000D02*
X13444000Y-11579000D01*
X13544000Y-11529000D02*
G75*
G03*
X13544000Y-11529000I-50000J0D01*
G01*
X13444000Y-11733000D02*
X13544000Y-11833000D01*
X13544000Y-11733000D02*
X13444000Y-11833000D01*
X13544000Y-11783000D02*
G75*
G03*
X13544000Y-11783000I-50000J0D01*
G01*
X13444000Y-11987000D02*
X13544000Y-12087000D01*
X13544000Y-11987000D02*
X13444000Y-12087000D01*
X13544000Y-12037000D02*
G75*
G03*
X13544000Y-12037000I-50000J0D01*
G01*
X13444000Y-12241000D02*
X13544000Y-12341000D01*
X13544000Y-12241000D02*
X13444000Y-12341000D01*
X13544000Y-12291000D02*
G75*
G03*
X13544000Y-12291000I-50000J0D01*
G01*
X13488708Y-7654836D02*
X13588708Y-7754836D01*
X13588708Y-7654836D02*
X13488708Y-7754836D01*
X13588708Y-7704836D02*
G75*
G03*
X13588708Y-7704836I-50000J0D01*
G01*
X13669000Y-10122000D02*
X13769000Y-10222000D01*
X13769000Y-10122000D02*
X13669000Y-10222000D01*
X13769000Y-10172000D02*
G75*
G03*
X13769000Y-10172000I-50000J0D01*
G01*
X13923000Y-10122000D02*
X14023000Y-10222000D01*
X14023000Y-10122000D02*
X13923000Y-10222000D01*
X14023000Y-10172000D02*
G75*
G03*
X14023000Y-10172000I-50000J0D01*
G01*
X14177000Y-10122000D02*
X14277000Y-10222000D01*
X14277000Y-10122000D02*
X14177000Y-10222000D01*
X14277000Y-10172000D02*
G75*
G03*
X14277000Y-10172000I-50000J0D01*
G01*
X14431000Y-10122000D02*
X14531000Y-10222000D01*
X14531000Y-10122000D02*
X14431000Y-10222000D01*
X14531000Y-10172000D02*
G75*
G03*
X14531000Y-10172000I-50000J0D01*
G01*
X14585988Y-7845336D02*
X14685988Y-7945336D01*
X14685988Y-7845336D02*
X14585988Y-7945336D01*
X14685988Y-7895336D02*
G75*
G03*
X14685988Y-7895336I-50000J0D01*
G01*
X14839988Y-7845336D02*
X14939988Y-7945336D01*
X14939988Y-7845336D02*
X14839988Y-7945336D01*
X14939988Y-7895336D02*
G75*
G03*
X14939988Y-7895336I-50000J0D01*
G01*
X15091000Y-10122700D02*
X15191000Y-10222700D01*
X15191000Y-10122700D02*
X15091000Y-10222700D01*
X15191000Y-10172700D02*
G75*
G03*
X15191000Y-10172700I-50000J0D01*
G01*
X15093988Y-7845336D02*
X15193988Y-7945336D01*
X15193988Y-7845336D02*
X15093988Y-7945336D01*
X15193988Y-7895336D02*
G75*
G03*
X15193988Y-7895336I-50000J0D01*
G01*
X15345000Y-10122700D02*
X15445000Y-10222700D01*
X15445000Y-10122700D02*
X15345000Y-10222700D01*
X15445000Y-10172700D02*
G75*
G03*
X15445000Y-10172700I-50000J0D01*
G01*
X15599000Y-10122700D02*
X15699000Y-10222700D01*
X15699000Y-10122700D02*
X15599000Y-10222700D01*
X15699000Y-10172700D02*
G75*
G03*
X15699000Y-10172700I-50000J0D01*
G01*
X15853000Y-10122700D02*
X15953000Y-10222700D01*
X15953000Y-10122700D02*
X15853000Y-10222700D01*
X15953000Y-10172700D02*
G75*
G03*
X15953000Y-10172700I-50000J0D01*
G01*
X16107000Y-10122700D02*
X16207000Y-10222700D01*
X16207000Y-10122700D02*
X16107000Y-10222700D01*
X16207000Y-10172700D02*
G75*
G03*
X16207000Y-10172700I-50000J0D01*
G01*
X16361000Y-10122700D02*
X16461000Y-10222700D01*
X16461000Y-10122700D02*
X16361000Y-10222700D01*
X16461000Y-10172700D02*
G75*
G03*
X16461000Y-10172700I-50000J0D01*
G01*
X16615000Y-10122700D02*
X16715000Y-10222700D01*
X16715000Y-10122700D02*
X16615000Y-10222700D01*
X16715000Y-10172700D02*
G75*
G03*
X16715000Y-10172700I-50000J0D01*
G01*
X12618834Y-12165444D02*
X12918834Y-12465444D01*
X12918834Y-12165444D02*
X12618834Y-12465444D01*
X12768834Y-12165444D02*
X12768834Y-12465444D01*
X12618834Y-12315444D02*
X12918834Y-12315444D01*
X12623914Y-7387704D02*
X12923914Y-7687704D01*
X12923914Y-7387704D02*
X12623914Y-7687704D01*
X12773914Y-7387704D02*
X12773914Y-7687704D01*
X12623914Y-7537704D02*
X12923914Y-7537704D01*
X16848188Y-7392022D02*
X17148188Y-7692022D01*
X17148188Y-7392022D02*
X16848188Y-7692022D01*
X16998188Y-7392022D02*
X16998188Y-7692022D01*
X16848188Y-7542022D02*
X17148188Y-7542022D01*
X16849458Y-12164682D02*
X17149458Y-12464682D01*
X17149458Y-12164682D02*
X16849458Y-12464682D01*
X16999458Y-12164682D02*
X16999458Y-12464682D01*
X16849458Y-12314682D02*
X17149458Y-12314682D01*
D12*
X12834428Y-13002714D02*
X12834428Y-12702714D01*
X12905857Y-12702714D01*
X12948714Y-12717000D01*
X12977286Y-12745571D01*
X12991571Y-12774143D01*
X13005857Y-12831286D01*
X13005857Y-12874143D01*
X12991571Y-12931286D01*
X12977286Y-12959857D01*
X12948714Y-12988429D01*
X12905857Y-13002714D01*
X12834428Y-13002714D01*
X13134428Y-13002714D02*
X13134428Y-12802714D01*
X13134428Y-12859857D02*
X13148714Y-12831286D01*
X13163000Y-12817000D01*
X13191571Y-12802714D01*
X13220143Y-12802714D01*
X13320143Y-13002714D02*
X13320143Y-12802714D01*
X13320143Y-12702714D02*
X13305857Y-12717000D01*
X13320143Y-12731286D01*
X13334428Y-12717000D01*
X13320143Y-12702714D01*
X13320143Y-12731286D01*
X13505857Y-13002714D02*
X13477286Y-12988429D01*
X13463000Y-12959857D01*
X13463000Y-12702714D01*
X13663000Y-13002714D02*
X13634428Y-12988429D01*
X13620143Y-12959857D01*
X13620143Y-12702714D01*
X14005857Y-13002714D02*
X14005857Y-12702714D01*
X14105857Y-12917000D01*
X14205857Y-12702714D01*
X14205857Y-13002714D01*
X14477286Y-13002714D02*
X14477286Y-12845571D01*
X14463000Y-12817000D01*
X14434428Y-12802714D01*
X14377286Y-12802714D01*
X14348714Y-12817000D01*
X14477286Y-12988429D02*
X14448714Y-13002714D01*
X14377286Y-13002714D01*
X14348714Y-12988429D01*
X14334428Y-12959857D01*
X14334428Y-12931286D01*
X14348714Y-12902714D01*
X14377286Y-12888429D01*
X14448714Y-12888429D01*
X14477286Y-12874143D01*
X14620143Y-12802714D02*
X14620143Y-13102714D01*
X14620143Y-12817000D02*
X14648714Y-12802714D01*
X14705857Y-12802714D01*
X14734428Y-12817000D01*
X14748714Y-12831286D01*
X14763000Y-12859857D01*
X14763000Y-12945571D01*
X14748714Y-12974143D01*
X14734428Y-12988429D01*
X14705857Y-13002714D01*
X14648714Y-13002714D01*
X14620143Y-12988429D01*
X14891571Y-12974143D02*
X14905857Y-12988429D01*
X14891571Y-13002714D01*
X14877286Y-12988429D01*
X14891571Y-12974143D01*
X14891571Y-13002714D01*
X14891571Y-12817000D02*
X14905857Y-12831286D01*
X14891571Y-12845571D01*
X14877286Y-12831286D01*
X14891571Y-12817000D01*
X14891571Y-12845571D01*
X12508000Y-13477000D02*
X12548000Y-13517000D01*
X12548000Y-13477000D02*
X12508000Y-13517000D01*
X12891571Y-13332714D02*
X12920143Y-13332714D01*
X12948714Y-13347000D01*
X12963000Y-13361286D01*
X12977286Y-13389857D01*
X12991571Y-13447000D01*
X12991571Y-13518429D01*
X12977286Y-13575571D01*
X12963000Y-13604143D01*
X12948714Y-13618429D01*
X12920143Y-13632714D01*
X12891571Y-13632714D01*
X12863000Y-13618429D01*
X12848714Y-13604143D01*
X12834428Y-13575571D01*
X12820143Y-13518429D01*
X12820143Y-13447000D01*
X12834428Y-13389857D01*
X12848714Y-13361286D01*
X12863000Y-13347000D01*
X12891571Y-13332714D01*
X13120143Y-13604143D02*
X13134428Y-13618429D01*
X13120143Y-13632714D01*
X13105857Y-13618429D01*
X13120143Y-13604143D01*
X13120143Y-13632714D01*
X13391571Y-13432714D02*
X13391571Y-13632714D01*
X13320143Y-13318429D02*
X13248714Y-13532714D01*
X13434428Y-13532714D01*
X13605857Y-13332714D02*
X13634428Y-13332714D01*
X13663000Y-13347000D01*
X13677286Y-13361286D01*
X13691571Y-13389857D01*
X13705857Y-13447000D01*
X13705857Y-13518429D01*
X13691571Y-13575571D01*
X13677286Y-13604143D01*
X13663000Y-13618429D01*
X13634428Y-13632714D01*
X13605857Y-13632714D01*
X13577286Y-13618429D01*
X13563000Y-13604143D01*
X13548714Y-13575571D01*
X13534428Y-13518429D01*
X13534428Y-13447000D01*
X13548714Y-13389857D01*
X13563000Y-13361286D01*
X13577286Y-13347000D01*
X13605857Y-13332714D01*
X13891571Y-13332714D02*
X13920143Y-13332714D01*
X13948714Y-13347000D01*
X13963000Y-13361286D01*
X13977286Y-13389857D01*
X13991571Y-13447000D01*
X13991571Y-13518429D01*
X13977286Y-13575571D01*
X13963000Y-13604143D01*
X13948714Y-13618429D01*
X13920143Y-13632714D01*
X13891571Y-13632714D01*
X13863000Y-13618429D01*
X13848714Y-13604143D01*
X13834428Y-13575571D01*
X13820143Y-13518429D01*
X13820143Y-13447000D01*
X13834428Y-13389857D01*
X13848714Y-13361286D01*
X13863000Y-13347000D01*
X13891571Y-13332714D01*
X14120143Y-13632714D02*
X14120143Y-13432714D01*
X14120143Y-13461286D02*
X14134428Y-13447000D01*
X14163000Y-13432714D01*
X14205857Y-13432714D01*
X14234428Y-13447000D01*
X14248714Y-13475571D01*
X14248714Y-13632714D01*
X14248714Y-13475571D02*
X14263000Y-13447000D01*
X14291571Y-13432714D01*
X14334428Y-13432714D01*
X14363000Y-13447000D01*
X14377286Y-13475571D01*
X14377286Y-13632714D01*
X14520143Y-13632714D02*
X14520143Y-13432714D01*
X14520143Y-13461286D02*
X14534428Y-13447000D01*
X14563000Y-13432714D01*
X14605857Y-13432714D01*
X14634428Y-13447000D01*
X14648714Y-13475571D01*
X14648714Y-13632714D01*
X14648714Y-13475571D02*
X14663000Y-13447000D01*
X14691571Y-13432714D01*
X14734428Y-13432714D01*
X14763000Y-13447000D01*
X14777286Y-13475571D01*
X14777286Y-13632714D01*
X15363000Y-13318429D02*
X15105857Y-13704143D01*
X15748714Y-13332714D02*
X15777286Y-13332714D01*
X15805857Y-13347000D01*
X15820143Y-13361286D01*
X15834428Y-13389857D01*
X15848714Y-13447000D01*
X15848714Y-13518429D01*
X15834428Y-13575571D01*
X15820143Y-13604143D01*
X15805857Y-13618429D01*
X15777286Y-13632714D01*
X15748714Y-13632714D01*
X15720143Y-13618429D01*
X15705857Y-13604143D01*
X15691571Y-13575571D01*
X15677286Y-13518429D01*
X15677286Y-13447000D01*
X15691571Y-13389857D01*
X15705857Y-13361286D01*
X15720143Y-13347000D01*
X15748714Y-13332714D01*
X15977286Y-13604143D02*
X15991571Y-13618429D01*
X15977286Y-13632714D01*
X15963000Y-13618429D01*
X15977286Y-13604143D01*
X15977286Y-13632714D01*
X16177286Y-13332714D02*
X16205857Y-13332714D01*
X16234428Y-13347000D01*
X16248714Y-13361286D01*
X16263000Y-13389857D01*
X16277286Y-13447000D01*
X16277286Y-13518429D01*
X16263000Y-13575571D01*
X16248714Y-13604143D01*
X16234428Y-13618429D01*
X16205857Y-13632714D01*
X16177286Y-13632714D01*
X16148714Y-13618429D01*
X16134428Y-13604143D01*
X16120143Y-13575571D01*
X16105857Y-13518429D01*
X16105857Y-13447000D01*
X16120143Y-13389857D01*
X16134428Y-13361286D01*
X16148714Y-13347000D01*
X16177286Y-13332714D01*
X16563000Y-13632714D02*
X16391571Y-13632714D01*
X16477286Y-13632714D02*
X16477286Y-13332714D01*
X16448714Y-13375571D01*
X16420143Y-13404143D01*
X16391571Y-13418429D01*
X16834428Y-13332714D02*
X16691571Y-13332714D01*
X16677286Y-13475571D01*
X16691571Y-13461286D01*
X16720143Y-13447000D01*
X16791571Y-13447000D01*
X16820143Y-13461286D01*
X16834428Y-13475571D01*
X16848714Y-13504143D01*
X16848714Y-13575571D01*
X16834428Y-13604143D01*
X16820143Y-13618429D01*
X16791571Y-13632714D01*
X16720143Y-13632714D01*
X16691571Y-13618429D01*
X16677286Y-13604143D01*
X16948714Y-13332714D02*
X17148714Y-13332714D01*
X17020143Y-13632714D01*
X17248714Y-13332714D02*
X17248714Y-13389857D01*
X17363000Y-13332714D02*
X17363000Y-13389857D01*
X17805857Y-13747000D02*
X17791571Y-13732714D01*
X17763000Y-13689857D01*
X17748714Y-13661286D01*
X17734428Y-13618429D01*
X17720143Y-13547000D01*
X17720143Y-13489857D01*
X17734428Y-13418429D01*
X17748714Y-13375571D01*
X17763000Y-13347000D01*
X17791571Y-13304143D01*
X17805857Y-13289857D01*
X18077286Y-13632714D02*
X17905857Y-13632714D01*
X17991571Y-13632714D02*
X17991571Y-13332714D01*
X17963000Y-13375571D01*
X17934428Y-13404143D01*
X17905857Y-13418429D01*
X18363000Y-13632714D02*
X18191571Y-13632714D01*
X18277286Y-13632714D02*
X18277286Y-13332714D01*
X18248714Y-13375571D01*
X18220143Y-13404143D01*
X18191571Y-13418429D01*
X18720143Y-13632714D02*
X18720143Y-13332714D01*
X18848714Y-13632714D02*
X18848714Y-13475571D01*
X18834428Y-13447000D01*
X18805857Y-13432714D01*
X18763000Y-13432714D01*
X18734428Y-13447000D01*
X18720143Y-13461286D01*
X19034428Y-13632714D02*
X19005857Y-13618429D01*
X18991571Y-13604143D01*
X18977286Y-13575571D01*
X18977286Y-13489857D01*
X18991571Y-13461286D01*
X19005857Y-13447000D01*
X19034428Y-13432714D01*
X19077286Y-13432714D01*
X19105857Y-13447000D01*
X19120143Y-13461286D01*
X19134428Y-13489857D01*
X19134428Y-13575571D01*
X19120143Y-13604143D01*
X19105857Y-13618429D01*
X19077286Y-13632714D01*
X19034428Y-13632714D01*
X19305857Y-13632714D02*
X19277286Y-13618429D01*
X19263000Y-13589857D01*
X19263000Y-13332714D01*
X19534428Y-13618429D02*
X19505857Y-13632714D01*
X19448714Y-13632714D01*
X19420143Y-13618429D01*
X19405857Y-13589857D01*
X19405857Y-13475571D01*
X19420143Y-13447000D01*
X19448714Y-13432714D01*
X19505857Y-13432714D01*
X19534428Y-13447000D01*
X19548714Y-13475571D01*
X19548714Y-13504143D01*
X19405857Y-13532714D01*
X19663000Y-13618429D02*
X19691571Y-13632714D01*
X19748714Y-13632714D01*
X19777286Y-13618429D01*
X19791571Y-13589857D01*
X19791571Y-13575571D01*
X19777286Y-13547000D01*
X19748714Y-13532714D01*
X19705857Y-13532714D01*
X19677286Y-13518429D01*
X19663000Y-13489857D01*
X19663000Y-13475571D01*
X19677286Y-13447000D01*
X19705857Y-13432714D01*
X19748714Y-13432714D01*
X19777286Y-13447000D01*
X19891571Y-13747000D02*
X19905857Y-13732714D01*
X19934428Y-13689857D01*
X19948714Y-13661286D01*
X19963000Y-13618429D01*
X19977286Y-13547000D01*
X19977286Y-13489857D01*
X19963000Y-13418429D01*
X19948714Y-13375571D01*
X19934428Y-13347000D01*
X19905857Y-13304143D01*
X19891571Y-13289857D01*
X12548000Y-13893000D02*
G75*
G03*
X12548000Y-13893000I-27500J0D01*
G01*
X12891571Y-13728714D02*
X12920143Y-13728714D01*
X12948714Y-13743000D01*
X12963000Y-13757286D01*
X12977286Y-13785857D01*
X12991571Y-13843000D01*
X12991571Y-13914429D01*
X12977286Y-13971571D01*
X12963000Y-14000143D01*
X12948714Y-14014429D01*
X12920143Y-14028714D01*
X12891571Y-14028714D01*
X12863000Y-14014429D01*
X12848714Y-14000143D01*
X12834428Y-13971571D01*
X12820143Y-13914429D01*
X12820143Y-13843000D01*
X12834428Y-13785857D01*
X12848714Y-13757286D01*
X12863000Y-13743000D01*
X12891571Y-13728714D01*
X13120143Y-14000143D02*
X13134428Y-14014429D01*
X13120143Y-14028714D01*
X13105857Y-14014429D01*
X13120143Y-14000143D01*
X13120143Y-14028714D01*
X13405857Y-13728714D02*
X13263000Y-13728714D01*
X13248714Y-13871571D01*
X13263000Y-13857286D01*
X13291571Y-13843000D01*
X13363000Y-13843000D01*
X13391571Y-13857286D01*
X13405857Y-13871571D01*
X13420143Y-13900143D01*
X13420143Y-13971571D01*
X13405857Y-14000143D01*
X13391571Y-14014429D01*
X13363000Y-14028714D01*
X13291571Y-14028714D01*
X13263000Y-14014429D01*
X13248714Y-14000143D01*
X13691571Y-13728714D02*
X13548714Y-13728714D01*
X13534428Y-13871571D01*
X13548714Y-13857286D01*
X13577286Y-13843000D01*
X13648714Y-13843000D01*
X13677286Y-13857286D01*
X13691571Y-13871571D01*
X13705857Y-13900143D01*
X13705857Y-13971571D01*
X13691571Y-14000143D01*
X13677286Y-14014429D01*
X13648714Y-14028714D01*
X13577286Y-14028714D01*
X13548714Y-14014429D01*
X13534428Y-14000143D01*
X13891571Y-13728714D02*
X13920143Y-13728714D01*
X13948714Y-13743000D01*
X13963000Y-13757286D01*
X13977286Y-13785857D01*
X13991571Y-13843000D01*
X13991571Y-13914429D01*
X13977286Y-13971571D01*
X13963000Y-14000143D01*
X13948714Y-14014429D01*
X13920143Y-14028714D01*
X13891571Y-14028714D01*
X13863000Y-14014429D01*
X13848714Y-14000143D01*
X13834428Y-13971571D01*
X13820143Y-13914429D01*
X13820143Y-13843000D01*
X13834428Y-13785857D01*
X13848714Y-13757286D01*
X13863000Y-13743000D01*
X13891571Y-13728714D01*
X14120143Y-14028714D02*
X14120143Y-13828714D01*
X14120143Y-13857286D02*
X14134428Y-13843000D01*
X14163000Y-13828714D01*
X14205857Y-13828714D01*
X14234428Y-13843000D01*
X14248714Y-13871571D01*
X14248714Y-14028714D01*
X14248714Y-13871571D02*
X14263000Y-13843000D01*
X14291571Y-13828714D01*
X14334428Y-13828714D01*
X14363000Y-13843000D01*
X14377286Y-13871571D01*
X14377286Y-14028714D01*
X14520143Y-14028714D02*
X14520143Y-13828714D01*
X14520143Y-13857286D02*
X14534428Y-13843000D01*
X14563000Y-13828714D01*
X14605857Y-13828714D01*
X14634428Y-13843000D01*
X14648714Y-13871571D01*
X14648714Y-14028714D01*
X14648714Y-13871571D02*
X14663000Y-13843000D01*
X14691571Y-13828714D01*
X14734428Y-13828714D01*
X14763000Y-13843000D01*
X14777286Y-13871571D01*
X14777286Y-14028714D01*
X15363000Y-13714429D02*
X15105857Y-14100143D01*
X15748714Y-13728714D02*
X15777286Y-13728714D01*
X15805857Y-13743000D01*
X15820143Y-13757286D01*
X15834428Y-13785857D01*
X15848714Y-13843000D01*
X15848714Y-13914429D01*
X15834428Y-13971571D01*
X15820143Y-14000143D01*
X15805857Y-14014429D01*
X15777286Y-14028714D01*
X15748714Y-14028714D01*
X15720143Y-14014429D01*
X15705857Y-14000143D01*
X15691571Y-13971571D01*
X15677286Y-13914429D01*
X15677286Y-13843000D01*
X15691571Y-13785857D01*
X15705857Y-13757286D01*
X15720143Y-13743000D01*
X15748714Y-13728714D01*
X15977286Y-14000143D02*
X15991571Y-14014429D01*
X15977286Y-14028714D01*
X15963000Y-14014429D01*
X15977286Y-14000143D01*
X15977286Y-14028714D01*
X16177286Y-13728714D02*
X16205857Y-13728714D01*
X16234428Y-13743000D01*
X16248714Y-13757286D01*
X16263000Y-13785857D01*
X16277286Y-13843000D01*
X16277286Y-13914429D01*
X16263000Y-13971571D01*
X16248714Y-14000143D01*
X16234428Y-14014429D01*
X16205857Y-14028714D01*
X16177286Y-14028714D01*
X16148714Y-14014429D01*
X16134428Y-14000143D01*
X16120143Y-13971571D01*
X16105857Y-13914429D01*
X16105857Y-13843000D01*
X16120143Y-13785857D01*
X16134428Y-13757286D01*
X16148714Y-13743000D01*
X16177286Y-13728714D01*
X16391571Y-13757286D02*
X16405857Y-13743000D01*
X16434428Y-13728714D01*
X16505857Y-13728714D01*
X16534428Y-13743000D01*
X16548714Y-13757286D01*
X16563000Y-13785857D01*
X16563000Y-13814429D01*
X16548714Y-13857286D01*
X16377286Y-14028714D01*
X16563000Y-14028714D01*
X16848714Y-14028714D02*
X16677286Y-14028714D01*
X16763000Y-14028714D02*
X16763000Y-13728714D01*
X16734428Y-13771571D01*
X16705857Y-13800143D01*
X16677286Y-13814429D01*
X16948714Y-13728714D02*
X17148714Y-13728714D01*
X17020143Y-14028714D01*
X17248714Y-13728714D02*
X17248714Y-13785857D01*
X17363000Y-13728714D02*
X17363000Y-13785857D01*
X17805857Y-14143000D02*
X17791571Y-14128714D01*
X17763000Y-14085857D01*
X17748714Y-14057286D01*
X17734428Y-14014429D01*
X17720143Y-13943000D01*
X17720143Y-13885857D01*
X17734428Y-13814429D01*
X17748714Y-13771571D01*
X17763000Y-13743000D01*
X17791571Y-13700143D01*
X17805857Y-13685857D01*
X17977286Y-13728714D02*
X18005857Y-13728714D01*
X18034428Y-13743000D01*
X18048714Y-13757286D01*
X18063000Y-13785857D01*
X18077286Y-13843000D01*
X18077286Y-13914429D01*
X18063000Y-13971571D01*
X18048714Y-14000143D01*
X18034428Y-14014429D01*
X18005857Y-14028714D01*
X17977286Y-14028714D01*
X17948714Y-14014429D01*
X17934428Y-14000143D01*
X17920143Y-13971571D01*
X17905857Y-13914429D01*
X17905857Y-13843000D01*
X17920143Y-13785857D01*
X17934428Y-13757286D01*
X17948714Y-13743000D01*
X17977286Y-13728714D01*
X18434428Y-14028714D02*
X18434428Y-13728714D01*
X18563000Y-14028714D02*
X18563000Y-13871571D01*
X18548714Y-13843000D01*
X18520143Y-13828714D01*
X18477286Y-13828714D01*
X18448714Y-13843000D01*
X18434428Y-13857286D01*
X18748714Y-14028714D02*
X18720143Y-14014429D01*
X18705857Y-14000143D01*
X18691571Y-13971571D01*
X18691571Y-13885857D01*
X18705857Y-13857286D01*
X18720143Y-13843000D01*
X18748714Y-13828714D01*
X18791571Y-13828714D01*
X18820143Y-13843000D01*
X18834428Y-13857286D01*
X18848714Y-13885857D01*
X18848714Y-13971571D01*
X18834428Y-14000143D01*
X18820143Y-14014429D01*
X18791571Y-14028714D01*
X18748714Y-14028714D01*
X19020143Y-14028714D02*
X18991571Y-14014429D01*
X18977286Y-13985857D01*
X18977286Y-13728714D01*
X19248714Y-14014429D02*
X19220143Y-14028714D01*
X19163000Y-14028714D01*
X19134428Y-14014429D01*
X19120143Y-13985857D01*
X19120143Y-13871571D01*
X19134428Y-13843000D01*
X19163000Y-13828714D01*
X19220143Y-13828714D01*
X19248714Y-13843000D01*
X19263000Y-13871571D01*
X19263000Y-13900143D01*
X19120143Y-13928714D01*
X19377286Y-14014429D02*
X19405857Y-14028714D01*
X19463000Y-14028714D01*
X19491571Y-14014429D01*
X19505857Y-13985857D01*
X19505857Y-13971571D01*
X19491571Y-13943000D01*
X19463000Y-13928714D01*
X19420143Y-13928714D01*
X19391571Y-13914429D01*
X19377286Y-13885857D01*
X19377286Y-13871571D01*
X19391571Y-13843000D01*
X19420143Y-13828714D01*
X19463000Y-13828714D01*
X19491571Y-13843000D01*
X19863000Y-13914429D02*
X20091571Y-13914429D01*
X19977286Y-14028714D02*
X19977286Y-13800143D01*
X20448714Y-13757286D02*
X20463000Y-13743000D01*
X20491571Y-13728714D01*
X20563000Y-13728714D01*
X20591571Y-13743000D01*
X20605857Y-13757286D01*
X20620143Y-13785857D01*
X20620143Y-13814429D01*
X20605857Y-13857286D01*
X20434428Y-14028714D01*
X20620143Y-14028714D01*
X20963000Y-14014429D02*
X20991571Y-14028714D01*
X21048714Y-14028714D01*
X21077286Y-14014429D01*
X21091571Y-13985857D01*
X21091571Y-13971571D01*
X21077286Y-13943000D01*
X21048714Y-13928714D01*
X21005857Y-13928714D01*
X20977286Y-13914429D01*
X20963000Y-13885857D01*
X20963000Y-13871571D01*
X20977286Y-13843000D01*
X21005857Y-13828714D01*
X21048714Y-13828714D01*
X21077286Y-13843000D01*
X21263000Y-14028714D02*
X21234428Y-14014429D01*
X21220143Y-13985857D01*
X21220143Y-13728714D01*
X21420143Y-14028714D02*
X21391571Y-14014429D01*
X21377286Y-14000143D01*
X21363000Y-13971571D01*
X21363000Y-13885857D01*
X21377286Y-13857286D01*
X21391571Y-13843000D01*
X21420143Y-13828714D01*
X21463000Y-13828714D01*
X21491571Y-13843000D01*
X21505857Y-13857286D01*
X21520143Y-13885857D01*
X21520143Y-13971571D01*
X21505857Y-14000143D01*
X21491571Y-14014429D01*
X21463000Y-14028714D01*
X21420143Y-14028714D01*
X21605857Y-13828714D02*
X21720143Y-13828714D01*
X21648714Y-13728714D02*
X21648714Y-13985857D01*
X21663000Y-14014429D01*
X21691571Y-14028714D01*
X21720143Y-14028714D01*
X21805857Y-14014429D02*
X21834428Y-14028714D01*
X21891571Y-14028714D01*
X21920143Y-14014429D01*
X21934428Y-13985857D01*
X21934428Y-13971571D01*
X21920143Y-13943000D01*
X21891571Y-13928714D01*
X21848714Y-13928714D01*
X21820143Y-13914429D01*
X21805857Y-13885857D01*
X21805857Y-13871571D01*
X21820143Y-13843000D01*
X21848714Y-13828714D01*
X21891571Y-13828714D01*
X21920143Y-13843000D01*
X22034428Y-14143000D02*
X22048714Y-14128714D01*
X22077286Y-14085857D01*
X22091571Y-14057286D01*
X22105857Y-14014429D01*
X22120143Y-13943000D01*
X22120143Y-13885857D01*
X22105857Y-13814429D01*
X22091571Y-13771571D01*
X22077286Y-13743000D01*
X22048714Y-13700143D01*
X22034428Y-13685857D01*
X12513000Y-14254000D02*
X12513000Y-14324000D01*
X12478000Y-14289000D02*
X12548000Y-14289000D01*
X12891571Y-14124714D02*
X12920143Y-14124714D01*
X12948714Y-14139000D01*
X12963000Y-14153286D01*
X12977286Y-14181857D01*
X12991571Y-14239000D01*
X12991571Y-14310429D01*
X12977286Y-14367571D01*
X12963000Y-14396143D01*
X12948714Y-14410429D01*
X12920143Y-14424714D01*
X12891571Y-14424714D01*
X12863000Y-14410429D01*
X12848714Y-14396143D01*
X12834428Y-14367571D01*
X12820143Y-14310429D01*
X12820143Y-14239000D01*
X12834428Y-14181857D01*
X12848714Y-14153286D01*
X12863000Y-14139000D01*
X12891571Y-14124714D01*
X13120143Y-14396143D02*
X13134428Y-14410429D01*
X13120143Y-14424714D01*
X13105857Y-14410429D01*
X13120143Y-14396143D01*
X13120143Y-14424714D01*
X13234428Y-14124714D02*
X13434428Y-14124714D01*
X13305857Y-14424714D01*
X13605857Y-14124714D02*
X13634428Y-14124714D01*
X13663000Y-14139000D01*
X13677286Y-14153286D01*
X13691571Y-14181857D01*
X13705857Y-14239000D01*
X13705857Y-14310429D01*
X13691571Y-14367571D01*
X13677286Y-14396143D01*
X13663000Y-14410429D01*
X13634428Y-14424714D01*
X13605857Y-14424714D01*
X13577286Y-14410429D01*
X13563000Y-14396143D01*
X13548714Y-14367571D01*
X13534428Y-14310429D01*
X13534428Y-14239000D01*
X13548714Y-14181857D01*
X13563000Y-14153286D01*
X13577286Y-14139000D01*
X13605857Y-14124714D01*
X13891571Y-14124714D02*
X13920143Y-14124714D01*
X13948714Y-14139000D01*
X13963000Y-14153286D01*
X13977286Y-14181857D01*
X13991571Y-14239000D01*
X13991571Y-14310429D01*
X13977286Y-14367571D01*
X13963000Y-14396143D01*
X13948714Y-14410429D01*
X13920143Y-14424714D01*
X13891571Y-14424714D01*
X13863000Y-14410429D01*
X13848714Y-14396143D01*
X13834428Y-14367571D01*
X13820143Y-14310429D01*
X13820143Y-14239000D01*
X13834428Y-14181857D01*
X13848714Y-14153286D01*
X13863000Y-14139000D01*
X13891571Y-14124714D01*
X14120143Y-14424714D02*
X14120143Y-14224714D01*
X14120143Y-14253286D02*
X14134428Y-14239000D01*
X14163000Y-14224714D01*
X14205857Y-14224714D01*
X14234428Y-14239000D01*
X14248714Y-14267571D01*
X14248714Y-14424714D01*
X14248714Y-14267571D02*
X14263000Y-14239000D01*
X14291571Y-14224714D01*
X14334428Y-14224714D01*
X14363000Y-14239000D01*
X14377286Y-14267571D01*
X14377286Y-14424714D01*
X14520143Y-14424714D02*
X14520143Y-14224714D01*
X14520143Y-14253286D02*
X14534428Y-14239000D01*
X14563000Y-14224714D01*
X14605857Y-14224714D01*
X14634428Y-14239000D01*
X14648714Y-14267571D01*
X14648714Y-14424714D01*
X14648714Y-14267571D02*
X14663000Y-14239000D01*
X14691571Y-14224714D01*
X14734428Y-14224714D01*
X14763000Y-14239000D01*
X14777286Y-14267571D01*
X14777286Y-14424714D01*
X15363000Y-14110429D02*
X15105857Y-14496143D01*
X15748714Y-14124714D02*
X15777286Y-14124714D01*
X15805857Y-14139000D01*
X15820143Y-14153286D01*
X15834428Y-14181857D01*
X15848714Y-14239000D01*
X15848714Y-14310429D01*
X15834428Y-14367571D01*
X15820143Y-14396143D01*
X15805857Y-14410429D01*
X15777286Y-14424714D01*
X15748714Y-14424714D01*
X15720143Y-14410429D01*
X15705857Y-14396143D01*
X15691571Y-14367571D01*
X15677286Y-14310429D01*
X15677286Y-14239000D01*
X15691571Y-14181857D01*
X15705857Y-14153286D01*
X15720143Y-14139000D01*
X15748714Y-14124714D01*
X15977286Y-14396143D02*
X15991571Y-14410429D01*
X15977286Y-14424714D01*
X15963000Y-14410429D01*
X15977286Y-14396143D01*
X15977286Y-14424714D01*
X16177286Y-14124714D02*
X16205857Y-14124714D01*
X16234428Y-14139000D01*
X16248714Y-14153286D01*
X16263000Y-14181857D01*
X16277286Y-14239000D01*
X16277286Y-14310429D01*
X16263000Y-14367571D01*
X16248714Y-14396143D01*
X16234428Y-14410429D01*
X16205857Y-14424714D01*
X16177286Y-14424714D01*
X16148714Y-14410429D01*
X16134428Y-14396143D01*
X16120143Y-14367571D01*
X16105857Y-14310429D01*
X16105857Y-14239000D01*
X16120143Y-14181857D01*
X16134428Y-14153286D01*
X16148714Y-14139000D01*
X16177286Y-14124714D01*
X16391571Y-14153286D02*
X16405857Y-14139000D01*
X16434428Y-14124714D01*
X16505857Y-14124714D01*
X16534428Y-14139000D01*
X16548714Y-14153286D01*
X16563000Y-14181857D01*
X16563000Y-14210429D01*
X16548714Y-14253286D01*
X16377286Y-14424714D01*
X16563000Y-14424714D01*
X16663000Y-14124714D02*
X16863000Y-14124714D01*
X16734428Y-14424714D01*
X17105857Y-14124714D02*
X17048714Y-14124714D01*
X17020143Y-14139000D01*
X17005857Y-14153286D01*
X16977286Y-14196143D01*
X16963000Y-14253286D01*
X16963000Y-14367571D01*
X16977286Y-14396143D01*
X16991571Y-14410429D01*
X17020143Y-14424714D01*
X17077286Y-14424714D01*
X17105857Y-14410429D01*
X17120143Y-14396143D01*
X17134428Y-14367571D01*
X17134428Y-14296143D01*
X17120143Y-14267571D01*
X17105857Y-14253286D01*
X17077286Y-14239000D01*
X17020143Y-14239000D01*
X16991571Y-14253286D01*
X16977286Y-14267571D01*
X16963000Y-14296143D01*
X17248714Y-14124714D02*
X17248714Y-14181857D01*
X17363000Y-14124714D02*
X17363000Y-14181857D01*
X17805857Y-14539000D02*
X17791571Y-14524714D01*
X17763000Y-14481857D01*
X17748714Y-14453286D01*
X17734428Y-14410429D01*
X17720143Y-14339000D01*
X17720143Y-14281857D01*
X17734428Y-14210429D01*
X17748714Y-14167571D01*
X17763000Y-14139000D01*
X17791571Y-14096143D01*
X17805857Y-14081857D01*
X18048714Y-14224714D02*
X18048714Y-14424714D01*
X17977286Y-14110429D02*
X17905857Y-14324714D01*
X18091571Y-14324714D01*
X18434428Y-14424714D02*
X18434428Y-14124714D01*
X18563000Y-14424714D02*
X18563000Y-14267571D01*
X18548714Y-14239000D01*
X18520143Y-14224714D01*
X18477286Y-14224714D01*
X18448714Y-14239000D01*
X18434428Y-14253286D01*
X18748714Y-14424714D02*
X18720143Y-14410429D01*
X18705857Y-14396143D01*
X18691571Y-14367571D01*
X18691571Y-14281857D01*
X18705857Y-14253286D01*
X18720143Y-14239000D01*
X18748714Y-14224714D01*
X18791571Y-14224714D01*
X18820143Y-14239000D01*
X18834428Y-14253286D01*
X18848714Y-14281857D01*
X18848714Y-14367571D01*
X18834428Y-14396143D01*
X18820143Y-14410429D01*
X18791571Y-14424714D01*
X18748714Y-14424714D01*
X19020143Y-14424714D02*
X18991571Y-14410429D01*
X18977286Y-14381857D01*
X18977286Y-14124714D01*
X19248714Y-14410429D02*
X19220143Y-14424714D01*
X19163000Y-14424714D01*
X19134428Y-14410429D01*
X19120143Y-14381857D01*
X19120143Y-14267571D01*
X19134428Y-14239000D01*
X19163000Y-14224714D01*
X19220143Y-14224714D01*
X19248714Y-14239000D01*
X19263000Y-14267571D01*
X19263000Y-14296143D01*
X19120143Y-14324714D01*
X19377286Y-14410429D02*
X19405857Y-14424714D01*
X19463000Y-14424714D01*
X19491571Y-14410429D01*
X19505857Y-14381857D01*
X19505857Y-14367571D01*
X19491571Y-14339000D01*
X19463000Y-14324714D01*
X19420143Y-14324714D01*
X19391571Y-14310429D01*
X19377286Y-14281857D01*
X19377286Y-14267571D01*
X19391571Y-14239000D01*
X19420143Y-14224714D01*
X19463000Y-14224714D01*
X19491571Y-14239000D01*
X19605857Y-14539000D02*
X19620143Y-14524714D01*
X19648714Y-14481857D01*
X19663000Y-14453286D01*
X19677286Y-14410429D01*
X19691571Y-14339000D01*
X19691571Y-14281857D01*
X19677286Y-14210429D01*
X19663000Y-14167571D01*
X19648714Y-14139000D01*
X19620143Y-14096143D01*
X19605857Y-14081857D01*
X12537017Y-14711517D02*
X12537017Y-14658483D01*
X12483983Y-14658483D01*
X12483983Y-14711517D01*
X12537017Y-14711517D01*
X12891571Y-14520714D02*
X12920143Y-14520714D01*
X12948714Y-14535000D01*
X12963000Y-14549286D01*
X12977286Y-14577857D01*
X12991571Y-14635000D01*
X12991571Y-14706429D01*
X12977286Y-14763571D01*
X12963000Y-14792143D01*
X12948714Y-14806429D01*
X12920143Y-14820714D01*
X12891571Y-14820714D01*
X12863000Y-14806429D01*
X12848714Y-14792143D01*
X12834428Y-14763571D01*
X12820143Y-14706429D01*
X12820143Y-14635000D01*
X12834428Y-14577857D01*
X12848714Y-14549286D01*
X12863000Y-14535000D01*
X12891571Y-14520714D01*
X13120143Y-14792143D02*
X13134428Y-14806429D01*
X13120143Y-14820714D01*
X13105857Y-14806429D01*
X13120143Y-14792143D01*
X13120143Y-14820714D01*
X13234428Y-14520714D02*
X13434428Y-14520714D01*
X13305857Y-14820714D01*
X13691571Y-14520714D02*
X13548714Y-14520714D01*
X13534428Y-14663571D01*
X13548714Y-14649286D01*
X13577286Y-14635000D01*
X13648714Y-14635000D01*
X13677286Y-14649286D01*
X13691571Y-14663571D01*
X13705857Y-14692143D01*
X13705857Y-14763571D01*
X13691571Y-14792143D01*
X13677286Y-14806429D01*
X13648714Y-14820714D01*
X13577286Y-14820714D01*
X13548714Y-14806429D01*
X13534428Y-14792143D01*
X13891571Y-14520714D02*
X13920143Y-14520714D01*
X13948714Y-14535000D01*
X13963000Y-14549286D01*
X13977286Y-14577857D01*
X13991571Y-14635000D01*
X13991571Y-14706429D01*
X13977286Y-14763571D01*
X13963000Y-14792143D01*
X13948714Y-14806429D01*
X13920143Y-14820714D01*
X13891571Y-14820714D01*
X13863000Y-14806429D01*
X13848714Y-14792143D01*
X13834428Y-14763571D01*
X13820143Y-14706429D01*
X13820143Y-14635000D01*
X13834428Y-14577857D01*
X13848714Y-14549286D01*
X13863000Y-14535000D01*
X13891571Y-14520714D01*
X14120143Y-14820714D02*
X14120143Y-14620714D01*
X14120143Y-14649286D02*
X14134428Y-14635000D01*
X14163000Y-14620714D01*
X14205857Y-14620714D01*
X14234428Y-14635000D01*
X14248714Y-14663571D01*
X14248714Y-14820714D01*
X14248714Y-14663571D02*
X14263000Y-14635000D01*
X14291571Y-14620714D01*
X14334428Y-14620714D01*
X14363000Y-14635000D01*
X14377286Y-14663571D01*
X14377286Y-14820714D01*
X14520143Y-14820714D02*
X14520143Y-14620714D01*
X14520143Y-14649286D02*
X14534428Y-14635000D01*
X14563000Y-14620714D01*
X14605857Y-14620714D01*
X14634428Y-14635000D01*
X14648714Y-14663571D01*
X14648714Y-14820714D01*
X14648714Y-14663571D02*
X14663000Y-14635000D01*
X14691571Y-14620714D01*
X14734428Y-14620714D01*
X14763000Y-14635000D01*
X14777286Y-14663571D01*
X14777286Y-14820714D01*
X15363000Y-14506429D02*
X15105857Y-14892143D01*
X15748714Y-14520714D02*
X15777286Y-14520714D01*
X15805857Y-14535000D01*
X15820143Y-14549286D01*
X15834428Y-14577857D01*
X15848714Y-14635000D01*
X15848714Y-14706429D01*
X15834428Y-14763571D01*
X15820143Y-14792143D01*
X15805857Y-14806429D01*
X15777286Y-14820714D01*
X15748714Y-14820714D01*
X15720143Y-14806429D01*
X15705857Y-14792143D01*
X15691571Y-14763571D01*
X15677286Y-14706429D01*
X15677286Y-14635000D01*
X15691571Y-14577857D01*
X15705857Y-14549286D01*
X15720143Y-14535000D01*
X15748714Y-14520714D01*
X15977286Y-14792143D02*
X15991571Y-14806429D01*
X15977286Y-14820714D01*
X15963000Y-14806429D01*
X15977286Y-14792143D01*
X15977286Y-14820714D01*
X16177286Y-14520714D02*
X16205857Y-14520714D01*
X16234428Y-14535000D01*
X16248714Y-14549286D01*
X16263000Y-14577857D01*
X16277286Y-14635000D01*
X16277286Y-14706429D01*
X16263000Y-14763571D01*
X16248714Y-14792143D01*
X16234428Y-14806429D01*
X16205857Y-14820714D01*
X16177286Y-14820714D01*
X16148714Y-14806429D01*
X16134428Y-14792143D01*
X16120143Y-14763571D01*
X16105857Y-14706429D01*
X16105857Y-14635000D01*
X16120143Y-14577857D01*
X16134428Y-14549286D01*
X16148714Y-14535000D01*
X16177286Y-14520714D01*
X16391571Y-14549286D02*
X16405857Y-14535000D01*
X16434428Y-14520714D01*
X16505857Y-14520714D01*
X16534428Y-14535000D01*
X16548714Y-14549286D01*
X16563000Y-14577857D01*
X16563000Y-14606429D01*
X16548714Y-14649286D01*
X16377286Y-14820714D01*
X16563000Y-14820714D01*
X16705857Y-14820714D02*
X16763000Y-14820714D01*
X16791571Y-14806429D01*
X16805857Y-14792143D01*
X16834428Y-14749286D01*
X16848714Y-14692143D01*
X16848714Y-14577857D01*
X16834428Y-14549286D01*
X16820143Y-14535000D01*
X16791571Y-14520714D01*
X16734428Y-14520714D01*
X16705857Y-14535000D01*
X16691571Y-14549286D01*
X16677286Y-14577857D01*
X16677286Y-14649286D01*
X16691571Y-14677857D01*
X16705857Y-14692143D01*
X16734428Y-14706429D01*
X16791571Y-14706429D01*
X16820143Y-14692143D01*
X16834428Y-14677857D01*
X16848714Y-14649286D01*
X17120143Y-14520714D02*
X16977286Y-14520714D01*
X16963000Y-14663571D01*
X16977286Y-14649286D01*
X17005857Y-14635000D01*
X17077286Y-14635000D01*
X17105857Y-14649286D01*
X17120143Y-14663571D01*
X17134428Y-14692143D01*
X17134428Y-14763571D01*
X17120143Y-14792143D01*
X17105857Y-14806429D01*
X17077286Y-14820714D01*
X17005857Y-14820714D01*
X16977286Y-14806429D01*
X16963000Y-14792143D01*
X17248714Y-14520714D02*
X17248714Y-14577857D01*
X17363000Y-14520714D02*
X17363000Y-14577857D01*
X17805857Y-14935000D02*
X17791571Y-14920714D01*
X17763000Y-14877857D01*
X17748714Y-14849286D01*
X17734428Y-14806429D01*
X17720143Y-14735000D01*
X17720143Y-14677857D01*
X17734428Y-14606429D01*
X17748714Y-14563571D01*
X17763000Y-14535000D01*
X17791571Y-14492143D01*
X17805857Y-14477857D01*
X17905857Y-14549286D02*
X17920143Y-14535000D01*
X17948714Y-14520714D01*
X18020143Y-14520714D01*
X18048714Y-14535000D01*
X18063000Y-14549286D01*
X18077286Y-14577857D01*
X18077286Y-14606429D01*
X18063000Y-14649286D01*
X17891571Y-14820714D01*
X18077286Y-14820714D01*
X18434428Y-14820714D02*
X18434428Y-14520714D01*
X18563000Y-14820714D02*
X18563000Y-14663571D01*
X18548714Y-14635000D01*
X18520143Y-14620714D01*
X18477286Y-14620714D01*
X18448714Y-14635000D01*
X18434428Y-14649286D01*
X18748714Y-14820714D02*
X18720143Y-14806429D01*
X18705857Y-14792143D01*
X18691571Y-14763571D01*
X18691571Y-14677857D01*
X18705857Y-14649286D01*
X18720143Y-14635000D01*
X18748714Y-14620714D01*
X18791571Y-14620714D01*
X18820143Y-14635000D01*
X18834428Y-14649286D01*
X18848714Y-14677857D01*
X18848714Y-14763571D01*
X18834428Y-14792143D01*
X18820143Y-14806429D01*
X18791571Y-14820714D01*
X18748714Y-14820714D01*
X19020143Y-14820714D02*
X18991571Y-14806429D01*
X18977286Y-14777857D01*
X18977286Y-14520714D01*
X19248714Y-14806429D02*
X19220143Y-14820714D01*
X19163000Y-14820714D01*
X19134428Y-14806429D01*
X19120143Y-14777857D01*
X19120143Y-14663571D01*
X19134428Y-14635000D01*
X19163000Y-14620714D01*
X19220143Y-14620714D01*
X19248714Y-14635000D01*
X19263000Y-14663571D01*
X19263000Y-14692143D01*
X19120143Y-14720714D01*
X19377286Y-14806429D02*
X19405857Y-14820714D01*
X19463000Y-14820714D01*
X19491571Y-14806429D01*
X19505857Y-14777857D01*
X19505857Y-14763571D01*
X19491571Y-14735000D01*
X19463000Y-14720714D01*
X19420143Y-14720714D01*
X19391571Y-14706429D01*
X19377286Y-14677857D01*
X19377286Y-14663571D01*
X19391571Y-14635000D01*
X19420143Y-14620714D01*
X19463000Y-14620714D01*
X19491571Y-14635000D01*
X19605857Y-14935000D02*
X19620143Y-14920714D01*
X19648714Y-14877857D01*
X19663000Y-14849286D01*
X19677286Y-14806429D01*
X19691571Y-14735000D01*
X19691571Y-14677857D01*
X19677286Y-14606429D01*
X19663000Y-14563571D01*
X19648714Y-14535000D01*
X19620143Y-14492143D01*
X19605857Y-14477857D01*
X12505500Y-15123500D02*
X12548000Y-15081000D01*
X12505500Y-15038500D01*
X12463000Y-15081000D01*
X12505500Y-15123500D01*
X12891571Y-14916714D02*
X12920143Y-14916714D01*
X12948714Y-14931000D01*
X12963000Y-14945286D01*
X12977286Y-14973857D01*
X12991571Y-15031000D01*
X12991571Y-15102429D01*
X12977286Y-15159571D01*
X12963000Y-15188143D01*
X12948714Y-15202429D01*
X12920143Y-15216714D01*
X12891571Y-15216714D01*
X12863000Y-15202429D01*
X12848714Y-15188143D01*
X12834428Y-15159571D01*
X12820143Y-15102429D01*
X12820143Y-15031000D01*
X12834428Y-14973857D01*
X12848714Y-14945286D01*
X12863000Y-14931000D01*
X12891571Y-14916714D01*
X13120143Y-15188143D02*
X13134428Y-15202429D01*
X13120143Y-15216714D01*
X13105857Y-15202429D01*
X13120143Y-15188143D01*
X13120143Y-15216714D01*
X13305857Y-15045286D02*
X13277286Y-15031000D01*
X13263000Y-15016714D01*
X13248714Y-14988143D01*
X13248714Y-14973857D01*
X13263000Y-14945286D01*
X13277286Y-14931000D01*
X13305857Y-14916714D01*
X13363000Y-14916714D01*
X13391571Y-14931000D01*
X13405857Y-14945286D01*
X13420143Y-14973857D01*
X13420143Y-14988143D01*
X13405857Y-15016714D01*
X13391571Y-15031000D01*
X13363000Y-15045286D01*
X13305857Y-15045286D01*
X13277286Y-15059571D01*
X13263000Y-15073857D01*
X13248714Y-15102429D01*
X13248714Y-15159571D01*
X13263000Y-15188143D01*
X13277286Y-15202429D01*
X13305857Y-15216714D01*
X13363000Y-15216714D01*
X13391571Y-15202429D01*
X13405857Y-15188143D01*
X13420143Y-15159571D01*
X13420143Y-15102429D01*
X13405857Y-15073857D01*
X13391571Y-15059571D01*
X13363000Y-15045286D01*
X13691571Y-14916714D02*
X13548714Y-14916714D01*
X13534428Y-15059571D01*
X13548714Y-15045286D01*
X13577286Y-15031000D01*
X13648714Y-15031000D01*
X13677286Y-15045286D01*
X13691571Y-15059571D01*
X13705857Y-15088143D01*
X13705857Y-15159571D01*
X13691571Y-15188143D01*
X13677286Y-15202429D01*
X13648714Y-15216714D01*
X13577286Y-15216714D01*
X13548714Y-15202429D01*
X13534428Y-15188143D01*
X13891571Y-14916714D02*
X13920143Y-14916714D01*
X13948714Y-14931000D01*
X13963000Y-14945286D01*
X13977286Y-14973857D01*
X13991571Y-15031000D01*
X13991571Y-15102429D01*
X13977286Y-15159571D01*
X13963000Y-15188143D01*
X13948714Y-15202429D01*
X13920143Y-15216714D01*
X13891571Y-15216714D01*
X13863000Y-15202429D01*
X13848714Y-15188143D01*
X13834428Y-15159571D01*
X13820143Y-15102429D01*
X13820143Y-15031000D01*
X13834428Y-14973857D01*
X13848714Y-14945286D01*
X13863000Y-14931000D01*
X13891571Y-14916714D01*
X14120143Y-15216714D02*
X14120143Y-15016714D01*
X14120143Y-15045286D02*
X14134428Y-15031000D01*
X14163000Y-15016714D01*
X14205857Y-15016714D01*
X14234428Y-15031000D01*
X14248714Y-15059571D01*
X14248714Y-15216714D01*
X14248714Y-15059571D02*
X14263000Y-15031000D01*
X14291571Y-15016714D01*
X14334428Y-15016714D01*
X14363000Y-15031000D01*
X14377286Y-15059571D01*
X14377286Y-15216714D01*
X14520143Y-15216714D02*
X14520143Y-15016714D01*
X14520143Y-15045286D02*
X14534428Y-15031000D01*
X14563000Y-15016714D01*
X14605857Y-15016714D01*
X14634428Y-15031000D01*
X14648714Y-15059571D01*
X14648714Y-15216714D01*
X14648714Y-15059571D02*
X14663000Y-15031000D01*
X14691571Y-15016714D01*
X14734428Y-15016714D01*
X14763000Y-15031000D01*
X14777286Y-15059571D01*
X14777286Y-15216714D01*
X15363000Y-14902429D02*
X15105857Y-15288143D01*
X15748714Y-14916714D02*
X15777286Y-14916714D01*
X15805857Y-14931000D01*
X15820143Y-14945286D01*
X15834428Y-14973857D01*
X15848714Y-15031000D01*
X15848714Y-15102429D01*
X15834428Y-15159571D01*
X15820143Y-15188143D01*
X15805857Y-15202429D01*
X15777286Y-15216714D01*
X15748714Y-15216714D01*
X15720143Y-15202429D01*
X15705857Y-15188143D01*
X15691571Y-15159571D01*
X15677286Y-15102429D01*
X15677286Y-15031000D01*
X15691571Y-14973857D01*
X15705857Y-14945286D01*
X15720143Y-14931000D01*
X15748714Y-14916714D01*
X15977286Y-15188143D02*
X15991571Y-15202429D01*
X15977286Y-15216714D01*
X15963000Y-15202429D01*
X15977286Y-15188143D01*
X15977286Y-15216714D01*
X16177286Y-14916714D02*
X16205857Y-14916714D01*
X16234428Y-14931000D01*
X16248714Y-14945286D01*
X16263000Y-14973857D01*
X16277286Y-15031000D01*
X16277286Y-15102429D01*
X16263000Y-15159571D01*
X16248714Y-15188143D01*
X16234428Y-15202429D01*
X16205857Y-15216714D01*
X16177286Y-15216714D01*
X16148714Y-15202429D01*
X16134428Y-15188143D01*
X16120143Y-15159571D01*
X16105857Y-15102429D01*
X16105857Y-15031000D01*
X16120143Y-14973857D01*
X16134428Y-14945286D01*
X16148714Y-14931000D01*
X16177286Y-14916714D01*
X16377286Y-14916714D02*
X16563000Y-14916714D01*
X16463000Y-15031000D01*
X16505857Y-15031000D01*
X16534428Y-15045286D01*
X16548714Y-15059571D01*
X16563000Y-15088143D01*
X16563000Y-15159571D01*
X16548714Y-15188143D01*
X16534428Y-15202429D01*
X16505857Y-15216714D01*
X16420143Y-15216714D01*
X16391571Y-15202429D01*
X16377286Y-15188143D01*
X16663000Y-14916714D02*
X16848714Y-14916714D01*
X16748714Y-15031000D01*
X16791571Y-15031000D01*
X16820143Y-15045286D01*
X16834428Y-15059571D01*
X16848714Y-15088143D01*
X16848714Y-15159571D01*
X16834428Y-15188143D01*
X16820143Y-15202429D01*
X16791571Y-15216714D01*
X16705857Y-15216714D01*
X16677286Y-15202429D01*
X16663000Y-15188143D01*
X17120143Y-14916714D02*
X16977286Y-14916714D01*
X16963000Y-15059571D01*
X16977286Y-15045286D01*
X17005857Y-15031000D01*
X17077286Y-15031000D01*
X17105857Y-15045286D01*
X17120143Y-15059571D01*
X17134428Y-15088143D01*
X17134428Y-15159571D01*
X17120143Y-15188143D01*
X17105857Y-15202429D01*
X17077286Y-15216714D01*
X17005857Y-15216714D01*
X16977286Y-15202429D01*
X16963000Y-15188143D01*
X17248714Y-14916714D02*
X17248714Y-14973857D01*
X17363000Y-14916714D02*
X17363000Y-14973857D01*
X17805857Y-15331000D02*
X17791571Y-15316714D01*
X17763000Y-15273857D01*
X17748714Y-15245286D01*
X17734428Y-15202429D01*
X17720143Y-15131000D01*
X17720143Y-15073857D01*
X17734428Y-15002429D01*
X17748714Y-14959571D01*
X17763000Y-14931000D01*
X17791571Y-14888143D01*
X17805857Y-14873857D01*
X17977286Y-14916714D02*
X18005857Y-14916714D01*
X18034428Y-14931000D01*
X18048714Y-14945286D01*
X18063000Y-14973857D01*
X18077286Y-15031000D01*
X18077286Y-15102429D01*
X18063000Y-15159571D01*
X18048714Y-15188143D01*
X18034428Y-15202429D01*
X18005857Y-15216714D01*
X17977286Y-15216714D01*
X17948714Y-15202429D01*
X17934428Y-15188143D01*
X17920143Y-15159571D01*
X17905857Y-15102429D01*
X17905857Y-15031000D01*
X17920143Y-14973857D01*
X17934428Y-14945286D01*
X17948714Y-14931000D01*
X17977286Y-14916714D01*
X18434428Y-15216714D02*
X18434428Y-14916714D01*
X18563000Y-15216714D02*
X18563000Y-15059571D01*
X18548714Y-15031000D01*
X18520143Y-15016714D01*
X18477286Y-15016714D01*
X18448714Y-15031000D01*
X18434428Y-15045286D01*
X18748714Y-15216714D02*
X18720143Y-15202429D01*
X18705857Y-15188143D01*
X18691571Y-15159571D01*
X18691571Y-15073857D01*
X18705857Y-15045286D01*
X18720143Y-15031000D01*
X18748714Y-15016714D01*
X18791571Y-15016714D01*
X18820143Y-15031000D01*
X18834428Y-15045286D01*
X18848714Y-15073857D01*
X18848714Y-15159571D01*
X18834428Y-15188143D01*
X18820143Y-15202429D01*
X18791571Y-15216714D01*
X18748714Y-15216714D01*
X19020143Y-15216714D02*
X18991571Y-15202429D01*
X18977286Y-15173857D01*
X18977286Y-14916714D01*
X19248714Y-15202429D02*
X19220143Y-15216714D01*
X19163000Y-15216714D01*
X19134428Y-15202429D01*
X19120143Y-15173857D01*
X19120143Y-15059571D01*
X19134428Y-15031000D01*
X19163000Y-15016714D01*
X19220143Y-15016714D01*
X19248714Y-15031000D01*
X19263000Y-15059571D01*
X19263000Y-15088143D01*
X19120143Y-15116714D01*
X19377286Y-15202429D02*
X19405857Y-15216714D01*
X19463000Y-15216714D01*
X19491571Y-15202429D01*
X19505857Y-15173857D01*
X19505857Y-15159571D01*
X19491571Y-15131000D01*
X19463000Y-15116714D01*
X19420143Y-15116714D01*
X19391571Y-15102429D01*
X19377286Y-15073857D01*
X19377286Y-15059571D01*
X19391571Y-15031000D01*
X19420143Y-15016714D01*
X19463000Y-15016714D01*
X19491571Y-15031000D01*
X19863000Y-15102429D02*
X20091571Y-15102429D01*
X19977286Y-15216714D02*
X19977286Y-14988143D01*
X20448714Y-14945286D02*
X20463000Y-14931000D01*
X20491571Y-14916714D01*
X20563000Y-14916714D01*
X20591571Y-14931000D01*
X20605857Y-14945286D01*
X20620143Y-14973857D01*
X20620143Y-15002429D01*
X20605857Y-15045286D01*
X20434428Y-15216714D01*
X20620143Y-15216714D01*
X20963000Y-15202429D02*
X20991571Y-15216714D01*
X21048714Y-15216714D01*
X21077286Y-15202429D01*
X21091571Y-15173857D01*
X21091571Y-15159571D01*
X21077286Y-15131000D01*
X21048714Y-15116714D01*
X21005857Y-15116714D01*
X20977286Y-15102429D01*
X20963000Y-15073857D01*
X20963000Y-15059571D01*
X20977286Y-15031000D01*
X21005857Y-15016714D01*
X21048714Y-15016714D01*
X21077286Y-15031000D01*
X21263000Y-15216714D02*
X21234428Y-15202429D01*
X21220143Y-15173857D01*
X21220143Y-14916714D01*
X21420143Y-15216714D02*
X21391571Y-15202429D01*
X21377286Y-15188143D01*
X21363000Y-15159571D01*
X21363000Y-15073857D01*
X21377286Y-15045286D01*
X21391571Y-15031000D01*
X21420143Y-15016714D01*
X21463000Y-15016714D01*
X21491571Y-15031000D01*
X21505857Y-15045286D01*
X21520143Y-15073857D01*
X21520143Y-15159571D01*
X21505857Y-15188143D01*
X21491571Y-15202429D01*
X21463000Y-15216714D01*
X21420143Y-15216714D01*
X21605857Y-15016714D02*
X21720143Y-15016714D01*
X21648714Y-14916714D02*
X21648714Y-15173857D01*
X21663000Y-15202429D01*
X21691571Y-15216714D01*
X21720143Y-15216714D01*
X21805857Y-15202429D02*
X21834428Y-15216714D01*
X21891571Y-15216714D01*
X21920143Y-15202429D01*
X21934428Y-15173857D01*
X21934428Y-15159571D01*
X21920143Y-15131000D01*
X21891571Y-15116714D01*
X21848714Y-15116714D01*
X21820143Y-15102429D01*
X21805857Y-15073857D01*
X21805857Y-15059571D01*
X21820143Y-15031000D01*
X21848714Y-15016714D01*
X21891571Y-15016714D01*
X21920143Y-15031000D01*
X22034428Y-15331000D02*
X22048714Y-15316714D01*
X22077286Y-15273857D01*
X22091571Y-15245286D01*
X22105857Y-15202429D01*
X22120143Y-15131000D01*
X22120143Y-15073857D01*
X22105857Y-15002429D01*
X22091571Y-14959571D01*
X22077286Y-14931000D01*
X22048714Y-14888143D01*
X22034428Y-14873857D01*
X12448000Y-15427000D02*
X12548000Y-15527000D01*
X12548000Y-15427000D02*
X12448000Y-15527000D01*
X12548000Y-15477000D02*
G75*
G03*
X12548000Y-15477000I-50000J0D01*
G01*
X12991571Y-15612714D02*
X12820143Y-15612714D01*
X12905857Y-15612714D02*
X12905857Y-15312714D01*
X12877286Y-15355571D01*
X12848714Y-15384143D01*
X12820143Y-15398429D01*
X13120143Y-15584143D02*
X13134428Y-15598429D01*
X13120143Y-15612714D01*
X13105857Y-15598429D01*
X13120143Y-15584143D01*
X13120143Y-15612714D01*
X13320143Y-15312714D02*
X13348714Y-15312714D01*
X13377286Y-15327000D01*
X13391571Y-15341286D01*
X13405857Y-15369857D01*
X13420143Y-15427000D01*
X13420143Y-15498429D01*
X13405857Y-15555571D01*
X13391571Y-15584143D01*
X13377286Y-15598429D01*
X13348714Y-15612714D01*
X13320143Y-15612714D01*
X13291571Y-15598429D01*
X13277286Y-15584143D01*
X13263000Y-15555571D01*
X13248714Y-15498429D01*
X13248714Y-15427000D01*
X13263000Y-15369857D01*
X13277286Y-15341286D01*
X13291571Y-15327000D01*
X13320143Y-15312714D01*
X13605857Y-15312714D02*
X13634428Y-15312714D01*
X13663000Y-15327000D01*
X13677286Y-15341286D01*
X13691571Y-15369857D01*
X13705857Y-15427000D01*
X13705857Y-15498429D01*
X13691571Y-15555571D01*
X13677286Y-15584143D01*
X13663000Y-15598429D01*
X13634428Y-15612714D01*
X13605857Y-15612714D01*
X13577286Y-15598429D01*
X13563000Y-15584143D01*
X13548714Y-15555571D01*
X13534428Y-15498429D01*
X13534428Y-15427000D01*
X13548714Y-15369857D01*
X13563000Y-15341286D01*
X13577286Y-15327000D01*
X13605857Y-15312714D01*
X13891571Y-15312714D02*
X13920143Y-15312714D01*
X13948714Y-15327000D01*
X13963000Y-15341286D01*
X13977286Y-15369857D01*
X13991571Y-15427000D01*
X13991571Y-15498429D01*
X13977286Y-15555571D01*
X13963000Y-15584143D01*
X13948714Y-15598429D01*
X13920143Y-15612714D01*
X13891571Y-15612714D01*
X13863000Y-15598429D01*
X13848714Y-15584143D01*
X13834428Y-15555571D01*
X13820143Y-15498429D01*
X13820143Y-15427000D01*
X13834428Y-15369857D01*
X13848714Y-15341286D01*
X13863000Y-15327000D01*
X13891571Y-15312714D01*
X14120143Y-15612714D02*
X14120143Y-15412714D01*
X14120143Y-15441286D02*
X14134428Y-15427000D01*
X14163000Y-15412714D01*
X14205857Y-15412714D01*
X14234428Y-15427000D01*
X14248714Y-15455571D01*
X14248714Y-15612714D01*
X14248714Y-15455571D02*
X14263000Y-15427000D01*
X14291571Y-15412714D01*
X14334428Y-15412714D01*
X14363000Y-15427000D01*
X14377286Y-15455571D01*
X14377286Y-15612714D01*
X14520143Y-15612714D02*
X14520143Y-15412714D01*
X14520143Y-15441286D02*
X14534428Y-15427000D01*
X14563000Y-15412714D01*
X14605857Y-15412714D01*
X14634428Y-15427000D01*
X14648714Y-15455571D01*
X14648714Y-15612714D01*
X14648714Y-15455571D02*
X14663000Y-15427000D01*
X14691571Y-15412714D01*
X14734428Y-15412714D01*
X14763000Y-15427000D01*
X14777286Y-15455571D01*
X14777286Y-15612714D01*
X15363000Y-15298429D02*
X15105857Y-15684143D01*
X15748714Y-15312714D02*
X15777286Y-15312714D01*
X15805857Y-15327000D01*
X15820143Y-15341286D01*
X15834428Y-15369857D01*
X15848714Y-15427000D01*
X15848714Y-15498429D01*
X15834428Y-15555571D01*
X15820143Y-15584143D01*
X15805857Y-15598429D01*
X15777286Y-15612714D01*
X15748714Y-15612714D01*
X15720143Y-15598429D01*
X15705857Y-15584143D01*
X15691571Y-15555571D01*
X15677286Y-15498429D01*
X15677286Y-15427000D01*
X15691571Y-15369857D01*
X15705857Y-15341286D01*
X15720143Y-15327000D01*
X15748714Y-15312714D01*
X15977286Y-15584143D02*
X15991571Y-15598429D01*
X15977286Y-15612714D01*
X15963000Y-15598429D01*
X15977286Y-15584143D01*
X15977286Y-15612714D01*
X16177286Y-15312714D02*
X16205857Y-15312714D01*
X16234428Y-15327000D01*
X16248714Y-15341286D01*
X16263000Y-15369857D01*
X16277286Y-15427000D01*
X16277286Y-15498429D01*
X16263000Y-15555571D01*
X16248714Y-15584143D01*
X16234428Y-15598429D01*
X16205857Y-15612714D01*
X16177286Y-15612714D01*
X16148714Y-15598429D01*
X16134428Y-15584143D01*
X16120143Y-15555571D01*
X16105857Y-15498429D01*
X16105857Y-15427000D01*
X16120143Y-15369857D01*
X16134428Y-15341286D01*
X16148714Y-15327000D01*
X16177286Y-15312714D01*
X16377286Y-15312714D02*
X16563000Y-15312714D01*
X16463000Y-15427000D01*
X16505857Y-15427000D01*
X16534428Y-15441286D01*
X16548714Y-15455571D01*
X16563000Y-15484143D01*
X16563000Y-15555571D01*
X16548714Y-15584143D01*
X16534428Y-15598429D01*
X16505857Y-15612714D01*
X16420143Y-15612714D01*
X16391571Y-15598429D01*
X16377286Y-15584143D01*
X16705857Y-15612714D02*
X16763000Y-15612714D01*
X16791571Y-15598429D01*
X16805857Y-15584143D01*
X16834428Y-15541286D01*
X16848714Y-15484143D01*
X16848714Y-15369857D01*
X16834428Y-15341286D01*
X16820143Y-15327000D01*
X16791571Y-15312714D01*
X16734428Y-15312714D01*
X16705857Y-15327000D01*
X16691571Y-15341286D01*
X16677286Y-15369857D01*
X16677286Y-15441286D01*
X16691571Y-15469857D01*
X16705857Y-15484143D01*
X16734428Y-15498429D01*
X16791571Y-15498429D01*
X16820143Y-15484143D01*
X16834428Y-15469857D01*
X16848714Y-15441286D01*
X17105857Y-15412714D02*
X17105857Y-15612714D01*
X17034428Y-15298429D02*
X16963000Y-15512714D01*
X17148714Y-15512714D01*
X17248714Y-15312714D02*
X17248714Y-15369857D01*
X17363000Y-15312714D02*
X17363000Y-15369857D01*
X17805857Y-15727000D02*
X17791571Y-15712714D01*
X17763000Y-15669857D01*
X17748714Y-15641286D01*
X17734428Y-15598429D01*
X17720143Y-15527000D01*
X17720143Y-15469857D01*
X17734428Y-15398429D01*
X17748714Y-15355571D01*
X17763000Y-15327000D01*
X17791571Y-15284143D01*
X17805857Y-15269857D01*
X17905857Y-15341286D02*
X17920143Y-15327000D01*
X17948714Y-15312714D01*
X18020143Y-15312714D01*
X18048714Y-15327000D01*
X18063000Y-15341286D01*
X18077286Y-15369857D01*
X18077286Y-15398429D01*
X18063000Y-15441286D01*
X17891571Y-15612714D01*
X18077286Y-15612714D01*
X18334428Y-15312714D02*
X18277286Y-15312714D01*
X18248714Y-15327000D01*
X18234428Y-15341286D01*
X18205857Y-15384143D01*
X18191571Y-15441286D01*
X18191571Y-15555571D01*
X18205857Y-15584143D01*
X18220143Y-15598429D01*
X18248714Y-15612714D01*
X18305857Y-15612714D01*
X18334428Y-15598429D01*
X18348714Y-15584143D01*
X18363000Y-15555571D01*
X18363000Y-15484143D01*
X18348714Y-15455571D01*
X18334428Y-15441286D01*
X18305857Y-15427000D01*
X18248714Y-15427000D01*
X18220143Y-15441286D01*
X18205857Y-15455571D01*
X18191571Y-15484143D01*
X18720143Y-15612714D02*
X18720143Y-15312714D01*
X18848714Y-15612714D02*
X18848714Y-15455571D01*
X18834428Y-15427000D01*
X18805857Y-15412714D01*
X18763000Y-15412714D01*
X18734428Y-15427000D01*
X18720143Y-15441286D01*
X19034428Y-15612714D02*
X19005857Y-15598429D01*
X18991571Y-15584143D01*
X18977286Y-15555571D01*
X18977286Y-15469857D01*
X18991571Y-15441286D01*
X19005857Y-15427000D01*
X19034428Y-15412714D01*
X19077286Y-15412714D01*
X19105857Y-15427000D01*
X19120143Y-15441286D01*
X19134428Y-15469857D01*
X19134428Y-15555571D01*
X19120143Y-15584143D01*
X19105857Y-15598429D01*
X19077286Y-15612714D01*
X19034428Y-15612714D01*
X19305857Y-15612714D02*
X19277286Y-15598429D01*
X19263000Y-15569857D01*
X19263000Y-15312714D01*
X19534428Y-15598429D02*
X19505857Y-15612714D01*
X19448714Y-15612714D01*
X19420143Y-15598429D01*
X19405857Y-15569857D01*
X19405857Y-15455571D01*
X19420143Y-15427000D01*
X19448714Y-15412714D01*
X19505857Y-15412714D01*
X19534428Y-15427000D01*
X19548714Y-15455571D01*
X19548714Y-15484143D01*
X19405857Y-15512714D01*
X19663000Y-15598429D02*
X19691571Y-15612714D01*
X19748714Y-15612714D01*
X19777286Y-15598429D01*
X19791571Y-15569857D01*
X19791571Y-15555571D01*
X19777286Y-15527000D01*
X19748714Y-15512714D01*
X19705857Y-15512714D01*
X19677286Y-15498429D01*
X19663000Y-15469857D01*
X19663000Y-15455571D01*
X19677286Y-15427000D01*
X19705857Y-15412714D01*
X19748714Y-15412714D01*
X19777286Y-15427000D01*
X19891571Y-15727000D02*
X19905857Y-15712714D01*
X19934428Y-15669857D01*
X19948714Y-15641286D01*
X19963000Y-15598429D01*
X19977286Y-15527000D01*
X19977286Y-15469857D01*
X19963000Y-15398429D01*
X19948714Y-15355571D01*
X19934428Y-15327000D01*
X19905857Y-15284143D01*
X19891571Y-15269857D01*
X12248000Y-15723000D02*
X12548000Y-16023000D01*
X12548000Y-15723000D02*
X12248000Y-16023000D01*
X12398000Y-15723000D02*
X12398000Y-16023000D01*
X12248000Y-15873000D02*
X12548000Y-15873000D01*
X12805857Y-15708714D02*
X12991571Y-15708714D01*
X12891571Y-15823000D01*
X12934428Y-15823000D01*
X12963000Y-15837286D01*
X12977286Y-15851571D01*
X12991571Y-15880143D01*
X12991571Y-15951571D01*
X12977286Y-15980143D01*
X12963000Y-15994429D01*
X12934428Y-16008714D01*
X12848714Y-16008714D01*
X12820143Y-15994429D01*
X12805857Y-15980143D01*
X13120143Y-15980143D02*
X13134428Y-15994429D01*
X13120143Y-16008714D01*
X13105857Y-15994429D01*
X13120143Y-15980143D01*
X13120143Y-16008714D01*
X13320143Y-15708714D02*
X13348714Y-15708714D01*
X13377286Y-15723000D01*
X13391571Y-15737286D01*
X13405857Y-15765857D01*
X13420143Y-15823000D01*
X13420143Y-15894429D01*
X13405857Y-15951571D01*
X13391571Y-15980143D01*
X13377286Y-15994429D01*
X13348714Y-16008714D01*
X13320143Y-16008714D01*
X13291571Y-15994429D01*
X13277286Y-15980143D01*
X13263000Y-15951571D01*
X13248714Y-15894429D01*
X13248714Y-15823000D01*
X13263000Y-15765857D01*
X13277286Y-15737286D01*
X13291571Y-15723000D01*
X13320143Y-15708714D01*
X13605857Y-15708714D02*
X13634428Y-15708714D01*
X13663000Y-15723000D01*
X13677286Y-15737286D01*
X13691571Y-15765857D01*
X13705857Y-15823000D01*
X13705857Y-15894429D01*
X13691571Y-15951571D01*
X13677286Y-15980143D01*
X13663000Y-15994429D01*
X13634428Y-16008714D01*
X13605857Y-16008714D01*
X13577286Y-15994429D01*
X13563000Y-15980143D01*
X13548714Y-15951571D01*
X13534428Y-15894429D01*
X13534428Y-15823000D01*
X13548714Y-15765857D01*
X13563000Y-15737286D01*
X13577286Y-15723000D01*
X13605857Y-15708714D01*
X13891571Y-15708714D02*
X13920143Y-15708714D01*
X13948714Y-15723000D01*
X13963000Y-15737286D01*
X13977286Y-15765857D01*
X13991571Y-15823000D01*
X13991571Y-15894429D01*
X13977286Y-15951571D01*
X13963000Y-15980143D01*
X13948714Y-15994429D01*
X13920143Y-16008714D01*
X13891571Y-16008714D01*
X13863000Y-15994429D01*
X13848714Y-15980143D01*
X13834428Y-15951571D01*
X13820143Y-15894429D01*
X13820143Y-15823000D01*
X13834428Y-15765857D01*
X13848714Y-15737286D01*
X13863000Y-15723000D01*
X13891571Y-15708714D01*
X14120143Y-16008714D02*
X14120143Y-15808714D01*
X14120143Y-15837286D02*
X14134428Y-15823000D01*
X14163000Y-15808714D01*
X14205857Y-15808714D01*
X14234428Y-15823000D01*
X14248714Y-15851571D01*
X14248714Y-16008714D01*
X14248714Y-15851571D02*
X14263000Y-15823000D01*
X14291571Y-15808714D01*
X14334428Y-15808714D01*
X14363000Y-15823000D01*
X14377286Y-15851571D01*
X14377286Y-16008714D01*
X14520143Y-16008714D02*
X14520143Y-15808714D01*
X14520143Y-15837286D02*
X14534428Y-15823000D01*
X14563000Y-15808714D01*
X14605857Y-15808714D01*
X14634428Y-15823000D01*
X14648714Y-15851571D01*
X14648714Y-16008714D01*
X14648714Y-15851571D02*
X14663000Y-15823000D01*
X14691571Y-15808714D01*
X14734428Y-15808714D01*
X14763000Y-15823000D01*
X14777286Y-15851571D01*
X14777286Y-16008714D01*
X15363000Y-15694429D02*
X15105857Y-16080143D01*
X15748714Y-15708714D02*
X15777286Y-15708714D01*
X15805857Y-15723000D01*
X15820143Y-15737286D01*
X15834428Y-15765857D01*
X15848714Y-15823000D01*
X15848714Y-15894429D01*
X15834428Y-15951571D01*
X15820143Y-15980143D01*
X15805857Y-15994429D01*
X15777286Y-16008714D01*
X15748714Y-16008714D01*
X15720143Y-15994429D01*
X15705857Y-15980143D01*
X15691571Y-15951571D01*
X15677286Y-15894429D01*
X15677286Y-15823000D01*
X15691571Y-15765857D01*
X15705857Y-15737286D01*
X15720143Y-15723000D01*
X15748714Y-15708714D01*
X15977286Y-15980143D02*
X15991571Y-15994429D01*
X15977286Y-16008714D01*
X15963000Y-15994429D01*
X15977286Y-15980143D01*
X15977286Y-16008714D01*
X16277286Y-16008714D02*
X16105857Y-16008714D01*
X16191571Y-16008714D02*
X16191571Y-15708714D01*
X16163000Y-15751571D01*
X16134428Y-15780143D01*
X16105857Y-15794429D01*
X16563000Y-16008714D02*
X16391571Y-16008714D01*
X16477286Y-16008714D02*
X16477286Y-15708714D01*
X16448714Y-15751571D01*
X16420143Y-15780143D01*
X16391571Y-15794429D01*
X16734428Y-15837286D02*
X16705857Y-15823000D01*
X16691571Y-15808714D01*
X16677286Y-15780143D01*
X16677286Y-15765857D01*
X16691571Y-15737286D01*
X16705857Y-15723000D01*
X16734428Y-15708714D01*
X16791571Y-15708714D01*
X16820143Y-15723000D01*
X16834428Y-15737286D01*
X16848714Y-15765857D01*
X16848714Y-15780143D01*
X16834428Y-15808714D01*
X16820143Y-15823000D01*
X16791571Y-15837286D01*
X16734428Y-15837286D01*
X16705857Y-15851571D01*
X16691571Y-15865857D01*
X16677286Y-15894429D01*
X16677286Y-15951571D01*
X16691571Y-15980143D01*
X16705857Y-15994429D01*
X16734428Y-16008714D01*
X16791571Y-16008714D01*
X16820143Y-15994429D01*
X16834428Y-15980143D01*
X16848714Y-15951571D01*
X16848714Y-15894429D01*
X16834428Y-15865857D01*
X16820143Y-15851571D01*
X16791571Y-15837286D01*
X17134428Y-16008714D02*
X16963000Y-16008714D01*
X17048714Y-16008714D02*
X17048714Y-15708714D01*
X17020143Y-15751571D01*
X16991571Y-15780143D01*
X16963000Y-15794429D01*
X17248714Y-15708714D02*
X17248714Y-15765857D01*
X17363000Y-15708714D02*
X17363000Y-15765857D01*
X17805857Y-16123000D02*
X17791571Y-16108714D01*
X17763000Y-16065857D01*
X17748714Y-16037286D01*
X17734428Y-15994429D01*
X17720143Y-15923000D01*
X17720143Y-15865857D01*
X17734428Y-15794429D01*
X17748714Y-15751571D01*
X17763000Y-15723000D01*
X17791571Y-15680143D01*
X17805857Y-15665857D01*
X18048714Y-15808714D02*
X18048714Y-16008714D01*
X17977286Y-15694429D02*
X17905857Y-15908714D01*
X18091571Y-15908714D01*
X18434428Y-16008714D02*
X18434428Y-15708714D01*
X18563000Y-16008714D02*
X18563000Y-15851571D01*
X18548714Y-15823000D01*
X18520143Y-15808714D01*
X18477286Y-15808714D01*
X18448714Y-15823000D01*
X18434428Y-15837286D01*
X18748714Y-16008714D02*
X18720143Y-15994429D01*
X18705857Y-15980143D01*
X18691571Y-15951571D01*
X18691571Y-15865857D01*
X18705857Y-15837286D01*
X18720143Y-15823000D01*
X18748714Y-15808714D01*
X18791571Y-15808714D01*
X18820143Y-15823000D01*
X18834428Y-15837286D01*
X18848714Y-15865857D01*
X18848714Y-15951571D01*
X18834428Y-15980143D01*
X18820143Y-15994429D01*
X18791571Y-16008714D01*
X18748714Y-16008714D01*
X19020143Y-16008714D02*
X18991571Y-15994429D01*
X18977286Y-15965857D01*
X18977286Y-15708714D01*
X19248714Y-15994429D02*
X19220143Y-16008714D01*
X19163000Y-16008714D01*
X19134428Y-15994429D01*
X19120143Y-15965857D01*
X19120143Y-15851571D01*
X19134428Y-15823000D01*
X19163000Y-15808714D01*
X19220143Y-15808714D01*
X19248714Y-15823000D01*
X19263000Y-15851571D01*
X19263000Y-15880143D01*
X19120143Y-15908714D01*
X19377286Y-15994429D02*
X19405857Y-16008714D01*
X19463000Y-16008714D01*
X19491571Y-15994429D01*
X19505857Y-15965857D01*
X19505857Y-15951571D01*
X19491571Y-15923000D01*
X19463000Y-15908714D01*
X19420143Y-15908714D01*
X19391571Y-15894429D01*
X19377286Y-15865857D01*
X19377286Y-15851571D01*
X19391571Y-15823000D01*
X19420143Y-15808714D01*
X19463000Y-15808714D01*
X19491571Y-15823000D01*
X19605857Y-16123000D02*
X19620143Y-16108714D01*
X19648714Y-16065857D01*
X19663000Y-16037286D01*
X19677286Y-15994429D01*
X19691571Y-15923000D01*
X19691571Y-15865857D01*
X19677286Y-15794429D01*
X19663000Y-15751571D01*
X19648714Y-15723000D01*
X19620143Y-15680143D01*
X19605857Y-15665857D01*
M02*
