M48
; DRILL file {KiCad (5.1.9)-1} date 03/16/21 10:59:02
; FORMAT={-:-/ absolute / inch / decimal}
; #@! TF.CreationDate,2021-03-16T10:59:02+01:00
; #@! TF.GenerationSoftware,Kicad,Pcbnew,(5.1.9)-1
; #@! TF.FileFunction,Plated,1,2,PTH
FMAT,2
INCH
T1C0.0138
T2C0.0157
T3C0.0173
T4C0.0276
T5C0.0295
T6C0.0394
T7C0.1382
%
G90
G05
T2
X5.4035Y-4.6543
X5.436Y-4.4496
X5.6079Y-2.889
X5.6146Y-4.639
X5.6156Y-4.6936
X5.6311Y-2.4906
X5.7705Y-3.9362
X5.8197Y-2.4906
X5.8236Y-3.778
X6.0953Y-3.6409
T3
X5.8063Y-2.8571
X5.8319Y-2.8965
X5.8575Y-2.8571
X5.8831Y-2.8965
X5.9087Y-2.8571
T4
X5.6319Y-2.5819
X5.7055Y-2.7634
X5.8043Y-2.7132
X5.9236Y-3.5755
X6.0496Y-2.7181
X6.1925Y-2.7193
X6.6472Y-3.5709
T5
X4.9528Y-2.8492
X5.0315Y-2.8492
T6
X5.0772Y-3.8622
X5.1772Y-3.8622
X5.2772Y-3.8622
X5.3772Y-3.8622
X5.4772Y-3.8622
X5.5772Y-3.8622
X5.6772Y-3.8622
X5.9228Y-3.865
X6.0228Y-3.865
X6.0807Y-2.1512
X6.1228Y-3.865
X6.1807Y-2.1512
X6.2228Y-3.865
X6.3228Y-3.865
X6.4228Y-3.865
X6.5228Y-3.865
X6.6228Y-3.865
T7
X5.2807Y-4.587
X5.2815Y-2.6055
X6.4413Y-4.585
X6.4425Y-2.6035
T1
G00X5.7167Y-2.8461
M15
G01X5.7167Y-2.8854
M16
G05
G00X5.9982Y-2.8461
M15
G01X5.9982Y-2.8854
M16
G05
T0
M30
