M48
; DRILL file {KiCad (5.1.9)-1} date 05/12/21 18:30:59
; FORMAT={-:-/ absolute / inch / decimal}
; #@! TF.CreationDate,2021-05-12T18:30:59+02:00
; #@! TF.GenerationSoftware,Kicad,Pcbnew,(5.1.9)-1
; #@! TF.FileFunction,Plated,1,2,PTH
FMAT,2
INCH
T1C0.0138
T2C0.0157
T3C0.0173
T4C0.0276
T5C0.0295
T6C0.0394
T7C0.1382
%
G90
G05
T2
X5.365Y-2.831
X5.3776Y-4.6469
X5.3935Y-3.0275
X5.4106Y-4.4736
X5.6146Y-4.639
X5.6156Y-4.6936
X5.72Y-2.9035
X6.215Y-2.316
X6.5496Y-4.0638
T3
X5.4114Y-2.1772
X5.437Y-2.1378
X5.4626Y-2.1772
X5.4882Y-2.1378
X5.5138Y-2.1772
T4
X5.655Y-2.696
X5.81Y-2.696
X6.0603Y-2.8297
X6.2032Y-2.8309
X6.7504Y-3.8404
T5
X4.9528Y-2.8492
X5.0315Y-2.8492
T6
X4.9799Y-4.6327
X4.9799Y-4.7327
X5.0775Y-3.615
X5.1775Y-3.615
X5.2775Y-3.615
X5.3775Y-3.615
X5.4122Y-2.4067
X5.4775Y-3.615
X5.5122Y-2.4067
X5.5775Y-3.615
X5.6142Y-3.8445
X5.6775Y-3.615
X5.7142Y-3.8445
X5.7598Y-2.4075
X5.8142Y-3.8445
X5.8598Y-2.4075
X5.9142Y-3.8445
X5.9406Y-3.6169
X5.9598Y-2.4075
X6.0142Y-3.8445
X6.0406Y-3.6169
X6.1142Y-3.8445
X6.1406Y-3.6169
X6.2406Y-3.6169
X6.3406Y-3.6169
X6.4406Y-3.6169
X6.5406Y-3.6169
X6.6406Y-3.6169
X6.75Y-4.6325
X6.75Y-4.7325
T7
X5.2807Y-2.6043
X5.2807Y-4.587
X6.4413Y-4.585
X6.4425Y-2.622
T1
G00X5.3219Y-2.1882
M15
G01X5.3219Y-2.1488
M16
G05
G00X5.6033Y-2.1882
M15
G01X5.6033Y-2.1488
M16
G05
T0
M30
