%FSLAX45Y45*%
G04 Gerber Fmt 4.5, Leading zero omitted, Abs format (unit mm)*
G04 Created by KiCad (PCBNEW (5.1.9)-1) date 2021-05-12 18:31:02*
%MOMM*%
%LPD*%
G01*
G04 APERTURE LIST*
%TA.AperFunction,Profile*%
%ADD10C,0.100000*%
%TD*%
%ADD11C,0.200000*%
%ADD12C,0.300000*%
G04 APERTURE END LIST*
D10*
X12993000Y-5897000D02*
X12993000Y-6589000D01*
X12362000Y-6589000D02*
X12993000Y-6589000D01*
X12364000Y-12366000D02*
X12362000Y-6589000D01*
X13165000Y-12369000D02*
X12364000Y-12366000D01*
X13162000Y-13166000D02*
X13165000Y-12369000D01*
X16614000Y-13166000D02*
X13162000Y-13166000D01*
X16613000Y-12366000D02*
X16614000Y-13166000D01*
X17414000Y-12366000D02*
X16613000Y-12366000D01*
X17415000Y-5894000D02*
X17414000Y-12366000D01*
X16617000Y-5897000D02*
X17415000Y-5894000D01*
X16615000Y-5096000D02*
X16617000Y-5897000D01*
X13163000Y-5096000D02*
X16615000Y-5096000D01*
X13165000Y-5897000D02*
X13163000Y-5096000D01*
X12993000Y-5897000D02*
X13165000Y-5897000D01*
D11*
X13093000Y-10851500D02*
X13173000Y-10931500D01*
X13173000Y-10851500D02*
X13093000Y-10931500D01*
X16595000Y-10852000D02*
X16675000Y-10932000D01*
X16675000Y-10852000D02*
X16595000Y-10932000D01*
D12*
X12643428Y-13636714D02*
X12643428Y-13336714D01*
X12714857Y-13336714D01*
X12757714Y-13351000D01*
X12786286Y-13379571D01*
X12800571Y-13408143D01*
X12814857Y-13465286D01*
X12814857Y-13508143D01*
X12800571Y-13565286D01*
X12786286Y-13593857D01*
X12757714Y-13622429D01*
X12714857Y-13636714D01*
X12643428Y-13636714D01*
X12943428Y-13636714D02*
X12943428Y-13436714D01*
X12943428Y-13493857D02*
X12957714Y-13465286D01*
X12972000Y-13451000D01*
X13000571Y-13436714D01*
X13029143Y-13436714D01*
X13129143Y-13636714D02*
X13129143Y-13436714D01*
X13129143Y-13336714D02*
X13114857Y-13351000D01*
X13129143Y-13365286D01*
X13143428Y-13351000D01*
X13129143Y-13336714D01*
X13129143Y-13365286D01*
X13314857Y-13636714D02*
X13286286Y-13622429D01*
X13272000Y-13593857D01*
X13272000Y-13336714D01*
X13472000Y-13636714D02*
X13443428Y-13622429D01*
X13429143Y-13593857D01*
X13429143Y-13336714D01*
X13814857Y-13636714D02*
X13814857Y-13336714D01*
X13914857Y-13551000D01*
X14014857Y-13336714D01*
X14014857Y-13636714D01*
X14286286Y-13636714D02*
X14286286Y-13479571D01*
X14272000Y-13451000D01*
X14243428Y-13436714D01*
X14186286Y-13436714D01*
X14157714Y-13451000D01*
X14286286Y-13622429D02*
X14257714Y-13636714D01*
X14186286Y-13636714D01*
X14157714Y-13622429D01*
X14143428Y-13593857D01*
X14143428Y-13565286D01*
X14157714Y-13536714D01*
X14186286Y-13522429D01*
X14257714Y-13522429D01*
X14286286Y-13508143D01*
X14429143Y-13436714D02*
X14429143Y-13736714D01*
X14429143Y-13451000D02*
X14457714Y-13436714D01*
X14514857Y-13436714D01*
X14543428Y-13451000D01*
X14557714Y-13465286D01*
X14572000Y-13493857D01*
X14572000Y-13579571D01*
X14557714Y-13608143D01*
X14543428Y-13622429D01*
X14514857Y-13636714D01*
X14457714Y-13636714D01*
X14429143Y-13622429D01*
X14700571Y-13608143D02*
X14714857Y-13622429D01*
X14700571Y-13636714D01*
X14686286Y-13622429D01*
X14700571Y-13608143D01*
X14700571Y-13636714D01*
X14700571Y-13451000D02*
X14714857Y-13465286D01*
X14700571Y-13479571D01*
X14686286Y-13465286D01*
X14700571Y-13451000D01*
X14700571Y-13479571D01*
X12277000Y-14091000D02*
X12357000Y-14171000D01*
X12357000Y-14091000D02*
X12277000Y-14171000D01*
X12700571Y-13966714D02*
X12729143Y-13966714D01*
X12757714Y-13981000D01*
X12772000Y-13995286D01*
X12786286Y-14023857D01*
X12800571Y-14081000D01*
X12800571Y-14152429D01*
X12786286Y-14209571D01*
X12772000Y-14238143D01*
X12757714Y-14252429D01*
X12729143Y-14266714D01*
X12700571Y-14266714D01*
X12672000Y-14252429D01*
X12657714Y-14238143D01*
X12643428Y-14209571D01*
X12629143Y-14152429D01*
X12629143Y-14081000D01*
X12643428Y-14023857D01*
X12657714Y-13995286D01*
X12672000Y-13981000D01*
X12700571Y-13966714D01*
X12929143Y-14238143D02*
X12943428Y-14252429D01*
X12929143Y-14266714D01*
X12914857Y-14252429D01*
X12929143Y-14238143D01*
X12929143Y-14266714D01*
X13114857Y-14095286D02*
X13086286Y-14081000D01*
X13072000Y-14066714D01*
X13057714Y-14038143D01*
X13057714Y-14023857D01*
X13072000Y-13995286D01*
X13086286Y-13981000D01*
X13114857Y-13966714D01*
X13172000Y-13966714D01*
X13200571Y-13981000D01*
X13214857Y-13995286D01*
X13229143Y-14023857D01*
X13229143Y-14038143D01*
X13214857Y-14066714D01*
X13200571Y-14081000D01*
X13172000Y-14095286D01*
X13114857Y-14095286D01*
X13086286Y-14109571D01*
X13072000Y-14123857D01*
X13057714Y-14152429D01*
X13057714Y-14209571D01*
X13072000Y-14238143D01*
X13086286Y-14252429D01*
X13114857Y-14266714D01*
X13172000Y-14266714D01*
X13200571Y-14252429D01*
X13214857Y-14238143D01*
X13229143Y-14209571D01*
X13229143Y-14152429D01*
X13214857Y-14123857D01*
X13200571Y-14109571D01*
X13172000Y-14095286D01*
X13414857Y-13966714D02*
X13443428Y-13966714D01*
X13472000Y-13981000D01*
X13486286Y-13995286D01*
X13500571Y-14023857D01*
X13514857Y-14081000D01*
X13514857Y-14152429D01*
X13500571Y-14209571D01*
X13486286Y-14238143D01*
X13472000Y-14252429D01*
X13443428Y-14266714D01*
X13414857Y-14266714D01*
X13386286Y-14252429D01*
X13372000Y-14238143D01*
X13357714Y-14209571D01*
X13343428Y-14152429D01*
X13343428Y-14081000D01*
X13357714Y-14023857D01*
X13372000Y-13995286D01*
X13386286Y-13981000D01*
X13414857Y-13966714D01*
X13643428Y-14266714D02*
X13643428Y-14066714D01*
X13643428Y-14095286D02*
X13657714Y-14081000D01*
X13686286Y-14066714D01*
X13729143Y-14066714D01*
X13757714Y-14081000D01*
X13772000Y-14109571D01*
X13772000Y-14266714D01*
X13772000Y-14109571D02*
X13786286Y-14081000D01*
X13814857Y-14066714D01*
X13857714Y-14066714D01*
X13886286Y-14081000D01*
X13900571Y-14109571D01*
X13900571Y-14266714D01*
X14043428Y-14266714D02*
X14043428Y-14066714D01*
X14043428Y-14095286D02*
X14057714Y-14081000D01*
X14086286Y-14066714D01*
X14129143Y-14066714D01*
X14157714Y-14081000D01*
X14172000Y-14109571D01*
X14172000Y-14266714D01*
X14172000Y-14109571D02*
X14186286Y-14081000D01*
X14214857Y-14066714D01*
X14257714Y-14066714D01*
X14286286Y-14081000D01*
X14300571Y-14109571D01*
X14300571Y-14266714D01*
X14886286Y-13952429D02*
X14629143Y-14338143D01*
X15272000Y-13966714D02*
X15300571Y-13966714D01*
X15329143Y-13981000D01*
X15343428Y-13995286D01*
X15357714Y-14023857D01*
X15372000Y-14081000D01*
X15372000Y-14152429D01*
X15357714Y-14209571D01*
X15343428Y-14238143D01*
X15329143Y-14252429D01*
X15300571Y-14266714D01*
X15272000Y-14266714D01*
X15243428Y-14252429D01*
X15229143Y-14238143D01*
X15214857Y-14209571D01*
X15200571Y-14152429D01*
X15200571Y-14081000D01*
X15214857Y-14023857D01*
X15229143Y-13995286D01*
X15243428Y-13981000D01*
X15272000Y-13966714D01*
X15500571Y-14238143D02*
X15514857Y-14252429D01*
X15500571Y-14266714D01*
X15486286Y-14252429D01*
X15500571Y-14238143D01*
X15500571Y-14266714D01*
X15700571Y-13966714D02*
X15729143Y-13966714D01*
X15757714Y-13981000D01*
X15772000Y-13995286D01*
X15786286Y-14023857D01*
X15800571Y-14081000D01*
X15800571Y-14152429D01*
X15786286Y-14209571D01*
X15772000Y-14238143D01*
X15757714Y-14252429D01*
X15729143Y-14266714D01*
X15700571Y-14266714D01*
X15672000Y-14252429D01*
X15657714Y-14238143D01*
X15643428Y-14209571D01*
X15629143Y-14152429D01*
X15629143Y-14081000D01*
X15643428Y-14023857D01*
X15657714Y-13995286D01*
X15672000Y-13981000D01*
X15700571Y-13966714D01*
X15900571Y-13966714D02*
X16086286Y-13966714D01*
X15986286Y-14081000D01*
X16029143Y-14081000D01*
X16057714Y-14095286D01*
X16072000Y-14109571D01*
X16086286Y-14138143D01*
X16086286Y-14209571D01*
X16072000Y-14238143D01*
X16057714Y-14252429D01*
X16029143Y-14266714D01*
X15943428Y-14266714D01*
X15914857Y-14252429D01*
X15900571Y-14238143D01*
X16372000Y-14266714D02*
X16200571Y-14266714D01*
X16286286Y-14266714D02*
X16286286Y-13966714D01*
X16257714Y-14009571D01*
X16229143Y-14038143D01*
X16200571Y-14052429D01*
X16486286Y-13966714D02*
X16486286Y-14023857D01*
X16600571Y-13966714D02*
X16600571Y-14023857D01*
X17043428Y-14381000D02*
X17029143Y-14366714D01*
X17000571Y-14323857D01*
X16986286Y-14295286D01*
X16972000Y-14252429D01*
X16957714Y-14181000D01*
X16957714Y-14123857D01*
X16972000Y-14052429D01*
X16986286Y-14009571D01*
X17000571Y-13981000D01*
X17029143Y-13938143D01*
X17043428Y-13923857D01*
X17143428Y-13995286D02*
X17157714Y-13981000D01*
X17186286Y-13966714D01*
X17257714Y-13966714D01*
X17286286Y-13981000D01*
X17300571Y-13995286D01*
X17314857Y-14023857D01*
X17314857Y-14052429D01*
X17300571Y-14095286D01*
X17129143Y-14266714D01*
X17314857Y-14266714D01*
X17672000Y-14266714D02*
X17672000Y-13966714D01*
X17800571Y-14266714D02*
X17800571Y-14109571D01*
X17786286Y-14081000D01*
X17757714Y-14066714D01*
X17714857Y-14066714D01*
X17686286Y-14081000D01*
X17672000Y-14095286D01*
X17986286Y-14266714D02*
X17957714Y-14252429D01*
X17943428Y-14238143D01*
X17929143Y-14209571D01*
X17929143Y-14123857D01*
X17943428Y-14095286D01*
X17957714Y-14081000D01*
X17986286Y-14066714D01*
X18029143Y-14066714D01*
X18057714Y-14081000D01*
X18072000Y-14095286D01*
X18086286Y-14123857D01*
X18086286Y-14209571D01*
X18072000Y-14238143D01*
X18057714Y-14252429D01*
X18029143Y-14266714D01*
X17986286Y-14266714D01*
X18257714Y-14266714D02*
X18229143Y-14252429D01*
X18214857Y-14223857D01*
X18214857Y-13966714D01*
X18486286Y-14252429D02*
X18457714Y-14266714D01*
X18400571Y-14266714D01*
X18372000Y-14252429D01*
X18357714Y-14223857D01*
X18357714Y-14109571D01*
X18372000Y-14081000D01*
X18400571Y-14066714D01*
X18457714Y-14066714D01*
X18486286Y-14081000D01*
X18500571Y-14109571D01*
X18500571Y-14138143D01*
X18357714Y-14166714D01*
X18614857Y-14252429D02*
X18643428Y-14266714D01*
X18700571Y-14266714D01*
X18729143Y-14252429D01*
X18743428Y-14223857D01*
X18743428Y-14209571D01*
X18729143Y-14181000D01*
X18700571Y-14166714D01*
X18657714Y-14166714D01*
X18629143Y-14152429D01*
X18614857Y-14123857D01*
X18614857Y-14109571D01*
X18629143Y-14081000D01*
X18657714Y-14066714D01*
X18700571Y-14066714D01*
X18729143Y-14081000D01*
X18843428Y-14381000D02*
X18857714Y-14366714D01*
X18886286Y-14323857D01*
X18900571Y-14295286D01*
X18914857Y-14252429D01*
X18929143Y-14181000D01*
X18929143Y-14123857D01*
X18914857Y-14052429D01*
X18900571Y-14009571D01*
X18886286Y-13981000D01*
X18857714Y-13938143D01*
X18843428Y-13923857D01*
X19386286Y-14381000D02*
X19372000Y-14366714D01*
X19343428Y-14323857D01*
X19329143Y-14295286D01*
X19314857Y-14252429D01*
X19300571Y-14181000D01*
X19300571Y-14123857D01*
X19314857Y-14052429D01*
X19329143Y-14009571D01*
X19343428Y-13981000D01*
X19372000Y-13938143D01*
X19386286Y-13923857D01*
X19500571Y-14066714D02*
X19500571Y-14266714D01*
X19500571Y-14095286D02*
X19514857Y-14081000D01*
X19543428Y-14066714D01*
X19586286Y-14066714D01*
X19614857Y-14081000D01*
X19629143Y-14109571D01*
X19629143Y-14266714D01*
X19814857Y-14266714D02*
X19786286Y-14252429D01*
X19772000Y-14238143D01*
X19757714Y-14209571D01*
X19757714Y-14123857D01*
X19772000Y-14095286D01*
X19786286Y-14081000D01*
X19814857Y-14066714D01*
X19857714Y-14066714D01*
X19886286Y-14081000D01*
X19900571Y-14095286D01*
X19914857Y-14123857D01*
X19914857Y-14209571D01*
X19900571Y-14238143D01*
X19886286Y-14252429D01*
X19857714Y-14266714D01*
X19814857Y-14266714D01*
X20000571Y-14066714D02*
X20114857Y-14066714D01*
X20043428Y-13966714D02*
X20043428Y-14223857D01*
X20057714Y-14252429D01*
X20086286Y-14266714D01*
X20114857Y-14266714D01*
X20443428Y-14066714D02*
X20443428Y-14366714D01*
X20443428Y-14081000D02*
X20472000Y-14066714D01*
X20529143Y-14066714D01*
X20557714Y-14081000D01*
X20572000Y-14095286D01*
X20586286Y-14123857D01*
X20586286Y-14209571D01*
X20572000Y-14238143D01*
X20557714Y-14252429D01*
X20529143Y-14266714D01*
X20472000Y-14266714D01*
X20443428Y-14252429D01*
X20757714Y-14266714D02*
X20729143Y-14252429D01*
X20714857Y-14223857D01*
X20714857Y-13966714D01*
X21000571Y-14266714D02*
X21000571Y-14109571D01*
X20986286Y-14081000D01*
X20957714Y-14066714D01*
X20900571Y-14066714D01*
X20872000Y-14081000D01*
X21000571Y-14252429D02*
X20972000Y-14266714D01*
X20900571Y-14266714D01*
X20872000Y-14252429D01*
X20857714Y-14223857D01*
X20857714Y-14195286D01*
X20872000Y-14166714D01*
X20900571Y-14152429D01*
X20972000Y-14152429D01*
X21000571Y-14138143D01*
X21100571Y-14066714D02*
X21214857Y-14066714D01*
X21143428Y-13966714D02*
X21143428Y-14223857D01*
X21157714Y-14252429D01*
X21186286Y-14266714D01*
X21214857Y-14266714D01*
X21429143Y-14252429D02*
X21400571Y-14266714D01*
X21343428Y-14266714D01*
X21314857Y-14252429D01*
X21300571Y-14223857D01*
X21300571Y-14109571D01*
X21314857Y-14081000D01*
X21343428Y-14066714D01*
X21400571Y-14066714D01*
X21429143Y-14081000D01*
X21443428Y-14109571D01*
X21443428Y-14138143D01*
X21300571Y-14166714D01*
X21700571Y-14266714D02*
X21700571Y-13966714D01*
X21700571Y-14252429D02*
X21672000Y-14266714D01*
X21614857Y-14266714D01*
X21586286Y-14252429D01*
X21572000Y-14238143D01*
X21557714Y-14209571D01*
X21557714Y-14123857D01*
X21572000Y-14095286D01*
X21586286Y-14081000D01*
X21614857Y-14066714D01*
X21672000Y-14066714D01*
X21700571Y-14081000D01*
X21814857Y-14381000D02*
X21829143Y-14366714D01*
X21857714Y-14323857D01*
X21872000Y-14295286D01*
X21886286Y-14252429D01*
X21900571Y-14181000D01*
X21900571Y-14123857D01*
X21886286Y-14052429D01*
X21872000Y-14009571D01*
X21857714Y-13981000D01*
X21829143Y-13938143D01*
X21814857Y-13923857D01*
M02*
