%TF.GenerationSoftware,KiCad,Pcbnew,(5.1.9)-1*%
%TF.CreationDate,2021-03-02T21:55:11+01:00*%
%TF.ProjectId,clip,636c6970-2e6b-4696-9361-645f70636258,rev?*%
%TF.SameCoordinates,Original*%
%TF.FileFunction,Legend,Top*%
%TF.FilePolarity,Positive*%
%FSLAX46Y46*%
G04 Gerber Fmt 4.6, Leading zero omitted, Abs format (unit mm)*
G04 Created by KiCad (PCBNEW (5.1.9)-1) date 2021-03-02 21:55:11*
%MOMM*%
%LPD*%
G01*
G04 APERTURE LIST*
%ADD10C,0.120000*%
%ADD11C,0.150000*%
%ADD12O,1.200000X1.750000*%
%ADD13R,2.000000X0.900000*%
%ADD14R,0.900000X2.000000*%
%ADD15R,5.000000X5.000000*%
%ADD16O,1.850000X0.850000*%
%ADD17C,0.840000*%
%ADD18R,0.840000X0.840000*%
%ADD19O,1.700000X1.700000*%
%ADD20R,1.700000X1.700000*%
%ADD21R,1.200000X0.400000*%
%ADD22R,1.560000X0.650000*%
%ADD23C,0.800000*%
%ADD24R,1.700000X0.900000*%
%ADD25R,0.800000X0.900000*%
%ADD26R,1.900000X0.800000*%
%ADD27R,1.000000X1.000000*%
G04 APERTURE END LIST*
D10*
%TO.C,J1*%
X129490000Y-72280000D02*
X129490000Y-73495000D01*
X129430000Y-68320000D02*
X129430000Y-66060000D01*
X128930000Y-68320000D02*
X128930000Y-66060000D01*
X126330000Y-69920000D02*
X125330000Y-69920000D01*
X126330000Y-68320000D02*
X126330000Y-69920000D01*
X125330000Y-68320000D02*
X126330000Y-68320000D01*
X125330000Y-69920000D02*
X125330000Y-68320000D01*
X128930000Y-69920000D02*
X129930000Y-69920000D01*
X128930000Y-68320000D02*
X128930000Y-69920000D01*
X129930000Y-68320000D02*
X128930000Y-68320000D01*
X129930000Y-69920000D02*
X129930000Y-68320000D01*
X124570000Y-72280000D02*
X125490000Y-72280000D01*
X130690000Y-72280000D02*
X129770000Y-72280000D01*
X127130000Y-70420000D02*
X127130000Y-66060000D01*
X128130000Y-70420000D02*
X127130000Y-70420000D01*
X128130000Y-66060000D02*
X128130000Y-70420000D01*
X125490000Y-72280000D02*
X125770000Y-72280000D01*
X125490000Y-73880000D02*
X125490000Y-72280000D01*
X124570000Y-73880000D02*
X125490000Y-73880000D01*
X124570000Y-66060000D02*
X124570000Y-73880000D01*
X130690000Y-66060000D02*
X124570000Y-66060000D01*
X130690000Y-73880000D02*
X130690000Y-66060000D01*
X129770000Y-73880000D02*
X130690000Y-73880000D01*
X129770000Y-72280000D02*
X129770000Y-73880000D01*
X129490000Y-72280000D02*
X129770000Y-72280000D01*
%TO.C,U4*%
X157950000Y-125045000D02*
X158330000Y-125045000D01*
X157950000Y-131465000D02*
X157950000Y-125045000D01*
X139710000Y-131465000D02*
X139710000Y-125045000D01*
X157950000Y-131465000D02*
X139710000Y-131465000D01*
X139710000Y-105720000D02*
X140710000Y-105720000D01*
X139710000Y-106500000D02*
X139710000Y-105720000D01*
X157950000Y-105720000D02*
X156950000Y-105720000D01*
X157950000Y-106500000D02*
X157950000Y-105720000D01*
D11*
%TO.C,J2*%
X128685000Y-74840000D02*
X129160000Y-74840000D01*
X129160000Y-74840000D02*
X129160000Y-83140000D01*
X129160000Y-83140000D02*
X128685000Y-83140000D01*
X126435000Y-74840000D02*
X125960000Y-74840000D01*
X125960000Y-74840000D02*
X125960000Y-83140000D01*
X125960000Y-83140000D02*
X126435000Y-83140000D01*
X129460000Y-76690000D02*
X129460000Y-78690000D01*
D10*
%TO.C,JP1*%
X158320000Y-53310000D02*
X158320000Y-54640000D01*
X156990000Y-53310000D02*
X158320000Y-53310000D01*
X155720000Y-53310000D02*
X155720000Y-55970000D01*
X155720000Y-55970000D02*
X153120000Y-55970000D01*
X155720000Y-53310000D02*
X153120000Y-53310000D01*
X153120000Y-53310000D02*
X153120000Y-55970000D01*
%TO.C,R13*%
X159850000Y-80151252D02*
X159850000Y-79628748D01*
X158430000Y-80151252D02*
X158430000Y-79628748D01*
%TO.C,C6*%
X133780748Y-78212000D02*
X134303252Y-78212000D01*
X133780748Y-76792000D02*
X134303252Y-76792000D01*
D11*
%TO.C,U3*%
X150515000Y-83209000D02*
X151640000Y-83209000D01*
X150515000Y-75369000D02*
X146365000Y-75369000D01*
X150515000Y-84319000D02*
X146365000Y-84319000D01*
X150515000Y-75369000D02*
X150515000Y-76479000D01*
X146365000Y-75369000D02*
X146365000Y-76479000D01*
X146365000Y-84319000D02*
X146365000Y-83209000D01*
X150515000Y-83209000D02*
X150515000Y-84319000D01*
D10*
%TO.C,U2*%
X156338000Y-68007000D02*
X158788000Y-68007000D01*
X158138000Y-64787000D02*
X156338000Y-64787000D01*
%TO.C,U1*%
X140340000Y-57460000D02*
X137890000Y-57460000D01*
X138540000Y-60680000D02*
X140340000Y-60680000D01*
%TO.C,SW2*%
X167750000Y-110570000D02*
X167450000Y-110570000D01*
X167750000Y-107270000D02*
X167750000Y-110570000D01*
X167450000Y-107270000D02*
X167750000Y-107270000D01*
X164950000Y-110570000D02*
X165250000Y-110570000D01*
X164950000Y-107270000D02*
X164950000Y-110570000D01*
X165250000Y-107270000D02*
X164950000Y-107270000D01*
%TO.C,SW1*%
X129930000Y-107265000D02*
X130230000Y-107265000D01*
X129930000Y-110565000D02*
X129930000Y-107265000D01*
X130230000Y-110565000D02*
X129930000Y-110565000D01*
X132730000Y-107265000D02*
X132430000Y-107265000D01*
X132730000Y-110565000D02*
X132730000Y-107265000D01*
X132430000Y-110565000D02*
X132730000Y-110565000D01*
%TO.C,R12*%
X163350000Y-80151252D02*
X163350000Y-79628748D01*
X161930000Y-80151252D02*
X161930000Y-79628748D01*
%TO.C,R11*%
X134570000Y-108145748D02*
X134570000Y-108668252D01*
X135990000Y-108145748D02*
X135990000Y-108668252D01*
%TO.C,R10*%
X163641252Y-112010000D02*
X163118748Y-112010000D01*
X163641252Y-113430000D02*
X163118748Y-113430000D01*
%TO.C,R9*%
X153263748Y-104450000D02*
X153786252Y-104450000D01*
X153263748Y-103030000D02*
X153786252Y-103030000D01*
%TO.C,R8*%
X144961252Y-53930000D02*
X144438748Y-53930000D01*
X144961252Y-55350000D02*
X144438748Y-55350000D01*
%TO.C,R7*%
X133780748Y-75926000D02*
X134303252Y-75926000D01*
X133780748Y-74506000D02*
X134303252Y-74506000D01*
%TO.C,R6*%
X145378748Y-58840000D02*
X145901252Y-58840000D01*
X145378748Y-57420000D02*
X145901252Y-57420000D01*
%TO.C,R5*%
X160338000Y-66008748D02*
X160338000Y-66531252D01*
X161758000Y-66008748D02*
X161758000Y-66531252D01*
%TO.C,R4*%
X133788748Y-85106000D02*
X134311252Y-85106000D01*
X133788748Y-83686000D02*
X134311252Y-83686000D01*
%TO.C,R2*%
X142401252Y-70160000D02*
X141878748Y-70160000D01*
X142401252Y-71580000D02*
X141878748Y-71580000D01*
%TO.C,R1*%
X149798748Y-63860000D02*
X150321252Y-63860000D01*
X149798748Y-62440000D02*
X150321252Y-62440000D01*
%TO.C,Q3*%
X159222000Y-84500000D02*
X159222000Y-83040000D01*
X162382000Y-84500000D02*
X162382000Y-82340000D01*
X162382000Y-84500000D02*
X161452000Y-84500000D01*
X159222000Y-84500000D02*
X160152000Y-84500000D01*
%TO.C,Q2*%
X162470000Y-75130000D02*
X162470000Y-76590000D01*
X159310000Y-75130000D02*
X159310000Y-77290000D01*
X159310000Y-75130000D02*
X160240000Y-75130000D01*
X162470000Y-75130000D02*
X161540000Y-75130000D01*
%TO.C,Q1*%
X138840000Y-64950000D02*
X140300000Y-64950000D01*
X138840000Y-68110000D02*
X142000000Y-68110000D01*
X138840000Y-68110000D02*
X138840000Y-67180000D01*
X138840000Y-64950000D02*
X138840000Y-65880000D01*
%TO.C,J4*%
X149110000Y-99500000D02*
X149110000Y-98170000D01*
X150440000Y-99500000D02*
X149110000Y-99500000D01*
X151710000Y-99500000D02*
X151710000Y-96840000D01*
X151710000Y-96840000D02*
X169550000Y-96840000D01*
X151710000Y-99500000D02*
X169550000Y-99500000D01*
X169550000Y-99500000D02*
X169550000Y-96840000D01*
%TO.C,J3*%
X127630000Y-99430000D02*
X127630000Y-98100000D01*
X128960000Y-99430000D02*
X127630000Y-99430000D01*
X130230000Y-99430000D02*
X130230000Y-96770000D01*
X130230000Y-96770000D02*
X145530000Y-96770000D01*
X130230000Y-99430000D02*
X145530000Y-99430000D01*
X145530000Y-99430000D02*
X145530000Y-96770000D01*
%TO.C,D5*%
X145995000Y-102770000D02*
X143135000Y-102770000D01*
X145995000Y-104690000D02*
X145995000Y-102770000D01*
X143135000Y-104690000D02*
X145995000Y-104690000D01*
%TO.C,D3*%
X148190000Y-55600000D02*
X151050000Y-55600000D01*
X148190000Y-53680000D02*
X148190000Y-55600000D01*
X151050000Y-53680000D02*
X148190000Y-53680000D01*
%TO.C,D2*%
X147800000Y-68380000D02*
X144650000Y-68380000D01*
X147800000Y-66680000D02*
X144650000Y-66680000D01*
X147800000Y-68380000D02*
X147800000Y-66680000D01*
%TO.C,D1*%
X151880000Y-57300000D02*
X149020000Y-57300000D01*
X151880000Y-59220000D02*
X151880000Y-57300000D01*
X149020000Y-59220000D02*
X151880000Y-59220000D01*
%TO.C,C12*%
X163070000Y-108686252D02*
X163070000Y-108163748D01*
X161650000Y-108686252D02*
X161650000Y-108163748D01*
%TO.C,C11*%
X159470000Y-122538748D02*
X159470000Y-123061252D01*
X160890000Y-122538748D02*
X160890000Y-123061252D01*
%TO.C,C10*%
X161680000Y-122528748D02*
X161680000Y-123051252D01*
X163100000Y-122528748D02*
X163100000Y-123051252D01*
%TO.C,C9*%
X140520000Y-79503748D02*
X140520000Y-80026252D01*
X141940000Y-79503748D02*
X141940000Y-80026252D01*
%TO.C,C8*%
X142720000Y-79533748D02*
X142720000Y-80056252D01*
X144140000Y-79533748D02*
X144140000Y-80056252D01*
%TO.C,C7*%
X154160000Y-80316252D02*
X154160000Y-79793748D01*
X152740000Y-80316252D02*
X152740000Y-79793748D01*
%TO.C,C5*%
X133728748Y-82620000D02*
X134251252Y-82620000D01*
X133728748Y-81200000D02*
X134251252Y-81200000D01*
%TO.C,C4*%
X162290000Y-69708748D02*
X162290000Y-70231252D01*
X163710000Y-69708748D02*
X163710000Y-70231252D01*
%TO.C,C3*%
X153850000Y-66721252D02*
X153850000Y-66198748D01*
X152430000Y-66721252D02*
X152430000Y-66198748D01*
%TO.C,C2*%
X145378748Y-60940000D02*
X145901252Y-60940000D01*
X145378748Y-59520000D02*
X145901252Y-59520000D01*
%TO.C,C1*%
X132330000Y-70898748D02*
X132330000Y-71421252D01*
X133750000Y-70898748D02*
X133750000Y-71421252D01*
%TO.C,J1*%
D11*
X131536666Y-72612380D02*
X131536666Y-73326666D01*
X131489047Y-73469523D01*
X131393809Y-73564761D01*
X131250952Y-73612380D01*
X131155714Y-73612380D01*
X132536666Y-73612380D02*
X131965238Y-73612380D01*
X132250952Y-73612380D02*
X132250952Y-72612380D01*
X132155714Y-72755238D01*
X132060476Y-72850476D01*
X131965238Y-72898095D01*
%TO.C,U4*%
X157488095Y-103912380D02*
X157488095Y-104721904D01*
X157535714Y-104817142D01*
X157583333Y-104864761D01*
X157678571Y-104912380D01*
X157869047Y-104912380D01*
X157964285Y-104864761D01*
X158011904Y-104817142D01*
X158059523Y-104721904D01*
X158059523Y-103912380D01*
X158964285Y-104245714D02*
X158964285Y-104912380D01*
X158726190Y-103864761D02*
X158488095Y-104579047D01*
X159107142Y-104579047D01*
%TO.C,J2*%
X129936666Y-82092380D02*
X129936666Y-82806666D01*
X129889047Y-82949523D01*
X129793809Y-83044761D01*
X129650952Y-83092380D01*
X129555714Y-83092380D01*
X130365238Y-82187619D02*
X130412857Y-82140000D01*
X130508095Y-82092380D01*
X130746190Y-82092380D01*
X130841428Y-82140000D01*
X130889047Y-82187619D01*
X130936666Y-82282857D01*
X130936666Y-82378095D01*
X130889047Y-82520952D01*
X130317619Y-83092380D01*
X130936666Y-83092380D01*
%TO.C,JP1*%
X154746666Y-51922380D02*
X154746666Y-52636666D01*
X154699047Y-52779523D01*
X154603809Y-52874761D01*
X154460952Y-52922380D01*
X154365714Y-52922380D01*
X155222857Y-52922380D02*
X155222857Y-51922380D01*
X155603809Y-51922380D01*
X155699047Y-51970000D01*
X155746666Y-52017619D01*
X155794285Y-52112857D01*
X155794285Y-52255714D01*
X155746666Y-52350952D01*
X155699047Y-52398571D01*
X155603809Y-52446190D01*
X155222857Y-52446190D01*
X156746666Y-52922380D02*
X156175238Y-52922380D01*
X156460952Y-52922380D02*
X156460952Y-51922380D01*
X156365714Y-52065238D01*
X156270476Y-52160476D01*
X156175238Y-52208095D01*
%TO.C,R13*%
X156613302Y-78045940D02*
X156279969Y-77569750D01*
X156041874Y-78045940D02*
X156041874Y-77045940D01*
X156422826Y-77045940D01*
X156518064Y-77093560D01*
X156565683Y-77141179D01*
X156613302Y-77236417D01*
X156613302Y-77379274D01*
X156565683Y-77474512D01*
X156518064Y-77522131D01*
X156422826Y-77569750D01*
X156041874Y-77569750D01*
X157565683Y-78045940D02*
X156994255Y-78045940D01*
X157279969Y-78045940D02*
X157279969Y-77045940D01*
X157184731Y-77188798D01*
X157089493Y-77284036D01*
X156994255Y-77331655D01*
X157899017Y-77045940D02*
X158518064Y-77045940D01*
X158184731Y-77426893D01*
X158327588Y-77426893D01*
X158422826Y-77474512D01*
X158470445Y-77522131D01*
X158518064Y-77617369D01*
X158518064Y-77855464D01*
X158470445Y-77950702D01*
X158422826Y-77998321D01*
X158327588Y-78045940D01*
X158041874Y-78045940D01*
X157946636Y-77998321D01*
X157899017Y-77950702D01*
%TO.C,C6*%
X137063333Y-77777142D02*
X137015714Y-77824761D01*
X136872857Y-77872380D01*
X136777619Y-77872380D01*
X136634761Y-77824761D01*
X136539523Y-77729523D01*
X136491904Y-77634285D01*
X136444285Y-77443809D01*
X136444285Y-77300952D01*
X136491904Y-77110476D01*
X136539523Y-77015238D01*
X136634761Y-76920000D01*
X136777619Y-76872380D01*
X136872857Y-76872380D01*
X137015714Y-76920000D01*
X137063333Y-76967619D01*
X137920476Y-76872380D02*
X137730000Y-76872380D01*
X137634761Y-76920000D01*
X137587142Y-76967619D01*
X137491904Y-77110476D01*
X137444285Y-77300952D01*
X137444285Y-77681904D01*
X137491904Y-77777142D01*
X137539523Y-77824761D01*
X137634761Y-77872380D01*
X137825238Y-77872380D01*
X137920476Y-77824761D01*
X137968095Y-77777142D01*
X138015714Y-77681904D01*
X138015714Y-77443809D01*
X137968095Y-77348571D01*
X137920476Y-77300952D01*
X137825238Y-77253333D01*
X137634761Y-77253333D01*
X137539523Y-77300952D01*
X137491904Y-77348571D01*
X137444285Y-77443809D01*
%TO.C,U3*%
X151178095Y-74546380D02*
X151178095Y-75355904D01*
X151225714Y-75451142D01*
X151273333Y-75498761D01*
X151368571Y-75546380D01*
X151559047Y-75546380D01*
X151654285Y-75498761D01*
X151701904Y-75451142D01*
X151749523Y-75355904D01*
X151749523Y-74546380D01*
X152130476Y-74546380D02*
X152749523Y-74546380D01*
X152416190Y-74927333D01*
X152559047Y-74927333D01*
X152654285Y-74974952D01*
X152701904Y-75022571D01*
X152749523Y-75117809D01*
X152749523Y-75355904D01*
X152701904Y-75451142D01*
X152654285Y-75498761D01*
X152559047Y-75546380D01*
X152273333Y-75546380D01*
X152178095Y-75498761D01*
X152130476Y-75451142D01*
%TO.C,U2*%
X155028095Y-63292380D02*
X155028095Y-64101904D01*
X155075714Y-64197142D01*
X155123333Y-64244761D01*
X155218571Y-64292380D01*
X155409047Y-64292380D01*
X155504285Y-64244761D01*
X155551904Y-64197142D01*
X155599523Y-64101904D01*
X155599523Y-63292380D01*
X156028095Y-63387619D02*
X156075714Y-63340000D01*
X156170952Y-63292380D01*
X156409047Y-63292380D01*
X156504285Y-63340000D01*
X156551904Y-63387619D01*
X156599523Y-63482857D01*
X156599523Y-63578095D01*
X156551904Y-63720952D01*
X155980476Y-64292380D01*
X156599523Y-64292380D01*
%TO.C,U1*%
X138778095Y-61272380D02*
X138778095Y-62081904D01*
X138825714Y-62177142D01*
X138873333Y-62224761D01*
X138968571Y-62272380D01*
X139159047Y-62272380D01*
X139254285Y-62224761D01*
X139301904Y-62177142D01*
X139349523Y-62081904D01*
X139349523Y-61272380D01*
X140349523Y-62272380D02*
X139778095Y-62272380D01*
X140063809Y-62272380D02*
X140063809Y-61272380D01*
X139968571Y-61415238D01*
X139873333Y-61510476D01*
X139778095Y-61558095D01*
%TO.C,SW2*%
X165051466Y-106051761D02*
X165194323Y-106099380D01*
X165432419Y-106099380D01*
X165527657Y-106051761D01*
X165575276Y-106004142D01*
X165622895Y-105908904D01*
X165622895Y-105813666D01*
X165575276Y-105718428D01*
X165527657Y-105670809D01*
X165432419Y-105623190D01*
X165241942Y-105575571D01*
X165146704Y-105527952D01*
X165099085Y-105480333D01*
X165051466Y-105385095D01*
X165051466Y-105289857D01*
X165099085Y-105194619D01*
X165146704Y-105147000D01*
X165241942Y-105099380D01*
X165480038Y-105099380D01*
X165622895Y-105147000D01*
X165956228Y-105099380D02*
X166194323Y-106099380D01*
X166384800Y-105385095D01*
X166575276Y-106099380D01*
X166813371Y-105099380D01*
X167146704Y-105194619D02*
X167194323Y-105147000D01*
X167289561Y-105099380D01*
X167527657Y-105099380D01*
X167622895Y-105147000D01*
X167670514Y-105194619D01*
X167718133Y-105289857D01*
X167718133Y-105385095D01*
X167670514Y-105527952D01*
X167099085Y-106099380D01*
X167718133Y-106099380D01*
%TO.C,SW1*%
X130127266Y-106007601D02*
X130270123Y-106055220D01*
X130508219Y-106055220D01*
X130603457Y-106007601D01*
X130651076Y-105959982D01*
X130698695Y-105864744D01*
X130698695Y-105769506D01*
X130651076Y-105674268D01*
X130603457Y-105626649D01*
X130508219Y-105579030D01*
X130317742Y-105531411D01*
X130222504Y-105483792D01*
X130174885Y-105436173D01*
X130127266Y-105340935D01*
X130127266Y-105245697D01*
X130174885Y-105150459D01*
X130222504Y-105102840D01*
X130317742Y-105055220D01*
X130555838Y-105055220D01*
X130698695Y-105102840D01*
X131032028Y-105055220D02*
X131270123Y-106055220D01*
X131460600Y-105340935D01*
X131651076Y-106055220D01*
X131889171Y-105055220D01*
X132793933Y-106055220D02*
X132222504Y-106055220D01*
X132508219Y-106055220D02*
X132508219Y-105055220D01*
X132412980Y-105198078D01*
X132317742Y-105293316D01*
X132222504Y-105340935D01*
%TO.C,R12*%
X164050422Y-78096740D02*
X163717089Y-77620550D01*
X163478994Y-78096740D02*
X163478994Y-77096740D01*
X163859946Y-77096740D01*
X163955184Y-77144360D01*
X164002803Y-77191979D01*
X164050422Y-77287217D01*
X164050422Y-77430074D01*
X164002803Y-77525312D01*
X163955184Y-77572931D01*
X163859946Y-77620550D01*
X163478994Y-77620550D01*
X165002803Y-78096740D02*
X164431375Y-78096740D01*
X164717089Y-78096740D02*
X164717089Y-77096740D01*
X164621851Y-77239598D01*
X164526613Y-77334836D01*
X164431375Y-77382455D01*
X165383756Y-77191979D02*
X165431375Y-77144360D01*
X165526613Y-77096740D01*
X165764708Y-77096740D01*
X165859946Y-77144360D01*
X165907565Y-77191979D01*
X165955184Y-77287217D01*
X165955184Y-77382455D01*
X165907565Y-77525312D01*
X165336137Y-78096740D01*
X165955184Y-78096740D01*
%TO.C,R11*%
X134597262Y-106024740D02*
X134263929Y-105548550D01*
X134025834Y-106024740D02*
X134025834Y-105024740D01*
X134406786Y-105024740D01*
X134502024Y-105072360D01*
X134549643Y-105119979D01*
X134597262Y-105215217D01*
X134597262Y-105358074D01*
X134549643Y-105453312D01*
X134502024Y-105500931D01*
X134406786Y-105548550D01*
X134025834Y-105548550D01*
X135549643Y-106024740D02*
X134978215Y-106024740D01*
X135263929Y-106024740D02*
X135263929Y-105024740D01*
X135168691Y-105167598D01*
X135073453Y-105262836D01*
X134978215Y-105310455D01*
X136502024Y-106024740D02*
X135930596Y-106024740D01*
X136216310Y-106024740D02*
X136216310Y-105024740D01*
X136121072Y-105167598D01*
X136025834Y-105262836D01*
X135930596Y-105310455D01*
%TO.C,R10*%
X166127142Y-113172380D02*
X165793809Y-112696190D01*
X165555714Y-113172380D02*
X165555714Y-112172380D01*
X165936666Y-112172380D01*
X166031904Y-112220000D01*
X166079523Y-112267619D01*
X166127142Y-112362857D01*
X166127142Y-112505714D01*
X166079523Y-112600952D01*
X166031904Y-112648571D01*
X165936666Y-112696190D01*
X165555714Y-112696190D01*
X167079523Y-113172380D02*
X166508095Y-113172380D01*
X166793809Y-113172380D02*
X166793809Y-112172380D01*
X166698571Y-112315238D01*
X166603333Y-112410476D01*
X166508095Y-112458095D01*
X167698571Y-112172380D02*
X167793809Y-112172380D01*
X167889047Y-112220000D01*
X167936666Y-112267619D01*
X167984285Y-112362857D01*
X168031904Y-112553333D01*
X168031904Y-112791428D01*
X167984285Y-112981904D01*
X167936666Y-113077142D01*
X167889047Y-113124761D01*
X167793809Y-113172380D01*
X167698571Y-113172380D01*
X167603333Y-113124761D01*
X167555714Y-113077142D01*
X167508095Y-112981904D01*
X167460476Y-112791428D01*
X167460476Y-112553333D01*
X167508095Y-112362857D01*
X167555714Y-112267619D01*
X167603333Y-112220000D01*
X167698571Y-112172380D01*
%TO.C,R9*%
X153408093Y-102378700D02*
X153074760Y-101902510D01*
X152836664Y-102378700D02*
X152836664Y-101378700D01*
X153217617Y-101378700D01*
X153312855Y-101426320D01*
X153360474Y-101473939D01*
X153408093Y-101569177D01*
X153408093Y-101712034D01*
X153360474Y-101807272D01*
X153312855Y-101854891D01*
X153217617Y-101902510D01*
X152836664Y-101902510D01*
X153884283Y-102378700D02*
X154074760Y-102378700D01*
X154169998Y-102331081D01*
X154217617Y-102283462D01*
X154312855Y-102140605D01*
X154360474Y-101950129D01*
X154360474Y-101569177D01*
X154312855Y-101473939D01*
X154265236Y-101426320D01*
X154169998Y-101378700D01*
X153979521Y-101378700D01*
X153884283Y-101426320D01*
X153836664Y-101473939D01*
X153789045Y-101569177D01*
X153789045Y-101807272D01*
X153836664Y-101902510D01*
X153884283Y-101950129D01*
X153979521Y-101997748D01*
X154169998Y-101997748D01*
X154265236Y-101950129D01*
X154312855Y-101902510D01*
X154360474Y-101807272D01*
%TO.C,R8*%
X144563333Y-53472380D02*
X144230000Y-52996190D01*
X143991904Y-53472380D02*
X143991904Y-52472380D01*
X144372857Y-52472380D01*
X144468095Y-52520000D01*
X144515714Y-52567619D01*
X144563333Y-52662857D01*
X144563333Y-52805714D01*
X144515714Y-52900952D01*
X144468095Y-52948571D01*
X144372857Y-52996190D01*
X143991904Y-52996190D01*
X145134761Y-52900952D02*
X145039523Y-52853333D01*
X144991904Y-52805714D01*
X144944285Y-52710476D01*
X144944285Y-52662857D01*
X144991904Y-52567619D01*
X145039523Y-52520000D01*
X145134761Y-52472380D01*
X145325238Y-52472380D01*
X145420476Y-52520000D01*
X145468095Y-52567619D01*
X145515714Y-52662857D01*
X145515714Y-52710476D01*
X145468095Y-52805714D01*
X145420476Y-52853333D01*
X145325238Y-52900952D01*
X145134761Y-52900952D01*
X145039523Y-52948571D01*
X144991904Y-52996190D01*
X144944285Y-53091428D01*
X144944285Y-53281904D01*
X144991904Y-53377142D01*
X145039523Y-53424761D01*
X145134761Y-53472380D01*
X145325238Y-53472380D01*
X145420476Y-53424761D01*
X145468095Y-53377142D01*
X145515714Y-53281904D01*
X145515714Y-53091428D01*
X145468095Y-52996190D01*
X145420476Y-52948571D01*
X145325238Y-52900952D01*
%TO.C,R7*%
X137123333Y-75732380D02*
X136790000Y-75256190D01*
X136551904Y-75732380D02*
X136551904Y-74732380D01*
X136932857Y-74732380D01*
X137028095Y-74780000D01*
X137075714Y-74827619D01*
X137123333Y-74922857D01*
X137123333Y-75065714D01*
X137075714Y-75160952D01*
X137028095Y-75208571D01*
X136932857Y-75256190D01*
X136551904Y-75256190D01*
X137456666Y-74732380D02*
X138123333Y-74732380D01*
X137694761Y-75732380D01*
%TO.C,R6*%
X145373333Y-56962380D02*
X145040000Y-56486190D01*
X144801904Y-56962380D02*
X144801904Y-55962380D01*
X145182857Y-55962380D01*
X145278095Y-56010000D01*
X145325714Y-56057619D01*
X145373333Y-56152857D01*
X145373333Y-56295714D01*
X145325714Y-56390952D01*
X145278095Y-56438571D01*
X145182857Y-56486190D01*
X144801904Y-56486190D01*
X146230476Y-55962380D02*
X146040000Y-55962380D01*
X145944761Y-56010000D01*
X145897142Y-56057619D01*
X145801904Y-56200476D01*
X145754285Y-56390952D01*
X145754285Y-56771904D01*
X145801904Y-56867142D01*
X145849523Y-56914761D01*
X145944761Y-56962380D01*
X146135238Y-56962380D01*
X146230476Y-56914761D01*
X146278095Y-56867142D01*
X146325714Y-56771904D01*
X146325714Y-56533809D01*
X146278095Y-56438571D01*
X146230476Y-56390952D01*
X146135238Y-56343333D01*
X145944761Y-56343333D01*
X145849523Y-56390952D01*
X145801904Y-56438571D01*
X145754285Y-56533809D01*
%TO.C,R5*%
X160923333Y-64092380D02*
X160590000Y-63616190D01*
X160351904Y-64092380D02*
X160351904Y-63092380D01*
X160732857Y-63092380D01*
X160828095Y-63140000D01*
X160875714Y-63187619D01*
X160923333Y-63282857D01*
X160923333Y-63425714D01*
X160875714Y-63520952D01*
X160828095Y-63568571D01*
X160732857Y-63616190D01*
X160351904Y-63616190D01*
X161828095Y-63092380D02*
X161351904Y-63092380D01*
X161304285Y-63568571D01*
X161351904Y-63520952D01*
X161447142Y-63473333D01*
X161685238Y-63473333D01*
X161780476Y-63520952D01*
X161828095Y-63568571D01*
X161875714Y-63663809D01*
X161875714Y-63901904D01*
X161828095Y-63997142D01*
X161780476Y-64044761D01*
X161685238Y-64092380D01*
X161447142Y-64092380D01*
X161351904Y-64044761D01*
X161304285Y-63997142D01*
%TO.C,R4*%
X137208333Y-84748380D02*
X136875000Y-84272190D01*
X136636904Y-84748380D02*
X136636904Y-83748380D01*
X137017857Y-83748380D01*
X137113095Y-83796000D01*
X137160714Y-83843619D01*
X137208333Y-83938857D01*
X137208333Y-84081714D01*
X137160714Y-84176952D01*
X137113095Y-84224571D01*
X137017857Y-84272190D01*
X136636904Y-84272190D01*
X138065476Y-84081714D02*
X138065476Y-84748380D01*
X137827380Y-83700761D02*
X137589285Y-84415047D01*
X138208333Y-84415047D01*
%TO.C,R2*%
X144883333Y-71332380D02*
X144550000Y-70856190D01*
X144311904Y-71332380D02*
X144311904Y-70332380D01*
X144692857Y-70332380D01*
X144788095Y-70380000D01*
X144835714Y-70427619D01*
X144883333Y-70522857D01*
X144883333Y-70665714D01*
X144835714Y-70760952D01*
X144788095Y-70808571D01*
X144692857Y-70856190D01*
X144311904Y-70856190D01*
X145264285Y-70427619D02*
X145311904Y-70380000D01*
X145407142Y-70332380D01*
X145645238Y-70332380D01*
X145740476Y-70380000D01*
X145788095Y-70427619D01*
X145835714Y-70522857D01*
X145835714Y-70618095D01*
X145788095Y-70760952D01*
X145216666Y-71332380D01*
X145835714Y-71332380D01*
%TO.C,R1*%
X149698333Y-61822380D02*
X149365000Y-61346190D01*
X149126904Y-61822380D02*
X149126904Y-60822380D01*
X149507857Y-60822380D01*
X149603095Y-60870000D01*
X149650714Y-60917619D01*
X149698333Y-61012857D01*
X149698333Y-61155714D01*
X149650714Y-61250952D01*
X149603095Y-61298571D01*
X149507857Y-61346190D01*
X149126904Y-61346190D01*
X150650714Y-61822380D02*
X150079285Y-61822380D01*
X150365000Y-61822380D02*
X150365000Y-60822380D01*
X150269761Y-60965238D01*
X150174523Y-61060476D01*
X150079285Y-61108095D01*
%TO.C,Q3*%
X163053721Y-85862779D02*
X162958483Y-85815160D01*
X162863245Y-85719921D01*
X162720388Y-85577064D01*
X162625150Y-85529445D01*
X162529912Y-85529445D01*
X162577531Y-85767540D02*
X162482293Y-85719921D01*
X162387055Y-85624683D01*
X162339436Y-85434207D01*
X162339436Y-85100874D01*
X162387055Y-84910398D01*
X162482293Y-84815160D01*
X162577531Y-84767540D01*
X162768007Y-84767540D01*
X162863245Y-84815160D01*
X162958483Y-84910398D01*
X163006102Y-85100874D01*
X163006102Y-85434207D01*
X162958483Y-85624683D01*
X162863245Y-85719921D01*
X162768007Y-85767540D01*
X162577531Y-85767540D01*
X163339436Y-84767540D02*
X163958483Y-84767540D01*
X163625150Y-85148493D01*
X163768007Y-85148493D01*
X163863245Y-85196112D01*
X163910864Y-85243731D01*
X163958483Y-85338969D01*
X163958483Y-85577064D01*
X163910864Y-85672302D01*
X163863245Y-85719921D01*
X163768007Y-85767540D01*
X163482293Y-85767540D01*
X163387055Y-85719921D01*
X163339436Y-85672302D01*
%TO.C,Q2*%
X163632841Y-75331939D02*
X163537603Y-75284320D01*
X163442365Y-75189081D01*
X163299508Y-75046224D01*
X163204270Y-74998605D01*
X163109032Y-74998605D01*
X163156651Y-75236700D02*
X163061413Y-75189081D01*
X162966175Y-75093843D01*
X162918556Y-74903367D01*
X162918556Y-74570034D01*
X162966175Y-74379558D01*
X163061413Y-74284320D01*
X163156651Y-74236700D01*
X163347127Y-74236700D01*
X163442365Y-74284320D01*
X163537603Y-74379558D01*
X163585222Y-74570034D01*
X163585222Y-74903367D01*
X163537603Y-75093843D01*
X163442365Y-75189081D01*
X163347127Y-75236700D01*
X163156651Y-75236700D01*
X163966175Y-74331939D02*
X164013794Y-74284320D01*
X164109032Y-74236700D01*
X164347127Y-74236700D01*
X164442365Y-74284320D01*
X164489984Y-74331939D01*
X164537603Y-74427177D01*
X164537603Y-74522415D01*
X164489984Y-74665272D01*
X163918556Y-75236700D01*
X164537603Y-75236700D01*
%TO.C,Q1*%
X139464761Y-64677619D02*
X139369523Y-64630000D01*
X139274285Y-64534761D01*
X139131428Y-64391904D01*
X139036190Y-64344285D01*
X138940952Y-64344285D01*
X138988571Y-64582380D02*
X138893333Y-64534761D01*
X138798095Y-64439523D01*
X138750476Y-64249047D01*
X138750476Y-63915714D01*
X138798095Y-63725238D01*
X138893333Y-63630000D01*
X138988571Y-63582380D01*
X139179047Y-63582380D01*
X139274285Y-63630000D01*
X139369523Y-63725238D01*
X139417142Y-63915714D01*
X139417142Y-64249047D01*
X139369523Y-64439523D01*
X139274285Y-64534761D01*
X139179047Y-64582380D01*
X138988571Y-64582380D01*
X140369523Y-64582380D02*
X139798095Y-64582380D01*
X140083809Y-64582380D02*
X140083809Y-63582380D01*
X139988571Y-63725238D01*
X139893333Y-63820476D01*
X139798095Y-63868095D01*
%TO.C,J4*%
X168700666Y-95184780D02*
X168700666Y-95899066D01*
X168653047Y-96041923D01*
X168557809Y-96137161D01*
X168414952Y-96184780D01*
X168319714Y-96184780D01*
X169605428Y-95518114D02*
X169605428Y-96184780D01*
X169367333Y-95137161D02*
X169129238Y-95851447D01*
X169748285Y-95851447D01*
%TO.C,J3*%
X127526666Y-95372380D02*
X127526666Y-96086666D01*
X127479047Y-96229523D01*
X127383809Y-96324761D01*
X127240952Y-96372380D01*
X127145714Y-96372380D01*
X127907619Y-95372380D02*
X128526666Y-95372380D01*
X128193333Y-95753333D01*
X128336190Y-95753333D01*
X128431428Y-95800952D01*
X128479047Y-95848571D01*
X128526666Y-95943809D01*
X128526666Y-96181904D01*
X128479047Y-96277142D01*
X128431428Y-96324761D01*
X128336190Y-96372380D01*
X128050476Y-96372380D01*
X127955238Y-96324761D01*
X127907619Y-96277142D01*
%TO.C,D5*%
X143607464Y-102337420D02*
X143607464Y-101337420D01*
X143845560Y-101337420D01*
X143988417Y-101385040D01*
X144083655Y-101480278D01*
X144131274Y-101575516D01*
X144178893Y-101765992D01*
X144178893Y-101908849D01*
X144131274Y-102099325D01*
X144083655Y-102194563D01*
X143988417Y-102289801D01*
X143845560Y-102337420D01*
X143607464Y-102337420D01*
X145083655Y-101337420D02*
X144607464Y-101337420D01*
X144559845Y-101813611D01*
X144607464Y-101765992D01*
X144702702Y-101718373D01*
X144940798Y-101718373D01*
X145036036Y-101765992D01*
X145083655Y-101813611D01*
X145131274Y-101908849D01*
X145131274Y-102146944D01*
X145083655Y-102242182D01*
X145036036Y-102289801D01*
X144940798Y-102337420D01*
X144702702Y-102337420D01*
X144607464Y-102289801D01*
X144559845Y-102242182D01*
%TO.C,D3*%
X149021904Y-53382380D02*
X149021904Y-52382380D01*
X149260000Y-52382380D01*
X149402857Y-52430000D01*
X149498095Y-52525238D01*
X149545714Y-52620476D01*
X149593333Y-52810952D01*
X149593333Y-52953809D01*
X149545714Y-53144285D01*
X149498095Y-53239523D01*
X149402857Y-53334761D01*
X149260000Y-53382380D01*
X149021904Y-53382380D01*
X149926666Y-52382380D02*
X150545714Y-52382380D01*
X150212380Y-52763333D01*
X150355238Y-52763333D01*
X150450476Y-52810952D01*
X150498095Y-52858571D01*
X150545714Y-52953809D01*
X150545714Y-53191904D01*
X150498095Y-53287142D01*
X150450476Y-53334761D01*
X150355238Y-53382380D01*
X150069523Y-53382380D01*
X149974285Y-53334761D01*
X149926666Y-53287142D01*
%TO.C,D2*%
X148279464Y-67964700D02*
X148279464Y-66964700D01*
X148517560Y-66964700D01*
X148660417Y-67012320D01*
X148755655Y-67107558D01*
X148803274Y-67202796D01*
X148850893Y-67393272D01*
X148850893Y-67536129D01*
X148803274Y-67726605D01*
X148755655Y-67821843D01*
X148660417Y-67917081D01*
X148517560Y-67964700D01*
X148279464Y-67964700D01*
X149231845Y-67059939D02*
X149279464Y-67012320D01*
X149374702Y-66964700D01*
X149612798Y-66964700D01*
X149708036Y-67012320D01*
X149755655Y-67059939D01*
X149803274Y-67155177D01*
X149803274Y-67250415D01*
X149755655Y-67393272D01*
X149184226Y-67964700D01*
X149803274Y-67964700D01*
%TO.C,D1*%
X149356904Y-57092380D02*
X149356904Y-56092380D01*
X149595000Y-56092380D01*
X149737857Y-56140000D01*
X149833095Y-56235238D01*
X149880714Y-56330476D01*
X149928333Y-56520952D01*
X149928333Y-56663809D01*
X149880714Y-56854285D01*
X149833095Y-56949523D01*
X149737857Y-57044761D01*
X149595000Y-57092380D01*
X149356904Y-57092380D01*
X150880714Y-57092380D02*
X150309285Y-57092380D01*
X150595000Y-57092380D02*
X150595000Y-56092380D01*
X150499761Y-56235238D01*
X150404523Y-56330476D01*
X150309285Y-56378095D01*
%TO.C,C12*%
X161717142Y-106007142D02*
X161669523Y-106054761D01*
X161526666Y-106102380D01*
X161431428Y-106102380D01*
X161288571Y-106054761D01*
X161193333Y-105959523D01*
X161145714Y-105864285D01*
X161098095Y-105673809D01*
X161098095Y-105530952D01*
X161145714Y-105340476D01*
X161193333Y-105245238D01*
X161288571Y-105150000D01*
X161431428Y-105102380D01*
X161526666Y-105102380D01*
X161669523Y-105150000D01*
X161717142Y-105197619D01*
X162669523Y-106102380D02*
X162098095Y-106102380D01*
X162383809Y-106102380D02*
X162383809Y-105102380D01*
X162288571Y-105245238D01*
X162193333Y-105340476D01*
X162098095Y-105388095D01*
X163050476Y-105197619D02*
X163098095Y-105150000D01*
X163193333Y-105102380D01*
X163431428Y-105102380D01*
X163526666Y-105150000D01*
X163574285Y-105197619D01*
X163621904Y-105292857D01*
X163621904Y-105388095D01*
X163574285Y-105530952D01*
X163002857Y-106102380D01*
X163621904Y-106102380D01*
%TO.C,C11*%
X159377142Y-120297142D02*
X159329523Y-120344761D01*
X159186666Y-120392380D01*
X159091428Y-120392380D01*
X158948571Y-120344761D01*
X158853333Y-120249523D01*
X158805714Y-120154285D01*
X158758095Y-119963809D01*
X158758095Y-119820952D01*
X158805714Y-119630476D01*
X158853333Y-119535238D01*
X158948571Y-119440000D01*
X159091428Y-119392380D01*
X159186666Y-119392380D01*
X159329523Y-119440000D01*
X159377142Y-119487619D01*
X160329523Y-120392380D02*
X159758095Y-120392380D01*
X160043809Y-120392380D02*
X160043809Y-119392380D01*
X159948571Y-119535238D01*
X159853333Y-119630476D01*
X159758095Y-119678095D01*
X161281904Y-120392380D02*
X160710476Y-120392380D01*
X160996190Y-120392380D02*
X160996190Y-119392380D01*
X160900952Y-119535238D01*
X160805714Y-119630476D01*
X160710476Y-119678095D01*
%TO.C,C10*%
X162287142Y-120277142D02*
X162239523Y-120324761D01*
X162096666Y-120372380D01*
X162001428Y-120372380D01*
X161858571Y-120324761D01*
X161763333Y-120229523D01*
X161715714Y-120134285D01*
X161668095Y-119943809D01*
X161668095Y-119800952D01*
X161715714Y-119610476D01*
X161763333Y-119515238D01*
X161858571Y-119420000D01*
X162001428Y-119372380D01*
X162096666Y-119372380D01*
X162239523Y-119420000D01*
X162287142Y-119467619D01*
X163239523Y-120372380D02*
X162668095Y-120372380D01*
X162953809Y-120372380D02*
X162953809Y-119372380D01*
X162858571Y-119515238D01*
X162763333Y-119610476D01*
X162668095Y-119658095D01*
X163858571Y-119372380D02*
X163953809Y-119372380D01*
X164049047Y-119420000D01*
X164096666Y-119467619D01*
X164144285Y-119562857D01*
X164191904Y-119753333D01*
X164191904Y-119991428D01*
X164144285Y-120181904D01*
X164096666Y-120277142D01*
X164049047Y-120324761D01*
X163953809Y-120372380D01*
X163858571Y-120372380D01*
X163763333Y-120324761D01*
X163715714Y-120277142D01*
X163668095Y-120181904D01*
X163620476Y-119991428D01*
X163620476Y-119753333D01*
X163668095Y-119562857D01*
X163715714Y-119467619D01*
X163763333Y-119420000D01*
X163858571Y-119372380D01*
%TO.C,C9*%
X141073333Y-83037142D02*
X141025714Y-83084761D01*
X140882857Y-83132380D01*
X140787619Y-83132380D01*
X140644761Y-83084761D01*
X140549523Y-82989523D01*
X140501904Y-82894285D01*
X140454285Y-82703809D01*
X140454285Y-82560952D01*
X140501904Y-82370476D01*
X140549523Y-82275238D01*
X140644761Y-82180000D01*
X140787619Y-82132380D01*
X140882857Y-82132380D01*
X141025714Y-82180000D01*
X141073333Y-82227619D01*
X141549523Y-83132380D02*
X141740000Y-83132380D01*
X141835238Y-83084761D01*
X141882857Y-83037142D01*
X141978095Y-82894285D01*
X142025714Y-82703809D01*
X142025714Y-82322857D01*
X141978095Y-82227619D01*
X141930476Y-82180000D01*
X141835238Y-82132380D01*
X141644761Y-82132380D01*
X141549523Y-82180000D01*
X141501904Y-82227619D01*
X141454285Y-82322857D01*
X141454285Y-82560952D01*
X141501904Y-82656190D01*
X141549523Y-82703809D01*
X141644761Y-82751428D01*
X141835238Y-82751428D01*
X141930476Y-82703809D01*
X141978095Y-82656190D01*
X142025714Y-82560952D01*
%TO.C,C8*%
X143293333Y-83037142D02*
X143245714Y-83084761D01*
X143102857Y-83132380D01*
X143007619Y-83132380D01*
X142864761Y-83084761D01*
X142769523Y-82989523D01*
X142721904Y-82894285D01*
X142674285Y-82703809D01*
X142674285Y-82560952D01*
X142721904Y-82370476D01*
X142769523Y-82275238D01*
X142864761Y-82180000D01*
X143007619Y-82132380D01*
X143102857Y-82132380D01*
X143245714Y-82180000D01*
X143293333Y-82227619D01*
X143864761Y-82560952D02*
X143769523Y-82513333D01*
X143721904Y-82465714D01*
X143674285Y-82370476D01*
X143674285Y-82322857D01*
X143721904Y-82227619D01*
X143769523Y-82180000D01*
X143864761Y-82132380D01*
X144055238Y-82132380D01*
X144150476Y-82180000D01*
X144198095Y-82227619D01*
X144245714Y-82322857D01*
X144245714Y-82370476D01*
X144198095Y-82465714D01*
X144150476Y-82513333D01*
X144055238Y-82560952D01*
X143864761Y-82560952D01*
X143769523Y-82608571D01*
X143721904Y-82656190D01*
X143674285Y-82751428D01*
X143674285Y-82941904D01*
X143721904Y-83037142D01*
X143769523Y-83084761D01*
X143864761Y-83132380D01*
X144055238Y-83132380D01*
X144150476Y-83084761D01*
X144198095Y-83037142D01*
X144245714Y-82941904D01*
X144245714Y-82751428D01*
X144198095Y-82656190D01*
X144150476Y-82608571D01*
X144055238Y-82560952D01*
%TO.C,C7*%
X153283333Y-83262142D02*
X153235714Y-83309761D01*
X153092857Y-83357380D01*
X152997619Y-83357380D01*
X152854761Y-83309761D01*
X152759523Y-83214523D01*
X152711904Y-83119285D01*
X152664285Y-82928809D01*
X152664285Y-82785952D01*
X152711904Y-82595476D01*
X152759523Y-82500238D01*
X152854761Y-82405000D01*
X152997619Y-82357380D01*
X153092857Y-82357380D01*
X153235714Y-82405000D01*
X153283333Y-82452619D01*
X153616666Y-82357380D02*
X154283333Y-82357380D01*
X153854761Y-83357380D01*
%TO.C,C5*%
X137098333Y-82217142D02*
X137050714Y-82264761D01*
X136907857Y-82312380D01*
X136812619Y-82312380D01*
X136669761Y-82264761D01*
X136574523Y-82169523D01*
X136526904Y-82074285D01*
X136479285Y-81883809D01*
X136479285Y-81740952D01*
X136526904Y-81550476D01*
X136574523Y-81455238D01*
X136669761Y-81360000D01*
X136812619Y-81312380D01*
X136907857Y-81312380D01*
X137050714Y-81360000D01*
X137098333Y-81407619D01*
X138003095Y-81312380D02*
X137526904Y-81312380D01*
X137479285Y-81788571D01*
X137526904Y-81740952D01*
X137622142Y-81693333D01*
X137860238Y-81693333D01*
X137955476Y-81740952D01*
X138003095Y-81788571D01*
X138050714Y-81883809D01*
X138050714Y-82121904D01*
X138003095Y-82217142D01*
X137955476Y-82264761D01*
X137860238Y-82312380D01*
X137622142Y-82312380D01*
X137526904Y-82264761D01*
X137479285Y-82217142D01*
%TO.C,C4*%
X164983333Y-70707142D02*
X164935714Y-70754761D01*
X164792857Y-70802380D01*
X164697619Y-70802380D01*
X164554761Y-70754761D01*
X164459523Y-70659523D01*
X164411904Y-70564285D01*
X164364285Y-70373809D01*
X164364285Y-70230952D01*
X164411904Y-70040476D01*
X164459523Y-69945238D01*
X164554761Y-69850000D01*
X164697619Y-69802380D01*
X164792857Y-69802380D01*
X164935714Y-69850000D01*
X164983333Y-69897619D01*
X165840476Y-70135714D02*
X165840476Y-70802380D01*
X165602380Y-69754761D02*
X165364285Y-70469047D01*
X165983333Y-70469047D01*
%TO.C,C3*%
X152873333Y-69667142D02*
X152825714Y-69714761D01*
X152682857Y-69762380D01*
X152587619Y-69762380D01*
X152444761Y-69714761D01*
X152349523Y-69619523D01*
X152301904Y-69524285D01*
X152254285Y-69333809D01*
X152254285Y-69190952D01*
X152301904Y-69000476D01*
X152349523Y-68905238D01*
X152444761Y-68810000D01*
X152587619Y-68762380D01*
X152682857Y-68762380D01*
X152825714Y-68810000D01*
X152873333Y-68857619D01*
X153206666Y-68762380D02*
X153825714Y-68762380D01*
X153492380Y-69143333D01*
X153635238Y-69143333D01*
X153730476Y-69190952D01*
X153778095Y-69238571D01*
X153825714Y-69333809D01*
X153825714Y-69571904D01*
X153778095Y-69667142D01*
X153730476Y-69714761D01*
X153635238Y-69762380D01*
X153349523Y-69762380D01*
X153254285Y-69714761D01*
X153206666Y-69667142D01*
%TO.C,C2*%
X145538333Y-62327142D02*
X145490714Y-62374761D01*
X145347857Y-62422380D01*
X145252619Y-62422380D01*
X145109761Y-62374761D01*
X145014523Y-62279523D01*
X144966904Y-62184285D01*
X144919285Y-61993809D01*
X144919285Y-61850952D01*
X144966904Y-61660476D01*
X145014523Y-61565238D01*
X145109761Y-61470000D01*
X145252619Y-61422380D01*
X145347857Y-61422380D01*
X145490714Y-61470000D01*
X145538333Y-61517619D01*
X145919285Y-61517619D02*
X145966904Y-61470000D01*
X146062142Y-61422380D01*
X146300238Y-61422380D01*
X146395476Y-61470000D01*
X146443095Y-61517619D01*
X146490714Y-61612857D01*
X146490714Y-61708095D01*
X146443095Y-61850952D01*
X145871666Y-62422380D01*
X146490714Y-62422380D01*
%TO.C,C1*%
X134903333Y-71527142D02*
X134855714Y-71574761D01*
X134712857Y-71622380D01*
X134617619Y-71622380D01*
X134474761Y-71574761D01*
X134379523Y-71479523D01*
X134331904Y-71384285D01*
X134284285Y-71193809D01*
X134284285Y-71050952D01*
X134331904Y-70860476D01*
X134379523Y-70765238D01*
X134474761Y-70670000D01*
X134617619Y-70622380D01*
X134712857Y-70622380D01*
X134855714Y-70670000D01*
X134903333Y-70717619D01*
X135855714Y-71622380D02*
X135284285Y-71622380D01*
X135570000Y-71622380D02*
X135570000Y-70622380D01*
X135474761Y-70765238D01*
X135379523Y-70860476D01*
X135284285Y-70908095D01*
%TD*%
%LPC*%
D12*
%TO.C,J1*%
X126630000Y-72420000D03*
G36*
G01*
X129230000Y-71794999D02*
X129230000Y-73045001D01*
G75*
G02*
X128980001Y-73295000I-249999J0D01*
G01*
X128279999Y-73295000D01*
G75*
G02*
X128030000Y-73045001I0J249999D01*
G01*
X128030000Y-71794999D01*
G75*
G02*
X128279999Y-71545000I249999J0D01*
G01*
X128980001Y-71545000D01*
G75*
G02*
X129230000Y-71794999I0J-249999D01*
G01*
G37*
%TD*%
D13*
%TO.C,U4*%
X140330000Y-123855000D03*
X140330000Y-122585000D03*
X140330000Y-121315000D03*
X140330000Y-120045000D03*
X140330000Y-118775000D03*
X140330000Y-117505000D03*
X140330000Y-116235000D03*
X140330000Y-114965000D03*
X140330000Y-113695000D03*
X140330000Y-112425000D03*
X140330000Y-111155000D03*
X140330000Y-109885000D03*
X140330000Y-108615000D03*
X140330000Y-107345000D03*
D14*
X143115000Y-106345000D03*
X144385000Y-106345000D03*
X145655000Y-106345000D03*
X146925000Y-106345000D03*
X148195000Y-106345000D03*
X149465000Y-106345000D03*
X150735000Y-106345000D03*
X152005000Y-106345000D03*
X153275000Y-106345000D03*
X154545000Y-106345000D03*
D13*
X157330000Y-107345000D03*
X157330000Y-108615000D03*
X157330000Y-109885000D03*
X157330000Y-111155000D03*
X157330000Y-112425000D03*
X157330000Y-113695000D03*
X157330000Y-114965000D03*
X157330000Y-116235000D03*
X157330000Y-117505000D03*
X157330000Y-118775000D03*
X157330000Y-120045000D03*
X157330000Y-121315000D03*
X157330000Y-122585000D03*
X157330000Y-123855000D03*
D15*
X149830000Y-116355000D03*
%TD*%
D16*
%TO.C,J2*%
X127560000Y-82565000D03*
X127560000Y-75415000D03*
D17*
X127780000Y-80290000D03*
X126780000Y-79640000D03*
X127780000Y-78990000D03*
X126780000Y-78340000D03*
D18*
X127780000Y-77690000D03*
%TD*%
D19*
%TO.C,JP1*%
X154450000Y-54640000D03*
D20*
X156990000Y-54640000D03*
%TD*%
%TO.C,R13*%
G36*
G01*
X159590001Y-79440000D02*
X158689999Y-79440000D01*
G75*
G02*
X158440000Y-79190001I0J249999D01*
G01*
X158440000Y-78539999D01*
G75*
G02*
X158689999Y-78290000I249999J0D01*
G01*
X159590001Y-78290000D01*
G75*
G02*
X159840000Y-78539999I0J-249999D01*
G01*
X159840000Y-79190001D01*
G75*
G02*
X159590001Y-79440000I-249999J0D01*
G01*
G37*
G36*
G01*
X159590001Y-81490000D02*
X158689999Y-81490000D01*
G75*
G02*
X158440000Y-81240001I0J249999D01*
G01*
X158440000Y-80589999D01*
G75*
G02*
X158689999Y-80340000I249999J0D01*
G01*
X159590001Y-80340000D01*
G75*
G02*
X159840000Y-80589999I0J-249999D01*
G01*
X159840000Y-81240001D01*
G75*
G02*
X159590001Y-81490000I-249999J0D01*
G01*
G37*
%TD*%
%TO.C,C6*%
G36*
G01*
X134492000Y-77952001D02*
X134492000Y-77051999D01*
G75*
G02*
X134741999Y-76802000I249999J0D01*
G01*
X135392001Y-76802000D01*
G75*
G02*
X135642000Y-77051999I0J-249999D01*
G01*
X135642000Y-77952001D01*
G75*
G02*
X135392001Y-78202000I-249999J0D01*
G01*
X134741999Y-78202000D01*
G75*
G02*
X134492000Y-77952001I0J249999D01*
G01*
G37*
G36*
G01*
X132442000Y-77952001D02*
X132442000Y-77051999D01*
G75*
G02*
X132691999Y-76802000I249999J0D01*
G01*
X133342001Y-76802000D01*
G75*
G02*
X133592000Y-77051999I0J-249999D01*
G01*
X133592000Y-77952001D01*
G75*
G02*
X133342001Y-78202000I-249999J0D01*
G01*
X132691999Y-78202000D01*
G75*
G02*
X132442000Y-77952001I0J249999D01*
G01*
G37*
%TD*%
D21*
%TO.C,U3*%
X145840000Y-82701500D03*
X145840000Y-82066500D03*
X145840000Y-81431500D03*
X145840000Y-80796500D03*
X145840000Y-80161500D03*
X145840000Y-79526500D03*
X145840000Y-78891500D03*
X145840000Y-78256500D03*
X145840000Y-77621500D03*
X145840000Y-76986500D03*
X151040000Y-76986500D03*
X151040000Y-77621500D03*
X151040000Y-78256500D03*
X151040000Y-78891500D03*
X151040000Y-79526500D03*
X151040000Y-80161500D03*
X151040000Y-80796500D03*
X151040000Y-81431500D03*
X151040000Y-82066500D03*
X151040000Y-82701500D03*
%TD*%
D22*
%TO.C,U2*%
X155888000Y-67347000D03*
X155888000Y-65447000D03*
X158588000Y-65447000D03*
X158588000Y-66397000D03*
X158588000Y-67347000D03*
%TD*%
%TO.C,U1*%
X140790000Y-58120000D03*
X140790000Y-60020000D03*
X138090000Y-60020000D03*
X138090000Y-59070000D03*
X138090000Y-58120000D03*
%TD*%
D23*
%TO.C,SW2*%
X166350000Y-108920000D03*
D24*
X166350000Y-110620000D03*
X166350000Y-107220000D03*
%TD*%
D23*
%TO.C,SW1*%
X131330000Y-108915000D03*
D24*
X131330000Y-107215000D03*
X131330000Y-110615000D03*
%TD*%
%TO.C,R12*%
G36*
G01*
X163090001Y-79440000D02*
X162189999Y-79440000D01*
G75*
G02*
X161940000Y-79190001I0J249999D01*
G01*
X161940000Y-78539999D01*
G75*
G02*
X162189999Y-78290000I249999J0D01*
G01*
X163090001Y-78290000D01*
G75*
G02*
X163340000Y-78539999I0J-249999D01*
G01*
X163340000Y-79190001D01*
G75*
G02*
X163090001Y-79440000I-249999J0D01*
G01*
G37*
G36*
G01*
X163090001Y-81490000D02*
X162189999Y-81490000D01*
G75*
G02*
X161940000Y-81240001I0J249999D01*
G01*
X161940000Y-80589999D01*
G75*
G02*
X162189999Y-80340000I249999J0D01*
G01*
X163090001Y-80340000D01*
G75*
G02*
X163340000Y-80589999I0J-249999D01*
G01*
X163340000Y-81240001D01*
G75*
G02*
X163090001Y-81490000I-249999J0D01*
G01*
G37*
%TD*%
%TO.C,R11*%
G36*
G01*
X134829999Y-108857000D02*
X135730001Y-108857000D01*
G75*
G02*
X135980000Y-109106999I0J-249999D01*
G01*
X135980000Y-109757001D01*
G75*
G02*
X135730001Y-110007000I-249999J0D01*
G01*
X134829999Y-110007000D01*
G75*
G02*
X134580000Y-109757001I0J249999D01*
G01*
X134580000Y-109106999D01*
G75*
G02*
X134829999Y-108857000I249999J0D01*
G01*
G37*
G36*
G01*
X134829999Y-106807000D02*
X135730001Y-106807000D01*
G75*
G02*
X135980000Y-107056999I0J-249999D01*
G01*
X135980000Y-107707001D01*
G75*
G02*
X135730001Y-107957000I-249999J0D01*
G01*
X134829999Y-107957000D01*
G75*
G02*
X134580000Y-107707001I0J249999D01*
G01*
X134580000Y-107056999D01*
G75*
G02*
X134829999Y-106807000I249999J0D01*
G01*
G37*
%TD*%
%TO.C,R10*%
G36*
G01*
X162930000Y-112269999D02*
X162930000Y-113170001D01*
G75*
G02*
X162680001Y-113420000I-249999J0D01*
G01*
X162029999Y-113420000D01*
G75*
G02*
X161780000Y-113170001I0J249999D01*
G01*
X161780000Y-112269999D01*
G75*
G02*
X162029999Y-112020000I249999J0D01*
G01*
X162680001Y-112020000D01*
G75*
G02*
X162930000Y-112269999I0J-249999D01*
G01*
G37*
G36*
G01*
X164980000Y-112269999D02*
X164980000Y-113170001D01*
G75*
G02*
X164730001Y-113420000I-249999J0D01*
G01*
X164079999Y-113420000D01*
G75*
G02*
X163830000Y-113170001I0J249999D01*
G01*
X163830000Y-112269999D01*
G75*
G02*
X164079999Y-112020000I249999J0D01*
G01*
X164730001Y-112020000D01*
G75*
G02*
X164980000Y-112269999I0J-249999D01*
G01*
G37*
%TD*%
%TO.C,R9*%
G36*
G01*
X153975000Y-104190001D02*
X153975000Y-103289999D01*
G75*
G02*
X154224999Y-103040000I249999J0D01*
G01*
X154875001Y-103040000D01*
G75*
G02*
X155125000Y-103289999I0J-249999D01*
G01*
X155125000Y-104190001D01*
G75*
G02*
X154875001Y-104440000I-249999J0D01*
G01*
X154224999Y-104440000D01*
G75*
G02*
X153975000Y-104190001I0J249999D01*
G01*
G37*
G36*
G01*
X151925000Y-104190001D02*
X151925000Y-103289999D01*
G75*
G02*
X152174999Y-103040000I249999J0D01*
G01*
X152825001Y-103040000D01*
G75*
G02*
X153075000Y-103289999I0J-249999D01*
G01*
X153075000Y-104190001D01*
G75*
G02*
X152825001Y-104440000I-249999J0D01*
G01*
X152174999Y-104440000D01*
G75*
G02*
X151925000Y-104190001I0J249999D01*
G01*
G37*
%TD*%
%TO.C,R8*%
G36*
G01*
X144250000Y-54189999D02*
X144250000Y-55090001D01*
G75*
G02*
X144000001Y-55340000I-249999J0D01*
G01*
X143349999Y-55340000D01*
G75*
G02*
X143100000Y-55090001I0J249999D01*
G01*
X143100000Y-54189999D01*
G75*
G02*
X143349999Y-53940000I249999J0D01*
G01*
X144000001Y-53940000D01*
G75*
G02*
X144250000Y-54189999I0J-249999D01*
G01*
G37*
G36*
G01*
X146300000Y-54189999D02*
X146300000Y-55090001D01*
G75*
G02*
X146050001Y-55340000I-249999J0D01*
G01*
X145399999Y-55340000D01*
G75*
G02*
X145150000Y-55090001I0J249999D01*
G01*
X145150000Y-54189999D01*
G75*
G02*
X145399999Y-53940000I249999J0D01*
G01*
X146050001Y-53940000D01*
G75*
G02*
X146300000Y-54189999I0J-249999D01*
G01*
G37*
%TD*%
%TO.C,R7*%
G36*
G01*
X134492000Y-75666001D02*
X134492000Y-74765999D01*
G75*
G02*
X134741999Y-74516000I249999J0D01*
G01*
X135392001Y-74516000D01*
G75*
G02*
X135642000Y-74765999I0J-249999D01*
G01*
X135642000Y-75666001D01*
G75*
G02*
X135392001Y-75916000I-249999J0D01*
G01*
X134741999Y-75916000D01*
G75*
G02*
X134492000Y-75666001I0J249999D01*
G01*
G37*
G36*
G01*
X132442000Y-75666001D02*
X132442000Y-74765999D01*
G75*
G02*
X132691999Y-74516000I249999J0D01*
G01*
X133342001Y-74516000D01*
G75*
G02*
X133592000Y-74765999I0J-249999D01*
G01*
X133592000Y-75666001D01*
G75*
G02*
X133342001Y-75916000I-249999J0D01*
G01*
X132691999Y-75916000D01*
G75*
G02*
X132442000Y-75666001I0J249999D01*
G01*
G37*
%TD*%
%TO.C,R6*%
G36*
G01*
X146090000Y-58580001D02*
X146090000Y-57679999D01*
G75*
G02*
X146339999Y-57430000I249999J0D01*
G01*
X146990001Y-57430000D01*
G75*
G02*
X147240000Y-57679999I0J-249999D01*
G01*
X147240000Y-58580001D01*
G75*
G02*
X146990001Y-58830000I-249999J0D01*
G01*
X146339999Y-58830000D01*
G75*
G02*
X146090000Y-58580001I0J249999D01*
G01*
G37*
G36*
G01*
X144040000Y-58580001D02*
X144040000Y-57679999D01*
G75*
G02*
X144289999Y-57430000I249999J0D01*
G01*
X144940001Y-57430000D01*
G75*
G02*
X145190000Y-57679999I0J-249999D01*
G01*
X145190000Y-58580001D01*
G75*
G02*
X144940001Y-58830000I-249999J0D01*
G01*
X144289999Y-58830000D01*
G75*
G02*
X144040000Y-58580001I0J249999D01*
G01*
G37*
%TD*%
%TO.C,R5*%
G36*
G01*
X160597999Y-66720000D02*
X161498001Y-66720000D01*
G75*
G02*
X161748000Y-66969999I0J-249999D01*
G01*
X161748000Y-67620001D01*
G75*
G02*
X161498001Y-67870000I-249999J0D01*
G01*
X160597999Y-67870000D01*
G75*
G02*
X160348000Y-67620001I0J249999D01*
G01*
X160348000Y-66969999D01*
G75*
G02*
X160597999Y-66720000I249999J0D01*
G01*
G37*
G36*
G01*
X160597999Y-64670000D02*
X161498001Y-64670000D01*
G75*
G02*
X161748000Y-64919999I0J-249999D01*
G01*
X161748000Y-65570001D01*
G75*
G02*
X161498001Y-65820000I-249999J0D01*
G01*
X160597999Y-65820000D01*
G75*
G02*
X160348000Y-65570001I0J249999D01*
G01*
X160348000Y-64919999D01*
G75*
G02*
X160597999Y-64670000I249999J0D01*
G01*
G37*
%TD*%
%TO.C,R4*%
G36*
G01*
X134500000Y-84846001D02*
X134500000Y-83945999D01*
G75*
G02*
X134749999Y-83696000I249999J0D01*
G01*
X135400001Y-83696000D01*
G75*
G02*
X135650000Y-83945999I0J-249999D01*
G01*
X135650000Y-84846001D01*
G75*
G02*
X135400001Y-85096000I-249999J0D01*
G01*
X134749999Y-85096000D01*
G75*
G02*
X134500000Y-84846001I0J249999D01*
G01*
G37*
G36*
G01*
X132450000Y-84846001D02*
X132450000Y-83945999D01*
G75*
G02*
X132699999Y-83696000I249999J0D01*
G01*
X133350001Y-83696000D01*
G75*
G02*
X133600000Y-83945999I0J-249999D01*
G01*
X133600000Y-84846001D01*
G75*
G02*
X133350001Y-85096000I-249999J0D01*
G01*
X132699999Y-85096000D01*
G75*
G02*
X132450000Y-84846001I0J249999D01*
G01*
G37*
%TD*%
%TO.C,R2*%
G36*
G01*
X141690000Y-70419999D02*
X141690000Y-71320001D01*
G75*
G02*
X141440001Y-71570000I-249999J0D01*
G01*
X140789999Y-71570000D01*
G75*
G02*
X140540000Y-71320001I0J249999D01*
G01*
X140540000Y-70419999D01*
G75*
G02*
X140789999Y-70170000I249999J0D01*
G01*
X141440001Y-70170000D01*
G75*
G02*
X141690000Y-70419999I0J-249999D01*
G01*
G37*
G36*
G01*
X143740000Y-70419999D02*
X143740000Y-71320001D01*
G75*
G02*
X143490001Y-71570000I-249999J0D01*
G01*
X142839999Y-71570000D01*
G75*
G02*
X142590000Y-71320001I0J249999D01*
G01*
X142590000Y-70419999D01*
G75*
G02*
X142839999Y-70170000I249999J0D01*
G01*
X143490001Y-70170000D01*
G75*
G02*
X143740000Y-70419999I0J-249999D01*
G01*
G37*
%TD*%
%TO.C,R1*%
G36*
G01*
X150510000Y-63600001D02*
X150510000Y-62699999D01*
G75*
G02*
X150759999Y-62450000I249999J0D01*
G01*
X151410001Y-62450000D01*
G75*
G02*
X151660000Y-62699999I0J-249999D01*
G01*
X151660000Y-63600001D01*
G75*
G02*
X151410001Y-63850000I-249999J0D01*
G01*
X150759999Y-63850000D01*
G75*
G02*
X150510000Y-63600001I0J249999D01*
G01*
G37*
G36*
G01*
X148460000Y-63600001D02*
X148460000Y-62699999D01*
G75*
G02*
X148709999Y-62450000I249999J0D01*
G01*
X149360001Y-62450000D01*
G75*
G02*
X149610000Y-62699999I0J-249999D01*
G01*
X149610000Y-63600001D01*
G75*
G02*
X149360001Y-63850000I-249999J0D01*
G01*
X148709999Y-63850000D01*
G75*
G02*
X148460000Y-63600001I0J249999D01*
G01*
G37*
%TD*%
D25*
%TO.C,Q3*%
X160802000Y-84740000D03*
X159852000Y-82740000D03*
X161752000Y-82740000D03*
%TD*%
%TO.C,Q2*%
X160890000Y-74890000D03*
X161840000Y-76890000D03*
X159940000Y-76890000D03*
%TD*%
D26*
%TO.C,Q1*%
X138100000Y-66530000D03*
X141100000Y-65580000D03*
X141100000Y-67480000D03*
%TD*%
D19*
%TO.C,J4*%
X168220000Y-98170000D03*
X165680000Y-98170000D03*
X163140000Y-98170000D03*
X160600000Y-98170000D03*
X158060000Y-98170000D03*
X155520000Y-98170000D03*
X152980000Y-98170000D03*
D20*
X150440000Y-98170000D03*
%TD*%
D19*
%TO.C,J3*%
X144200000Y-98100000D03*
X141660000Y-98100000D03*
X139120000Y-98100000D03*
X136580000Y-98100000D03*
X134040000Y-98100000D03*
X131500000Y-98100000D03*
D20*
X128960000Y-98100000D03*
%TD*%
%TO.C,D5*%
G36*
G01*
X143685000Y-103279999D02*
X143685000Y-104180001D01*
G75*
G02*
X143435001Y-104430000I-249999J0D01*
G01*
X142784999Y-104430000D01*
G75*
G02*
X142535000Y-104180001I0J249999D01*
G01*
X142535000Y-103279999D01*
G75*
G02*
X142784999Y-103030000I249999J0D01*
G01*
X143435001Y-103030000D01*
G75*
G02*
X143685000Y-103279999I0J-249999D01*
G01*
G37*
G36*
G01*
X145735000Y-103279999D02*
X145735000Y-104180001D01*
G75*
G02*
X145485001Y-104430000I-249999J0D01*
G01*
X144834999Y-104430000D01*
G75*
G02*
X144585000Y-104180001I0J249999D01*
G01*
X144585000Y-103279999D01*
G75*
G02*
X144834999Y-103030000I249999J0D01*
G01*
X145485001Y-103030000D01*
G75*
G02*
X145735000Y-103279999I0J-249999D01*
G01*
G37*
%TD*%
%TO.C,D3*%
G36*
G01*
X150500000Y-55090001D02*
X150500000Y-54189999D01*
G75*
G02*
X150749999Y-53940000I249999J0D01*
G01*
X151400001Y-53940000D01*
G75*
G02*
X151650000Y-54189999I0J-249999D01*
G01*
X151650000Y-55090001D01*
G75*
G02*
X151400001Y-55340000I-249999J0D01*
G01*
X150749999Y-55340000D01*
G75*
G02*
X150500000Y-55090001I0J249999D01*
G01*
G37*
G36*
G01*
X148450000Y-55090001D02*
X148450000Y-54189999D01*
G75*
G02*
X148699999Y-53940000I249999J0D01*
G01*
X149350001Y-53940000D01*
G75*
G02*
X149600000Y-54189999I0J-249999D01*
G01*
X149600000Y-55090001D01*
G75*
G02*
X149350001Y-55340000I-249999J0D01*
G01*
X148699999Y-55340000D01*
G75*
G02*
X148450000Y-55090001I0J249999D01*
G01*
G37*
%TD*%
D27*
%TO.C,D2*%
X144650000Y-67530000D03*
X147150000Y-67530000D03*
%TD*%
%TO.C,D1*%
G36*
G01*
X149570000Y-57809999D02*
X149570000Y-58710001D01*
G75*
G02*
X149320001Y-58960000I-249999J0D01*
G01*
X148669999Y-58960000D01*
G75*
G02*
X148420000Y-58710001I0J249999D01*
G01*
X148420000Y-57809999D01*
G75*
G02*
X148669999Y-57560000I249999J0D01*
G01*
X149320001Y-57560000D01*
G75*
G02*
X149570000Y-57809999I0J-249999D01*
G01*
G37*
G36*
G01*
X151620000Y-57809999D02*
X151620000Y-58710001D01*
G75*
G02*
X151370001Y-58960000I-249999J0D01*
G01*
X150719999Y-58960000D01*
G75*
G02*
X150470000Y-58710001I0J249999D01*
G01*
X150470000Y-57809999D01*
G75*
G02*
X150719999Y-57560000I249999J0D01*
G01*
X151370001Y-57560000D01*
G75*
G02*
X151620000Y-57809999I0J-249999D01*
G01*
G37*
%TD*%
%TO.C,C12*%
G36*
G01*
X162810001Y-107975000D02*
X161909999Y-107975000D01*
G75*
G02*
X161660000Y-107725001I0J249999D01*
G01*
X161660000Y-107074999D01*
G75*
G02*
X161909999Y-106825000I249999J0D01*
G01*
X162810001Y-106825000D01*
G75*
G02*
X163060000Y-107074999I0J-249999D01*
G01*
X163060000Y-107725001D01*
G75*
G02*
X162810001Y-107975000I-249999J0D01*
G01*
G37*
G36*
G01*
X162810001Y-110025000D02*
X161909999Y-110025000D01*
G75*
G02*
X161660000Y-109775001I0J249999D01*
G01*
X161660000Y-109124999D01*
G75*
G02*
X161909999Y-108875000I249999J0D01*
G01*
X162810001Y-108875000D01*
G75*
G02*
X163060000Y-109124999I0J-249999D01*
G01*
X163060000Y-109775001D01*
G75*
G02*
X162810001Y-110025000I-249999J0D01*
G01*
G37*
%TD*%
%TO.C,C11*%
G36*
G01*
X159729999Y-123250000D02*
X160630001Y-123250000D01*
G75*
G02*
X160880000Y-123499999I0J-249999D01*
G01*
X160880000Y-124150001D01*
G75*
G02*
X160630001Y-124400000I-249999J0D01*
G01*
X159729999Y-124400000D01*
G75*
G02*
X159480000Y-124150001I0J249999D01*
G01*
X159480000Y-123499999D01*
G75*
G02*
X159729999Y-123250000I249999J0D01*
G01*
G37*
G36*
G01*
X159729999Y-121200000D02*
X160630001Y-121200000D01*
G75*
G02*
X160880000Y-121449999I0J-249999D01*
G01*
X160880000Y-122100001D01*
G75*
G02*
X160630001Y-122350000I-249999J0D01*
G01*
X159729999Y-122350000D01*
G75*
G02*
X159480000Y-122100001I0J249999D01*
G01*
X159480000Y-121449999D01*
G75*
G02*
X159729999Y-121200000I249999J0D01*
G01*
G37*
%TD*%
%TO.C,C10*%
G36*
G01*
X161939999Y-123240000D02*
X162840001Y-123240000D01*
G75*
G02*
X163090000Y-123489999I0J-249999D01*
G01*
X163090000Y-124140001D01*
G75*
G02*
X162840001Y-124390000I-249999J0D01*
G01*
X161939999Y-124390000D01*
G75*
G02*
X161690000Y-124140001I0J249999D01*
G01*
X161690000Y-123489999D01*
G75*
G02*
X161939999Y-123240000I249999J0D01*
G01*
G37*
G36*
G01*
X161939999Y-121190000D02*
X162840001Y-121190000D01*
G75*
G02*
X163090000Y-121439999I0J-249999D01*
G01*
X163090000Y-122090001D01*
G75*
G02*
X162840001Y-122340000I-249999J0D01*
G01*
X161939999Y-122340000D01*
G75*
G02*
X161690000Y-122090001I0J249999D01*
G01*
X161690000Y-121439999D01*
G75*
G02*
X161939999Y-121190000I249999J0D01*
G01*
G37*
%TD*%
%TO.C,C9*%
G36*
G01*
X140779999Y-80215000D02*
X141680001Y-80215000D01*
G75*
G02*
X141930000Y-80464999I0J-249999D01*
G01*
X141930000Y-81115001D01*
G75*
G02*
X141680001Y-81365000I-249999J0D01*
G01*
X140779999Y-81365000D01*
G75*
G02*
X140530000Y-81115001I0J249999D01*
G01*
X140530000Y-80464999D01*
G75*
G02*
X140779999Y-80215000I249999J0D01*
G01*
G37*
G36*
G01*
X140779999Y-78165000D02*
X141680001Y-78165000D01*
G75*
G02*
X141930000Y-78414999I0J-249999D01*
G01*
X141930000Y-79065001D01*
G75*
G02*
X141680001Y-79315000I-249999J0D01*
G01*
X140779999Y-79315000D01*
G75*
G02*
X140530000Y-79065001I0J249999D01*
G01*
X140530000Y-78414999D01*
G75*
G02*
X140779999Y-78165000I249999J0D01*
G01*
G37*
%TD*%
%TO.C,C8*%
G36*
G01*
X142979999Y-80245000D02*
X143880001Y-80245000D01*
G75*
G02*
X144130000Y-80494999I0J-249999D01*
G01*
X144130000Y-81145001D01*
G75*
G02*
X143880001Y-81395000I-249999J0D01*
G01*
X142979999Y-81395000D01*
G75*
G02*
X142730000Y-81145001I0J249999D01*
G01*
X142730000Y-80494999D01*
G75*
G02*
X142979999Y-80245000I249999J0D01*
G01*
G37*
G36*
G01*
X142979999Y-78195000D02*
X143880001Y-78195000D01*
G75*
G02*
X144130000Y-78444999I0J-249999D01*
G01*
X144130000Y-79095001D01*
G75*
G02*
X143880001Y-79345000I-249999J0D01*
G01*
X142979999Y-79345000D01*
G75*
G02*
X142730000Y-79095001I0J249999D01*
G01*
X142730000Y-78444999D01*
G75*
G02*
X142979999Y-78195000I249999J0D01*
G01*
G37*
%TD*%
%TO.C,C7*%
G36*
G01*
X153900001Y-79605000D02*
X152999999Y-79605000D01*
G75*
G02*
X152750000Y-79355001I0J249999D01*
G01*
X152750000Y-78704999D01*
G75*
G02*
X152999999Y-78455000I249999J0D01*
G01*
X153900001Y-78455000D01*
G75*
G02*
X154150000Y-78704999I0J-249999D01*
G01*
X154150000Y-79355001D01*
G75*
G02*
X153900001Y-79605000I-249999J0D01*
G01*
G37*
G36*
G01*
X153900001Y-81655000D02*
X152999999Y-81655000D01*
G75*
G02*
X152750000Y-81405001I0J249999D01*
G01*
X152750000Y-80754999D01*
G75*
G02*
X152999999Y-80505000I249999J0D01*
G01*
X153900001Y-80505000D01*
G75*
G02*
X154150000Y-80754999I0J-249999D01*
G01*
X154150000Y-81405001D01*
G75*
G02*
X153900001Y-81655000I-249999J0D01*
G01*
G37*
%TD*%
%TO.C,C5*%
G36*
G01*
X134440000Y-82360001D02*
X134440000Y-81459999D01*
G75*
G02*
X134689999Y-81210000I249999J0D01*
G01*
X135340001Y-81210000D01*
G75*
G02*
X135590000Y-81459999I0J-249999D01*
G01*
X135590000Y-82360001D01*
G75*
G02*
X135340001Y-82610000I-249999J0D01*
G01*
X134689999Y-82610000D01*
G75*
G02*
X134440000Y-82360001I0J249999D01*
G01*
G37*
G36*
G01*
X132390000Y-82360001D02*
X132390000Y-81459999D01*
G75*
G02*
X132639999Y-81210000I249999J0D01*
G01*
X133290001Y-81210000D01*
G75*
G02*
X133540000Y-81459999I0J-249999D01*
G01*
X133540000Y-82360001D01*
G75*
G02*
X133290001Y-82610000I-249999J0D01*
G01*
X132639999Y-82610000D01*
G75*
G02*
X132390000Y-82360001I0J249999D01*
G01*
G37*
%TD*%
%TO.C,C4*%
G36*
G01*
X162549999Y-70420000D02*
X163450001Y-70420000D01*
G75*
G02*
X163700000Y-70669999I0J-249999D01*
G01*
X163700000Y-71320001D01*
G75*
G02*
X163450001Y-71570000I-249999J0D01*
G01*
X162549999Y-71570000D01*
G75*
G02*
X162300000Y-71320001I0J249999D01*
G01*
X162300000Y-70669999D01*
G75*
G02*
X162549999Y-70420000I249999J0D01*
G01*
G37*
G36*
G01*
X162549999Y-68370000D02*
X163450001Y-68370000D01*
G75*
G02*
X163700000Y-68619999I0J-249999D01*
G01*
X163700000Y-69270001D01*
G75*
G02*
X163450001Y-69520000I-249999J0D01*
G01*
X162549999Y-69520000D01*
G75*
G02*
X162300000Y-69270001I0J249999D01*
G01*
X162300000Y-68619999D01*
G75*
G02*
X162549999Y-68370000I249999J0D01*
G01*
G37*
%TD*%
%TO.C,C3*%
G36*
G01*
X153590001Y-66010000D02*
X152689999Y-66010000D01*
G75*
G02*
X152440000Y-65760001I0J249999D01*
G01*
X152440000Y-65109999D01*
G75*
G02*
X152689999Y-64860000I249999J0D01*
G01*
X153590001Y-64860000D01*
G75*
G02*
X153840000Y-65109999I0J-249999D01*
G01*
X153840000Y-65760001D01*
G75*
G02*
X153590001Y-66010000I-249999J0D01*
G01*
G37*
G36*
G01*
X153590001Y-68060000D02*
X152689999Y-68060000D01*
G75*
G02*
X152440000Y-67810001I0J249999D01*
G01*
X152440000Y-67159999D01*
G75*
G02*
X152689999Y-66910000I249999J0D01*
G01*
X153590001Y-66910000D01*
G75*
G02*
X153840000Y-67159999I0J-249999D01*
G01*
X153840000Y-67810001D01*
G75*
G02*
X153590001Y-68060000I-249999J0D01*
G01*
G37*
%TD*%
%TO.C,C2*%
G36*
G01*
X146090000Y-60680001D02*
X146090000Y-59779999D01*
G75*
G02*
X146339999Y-59530000I249999J0D01*
G01*
X146990001Y-59530000D01*
G75*
G02*
X147240000Y-59779999I0J-249999D01*
G01*
X147240000Y-60680001D01*
G75*
G02*
X146990001Y-60930000I-249999J0D01*
G01*
X146339999Y-60930000D01*
G75*
G02*
X146090000Y-60680001I0J249999D01*
G01*
G37*
G36*
G01*
X144040000Y-60680001D02*
X144040000Y-59779999D01*
G75*
G02*
X144289999Y-59530000I249999J0D01*
G01*
X144940001Y-59530000D01*
G75*
G02*
X145190000Y-59779999I0J-249999D01*
G01*
X145190000Y-60680001D01*
G75*
G02*
X144940001Y-60930000I-249999J0D01*
G01*
X144289999Y-60930000D01*
G75*
G02*
X144040000Y-60680001I0J249999D01*
G01*
G37*
%TD*%
%TO.C,C1*%
G36*
G01*
X132589999Y-71610000D02*
X133490001Y-71610000D01*
G75*
G02*
X133740000Y-71859999I0J-249999D01*
G01*
X133740000Y-72510001D01*
G75*
G02*
X133490001Y-72760000I-249999J0D01*
G01*
X132589999Y-72760000D01*
G75*
G02*
X132340000Y-72510001I0J249999D01*
G01*
X132340000Y-71859999D01*
G75*
G02*
X132589999Y-71610000I249999J0D01*
G01*
G37*
G36*
G01*
X132589999Y-69560000D02*
X133490001Y-69560000D01*
G75*
G02*
X133740000Y-69809999I0J-249999D01*
G01*
X133740000Y-70460001D01*
G75*
G02*
X133490001Y-70710000I-249999J0D01*
G01*
X132589999Y-70710000D01*
G75*
G02*
X132340000Y-70460001I0J249999D01*
G01*
X132340000Y-69809999D01*
G75*
G02*
X132589999Y-69560000I249999J0D01*
G01*
G37*
%TD*%
M02*
