%TF.GenerationSoftware,KiCad,Pcbnew,(5.1.9)-1*%
%TF.CreationDate,2021-03-18T14:02:07+01:00*%
%TF.ProjectId,clip,636c6970-2e6b-4696-9361-645f70636258,rev?*%
%TF.SameCoordinates,Original*%
%TF.FileFunction,Legend,Top*%
%TF.FilePolarity,Positive*%
%FSLAX46Y46*%
G04 Gerber Fmt 4.6, Leading zero omitted, Abs format (unit mm)*
G04 Created by KiCad (PCBNEW (5.1.9)-1) date 2021-03-18 14:02:07*
%MOMM*%
%LPD*%
G01*
G04 APERTURE LIST*
%ADD10C,0.120000*%
%ADD11C,0.150000*%
%ADD12O,1.200000X1.750000*%
%ADD13R,2.000000X0.900000*%
%ADD14R,0.900000X2.000000*%
%ADD15R,5.000000X5.000000*%
%ADD16O,0.850000X1.850000*%
%ADD17C,0.840000*%
%ADD18R,0.840000X0.840000*%
%ADD19O,1.700000X1.700000*%
%ADD20R,1.700000X1.700000*%
%ADD21R,1.200000X0.400000*%
%ADD22R,1.560000X0.650000*%
%ADD23C,0.800000*%
%ADD24R,1.700000X0.900000*%
%ADD25R,0.800000X0.900000*%
%ADD26R,1.900000X0.800000*%
%ADD27R,1.000000X1.000000*%
G04 APERTURE END LIST*
D10*
%TO.C,J1*%
X128660000Y-72230000D02*
X128660000Y-73445000D01*
X128600000Y-68270000D02*
X128600000Y-66010000D01*
X128100000Y-68270000D02*
X128100000Y-66010000D01*
X125500000Y-69870000D02*
X124500000Y-69870000D01*
X125500000Y-68270000D02*
X125500000Y-69870000D01*
X124500000Y-68270000D02*
X125500000Y-68270000D01*
X124500000Y-69870000D02*
X124500000Y-68270000D01*
X128100000Y-69870000D02*
X129100000Y-69870000D01*
X128100000Y-68270000D02*
X128100000Y-69870000D01*
X129100000Y-68270000D02*
X128100000Y-68270000D01*
X129100000Y-69870000D02*
X129100000Y-68270000D01*
X123740000Y-72230000D02*
X124660000Y-72230000D01*
X129860000Y-72230000D02*
X128940000Y-72230000D01*
X126300000Y-70370000D02*
X126300000Y-66010000D01*
X127300000Y-70370000D02*
X126300000Y-70370000D01*
X127300000Y-66010000D02*
X127300000Y-70370000D01*
X124660000Y-72230000D02*
X124940000Y-72230000D01*
X124660000Y-73830000D02*
X124660000Y-72230000D01*
X123740000Y-73830000D02*
X124660000Y-73830000D01*
X123740000Y-66010000D02*
X123740000Y-73830000D01*
X129860000Y-66010000D02*
X123740000Y-66010000D01*
X129860000Y-73830000D02*
X129860000Y-66010000D01*
X128940000Y-73830000D02*
X129860000Y-73830000D01*
X128940000Y-72230000D02*
X128940000Y-73830000D01*
X128660000Y-72230000D02*
X128940000Y-72230000D01*
%TO.C,U4*%
X157950000Y-125045000D02*
X158330000Y-125045000D01*
X157950000Y-131465000D02*
X157950000Y-125045000D01*
X139710000Y-131465000D02*
X139710000Y-125045000D01*
X157950000Y-131465000D02*
X139710000Y-131465000D01*
X139710000Y-105720000D02*
X140710000Y-105720000D01*
X139710000Y-106500000D02*
X139710000Y-105720000D01*
X157950000Y-105720000D02*
X156950000Y-105720000D01*
X157950000Y-106500000D02*
X157950000Y-105720000D01*
D11*
%TO.C,J2*%
X144630000Y-71665000D02*
X144630000Y-71190000D01*
X144630000Y-71190000D02*
X152930000Y-71190000D01*
X152930000Y-71190000D02*
X152930000Y-71665000D01*
X144630000Y-73915000D02*
X144630000Y-74390000D01*
X144630000Y-74390000D02*
X152930000Y-74390000D01*
X152930000Y-74390000D02*
X152930000Y-73915000D01*
X146480000Y-70890000D02*
X148480000Y-70890000D01*
D10*
%TO.C,JP1*%
X158320000Y-53310000D02*
X158320000Y-54640000D01*
X156990000Y-53310000D02*
X158320000Y-53310000D01*
X155720000Y-53310000D02*
X155720000Y-55970000D01*
X155720000Y-55970000D02*
X153120000Y-55970000D01*
X155720000Y-53310000D02*
X153120000Y-53310000D01*
X153120000Y-53310000D02*
X153120000Y-55970000D01*
%TO.C,R13*%
X159850000Y-83901252D02*
X159850000Y-83378748D01*
X158430000Y-83901252D02*
X158430000Y-83378748D01*
%TO.C,C6*%
X142598000Y-76510748D02*
X142598000Y-77033252D01*
X144018000Y-76510748D02*
X144018000Y-77033252D01*
D11*
%TO.C,U3*%
X150515000Y-86959000D02*
X151640000Y-86959000D01*
X150515000Y-79119000D02*
X146365000Y-79119000D01*
X150515000Y-88069000D02*
X146365000Y-88069000D01*
X150515000Y-79119000D02*
X150515000Y-80229000D01*
X146365000Y-79119000D02*
X146365000Y-80229000D01*
X146365000Y-88069000D02*
X146365000Y-86959000D01*
X150515000Y-86959000D02*
X150515000Y-88069000D01*
D10*
%TO.C,U2*%
X155408000Y-64857000D02*
X153608000Y-64857000D01*
X153608000Y-68077000D02*
X156058000Y-68077000D01*
%TO.C,U1*%
X140340000Y-57460000D02*
X137890000Y-57460000D01*
X138540000Y-60680000D02*
X140340000Y-60680000D01*
%TO.C,EN*%
X167750000Y-110570000D02*
X167450000Y-110570000D01*
X167750000Y-107270000D02*
X167750000Y-110570000D01*
X167450000Y-107270000D02*
X167750000Y-107270000D01*
X164950000Y-110570000D02*
X165250000Y-110570000D01*
X164950000Y-107270000D02*
X164950000Y-110570000D01*
X165250000Y-107270000D02*
X164950000Y-107270000D01*
%TO.C,BOOT*%
X129930000Y-107265000D02*
X130230000Y-107265000D01*
X129930000Y-110565000D02*
X129930000Y-107265000D01*
X130230000Y-110565000D02*
X129930000Y-110565000D01*
X132730000Y-107265000D02*
X132430000Y-107265000D01*
X132730000Y-110565000D02*
X132730000Y-107265000D01*
X132430000Y-110565000D02*
X132730000Y-110565000D01*
%TO.C,R12*%
X163350000Y-83901252D02*
X163350000Y-83378748D01*
X161930000Y-83901252D02*
X161930000Y-83378748D01*
%TO.C,R11*%
X133810000Y-108063748D02*
X133810000Y-108586252D01*
X135230000Y-108063748D02*
X135230000Y-108586252D01*
%TO.C,R10*%
X164591252Y-111650000D02*
X164068748Y-111650000D01*
X164591252Y-113070000D02*
X164068748Y-113070000D01*
%TO.C,R9*%
X153263748Y-104450000D02*
X153786252Y-104450000D01*
X153263748Y-103030000D02*
X153786252Y-103030000D01*
%TO.C,R8*%
X144961252Y-53930000D02*
X144438748Y-53930000D01*
X144961252Y-55350000D02*
X144438748Y-55350000D01*
%TO.C,R7*%
X144884000Y-76510748D02*
X144884000Y-77033252D01*
X146304000Y-76510748D02*
X146304000Y-77033252D01*
%TO.C,R6*%
X145708748Y-58840000D02*
X146231252Y-58840000D01*
X145708748Y-57420000D02*
X146231252Y-57420000D01*
%TO.C,R5*%
X160050000Y-66078748D02*
X160050000Y-66601252D01*
X158630000Y-66078748D02*
X158630000Y-66601252D01*
%TO.C,R4*%
X151214000Y-76598748D02*
X151214000Y-77121252D01*
X152634000Y-76598748D02*
X152634000Y-77121252D01*
%TO.C,R2*%
X139798748Y-71850000D02*
X140321252Y-71850000D01*
X139798748Y-70430000D02*
X140321252Y-70430000D01*
%TO.C,R1*%
X150128748Y-63860000D02*
X150651252Y-63860000D01*
X150128748Y-62440000D02*
X150651252Y-62440000D01*
%TO.C,Q3*%
X159222000Y-88250000D02*
X159222000Y-86790000D01*
X162382000Y-88250000D02*
X162382000Y-86090000D01*
X162382000Y-88250000D02*
X161452000Y-88250000D01*
X159222000Y-88250000D02*
X160152000Y-88250000D01*
%TO.C,Q2*%
X162470000Y-78880000D02*
X162470000Y-80340000D01*
X159310000Y-78880000D02*
X159310000Y-81040000D01*
X159310000Y-78880000D02*
X160240000Y-78880000D01*
X162470000Y-78880000D02*
X161540000Y-78880000D01*
%TO.C,Q1*%
X138840000Y-64950000D02*
X140300000Y-64950000D01*
X138840000Y-68110000D02*
X142000000Y-68110000D01*
X138840000Y-68110000D02*
X138840000Y-67180000D01*
X138840000Y-64950000D02*
X138840000Y-65880000D01*
%TO.C,J4*%
X149110000Y-99500000D02*
X149110000Y-98170000D01*
X150440000Y-99500000D02*
X149110000Y-99500000D01*
X151710000Y-99500000D02*
X151710000Y-96840000D01*
X151710000Y-96840000D02*
X169550000Y-96840000D01*
X151710000Y-99500000D02*
X169550000Y-99500000D01*
X169550000Y-99500000D02*
X169550000Y-96840000D01*
%TO.C,J3*%
X127630000Y-99430000D02*
X127630000Y-98100000D01*
X128960000Y-99430000D02*
X127630000Y-99430000D01*
X130230000Y-99430000D02*
X130230000Y-96770000D01*
X130230000Y-96770000D02*
X145530000Y-96770000D01*
X130230000Y-99430000D02*
X145530000Y-99430000D01*
X145530000Y-99430000D02*
X145530000Y-96770000D01*
%TO.C,D5*%
X145995000Y-102770000D02*
X143135000Y-102770000D01*
X145995000Y-104690000D02*
X145995000Y-102770000D01*
X143135000Y-104690000D02*
X145995000Y-104690000D01*
%TO.C,D3*%
X148540000Y-55620000D02*
X151400000Y-55620000D01*
X148540000Y-53700000D02*
X148540000Y-55620000D01*
X151400000Y-53700000D02*
X148540000Y-53700000D01*
%TO.C,D2*%
X148080000Y-68380000D02*
X144930000Y-68380000D01*
X148080000Y-66680000D02*
X144930000Y-66680000D01*
X148080000Y-68380000D02*
X148080000Y-66680000D01*
%TO.C,D1*%
X152210000Y-57300000D02*
X149350000Y-57300000D01*
X152210000Y-59220000D02*
X152210000Y-57300000D01*
X149350000Y-59220000D02*
X152210000Y-59220000D01*
%TO.C,C12*%
X164000000Y-108701252D02*
X164000000Y-108178748D01*
X162580000Y-108701252D02*
X162580000Y-108178748D01*
%TO.C,C11*%
X159470000Y-122538748D02*
X159470000Y-123061252D01*
X160890000Y-122538748D02*
X160890000Y-123061252D01*
%TO.C,C10*%
X161680000Y-122528748D02*
X161680000Y-123051252D01*
X163100000Y-122528748D02*
X163100000Y-123051252D01*
%TO.C,C9*%
X140350000Y-83283748D02*
X140350000Y-83806252D01*
X141770000Y-83283748D02*
X141770000Y-83806252D01*
%TO.C,C8*%
X142550000Y-83313748D02*
X142550000Y-83836252D01*
X143970000Y-83313748D02*
X143970000Y-83836252D01*
%TO.C,C7*%
X154160000Y-84066252D02*
X154160000Y-83543748D01*
X152740000Y-84066252D02*
X152740000Y-83543748D01*
%TO.C,C5*%
X153700000Y-76538748D02*
X153700000Y-77061252D01*
X155120000Y-76538748D02*
X155120000Y-77061252D01*
%TO.C,C4*%
X160050000Y-69788748D02*
X160050000Y-70311252D01*
X158630000Y-69788748D02*
X158630000Y-70311252D01*
%TO.C,C3*%
X149700000Y-66791252D02*
X149700000Y-66268748D01*
X151120000Y-66791252D02*
X151120000Y-66268748D01*
%TO.C,C2*%
X145708748Y-60940000D02*
X146231252Y-60940000D01*
X145708748Y-59520000D02*
X146231252Y-59520000D01*
%TO.C,C1*%
X132330000Y-70898748D02*
X132330000Y-71421252D01*
X133750000Y-70898748D02*
X133750000Y-71421252D01*
%TO.C,J1*%
D11*
X126556666Y-74182380D02*
X126556666Y-74896666D01*
X126509047Y-75039523D01*
X126413809Y-75134761D01*
X126270952Y-75182380D01*
X126175714Y-75182380D01*
X127556666Y-75182380D02*
X126985238Y-75182380D01*
X127270952Y-75182380D02*
X127270952Y-74182380D01*
X127175714Y-74325238D01*
X127080476Y-74420476D01*
X126985238Y-74468095D01*
%TO.C,U4*%
X157488095Y-103912380D02*
X157488095Y-104721904D01*
X157535714Y-104817142D01*
X157583333Y-104864761D01*
X157678571Y-104912380D01*
X157869047Y-104912380D01*
X157964285Y-104864761D01*
X158011904Y-104817142D01*
X158059523Y-104721904D01*
X158059523Y-103912380D01*
X158964285Y-104245714D02*
X158964285Y-104912380D01*
X158726190Y-103864761D02*
X158488095Y-104579047D01*
X159107142Y-104579047D01*
%TO.C,J2*%
X153816666Y-71972380D02*
X153816666Y-72686666D01*
X153769047Y-72829523D01*
X153673809Y-72924761D01*
X153530952Y-72972380D01*
X153435714Y-72972380D01*
X154245238Y-72067619D02*
X154292857Y-72020000D01*
X154388095Y-71972380D01*
X154626190Y-71972380D01*
X154721428Y-72020000D01*
X154769047Y-72067619D01*
X154816666Y-72162857D01*
X154816666Y-72258095D01*
X154769047Y-72400952D01*
X154197619Y-72972380D01*
X154816666Y-72972380D01*
%TO.C,JP1*%
X154746666Y-51922380D02*
X154746666Y-52636666D01*
X154699047Y-52779523D01*
X154603809Y-52874761D01*
X154460952Y-52922380D01*
X154365714Y-52922380D01*
X155222857Y-52922380D02*
X155222857Y-51922380D01*
X155603809Y-51922380D01*
X155699047Y-51970000D01*
X155746666Y-52017619D01*
X155794285Y-52112857D01*
X155794285Y-52255714D01*
X155746666Y-52350952D01*
X155699047Y-52398571D01*
X155603809Y-52446190D01*
X155222857Y-52446190D01*
X156746666Y-52922380D02*
X156175238Y-52922380D01*
X156460952Y-52922380D02*
X156460952Y-51922380D01*
X156365714Y-52065238D01*
X156270476Y-52160476D01*
X156175238Y-52208095D01*
%TO.C,R13*%
X156613302Y-81795940D02*
X156279969Y-81319750D01*
X156041874Y-81795940D02*
X156041874Y-80795940D01*
X156422826Y-80795940D01*
X156518064Y-80843560D01*
X156565683Y-80891179D01*
X156613302Y-80986417D01*
X156613302Y-81129274D01*
X156565683Y-81224512D01*
X156518064Y-81272131D01*
X156422826Y-81319750D01*
X156041874Y-81319750D01*
X157565683Y-81795940D02*
X156994255Y-81795940D01*
X157279969Y-81795940D02*
X157279969Y-80795940D01*
X157184731Y-80938798D01*
X157089493Y-81034036D01*
X156994255Y-81081655D01*
X157899017Y-80795940D02*
X158518064Y-80795940D01*
X158184731Y-81176893D01*
X158327588Y-81176893D01*
X158422826Y-81224512D01*
X158470445Y-81272131D01*
X158518064Y-81367369D01*
X158518064Y-81605464D01*
X158470445Y-81700702D01*
X158422826Y-81748321D01*
X158327588Y-81795940D01*
X158041874Y-81795940D01*
X157946636Y-81748321D01*
X157899017Y-81700702D01*
%TO.C,C6*%
X140933333Y-77227142D02*
X140885714Y-77274761D01*
X140742857Y-77322380D01*
X140647619Y-77322380D01*
X140504761Y-77274761D01*
X140409523Y-77179523D01*
X140361904Y-77084285D01*
X140314285Y-76893809D01*
X140314285Y-76750952D01*
X140361904Y-76560476D01*
X140409523Y-76465238D01*
X140504761Y-76370000D01*
X140647619Y-76322380D01*
X140742857Y-76322380D01*
X140885714Y-76370000D01*
X140933333Y-76417619D01*
X141790476Y-76322380D02*
X141600000Y-76322380D01*
X141504761Y-76370000D01*
X141457142Y-76417619D01*
X141361904Y-76560476D01*
X141314285Y-76750952D01*
X141314285Y-77131904D01*
X141361904Y-77227142D01*
X141409523Y-77274761D01*
X141504761Y-77322380D01*
X141695238Y-77322380D01*
X141790476Y-77274761D01*
X141838095Y-77227142D01*
X141885714Y-77131904D01*
X141885714Y-76893809D01*
X141838095Y-76798571D01*
X141790476Y-76750952D01*
X141695238Y-76703333D01*
X141504761Y-76703333D01*
X141409523Y-76750952D01*
X141361904Y-76798571D01*
X141314285Y-76893809D01*
%TO.C,U3*%
X151268095Y-79082380D02*
X151268095Y-79891904D01*
X151315714Y-79987142D01*
X151363333Y-80034761D01*
X151458571Y-80082380D01*
X151649047Y-80082380D01*
X151744285Y-80034761D01*
X151791904Y-79987142D01*
X151839523Y-79891904D01*
X151839523Y-79082380D01*
X152220476Y-79082380D02*
X152839523Y-79082380D01*
X152506190Y-79463333D01*
X152649047Y-79463333D01*
X152744285Y-79510952D01*
X152791904Y-79558571D01*
X152839523Y-79653809D01*
X152839523Y-79891904D01*
X152791904Y-79987142D01*
X152744285Y-80034761D01*
X152649047Y-80082380D01*
X152363333Y-80082380D01*
X152268095Y-80034761D01*
X152220476Y-79987142D01*
%TO.C,U2*%
X153788095Y-63092380D02*
X153788095Y-63901904D01*
X153835714Y-63997142D01*
X153883333Y-64044761D01*
X153978571Y-64092380D01*
X154169047Y-64092380D01*
X154264285Y-64044761D01*
X154311904Y-63997142D01*
X154359523Y-63901904D01*
X154359523Y-63092380D01*
X154788095Y-63187619D02*
X154835714Y-63140000D01*
X154930952Y-63092380D01*
X155169047Y-63092380D01*
X155264285Y-63140000D01*
X155311904Y-63187619D01*
X155359523Y-63282857D01*
X155359523Y-63378095D01*
X155311904Y-63520952D01*
X154740476Y-64092380D01*
X155359523Y-64092380D01*
%TO.C,U1*%
X138778095Y-61272380D02*
X138778095Y-62081904D01*
X138825714Y-62177142D01*
X138873333Y-62224761D01*
X138968571Y-62272380D01*
X139159047Y-62272380D01*
X139254285Y-62224761D01*
X139301904Y-62177142D01*
X139349523Y-62081904D01*
X139349523Y-61272380D01*
X140349523Y-62272380D02*
X139778095Y-62272380D01*
X140063809Y-62272380D02*
X140063809Y-61272380D01*
X139968571Y-61415238D01*
X139873333Y-61510476D01*
X139778095Y-61558095D01*
%TO.C,EN*%
X165646704Y-105575571D02*
X165980038Y-105575571D01*
X166122895Y-106099380D02*
X165646704Y-106099380D01*
X165646704Y-105099380D01*
X166122895Y-105099380D01*
X166551466Y-106099380D02*
X166551466Y-105099380D01*
X167122895Y-106099380D01*
X167122895Y-105099380D01*
%TO.C,BOOT*%
X130103457Y-105531411D02*
X130246314Y-105579030D01*
X130293933Y-105626649D01*
X130341552Y-105721887D01*
X130341552Y-105864744D01*
X130293933Y-105959982D01*
X130246314Y-106007601D01*
X130151076Y-106055220D01*
X129770123Y-106055220D01*
X129770123Y-105055220D01*
X130103457Y-105055220D01*
X130198695Y-105102840D01*
X130246314Y-105150459D01*
X130293933Y-105245697D01*
X130293933Y-105340935D01*
X130246314Y-105436173D01*
X130198695Y-105483792D01*
X130103457Y-105531411D01*
X129770123Y-105531411D01*
X130960600Y-105055220D02*
X131151076Y-105055220D01*
X131246314Y-105102840D01*
X131341552Y-105198078D01*
X131389171Y-105388554D01*
X131389171Y-105721887D01*
X131341552Y-105912363D01*
X131246314Y-106007601D01*
X131151076Y-106055220D01*
X130960600Y-106055220D01*
X130865361Y-106007601D01*
X130770123Y-105912363D01*
X130722504Y-105721887D01*
X130722504Y-105388554D01*
X130770123Y-105198078D01*
X130865361Y-105102840D01*
X130960600Y-105055220D01*
X132008219Y-105055220D02*
X132198695Y-105055220D01*
X132293933Y-105102840D01*
X132389171Y-105198078D01*
X132436790Y-105388554D01*
X132436790Y-105721887D01*
X132389171Y-105912363D01*
X132293933Y-106007601D01*
X132198695Y-106055220D01*
X132008219Y-106055220D01*
X131912980Y-106007601D01*
X131817742Y-105912363D01*
X131770123Y-105721887D01*
X131770123Y-105388554D01*
X131817742Y-105198078D01*
X131912980Y-105102840D01*
X132008219Y-105055220D01*
X132722504Y-105055220D02*
X133293933Y-105055220D01*
X133008219Y-106055220D02*
X133008219Y-105055220D01*
%TO.C,R12*%
X164050422Y-81846740D02*
X163717089Y-81370550D01*
X163478994Y-81846740D02*
X163478994Y-80846740D01*
X163859946Y-80846740D01*
X163955184Y-80894360D01*
X164002803Y-80941979D01*
X164050422Y-81037217D01*
X164050422Y-81180074D01*
X164002803Y-81275312D01*
X163955184Y-81322931D01*
X163859946Y-81370550D01*
X163478994Y-81370550D01*
X165002803Y-81846740D02*
X164431375Y-81846740D01*
X164717089Y-81846740D02*
X164717089Y-80846740D01*
X164621851Y-80989598D01*
X164526613Y-81084836D01*
X164431375Y-81132455D01*
X165383756Y-80941979D02*
X165431375Y-80894360D01*
X165526613Y-80846740D01*
X165764708Y-80846740D01*
X165859946Y-80894360D01*
X165907565Y-80941979D01*
X165955184Y-81037217D01*
X165955184Y-81132455D01*
X165907565Y-81275312D01*
X165336137Y-81846740D01*
X165955184Y-81846740D01*
%TO.C,R11*%
X136547142Y-108842380D02*
X136213809Y-108366190D01*
X135975714Y-108842380D02*
X135975714Y-107842380D01*
X136356666Y-107842380D01*
X136451904Y-107890000D01*
X136499523Y-107937619D01*
X136547142Y-108032857D01*
X136547142Y-108175714D01*
X136499523Y-108270952D01*
X136451904Y-108318571D01*
X136356666Y-108366190D01*
X135975714Y-108366190D01*
X137499523Y-108842380D02*
X136928095Y-108842380D01*
X137213809Y-108842380D02*
X137213809Y-107842380D01*
X137118571Y-107985238D01*
X137023333Y-108080476D01*
X136928095Y-108128095D01*
X138451904Y-108842380D02*
X137880476Y-108842380D01*
X138166190Y-108842380D02*
X138166190Y-107842380D01*
X138070952Y-107985238D01*
X137975714Y-108080476D01*
X137880476Y-108128095D01*
%TO.C,R10*%
X167077142Y-112812380D02*
X166743809Y-112336190D01*
X166505714Y-112812380D02*
X166505714Y-111812380D01*
X166886666Y-111812380D01*
X166981904Y-111860000D01*
X167029523Y-111907619D01*
X167077142Y-112002857D01*
X167077142Y-112145714D01*
X167029523Y-112240952D01*
X166981904Y-112288571D01*
X166886666Y-112336190D01*
X166505714Y-112336190D01*
X168029523Y-112812380D02*
X167458095Y-112812380D01*
X167743809Y-112812380D02*
X167743809Y-111812380D01*
X167648571Y-111955238D01*
X167553333Y-112050476D01*
X167458095Y-112098095D01*
X168648571Y-111812380D02*
X168743809Y-111812380D01*
X168839047Y-111860000D01*
X168886666Y-111907619D01*
X168934285Y-112002857D01*
X168981904Y-112193333D01*
X168981904Y-112431428D01*
X168934285Y-112621904D01*
X168886666Y-112717142D01*
X168839047Y-112764761D01*
X168743809Y-112812380D01*
X168648571Y-112812380D01*
X168553333Y-112764761D01*
X168505714Y-112717142D01*
X168458095Y-112621904D01*
X168410476Y-112431428D01*
X168410476Y-112193333D01*
X168458095Y-112002857D01*
X168505714Y-111907619D01*
X168553333Y-111860000D01*
X168648571Y-111812380D01*
%TO.C,R9*%
X153408093Y-102378700D02*
X153074760Y-101902510D01*
X152836664Y-102378700D02*
X152836664Y-101378700D01*
X153217617Y-101378700D01*
X153312855Y-101426320D01*
X153360474Y-101473939D01*
X153408093Y-101569177D01*
X153408093Y-101712034D01*
X153360474Y-101807272D01*
X153312855Y-101854891D01*
X153217617Y-101902510D01*
X152836664Y-101902510D01*
X153884283Y-102378700D02*
X154074760Y-102378700D01*
X154169998Y-102331081D01*
X154217617Y-102283462D01*
X154312855Y-102140605D01*
X154360474Y-101950129D01*
X154360474Y-101569177D01*
X154312855Y-101473939D01*
X154265236Y-101426320D01*
X154169998Y-101378700D01*
X153979521Y-101378700D01*
X153884283Y-101426320D01*
X153836664Y-101473939D01*
X153789045Y-101569177D01*
X153789045Y-101807272D01*
X153836664Y-101902510D01*
X153884283Y-101950129D01*
X153979521Y-101997748D01*
X154169998Y-101997748D01*
X154265236Y-101950129D01*
X154312855Y-101902510D01*
X154360474Y-101807272D01*
%TO.C,R8*%
X144563333Y-53472380D02*
X144230000Y-52996190D01*
X143991904Y-53472380D02*
X143991904Y-52472380D01*
X144372857Y-52472380D01*
X144468095Y-52520000D01*
X144515714Y-52567619D01*
X144563333Y-52662857D01*
X144563333Y-52805714D01*
X144515714Y-52900952D01*
X144468095Y-52948571D01*
X144372857Y-52996190D01*
X143991904Y-52996190D01*
X145134761Y-52900952D02*
X145039523Y-52853333D01*
X144991904Y-52805714D01*
X144944285Y-52710476D01*
X144944285Y-52662857D01*
X144991904Y-52567619D01*
X145039523Y-52520000D01*
X145134761Y-52472380D01*
X145325238Y-52472380D01*
X145420476Y-52520000D01*
X145468095Y-52567619D01*
X145515714Y-52662857D01*
X145515714Y-52710476D01*
X145468095Y-52805714D01*
X145420476Y-52853333D01*
X145325238Y-52900952D01*
X145134761Y-52900952D01*
X145039523Y-52948571D01*
X144991904Y-52996190D01*
X144944285Y-53091428D01*
X144944285Y-53281904D01*
X144991904Y-53377142D01*
X145039523Y-53424761D01*
X145134761Y-53472380D01*
X145325238Y-53472380D01*
X145420476Y-53424761D01*
X145468095Y-53377142D01*
X145515714Y-53281904D01*
X145515714Y-53091428D01*
X145468095Y-52996190D01*
X145420476Y-52948571D01*
X145325238Y-52900952D01*
%TO.C,R7*%
X147303333Y-77192380D02*
X146970000Y-76716190D01*
X146731904Y-77192380D02*
X146731904Y-76192380D01*
X147112857Y-76192380D01*
X147208095Y-76240000D01*
X147255714Y-76287619D01*
X147303333Y-76382857D01*
X147303333Y-76525714D01*
X147255714Y-76620952D01*
X147208095Y-76668571D01*
X147112857Y-76716190D01*
X146731904Y-76716190D01*
X147636666Y-76192380D02*
X148303333Y-76192380D01*
X147874761Y-77192380D01*
%TO.C,R6*%
X145703333Y-56962380D02*
X145370000Y-56486190D01*
X145131904Y-56962380D02*
X145131904Y-55962380D01*
X145512857Y-55962380D01*
X145608095Y-56010000D01*
X145655714Y-56057619D01*
X145703333Y-56152857D01*
X145703333Y-56295714D01*
X145655714Y-56390952D01*
X145608095Y-56438571D01*
X145512857Y-56486190D01*
X145131904Y-56486190D01*
X146560476Y-55962380D02*
X146370000Y-55962380D01*
X146274761Y-56010000D01*
X146227142Y-56057619D01*
X146131904Y-56200476D01*
X146084285Y-56390952D01*
X146084285Y-56771904D01*
X146131904Y-56867142D01*
X146179523Y-56914761D01*
X146274761Y-56962380D01*
X146465238Y-56962380D01*
X146560476Y-56914761D01*
X146608095Y-56867142D01*
X146655714Y-56771904D01*
X146655714Y-56533809D01*
X146608095Y-56438571D01*
X146560476Y-56390952D01*
X146465238Y-56343333D01*
X146274761Y-56343333D01*
X146179523Y-56390952D01*
X146131904Y-56438571D01*
X146084285Y-56533809D01*
%TO.C,R5*%
X159215333Y-64162380D02*
X158882000Y-63686190D01*
X158643904Y-64162380D02*
X158643904Y-63162380D01*
X159024857Y-63162380D01*
X159120095Y-63210000D01*
X159167714Y-63257619D01*
X159215333Y-63352857D01*
X159215333Y-63495714D01*
X159167714Y-63590952D01*
X159120095Y-63638571D01*
X159024857Y-63686190D01*
X158643904Y-63686190D01*
X160120095Y-63162380D02*
X159643904Y-63162380D01*
X159596285Y-63638571D01*
X159643904Y-63590952D01*
X159739142Y-63543333D01*
X159977238Y-63543333D01*
X160072476Y-63590952D01*
X160120095Y-63638571D01*
X160167714Y-63733809D01*
X160167714Y-63971904D01*
X160120095Y-64067142D01*
X160072476Y-64114761D01*
X159977238Y-64162380D01*
X159739142Y-64162380D01*
X159643904Y-64114761D01*
X159596285Y-64067142D01*
%TO.C,R4*%
X149813333Y-77172380D02*
X149480000Y-76696190D01*
X149241904Y-77172380D02*
X149241904Y-76172380D01*
X149622857Y-76172380D01*
X149718095Y-76220000D01*
X149765714Y-76267619D01*
X149813333Y-76362857D01*
X149813333Y-76505714D01*
X149765714Y-76600952D01*
X149718095Y-76648571D01*
X149622857Y-76696190D01*
X149241904Y-76696190D01*
X150670476Y-76505714D02*
X150670476Y-77172380D01*
X150432380Y-76124761D02*
X150194285Y-76839047D01*
X150813333Y-76839047D01*
%TO.C,R2*%
X139363333Y-73292380D02*
X139030000Y-72816190D01*
X138791904Y-73292380D02*
X138791904Y-72292380D01*
X139172857Y-72292380D01*
X139268095Y-72340000D01*
X139315714Y-72387619D01*
X139363333Y-72482857D01*
X139363333Y-72625714D01*
X139315714Y-72720952D01*
X139268095Y-72768571D01*
X139172857Y-72816190D01*
X138791904Y-72816190D01*
X139744285Y-72387619D02*
X139791904Y-72340000D01*
X139887142Y-72292380D01*
X140125238Y-72292380D01*
X140220476Y-72340000D01*
X140268095Y-72387619D01*
X140315714Y-72482857D01*
X140315714Y-72578095D01*
X140268095Y-72720952D01*
X139696666Y-73292380D01*
X140315714Y-73292380D01*
%TO.C,R1*%
X150028333Y-61822380D02*
X149695000Y-61346190D01*
X149456904Y-61822380D02*
X149456904Y-60822380D01*
X149837857Y-60822380D01*
X149933095Y-60870000D01*
X149980714Y-60917619D01*
X150028333Y-61012857D01*
X150028333Y-61155714D01*
X149980714Y-61250952D01*
X149933095Y-61298571D01*
X149837857Y-61346190D01*
X149456904Y-61346190D01*
X150980714Y-61822380D02*
X150409285Y-61822380D01*
X150695000Y-61822380D02*
X150695000Y-60822380D01*
X150599761Y-60965238D01*
X150504523Y-61060476D01*
X150409285Y-61108095D01*
%TO.C,Q3*%
X163053721Y-89612779D02*
X162958483Y-89565160D01*
X162863245Y-89469921D01*
X162720388Y-89327064D01*
X162625150Y-89279445D01*
X162529912Y-89279445D01*
X162577531Y-89517540D02*
X162482293Y-89469921D01*
X162387055Y-89374683D01*
X162339436Y-89184207D01*
X162339436Y-88850874D01*
X162387055Y-88660398D01*
X162482293Y-88565160D01*
X162577531Y-88517540D01*
X162768007Y-88517540D01*
X162863245Y-88565160D01*
X162958483Y-88660398D01*
X163006102Y-88850874D01*
X163006102Y-89184207D01*
X162958483Y-89374683D01*
X162863245Y-89469921D01*
X162768007Y-89517540D01*
X162577531Y-89517540D01*
X163339436Y-88517540D02*
X163958483Y-88517540D01*
X163625150Y-88898493D01*
X163768007Y-88898493D01*
X163863245Y-88946112D01*
X163910864Y-88993731D01*
X163958483Y-89088969D01*
X163958483Y-89327064D01*
X163910864Y-89422302D01*
X163863245Y-89469921D01*
X163768007Y-89517540D01*
X163482293Y-89517540D01*
X163387055Y-89469921D01*
X163339436Y-89422302D01*
%TO.C,Q2*%
X163632841Y-79081939D02*
X163537603Y-79034320D01*
X163442365Y-78939081D01*
X163299508Y-78796224D01*
X163204270Y-78748605D01*
X163109032Y-78748605D01*
X163156651Y-78986700D02*
X163061413Y-78939081D01*
X162966175Y-78843843D01*
X162918556Y-78653367D01*
X162918556Y-78320034D01*
X162966175Y-78129558D01*
X163061413Y-78034320D01*
X163156651Y-77986700D01*
X163347127Y-77986700D01*
X163442365Y-78034320D01*
X163537603Y-78129558D01*
X163585222Y-78320034D01*
X163585222Y-78653367D01*
X163537603Y-78843843D01*
X163442365Y-78939081D01*
X163347127Y-78986700D01*
X163156651Y-78986700D01*
X163966175Y-78081939D02*
X164013794Y-78034320D01*
X164109032Y-77986700D01*
X164347127Y-77986700D01*
X164442365Y-78034320D01*
X164489984Y-78081939D01*
X164537603Y-78177177D01*
X164537603Y-78272415D01*
X164489984Y-78415272D01*
X163918556Y-78986700D01*
X164537603Y-78986700D01*
%TO.C,Q1*%
X139464761Y-64577619D02*
X139369523Y-64530000D01*
X139274285Y-64434761D01*
X139131428Y-64291904D01*
X139036190Y-64244285D01*
X138940952Y-64244285D01*
X138988571Y-64482380D02*
X138893333Y-64434761D01*
X138798095Y-64339523D01*
X138750476Y-64149047D01*
X138750476Y-63815714D01*
X138798095Y-63625238D01*
X138893333Y-63530000D01*
X138988571Y-63482380D01*
X139179047Y-63482380D01*
X139274285Y-63530000D01*
X139369523Y-63625238D01*
X139417142Y-63815714D01*
X139417142Y-64149047D01*
X139369523Y-64339523D01*
X139274285Y-64434761D01*
X139179047Y-64482380D01*
X138988571Y-64482380D01*
X140369523Y-64482380D02*
X139798095Y-64482380D01*
X140083809Y-64482380D02*
X140083809Y-63482380D01*
X139988571Y-63625238D01*
X139893333Y-63720476D01*
X139798095Y-63768095D01*
%TO.C,J4*%
X168700666Y-95184780D02*
X168700666Y-95899066D01*
X168653047Y-96041923D01*
X168557809Y-96137161D01*
X168414952Y-96184780D01*
X168319714Y-96184780D01*
X169605428Y-95518114D02*
X169605428Y-96184780D01*
X169367333Y-95137161D02*
X169129238Y-95851447D01*
X169748285Y-95851447D01*
%TO.C,J3*%
X127526666Y-95372380D02*
X127526666Y-96086666D01*
X127479047Y-96229523D01*
X127383809Y-96324761D01*
X127240952Y-96372380D01*
X127145714Y-96372380D01*
X127907619Y-95372380D02*
X128526666Y-95372380D01*
X128193333Y-95753333D01*
X128336190Y-95753333D01*
X128431428Y-95800952D01*
X128479047Y-95848571D01*
X128526666Y-95943809D01*
X128526666Y-96181904D01*
X128479047Y-96277142D01*
X128431428Y-96324761D01*
X128336190Y-96372380D01*
X128050476Y-96372380D01*
X127955238Y-96324761D01*
X127907619Y-96277142D01*
%TO.C,D5*%
X143607464Y-102337420D02*
X143607464Y-101337420D01*
X143845560Y-101337420D01*
X143988417Y-101385040D01*
X144083655Y-101480278D01*
X144131274Y-101575516D01*
X144178893Y-101765992D01*
X144178893Y-101908849D01*
X144131274Y-102099325D01*
X144083655Y-102194563D01*
X143988417Y-102289801D01*
X143845560Y-102337420D01*
X143607464Y-102337420D01*
X145083655Y-101337420D02*
X144607464Y-101337420D01*
X144559845Y-101813611D01*
X144607464Y-101765992D01*
X144702702Y-101718373D01*
X144940798Y-101718373D01*
X145036036Y-101765992D01*
X145083655Y-101813611D01*
X145131274Y-101908849D01*
X145131274Y-102146944D01*
X145083655Y-102242182D01*
X145036036Y-102289801D01*
X144940798Y-102337420D01*
X144702702Y-102337420D01*
X144607464Y-102289801D01*
X144559845Y-102242182D01*
%TO.C,D3*%
X149371904Y-53402380D02*
X149371904Y-52402380D01*
X149610000Y-52402380D01*
X149752857Y-52450000D01*
X149848095Y-52545238D01*
X149895714Y-52640476D01*
X149943333Y-52830952D01*
X149943333Y-52973809D01*
X149895714Y-53164285D01*
X149848095Y-53259523D01*
X149752857Y-53354761D01*
X149610000Y-53402380D01*
X149371904Y-53402380D01*
X150276666Y-52402380D02*
X150895714Y-52402380D01*
X150562380Y-52783333D01*
X150705238Y-52783333D01*
X150800476Y-52830952D01*
X150848095Y-52878571D01*
X150895714Y-52973809D01*
X150895714Y-53211904D01*
X150848095Y-53307142D01*
X150800476Y-53354761D01*
X150705238Y-53402380D01*
X150419523Y-53402380D01*
X150324285Y-53354761D01*
X150276666Y-53307142D01*
%TO.C,D2*%
X145441904Y-66332380D02*
X145441904Y-65332380D01*
X145680000Y-65332380D01*
X145822857Y-65380000D01*
X145918095Y-65475238D01*
X145965714Y-65570476D01*
X146013333Y-65760952D01*
X146013333Y-65903809D01*
X145965714Y-66094285D01*
X145918095Y-66189523D01*
X145822857Y-66284761D01*
X145680000Y-66332380D01*
X145441904Y-66332380D01*
X146394285Y-65427619D02*
X146441904Y-65380000D01*
X146537142Y-65332380D01*
X146775238Y-65332380D01*
X146870476Y-65380000D01*
X146918095Y-65427619D01*
X146965714Y-65522857D01*
X146965714Y-65618095D01*
X146918095Y-65760952D01*
X146346666Y-66332380D01*
X146965714Y-66332380D01*
%TO.C,D1*%
X149686904Y-57092380D02*
X149686904Y-56092380D01*
X149925000Y-56092380D01*
X150067857Y-56140000D01*
X150163095Y-56235238D01*
X150210714Y-56330476D01*
X150258333Y-56520952D01*
X150258333Y-56663809D01*
X150210714Y-56854285D01*
X150163095Y-56949523D01*
X150067857Y-57044761D01*
X149925000Y-57092380D01*
X149686904Y-57092380D01*
X151210714Y-57092380D02*
X150639285Y-57092380D01*
X150925000Y-57092380D02*
X150925000Y-56092380D01*
X150829761Y-56235238D01*
X150734523Y-56330476D01*
X150639285Y-56378095D01*
%TO.C,C12*%
X159937142Y-108867142D02*
X159889523Y-108914761D01*
X159746666Y-108962380D01*
X159651428Y-108962380D01*
X159508571Y-108914761D01*
X159413333Y-108819523D01*
X159365714Y-108724285D01*
X159318095Y-108533809D01*
X159318095Y-108390952D01*
X159365714Y-108200476D01*
X159413333Y-108105238D01*
X159508571Y-108010000D01*
X159651428Y-107962380D01*
X159746666Y-107962380D01*
X159889523Y-108010000D01*
X159937142Y-108057619D01*
X160889523Y-108962380D02*
X160318095Y-108962380D01*
X160603809Y-108962380D02*
X160603809Y-107962380D01*
X160508571Y-108105238D01*
X160413333Y-108200476D01*
X160318095Y-108248095D01*
X161270476Y-108057619D02*
X161318095Y-108010000D01*
X161413333Y-107962380D01*
X161651428Y-107962380D01*
X161746666Y-108010000D01*
X161794285Y-108057619D01*
X161841904Y-108152857D01*
X161841904Y-108248095D01*
X161794285Y-108390952D01*
X161222857Y-108962380D01*
X161841904Y-108962380D01*
%TO.C,C11*%
X159377142Y-120297142D02*
X159329523Y-120344761D01*
X159186666Y-120392380D01*
X159091428Y-120392380D01*
X158948571Y-120344761D01*
X158853333Y-120249523D01*
X158805714Y-120154285D01*
X158758095Y-119963809D01*
X158758095Y-119820952D01*
X158805714Y-119630476D01*
X158853333Y-119535238D01*
X158948571Y-119440000D01*
X159091428Y-119392380D01*
X159186666Y-119392380D01*
X159329523Y-119440000D01*
X159377142Y-119487619D01*
X160329523Y-120392380D02*
X159758095Y-120392380D01*
X160043809Y-120392380D02*
X160043809Y-119392380D01*
X159948571Y-119535238D01*
X159853333Y-119630476D01*
X159758095Y-119678095D01*
X161281904Y-120392380D02*
X160710476Y-120392380D01*
X160996190Y-120392380D02*
X160996190Y-119392380D01*
X160900952Y-119535238D01*
X160805714Y-119630476D01*
X160710476Y-119678095D01*
%TO.C,C10*%
X162287142Y-120277142D02*
X162239523Y-120324761D01*
X162096666Y-120372380D01*
X162001428Y-120372380D01*
X161858571Y-120324761D01*
X161763333Y-120229523D01*
X161715714Y-120134285D01*
X161668095Y-119943809D01*
X161668095Y-119800952D01*
X161715714Y-119610476D01*
X161763333Y-119515238D01*
X161858571Y-119420000D01*
X162001428Y-119372380D01*
X162096666Y-119372380D01*
X162239523Y-119420000D01*
X162287142Y-119467619D01*
X163239523Y-120372380D02*
X162668095Y-120372380D01*
X162953809Y-120372380D02*
X162953809Y-119372380D01*
X162858571Y-119515238D01*
X162763333Y-119610476D01*
X162668095Y-119658095D01*
X163858571Y-119372380D02*
X163953809Y-119372380D01*
X164049047Y-119420000D01*
X164096666Y-119467619D01*
X164144285Y-119562857D01*
X164191904Y-119753333D01*
X164191904Y-119991428D01*
X164144285Y-120181904D01*
X164096666Y-120277142D01*
X164049047Y-120324761D01*
X163953809Y-120372380D01*
X163858571Y-120372380D01*
X163763333Y-120324761D01*
X163715714Y-120277142D01*
X163668095Y-120181904D01*
X163620476Y-119991428D01*
X163620476Y-119753333D01*
X163668095Y-119562857D01*
X163715714Y-119467619D01*
X163763333Y-119420000D01*
X163858571Y-119372380D01*
%TO.C,C9*%
X140903333Y-86817142D02*
X140855714Y-86864761D01*
X140712857Y-86912380D01*
X140617619Y-86912380D01*
X140474761Y-86864761D01*
X140379523Y-86769523D01*
X140331904Y-86674285D01*
X140284285Y-86483809D01*
X140284285Y-86340952D01*
X140331904Y-86150476D01*
X140379523Y-86055238D01*
X140474761Y-85960000D01*
X140617619Y-85912380D01*
X140712857Y-85912380D01*
X140855714Y-85960000D01*
X140903333Y-86007619D01*
X141379523Y-86912380D02*
X141570000Y-86912380D01*
X141665238Y-86864761D01*
X141712857Y-86817142D01*
X141808095Y-86674285D01*
X141855714Y-86483809D01*
X141855714Y-86102857D01*
X141808095Y-86007619D01*
X141760476Y-85960000D01*
X141665238Y-85912380D01*
X141474761Y-85912380D01*
X141379523Y-85960000D01*
X141331904Y-86007619D01*
X141284285Y-86102857D01*
X141284285Y-86340952D01*
X141331904Y-86436190D01*
X141379523Y-86483809D01*
X141474761Y-86531428D01*
X141665238Y-86531428D01*
X141760476Y-86483809D01*
X141808095Y-86436190D01*
X141855714Y-86340952D01*
%TO.C,C8*%
X143123333Y-86817142D02*
X143075714Y-86864761D01*
X142932857Y-86912380D01*
X142837619Y-86912380D01*
X142694761Y-86864761D01*
X142599523Y-86769523D01*
X142551904Y-86674285D01*
X142504285Y-86483809D01*
X142504285Y-86340952D01*
X142551904Y-86150476D01*
X142599523Y-86055238D01*
X142694761Y-85960000D01*
X142837619Y-85912380D01*
X142932857Y-85912380D01*
X143075714Y-85960000D01*
X143123333Y-86007619D01*
X143694761Y-86340952D02*
X143599523Y-86293333D01*
X143551904Y-86245714D01*
X143504285Y-86150476D01*
X143504285Y-86102857D01*
X143551904Y-86007619D01*
X143599523Y-85960000D01*
X143694761Y-85912380D01*
X143885238Y-85912380D01*
X143980476Y-85960000D01*
X144028095Y-86007619D01*
X144075714Y-86102857D01*
X144075714Y-86150476D01*
X144028095Y-86245714D01*
X143980476Y-86293333D01*
X143885238Y-86340952D01*
X143694761Y-86340952D01*
X143599523Y-86388571D01*
X143551904Y-86436190D01*
X143504285Y-86531428D01*
X143504285Y-86721904D01*
X143551904Y-86817142D01*
X143599523Y-86864761D01*
X143694761Y-86912380D01*
X143885238Y-86912380D01*
X143980476Y-86864761D01*
X144028095Y-86817142D01*
X144075714Y-86721904D01*
X144075714Y-86531428D01*
X144028095Y-86436190D01*
X143980476Y-86388571D01*
X143885238Y-86340952D01*
%TO.C,C7*%
X153283333Y-87012142D02*
X153235714Y-87059761D01*
X153092857Y-87107380D01*
X152997619Y-87107380D01*
X152854761Y-87059761D01*
X152759523Y-86964523D01*
X152711904Y-86869285D01*
X152664285Y-86678809D01*
X152664285Y-86535952D01*
X152711904Y-86345476D01*
X152759523Y-86250238D01*
X152854761Y-86155000D01*
X152997619Y-86107380D01*
X153092857Y-86107380D01*
X153235714Y-86155000D01*
X153283333Y-86202619D01*
X153616666Y-86107380D02*
X154283333Y-86107380D01*
X153854761Y-87107380D01*
%TO.C,C5*%
X156423333Y-77267142D02*
X156375714Y-77314761D01*
X156232857Y-77362380D01*
X156137619Y-77362380D01*
X155994761Y-77314761D01*
X155899523Y-77219523D01*
X155851904Y-77124285D01*
X155804285Y-76933809D01*
X155804285Y-76790952D01*
X155851904Y-76600476D01*
X155899523Y-76505238D01*
X155994761Y-76410000D01*
X156137619Y-76362380D01*
X156232857Y-76362380D01*
X156375714Y-76410000D01*
X156423333Y-76457619D01*
X157328095Y-76362380D02*
X156851904Y-76362380D01*
X156804285Y-76838571D01*
X156851904Y-76790952D01*
X156947142Y-76743333D01*
X157185238Y-76743333D01*
X157280476Y-76790952D01*
X157328095Y-76838571D01*
X157375714Y-76933809D01*
X157375714Y-77171904D01*
X157328095Y-77267142D01*
X157280476Y-77314761D01*
X157185238Y-77362380D01*
X156947142Y-77362380D01*
X156851904Y-77314761D01*
X156804285Y-77267142D01*
%TO.C,C4*%
X161323333Y-70787142D02*
X161275714Y-70834761D01*
X161132857Y-70882380D01*
X161037619Y-70882380D01*
X160894761Y-70834761D01*
X160799523Y-70739523D01*
X160751904Y-70644285D01*
X160704285Y-70453809D01*
X160704285Y-70310952D01*
X160751904Y-70120476D01*
X160799523Y-70025238D01*
X160894761Y-69930000D01*
X161037619Y-69882380D01*
X161132857Y-69882380D01*
X161275714Y-69930000D01*
X161323333Y-69977619D01*
X162180476Y-70215714D02*
X162180476Y-70882380D01*
X161942380Y-69834761D02*
X161704285Y-70549047D01*
X162323333Y-70549047D01*
%TO.C,C3*%
X150143333Y-69737142D02*
X150095714Y-69784761D01*
X149952857Y-69832380D01*
X149857619Y-69832380D01*
X149714761Y-69784761D01*
X149619523Y-69689523D01*
X149571904Y-69594285D01*
X149524285Y-69403809D01*
X149524285Y-69260952D01*
X149571904Y-69070476D01*
X149619523Y-68975238D01*
X149714761Y-68880000D01*
X149857619Y-68832380D01*
X149952857Y-68832380D01*
X150095714Y-68880000D01*
X150143333Y-68927619D01*
X150476666Y-68832380D02*
X151095714Y-68832380D01*
X150762380Y-69213333D01*
X150905238Y-69213333D01*
X151000476Y-69260952D01*
X151048095Y-69308571D01*
X151095714Y-69403809D01*
X151095714Y-69641904D01*
X151048095Y-69737142D01*
X151000476Y-69784761D01*
X150905238Y-69832380D01*
X150619523Y-69832380D01*
X150524285Y-69784761D01*
X150476666Y-69737142D01*
%TO.C,C2*%
X145868333Y-62327142D02*
X145820714Y-62374761D01*
X145677857Y-62422380D01*
X145582619Y-62422380D01*
X145439761Y-62374761D01*
X145344523Y-62279523D01*
X145296904Y-62184285D01*
X145249285Y-61993809D01*
X145249285Y-61850952D01*
X145296904Y-61660476D01*
X145344523Y-61565238D01*
X145439761Y-61470000D01*
X145582619Y-61422380D01*
X145677857Y-61422380D01*
X145820714Y-61470000D01*
X145868333Y-61517619D01*
X146249285Y-61517619D02*
X146296904Y-61470000D01*
X146392142Y-61422380D01*
X146630238Y-61422380D01*
X146725476Y-61470000D01*
X146773095Y-61517619D01*
X146820714Y-61612857D01*
X146820714Y-61708095D01*
X146773095Y-61850952D01*
X146201666Y-62422380D01*
X146820714Y-62422380D01*
%TO.C,C1*%
X134903333Y-71527142D02*
X134855714Y-71574761D01*
X134712857Y-71622380D01*
X134617619Y-71622380D01*
X134474761Y-71574761D01*
X134379523Y-71479523D01*
X134331904Y-71384285D01*
X134284285Y-71193809D01*
X134284285Y-71050952D01*
X134331904Y-70860476D01*
X134379523Y-70765238D01*
X134474761Y-70670000D01*
X134617619Y-70622380D01*
X134712857Y-70622380D01*
X134855714Y-70670000D01*
X134903333Y-70717619D01*
X135855714Y-71622380D02*
X135284285Y-71622380D01*
X135570000Y-71622380D02*
X135570000Y-70622380D01*
X135474761Y-70765238D01*
X135379523Y-70860476D01*
X135284285Y-70908095D01*
%TD*%
%LPC*%
D12*
%TO.C,J1*%
X125800000Y-72370000D03*
G36*
G01*
X128400000Y-71744999D02*
X128400000Y-72995001D01*
G75*
G02*
X128150001Y-73245000I-249999J0D01*
G01*
X127449999Y-73245000D01*
G75*
G02*
X127200000Y-72995001I0J249999D01*
G01*
X127200000Y-71744999D01*
G75*
G02*
X127449999Y-71495000I249999J0D01*
G01*
X128150001Y-71495000D01*
G75*
G02*
X128400000Y-71744999I0J-249999D01*
G01*
G37*
%TD*%
D13*
%TO.C,U4*%
X140330000Y-123855000D03*
X140330000Y-122585000D03*
X140330000Y-121315000D03*
X140330000Y-120045000D03*
X140330000Y-118775000D03*
X140330000Y-117505000D03*
X140330000Y-116235000D03*
X140330000Y-114965000D03*
X140330000Y-113695000D03*
X140330000Y-112425000D03*
X140330000Y-111155000D03*
X140330000Y-109885000D03*
X140330000Y-108615000D03*
X140330000Y-107345000D03*
D14*
X143115000Y-106345000D03*
X144385000Y-106345000D03*
X145655000Y-106345000D03*
X146925000Y-106345000D03*
X148195000Y-106345000D03*
X149465000Y-106345000D03*
X150735000Y-106345000D03*
X152005000Y-106345000D03*
X153275000Y-106345000D03*
X154545000Y-106345000D03*
D13*
X157330000Y-107345000D03*
X157330000Y-108615000D03*
X157330000Y-109885000D03*
X157330000Y-111155000D03*
X157330000Y-112425000D03*
X157330000Y-113695000D03*
X157330000Y-114965000D03*
X157330000Y-116235000D03*
X157330000Y-117505000D03*
X157330000Y-118775000D03*
X157330000Y-120045000D03*
X157330000Y-121315000D03*
X157330000Y-122585000D03*
X157330000Y-123855000D03*
D15*
X149830000Y-116355000D03*
%TD*%
D16*
%TO.C,J2*%
X152355000Y-72790000D03*
X145205000Y-72790000D03*
D17*
X150080000Y-72570000D03*
X149430000Y-73570000D03*
X148780000Y-72570000D03*
X148130000Y-73570000D03*
D18*
X147480000Y-72570000D03*
%TD*%
D19*
%TO.C,JP1*%
X154450000Y-54640000D03*
D20*
X156990000Y-54640000D03*
%TD*%
%TO.C,R13*%
G36*
G01*
X159590001Y-83190000D02*
X158689999Y-83190000D01*
G75*
G02*
X158440000Y-82940001I0J249999D01*
G01*
X158440000Y-82289999D01*
G75*
G02*
X158689999Y-82040000I249999J0D01*
G01*
X159590001Y-82040000D01*
G75*
G02*
X159840000Y-82289999I0J-249999D01*
G01*
X159840000Y-82940001D01*
G75*
G02*
X159590001Y-83190000I-249999J0D01*
G01*
G37*
G36*
G01*
X159590001Y-85240000D02*
X158689999Y-85240000D01*
G75*
G02*
X158440000Y-84990001I0J249999D01*
G01*
X158440000Y-84339999D01*
G75*
G02*
X158689999Y-84090000I249999J0D01*
G01*
X159590001Y-84090000D01*
G75*
G02*
X159840000Y-84339999I0J-249999D01*
G01*
X159840000Y-84990001D01*
G75*
G02*
X159590001Y-85240000I-249999J0D01*
G01*
G37*
%TD*%
%TO.C,C6*%
G36*
G01*
X142857999Y-77222000D02*
X143758001Y-77222000D01*
G75*
G02*
X144008000Y-77471999I0J-249999D01*
G01*
X144008000Y-78122001D01*
G75*
G02*
X143758001Y-78372000I-249999J0D01*
G01*
X142857999Y-78372000D01*
G75*
G02*
X142608000Y-78122001I0J249999D01*
G01*
X142608000Y-77471999D01*
G75*
G02*
X142857999Y-77222000I249999J0D01*
G01*
G37*
G36*
G01*
X142857999Y-75172000D02*
X143758001Y-75172000D01*
G75*
G02*
X144008000Y-75421999I0J-249999D01*
G01*
X144008000Y-76072001D01*
G75*
G02*
X143758001Y-76322000I-249999J0D01*
G01*
X142857999Y-76322000D01*
G75*
G02*
X142608000Y-76072001I0J249999D01*
G01*
X142608000Y-75421999D01*
G75*
G02*
X142857999Y-75172000I249999J0D01*
G01*
G37*
%TD*%
D21*
%TO.C,U3*%
X145840000Y-86451500D03*
X145840000Y-85816500D03*
X145840000Y-85181500D03*
X145840000Y-84546500D03*
X145840000Y-83911500D03*
X145840000Y-83276500D03*
X145840000Y-82641500D03*
X145840000Y-82006500D03*
X145840000Y-81371500D03*
X145840000Y-80736500D03*
X151040000Y-80736500D03*
X151040000Y-81371500D03*
X151040000Y-82006500D03*
X151040000Y-82641500D03*
X151040000Y-83276500D03*
X151040000Y-83911500D03*
X151040000Y-84546500D03*
X151040000Y-85181500D03*
X151040000Y-85816500D03*
X151040000Y-86451500D03*
%TD*%
D22*
%TO.C,U2*%
X155858000Y-67417000D03*
X155858000Y-66467000D03*
X155858000Y-65517000D03*
X153158000Y-65517000D03*
X153158000Y-67417000D03*
%TD*%
%TO.C,U1*%
X140790000Y-58120000D03*
X140790000Y-60020000D03*
X138090000Y-60020000D03*
X138090000Y-59070000D03*
X138090000Y-58120000D03*
%TD*%
D23*
%TO.C,EN*%
X166350000Y-108920000D03*
D24*
X166350000Y-110620000D03*
X166350000Y-107220000D03*
%TD*%
D23*
%TO.C,BOOT*%
X131330000Y-108915000D03*
D24*
X131330000Y-107215000D03*
X131330000Y-110615000D03*
%TD*%
%TO.C,R12*%
G36*
G01*
X163090001Y-83190000D02*
X162189999Y-83190000D01*
G75*
G02*
X161940000Y-82940001I0J249999D01*
G01*
X161940000Y-82289999D01*
G75*
G02*
X162189999Y-82040000I249999J0D01*
G01*
X163090001Y-82040000D01*
G75*
G02*
X163340000Y-82289999I0J-249999D01*
G01*
X163340000Y-82940001D01*
G75*
G02*
X163090001Y-83190000I-249999J0D01*
G01*
G37*
G36*
G01*
X163090001Y-85240000D02*
X162189999Y-85240000D01*
G75*
G02*
X161940000Y-84990001I0J249999D01*
G01*
X161940000Y-84339999D01*
G75*
G02*
X162189999Y-84090000I249999J0D01*
G01*
X163090001Y-84090000D01*
G75*
G02*
X163340000Y-84339999I0J-249999D01*
G01*
X163340000Y-84990001D01*
G75*
G02*
X163090001Y-85240000I-249999J0D01*
G01*
G37*
%TD*%
%TO.C,R11*%
G36*
G01*
X134069999Y-108775000D02*
X134970001Y-108775000D01*
G75*
G02*
X135220000Y-109024999I0J-249999D01*
G01*
X135220000Y-109675001D01*
G75*
G02*
X134970001Y-109925000I-249999J0D01*
G01*
X134069999Y-109925000D01*
G75*
G02*
X133820000Y-109675001I0J249999D01*
G01*
X133820000Y-109024999D01*
G75*
G02*
X134069999Y-108775000I249999J0D01*
G01*
G37*
G36*
G01*
X134069999Y-106725000D02*
X134970001Y-106725000D01*
G75*
G02*
X135220000Y-106974999I0J-249999D01*
G01*
X135220000Y-107625001D01*
G75*
G02*
X134970001Y-107875000I-249999J0D01*
G01*
X134069999Y-107875000D01*
G75*
G02*
X133820000Y-107625001I0J249999D01*
G01*
X133820000Y-106974999D01*
G75*
G02*
X134069999Y-106725000I249999J0D01*
G01*
G37*
%TD*%
%TO.C,R10*%
G36*
G01*
X163880000Y-111909999D02*
X163880000Y-112810001D01*
G75*
G02*
X163630001Y-113060000I-249999J0D01*
G01*
X162979999Y-113060000D01*
G75*
G02*
X162730000Y-112810001I0J249999D01*
G01*
X162730000Y-111909999D01*
G75*
G02*
X162979999Y-111660000I249999J0D01*
G01*
X163630001Y-111660000D01*
G75*
G02*
X163880000Y-111909999I0J-249999D01*
G01*
G37*
G36*
G01*
X165930000Y-111909999D02*
X165930000Y-112810001D01*
G75*
G02*
X165680001Y-113060000I-249999J0D01*
G01*
X165029999Y-113060000D01*
G75*
G02*
X164780000Y-112810001I0J249999D01*
G01*
X164780000Y-111909999D01*
G75*
G02*
X165029999Y-111660000I249999J0D01*
G01*
X165680001Y-111660000D01*
G75*
G02*
X165930000Y-111909999I0J-249999D01*
G01*
G37*
%TD*%
%TO.C,R9*%
G36*
G01*
X153975000Y-104190001D02*
X153975000Y-103289999D01*
G75*
G02*
X154224999Y-103040000I249999J0D01*
G01*
X154875001Y-103040000D01*
G75*
G02*
X155125000Y-103289999I0J-249999D01*
G01*
X155125000Y-104190001D01*
G75*
G02*
X154875001Y-104440000I-249999J0D01*
G01*
X154224999Y-104440000D01*
G75*
G02*
X153975000Y-104190001I0J249999D01*
G01*
G37*
G36*
G01*
X151925000Y-104190001D02*
X151925000Y-103289999D01*
G75*
G02*
X152174999Y-103040000I249999J0D01*
G01*
X152825001Y-103040000D01*
G75*
G02*
X153075000Y-103289999I0J-249999D01*
G01*
X153075000Y-104190001D01*
G75*
G02*
X152825001Y-104440000I-249999J0D01*
G01*
X152174999Y-104440000D01*
G75*
G02*
X151925000Y-104190001I0J249999D01*
G01*
G37*
%TD*%
%TO.C,R8*%
G36*
G01*
X144250000Y-54189999D02*
X144250000Y-55090001D01*
G75*
G02*
X144000001Y-55340000I-249999J0D01*
G01*
X143349999Y-55340000D01*
G75*
G02*
X143100000Y-55090001I0J249999D01*
G01*
X143100000Y-54189999D01*
G75*
G02*
X143349999Y-53940000I249999J0D01*
G01*
X144000001Y-53940000D01*
G75*
G02*
X144250000Y-54189999I0J-249999D01*
G01*
G37*
G36*
G01*
X146300000Y-54189999D02*
X146300000Y-55090001D01*
G75*
G02*
X146050001Y-55340000I-249999J0D01*
G01*
X145399999Y-55340000D01*
G75*
G02*
X145150000Y-55090001I0J249999D01*
G01*
X145150000Y-54189999D01*
G75*
G02*
X145399999Y-53940000I249999J0D01*
G01*
X146050001Y-53940000D01*
G75*
G02*
X146300000Y-54189999I0J-249999D01*
G01*
G37*
%TD*%
%TO.C,R7*%
G36*
G01*
X145143999Y-77222000D02*
X146044001Y-77222000D01*
G75*
G02*
X146294000Y-77471999I0J-249999D01*
G01*
X146294000Y-78122001D01*
G75*
G02*
X146044001Y-78372000I-249999J0D01*
G01*
X145143999Y-78372000D01*
G75*
G02*
X144894000Y-78122001I0J249999D01*
G01*
X144894000Y-77471999D01*
G75*
G02*
X145143999Y-77222000I249999J0D01*
G01*
G37*
G36*
G01*
X145143999Y-75172000D02*
X146044001Y-75172000D01*
G75*
G02*
X146294000Y-75421999I0J-249999D01*
G01*
X146294000Y-76072001D01*
G75*
G02*
X146044001Y-76322000I-249999J0D01*
G01*
X145143999Y-76322000D01*
G75*
G02*
X144894000Y-76072001I0J249999D01*
G01*
X144894000Y-75421999D01*
G75*
G02*
X145143999Y-75172000I249999J0D01*
G01*
G37*
%TD*%
%TO.C,R6*%
G36*
G01*
X146420000Y-58580001D02*
X146420000Y-57679999D01*
G75*
G02*
X146669999Y-57430000I249999J0D01*
G01*
X147320001Y-57430000D01*
G75*
G02*
X147570000Y-57679999I0J-249999D01*
G01*
X147570000Y-58580001D01*
G75*
G02*
X147320001Y-58830000I-249999J0D01*
G01*
X146669999Y-58830000D01*
G75*
G02*
X146420000Y-58580001I0J249999D01*
G01*
G37*
G36*
G01*
X144370000Y-58580001D02*
X144370000Y-57679999D01*
G75*
G02*
X144619999Y-57430000I249999J0D01*
G01*
X145270001Y-57430000D01*
G75*
G02*
X145520000Y-57679999I0J-249999D01*
G01*
X145520000Y-58580001D01*
G75*
G02*
X145270001Y-58830000I-249999J0D01*
G01*
X144619999Y-58830000D01*
G75*
G02*
X144370000Y-58580001I0J249999D01*
G01*
G37*
%TD*%
%TO.C,R5*%
G36*
G01*
X158889999Y-64740000D02*
X159790001Y-64740000D01*
G75*
G02*
X160040000Y-64989999I0J-249999D01*
G01*
X160040000Y-65640001D01*
G75*
G02*
X159790001Y-65890000I-249999J0D01*
G01*
X158889999Y-65890000D01*
G75*
G02*
X158640000Y-65640001I0J249999D01*
G01*
X158640000Y-64989999D01*
G75*
G02*
X158889999Y-64740000I249999J0D01*
G01*
G37*
G36*
G01*
X158889999Y-66790000D02*
X159790001Y-66790000D01*
G75*
G02*
X160040000Y-67039999I0J-249999D01*
G01*
X160040000Y-67690001D01*
G75*
G02*
X159790001Y-67940000I-249999J0D01*
G01*
X158889999Y-67940000D01*
G75*
G02*
X158640000Y-67690001I0J249999D01*
G01*
X158640000Y-67039999D01*
G75*
G02*
X158889999Y-66790000I249999J0D01*
G01*
G37*
%TD*%
%TO.C,R4*%
G36*
G01*
X151473999Y-77310000D02*
X152374001Y-77310000D01*
G75*
G02*
X152624000Y-77559999I0J-249999D01*
G01*
X152624000Y-78210001D01*
G75*
G02*
X152374001Y-78460000I-249999J0D01*
G01*
X151473999Y-78460000D01*
G75*
G02*
X151224000Y-78210001I0J249999D01*
G01*
X151224000Y-77559999D01*
G75*
G02*
X151473999Y-77310000I249999J0D01*
G01*
G37*
G36*
G01*
X151473999Y-75260000D02*
X152374001Y-75260000D01*
G75*
G02*
X152624000Y-75509999I0J-249999D01*
G01*
X152624000Y-76160001D01*
G75*
G02*
X152374001Y-76410000I-249999J0D01*
G01*
X151473999Y-76410000D01*
G75*
G02*
X151224000Y-76160001I0J249999D01*
G01*
X151224000Y-75509999D01*
G75*
G02*
X151473999Y-75260000I249999J0D01*
G01*
G37*
%TD*%
%TO.C,R2*%
G36*
G01*
X140510000Y-71590001D02*
X140510000Y-70689999D01*
G75*
G02*
X140759999Y-70440000I249999J0D01*
G01*
X141410001Y-70440000D01*
G75*
G02*
X141660000Y-70689999I0J-249999D01*
G01*
X141660000Y-71590001D01*
G75*
G02*
X141410001Y-71840000I-249999J0D01*
G01*
X140759999Y-71840000D01*
G75*
G02*
X140510000Y-71590001I0J249999D01*
G01*
G37*
G36*
G01*
X138460000Y-71590001D02*
X138460000Y-70689999D01*
G75*
G02*
X138709999Y-70440000I249999J0D01*
G01*
X139360001Y-70440000D01*
G75*
G02*
X139610000Y-70689999I0J-249999D01*
G01*
X139610000Y-71590001D01*
G75*
G02*
X139360001Y-71840000I-249999J0D01*
G01*
X138709999Y-71840000D01*
G75*
G02*
X138460000Y-71590001I0J249999D01*
G01*
G37*
%TD*%
%TO.C,R1*%
G36*
G01*
X150840000Y-63600001D02*
X150840000Y-62699999D01*
G75*
G02*
X151089999Y-62450000I249999J0D01*
G01*
X151740001Y-62450000D01*
G75*
G02*
X151990000Y-62699999I0J-249999D01*
G01*
X151990000Y-63600001D01*
G75*
G02*
X151740001Y-63850000I-249999J0D01*
G01*
X151089999Y-63850000D01*
G75*
G02*
X150840000Y-63600001I0J249999D01*
G01*
G37*
G36*
G01*
X148790000Y-63600001D02*
X148790000Y-62699999D01*
G75*
G02*
X149039999Y-62450000I249999J0D01*
G01*
X149690001Y-62450000D01*
G75*
G02*
X149940000Y-62699999I0J-249999D01*
G01*
X149940000Y-63600001D01*
G75*
G02*
X149690001Y-63850000I-249999J0D01*
G01*
X149039999Y-63850000D01*
G75*
G02*
X148790000Y-63600001I0J249999D01*
G01*
G37*
%TD*%
D25*
%TO.C,Q3*%
X160802000Y-88490000D03*
X159852000Y-86490000D03*
X161752000Y-86490000D03*
%TD*%
%TO.C,Q2*%
X160890000Y-78640000D03*
X161840000Y-80640000D03*
X159940000Y-80640000D03*
%TD*%
D26*
%TO.C,Q1*%
X138100000Y-66530000D03*
X141100000Y-65580000D03*
X141100000Y-67480000D03*
%TD*%
D19*
%TO.C,J4*%
X168220000Y-98170000D03*
X165680000Y-98170000D03*
X163140000Y-98170000D03*
X160600000Y-98170000D03*
X158060000Y-98170000D03*
X155520000Y-98170000D03*
X152980000Y-98170000D03*
D20*
X150440000Y-98170000D03*
%TD*%
D19*
%TO.C,J3*%
X144200000Y-98100000D03*
X141660000Y-98100000D03*
X139120000Y-98100000D03*
X136580000Y-98100000D03*
X134040000Y-98100000D03*
X131500000Y-98100000D03*
D20*
X128960000Y-98100000D03*
%TD*%
%TO.C,D5*%
G36*
G01*
X143685000Y-103279999D02*
X143685000Y-104180001D01*
G75*
G02*
X143435001Y-104430000I-249999J0D01*
G01*
X142784999Y-104430000D01*
G75*
G02*
X142535000Y-104180001I0J249999D01*
G01*
X142535000Y-103279999D01*
G75*
G02*
X142784999Y-103030000I249999J0D01*
G01*
X143435001Y-103030000D01*
G75*
G02*
X143685000Y-103279999I0J-249999D01*
G01*
G37*
G36*
G01*
X145735000Y-103279999D02*
X145735000Y-104180001D01*
G75*
G02*
X145485001Y-104430000I-249999J0D01*
G01*
X144834999Y-104430000D01*
G75*
G02*
X144585000Y-104180001I0J249999D01*
G01*
X144585000Y-103279999D01*
G75*
G02*
X144834999Y-103030000I249999J0D01*
G01*
X145485001Y-103030000D01*
G75*
G02*
X145735000Y-103279999I0J-249999D01*
G01*
G37*
%TD*%
%TO.C,D3*%
G36*
G01*
X150850000Y-55110001D02*
X150850000Y-54209999D01*
G75*
G02*
X151099999Y-53960000I249999J0D01*
G01*
X151750001Y-53960000D01*
G75*
G02*
X152000000Y-54209999I0J-249999D01*
G01*
X152000000Y-55110001D01*
G75*
G02*
X151750001Y-55360000I-249999J0D01*
G01*
X151099999Y-55360000D01*
G75*
G02*
X150850000Y-55110001I0J249999D01*
G01*
G37*
G36*
G01*
X148800000Y-55110001D02*
X148800000Y-54209999D01*
G75*
G02*
X149049999Y-53960000I249999J0D01*
G01*
X149700001Y-53960000D01*
G75*
G02*
X149950000Y-54209999I0J-249999D01*
G01*
X149950000Y-55110001D01*
G75*
G02*
X149700001Y-55360000I-249999J0D01*
G01*
X149049999Y-55360000D01*
G75*
G02*
X148800000Y-55110001I0J249999D01*
G01*
G37*
%TD*%
D27*
%TO.C,D2*%
X144930000Y-67530000D03*
X147430000Y-67530000D03*
%TD*%
%TO.C,D1*%
G36*
G01*
X149900000Y-57809999D02*
X149900000Y-58710001D01*
G75*
G02*
X149650001Y-58960000I-249999J0D01*
G01*
X148999999Y-58960000D01*
G75*
G02*
X148750000Y-58710001I0J249999D01*
G01*
X148750000Y-57809999D01*
G75*
G02*
X148999999Y-57560000I249999J0D01*
G01*
X149650001Y-57560000D01*
G75*
G02*
X149900000Y-57809999I0J-249999D01*
G01*
G37*
G36*
G01*
X151950000Y-57809999D02*
X151950000Y-58710001D01*
G75*
G02*
X151700001Y-58960000I-249999J0D01*
G01*
X151049999Y-58960000D01*
G75*
G02*
X150800000Y-58710001I0J249999D01*
G01*
X150800000Y-57809999D01*
G75*
G02*
X151049999Y-57560000I249999J0D01*
G01*
X151700001Y-57560000D01*
G75*
G02*
X151950000Y-57809999I0J-249999D01*
G01*
G37*
%TD*%
%TO.C,C12*%
G36*
G01*
X163740001Y-107990000D02*
X162839999Y-107990000D01*
G75*
G02*
X162590000Y-107740001I0J249999D01*
G01*
X162590000Y-107089999D01*
G75*
G02*
X162839999Y-106840000I249999J0D01*
G01*
X163740001Y-106840000D01*
G75*
G02*
X163990000Y-107089999I0J-249999D01*
G01*
X163990000Y-107740001D01*
G75*
G02*
X163740001Y-107990000I-249999J0D01*
G01*
G37*
G36*
G01*
X163740001Y-110040000D02*
X162839999Y-110040000D01*
G75*
G02*
X162590000Y-109790001I0J249999D01*
G01*
X162590000Y-109139999D01*
G75*
G02*
X162839999Y-108890000I249999J0D01*
G01*
X163740001Y-108890000D01*
G75*
G02*
X163990000Y-109139999I0J-249999D01*
G01*
X163990000Y-109790001D01*
G75*
G02*
X163740001Y-110040000I-249999J0D01*
G01*
G37*
%TD*%
%TO.C,C11*%
G36*
G01*
X159729999Y-123250000D02*
X160630001Y-123250000D01*
G75*
G02*
X160880000Y-123499999I0J-249999D01*
G01*
X160880000Y-124150001D01*
G75*
G02*
X160630001Y-124400000I-249999J0D01*
G01*
X159729999Y-124400000D01*
G75*
G02*
X159480000Y-124150001I0J249999D01*
G01*
X159480000Y-123499999D01*
G75*
G02*
X159729999Y-123250000I249999J0D01*
G01*
G37*
G36*
G01*
X159729999Y-121200000D02*
X160630001Y-121200000D01*
G75*
G02*
X160880000Y-121449999I0J-249999D01*
G01*
X160880000Y-122100001D01*
G75*
G02*
X160630001Y-122350000I-249999J0D01*
G01*
X159729999Y-122350000D01*
G75*
G02*
X159480000Y-122100001I0J249999D01*
G01*
X159480000Y-121449999D01*
G75*
G02*
X159729999Y-121200000I249999J0D01*
G01*
G37*
%TD*%
%TO.C,C10*%
G36*
G01*
X161939999Y-123240000D02*
X162840001Y-123240000D01*
G75*
G02*
X163090000Y-123489999I0J-249999D01*
G01*
X163090000Y-124140001D01*
G75*
G02*
X162840001Y-124390000I-249999J0D01*
G01*
X161939999Y-124390000D01*
G75*
G02*
X161690000Y-124140001I0J249999D01*
G01*
X161690000Y-123489999D01*
G75*
G02*
X161939999Y-123240000I249999J0D01*
G01*
G37*
G36*
G01*
X161939999Y-121190000D02*
X162840001Y-121190000D01*
G75*
G02*
X163090000Y-121439999I0J-249999D01*
G01*
X163090000Y-122090001D01*
G75*
G02*
X162840001Y-122340000I-249999J0D01*
G01*
X161939999Y-122340000D01*
G75*
G02*
X161690000Y-122090001I0J249999D01*
G01*
X161690000Y-121439999D01*
G75*
G02*
X161939999Y-121190000I249999J0D01*
G01*
G37*
%TD*%
%TO.C,C9*%
G36*
G01*
X140609999Y-83995000D02*
X141510001Y-83995000D01*
G75*
G02*
X141760000Y-84244999I0J-249999D01*
G01*
X141760000Y-84895001D01*
G75*
G02*
X141510001Y-85145000I-249999J0D01*
G01*
X140609999Y-85145000D01*
G75*
G02*
X140360000Y-84895001I0J249999D01*
G01*
X140360000Y-84244999D01*
G75*
G02*
X140609999Y-83995000I249999J0D01*
G01*
G37*
G36*
G01*
X140609999Y-81945000D02*
X141510001Y-81945000D01*
G75*
G02*
X141760000Y-82194999I0J-249999D01*
G01*
X141760000Y-82845001D01*
G75*
G02*
X141510001Y-83095000I-249999J0D01*
G01*
X140609999Y-83095000D01*
G75*
G02*
X140360000Y-82845001I0J249999D01*
G01*
X140360000Y-82194999D01*
G75*
G02*
X140609999Y-81945000I249999J0D01*
G01*
G37*
%TD*%
%TO.C,C8*%
G36*
G01*
X142809999Y-84025000D02*
X143710001Y-84025000D01*
G75*
G02*
X143960000Y-84274999I0J-249999D01*
G01*
X143960000Y-84925001D01*
G75*
G02*
X143710001Y-85175000I-249999J0D01*
G01*
X142809999Y-85175000D01*
G75*
G02*
X142560000Y-84925001I0J249999D01*
G01*
X142560000Y-84274999D01*
G75*
G02*
X142809999Y-84025000I249999J0D01*
G01*
G37*
G36*
G01*
X142809999Y-81975000D02*
X143710001Y-81975000D01*
G75*
G02*
X143960000Y-82224999I0J-249999D01*
G01*
X143960000Y-82875001D01*
G75*
G02*
X143710001Y-83125000I-249999J0D01*
G01*
X142809999Y-83125000D01*
G75*
G02*
X142560000Y-82875001I0J249999D01*
G01*
X142560000Y-82224999D01*
G75*
G02*
X142809999Y-81975000I249999J0D01*
G01*
G37*
%TD*%
%TO.C,C7*%
G36*
G01*
X153900001Y-83355000D02*
X152999999Y-83355000D01*
G75*
G02*
X152750000Y-83105001I0J249999D01*
G01*
X152750000Y-82454999D01*
G75*
G02*
X152999999Y-82205000I249999J0D01*
G01*
X153900001Y-82205000D01*
G75*
G02*
X154150000Y-82454999I0J-249999D01*
G01*
X154150000Y-83105001D01*
G75*
G02*
X153900001Y-83355000I-249999J0D01*
G01*
G37*
G36*
G01*
X153900001Y-85405000D02*
X152999999Y-85405000D01*
G75*
G02*
X152750000Y-85155001I0J249999D01*
G01*
X152750000Y-84504999D01*
G75*
G02*
X152999999Y-84255000I249999J0D01*
G01*
X153900001Y-84255000D01*
G75*
G02*
X154150000Y-84504999I0J-249999D01*
G01*
X154150000Y-85155001D01*
G75*
G02*
X153900001Y-85405000I-249999J0D01*
G01*
G37*
%TD*%
%TO.C,C5*%
G36*
G01*
X153959999Y-77250000D02*
X154860001Y-77250000D01*
G75*
G02*
X155110000Y-77499999I0J-249999D01*
G01*
X155110000Y-78150001D01*
G75*
G02*
X154860001Y-78400000I-249999J0D01*
G01*
X153959999Y-78400000D01*
G75*
G02*
X153710000Y-78150001I0J249999D01*
G01*
X153710000Y-77499999D01*
G75*
G02*
X153959999Y-77250000I249999J0D01*
G01*
G37*
G36*
G01*
X153959999Y-75200000D02*
X154860001Y-75200000D01*
G75*
G02*
X155110000Y-75449999I0J-249999D01*
G01*
X155110000Y-76100001D01*
G75*
G02*
X154860001Y-76350000I-249999J0D01*
G01*
X153959999Y-76350000D01*
G75*
G02*
X153710000Y-76100001I0J249999D01*
G01*
X153710000Y-75449999D01*
G75*
G02*
X153959999Y-75200000I249999J0D01*
G01*
G37*
%TD*%
%TO.C,C4*%
G36*
G01*
X158889999Y-68450000D02*
X159790001Y-68450000D01*
G75*
G02*
X160040000Y-68699999I0J-249999D01*
G01*
X160040000Y-69350001D01*
G75*
G02*
X159790001Y-69600000I-249999J0D01*
G01*
X158889999Y-69600000D01*
G75*
G02*
X158640000Y-69350001I0J249999D01*
G01*
X158640000Y-68699999D01*
G75*
G02*
X158889999Y-68450000I249999J0D01*
G01*
G37*
G36*
G01*
X158889999Y-70500000D02*
X159790001Y-70500000D01*
G75*
G02*
X160040000Y-70749999I0J-249999D01*
G01*
X160040000Y-71400001D01*
G75*
G02*
X159790001Y-71650000I-249999J0D01*
G01*
X158889999Y-71650000D01*
G75*
G02*
X158640000Y-71400001I0J249999D01*
G01*
X158640000Y-70749999D01*
G75*
G02*
X158889999Y-70500000I249999J0D01*
G01*
G37*
%TD*%
%TO.C,C3*%
G36*
G01*
X150860001Y-68130000D02*
X149959999Y-68130000D01*
G75*
G02*
X149710000Y-67880001I0J249999D01*
G01*
X149710000Y-67229999D01*
G75*
G02*
X149959999Y-66980000I249999J0D01*
G01*
X150860001Y-66980000D01*
G75*
G02*
X151110000Y-67229999I0J-249999D01*
G01*
X151110000Y-67880001D01*
G75*
G02*
X150860001Y-68130000I-249999J0D01*
G01*
G37*
G36*
G01*
X150860001Y-66080000D02*
X149959999Y-66080000D01*
G75*
G02*
X149710000Y-65830001I0J249999D01*
G01*
X149710000Y-65179999D01*
G75*
G02*
X149959999Y-64930000I249999J0D01*
G01*
X150860001Y-64930000D01*
G75*
G02*
X151110000Y-65179999I0J-249999D01*
G01*
X151110000Y-65830001D01*
G75*
G02*
X150860001Y-66080000I-249999J0D01*
G01*
G37*
%TD*%
%TO.C,C2*%
G36*
G01*
X146420000Y-60680001D02*
X146420000Y-59779999D01*
G75*
G02*
X146669999Y-59530000I249999J0D01*
G01*
X147320001Y-59530000D01*
G75*
G02*
X147570000Y-59779999I0J-249999D01*
G01*
X147570000Y-60680001D01*
G75*
G02*
X147320001Y-60930000I-249999J0D01*
G01*
X146669999Y-60930000D01*
G75*
G02*
X146420000Y-60680001I0J249999D01*
G01*
G37*
G36*
G01*
X144370000Y-60680001D02*
X144370000Y-59779999D01*
G75*
G02*
X144619999Y-59530000I249999J0D01*
G01*
X145270001Y-59530000D01*
G75*
G02*
X145520000Y-59779999I0J-249999D01*
G01*
X145520000Y-60680001D01*
G75*
G02*
X145270001Y-60930000I-249999J0D01*
G01*
X144619999Y-60930000D01*
G75*
G02*
X144370000Y-60680001I0J249999D01*
G01*
G37*
%TD*%
%TO.C,C1*%
G36*
G01*
X132589999Y-71610000D02*
X133490001Y-71610000D01*
G75*
G02*
X133740000Y-71859999I0J-249999D01*
G01*
X133740000Y-72510001D01*
G75*
G02*
X133490001Y-72760000I-249999J0D01*
G01*
X132589999Y-72760000D01*
G75*
G02*
X132340000Y-72510001I0J249999D01*
G01*
X132340000Y-71859999D01*
G75*
G02*
X132589999Y-71610000I249999J0D01*
G01*
G37*
G36*
G01*
X132589999Y-69560000D02*
X133490001Y-69560000D01*
G75*
G02*
X133740000Y-69809999I0J-249999D01*
G01*
X133740000Y-70460001D01*
G75*
G02*
X133490001Y-70710000I-249999J0D01*
G01*
X132589999Y-70710000D01*
G75*
G02*
X132340000Y-70460001I0J249999D01*
G01*
X132340000Y-69809999D01*
G75*
G02*
X132589999Y-69560000I249999J0D01*
G01*
G37*
%TD*%
M02*
