%TF.GenerationSoftware,KiCad,Pcbnew,(5.1.9)-1*%
%TF.CreationDate,2021-05-12T18:30:48+02:00*%
%TF.ProjectId,clip,636c6970-2e6b-4696-9361-645f70636258,rev?*%
%TF.SameCoordinates,Original*%
%TF.FileFunction,Soldermask,Top*%
%TF.FilePolarity,Negative*%
%FSLAX46Y46*%
G04 Gerber Fmt 4.6, Leading zero omitted, Abs format (unit mm)*
G04 Created by KiCad (PCBNEW (5.1.9)-1) date 2021-05-12 18:30:48*
%MOMM*%
%LPD*%
G01*
G04 APERTURE LIST*
%ADD10O,1.700000X1.700000*%
%ADD11R,1.700000X1.700000*%
%ADD12R,2.800000X0.900000*%
%ADD13R,0.900000X2.800000*%
%ADD14R,5.000000X5.000000*%
%ADD15C,0.800000*%
%ADD16R,1.700000X1.300000*%
%ADD17R,1.000000X1.000000*%
%ADD18O,0.850000X1.850000*%
%ADD19C,0.840000*%
%ADD20R,0.840000X0.840000*%
%ADD21R,1.560000X0.650000*%
%ADD22C,0.100000*%
%ADD23O,1.200000X1.750000*%
%ADD24R,1.900000X0.800000*%
G04 APERTURE END LIST*
D10*
%TO.C,DL*%
X126490000Y-117670000D03*
D11*
X126490000Y-120210000D03*
%TD*%
D10*
%TO.C,PW*%
X171450000Y-117665500D03*
D11*
X171450000Y-120205500D03*
%TD*%
D12*
%TO.C,U3*%
X139930000Y-123855000D03*
X139930000Y-122585000D03*
X139930000Y-121315000D03*
X139930000Y-120045000D03*
X139930000Y-118775000D03*
X139930000Y-117505000D03*
X139930000Y-116235000D03*
X139930000Y-114965000D03*
X139930000Y-113695000D03*
X139930000Y-112425000D03*
X139930000Y-111155000D03*
X139930000Y-109885000D03*
X139930000Y-108615000D03*
X139930000Y-107345000D03*
D13*
X143115000Y-105945000D03*
X144385000Y-105945000D03*
X145655000Y-105945000D03*
X146925000Y-105945000D03*
X148195000Y-105945000D03*
X149465000Y-105945000D03*
X150735000Y-105945000D03*
X152005000Y-105945000D03*
X153275000Y-105945000D03*
X154545000Y-105945000D03*
D12*
X157730000Y-107345000D03*
X157730000Y-108615000D03*
X157730000Y-109885000D03*
X157730000Y-111155000D03*
X157730000Y-112425000D03*
X157730000Y-113695000D03*
X157730000Y-114965000D03*
X157730000Y-116235000D03*
X157730000Y-117505000D03*
X157730000Y-118775000D03*
X157730000Y-120045000D03*
X157730000Y-121315000D03*
X157730000Y-122585000D03*
X157730000Y-123855000D03*
D14*
X149830000Y-116355000D03*
%TD*%
D15*
%TO.C,EN*%
X166350000Y-108920000D03*
D16*
X166350000Y-110820000D03*
X166350000Y-107020000D03*
%TD*%
D10*
%TO.C,LIS3DH*%
X168670000Y-91870000D03*
X166130000Y-91870000D03*
X163590000Y-91870000D03*
X161050000Y-91870000D03*
X158510000Y-91870000D03*
X155970000Y-91870000D03*
X153430000Y-91870000D03*
D11*
X150890000Y-91870000D03*
%TD*%
D10*
%TO.C,VIN*%
X137470000Y-61130000D03*
D11*
X140010000Y-61130000D03*
%TD*%
D10*
%TO.C,FW*%
X155300000Y-97650000D03*
X152760000Y-97650000D03*
X150220000Y-97650000D03*
X147680000Y-97650000D03*
X145140000Y-97650000D03*
D11*
X142600000Y-97650000D03*
%TD*%
%TO.C,D4*%
G36*
G01*
X155177800Y-76950001D02*
X155177800Y-76049999D01*
G75*
G02*
X155427799Y-75800000I249999J0D01*
G01*
X156077801Y-75800000D01*
G75*
G02*
X156327800Y-76049999I0J-249999D01*
G01*
X156327800Y-76950001D01*
G75*
G02*
X156077801Y-77200000I-249999J0D01*
G01*
X155427799Y-77200000D01*
G75*
G02*
X155177800Y-76950001I0J249999D01*
G01*
G37*
G36*
G01*
X157227800Y-76950001D02*
X157227800Y-76049999D01*
G75*
G02*
X157477799Y-75800000I249999J0D01*
G01*
X158127801Y-75800000D01*
G75*
G02*
X158377800Y-76049999I0J-249999D01*
G01*
X158377800Y-76950001D01*
G75*
G02*
X158127801Y-77200000I-249999J0D01*
G01*
X157477799Y-77200000D01*
G75*
G02*
X157227800Y-76950001I0J249999D01*
G01*
G37*
%TD*%
D17*
%TO.C,D2*%
X147550000Y-70450000D03*
X145050000Y-70450000D03*
%TD*%
D10*
%TO.C,BME680*%
X144208500Y-91821000D03*
X141668500Y-91821000D03*
X139128500Y-91821000D03*
X136588500Y-91821000D03*
X134048500Y-91821000D03*
X131508500Y-91821000D03*
D11*
X128968500Y-91821000D03*
%TD*%
D10*
%TO.C,MOISTURE*%
X151380000Y-61150000D03*
X148840000Y-61150000D03*
D11*
X146300000Y-61150000D03*
%TD*%
D18*
%TO.C,USB*%
X135175000Y-55080000D03*
X142325000Y-55080000D03*
D19*
X137450000Y-55300000D03*
X138100000Y-54300000D03*
X138750000Y-55300000D03*
X139400000Y-54300000D03*
D20*
X140050000Y-55300000D03*
%TD*%
D21*
%TO.C,U2*%
X153440000Y-70330000D03*
X153440000Y-68430000D03*
X156140000Y-68430000D03*
X156140000Y-69380000D03*
X156140000Y-70330000D03*
%TD*%
%TO.C,R3*%
G36*
G01*
X158350000Y-78179999D02*
X158350000Y-79080001D01*
G75*
G02*
X158100001Y-79330000I-249999J0D01*
G01*
X157449999Y-79330000D01*
G75*
G02*
X157200000Y-79080001I0J249999D01*
G01*
X157200000Y-78179999D01*
G75*
G02*
X157449999Y-77930000I249999J0D01*
G01*
X158100001Y-77930000D01*
G75*
G02*
X158350000Y-78179999I0J-249999D01*
G01*
G37*
G36*
G01*
X156300000Y-78179999D02*
X156300000Y-79080001D01*
G75*
G02*
X156050001Y-79330000I-249999J0D01*
G01*
X155399999Y-79330000D01*
G75*
G02*
X155150000Y-79080001I0J249999D01*
G01*
X155150000Y-78179999D01*
G75*
G02*
X155399999Y-77930000I249999J0D01*
G01*
X156050001Y-77930000D01*
G75*
G02*
X156300000Y-78179999I0J-249999D01*
G01*
G37*
%TD*%
D22*
%TO.C,JP1*%
G36*
X155554000Y-61087000D02*
G01*
X156054000Y-60337000D01*
X157054000Y-60337000D01*
X157054000Y-61837000D01*
X156054000Y-61837000D01*
X155554000Y-61087000D01*
G37*
G36*
X154604000Y-60337000D02*
G01*
X155754000Y-60337000D01*
X155254000Y-61087000D01*
X155754000Y-61837000D01*
X154604000Y-61837000D01*
X154604000Y-60337000D01*
G37*
%TD*%
%TO.C,D5*%
G36*
G01*
X143758500Y-102038999D02*
X143758500Y-102939001D01*
G75*
G02*
X143508501Y-103189000I-249999J0D01*
G01*
X142858499Y-103189000D01*
G75*
G02*
X142608500Y-102939001I0J249999D01*
G01*
X142608500Y-102038999D01*
G75*
G02*
X142858499Y-101789000I249999J0D01*
G01*
X143508501Y-101789000D01*
G75*
G02*
X143758500Y-102038999I0J-249999D01*
G01*
G37*
G36*
G01*
X145808500Y-102038999D02*
X145808500Y-102939001D01*
G75*
G02*
X145558501Y-103189000I-249999J0D01*
G01*
X144908499Y-103189000D01*
G75*
G02*
X144658500Y-102939001I0J249999D01*
G01*
X144658500Y-102038999D01*
G75*
G02*
X144908499Y-101789000I249999J0D01*
G01*
X145558501Y-101789000D01*
G75*
G02*
X145808500Y-102038999I0J-249999D01*
G01*
G37*
%TD*%
D23*
%TO.C,BATTERY*%
X125800000Y-72370000D03*
G36*
G01*
X128400000Y-71744999D02*
X128400000Y-72995001D01*
G75*
G02*
X128150001Y-73245000I-249999J0D01*
G01*
X127449999Y-73245000D01*
G75*
G02*
X127200000Y-72995001I0J249999D01*
G01*
X127200000Y-71744999D01*
G75*
G02*
X127449999Y-71495000I249999J0D01*
G01*
X128150001Y-71495000D01*
G75*
G02*
X128400000Y-71744999I0J-249999D01*
G01*
G37*
%TD*%
D21*
%TO.C,U1*%
X138751000Y-76502400D03*
X138751000Y-77452400D03*
X138751000Y-78402400D03*
X141451000Y-78402400D03*
X141451000Y-76502400D03*
%TD*%
D15*
%TO.C,BOOT*%
X131330000Y-108915000D03*
D16*
X131330000Y-107015000D03*
X131330000Y-110815000D03*
%TD*%
%TO.C,R7*%
G36*
G01*
X134069999Y-108775000D02*
X134970001Y-108775000D01*
G75*
G02*
X135220000Y-109024999I0J-249999D01*
G01*
X135220000Y-109675001D01*
G75*
G02*
X134970001Y-109925000I-249999J0D01*
G01*
X134069999Y-109925000D01*
G75*
G02*
X133820000Y-109675001I0J249999D01*
G01*
X133820000Y-109024999D01*
G75*
G02*
X134069999Y-108775000I249999J0D01*
G01*
G37*
G36*
G01*
X134069999Y-106725000D02*
X134970001Y-106725000D01*
G75*
G02*
X135220000Y-106974999I0J-249999D01*
G01*
X135220000Y-107625001D01*
G75*
G02*
X134970001Y-107875000I-249999J0D01*
G01*
X134069999Y-107875000D01*
G75*
G02*
X133820000Y-107625001I0J249999D01*
G01*
X133820000Y-106974999D01*
G75*
G02*
X134069999Y-106725000I249999J0D01*
G01*
G37*
%TD*%
%TO.C,R9*%
G36*
G01*
X163830000Y-112549999D02*
X163830000Y-113450001D01*
G75*
G02*
X163580001Y-113700000I-249999J0D01*
G01*
X162929999Y-113700000D01*
G75*
G02*
X162680000Y-113450001I0J249999D01*
G01*
X162680000Y-112549999D01*
G75*
G02*
X162929999Y-112300000I249999J0D01*
G01*
X163580001Y-112300000D01*
G75*
G02*
X163830000Y-112549999I0J-249999D01*
G01*
G37*
G36*
G01*
X165880000Y-112549999D02*
X165880000Y-113450001D01*
G75*
G02*
X165630001Y-113700000I-249999J0D01*
G01*
X164979999Y-113700000D01*
G75*
G02*
X164730000Y-113450001I0J249999D01*
G01*
X164730000Y-112549999D01*
G75*
G02*
X164979999Y-112300000I249999J0D01*
G01*
X165630001Y-112300000D01*
G75*
G02*
X165880000Y-112549999I0J-249999D01*
G01*
G37*
%TD*%
%TO.C,R8*%
G36*
G01*
X153929500Y-102939001D02*
X153929500Y-102038999D01*
G75*
G02*
X154179499Y-101789000I249999J0D01*
G01*
X154829501Y-101789000D01*
G75*
G02*
X155079500Y-102038999I0J-249999D01*
G01*
X155079500Y-102939001D01*
G75*
G02*
X154829501Y-103189000I-249999J0D01*
G01*
X154179499Y-103189000D01*
G75*
G02*
X153929500Y-102939001I0J249999D01*
G01*
G37*
G36*
G01*
X151879500Y-102939001D02*
X151879500Y-102038999D01*
G75*
G02*
X152129499Y-101789000I249999J0D01*
G01*
X152779501Y-101789000D01*
G75*
G02*
X153029500Y-102038999I0J-249999D01*
G01*
X153029500Y-102939001D01*
G75*
G02*
X152779501Y-103189000I-249999J0D01*
G01*
X152129499Y-103189000D01*
G75*
G02*
X151879500Y-102939001I0J249999D01*
G01*
G37*
%TD*%
%TO.C,R6*%
G36*
G01*
X159544600Y-60636999D02*
X159544600Y-61537001D01*
G75*
G02*
X159294601Y-61787000I-249999J0D01*
G01*
X158644599Y-61787000D01*
G75*
G02*
X158394600Y-61537001I0J249999D01*
G01*
X158394600Y-60636999D01*
G75*
G02*
X158644599Y-60387000I249999J0D01*
G01*
X159294601Y-60387000D01*
G75*
G02*
X159544600Y-60636999I0J-249999D01*
G01*
G37*
G36*
G01*
X161594600Y-60636999D02*
X161594600Y-61537001D01*
G75*
G02*
X161344601Y-61787000I-249999J0D01*
G01*
X160694599Y-61787000D01*
G75*
G02*
X160444600Y-61537001I0J249999D01*
G01*
X160444600Y-60636999D01*
G75*
G02*
X160694599Y-60387000I249999J0D01*
G01*
X161344601Y-60387000D01*
G75*
G02*
X161594600Y-60636999I0J-249999D01*
G01*
G37*
%TD*%
%TO.C,R5*%
G36*
G01*
X145031000Y-76962401D02*
X145031000Y-76062399D01*
G75*
G02*
X145280999Y-75812400I249999J0D01*
G01*
X145931001Y-75812400D01*
G75*
G02*
X146181000Y-76062399I0J-249999D01*
G01*
X146181000Y-76962401D01*
G75*
G02*
X145931001Y-77212400I-249999J0D01*
G01*
X145280999Y-77212400D01*
G75*
G02*
X145031000Y-76962401I0J249999D01*
G01*
G37*
G36*
G01*
X147081000Y-76962401D02*
X147081000Y-76062399D01*
G75*
G02*
X147330999Y-75812400I249999J0D01*
G01*
X147981001Y-75812400D01*
G75*
G02*
X148231000Y-76062399I0J-249999D01*
G01*
X148231000Y-76962401D01*
G75*
G02*
X147981001Y-77212400I-249999J0D01*
G01*
X147330999Y-77212400D01*
G75*
G02*
X147081000Y-76962401I0J249999D01*
G01*
G37*
%TD*%
%TO.C,R4*%
G36*
G01*
X159161999Y-69624400D02*
X160062001Y-69624400D01*
G75*
G02*
X160312000Y-69874399I0J-249999D01*
G01*
X160312000Y-70524401D01*
G75*
G02*
X160062001Y-70774400I-249999J0D01*
G01*
X159161999Y-70774400D01*
G75*
G02*
X158912000Y-70524401I0J249999D01*
G01*
X158912000Y-69874399D01*
G75*
G02*
X159161999Y-69624400I249999J0D01*
G01*
G37*
G36*
G01*
X159161999Y-67574400D02*
X160062001Y-67574400D01*
G75*
G02*
X160312000Y-67824399I0J-249999D01*
G01*
X160312000Y-68474401D01*
G75*
G02*
X160062001Y-68724400I-249999J0D01*
G01*
X159161999Y-68724400D01*
G75*
G02*
X158912000Y-68474401I0J249999D01*
G01*
X158912000Y-67824399D01*
G75*
G02*
X159161999Y-67574400I249999J0D01*
G01*
G37*
%TD*%
%TO.C,R2*%
G36*
G01*
X147777000Y-65615399D02*
X147777000Y-66515401D01*
G75*
G02*
X147527001Y-66765400I-249999J0D01*
G01*
X146876999Y-66765400D01*
G75*
G02*
X146627000Y-66515401I0J249999D01*
G01*
X146627000Y-65615399D01*
G75*
G02*
X146876999Y-65365400I249999J0D01*
G01*
X147527001Y-65365400D01*
G75*
G02*
X147777000Y-65615399I0J-249999D01*
G01*
G37*
G36*
G01*
X145727000Y-65615399D02*
X145727000Y-66515401D01*
G75*
G02*
X145477001Y-66765400I-249999J0D01*
G01*
X144826999Y-66765400D01*
G75*
G02*
X144577000Y-66515401I0J249999D01*
G01*
X144577000Y-65615399D01*
G75*
G02*
X144826999Y-65365400I249999J0D01*
G01*
X145477001Y-65365400D01*
G75*
G02*
X145727000Y-65615399I0J-249999D01*
G01*
G37*
%TD*%
%TO.C,R1*%
G36*
G01*
X150720000Y-79060001D02*
X150720000Y-78159999D01*
G75*
G02*
X150969999Y-77910000I249999J0D01*
G01*
X151620001Y-77910000D01*
G75*
G02*
X151870000Y-78159999I0J-249999D01*
G01*
X151870000Y-79060001D01*
G75*
G02*
X151620001Y-79310000I-249999J0D01*
G01*
X150969999Y-79310000D01*
G75*
G02*
X150720000Y-79060001I0J249999D01*
G01*
G37*
G36*
G01*
X152770000Y-79060001D02*
X152770000Y-78159999D01*
G75*
G02*
X153019999Y-77910000I249999J0D01*
G01*
X153670001Y-77910000D01*
G75*
G02*
X153920000Y-78159999I0J-249999D01*
G01*
X153920000Y-79060001D01*
G75*
G02*
X153670001Y-79310000I-249999J0D01*
G01*
X153019999Y-79310000D01*
G75*
G02*
X152770000Y-79060001I0J249999D01*
G01*
G37*
%TD*%
D24*
%TO.C,Q1*%
X141581000Y-70444400D03*
X141581000Y-68544400D03*
X138581000Y-69494400D03*
%TD*%
%TO.C,POWER*%
G36*
G01*
X157630000Y-54179999D02*
X157630000Y-55080001D01*
G75*
G02*
X157380001Y-55330000I-249999J0D01*
G01*
X156729999Y-55330000D01*
G75*
G02*
X156480000Y-55080001I0J249999D01*
G01*
X156480000Y-54179999D01*
G75*
G02*
X156729999Y-53930000I249999J0D01*
G01*
X157380001Y-53930000D01*
G75*
G02*
X157630000Y-54179999I0J-249999D01*
G01*
G37*
G36*
G01*
X159680000Y-54179999D02*
X159680000Y-55080001D01*
G75*
G02*
X159430001Y-55330000I-249999J0D01*
G01*
X158779999Y-55330000D01*
G75*
G02*
X158530000Y-55080001I0J249999D01*
G01*
X158530000Y-54179999D01*
G75*
G02*
X158779999Y-53930000I249999J0D01*
G01*
X159430001Y-53930000D01*
G75*
G02*
X159680000Y-54179999I0J-249999D01*
G01*
G37*
%TD*%
%TO.C,D1*%
G36*
G01*
X153920000Y-76049999D02*
X153920000Y-76950001D01*
G75*
G02*
X153670001Y-77200000I-249999J0D01*
G01*
X153019999Y-77200000D01*
G75*
G02*
X152770000Y-76950001I0J249999D01*
G01*
X152770000Y-76049999D01*
G75*
G02*
X153019999Y-75800000I249999J0D01*
G01*
X153670001Y-75800000D01*
G75*
G02*
X153920000Y-76049999I0J-249999D01*
G01*
G37*
G36*
G01*
X151870000Y-76049999D02*
X151870000Y-76950001D01*
G75*
G02*
X151620001Y-77200000I-249999J0D01*
G01*
X150969999Y-77200000D01*
G75*
G02*
X150720000Y-76950001I0J249999D01*
G01*
X150720000Y-76049999D01*
G75*
G02*
X150969999Y-75800000I249999J0D01*
G01*
X151620001Y-75800000D01*
G75*
G02*
X151870000Y-76049999I0J-249999D01*
G01*
G37*
%TD*%
%TO.C,C7*%
G36*
G01*
X163740001Y-107990000D02*
X162839999Y-107990000D01*
G75*
G02*
X162590000Y-107740001I0J249999D01*
G01*
X162590000Y-107089999D01*
G75*
G02*
X162839999Y-106840000I249999J0D01*
G01*
X163740001Y-106840000D01*
G75*
G02*
X163990000Y-107089999I0J-249999D01*
G01*
X163990000Y-107740001D01*
G75*
G02*
X163740001Y-107990000I-249999J0D01*
G01*
G37*
G36*
G01*
X163740001Y-110040000D02*
X162839999Y-110040000D01*
G75*
G02*
X162590000Y-109790001I0J249999D01*
G01*
X162590000Y-109139999D01*
G75*
G02*
X162839999Y-108890000I249999J0D01*
G01*
X163740001Y-108890000D01*
G75*
G02*
X163990000Y-109139999I0J-249999D01*
G01*
X163990000Y-109790001D01*
G75*
G02*
X163740001Y-110040000I-249999J0D01*
G01*
G37*
%TD*%
%TO.C,C6*%
G36*
G01*
X161909999Y-123235000D02*
X162810001Y-123235000D01*
G75*
G02*
X163060000Y-123484999I0J-249999D01*
G01*
X163060000Y-124135001D01*
G75*
G02*
X162810001Y-124385000I-249999J0D01*
G01*
X161909999Y-124385000D01*
G75*
G02*
X161660000Y-124135001I0J249999D01*
G01*
X161660000Y-123484999D01*
G75*
G02*
X161909999Y-123235000I249999J0D01*
G01*
G37*
G36*
G01*
X161909999Y-121185000D02*
X162810001Y-121185000D01*
G75*
G02*
X163060000Y-121434999I0J-249999D01*
G01*
X163060000Y-122085001D01*
G75*
G02*
X162810001Y-122335000I-249999J0D01*
G01*
X161909999Y-122335000D01*
G75*
G02*
X161660000Y-122085001I0J249999D01*
G01*
X161660000Y-121434999D01*
G75*
G02*
X161909999Y-121185000I249999J0D01*
G01*
G37*
%TD*%
%TO.C,C5*%
G36*
G01*
X164219999Y-123240000D02*
X165120001Y-123240000D01*
G75*
G02*
X165370000Y-123489999I0J-249999D01*
G01*
X165370000Y-124140001D01*
G75*
G02*
X165120001Y-124390000I-249999J0D01*
G01*
X164219999Y-124390000D01*
G75*
G02*
X163970000Y-124140001I0J249999D01*
G01*
X163970000Y-123489999D01*
G75*
G02*
X164219999Y-123240000I249999J0D01*
G01*
G37*
G36*
G01*
X164219999Y-121190000D02*
X165120001Y-121190000D01*
G75*
G02*
X165370000Y-121439999I0J-249999D01*
G01*
X165370000Y-122090001D01*
G75*
G02*
X165120001Y-122340000I-249999J0D01*
G01*
X164219999Y-122340000D01*
G75*
G02*
X163970000Y-122090001I0J249999D01*
G01*
X163970000Y-121439999D01*
G75*
G02*
X164219999Y-121190000I249999J0D01*
G01*
G37*
%TD*%
%TO.C,C4*%
G36*
G01*
X159161999Y-73334400D02*
X160062001Y-73334400D01*
G75*
G02*
X160312000Y-73584399I0J-249999D01*
G01*
X160312000Y-74234401D01*
G75*
G02*
X160062001Y-74484400I-249999J0D01*
G01*
X159161999Y-74484400D01*
G75*
G02*
X158912000Y-74234401I0J249999D01*
G01*
X158912000Y-73584399D01*
G75*
G02*
X159161999Y-73334400I249999J0D01*
G01*
G37*
G36*
G01*
X159161999Y-71284400D02*
X160062001Y-71284400D01*
G75*
G02*
X160312000Y-71534399I0J-249999D01*
G01*
X160312000Y-72184401D01*
G75*
G02*
X160062001Y-72434400I-249999J0D01*
G01*
X159161999Y-72434400D01*
G75*
G02*
X158912000Y-72184401I0J249999D01*
G01*
X158912000Y-71534399D01*
G75*
G02*
X159161999Y-71284400I249999J0D01*
G01*
G37*
%TD*%
%TO.C,C3*%
G36*
G01*
X151132001Y-68914400D02*
X150231999Y-68914400D01*
G75*
G02*
X149982000Y-68664401I0J249999D01*
G01*
X149982000Y-68014399D01*
G75*
G02*
X150231999Y-67764400I249999J0D01*
G01*
X151132001Y-67764400D01*
G75*
G02*
X151382000Y-68014399I0J-249999D01*
G01*
X151382000Y-68664401D01*
G75*
G02*
X151132001Y-68914400I-249999J0D01*
G01*
G37*
G36*
G01*
X151132001Y-70964400D02*
X150231999Y-70964400D01*
G75*
G02*
X149982000Y-70714401I0J249999D01*
G01*
X149982000Y-70064399D01*
G75*
G02*
X150231999Y-69814400I249999J0D01*
G01*
X151132001Y-69814400D01*
G75*
G02*
X151382000Y-70064399I0J-249999D01*
G01*
X151382000Y-70714401D01*
G75*
G02*
X151132001Y-70964400I-249999J0D01*
G01*
G37*
%TD*%
%TO.C,C2*%
G36*
G01*
X145031000Y-79062401D02*
X145031000Y-78162399D01*
G75*
G02*
X145280999Y-77912400I249999J0D01*
G01*
X145931001Y-77912400D01*
G75*
G02*
X146181000Y-78162399I0J-249999D01*
G01*
X146181000Y-79062401D01*
G75*
G02*
X145931001Y-79312400I-249999J0D01*
G01*
X145280999Y-79312400D01*
G75*
G02*
X145031000Y-79062401I0J249999D01*
G01*
G37*
G36*
G01*
X147081000Y-79062401D02*
X147081000Y-78162399D01*
G75*
G02*
X147330999Y-77912400I249999J0D01*
G01*
X147981001Y-77912400D01*
G75*
G02*
X148231000Y-78162399I0J-249999D01*
G01*
X148231000Y-79062401D01*
G75*
G02*
X147981001Y-79312400I-249999J0D01*
G01*
X147330999Y-79312400D01*
G75*
G02*
X147081000Y-79062401I0J249999D01*
G01*
G37*
%TD*%
%TO.C,C1*%
G36*
G01*
X134435001Y-72397200D02*
X133534999Y-72397200D01*
G75*
G02*
X133285000Y-72147201I0J249999D01*
G01*
X133285000Y-71497199D01*
G75*
G02*
X133534999Y-71247200I249999J0D01*
G01*
X134435001Y-71247200D01*
G75*
G02*
X134685000Y-71497199I0J-249999D01*
G01*
X134685000Y-72147201D01*
G75*
G02*
X134435001Y-72397200I-249999J0D01*
G01*
G37*
G36*
G01*
X134435001Y-74447200D02*
X133534999Y-74447200D01*
G75*
G02*
X133285000Y-74197201I0J249999D01*
G01*
X133285000Y-73547199D01*
G75*
G02*
X133534999Y-73297200I249999J0D01*
G01*
X134435001Y-73297200D01*
G75*
G02*
X134685000Y-73547199I0J-249999D01*
G01*
X134685000Y-74197201D01*
G75*
G02*
X134435001Y-74447200I-249999J0D01*
G01*
G37*
%TD*%
M02*
